<?xml version="1.0" encoding="us-ascii" standalone="no"?><svg xmlns="http://www.w3.org/2000/svg" xmlns:xlink="http://www.w3.org/1999/xlink" contentStyleType="text/css" height="1021px" preserveAspectRatio="none" style="width:2077px;height:1021px;background:#FAFAFA;" version="1.1" viewBox="0 0 2077 1021" width="2077px" zoomAndPan="magnify"><defs/><g><rect fill="#FAFAFA" height="1021" style="stroke:none;stroke-width:1.0;" width="2077" x="0" y="0"/><text fill="#000000" font-family="Arial" font-size="22" font-weight="bold" lengthAdjust="spacing" textLength="490" x="789" y="35.6357">3D Data Quality Framework  |  System Overview</text><!--cluster USERS--><g id="cluster_USERS"><rect fill="#FFF3E0" height="137" rx="6" ry="6" style="stroke:#B0BEC5;stroke-width:1.0;" width="565" x="999" y="209.7979"/><text fill="#000000" font-family="Arial" font-size="11" font-weight="bold" lengthAdjust="spacing" textLength="74" x="1244.5" y="222.1157">Stakeholders</text></g><!--cluster CAPTURE--><g id="cluster_CAPTURE"><rect fill="#E8F5E9" height="159" rx="6" ry="6" style="stroke:#B0BEC5;stroke-width:1.0;" width="727" x="1080" y="538.2979"/><text fill="#000000" font-family="Arial" font-size="11" font-weight="bold" lengthAdjust="spacing" textLength="342" x="1272.5" y="550.6157">Self-Service Rule Capture  (DQ Chatbot App + DQ Backend App)</text></g><!--cluster STORE--><g id="cluster_STORE"><rect fill="#E3F2FD" height="115" rx="6" ry="6" style="stroke:#B0BEC5;stroke-width:1.0;" width="899" x="1047" y="765.7979"/><text fill="#000000" font-family="Arial" font-size="11" font-weight="bold" lengthAdjust="spacing" textLength="272" x="1360.5" y="778.1157">Rule &amp; Metric Store  (Unity Catalog -- Delta Tables)</text></g><!--cluster DRE--><g id="cluster_DRE"><rect fill="#E3F2FD" height="172" rx="6" ry="6" style="stroke:#B0BEC5;stroke-width:1.0;" width="735" x="12" y="737.2979"/><text fill="#000000" font-family="Arial" font-size="11" font-weight="bold" lengthAdjust="spacing" textLength="335" x="212" y="749.6157">DRE 3D Execution Framework  (Databricks Workflows + Apps)</text></g><!--entity USR--><g id="elem_USR"><ellipse cx="1291" cy="257.7979" fill="#FFFFFF" rx="8" ry="8" style="stroke:#000000;stroke-width:1.0;"/><path d="M1291,265.7979 L1291,292.7979 M1278,273.7979 L1304,273.7979 M1291,292.7979 L1278,307.7979 M1291,292.7979 L1304,307.7979 " fill="none" style="stroke:#000000;stroke-width:1.0;"/><text fill="#000000" font-family="Arial" font-size="11" lengthAdjust="spacing" textLength="498" x="1042" y="320.1157">Data Engineers  |  Business Analysts  |  Product Owners  |  Tech Leads  |  DataOps  |  Data Governance</text></g><!--entity GENIE--><g id="elem_GENIE"><rect fill="#C5CAE9" height="70.5957" rx="6" ry="6" style="stroke:#90A4AE;stroke-width:1.0;" width="174" x="1123" y="589.7979"/><text fill="#000000" font-family="Arial" font-size="11" lengthAdjust="spacing" textLength="78" x="1133" y="610.1157">DQ Chatbot App</text><text fill="#000000" font-family="Arial" font-size="11" lengthAdjust="spacing" textLength="154" x="1133" y="622.7646">(Databricks Apps + LangGraph)</text><text fill="#000000" font-family="Arial" font-size="11" lengthAdjust="spacing" textLength="119" x="1133" y="635.4136">NL Q&amp;A  |  Rule proposal</text><text fill="#000000" font-family="Arial" font-size="11" lengthAdjust="spacing" textLength="137" x="1133" y="648.0625">Coverage gaps  |  KPI lookup</text></g><!--entity AUTHORING--><g id="elem_AUTHORING"><rect fill="#C8E6C9" height="95.8936" rx="6" ry="6" style="stroke:#90A4AE;stroke-width:1.0;" width="275" x="1332.5" y="577.2979"/><text fill="#000000" font-family="Arial" font-size="11" lengthAdjust="spacing" textLength="110" x="1342.5" y="597.6157">Rule Authoring Pipeline</text><text fill="#000000" font-family="Arial" font-size="11" lengthAdjust="spacing" textLength="91" x="1342.5" y="610.2646">(DQ Backend App)</text><text fill="#000000" font-family="Arial" font-size="11" lengthAdjust="spacing" textLength="252" x="1342.5" y="622.9136">RAG Retriever  &gt;  SQL Generator  &gt;  Security Guard</text><text fill="#000000" font-family="Arial" font-size="11" lengthAdjust="spacing" textLength="255" x="1342.5" y="635.5625">SQL Validator  &gt;  Duplicate Detector  &gt;  Trend Scorer</text><text fill="#000000" font-family="Arial" font-size="11" lengthAdjust="spacing" textLength="179" x="1342.5" y="648.2114">Rule Submitter  &gt;  Approval Gateway</text><text fill="#000000" font-family="Arial" font-size="11" lengthAdjust="spacing" textLength="248" x="1342.5" y="660.8604">Check Suggestion Resolver (cache + schema gate)</text></g><!--entity LLM--><g id="elem_LLM"><rect fill="#DCEDC8" height="83.2446" rx="6" ry="6" style="stroke:#90A4AE;stroke-width:1.0;" width="140" x="1643" y="583.7979"/><text fill="#000000" font-family="Arial" font-size="11" lengthAdjust="spacing" textLength="55" x="1653" y="604.1157">LLM Engine</text><text fill="#000000" font-family="Arial" font-size="11" lengthAdjust="spacing" textLength="120" x="1653" y="616.7646">(Model Serving Endpoint)</text><text fill="#000000" font-family="Arial" font-size="11" lengthAdjust="spacing" textLength="92" x="1653" y="629.4136">Intent classification</text><text fill="#000000" font-family="Arial" font-size="11" lengthAdjust="spacing" textLength="75" x="1653" y="642.0625">SQL generation</text><text fill="#000000" font-family="Arial" font-size="11" lengthAdjust="spacing" textLength="67" x="1653" y="654.7114">Trend scoring</text></g><!--entity RuleDB--><g id="elem_RuleDB"><path d="M1438.5,814.7979 C1438.5,804.7979 1504,804.7979 1504,804.7979 C1504,804.7979 1569.5,804.7979 1569.5,814.7979 L1569.5,846.7959 C1569.5,856.7959 1504,856.7959 1504,856.7959 C1504,856.7959 1438.5,856.7959 1438.5,846.7959 L1438.5,814.7979 " fill="#E3F2FD" style="stroke:#1565C0;stroke-width:1.0;"/><path d="M1438.5,814.7979 C1438.5,824.7979 1504,824.7979 1504,824.7979 C1504,824.7979 1569.5,824.7979 1569.5,814.7979 " fill="none" style="stroke:#1565C0;stroke-width:1.0;"/><text fill="#000000" font-family="Arial" font-size="10" lengthAdjust="spacing" textLength="111" x="1448.5" y="838.1777">anomaly_check_config</text><text fill="#000000" font-family="Arial" font-size="10" lengthAdjust="spacing" textLength="68" x="1448.5" y="849.6768">(Rule Registry)</text></g><!--entity SuggestCache--><g id="elem_SuggestCache"><path d="M1762.5,814.7979 C1762.5,804.7979 1842,804.7979 1842,804.7979 C1842,804.7979 1921.5,804.7979 1921.5,814.7979 L1921.5,846.7959 C1921.5,856.7959 1842,856.7959 1842,856.7959 C1842,856.7959 1762.5,856.7959 1762.5,846.7959 L1762.5,814.7979 " fill="#E3F2FD" style="stroke:#1565C0;stroke-width:1.0;"/><path d="M1762.5,814.7979 C1762.5,824.7979 1842,824.7979 1842,824.7979 C1842,824.7979 1921.5,824.7979 1921.5,814.7979 " fill="none" style="stroke:#1565C0;stroke-width:1.0;"/><text fill="#000000" font-family="Arial" font-size="10" lengthAdjust="spacing" textLength="124" x="1772.5" y="838.1777">check_suggestions_cache</text><text fill="#000000" font-family="Arial" font-size="10" lengthAdjust="spacing" textLength="139" x="1772.5" y="849.6768">(table_fqn + schema_version)</text></g><!--entity MetricsDB--><g id="elem_MetricsDB"><path d="M1090.5,814.7979 C1090.5,804.7979 1148,804.7979 1148,804.7979 C1148,804.7979 1205.5,804.7979 1205.5,814.7979 L1205.5,846.7959 C1205.5,856.7959 1148,856.7959 1148,856.7959 C1148,856.7959 1090.5,856.7959 1090.5,846.7959 L1090.5,814.7979 " fill="#E3F2FD" style="stroke:#1565C0;stroke-width:1.0;"/><path d="M1090.5,814.7979 C1090.5,824.7979 1148,824.7979 1148,824.7979 C1148,824.7979 1205.5,824.7979 1205.5,814.7979 " fill="none" style="stroke:#1565C0;stroke-width:1.0;"/><text fill="#000000" font-family="Arial" font-size="10" lengthAdjust="spacing" textLength="93" x="1100.5" y="838.1777">table_daily_metrics</text><text fill="#000000" font-family="Arial" font-size="10" lengthAdjust="spacing" textLength="95" x="1100.5" y="849.6768">(Baselines + EWMA)</text></g><!--entity AnomDB--><g id="elem_AnomDB"><path d="M1241,814.7979 C1241,804.7979 1322,804.7979 1322,804.7979 C1322,804.7979 1403,804.7979 1403,814.7979 L1403,846.7959 C1403,856.7959 1322,856.7959 1322,856.7959 C1322,856.7959 1241,856.7959 1241,846.7959 L1241,814.7979 " fill="#E3F2FD" style="stroke:#1565C0;stroke-width:1.0;"/><path d="M1241,814.7979 C1241,824.7979 1322,824.7979 1322,824.7979 C1322,824.7979 1403,824.7979 1403,814.7979 " fill="none" style="stroke:#1565C0;stroke-width:1.0;"/><text fill="#000000" font-family="Arial" font-size="10" lengthAdjust="spacing" textLength="142" x="1251" y="838.1777">DIGITAL_DATA_ANOMALIES</text><text fill="#000000" font-family="Arial" font-size="10" lengthAdjust="spacing" textLength="82" x="1251" y="849.6768">(Anomaly Events)</text></g><!--entity ExecLog--><g id="elem_ExecLog"><path d="M1605,814.7979 C1605,804.7979 1666,804.7979 1666,804.7979 C1666,804.7979 1727,804.7979 1727,814.7979 L1727,846.7959 C1727,856.7959 1666,856.7959 1666,856.7959 C1666,856.7959 1605,856.7959 1605,846.7959 L1605,814.7979 " fill="#E3F2FD" style="stroke:#1565C0;stroke-width:1.0;"/><path d="M1605,814.7979 C1605,824.7979 1666,824.7979 1666,824.7979 C1666,824.7979 1727,824.7979 1727,814.7979 " fill="none" style="stroke:#1565C0;stroke-width:1.0;"/><text fill="#000000" font-family="Arial" font-size="10" lengthAdjust="spacing" textLength="102" x="1615" y="838.1777">check_execution_log</text><text fill="#000000" font-family="Arial" font-size="10" lengthAdjust="spacing" textLength="59" x="1615" y="849.6768">(Run History)</text></g><!--entity D1--><g id="elem_D1"><rect fill="#FFCDD2" height="95.8936" rx="6" ry="6" style="stroke:#90A4AE;stroke-width:1.0;" width="153" x="291.5" y="782.7979"/><text fill="#000000" font-family="Arial" font-size="11" lengthAdjust="spacing" textLength="74" x="301.5" y="803.1157">D1  DETECTION</text><text fill="#000000" font-family="Arial" font-size="11" lengthAdjust="spacing" textLength="133" x="301.5" y="815.7646">(Anomaly Detection Engine)</text><text fill="#000000" font-family="Arial" font-size="11" lengthAdjust="spacing" textLength="130" x="301.5" y="828.4136">Profiler  |  Baseline Learner</text><text fill="#000000" font-family="Arial" font-size="11" lengthAdjust="spacing" textLength="132" x="301.5" y="841.0625">Check Dispatcher (9 paths)</text><text fill="#000000" font-family="Arial" font-size="11" lengthAdjust="spacing" textLength="68" x="301.5" y="853.7114">Alert Manager</text><text fill="#000000" font-family="Arial" font-size="11" lengthAdjust="spacing" textLength="50" x="301.5" y="866.3604">[KPI: DRRI]</text></g><!--entity D2--><g id="elem_D2"><rect fill="#F8BBD0" height="108.5425" rx="6" ry="6" style="stroke:#90A4AE;stroke-width:1.0;" width="224" x="480" y="776.2979"/><text fill="#000000" font-family="Arial" font-size="11" lengthAdjust="spacing" textLength="75" x="490" y="796.6157">D2  DIAGNOSIS</text><text fill="#000000" font-family="Arial" font-size="11" lengthAdjust="spacing" textLength="155" x="490" y="809.2646">Drift Classifier  |  Lineage Tracer</text><text fill="#000000" font-family="Arial" font-size="11" lengthAdjust="spacing" textLength="177" x="490" y="821.9136">Segment Slicer  |  Evidence Retriever</text><text fill="#000000" font-family="Arial" font-size="11" lengthAdjust="spacing" textLength="193" x="490" y="834.5625">Playbook Compiler  |  Prescription Router</text><text fill="#000000" font-family="Arial" font-size="11" lengthAdjust="spacing" textLength="199" x="490" y="847.2114">Evidence: job logs / DESCRIBE HISTORY /</text><text fill="#000000" font-family="Arial" font-size="11" lengthAdjust="spacing" textLength="204" x="490" y="859.8604">runbooks (Confluence+UC) / GitHub / ITSM</text><text fill="#000000" font-family="Arial" font-size="11" lengthAdjust="spacing" textLength="154" x="490" y="872.5093">[Output: JSON execution recipe]</text></g><!--entity D3--><g id="elem_D3"><rect fill="#EDE7F6" height="95.8936" rx="6" ry="6" style="stroke:#90A4AE;stroke-width:1.0;" width="220" x="36" y="782.7979"/><text fill="#000000" font-family="Arial" font-size="11" lengthAdjust="spacing" textLength="80" x="46" y="803.1157">D3  DEFLECTION</text><text fill="#000000" font-family="Arial" font-size="11" lengthAdjust="spacing" textLength="156" x="46" y="815.7646">State Validator  |  Circuit Breaker</text><text fill="#000000" font-family="Arial" font-size="11" lengthAdjust="spacing" textLength="200" x="46" y="828.4136">Approval Gate  |  Domain Executors (x12)</text><text fill="#000000" font-family="Arial" font-size="11" lengthAdjust="spacing" textLength="189" x="46" y="841.0625">adiClub / CRM / Clickstream / DTC Sales</text><text fill="#000000" font-family="Arial" font-size="11" lengthAdjust="spacing" textLength="186" x="46" y="853.7114">Payments / Trading / Metadata / NPS ...</text><text fill="#000000" font-family="Arial" font-size="11" lengthAdjust="spacing" textLength="183" x="46" y="866.3604">[Output: Fix + verify + feedback to D1]</text></g><!--entity RAG--><g id="elem_RAG"><rect fill="#EDE7F6" height="70.5957" rx="6" ry="6" style="stroke:#90A4AE;stroke-width:1.0;" width="245" x="774.5" y="795.2979"/><text fill="#000000" font-family="Arial" font-size="11" lengthAdjust="spacing" textLength="109" x="784.5" y="815.6157">RAG Knowledge Base</text><text fill="#000000" font-family="Arial" font-size="11" lengthAdjust="spacing" textLength="204" x="784.5" y="828.2646">(Databricks Vector Search + UC Volumes)</text><text fill="#000000" font-family="Arial" font-size="11" lengthAdjust="spacing" textLength="183" x="784.5" y="840.9136">data_contracts/  |  supported_checks/</text><text fill="#000000" font-family="Arial" font-size="11" lengthAdjust="spacing" textLength="225" x="784.5" y="853.5625">sql_patterns/  |  examples/  |  domain_glossary/</text></g><!--entity NOTIF--><g id="elem_NOTIF"><rect fill="#FFF9C4" height="45.2979" rx="6" ry="6" style="stroke:#90A4AE;stroke-width:1.0;" width="183" x="346.5" y="958.2979"/><text fill="#000000" font-family="Arial" font-size="11" lengthAdjust="spacing" textLength="59" x="356.5" y="978.6157">Notifications</text><text fill="#000000" font-family="Arial" font-size="11" lengthAdjust="spacing" textLength="163" x="356.5" y="991.2646">(Email  |  Jira  |  Databricks In-App)</text></g><!--entity OUTCOMES--><g id="elem_OUTCOMES"><rect fill="#E8F5E9" height="70.5957" rx="6" ry="6" style="stroke:#90A4AE;stroke-width:1.0;" width="208" x="635" y="945.2979"/><text fill="#000000" font-family="Arial" font-size="11" lengthAdjust="spacing" textLength="97" x="645" y="965.6157">Business Outcomes</text><text fill="#000000" font-family="Arial" font-size="11" lengthAdjust="spacing" textLength="157" x="645" y="978.2646">DRRI &gt; 95%  |  MTTD 48h -&gt; 4-8h</text><text fill="#000000" font-family="Arial" font-size="11" lengthAdjust="spacing" textLength="184" x="645" y="990.9136">SLA 60% -&gt; 88%  |  40% toil reduction</text><text fill="#000000" font-family="Arial" font-size="11" lengthAdjust="spacing" textLength="188" x="645" y="1003.5625">3,032 tables  |  11% -&gt; 90%+ coverage</text></g><g id="elem_OverviewGuide"><path d="M1588,57.2979 L1588,514.0103 L2070,514.0103 L2070,67.2979 L2060,57.2979 L1588,57.2979 " fill="#FFFFFF" style="stroke:#000000;stroke-width:1.0;"/><path d="M2060,57.2979 L2060,67.2979 L2070,67.2979 L2060,57.2979 " fill="#FFFFFF" style="stroke:#000000;stroke-width:1.0;"/><text fill="#000000" font-family="Arial" font-size="11" font-weight="bold" lengthAdjust="spacing" textLength="138" x="1594" y="72.6157">How to read this diagram</text><text fill="#000000" font-family="Arial" font-size="11" font-weight="bold" lengthAdjust="spacing" textLength="50" x="1594" y="97.9136">TOP ROW</text><text fill="#000000" font-family="Arial" font-size="11" lengthAdjust="spacing" textLength="81" x="1647" y="97.9136">-- Who interacts:</text><text fill="#000000" font-family="Arial" font-size="11" lengthAdjust="spacing" textLength="455" x="1594" y="110.5625">Data Engineers and BAs author rules via the DQ Chatbot App (Databricks Apps + LangGraph).</text><text fill="#000000" font-family="Arial" font-size="11" lengthAdjust="spacing" textLength="299" x="1594" y="123.2114">Product Owners and Tech Leads approve. DataOps monitors.</text><text fill="#000000" font-family="Arial" font-size="11" lengthAdjust="spacing" textLength="3" x="1594" y="135.8604">&#160;</text><text fill="#000000" font-family="Arial" font-size="11" font-weight="bold" lengthAdjust="spacing" textLength="88" x="1594" y="148.5093">CAPTURE LAYER</text><text fill="#000000" font-family="Arial" font-size="11" lengthAdjust="spacing" textLength="123" x="1685" y="148.5093">-- How rules are created:</text><text fill="#000000" font-family="Arial" font-size="11" lengthAdjust="spacing" textLength="294" x="1594" y="161.1582">NL request -&gt; LLM intent parse -&gt; CRAG-gated RAG retrieval</text><text fill="#000000" font-family="Arial" font-size="11" lengthAdjust="spacing" textLength="234" x="1594" y="173.8071">(BGE-M3 embeddings, top-k=8, confidence gate)</text><text fill="#000000" font-family="Arial" font-size="11" lengthAdjust="spacing" textLength="236" x="1594" y="186.4561">-&gt; SQL generation -&gt; Security Guard -&gt; Validator</text><text fill="#000000" font-family="Arial" font-size="11" lengthAdjust="spacing" textLength="288" x="1594" y="199.105">-&gt; Duplicate Detector -&gt; Trend Score -&gt; Approval Gateway.</text><text fill="#000000" font-family="Arial" font-size="11" lengthAdjust="spacing" textLength="294" x="1594" y="211.7539">Result: a governed, versioned rule in anomaly_check_config.</text><text fill="#000000" font-family="Arial" font-size="11" lengthAdjust="spacing" textLength="3" x="1594" y="224.4028">&#160;</text><text fill="#000000" font-family="Arial" font-size="11" font-weight="bold" lengthAdjust="spacing" textLength="83" x="1594" y="237.0518">DETECTION (D1)</text><text fill="#000000" font-family="Arial" font-size="11" lengthAdjust="spacing" textLength="138" x="1680" y="237.0518">-- How anomalies are found:</text><text fill="#000000" font-family="Arial" font-size="11" lengthAdjust="spacing" textLength="303" x="1594" y="249.7007">ANOMALY_DETECTION_JOB reads only rules linked to this job.</text><text fill="#000000" font-family="Arial" font-size="11" lengthAdjust="spacing" textLength="218" x="1594" y="262.3496">Executes SELECT checks on UC Delta tables.</text><text fill="#000000" font-family="Arial" font-size="11" lengthAdjust="spacing" textLength="282" x="1594" y="274.9985">Z-score, volume, freshness, null-rate, behavioral patterns.</text><text fill="#000000" font-family="Arial" font-size="11" lengthAdjust="spacing" textLength="273" x="1594" y="287.6475">Anomaly events written to DIGITAL_DATA_ANOMALIES.</text><text fill="#000000" font-family="Arial" font-size="11" lengthAdjust="spacing" textLength="3" x="1594" y="300.2964">&#160;</text><text fill="#000000" font-family="Arial" font-size="11" font-weight="bold" lengthAdjust="spacing" textLength="82" x="1594" y="312.9453">DIAGNOSIS (D2)</text><text fill="#000000" font-family="Arial" font-size="11" lengthAdjust="spacing" textLength="134" x="1679" y="312.9453">-- How root cause is found:</text><text fill="#000000" font-family="Arial" font-size="11" lengthAdjust="spacing" textLength="195" x="1594" y="325.5942">Drift Classifier maps to failure taxonomy.</text><text fill="#000000" font-family="Arial" font-size="11" lengthAdjust="spacing" textLength="212" x="1594" y="338.2432">Lineage Tracer finds Patient Zero upstream.</text><text fill="#000000" font-family="Arial" font-size="11" lengthAdjust="spacing" textLength="219" x="1594" y="350.8921">Segment Slicer isolates exact micro-segment.</text><text fill="#000000" font-family="Arial" font-size="11" lengthAdjust="spacing" textLength="250" x="1594" y="363.541">Playbook Compiler outputs JSON remediation recipe.</text><text fill="#000000" font-family="Arial" font-size="11" lengthAdjust="spacing" textLength="3" x="1594" y="376.1899">&#160;</text><text fill="#000000" font-family="Arial" font-size="11" font-weight="bold" lengthAdjust="spacing" textLength="89" x="1594" y="388.8389">DEFLECTION (D3)</text><text fill="#000000" font-family="Arial" font-size="11" lengthAdjust="spacing" textLength="141" x="1686" y="388.8389">-- How issues are contained:</text><text fill="#000000" font-family="Arial" font-size="11" lengthAdjust="spacing" textLength="226" x="1594" y="401.4878">Circuit Breaker pauses risky downstream jobs.</text><text fill="#000000" font-family="Arial" font-size="11" lengthAdjust="spacing" textLength="209" x="1594" y="414.1367">Domain Executor agents retrigger pipelines.</text><text fill="#000000" font-family="Arial" font-size="11" lengthAdjust="spacing" textLength="221" x="1594" y="426.7856">Verification confirms recovery. DRRI updated.</text><text fill="#000000" font-family="Arial" font-size="11" lengthAdjust="spacing" textLength="230" x="1594" y="439.4346">Notifications sent (P1 Jira + email for CRITICAL).</text><text fill="#000000" font-family="Arial" font-size="11" lengthAdjust="spacing" textLength="3" x="1594" y="452.0835">&#160;</text><text fill="#000000" font-family="Arial" font-size="11" font-weight="bold" lengthAdjust="spacing" textLength="180" x="1594" y="464.7324">BUSINESS OUTCOMES (DRRI &gt;95%)</text><text fill="#000000" font-family="Arial" font-size="11" lengthAdjust="spacing" textLength="192" x="1594" y="477.3813">MTTD: 48h -&gt; 4h  |  MTTR: 4-8h -&gt; 44min</text><text fill="#000000" font-family="Arial" font-size="11" lengthAdjust="spacing" textLength="231" x="1594" y="490.0303">40% toil reduction  |  SLA 60% -&gt; 80-88% target</text><text fill="#000000" font-family="Arial" font-size="11" lengthAdjust="spacing" textLength="322" x="1594" y="502.6792">Measured via check_execution_log + DIGITAL_DATA_ANOMALIES</text><line style="stroke:#000000;stroke-width:1.0;" x1="1589" x2="1803" y1="81.2712" y2="81.2712"/><text fill="#000000" font-family="Arial" font-size="11" lengthAdjust="spacing" text-decoration="line-through" textLength="4" x="1803" y="84.7646">-</text><text fill="#000000" font-family="Arial" font-size="11" lengthAdjust="spacing" text-decoration="line-through" textLength="4" x="1807" y="84.7646">-</text><text fill="#000000" font-family="Arial" font-size="11" lengthAdjust="spacing" text-decoration="line-through" textLength="4" x="1811" y="84.7646">-</text><text fill="#000000" font-family="Arial" font-size="11" lengthAdjust="spacing" text-decoration="line-through" textLength="4" x="1815" y="84.7646">-</text><text fill="#000000" font-family="Arial" font-size="11" lengthAdjust="spacing" text-decoration="line-through" textLength="4" x="1819" y="84.7646">-</text><text fill="#000000" font-family="Arial" font-size="11" lengthAdjust="spacing" text-decoration="line-through" textLength="4" x="1823" y="84.7646">-</text><text fill="#000000" font-family="Arial" font-size="11" lengthAdjust="spacing" text-decoration="line-through" textLength="4" x="1827" y="84.7646">-</text><text fill="#000000" font-family="Arial" font-size="11" lengthAdjust="spacing" text-decoration="line-through" textLength="4" x="1831" y="84.7646">-</text><text fill="#000000" font-family="Arial" font-size="11" lengthAdjust="spacing" text-decoration="line-through" textLength="4" x="1835" y="84.7646">-</text><text fill="#000000" font-family="Arial" font-size="11" lengthAdjust="spacing" text-decoration="line-through" textLength="4" x="1839" y="84.7646">-</text><text fill="#000000" font-family="Arial" font-size="11" lengthAdjust="spacing" textLength="12" x="1843" y="84.7646">---</text><line style="stroke:#000000;stroke-width:1.0;" x1="1855" x2="2069" y1="81.2712" y2="81.2712"/></g><!--link USERS to CAPTURE--><!--link CAPTURE to RAG--><!--link CAPTURE to STORE--><!--link RAG to STORE--><!--link STORE to DRE--><!--link DRE to NOTIF--><!--link DRE to OUTCOMES--><!--link NOTIF to OUTCOMES--><!--link USR to GENIE--><g id="link_USR_GENIE"><path d="M1210,323.0979 C1210,388.9879 1210,519.0879 1210,583.7279 " fill="none" id="USR-to-GENIE" style="stroke:#546E7A;stroke-width:1.5;"/><polygon fill="#546E7A" points="1210,589.7279,1214,580.7279,1210,584.7279,1206,580.7279,1210,589.7279" style="stroke:#546E7A;stroke-width:1.5;"/><text fill="#000000" font-family="Arial" font-size="9" lengthAdjust="spacing" textLength="132" x="1077" y="453.8597">Natural language request / Q&amp;A</text></g><!--link GENIE to AUTHORING--><g id="link_GENIE_AUTHORING"><path d="M1297.3,625.2979 C1308.66,625.2979 1314.51,625.2979 1326.44,625.2979 " fill="none" id="GENIE-to-AUTHORING" style="stroke:#546E7A;stroke-width:1.5;"/><polygon fill="#546E7A" points="1332.44,625.2979,1323.44,621.2979,1327.44,625.2979,1323.44,629.2979,1332.44,625.2979" style="stroke:#546E7A;stroke-width:1.5;"/><text fill="#000000" font-family="Arial" font-size="9" lengthAdjust="spacing" textLength="187" x="1221.37" y="634.7397">LangGraph tool call (WRITE / suggest intent)</text></g><!--link AUTHORING to LLM--><g id="link_AUTHORING_LLM"><path d="M1607.83,625.2979 C1619.93,625.2979 1625.82,625.2979 1636.99,625.2979 " fill="none" id="AUTHORING-to-LLM" style="stroke:#546E7A;stroke-width:1.5;"/><polygon fill="#546E7A" points="1642.99,625.2979,1633.99,621.2979,1637.99,625.2979,1633.99,629.2979,1642.99,625.2979" style="stroke:#546E7A;stroke-width:1.5;"/><text fill="#000000" font-family="Arial" font-size="9" lengthAdjust="spacing" textLength="105" x="1572.91" y="634.7397">SQL generation + scoring</text></g><!--link AUTHORING to RAG--><g id="link_AUTHORING_RAG"><path d="M1332.45,667.2979 C1198.73,667.2979 1015.67,667.2979 1015.67,667.2979 C1015.67,667.2979 1015.67,740.7879 1015.67,788.9179 " fill="none" id="AUTHORING-to-RAG" style="stroke:#546E7A;stroke-width:1.5;"/><polygon fill="#546E7A" points="1015.67,794.9179,1019.67,785.9179,1015.67,789.9179,1011.67,785.9179,1015.67,794.9179" style="stroke:#546E7A;stroke-width:1.5;"/><text fill="#000000" font-family="Arial" font-size="9" lengthAdjust="spacing" textLength="161" x="948.25" y="664.7397">embed_and_search (BGE-M3, top-k=8)</text></g><!--link AUTHORING to SuggestCache--><g id="link_AUTHORING_SuggestCache"><path d="M1581.33,673.5379 C1581.33,699.1079 1581.33,725.2979 1581.33,725.2979 C1581.33,725.2979 1772.75,725.2979 1772.75,725.2979 C1772.75,725.2979 1772.75,767.4779 1772.75,798.7179 " fill="none" id="AUTHORING-to-SuggestCache" style="stroke:#546E7A;stroke-width:1.5;"/><polygon fill="#546E7A" points="1772.75,804.7179,1776.75,795.7179,1772.75,799.7179,1768.75,795.7179,1772.75,804.7179" style="stroke:#546E7A;stroke-width:1.5;"/><text fill="#000000" font-family="Arial" font-size="9" lengthAdjust="spacing" textLength="90" x="1599.87" y="722.7397">cache lookup / upsert</text></g><!--link AUTHORING to RuleDB--><g id="link_AUTHORING_RuleDB"><path d="M1504,673.4779 C1504,714.4079 1504,765.6079 1504,798.5679 " fill="none" id="AUTHORING-to-RuleDB" style="stroke:#546E7A;stroke-width:1.5;"/><polygon fill="#546E7A" points="1504,804.5679,1508,795.5679,1504,799.5679,1500,795.5679,1504,804.5679" style="stroke:#546E7A;stroke-width:1.5;"/><text fill="#000000" font-family="Arial" font-size="9" lengthAdjust="spacing" textLength="94" x="1409" y="736.4697">INSERT approved rule</text></g><!--link AUTHORING to ExecLog--><g id="link_AUTHORING_ExecLog"><path d="M1593.17,673.3379 C1593.17,734.2079 1593.17,831.2979 1593.17,831.2979 C1593.17,831.2979 1591.86,831.2979 1598.87,831.2979 " fill="none" id="AUTHORING-to-ExecLog" style="stroke:#546E7A;stroke-width:1.5;"/><polygon fill="#546E7A" points="1604.87,831.2979,1595.87,827.2979,1599.87,831.2979,1595.87,835.2979,1604.87,831.2979" style="stroke:#546E7A;stroke-width:1.5;"/><text fill="#000000" font-family="Arial" font-size="9" lengthAdjust="spacing" textLength="49" x="1543.17" y="755.6097">audit record</text></g><!--link RuleDB to D1--><g id="link_RuleDB_D1"><path d="M1504,857.0379 C1504,879.5179 1504,908.2979 1504,908.2979 C1504,908.2979 395.5,908.2979 395.5,908.2979 C395.5,908.2979 395.5,900.7579 395.5,884.9979 " fill="none" id="RuleDB-to-D1" style="stroke:#546E7A;stroke-width:1.5;"/><polygon fill="#546E7A" points="395.5,878.9979,391.5,887.9979,395.5,883.9979,399.5,887.9979,395.5,878.9979" style="stroke:#546E7A;stroke-width:1.5;"/><text fill="#000000" font-family="Arial" font-size="9" lengthAdjust="spacing" textLength="81" x="961.73" y="905.7397">read active configs</text></g><!--link MetricsDB to D1--><g id="link_MetricsDB_D1"><path d="M1128.83,856.9379 C1128.83,874.0679 1128.83,893.2979 1128.83,893.2979 C1128.83,893.2979 428.17,893.2979 428.17,893.2979 C428.17,893.2979 428.17,893.1979 428.17,884.7979 " fill="none" id="MetricsDB-to-D1" style="stroke:#546E7A;stroke-width:1.5;"/><polygon fill="#546E7A" points="428.17,878.7979,424.17,887.7979,428.17,883.7979,432.17,887.7979,428.17,878.7979" style="stroke:#546E7A;stroke-width:1.5;"/><text fill="#000000" font-family="Arial" font-size="9" lengthAdjust="spacing" textLength="90" x="790.43" y="890.7397">load EWMA baselines</text></g><!--link D1 to AnomDB--><g id="link_D1_AnomDB"><path d="M411.83,879.0679 C411.83,890.9279 411.83,900.2979 411.83,900.2979 C411.83,900.2979 1322,900.2979 1322,900.2979 C1322,900.2979 1322,882.7579 1322,863.0679 " fill="none" id="D1-to-AnomDB" style="stroke:#546E7A;stroke-width:1.5;"/><polygon fill="#546E7A" points="1322,857.0679,1318,866.0679,1322,862.0679,1326,866.0679,1322,857.0679" style="stroke:#546E7A;stroke-width:1.5;"/><text fill="#000000" font-family="Arial" font-size="9" lengthAdjust="spacing" textLength="137" x="739.91" y="909.7397">write anomaly event (PENDING)</text></g><!--link D1 to ExecLog--><g id="link_D1_ExecLog"><path d="M379.17,878.9679 C379.17,897.9479 379.17,915.2979 379.17,915.2979 C379.17,915.2979 1645.67,915.2979 1645.67,915.2979 C1645.67,915.2979 1645.67,887.8779 1645.67,863.0679 " fill="none" id="D1-to-ExecLog" style="stroke:#546E7A;stroke-width:1.5;"/><polygon fill="#546E7A" points="1645.67,857.0679,1641.67,866.0679,1645.67,862.0679,1649.67,866.0679,1645.67,857.0679" style="stroke:#546E7A;stroke-width:1.5;"/><text fill="#000000" font-family="Arial" font-size="9" lengthAdjust="spacing" textLength="145" x="877.37" y="924.7397">PASS / FAIL / ERROR / TIMEOUT</text></g><!--link D1 to D2--><g id="link_D1_D2"><path d="M444.77,831.2979 C456.05,831.2979 461.85,831.2979 473.65,831.2979 " fill="none" id="D1-to-D2" style="stroke:#546E7A;stroke-width:1.5;"/><polygon fill="#546E7A" points="479.65,831.2979,470.65,827.2979,474.65,831.2979,470.65,835.2979,479.65,831.2979" style="stroke:#546E7A;stroke-width:1.5;"/></g><!--link D2 to D3--><g id="link_D2_D3"><path d="M496.5,885.4079 C496.5,905.4379 496.5,923.2979 496.5,923.2979 C496.5,923.2979 201,923.2979 201,923.2979 C201,923.2979 201,907.4179 201,884.9479 " fill="none" id="D2-to-D3" style="stroke:#546E7A;stroke-width:1.5;"/><polygon fill="#546E7A" points="201,878.9479,197,887.9479,201,883.9479,205,887.9479,201,878.9479" style="stroke:#546E7A;stroke-width:1.5;"/></g><!--link D3 to MetricsDB--><g id="link_D3_MetricsDB"><path d="M146,878.7979 C146,904.2479 146,930.2979 146,930.2979 C146,930.2979 1167.17,930.2979 1167.17,930.2979 C1167.17,930.2979 1167.17,892.4179 1167.17,862.9379 " fill="none" id="D3-to-MetricsDB" style="stroke:#546E7A;stroke-width:1.5;"/><polygon fill="#546E7A" points="1167.17,856.9379,1163.17,865.9379,1167.17,861.9379,1171.17,865.9379,1167.17,856.9379" style="stroke:#546E7A;stroke-width:1.5;"/><text fill="#000000" font-family="Arial" font-size="9" lengthAdjust="spacing" textLength="101" x="565.51" y="927.7397">update EWMA baselines</text></g><!--link D3 to NOTIF--><g id="link_D3_NOTIF"><path d="M91,878.8279 C91,922.8779 91,981.2979 91,981.2979 C91,981.2979 237.57,981.2979 340.38,981.2979 " fill="none" id="D3-to-NOTIF" style="stroke:#546E7A;stroke-width:1.5;"/><polygon fill="#546E7A" points="346.38,981.2979,337.38,977.2979,341.38,981.2979,337.38,985.2979,346.38,981.2979" style="stroke:#546E7A;stroke-width:1.5;"/><text fill="#000000" font-family="Arial" font-size="9" lengthAdjust="spacing" textLength="145" x="21.45" y="978.7397">violation alerts / approval requests</text></g><!--link D1 to NOTIF--><g id="link_D1_NOTIF"><path d="M362.83,879.0879 C362.83,905.6379 362.83,931.3179 362.83,952.1879 " fill="none" id="D1-to-NOTIF" style="stroke:#546E7A;stroke-width:1.5;stroke-dasharray:7.0,7.0;"/><polygon fill="#546E7A" points="362.83,958.1879,366.83,949.1879,362.83,953.1879,358.83,949.1879,362.83,958.1879" style="stroke:#546E7A;stroke-width:1.5;"/><text fill="#000000" font-family="Arial" font-size="9" lengthAdjust="spacing" textLength="62" x="299.83" y="916.0797">alert on breach</text></g><!--link ExecLog to OUTCOMES--><g id="link_ExecLog_OUTCOMES"><path d="M1686.33,857.0179 C1686.33,900.1279 1686.33,981.2979 1686.33,981.2979 C1686.33,981.2979 1095.18,981.2979 849.09,981.2979 " fill="none" id="ExecLog-to-OUTCOMES" style="stroke:#546E7A;stroke-width:1.5;stroke-dasharray:7.0,7.0;"/><polygon fill="#546E7A" points="843.09,981.2979,852.09,985.2979,848.09,981.2979,852.09,977.2979,843.09,981.2979" style="stroke:#546E7A;stroke-width:1.5;"/><text fill="#000000" font-family="Arial" font-size="9" lengthAdjust="spacing" textLength="134" x="1191.85" y="978.7397">KPI feed (DRRI, MTTD, SLA %)</text></g><!--SRC=[hLdxRzj64lwTVyLSYjpPYELOVgIsqGQWI4fM8qkE9CVNDeMn8bSIpnHNvP9sV8___RxP9Qc7rGCkgGBK4haxE_FDwvljN_AvN4XQ9Y9EdJpE4qadFlaY5_In44cSFrCx4mlvfB87edyJZPvrBXSqU9JPOooV74S_nEbIO0rDHFWmorIHHfvAL4RVjLt-jxOYYLEPFoybgIoVgxKNaPoA8idRAitxE8tSB1R9xlUZ-9-IcitrWpCPvYATGVT_EKH3gq6MoeoQntZGKbaairAdYoFtr0tmT5tMVzQFWkqJeQsirhP9mKdxkErl2ssUlJlpZZQ47cq85Lccdep4SiVPwRlWUtTznmL-ZETn-91AhQbvUBOXO0b5nAnKQlterb4hyCvsgTesdnTAERbQKgveel9SmToOqOjLwZX_en__xmys3GTtT4ID1jsEWk7ewwGuAnU-6kNYGSvL0XlrAnBQoZNsd0H71W4Hvh3mbGdJ89qXgh3MX6UhqB41q4r5Wb2rJsyo5HLXJeEdj5eubk6SUb94zYUB6YnNtwcZ4E6fI4DPwZ1axBu1eYP3D0fwxGRC-TJr0XhUzWBot9lnxJ3u4s2JoRGnugmC9GqBFFB4CYyoIRJdVoHlBdAudDpbajuG7d2yo3JY1_l6n58JnFXv-oou0D10Uks0JI6Vqpt6QP8XOZK_q13Rmz9E9fRp_SzflqSV_-eQG8qsoqmjbHR9vzHZQ3cOPw94_CDDbnAb7egbqQGJzBlGmplptE1YImiZoorGFh8udT5Dl9HSLLYTJPi-fqEtGqEPPx74UKJlKRm-zgWZ4GE2uySyaM6HSPNh52ABFgUyuXFgNbIly8jb4eSYb-JBN8RLut761ur2bSaCHx5MesAoYFEyF0iwPEfH9DJ1tYVn3BldCdp0gjbCQiuuAATLmhhjXIASIm2eyMSX04mkhLFSs_7LODZjTm37UV3EsuQZrxikCm08NAj89cHY0D04QRHKSPe3YMwQopIdC15QnrEs1iTROsSM3lFRsgH30wqvdiL_vtk1xvr_O_WVc_2_SeU1Jn_wWxjUu7S2M3mQ3-2dFo7-sTiVKlMKo0YXrK85tmpHJzPt8oaoPFuRklNeaqgAXTG0Y8l-VOWwcQ6qwBScA7MnNA9FoUW-PCVfjvzJ_NjolnJiuhHS9B-8nJAHvQz8BT17xsU9qbfapsyDXgpOTu4VVDz-jwamnynVwPeZDAGHbEDKlKqv6ZteawWPO-RB1ELeB2OunSO4GnPKhSZKmxfdlH8fL4YUhSfiqJIU0GTprb3EOfrdprOAF_9R6vlj9bq7gButSOdzEHz_F_qzhMFq7d6hiQPKoUxnUFc6IBin4Z5qMXXBDSInTpXhkMO4TzUk5MAHq5jA-TrET-psxdrtxDwx_S6rs-i68mXnhQaKF2AsIsZusKwZv1SaEjjq3rWD82bT0GrLmH5WGK_DlZ7AJup7u1sGgE3lWNSxxWxwr1wwry7TOFZXswEyabsPiyxErgFz3a-cYNfYXBauMoFzZRZPAkzDrBfW77YiyXgyjkhnKRRE85lGJgTnmdMEEsxfIswcpBcgEkV76ga2z57UBi1VyZadcejjELsB5FKVItz5vR-4MiFkRrR19lTvp_UFjxKxXdPTjzCVZBfmlf_5qvoyifwLclIW1RULCPAOXO_aRC5bRuJwNIu97kD8fjmWgxu0QnBnF47p0JLRB6kpRZAfmonUsaAjYfoNLjilwHzgWeurq_GMe8syORSLq5MNC_DdGg78YfH5Qjhpa899mPlUt7hxMDw9ywjYWY_TyUWQ20oAV5dab_JJ295IXodRZjPMed8CLCvRBVze6vKJzbcxLpaDr0bzQgr_mH0lpi8YpgcLIV0g6B7Hc2pXCMMh32e5WhJtfNaCPuaezXAZgpUyvlyc75iv12tOxh578u6g10Z5CoFDQ03yYBlFMqvdmMc8h_sR4HqU7gvPsuw_83A1VpnznfUfb16F3qnC_MPfzKbTDhyjAKyvAVk3SRVTzLm6QeGJ1xTZRt0T_0byjQ_okgToSGi0Pc9m_IdEHCqeoyJifesQSHcT3B6zy4utPDOq5dY5Qi4OSvA0LroSlJOYhyTZdqxFvzHuJwUDypcSttFftT5hVd1-RXUTucUke4qccV-Q9dzoS7HoJAOkM_BLR9ez5qUltr1OKZEZNWLHnGY_sWbNNTyF-jHpVuP8SliUACtN0c-70NmQlyxZ2DduMwIUKkXV4UcAnhvOW3xynozDJtMuLTE6y2oUpVFwlUsyEmv7ONLy- -hbI-FcFtvTHw8DXrsdrqk-rWFjtk3kwn4VKgbvgJ6L39q_bzGNc39GJXB4Ri7rDvE_5o03o7iC0CvgQQCoPutLNgvc1aIgIYWKIK9xTyFkE820aejGR0ZilhFQk1B679LANJOPhI4hXimwwpjhAsftOwTSJC3qH1hTQyiGzrgTe75zSW2rbes77y_tTufO9pwGOdcy7MMWVh7KQ7UxppRqovxTxIEenoHCOPOHPNYtSrD9KimcKKIewgWPAeiSPoLkjPexUcKUQdR4OtFyACcoGktKVEiFzYGAUvYUqQJYQyxg_MgF9LrspnE6AKab2oN9r8psReA-3qFsT-vUj-d67Oq0Mzljzl0d60u7GsuftUi06R2-ktO-Y09JWnUFJnpkZTjdhIo-X6yYxd_RzktOLUSbTZt6Ah6n9PZ9SCSJLJyjutuTfCF3z-MtTI5cAq7616u9vyuAWjNwklXYFO_7t271yD043apjFo2kzw_t7ITLZBYkh-Gw1KWAUC8Fa_TNweaxgd5-FeyrHR6OWJ3-y7Ro7YiQN_knqiU36-wlB8mxxDrScJmr8zIbKzwZhAvda5lKSl7N3Eyco3Nm5D1CqjODnV-yMpXqNjpeiEor6vqoamxhQvs5mbW5PdFeMDMhFe2M50mh0nWjgvN0A1O2DGn_R4Y_LzSq10JN6rkFm6epZ1ZSV51A6ZorHwQeP9PTYWIRopfY2mnJ8rsNb0ERYfQHcfcVdV9-kuhnaurh2dvIapoxPSSj1PwkNLBmp-qh2GPoA7MHW909cfaRBnaTK3dQbPK8njAkiRB2iXuQuBNc_ZgOTbTS0Zhbkqc6qmvnFz_N6-z_6hHCa6ea1Sg6TG8IyW4g87vDw89nixwMfEBrA63QItOsvsJ2G6zdPSjjUF4l3Qx_4XQPIV-0fc3rSoPM1vGMIT80mdWwaNE1nEOcLattlDjThsBQb3PutL3KdJDf3KWrfm2Gumr0CeNu3aM1e855DI0lffa5NupXd2cO9D_WvUABWZB6OPjJ3atZ5B3T858u87-HcUAkOpWwhzwQWMBDvGleoI_8Kbh4OQOQsgunQVLY5bA6i6ixdcHo8L52rWQKLH1KKmYCFjamEjQwg79AfJac3PjLMuC9e0Skch9OFpmJ5zzoqe3ZZJksfXG22EmMasjemX1GtWMQrPzuj2XPkKspRA5DkqHqFn-QcRFi0H6lts3nf6tVQbeA_mR9ovn-YbCnweqnHlJsAyjRjwDkFq3VgYlsdgNgOEhxPQ7bWdrPi_LvHU27buQwcuUdYpXrTZ5s-tzTrhZzKOFfVIwocSnPjXGQCHAPKhhZieDlUtU6gyErWPk7yry0]--></g></svg>