<?xml version="1.0" encoding="us-ascii" standalone="no"?><svg xmlns="http://www.w3.org/2000/svg" xmlns:xlink="http://www.w3.org/1999/xlink" contentStyleType="text/css" height="1491px" preserveAspectRatio="none" style="width:1837px;height:1491px;background:#FAFAFA;" version="1.1" viewBox="0 0 1837 1491" width="1837px" zoomAndPan="magnify"><defs/><g><rect fill="#FAFAFA" height="1491" style="stroke:none;stroke-width:1.0;" width="1837" x="0" y="0"/><text fill="#000000" font-family="Segoe UI" font-size="14" font-weight="bold" lengthAdjust="spacing" textLength="237" x="793" y="25.1074">C4 Model - Level 1: System Context</text><text fill="#000000" font-family="Segoe UI" font-size="14" font-weight="bold" lengthAdjust="spacing" textLength="185" x="819" y="43.7285">3D Data Quality Framework</text><!--cluster Who Uses the Platform--><g id="cluster_Who Uses the Platform"><path d="M190,667.2422 L344,667.2422 A3.75,3.75 0 0 1 346.5,669.7422 L353.5,691.8633 L354,691.8633 A2.5,2.5 0 0 1 356.5,694.3633 L356.5,1481.7422 A2.5,2.5 0 0 1 354,1484.2422 L190,1484.2422 A2.5,2.5 0 0 1 187.5,1481.7422 L187.5,669.7422 A2.5,2.5 0 0 1 190,667.2422 " fill="#FFFFFF" style="stroke:#B0BEC5;stroke-width:1.5;"/><line style="stroke:#B0BEC5;stroke-width:1.5;" x1="187.5" x2="353.5" y1="691.8633" y2="691.8633"/><text fill="#000000" font-family="Segoe UI" font-size="14" font-weight="bold" lengthAdjust="spacing" textLength="153" x="191.5" y="684.3496">Who Uses the Platform</text></g><!--cluster External Systems--><g id="cluster_External Systems"><path d="M1593.5,727.2422 L1706.5,727.2422 A3.75,3.75 0 0 1 1709,729.7422 L1716,751.8633 L1827.5,751.8633 A2.5,2.5 0 0 1 1830,754.3633 L1830,1390.7422 A2.5,2.5 0 0 1 1827.5,1393.2422 L1593.5,1393.2422 A2.5,2.5 0 0 1 1591,1390.7422 L1591,729.7422 A2.5,2.5 0 0 1 1593.5,727.2422 " fill="#FFFFFF" style="stroke:#B0BEC5;stroke-width:1.5;"/><line style="stroke:#B0BEC5;stroke-width:1.5;" x1="1591" x2="1716" y1="751.8633" y2="751.8633"/><text fill="#000000" font-family="Segoe UI" font-size="14" font-weight="bold" lengthAdjust="spacing" textLength="112" x="1595" y="744.3496">External Systems</text></g><!--entity DE--><g id="elem_DE"><ellipse cx="271.5" cy="827.2422" fill="#F1F1F1" rx="8" ry="8" style="stroke:#455A64;stroke-width:0.5;"/><path d="M271.5,835.2422 L271.5,862.2422 M258.5,843.2422 L284.5,843.2422 M271.5,862.2422 L258.5,877.2422 M271.5,862.2422 L284.5,877.2422 " fill="none" style="stroke:#455A64;stroke-width:0.5;"/><text fill="#263238" font-family="Segoe UI" font-size="14" lengthAdjust="spacing" textLength="86" x="228.5" y="893.8496">Data Engineer</text></g><!--entity BA--><g id="elem_BA"><ellipse cx="271.5" cy="941.2422" fill="#F1F1F1" rx="8" ry="8" style="stroke:#455A64;stroke-width:0.5;"/><path d="M271.5,949.2422 L271.5,976.2422 M258.5,957.2422 L284.5,957.2422 M271.5,976.2422 L258.5,991.2422 M271.5,976.2422 L284.5,991.2422 " fill="none" style="stroke:#455A64;stroke-width:0.5;"/><text fill="#263238" font-family="Segoe UI" font-size="14" lengthAdjust="spacing" textLength="101" x="221" y="1007.8496">Business Analyst</text></g><!--entity PO--><g id="elem_PO"><ellipse cx="271.5" cy="713.2422" fill="#F1F1F1" rx="8" ry="8" style="stroke:#455A64;stroke-width:0.5;"/><path d="M271.5,721.2422 L271.5,748.2422 M258.5,729.2422 L284.5,729.2422 M271.5,748.2422 L258.5,763.2422 M271.5,748.2422 L284.5,763.2422 " fill="none" style="stroke:#455A64;stroke-width:0.5;"/><text fill="#263238" font-family="Segoe UI" font-size="14" lengthAdjust="spacing" textLength="93" x="225" y="779.8496">Product Owner</text></g><!--entity TL--><g id="elem_TL"><ellipse cx="271.5" cy="1055.2422" fill="#F1F1F1" rx="8" ry="8" style="stroke:#455A64;stroke-width:0.5;"/><path d="M271.5,1063.2422 L271.5,1090.2422 M258.5,1071.2422 L284.5,1071.2422 M271.5,1090.2422 L258.5,1105.2422 M271.5,1090.2422 L284.5,1105.2422 " fill="none" style="stroke:#455A64;stroke-width:0.5;"/><text fill="#263238" font-family="Segoe UI" font-size="14" lengthAdjust="spacing" textLength="61" x="241" y="1121.8496">Tech Lead</text></g><!--entity DG--><g id="elem_DG"><ellipse cx="271.5" cy="1169.2422" fill="#F1F1F1" rx="8" ry="8" style="stroke:#455A64;stroke-width:0.5;"/><path d="M271.5,1177.2422 L271.5,1204.2422 M258.5,1185.2422 L284.5,1185.2422 M271.5,1204.2422 L258.5,1219.2422 M271.5,1204.2422 L284.5,1219.2422 " fill="none" style="stroke:#455A64;stroke-width:0.5;"/><text fill="#263238" font-family="Segoe UI" font-size="14" lengthAdjust="spacing" textLength="106" x="218.5" y="1235.8496">Data Governance</text></g><!--entity DO--><g id="elem_DO"><ellipse cx="271.5" cy="1283.2422" fill="#F1F1F1" rx="8" ry="8" style="stroke:#455A64;stroke-width:0.5;"/><path d="M271.5,1291.2422 L271.5,1318.2422 M258.5,1299.2422 L284.5,1299.2422 M271.5,1318.2422 L258.5,1333.2422 M271.5,1318.2422 L284.5,1333.2422 " fill="none" style="stroke:#455A64;stroke-width:0.5;"/><text fill="#263238" font-family="Segoe UI" font-size="14" lengthAdjust="spacing" textLength="54" x="244.5" y="1349.8496">DataOps</text></g><!--entity EX--><g id="elem_EX"><ellipse cx="271.5" cy="1397.2422" fill="#F1F1F1" rx="8" ry="8" style="stroke:#455A64;stroke-width:0.5;"/><path d="M271.5,1405.2422 L271.5,1432.2422 M258.5,1413.2422 L284.5,1413.2422 M271.5,1432.2422 L258.5,1447.2422 M271.5,1432.2422 L284.5,1447.2422 " fill="none" style="stroke:#455A64;stroke-width:0.5;"/><text fill="#263238" font-family="Segoe UI" font-size="14" lengthAdjust="spacing" textLength="96" x="223.5" y="1463.8496">Exec Leadership</text></g><!--entity DBX--><g id="elem_DBX"><rect fill="#F1F1F1" height="75.8633" rx="5" ry="5" style="stroke:#90A4AE;stroke-width:0.5;" width="179" x="1621" y="764.2422"/><text fill="#263238" font-family="Segoe UI" font-size="14" lengthAdjust="spacing" textLength="120" x="1631" y="789.3496">Databricks Platform</text><text fill="#263238" font-family="Segoe UI" font-size="14" lengthAdjust="spacing" textLength="132" x="1631" y="807.9707">(compute, Workflows,</text><text fill="#263238" font-family="Segoe UI" font-size="14" lengthAdjust="spacing" textLength="159" x="1631" y="826.5918">Delta Lake, Unity Catalog)</text></g><!--entity LLM--><g id="elem_LLM"><rect fill="#F1F1F1" height="75.8633" rx="5" ry="5" style="stroke:#90A4AE;stroke-width:0.5;" width="207" x="1607" y="875.2422"/><text fill="#263238" font-family="Segoe UI" font-size="14" lengthAdjust="spacing" textLength="187" x="1617" y="900.3496">Model Serving Endpoint / LLM</text><text fill="#263238" font-family="Segoe UI" font-size="14" lengthAdjust="spacing" textLength="134" x="1617" y="918.9707">(SQL generation, NLP,</text><text fill="#263238" font-family="Segoe UI" font-size="14" lengthAdjust="spacing" textLength="123" x="1617" y="937.5918">trend scoring, Q&amp;A)</text></g><!--entity UC--><g id="elem_UC"><rect fill="#F1F1F1" height="75.8633" rx="5" ry="5" style="stroke:#90A4AE;stroke-width:0.5;" width="163" x="1629" y="986.2422"/><text fill="#263238" font-family="Segoe UI" font-size="14" lengthAdjust="spacing" textLength="84" x="1639" y="1011.3496">Unity Catalog</text><text fill="#263238" font-family="Segoe UI" font-size="14" lengthAdjust="spacing" textLength="143" x="1639" y="1029.9707">(metadata, governance,</text><text fill="#263238" font-family="Segoe UI" font-size="14" lengthAdjust="spacing" textLength="81" x="1639" y="1048.5918">doc volumes)</text></g><!--entity NOTIFY--><g id="elem_NOTIFY"><rect fill="#F1F1F1" height="57.2422" rx="5" ry="5" style="stroke:#90A4AE;stroke-width:0.5;" width="175" x="1623" y="1097.7422"/><text fill="#263238" font-family="Segoe UI" font-size="14" lengthAdjust="spacing" textLength="122" x="1633" y="1122.8496">Notification Services</text><text fill="#263238" font-family="Segoe UI" font-size="14" lengthAdjust="spacing" textLength="155" x="1633" y="1141.4707">(Email + Jira auto-tickets)</text></g><!--entity DATA--><g id="elem_DATA"><rect fill="#F1F1F1" height="75.8633" rx="5" ry="5" style="stroke:#90A4AE;stroke-width:0.5;" width="205" x="1608" y="1190.2422"/><text fill="#263238" font-family="Segoe UI" font-size="14" lengthAdjust="spacing" textLength="116" x="1618" y="1215.3496">Source Data Tables</text><text fill="#263238" font-family="Segoe UI" font-size="14" lengthAdjust="spacing" textLength="185" x="1618" y="1233.9707">(Delta Lake Gold/Silver/Bronze</text><text fill="#263238" font-family="Segoe UI" font-size="14" lengthAdjust="spacing" textLength="150" x="1618" y="1252.5918">3,032 production tables)</text></g><!--entity EVID--><g id="elem_EVID"><rect fill="#F1F1F1" height="75.8633" rx="5" ry="5" style="stroke:#90A4AE;stroke-width:0.5;" width="205" x="1608" y="1301.2422"/><text fill="#263238" font-family="Segoe UI" font-size="14" lengthAdjust="spacing" textLength="126" x="1618" y="1326.3496">D2 Evidence Sources</text><text fill="#263238" font-family="Segoe UI" font-size="14" lengthAdjust="spacing" textLength="185" x="1618" y="1344.9707">(Confluence runbooks, GitHub</text><text fill="#263238" font-family="Segoe UI" font-size="14" lengthAdjust="spacing" textLength="180" x="1618" y="1363.5918">pipeline code, ITSM incidents)</text></g><g id="elem_BizProblem"><path d="M6,64.2422 L6,536.4541 L537,536.4541 L537,74.2422 L527,64.2422 L6,64.2422 " fill="#FFF9C4" style="stroke:#F9A825;stroke-width:0.5;"/><path d="M527,64.2422 L527,74.2422 L537,74.2422 L527,64.2422 " fill="#FFF9C4" style="stroke:#F9A825;stroke-width:1.0;"/><text fill="#000000" font-family="Segoe UI" font-size="13" font-weight="bold" lengthAdjust="spacing" textLength="208" x="12" y="83.2705">Business Problem We Are Solving</text><text fill="#000000" font-family="Segoe UI" font-size="13" lengthAdjust="spacing" textLength="280" x="12" y="117.8525">adidas Digital Data has 3,032 production tables.</text><text fill="#000000" font-family="Segoe UI" font-size="13" lengthAdjust="spacing" textLength="265" x="12" y="135.1436">Today only 332 (11%) have any DQ coverage.</text><text fill="#000000" font-family="Segoe UI" font-size="13" lengthAdjust="spacing" textLength="314" x="12" y="152.4346">The 9,500 checks that exist are configured MANUALLY</text><text fill="#000000" font-family="Segoe UI" font-size="13" lengthAdjust="spacing" textLength="363" x="12" y="169.7256">by a small team -- creating a bottleneck and a fragile process.</text><text fill="#000000" font-family="Segoe UI" font-size="13" lengthAdjust="spacing" textLength="4" x="12" y="187.0166">&#160;</text><text fill="#000000" font-family="Segoe UI" font-size="13" lengthAdjust="spacing" textLength="87" x="12" y="204.3076">Consequences:</text><text fill="#000000" font-family="Segoe UI" font-size="13" lengthAdjust="spacing" textLength="435" x="20" y="221.5986">- MTTD = 48 hours         -&gt; data issues reach consumers before detection</text><text fill="#000000" font-family="Segoe UI" font-size="13" lengthAdjust="spacing" textLength="455" x="20" y="238.8896">- SLA compliance = 60%    -&gt; 4 in 10 data products miss quality commitments</text><text fill="#000000" font-family="Segoe UI" font-size="13" lengthAdjust="spacing" textLength="460" x="20" y="256.1807">- Manual ops = 50% effort -&gt; engineers spend half their time on toil, not value</text><text fill="#000000" font-family="Segoe UI" font-size="13" lengthAdjust="spacing" textLength="496" x="20" y="273.4717">- Onboarding = 3-6 months -&gt; new data products take too long to get DQ coverage</text><text fill="#000000" font-family="Segoe UI" font-size="13" lengthAdjust="spacing" textLength="475" x="20" y="290.7627">- Revenue at risk          -&gt; $500K-$2M MCM revenue loss from data unavailability</text><text fill="#000000" font-family="Segoe UI" font-size="13" lengthAdjust="spacing" textLength="4" x="12" y="308.0537">&#160;</text><text fill="#000000" font-family="Segoe UI" font-size="13" lengthAdjust="spacing" textLength="68" x="12" y="325.3447">Root cause:</text><text fill="#000000" font-family="Segoe UI" font-size="13" lengthAdjust="spacing" textLength="373" x="20" y="342.6357">No self-service. No automation. No intelligent baseline learning.</text><text fill="#000000" font-family="Segoe UI" font-size="13" lengthAdjust="spacing" textLength="383" x="20" y="359.9268">Rules require expert SQL knowledge and manual approval chains.</text><text fill="#000000" font-family="Segoe UI" font-size="13" lengthAdjust="spacing" textLength="4" x="12" y="377.2178">&#160;</text><text fill="#000000" font-family="Segoe UI" font-size="13" lengthAdjust="spacing" textLength="158" x="12" y="394.5088">What the platform delivers:</text><text fill="#000000" font-family="Segoe UI" font-size="13" lengthAdjust="spacing" textLength="474" x="20" y="411.7998">OK Any stakeholder creates rules in natural language -- no SQL expertise needed</text><text fill="#000000" font-family="Segoe UI" font-size="13" lengthAdjust="spacing" textLength="308" x="20" y="429.0908">OK AI-assisted SQL generation, validation and tuning</text><text fill="#000000" font-family="Segoe UI" font-size="13" lengthAdjust="spacing" textLength="426" x="20" y="446.3818">OK Automated DRE 3D detection (D1), diagnosis (D2) and deflection (D3)</text><text fill="#000000" font-family="Segoe UI" font-size="13" lengthAdjust="spacing" textLength="396" x="20" y="463.6729">OK Coverage: 11% -&gt; 90%+ of critical Gold tables within 12 months</text><text fill="#000000" font-family="Segoe UI" font-size="13" lengthAdjust="spacing" textLength="357" x="20" y="480.9639">OK MTTD: 48h -&gt; 4-8h    |    SLA compliance: 60% -&gt; 80-88%</text><text fill="#000000" font-family="Segoe UI" font-size="13" lengthAdjust="spacing" textLength="378" x="20" y="498.2549">OK 40% toil reduction = 8-10 FTE equivalent freed for innovation</text><line style="stroke:#F9A825;stroke-width:1.0;" x1="7" x2="229" y1="95.1787" y2="95.1787"/><text fill="#000000" font-family="Segoe UI" font-size="13" lengthAdjust="spacing" text-decoration="line-through" textLength="5" x="229" y="100.0615">-</text><text fill="#000000" font-family="Segoe UI" font-size="13" lengthAdjust="spacing" text-decoration="line-through" textLength="5" x="234" y="100.0615">-</text><text fill="#000000" font-family="Segoe UI" font-size="13" lengthAdjust="spacing" text-decoration="line-through" textLength="5" x="239" y="100.0615">-</text><text fill="#000000" font-family="Segoe UI" font-size="13" lengthAdjust="spacing" text-decoration="line-through" textLength="5" x="244" y="100.0615">-</text><text fill="#000000" font-family="Segoe UI" font-size="13" lengthAdjust="spacing" text-decoration="line-through" textLength="5" x="249" y="100.0615">-</text><text fill="#000000" font-family="Segoe UI" font-size="13" lengthAdjust="spacing" text-decoration="line-through" textLength="5" x="254" y="100.0615">-</text><text fill="#000000" font-family="Segoe UI" font-size="13" lengthAdjust="spacing" text-decoration="line-through" textLength="5" x="259" y="100.0615">-</text><text fill="#000000" font-family="Segoe UI" font-size="13" lengthAdjust="spacing" text-decoration="line-through" textLength="5" x="264" y="100.0615">-</text><text fill="#000000" font-family="Segoe UI" font-size="13" lengthAdjust="spacing" text-decoration="line-through" textLength="5" x="269" y="100.0615">-</text><text fill="#000000" font-family="Segoe UI" font-size="13" lengthAdjust="spacing" text-decoration="line-through" textLength="5" x="274" y="100.0615">-</text><text fill="#000000" font-family="Segoe UI" font-size="13" lengthAdjust="spacing" text-decoration="line-through" textLength="5" x="279" y="100.0615">-</text><text fill="#000000" font-family="Segoe UI" font-size="13" lengthAdjust="spacing" text-decoration="line-through" textLength="5" x="284" y="100.0615">-</text><text fill="#000000" font-family="Segoe UI" font-size="13" lengthAdjust="spacing" text-decoration="line-through" textLength="5" x="289" y="100.0615">-</text><text fill="#000000" font-family="Segoe UI" font-size="13" lengthAdjust="spacing" textLength="20" x="294" y="100.0615">----</text><line style="stroke:#F9A825;stroke-width:1.0;" x1="314" x2="536" y1="95.1787" y2="95.1787"/><line style="stroke:#F9A825;stroke-width:1.0;" x1="7" x2="229" y1="514.1631" y2="514.1631"/><text fill="#000000" font-family="Segoe UI" font-size="13" lengthAdjust="spacing" text-decoration="line-through" textLength="5" x="229" y="519.0459">-</text><text fill="#000000" font-family="Segoe UI" font-size="13" lengthAdjust="spacing" text-decoration="line-through" textLength="5" x="234" y="519.0459">-</text><text fill="#000000" font-family="Segoe UI" font-size="13" lengthAdjust="spacing" text-decoration="line-through" textLength="5" x="239" y="519.0459">-</text><text fill="#000000" font-family="Segoe UI" font-size="13" lengthAdjust="spacing" text-decoration="line-through" textLength="5" x="244" y="519.0459">-</text><text fill="#000000" font-family="Segoe UI" font-size="13" lengthAdjust="spacing" text-decoration="line-through" textLength="5" x="249" y="519.0459">-</text><text fill="#000000" font-family="Segoe UI" font-size="13" lengthAdjust="spacing" text-decoration="line-through" textLength="5" x="254" y="519.0459">-</text><text fill="#000000" font-family="Segoe UI" font-size="13" lengthAdjust="spacing" text-decoration="line-through" textLength="5" x="259" y="519.0459">-</text><text fill="#000000" font-family="Segoe UI" font-size="13" lengthAdjust="spacing" text-decoration="line-through" textLength="5" x="264" y="519.0459">-</text><text fill="#000000" font-family="Segoe UI" font-size="13" lengthAdjust="spacing" text-decoration="line-through" textLength="5" x="269" y="519.0459">-</text><text fill="#000000" font-family="Segoe UI" font-size="13" lengthAdjust="spacing" text-decoration="line-through" textLength="5" x="274" y="519.0459">-</text><text fill="#000000" font-family="Segoe UI" font-size="13" lengthAdjust="spacing" text-decoration="line-through" textLength="5" x="279" y="519.0459">-</text><text fill="#000000" font-family="Segoe UI" font-size="13" lengthAdjust="spacing" text-decoration="line-through" textLength="5" x="284" y="519.0459">-</text><text fill="#000000" font-family="Segoe UI" font-size="13" lengthAdjust="spacing" text-decoration="line-through" textLength="5" x="289" y="519.0459">-</text><text fill="#000000" font-family="Segoe UI" font-size="13" lengthAdjust="spacing" textLength="20" x="294" y="519.0459">----</text><line style="stroke:#F9A825;stroke-width:1.0;" x1="314" x2="536" y1="514.1631" y2="514.1631"/></g><g id="elem_GMN11"><path d="M154.5,571.7422 L154.5,650.9063 A0,0 0 0 0 154.5,650.9063 L267.5,650.9063 L271.5,704.5022 L275.5,650.9063 L388.5,650.9063 A0,0 0 0 0 388.5,650.9063 L388.5,581.7422 L378.5,571.7422 L154.5,571.7422 A0,0 0 0 0 154.5,571.7422 " fill="#FFF9C4" style="stroke:#F9A825;stroke-width:0.5;"/><path d="M378.5,571.7422 L378.5,581.7422 L388.5,581.7422 L378.5,571.7422 " fill="#FFF9C4" style="stroke:#F9A825;stroke-width:0.5;"/><text fill="#000000" font-family="Segoe UI" font-size="13" lengthAdjust="spacing" textLength="212" x="160.5" y="590.7705">Any stakeholder can create DQ rules</text><text fill="#000000" font-family="Segoe UI" font-size="13" lengthAdjust="spacing" textLength="211" x="160.5" y="608.0615">via the chatbot -- not just engineers.</text><text fill="#000000" font-family="Segoe UI" font-size="13" lengthAdjust="spacing" textLength="213" x="160.5" y="625.3525">The platform adapts to the user role</text><text fill="#000000" font-family="Segoe UI" font-size="13" lengthAdjust="spacing" textLength="151" x="160.5" y="642.6436">and data product context.</text></g><!--entity DQA--><g id="elem_DQA"><rect fill="#F1F1F1" height="419.043" rx="5" ry="5" style="stroke:#90A4AE;stroke-width:0.5;" width="407" x="844" y="876.7422"/><text fill="#263238" font-family="Segoe UI" font-size="14" lengthAdjust="spacing" textLength="171" x="854" y="901.8496">3D Data Quality Framework</text><line style="stroke:#90A4AE;stroke-width:1.0;" x1="845" x2="1250" y1="905.3633" y2="905.3633"/><text fill="#263238" font-family="Segoe UI" font-size="14" lengthAdjust="spacing" textLength="359" x="854" y="924.4707">Self-service, AI-assisted data quality management platform</text><text fill="#263238" font-family="Segoe UI" font-size="14" lengthAdjust="spacing" textLength="360" x="854" y="943.0918">on Databricks. Replaces manual, expert-only rule authoring</text><text fill="#263238" font-family="Segoe UI" font-size="14" lengthAdjust="spacing" textLength="339" x="854" y="961.7129">with natural language creation open to all stakeholders.</text><text fill="#263238" font-family="Segoe UI" font-size="14" lengthAdjust="spacing" textLength="4" x="854" y="980.334">&#160;</text><text fill="#263238" font-family="Segoe UI" font-size="14" lengthAdjust="spacing" textLength="102" x="854" y="998.9551">Core capabilities:</text><text fill="#263238" font-family="Segoe UI" font-size="14" lengthAdjust="spacing" textLength="379" x="862" y="1017.5762">Rule creation    -- NL chat, LLM SQL generation, trend scoring</text><text fill="#263238" font-family="Segoe UI" font-size="14" lengthAdjust="spacing" textLength="378" x="862" y="1036.1973">Rule governance  -- approval workflows, audit trail, versioning</text><text fill="#263238" font-family="Segoe UI" font-size="14" lengthAdjust="spacing" textLength="348" x="862" y="1054.8184">DRE 3D execution -- D1 Detect, D2 Diagnose, D3 Deflect</text><text fill="#263238" font-family="Segoe UI" font-size="14" lengthAdjust="spacing" textLength="358" x="862" y="1073.4395">Intelligent agents -- Profiler, Drift Classifier, Lineage Tracer,</text><text fill="#263238" font-family="Segoe UI" font-size="14" lengthAdjust="spacing" textLength="210" x="950" y="1092.0605">Segment Slicer, Evidence Retriever,</text><text fill="#263238" font-family="Segoe UI" font-size="14" lengthAdjust="spacing" textLength="215" x="950" y="1110.6816">Playbook Compiler, State Validator,</text><text fill="#263238" font-family="Segoe UI" font-size="14" lengthAdjust="spacing" textLength="187" x="950" y="1129.3027">Circuit Breaker, Approval Gate,</text><text fill="#263238" font-family="Segoe UI" font-size="14" lengthAdjust="spacing" textLength="110" x="950" y="1147.9238">Domain Executors</text><text fill="#263238" font-family="Segoe UI" font-size="14" lengthAdjust="spacing" textLength="4" x="854" y="1166.5449">&#160;</text><text fill="#263238" font-family="Segoe UI" font-size="14" lengthAdjust="spacing" textLength="215" x="854" y="1185.166">Chatbot Q&amp;A (ask in plain English):</text><text fill="#263238" font-family="Segoe UI" font-size="14" lengthAdjust="spacing" textLength="226" x="862" y="1203.7871">What is the DRRI score of product X?</text><text fill="#263238" font-family="Segoe UI" font-size="14" lengthAdjust="spacing" textLength="248" x="862" y="1222.4082">What is the blast radius of this anomaly?</text><text fill="#263238" font-family="Segoe UI" font-size="14" lengthAdjust="spacing" textLength="233" x="862" y="1241.0293">Show rule execution results for table Y</text><text fill="#263238" font-family="Segoe UI" font-size="14" lengthAdjust="spacing" textLength="221" x="862" y="1259.6504">Which tables have no DQ coverage?</text><text fill="#263238" font-family="Segoe UI" font-size="14" lengthAdjust="spacing" textLength="187" x="862" y="1278.2715">What violated rules ran today?</text></g><!--link DE to DQA--><g id="link_DE_DQA"><path d="M314.67,862.4422 C407.23,872.5422 634.28,902.1822 814,965.2422 C823.88,968.7122 828.2973,970.2489 838.2873,974.3389 " fill="none" id="DE-to-DQA" style="stroke:#181818;stroke-width:1.0;"/><polygon fill="#181818" points="843.84,976.6122,837.0265,969.5004,839.2128,974.7178,833.9955,976.904,843.84,976.6122" style="stroke:#181818;stroke-width:1.0;"/><text fill="#000000" font-family="Segoe UI" font-size="13" lengthAdjust="spacing" textLength="199" x="591" y="883.2705">Creates/manages rules, tunes SQL</text><text fill="#000000" font-family="Segoe UI" font-size="13" lengthAdjust="spacing" textLength="239" x="571" y="900.5615">asks: results, coverage gaps, blast radius</text></g><!--link BA to DQA--><g id="link_BA_DQA"><path d="M322.29,977.6922 C417.86,988.3722 633.56,1013.5322 814,1042.2422 C823.74,1043.7922 827.776,1044.42 837.826,1046.14 " fill="none" id="BA-to-DQA" style="stroke:#181818;stroke-width:1.0;"/><polygon fill="#181818" points="843.74,1047.1522,835.5437,1041.6913,838.8117,1046.3087,834.1942,1049.5766,843.74,1047.1522" style="stroke:#181818;stroke-width:1.0;"/><text fill="#000000" font-family="Segoe UI" font-size="13" lengthAdjust="spacing" textLength="192" x="594.5" y="988.2705">Creates rules in natural language</text><text fill="#000000" font-family="Segoe UI" font-size="13" lengthAdjust="spacing" textLength="245" x="568" y="1005.5615">asks: DRRI score, blast radius, trend score</text></g><!--link PO to DQA--><g id="link_PO_DQA"><path d="M318.18,745.6122 C415.18,750.2722 646.56,770.6922 814,860.2422 C824.05,865.6222 828.9509,868.2745 838.6909,874.6545 " fill="none" id="PO-to-DQA" style="stroke:#181818;stroke-width:1.0;"/><polygon fill="#181818" points="843.71,877.9422,838.3731,869.6646,839.5274,875.2025,833.9896,876.3568,843.71,877.9422" style="stroke:#181818;stroke-width:1.0;"/><text fill="#000000" font-family="Segoe UI" font-size="13" lengthAdjust="spacing" textLength="224" x="578.5" y="757.2705">Creates &amp; approves rules for schemas</text><text fill="#000000" font-family="Segoe UI" font-size="13" lengthAdjust="spacing" textLength="212" x="584.5" y="774.5615">asks: product health KPIs, rule status</text></g><!--link TL to DQA--><g id="link_TL_DQA"><path d="M302.37,1086.2422 C390.51,1086.2422 649.12,1086.2422 837.67,1086.2422 " fill="none" id="TL-to-DQA" style="stroke:#181818;stroke-width:1.0;"/><polygon fill="#181818" points="843.67,1086.2422,834.67,1082.2422,838.67,1086.2422,834.67,1090.2422,843.67,1086.2422" style="stroke:#181818;stroke-width:1.0;"/><text fill="#000000" font-family="Segoe UI" font-size="13" lengthAdjust="spacing" textLength="189" x="596" y="1065.2705">Creates/reviews rules, tunes SQL</text><text fill="#000000" font-family="Segoe UI" font-size="13" lengthAdjust="spacing" textLength="201" x="590" y="1082.5615">asks: blast radius, technical validity</text></g><!--link DG to DQA--><g id="link_DG_DQA"><path d="M324.54,1194.5422 C421.21,1183.7222 634.96,1158.7322 814,1130.2422 C823.74,1128.6922 827.776,1128.0643 837.826,1126.3443 " fill="none" id="DG-to-DQA" style="stroke:#181818;stroke-width:1.0;"/><polygon fill="#181818" points="843.74,1125.3322,834.1942,1122.9077,838.8117,1126.1756,835.5437,1130.7931,843.74,1125.3322" style="stroke:#181818;stroke-width:1.0;"/><text fill="#000000" font-family="Segoe UI" font-size="13" lengthAdjust="spacing" textLength="146" x="617.5" y="1109.2705">Creates compliance rules</text><text fill="#000000" font-family="Segoe UI" font-size="13" lengthAdjust="spacing" textLength="207" x="587" y="1126.5615">asks: audit trail, SLA history, lineage</text></g><!--link DO to DQA--><g id="link_DO_DQA"><path d="M298.57,1311.8422 C377.95,1303.9722 622.88,1275.4822 814,1208.2422 C823.89,1204.7622 828.3293,1203.2003 838.3193,1199.1003 " fill="none" id="DO-to-DQA" style="stroke:#181818;stroke-width:1.0;"/><polygon fill="#181818" points="843.87,1196.8222,834.0252,1196.5388,839.2444,1198.7206,837.0626,1203.9398,843.87,1196.8222" style="stroke:#181818;stroke-width:1.0;"/><text fill="#000000" font-family="Segoe UI" font-size="13" lengthAdjust="spacing" textLength="219" x="581" y="1187.2705">Emergency disable, schedule manage</text><text fill="#000000" font-family="Segoe UI" font-size="13" lengthAdjust="spacing" textLength="220" x="580.5" y="1204.5615">asks: execution failures, job run status</text></g><!--link EX to DQA--><g id="link_EX_DQA"><path d="M319.69,1427.0722 C417.6,1422.8322 647.57,1403.3422 814,1314.2422 C824.34,1308.7022 829.5246,1305.8807 839.5246,1299.2707 " fill="none" id="EX-to-DQA" style="stroke:#181818;stroke-width:1.0;"/><polygon fill="#181818" points="844.53,1295.9622,834.8163,1297.5881,840.3589,1298.7193,839.2277,1304.2619,844.53,1295.9622" style="stroke:#181818;stroke-width:1.0;"/><text fill="#000000" font-family="Segoe UI" font-size="13" lengthAdjust="spacing" textLength="200" x="590.5" y="1293.2705">Asks: DRRI score, impact summary</text><text fill="#000000" font-family="Segoe UI" font-size="13" lengthAdjust="spacing" textLength="232" x="574.5" y="1310.5615">business outcomes vs 12-month targets</text></g><!--link DQA to DBX--><g id="link_DQA_DBX"><path d="M1251.26,931.6822 C1261.14,926.1622 1271.07,920.9822 1281,916.2422 C1392.14,863.1522 1525.8343,832.9517 1614.9043,816.9717 " fill="none" id="DQA-to-DBX" style="stroke:#181818;stroke-width:1.0;"/><polygon fill="#181818" points="1620.81,815.9122,1611.2451,813.5644,1615.8886,816.7951,1612.6578,821.4386,1620.81,815.9122" style="stroke:#181818;stroke-width:1.0;"/><text fill="#000000" font-family="Segoe UI" font-size="13" lengthAdjust="spacing" textLength="233" x="1311.5" y="822.2705">Runs on -- compute, storage, workflows</text></g><!--link DQA to LLM--><g id="link_DQA_LLM"><path d="M1251.05,1018.8022 C1261.15,1015.8222 1271.18,1012.9522 1281,1010.2422 C1391.29,979.8022 1513.5742,952.9468 1600.7942,934.9168 " fill="none" id="DQA-to-LLM" style="stroke:#181818;stroke-width:1.0;"/><polygon fill="#181818" points="1606.67,933.7022,1597.0466,931.607,1601.7735,934.7144,1598.6661,939.4413,1606.67,933.7022" style="stroke:#181818;stroke-width:1.0;"/><text fill="#000000" font-family="Segoe UI" font-size="13" lengthAdjust="spacing" textLength="240" x="1308" y="939.2705">NLP, SQL generation, Q&amp;A, trend scoring</text></g><!--link DQA to UC--><g id="link_DQA_UC"><path d="M1251.31,1067.2222 C1378.45,1055.2922 1529.3962,1041.1324 1622.6962,1032.3824 " fill="none" id="DQA-to-UC" style="stroke:#181818;stroke-width:1.0;"/><polygon fill="#181818" points="1628.67,1031.8222,1619.3358,1028.68,1623.6918,1032.2891,1620.0828,1036.6451,1628.67,1031.8222" style="stroke:#181818;stroke-width:1.0;"/><text fill="#000000" font-family="Segoe UI" font-size="13" lengthAdjust="spacing" textLength="224" x="1316" y="1033.2705">Stores rules, docs, versions, audit logs</text></g><!--link DQA to NOTIFY--><g id="link_DQA_NOTIFY"><path d="M1251.31,1098.5122 C1375.79,1106.0522 1522.8309,1114.95 1616.7509,1120.63 " fill="none" id="DQA-to-NOTIFY" style="stroke:#181818;stroke-width:1.0;"/><polygon fill="#181818" points="1622.74,1120.9922,1613.9979,1116.4562,1617.7491,1120.6904,1613.5149,1124.4416,1622.74,1120.9922" style="stroke:#181818;stroke-width:1.0;"/><text fill="#000000" font-family="Segoe UI" font-size="13" lengthAdjust="spacing" textLength="209" x="1323.5" y="1097.2705">Violation alerts + Jira ticket creation</text></g><!--link DQA to DATA--><g id="link_DQA_DATA"><path d="M1251.22,1138.4122 C1261.28,1140.7722 1271.25,1143.0622 1281,1145.2422 C1392.29,1170.1222 1514.9267,1193.3591 1601.9567,1209.1791 " fill="none" id="DQA-to-DATA" style="stroke:#181818;stroke-width:1.0;"/><polygon fill="#181818" points="1607.86,1210.2522,1599.7205,1204.7071,1602.9406,1209.358,1598.2897,1212.5781,1607.86,1210.2522" style="stroke:#181818;stroke-width:1.0;"/><text fill="#000000" font-family="Segoe UI" font-size="13" lengthAdjust="spacing" textLength="202" x="1327" y="1141.2705">Executes read-only DQ SQL checks</text></g><!--link DQA to EVID--><g id="link_DQA_EVID"><path d="M1251.3,1233.1222 C1261.16,1238.2122 1271.09,1242.9522 1281,1247.2422 C1387.31,1293.2622 1512.7815,1316.308 1601.8415,1328.048 " fill="none" id="DQA-to-EVID" style="stroke:#181818;stroke-width:1.0;"/><polygon fill="#181818" points="1607.79,1328.8322,1599.39,1323.6903,1602.8329,1328.1787,1598.3444,1331.6217,1607.79,1328.8322" style="stroke:#181818;stroke-width:1.0;"/><text fill="#000000" font-family="Segoe UI" font-size="13" lengthAdjust="spacing" textLength="288" x="1284" y="1226.2705">D2 reads job logs, DESCRIBE HISTORY, runbooks,</text><text fill="#000000" font-family="Segoe UI" font-size="13" lengthAdjust="spacing" textLength="292" x="1282" y="1243.5615">code + prior ITSM incidents to build prescriptions</text></g><!--SRC=[hLXfSngv5ltEhxZbDvcnQy3ncd9Saqonj1DUm3WqpbB55q4BqBYHI4kDmop_VSwLcWRZbxog9BZABhfrZtItSwxib4ibDS-eQnAPKeqwSec_nvSKhwoJSseQxUHdDzIdBMe99-XjBbBbLdILYRcyDzbTfMBlb5u8VAUH6DzDCvFhf6bIaz5_hkhyixKYaHEHf-uAiDS0e5XEZQJRzjQIJ8wTq5ESwwyAKJ-WPLfcT7o41msJ9J8hy9yVrS_g4PuoOF7ivDdfoUb5vPyjI35sUFFNhlNP-NdzsTd_jLx0Ap6LZ-qRHuseUSvF7_djFmzGj745nFzO_BnvjWj-zRn-SN8EY4eg9uwSeKnDPuuInG5IHbSglr3jMpwmQzp6xUieZkcctsjqeYxjtyzMv6RAqY8LRcAoESdFoZfxyCsxU8U5fORwyoOperJEuU9levUDt2ejhQNYARsNLCzG2YPTAZtzxUde9HRMVjG7M29H2GxIKbFbH1hgU8O7fzMZqnDQP2R9VKJ92Hp87i9aO1An8gFJ5PrYpVxnyPC3s2pXaLvHwosDpL9cg0g_U2RfUVNyw8Z6Cpc-imYaS25-9E3PsEY9ckQPJAXRlxwjTpeVOJLQaI0x5sbAJg90QZKQPr8un00lHiQXDJNWi6E21nFifj0KEEuOqJki00BTQUMdN6eykSHtX8swWq6BNj3P1SrCdbbQVselAM77bRMvjEWoCPxnoMm-brWsaaYwH7-wehe2MjofOz5yaIg1JO3xxEX9WNP6IgCb0seHH4jpuDEdWYHWELTkBhMpwzC9ZNTa5XPOvy2I4-ph64_gAUg2ps8N4YxFH3f19ANAo2bG1UV7gBJAdKHBaUQomEpfaH5Pmd5xGQUrPpH7EyyiOsfvltC-9-uaS0ob1klHLLFfjlDPOFR1Wpf7jXtQpjxHTXX_GgRVr7uwwLAtsKKWmyhKmF59PkPXmroBfL2f62cEHCKp6Suz5hcL8LNNXgnC9pKhiwKQoqD-879dveBZxxyga6-QgYa226x5QWI8KYao3MSFFKe_JtqsF-NW1TJSGYAQyTiEtMbpdyfaAdtzp4FSnGA1GEnGg4BfK4JlkLWHvqtdGmeKeb6KLEyDrL7pbYCtCoaOAjGfR-itHnbeuV8Ci2c8EsUkH35huyyHZgIiH39a8fCIirqJrg95q1My3auY0UnwbREBZlKjoOTtEVjR6eOOmQpLZmYwLDOixRUE3wfWI37L1j3uVdBW4I0xQRdcz60DrIoIVadeRqxjywCdlvAPm47br1WElOB31ItGlG91ekHFYW9Ret37NQBXPhuhQlYBpz_yws7tNFhcmPgBezh5nPEr-HaUSc4ZYMiUUa4NDNJMrI0YJYp2mHKmoH10GeOGSOqi5ctwuvYIkuvP-tkK9HxKtqIlUvrMr8-_6MQjk7llPuPkhRI-Fc-A-jppCXeqlHMnnEnvIeyA0jahtpRg_csfE7KjKimrcmKtFR_W9h03zUxrjlcWuzyE99Yo8qMoUTDwjTds5HUHvWHllU-LxtiBktaUVV3Feyzox17HP3Ers6ELztB9h0y6GGNUz63qgE-4BdgFASjt7rOjbV3nGKyx08JUS_H73lafINMjKsMJYqGic0-DjmKhPPIPbFdFDymMQR9Ay11u-4CAPF0wefjEVN3LwtU_6MOp8xRUXXn_SJuTQhOOwdYBQwiFsCVxkfOi42KgZoMh3DLGeoKPV9GfgFiXn06l8Ba5grOBZglvSO6pmZm-Cnb8QwYPDHxpOr1wu1fe7IU1nu2jLDl3eHxg9aloM2o2YYY8_507ojy0i2RLwBhZqr-bJgVxY4vTnecpu-941SAqh5kFK4e31ssIcdjRXHk9WZPaWcMN5G5m1KJ1lHALdFjp0A9rJ2tFnLLgdM3SyZICOBTEyTmJC5ksjqHDy6_BjcZ12SQR3AipXNctcN9-9egVT5327BH1XgXdrQ6cBtnmc_2PYrF52obQgeI78sJCPGf2_JLZqCjgPCmTL66-24U97RVQkw16vcl6JPMDSyIgWRJSiMbz7SvNWFYAOGjQ1b69V1nDPdtQYqP- -tETzWMc3on0nV4orBooimDV1rwuLU36Lh_VzXcMJ1xhnltm- -ww4SAAaGOJSMvvfH_vXSOXqfLV7C_CVQZXJMepQN5dirvwl1RInu2hG8o5EFhP69A_DKfjDbygath53WD39hZaCM3_llSzJ19z64Jzwtg7ue_n8Eh6j8_W-sxamTk52Px54iGcahbO77o_84MV7JTDMjoFRT2YBJfgV2YPFz15ALj3lS-pG8voeFTbZmrrIwRWdmxAfagtcZce2UFKJ0_s7a1pPpDqkAh7p6IOO2ETB0pcH7hA2x37RlDVTswmoGCAg79bxQ3VDicZFpW1uERI2IR8wXPV02ynOrgQ57S7kmDqtHkqhpvwh6lZqC7Zm5Dne5uK-7w4aa_fL_gloeGVUMiOjkwasuLgrGU1t6FSPD35dk07ljw0iecRdzAUnYh50PysCgF_b4FzXSlTpXRHktOh9EnamnPXEzu35wn9wkzNA5tDx01MVANSwtmqr0kr21Fv61cfKdiGTr5iOmRnhlppFSNTZw2HxTvr_Bfzy-s35CQZ6WPE5ibBQeQf_McGk69wh_9qZIyecw46rzZBTRjNoqQcgLZWwpPtL31QFKB-ydrW3RsXgOTmsnebAvZA7cF_N2XKkGspaSM5Uoxi6dxDUpFm05JtpKqRo9xC8AqEfyP4zpWUkC4fUV_bUEmS5DEWzdS3VqlXonscmSVdtRerU-0rsWDDvGi261Z4lwfI6cIkqjfsFyBj7EqyNk5QOxc2gzxfX9qAYLm3R_Xw0kmyOr_-C2CktBNx63ytoFL76L5py9mZcy_d8biDzMWzDvlSmHqujRIu_jJyzGVzX8FXObzXE0yBxiFd4kE5jXH6WfBns4SSjhePBqex9ZPlnrJrQ7W1LUrCCAKXSvOtZ06-AMXmaot7bNAA0PrjjYn8wfBUUMNo5qqeFZIkOAL0IEMKjV6HAOct388T_f6IXCaFqiU73_y3AYqymx0568RNMfyKFWr6dIXkzjkDY5wtuq6l_x6wOPcXPbR1SHQPGg4_91SU64UvmjLq0RznMLtm8MtbNm00]--></g></svg>