<?xml version="1.0" encoding="us-ascii" standalone="no"?><svg xmlns="http://www.w3.org/2000/svg" xmlns:xlink="http://www.w3.org/1999/xlink" contentStyleType="text/css" height="1897px" preserveAspectRatio="none" style="width:2553px;height:1897px;background:#FAFAFA;" version="1.1" viewBox="0 0 2553 1897" width="2553px" zoomAndPan="magnify"><defs/><g><rect fill="#FAFAFA" height="1897" style="stroke:none;stroke-width:1.0;" width="2553" x="0" y="0"/><text fill="#000000" font-family="Segoe UI" font-size="14" font-weight="bold" lengthAdjust="spacing" textLength="260" x="1139.5" y="25.1074">C4 Model - Level 2: Container Diagram</text><text fill="#000000" font-family="Segoe UI" font-size="14" font-weight="bold" lengthAdjust="spacing" textLength="185" x="1177" y="43.7285">3D Data Quality Framework</text><!--cluster 3D Data Quality Framework--><g id="cluster_3D Data Quality Framework"><path d="M504.5,139.2522 L690.5,139.2522 A3.75,3.75 0 0 1 693,141.7522 L700,163.8733 L2214.5,163.8733 A2.5,2.5 0 0 1 2217,166.3733 L2217,1703.7522 A2.5,2.5 0 0 1 2214.5,1706.2522 L504.5,1706.2522 A2.5,2.5 0 0 1 502,1703.7522 L502,141.7522 A2.5,2.5 0 0 1 504.5,139.2522 " fill="#FFFFFF" style="stroke:#B0BEC5;stroke-width:1.5;"/><line style="stroke:#B0BEC5;stroke-width:1.5;" x1="502" x2="700" y1="163.8733" y2="163.8733"/><text fill="#000000" font-family="Segoe UI" font-size="14" font-weight="bold" lengthAdjust="spacing" textLength="185" x="506" y="156.3596">3D Data Quality Framework</text></g><!--entity Genie--><g id="elem_Genie"><rect fill="#F1F1F1" height="135.7266" rx="5" ry="5" style="stroke:#90A4AE;stroke-width:0.5;" width="213" x="518" y="199.2522"/><text fill="#263238" font-family="Segoe UI" font-size="14" lengthAdjust="spacing" textLength="104" x="528" y="224.3596">DQ Chatbot App</text><text fill="#263238" font-family="Segoe UI" font-size="14" lengthAdjust="spacing" textLength="193" x="528" y="242.9807">(Databricks Apps + LangGraph)</text><text fill="#263238" font-family="Segoe UI" font-size="14" lengthAdjust="spacing" textLength="155" x="528" y="280.2229">NL Q&amp;A + intent routing</text><text fill="#263238" font-family="Segoe UI" font-size="14" lengthAdjust="spacing" textLength="181" x="528" y="298.844">conversation session memory</text><text fill="#263238" font-family="Segoe UI" font-size="14" lengthAdjust="spacing" textLength="151" x="528" y="317.4651">LangGraph tool dispatch</text><line style="stroke:#90A4AE;stroke-width:1.0;" x1="519" x2="600.5" y1="255.8049" y2="255.8049"/><text fill="#263238" font-family="Segoe UI" font-size="14" lengthAdjust="spacing" text-decoration="line-through" textLength="6" x="600.5" y="261.1018">-</text><text fill="#263238" font-family="Segoe UI" font-size="14" lengthAdjust="spacing" text-decoration="line-through" textLength="6" x="606.5" y="261.1018">-</text><text fill="#263238" font-family="Segoe UI" font-size="14" lengthAdjust="spacing" text-decoration="line-through" textLength="6" x="612.5" y="261.1018">-</text><text fill="#263238" font-family="Segoe UI" font-size="14" lengthAdjust="spacing" text-decoration="line-through" textLength="6" x="618.5" y="261.1018">-</text><text fill="#263238" font-family="Segoe UI" font-size="14" lengthAdjust="spacing" textLength="24" x="624.5" y="261.1018">----</text><line style="stroke:#90A4AE;stroke-width:1.0;" x1="648.5" x2="730" y1="255.8049" y2="255.8049"/></g><!--entity Backend--><g id="elem_Backend"><rect fill="#F1F1F1" height="135.7266" rx="5" ry="5" style="stroke:#90A4AE;stroke-width:0.5;" width="201" x="952" y="724.2522"/><text fill="#263238" font-family="Segoe UI" font-size="14" lengthAdjust="spacing" textLength="105" x="962" y="749.3596">DQ Backend App</text><text fill="#263238" font-family="Segoe UI" font-size="14" lengthAdjust="spacing" textLength="143" x="962" y="767.9807">(Databricks App / REST)</text><text fill="#263238" font-family="Segoe UI" font-size="14" lengthAdjust="spacing" textLength="138" x="962" y="805.2229">rule CREATE / UPDATE</text><text fill="#263238" font-family="Segoe UI" font-size="14" lengthAdjust="spacing" textLength="163" x="962" y="823.844">SQL validate + trend score</text><text fill="#263238" font-family="Segoe UI" font-size="14" lengthAdjust="spacing" textLength="175" x="962" y="842.4651">writes anomaly_check_config</text><line style="stroke:#90A4AE;stroke-width:1.0;" x1="953" x2="1028.5" y1="780.8049" y2="780.8049"/><text fill="#263238" font-family="Segoe UI" font-size="14" lengthAdjust="spacing" text-decoration="line-through" textLength="6" x="1028.5" y="786.1018">-</text><text fill="#263238" font-family="Segoe UI" font-size="14" lengthAdjust="spacing" text-decoration="line-through" textLength="6" x="1034.5" y="786.1018">-</text><text fill="#263238" font-family="Segoe UI" font-size="14" lengthAdjust="spacing" text-decoration="line-through" textLength="6" x="1040.5" y="786.1018">-</text><text fill="#263238" font-family="Segoe UI" font-size="14" lengthAdjust="spacing" text-decoration="line-through" textLength="6" x="1046.5" y="786.1018">-</text><text fill="#263238" font-family="Segoe UI" font-size="14" lengthAdjust="spacing" textLength="24" x="1052.5" y="786.1018">----</text><line style="stroke:#90A4AE;stroke-width:1.0;" x1="1076.5" x2="1152" y1="780.8049" y2="780.8049"/></g><!--entity LLM--><g id="elem_LLM"><rect fill="#F1F1F1" height="135.7266" rx="5" ry="5" style="stroke:#90A4AE;stroke-width:0.5;" width="228" x="1470.5" y="1554.2522"/><text fill="#263238" font-family="Segoe UI" font-size="14" lengthAdjust="spacing" textLength="72" x="1480.5" y="1579.3596">LLM Engine</text><text fill="#263238" font-family="Segoe UI" font-size="14" lengthAdjust="spacing" textLength="208" x="1480.5" y="1597.9807">(Model Serving Endpoint / BYOM)</text><text fill="#263238" font-family="Segoe UI" font-size="14" lengthAdjust="spacing" textLength="85" x="1480.5" y="1635.2229">intent parsing</text><text fill="#263238" font-family="Segoe UI" font-size="14" lengthAdjust="spacing" textLength="166" x="1480.5" y="1653.844">SQL generation and tuning</text><text fill="#263238" font-family="Segoe UI" font-size="14" lengthAdjust="spacing" textLength="134" x="1480.5" y="1672.4651">trend score prediction</text><line style="stroke:#90A4AE;stroke-width:1.0;" x1="1471.5" x2="1560.5" y1="1610.8049" y2="1610.8049"/><text fill="#263238" font-family="Segoe UI" font-size="14" lengthAdjust="spacing" text-decoration="line-through" textLength="6" x="1560.5" y="1616.1018">-</text><text fill="#263238" font-family="Segoe UI" font-size="14" lengthAdjust="spacing" text-decoration="line-through" textLength="6" x="1566.5" y="1616.1018">-</text><text fill="#263238" font-family="Segoe UI" font-size="14" lengthAdjust="spacing" text-decoration="line-through" textLength="6" x="1572.5" y="1616.1018">-</text><text fill="#263238" font-family="Segoe UI" font-size="14" lengthAdjust="spacing" text-decoration="line-through" textLength="6" x="1578.5" y="1616.1018">-</text><text fill="#263238" font-family="Segoe UI" font-size="14" lengthAdjust="spacing" textLength="24" x="1584.5" y="1616.1018">----</text><line style="stroke:#90A4AE;stroke-width:1.0;" x1="1608.5" x2="1697.5" y1="1610.8049" y2="1610.8049"/></g><!--entity Validator--><g id="elem_Validator"><rect fill="#F1F1F1" height="135.7266" rx="5" ry="5" style="stroke:#90A4AE;stroke-width:0.5;" width="192" x="1488.5" y="541.2522"/><text fill="#263238" font-family="Segoe UI" font-size="14" lengthAdjust="spacing" textLength="85" x="1498.5" y="566.3596">Rule Validator</text><text fill="#263238" font-family="Segoe UI" font-size="14" lengthAdjust="spacing" textLength="137" x="1498.5" y="584.9807">(Python + SQL parser)</text><text fill="#263238" font-family="Segoe UI" font-size="14" lengthAdjust="spacing" textLength="91" x="1498.5" y="622.2229">security checks</text><text fill="#263238" font-family="Segoe UI" font-size="14" lengthAdjust="spacing" textLength="166" x="1498.5" y="640.844">syntax + schema validation</text><text fill="#263238" font-family="Segoe UI" font-size="14" lengthAdjust="spacing" textLength="116" x="1498.5" y="659.4651">duplicate detection</text><line style="stroke:#90A4AE;stroke-width:1.0;" x1="1489.5" x2="1560.5" y1="597.8049" y2="597.8049"/><text fill="#263238" font-family="Segoe UI" font-size="14" lengthAdjust="spacing" text-decoration="line-through" textLength="6" x="1560.5" y="603.1018">-</text><text fill="#263238" font-family="Segoe UI" font-size="14" lengthAdjust="spacing" text-decoration="line-through" textLength="6" x="1566.5" y="603.1018">-</text><text fill="#263238" font-family="Segoe UI" font-size="14" lengthAdjust="spacing" text-decoration="line-through" textLength="6" x="1572.5" y="603.1018">-</text><text fill="#263238" font-family="Segoe UI" font-size="14" lengthAdjust="spacing" text-decoration="line-through" textLength="6" x="1578.5" y="603.1018">-</text><text fill="#263238" font-family="Segoe UI" font-size="14" lengthAdjust="spacing" textLength="24" x="1584.5" y="603.1018">----</text><line style="stroke:#90A4AE;stroke-width:1.0;" x1="1608.5" x2="1679.5" y1="597.8049" y2="597.8049"/></g><!--entity Approval--><g id="elem_Approval"><rect fill="#F1F1F1" height="117.1055" rx="5" ry="5" style="stroke:#90A4AE;stroke-width:0.5;" width="186" x="1491.5" y="907.7522"/><text fill="#263238" font-family="Segoe UI" font-size="14" lengthAdjust="spacing" textLength="112" x="1501.5" y="932.8596">Approval Gateway</text><text fill="#263238" font-family="Segoe UI" font-size="14" lengthAdjust="spacing" textLength="128" x="1501.5" y="951.4807">(Python + Workflow)</text><text fill="#263238" font-family="Segoe UI" font-size="14" lengthAdjust="spacing" textLength="160" x="1501.5" y="988.7229">owner/non-owner routing</text><text fill="#263238" font-family="Segoe UI" font-size="14" lengthAdjust="spacing" textLength="88" x="1501.5" y="1007.344">SLA reminders</text><line style="stroke:#90A4AE;stroke-width:1.0;" x1="1492.5" x2="1560.5" y1="964.3049" y2="964.3049"/><text fill="#263238" font-family="Segoe UI" font-size="14" lengthAdjust="spacing" text-decoration="line-through" textLength="6" x="1560.5" y="969.6018">-</text><text fill="#263238" font-family="Segoe UI" font-size="14" lengthAdjust="spacing" text-decoration="line-through" textLength="6" x="1566.5" y="969.6018">-</text><text fill="#263238" font-family="Segoe UI" font-size="14" lengthAdjust="spacing" text-decoration="line-through" textLength="6" x="1572.5" y="969.6018">-</text><text fill="#263238" font-family="Segoe UI" font-size="14" lengthAdjust="spacing" text-decoration="line-through" textLength="6" x="1578.5" y="969.6018">-</text><text fill="#263238" font-family="Segoe UI" font-size="14" lengthAdjust="spacing" textLength="24" x="1584.5" y="969.6018">----</text><line style="stroke:#90A4AE;stroke-width:1.0;" x1="1608.5" x2="1676.5" y1="964.3049" y2="964.3049"/></g><!--entity Engine--><g id="elem_Engine"><rect fill="#F1F1F1" height="117.1055" rx="5" ry="5" style="stroke:#90A4AE;stroke-width:0.5;" width="203" x="1483" y="1249.7522"/><text fill="#263238" font-family="Segoe UI" font-size="14" lengthAdjust="spacing" textLength="133" x="1493" y="1274.8596">Rule Execution Engine</text><text fill="#263238" font-family="Segoe UI" font-size="14" lengthAdjust="spacing" textLength="183" x="1493" y="1293.4807">(ANOMALY_DETECTION_JOB)</text><text fill="#263238" font-family="Segoe UI" font-size="14" lengthAdjust="spacing" textLength="163" x="1493" y="1330.7229">schedule/event based runs</text><text fill="#263238" font-family="Segoe UI" font-size="14" lengthAdjust="spacing" textLength="169" x="1493" y="1349.344">executes linked configs only</text><line style="stroke:#90A4AE;stroke-width:1.0;" x1="1484" x2="1560.5" y1="1306.3049" y2="1306.3049"/><text fill="#263238" font-family="Segoe UI" font-size="14" lengthAdjust="spacing" text-decoration="line-through" textLength="6" x="1560.5" y="1311.6018">-</text><text fill="#263238" font-family="Segoe UI" font-size="14" lengthAdjust="spacing" text-decoration="line-through" textLength="6" x="1566.5" y="1311.6018">-</text><text fill="#263238" font-family="Segoe UI" font-size="14" lengthAdjust="spacing" text-decoration="line-through" textLength="6" x="1572.5" y="1311.6018">-</text><text fill="#263238" font-family="Segoe UI" font-size="14" lengthAdjust="spacing" text-decoration="line-through" textLength="6" x="1578.5" y="1311.6018">-</text><text fill="#263238" font-family="Segoe UI" font-size="14" lengthAdjust="spacing" textLength="24" x="1584.5" y="1311.6018">----</text><line style="stroke:#90A4AE;stroke-width:1.0;" x1="1608.5" x2="1685" y1="1306.3049" y2="1306.3049"/></g><!--entity Audit--><g id="elem_Audit"><rect fill="#F1F1F1" height="117.1055" rx="5" ry="5" style="stroke:#90A4AE;stroke-width:0.5;" width="164" x="1502.5" y="1401.7522"/><text fill="#263238" font-family="Segoe UI" font-size="14" lengthAdjust="spacing" textLength="144" x="1512.5" y="1426.8596">Audit &amp; Version Service</text><text fill="#263238" font-family="Segoe UI" font-size="14" lengthAdjust="spacing" textLength="102" x="1512.5" y="1445.4807">(Python + Delta)</text><text fill="#263238" font-family="Segoe UI" font-size="14" lengthAdjust="spacing" textLength="100" x="1512.5" y="1482.7229">immutable audit</text><text fill="#263238" font-family="Segoe UI" font-size="14" lengthAdjust="spacing" textLength="97" x="1512.5" y="1501.344">version tracking</text><line style="stroke:#90A4AE;stroke-width:1.0;" x1="1503.5" x2="1560.5" y1="1458.3049" y2="1458.3049"/><text fill="#263238" font-family="Segoe UI" font-size="14" lengthAdjust="spacing" text-decoration="line-through" textLength="6" x="1560.5" y="1463.6018">-</text><text fill="#263238" font-family="Segoe UI" font-size="14" lengthAdjust="spacing" text-decoration="line-through" textLength="6" x="1566.5" y="1463.6018">-</text><text fill="#263238" font-family="Segoe UI" font-size="14" lengthAdjust="spacing" text-decoration="line-through" textLength="6" x="1572.5" y="1463.6018">-</text><text fill="#263238" font-family="Segoe UI" font-size="14" lengthAdjust="spacing" text-decoration="line-through" textLength="6" x="1578.5" y="1463.6018">-</text><text fill="#263238" font-family="Segoe UI" font-size="14" lengthAdjust="spacing" textLength="24" x="1584.5" y="1463.6018">----</text><line style="stroke:#90A4AE;stroke-width:1.0;" x1="1608.5" x2="1665.5" y1="1458.3049" y2="1458.3049"/></g><!--entity NotifySvc--><g id="elem_NotifySvc"><rect fill="#F1F1F1" height="117.1055" rx="5" ry="5" style="stroke:#90A4AE;stroke-width:0.5;" width="176" x="1995" y="1105.7522"/><text fill="#263238" font-family="Segoe UI" font-size="14" lengthAdjust="spacing" textLength="139" x="2005" y="1130.8596">Notification Dispatcher</text><text fill="#263238" font-family="Segoe UI" font-size="14" lengthAdjust="spacing" textLength="97" x="2005" y="1149.4807">(Python service)</text><text fill="#263238" font-family="Segoe UI" font-size="14" lengthAdjust="spacing" textLength="150" x="2005" y="1186.7229">priority + dedup routing</text><text fill="#263238" font-family="Segoe UI" font-size="14" lengthAdjust="spacing" textLength="113" x="2005" y="1205.344">Email + Jira tickets</text><line style="stroke:#90A4AE;stroke-width:1.0;" x1="1996" x2="2059" y1="1162.3049" y2="1162.3049"/><text fill="#263238" font-family="Segoe UI" font-size="14" lengthAdjust="spacing" text-decoration="line-through" textLength="6" x="2059" y="1167.6018">-</text><text fill="#263238" font-family="Segoe UI" font-size="14" lengthAdjust="spacing" text-decoration="line-through" textLength="6" x="2065" y="1167.6018">-</text><text fill="#263238" font-family="Segoe UI" font-size="14" lengthAdjust="spacing" text-decoration="line-through" textLength="6" x="2071" y="1167.6018">-</text><text fill="#263238" font-family="Segoe UI" font-size="14" lengthAdjust="spacing" text-decoration="line-through" textLength="6" x="2077" y="1167.6018">-</text><text fill="#263238" font-family="Segoe UI" font-size="14" lengthAdjust="spacing" textLength="24" x="2083" y="1167.6018">----</text><line style="stroke:#90A4AE;stroke-width:1.0;" x1="2107" x2="2170" y1="1162.3049" y2="1162.3049"/></g><!--entity RuleStore--><g id="elem_RuleStore"><path d="M2001.5,847.2522 C2001.5,837.2522 2083,837.2522 2083,837.2522 C2083,837.2522 2164.5,837.2522 2164.5,847.2522 L2164.5,893.4944 C2164.5,903.4944 2083,903.4944 2083,903.4944 C2083,903.4944 2001.5,903.4944 2001.5,893.4944 L2001.5,847.2522 " fill="#F1F1F1" style="stroke:#181818;stroke-width:0.5;"/><path d="M2001.5,847.2522 C2001.5,857.2522 2083,857.2522 2083,857.2522 C2083,857.2522 2164.5,857.2522 2164.5,847.2522 " fill="none" style="stroke:#181818;stroke-width:0.5;"/><text fill="#000000" font-family="Segoe UI" font-size="14" lengthAdjust="spacing" textLength="62" x="2011.5" y="876.3596">Rule Store</text><text fill="#000000" font-family="Segoe UI" font-size="14" lengthAdjust="spacing" textLength="143" x="2011.5" y="894.9807">(anomaly_check_config)</text></g><!--entity SuggestStore--><g id="elem_SuggestStore"><path d="M1489.5,223.7522 C1489.5,213.7522 1584.5,213.7522 1584.5,213.7522 C1584.5,213.7522 1679.5,213.7522 1679.5,223.7522 L1679.5,307.2366 C1679.5,317.2366 1584.5,317.2366 1584.5,317.2366 C1584.5,317.2366 1489.5,317.2366 1489.5,307.2366 L1489.5,223.7522 " fill="#F1F1F1" style="stroke:#181818;stroke-width:0.5;"/><path d="M1489.5,223.7522 C1489.5,233.7522 1584.5,233.7522 1584.5,233.7522 C1584.5,233.7522 1679.5,233.7522 1679.5,223.7522 " fill="none" style="stroke:#181818;stroke-width:0.5;"/><text fill="#000000" font-family="Segoe UI" font-size="14" lengthAdjust="spacing" textLength="109" x="1499.5" y="252.8596">Suggestion Cache</text><text fill="#000000" font-family="Segoe UI" font-size="14" lengthAdjust="spacing" textLength="157" x="1499.5" y="271.4807">(check_suggestions_cache</text><text fill="#000000" font-family="Segoe UI" font-size="14" lengthAdjust="spacing" textLength="170" x="1499.5" y="290.1018">table_fqn + schema_version</text><text fill="#000000" font-family="Segoe UI" font-size="14" lengthAdjust="spacing" textLength="108" x="1499.5" y="308.7229">suggestions_json)</text></g><!--entity ExecStore--><g id="elem_ExecStore"><path d="M1985.5,1388.7522 C1985.5,1378.7522 2083,1378.7522 2083,1378.7522 C2083,1378.7522 2180.5,1378.7522 2180.5,1388.7522 L2180.5,1472.2366 C2180.5,1482.2366 2083,1482.2366 2083,1482.2366 C2083,1482.2366 1985.5,1482.2366 1985.5,1472.2366 L1985.5,1388.7522 " fill="#F1F1F1" style="stroke:#181818;stroke-width:0.5;"/><path d="M1985.5,1388.7522 C1985.5,1398.7522 2083,1398.7522 2083,1398.7522 C2083,1398.7522 2180.5,1398.7522 2180.5,1388.7522 " fill="none" style="stroke:#181818;stroke-width:0.5;"/><text fill="#000000" font-family="Segoe UI" font-size="14" lengthAdjust="spacing" textLength="94" x="1995.5" y="1417.8596">Execution Store</text><text fill="#000000" font-family="Segoe UI" font-size="14" lengthAdjust="spacing" textLength="127" x="1995.5" y="1436.4807">(check_execution_log</text><text fill="#000000" font-family="Segoe UI" font-size="14" lengthAdjust="spacing" textLength="175" x="1995.5" y="1455.1018">DIGITAL_DATA_ANOMALIES</text><text fill="#000000" font-family="Segoe UI" font-size="14" lengthAdjust="spacing" textLength="118" x="1995.5" y="1473.7229">table_daily_metrics)</text></g><!--entity DocStore--><g id="elem_DocStore"><path d="M2007.5,406.2522 C2007.5,396.2522 2083,396.2522 2083,396.2522 C2083,396.2522 2158.5,396.2522 2158.5,406.2522 L2158.5,452.4944 C2158.5,462.4944 2083,462.4944 2083,462.4944 C2083,462.4944 2007.5,462.4944 2007.5,452.4944 L2007.5,406.2522 " fill="#F1F1F1" style="stroke:#181818;stroke-width:0.5;"/><path d="M2007.5,406.2522 C2007.5,416.2522 2083,416.2522 2083,416.2522 C2083,416.2522 2158.5,416.2522 2158.5,406.2522 " fill="none" style="stroke:#181818;stroke-width:0.5;"/><text fill="#000000" font-family="Segoe UI" font-size="14" lengthAdjust="spacing" textLength="131" x="2017.5" y="435.3596">Documentation Store</text><text fill="#000000" font-family="Segoe UI" font-size="14" lengthAdjust="spacing" textLength="84" x="2017.5" y="453.9807">(UC Volumes)</text></g><!--entity VectorIdx--><g id="elem_VectorIdx"><rect fill="#F1F1F1" height="154.3477" rx="5" ry="5" style="stroke:#90A4AE;stroke-width:0.5;" width="193" x="1488" y="352.2522"/><text fill="#263238" font-family="Segoe UI" font-size="14" lengthAdjust="spacing" textLength="121" x="1498" y="377.3596">Vector Search Index</text><text fill="#263238" font-family="Segoe UI" font-size="14" lengthAdjust="spacing" textLength="92" x="1498" y="395.9807">(Databricks VS)</text><text fill="#263238" font-family="Segoe UI" font-size="14" lengthAdjust="spacing" textLength="131" x="1498" y="433.2229">BGE-M3 embeddings</text><text fill="#263238" font-family="Segoe UI" font-size="14" lengthAdjust="spacing" textLength="139" x="1498" y="451.844">cosine similarity search</text><text fill="#263238" font-family="Segoe UI" font-size="14" lengthAdjust="spacing" textLength="147" x="1498" y="470.4651">UC Volume chunk index</text><text fill="#263238" font-family="Segoe UI" font-size="14" lengthAdjust="spacing" textLength="167" x="1498" y="489.0862">rebuilt nightly + on change</text><line style="stroke:#90A4AE;stroke-width:1.0;" x1="1489" x2="1560.5" y1="408.8049" y2="408.8049"/><text fill="#263238" font-family="Segoe UI" font-size="14" lengthAdjust="spacing" text-decoration="line-through" textLength="6" x="1560.5" y="414.1018">-</text><text fill="#263238" font-family="Segoe UI" font-size="14" lengthAdjust="spacing" text-decoration="line-through" textLength="6" x="1566.5" y="414.1018">-</text><text fill="#263238" font-family="Segoe UI" font-size="14" lengthAdjust="spacing" text-decoration="line-through" textLength="6" x="1572.5" y="414.1018">-</text><text fill="#263238" font-family="Segoe UI" font-size="14" lengthAdjust="spacing" text-decoration="line-through" textLength="6" x="1578.5" y="414.1018">-</text><text fill="#263238" font-family="Segoe UI" font-size="14" lengthAdjust="spacing" textLength="24" x="1584.5" y="414.1018">----</text><line style="stroke:#90A4AE;stroke-width:1.0;" x1="1608.5" x2="1680" y1="408.8049" y2="408.8049"/></g><!--entity CRAGEval--><g id="elem_CRAGEval"><rect fill="#F1F1F1" height="172.9688" rx="5" ry="5" style="stroke:#90A4AE;stroke-width:0.5;" width="236" x="1965" y="579.7522"/><text fill="#263238" font-family="Segoe UI" font-size="14" lengthAdjust="spacing" textLength="153" x="1975" y="604.8596">CRAG Retrieval Evaluator</text><text fill="#263238" font-family="Segoe UI" font-size="14" lengthAdjust="spacing" textLength="148" x="1975" y="623.4807">(Python -- DQ Backend)</text><text fill="#263238" font-family="Segoe UI" font-size="14" lengthAdjust="spacing" textLength="178" x="1975" y="660.7229">scores top-k chunk relevance</text><text fill="#263238" font-family="Segoe UI" font-size="14" lengthAdjust="spacing" textLength="137" x="1975" y="679.344">entity coverage gating</text><text fill="#263238" font-family="Segoe UI" font-size="14" lengthAdjust="spacing" textLength="192" x="1975" y="697.9651">query rewrite on MEDIUM conf</text><text fill="#263238" font-family="Segoe UI" font-size="14" lengthAdjust="spacing" textLength="186" x="1975" y="716.5862">keyword fallback on LOW conf</text><text fill="#263238" font-family="Segoe UI" font-size="14" lengthAdjust="spacing" textLength="210" x="1975" y="735.2073">threshold auto-tuning per domain</text><line style="stroke:#90A4AE;stroke-width:1.0;" x1="1966" x2="2059" y1="636.3049" y2="636.3049"/><text fill="#263238" font-family="Segoe UI" font-size="14" lengthAdjust="spacing" text-decoration="line-through" textLength="6" x="2059" y="641.6018">-</text><text fill="#263238" font-family="Segoe UI" font-size="14" lengthAdjust="spacing" text-decoration="line-through" textLength="6" x="2065" y="641.6018">-</text><text fill="#263238" font-family="Segoe UI" font-size="14" lengthAdjust="spacing" text-decoration="line-through" textLength="6" x="2071" y="641.6018">-</text><text fill="#263238" font-family="Segoe UI" font-size="14" lengthAdjust="spacing" text-decoration="line-through" textLength="6" x="2077" y="641.6018">-</text><text fill="#263238" font-family="Segoe UI" font-size="14" lengthAdjust="spacing" textLength="24" x="2083" y="641.6018">----</text><line style="stroke:#90A4AE;stroke-width:1.0;" x1="2107" x2="2200" y1="636.3049" y2="636.3049"/></g><!--entity CAGLoader--><g id="elem_CAGLoader"><rect fill="#F1F1F1" height="154.3477" rx="5" ry="5" style="stroke:#90A4AE;stroke-width:0.5;" width="229" x="1470" y="1060.2522"/><text fill="#263238" font-family="Segoe UI" font-size="14" lengthAdjust="spacing" textLength="100" x="1480" y="1085.3596">CAG Pre-Loader</text><text fill="#263238" font-family="Segoe UI" font-size="14" lengthAdjust="spacing" textLength="148" x="1480" y="1103.9807">(Python -- DQ Backend)</text><text fill="#263238" font-family="Segoe UI" font-size="14" lengthAdjust="spacing" textLength="176" x="1480" y="1141.2229">supported_checks.md always</text><text fill="#263238" font-family="Segoe UI" font-size="14" lengthAdjust="spacing" textLength="203" x="1480" y="1159.844">injected into LLM system prompt</text><text fill="#263238" font-family="Segoe UI" font-size="14" lengthAdjust="spacing" textLength="132" x="1480" y="1178.4651">security_patterns.json</text><text fill="#263238" font-family="Segoe UI" font-size="14" lengthAdjust="spacing" textLength="174" x="1480" y="1197.0862">no per-request retrieval cost</text><line style="stroke:#90A4AE;stroke-width:1.0;" x1="1471" x2="1560.5" y1="1116.8049" y2="1116.8049"/><text fill="#263238" font-family="Segoe UI" font-size="14" lengthAdjust="spacing" text-decoration="line-through" textLength="6" x="1560.5" y="1122.1018">-</text><text fill="#263238" font-family="Segoe UI" font-size="14" lengthAdjust="spacing" text-decoration="line-through" textLength="6" x="1566.5" y="1122.1018">-</text><text fill="#263238" font-family="Segoe UI" font-size="14" lengthAdjust="spacing" text-decoration="line-through" textLength="6" x="1572.5" y="1122.1018">-</text><text fill="#263238" font-family="Segoe UI" font-size="14" lengthAdjust="spacing" text-decoration="line-through" textLength="6" x="1578.5" y="1122.1018">-</text><text fill="#263238" font-family="Segoe UI" font-size="14" lengthAdjust="spacing" textLength="24" x="1584.5" y="1122.1018">----</text><line style="stroke:#90A4AE;stroke-width:1.0;" x1="1608.5" x2="1698" y1="1116.8049" y2="1116.8049"/></g><!--entity User--><g id="elem_User"><ellipse cx="97.5" cy="217.7522" fill="#F1F1F1" rx="8" ry="8" style="stroke:#455A64;stroke-width:0.5;"/><path d="M97.5,225.7522 L97.5,252.7522 M84.5,233.7522 L110.5,233.7522 M97.5,252.7522 L84.5,267.7522 M97.5,252.7522 L110.5,267.7522 " fill="none" style="stroke:#455A64;stroke-width:0.5;"/><text fill="#263238" font-family="Segoe UI" font-size="14" lengthAdjust="spacing" textLength="28" x="6" y="284.3596">User</text><text fill="#263238" font-family="Segoe UI" font-size="14" lengthAdjust="spacing" textLength="129" x="6" y="302.9807">(Data Engineer / BA /</text><text fill="#263238" font-family="Segoe UI" font-size="14" lengthAdjust="spacing" textLength="183" x="6" y="321.6018">PO / Tech Lead / Governance)</text></g><!--entity NotifyExt--><g id="elem_NotifyExt"><rect fill="#F1F1F1" height="57.2422" rx="5" ry="5" style="stroke:#90A4AE;stroke-width:0.5;" width="142" x="2405" y="1135.7522"/><text fill="#263238" font-family="Segoe UI" font-size="14" lengthAdjust="spacing" textLength="122" x="2415" y="1160.8596">Notification Services</text><text fill="#263238" font-family="Segoe UI" font-size="14" lengthAdjust="spacing" textLength="73" x="2415" y="1179.4807">(Email / Jira)</text></g><!--entity DataSrc--><g id="elem_DataSrc"><rect fill="#F1F1F1" height="75.8633" rx="5" ry="5" style="stroke:#90A4AE;stroke-width:0.5;" width="177" x="1994.5" y="1815.2522"/><text fill="#263238" font-family="Segoe UI" font-size="14" lengthAdjust="spacing" textLength="89" x="2004.5" y="1840.3596">Any UC Tables</text><text fill="#263238" font-family="Segoe UI" font-size="14" lengthAdjust="spacing" textLength="148" x="2004.5" y="1858.9807">(including tables outside</text><text fill="#263238" font-family="Segoe UI" font-size="14" lengthAdjust="spacing" textLength="157" x="2004.5" y="1877.6018">DQ Chatbot App context)</text></g><!--entity LlmApi--><g id="elem_LlmApi"><rect fill="#F1F1F1" height="57.2422" rx="5" ry="5" style="stroke:#90A4AE;stroke-width:0.5;" width="175" x="1995.5" y="1722.7522"/><text fill="#263238" font-family="Segoe UI" font-size="14" lengthAdjust="spacing" textLength="52" x="2005.5" y="1747.8596">LLM API</text><text fill="#263238" font-family="Segoe UI" font-size="14" lengthAdjust="spacing" textLength="155" x="2005.5" y="1766.4807">(Model Serving Endpoint)</text></g><!--link User to Genie--><g id="link_User_Genie"><path d="M189.05,267.2522 C280.42,267.2522 415.42,267.2522 511.84,267.2522 " fill="none" id="User-to-Genie" style="stroke:#181818;stroke-width:1.0;"/><polygon fill="#181818" points="517.84,267.2522,508.84,263.2522,512.84,267.2522,508.84,271.2522,517.84,267.2522" style="stroke:#181818;stroke-width:1.0;"/><text fill="#000000" font-family="Segoe UI" font-size="13" lengthAdjust="spacing" textLength="265" x="220" y="263.2805">interacts via chat (NL queries + rule requests)</text></g><!--link Genie to Backend--><g id="link_Genie_Backend"><path d="M680.76,335.3522 C762.36,435.9222 910.4798,618.4528 992.2198,719.2028 " fill="none" id="Genie-to-Backend" style="stroke:#181818;stroke-width:1.0;"/><polygon fill="#181818" points="996,723.8622,993.4359,714.353,992.8498,719.9794,987.2234,719.3933,996,723.8622" style="stroke:#181818;stroke-width:1.0;"/><text fill="#000000" font-family="Segoe UI" font-size="13" lengthAdjust="spacing" textLength="159" x="762" y="416.2805">LangGraph tool call (WRITE</text><text fill="#000000" font-family="Segoe UI" font-size="13" lengthAdjust="spacing" textLength="118" x="782.5" y="433.5715">and suggest intents)</text></g><!--link Genie to RuleStore--><g id="link_Genie_RuleStore"><path d="M731.04,232.0822 C932.18,171.0922 1381,64.2422 1725,196.2522 C1842.23,241.2422 1879.49,272.6222 1935,385.2522 C2010.87,539.2022 1887.17,617.2822 1965,770.2522 C1978.81,797.4022 1998.6872,816.66 2021.8472,833.6 " fill="none" id="Genie-to-RuleStore" style="stroke:#181818;stroke-width:1.0;"/><polygon fill="#181818" points="2026.69,837.1422,2021.7872,828.6004,2022.6543,834.1904,2017.0643,835.0574,2026.69,837.1422" style="stroke:#181818;stroke-width:1.0;"/><text fill="#000000" font-family="Segoe UI" font-size="13" lengthAdjust="spacing" textLength="112" x="1242.5" y="129.2805">SELECT via tool call</text></g><!--link Genie to SuggestStore--><g id="link_Genie_SuggestStore"><path d="M731.22,267.0322 C919.42,266.6422 1303.6,265.8345 1483.23,265.4645 " fill="none" id="Genie-to-SuggestStore" style="stroke:#181818;stroke-width:1.0;"/><polygon fill="#181818" points="1489.23,265.4522,1480.2218,261.4707,1484.23,265.4625,1480.2383,269.4707,1489.23,265.4522" style="stroke:#181818;stroke-width:1.0;"/><text fill="#000000" font-family="Segoe UI" font-size="13" lengthAdjust="spacing" textLength="161" x="972" y="245.2805">SELECT cached suggestions</text><text fill="#000000" font-family="Segoe UI" font-size="13" lengthAdjust="spacing" textLength="142" x="981.5" y="262.5715">(via LangGraph tool call)</text></g><!--link Backend to LLM--><g id="link_Backend_LLM"><path d="M1073.67,860.3222 C1118.77,1002.3222 1240.1,1333.7322 1444,1536.2522 C1452.07,1544.2722 1456.2576,1548.2456 1465.6276,1555.3856 " fill="none" id="Backend-to-LLM" style="stroke:#181818;stroke-width:1.0;"/><polygon fill="#181818" points="1470.4,1559.0222,1465.6658,1550.3858,1466.423,1555.9917,1460.8171,1556.7489,1470.4,1559.0222" style="stroke:#181818;stroke-width:1.0;"/><text fill="#000000" font-family="Segoe UI" font-size="13" lengthAdjust="spacing" textLength="147" x="1225" y="1157.2805">parse/generate/tune SQL</text></g><!--link Backend to Validator--><g id="link_Backend_Validator"><path d="M1153.25,750.5622 C1163.26,746.6322 1173.31,742.8022 1183,739.2522 C1286.3,701.4022 1400.8257,664.8979 1482.4057,639.7779 " fill="none" id="Backend-to-Validator" style="stroke:#181818;stroke-width:1.0;"/><polygon fill="#181818" points="1488.14,638.0122,1478.3614,636.8379,1483.3614,639.4836,1480.7157,644.4836,1488.14,638.0122" style="stroke:#181818;stroke-width:1.0;"/><text fill="#000000" font-family="Segoe UI" font-size="13" lengthAdjust="spacing" textLength="72" x="1262.5" y="659.2805">validate SQL</text></g><!--link Backend to VectorIdx--><g id="link_Backend_VectorIdx"><path d="M1100.57,723.9422 C1123.15,694.5022 1152.01,661.1822 1183,636.2522 C1276.76,560.8222 1396.8196,503.6352 1482.1996,468.1452 " fill="none" id="Backend-to-VectorIdx" style="stroke:#181818;stroke-width:1.0;"/><polygon fill="#181818" points="1487.74,465.8422,1477.894,465.6031,1483.123,467.7613,1480.9647,472.9903,1487.74,465.8422" style="stroke:#181818;stroke-width:1.0;"/><text fill="#000000" font-family="Segoe UI" font-size="13" lengthAdjust="spacing" textLength="115" x="1241" y="479.2805">embed_and_search(</text><text fill="#000000" font-family="Segoe UI" font-size="13" lengthAdjust="spacing" textLength="229" x="1184" y="496.5715">query, top_k=8, filter={table, doc_type})</text></g><!--link VectorIdx to DocStore--><g id="link_VectorIdx_DocStore"><path d="M1681.23,429.2522 C1776.33,429.2522 1914.2,429.2522 2001.22,429.2522 " fill="none" id="VectorIdx-to-DocStore" style="stroke:#181818;stroke-width:1.0;"/><polygon fill="#181818" points="2007.22,429.2522,1998.22,425.2522,2002.22,429.2522,1998.22,433.2522,2007.22,429.2522" style="stroke:#181818;stroke-width:1.0;"/><text fill="#000000" font-family="Segoe UI" font-size="13" lengthAdjust="spacing" textLength="125" x="1782.5" y="408.2805">fetch matched chunks</text><text fill="#000000" font-family="Segoe UI" font-size="13" lengthAdjust="spacing" textLength="132" x="1779" y="425.5715">from UC Volume index</text></g><!--link VectorIdx to CRAGEval--><g id="link_VectorIdx_CRAGEval"><path d="M1681.23,474.9522 C1762.1,513.5522 1872.8251,566.4078 1959.2751,607.6678 " fill="none" id="VectorIdx-to-CRAGEval" style="stroke:#181818;stroke-width:1.0;"/><polygon fill="#181818" points="1964.69,610.2522,1958.2906,602.7657,1960.1776,608.0985,1954.8448,609.9856,1964.69,610.2522" style="stroke:#181818;stroke-width:1.0;"/><text fill="#000000" font-family="Segoe UI" font-size="13" lengthAdjust="spacing" textLength="129" x="1780.5" y="509.2805">top_k chunks + scores</text></g><!--link CRAGEval to Backend--><g id="link_CRAGEval_Backend"><path d="M1964.62,689.9022 C1895.16,703.2422 1805.34,719.3622 1725,730.2522 C1522.7,757.6722 1290.4253,776.0821 1159.0553,785.3021 " fill="none" id="CRAGEval-to-Backend" style="stroke:#181818;stroke-width:1.0;"/><polygon fill="#181818" points="1153.07,785.7222,1162.328,789.0823,1158.0577,785.3721,1161.7679,781.1019,1153.07,785.7222" style="stroke:#181818;stroke-width:1.0;"/><text fill="#000000" font-family="Segoe UI" font-size="13" lengthAdjust="spacing" textLength="186" x="1491.5" y="709.2805">confidence: HIGH|MEDIUM|LOW</text><text fill="#000000" font-family="Segoe UI" font-size="13" lengthAdjust="spacing" textLength="176" x="1496.5" y="726.5715">+ rewritten query on MEDIUM</text></g><!--link Backend to CAGLoader--><g id="link_Backend_CAGLoader"><path d="M1088.22,860.4822 C1110.79,899.1122 1143.36,945.8422 1183,977.2522 C1267.65,1044.3322 1378.2957,1084.9819 1463.7957,1109.1219 " fill="none" id="Backend-to-CAGLoader" style="stroke:#181818;stroke-width:1.0;"/><polygon fill="#181818" points="1469.57,1110.7522,1461.9955,1104.4572,1464.7581,1109.3936,1459.8217,1112.1562,1469.57,1110.7522" style="stroke:#181818;stroke-width:1.0;"/><text fill="#000000" font-family="Segoe UI" font-size="13" lengthAdjust="spacing" textLength="109" x="1244" y="956.2805">get_static_context()</text><text fill="#000000" font-family="Segoe UI" font-size="13" lengthAdjust="spacing" textLength="107" x="1245" y="973.5715">(once per session)</text></g><!--link Backend to SuggestStore--><g id="link_Backend_SuggestStore"><path d="M1064.33,724.1022 C1079.28,650.0022 1112.82,532.0622 1183,456.2522 C1265.81,366.7922 1393.5259,316.6523 1483.3859,290.1023 " fill="none" id="Backend-to-SuggestStore" style="stroke:#181818;stroke-width:1.0;"/><polygon fill="#181818" points="1489.14,288.4022,1479.3755,287.1163,1484.3449,289.8189,1481.6423,294.7884,1489.14,288.4022" style="stroke:#181818;stroke-width:1.0;"/><text fill="#000000" font-family="Segoe UI" font-size="13" lengthAdjust="spacing" textLength="127" x="1235" y="293.2805">cache lookup / upsert</text><text fill="#000000" font-family="Segoe UI" font-size="13" lengthAdjust="spacing" textLength="179" x="1209" y="310.5715">by table_fqn + schema_version</text></g><!--link Backend to DataSrc--><g id="link_Backend_DataSrc"><path d="M1060.02,860.5022 C1075.96,1017.7422 1120.22,1400.5722 1183,1512.2522 C1258.91,1647.2822 1304.35,1676.2022 1444,1743.2522 C1626.13,1830.6922 1861.0423,1849.4078 1988.3923,1852.8978 " fill="none" id="Backend-to-DataSrc" style="stroke:#181818;stroke-width:1.0;"/><polygon fill="#181818" points="1994.39,1853.0622,1985.503,1848.8171,1989.3919,1852.9252,1985.2838,1856.8141,1994.39,1853.0622" style="stroke:#181818;stroke-width:1.0;"/><text fill="#000000" font-family="Segoe UI" font-size="13" lengthAdjust="spacing" textLength="172" x="1498.5" y="1722.2805">metadata read on cache miss</text><text fill="#000000" font-family="Segoe UI" font-size="13" lengthAdjust="spacing" textLength="279" x="1445" y="1739.5715">(DESCRIBE HISTORY + INFORMATION_SCHEMA)</text></g><!--link Backend to RuleStore--><g id="link_Backend_RuleStore"><path d="M1153.05,799.8022 C1356.22,815.2122 1809.0972,849.5584 1995.2572,863.6784 " fill="none" id="Backend-to-RuleStore" style="stroke:#181818;stroke-width:1.0;"/><polygon fill="#181818" points="2001.24,864.1322,1992.5683,859.463,1996.2543,863.754,1991.9633,867.44,2001.24,864.1322" style="stroke:#181818;stroke-width:1.0;"/><text fill="#000000" font-family="Segoe UI" font-size="13" lengthAdjust="spacing" textLength="232" x="1468.5" y="818.2805">INSERT/UPDATE rules (service principal)</text></g><!--link Backend to Approval--><g id="link_Backend_Approval"><path d="M1153.31,851.9222 C1163.17,856.7822 1173.17,861.3222 1183,865.2522 C1285.21,906.1022 1402.9497,933.1301 1485.5697,949.1501 " fill="none" id="Backend-to-Approval" style="stroke:#181818;stroke-width:1.0;"/><polygon fill="#181818" points="1491.46,950.2922,1483.386,944.6521,1486.5514,949.3404,1481.8631,952.5059,1491.46,950.2922" style="stroke:#181818;stroke-width:1.0;"/><text fill="#000000" font-family="Segoe UI" font-size="13" lengthAdjust="spacing" textLength="116" x="1240.5" y="861.2805">submit for approval</text></g><!--link Approval to RuleStore--><g id="link_Approval_RuleStore"><path d="M1677.72,948.4222 C1770.69,930.4422 1906.8592,904.1218 1995.4592,886.9818 " fill="none" id="Approval-to-RuleStore" style="stroke:#181818;stroke-width:1.0;"/><polygon fill="#181818" points="2001.35,885.8422,1991.7541,883.6244,1996.441,886.7918,1993.2736,891.4788,2001.35,885.8422" style="stroke:#181818;stroke-width:1.0;"/><text fill="#000000" font-family="Segoe UI" font-size="13" lengthAdjust="spacing" textLength="105" x="1792.5" y="898.2805">update rule status</text></g><!--link Approval to NotifySvc--><g id="link_Approval_NotifySvc"><path d="M1677.72,1003.0322 C1768.45,1039.2122 1900.3467,1091.8099 1989.2767,1127.2699 " fill="none" id="Approval-to-NotifySvc" style="stroke:#181818;stroke-width:1.0;"/><polygon fill="#181818" points="1994.85,1129.4922,1987.9716,1122.4432,1990.2056,1127.6403,1985.0086,1129.8743,1994.85,1129.4922" style="stroke:#181818;stroke-width:1.0;"/><text fill="#000000" font-family="Segoe UI" font-size="13" lengthAdjust="spacing" textLength="126" x="1782" y="1032.2805">approval notifications</text></g><!--link Engine to RuleStore--><g id="link_Engine_RuleStore"><path d="M1686.15,1252.8722 C1699.24,1245.6222 1712.45,1238.2722 1725,1231.2522 C1738.38,1223.7722 1741.43,1221.3722 1755,1214.2522 C1833.69,1172.9922 1870.03,1187.8622 1935,1127.2522 C1953.39,1110.0922 2026.7921,974.2093 2061.6421,908.6993 " fill="none" id="Engine-to-RuleStore" style="stroke:#181818;stroke-width:1.0;"/><polygon fill="#181818" points="2064.46,903.4022,2056.7017,909.4692,2062.1117,907.8164,2063.7645,913.2265,2064.46,903.4022" style="stroke:#181818;stroke-width:1.0;"/><text fill="#000000" font-family="Segoe UI" font-size="13" lengthAdjust="spacing" textLength="148" x="1771" y="1123.2805">read linked active configs</text></g><!--link Engine to DataSrc--><g id="link_Engine_DataSrc"><path d="M1686.33,1350.8122 C1700.73,1360.2022 1714.27,1371.3022 1725,1384.2522 C1752.71,1417.6922 1731.71,1440.5922 1755,1477.2522 C1813.68,1569.6222 1881.83,1549.6022 1935,1645.2522 C1968.46,1705.4322 1922.8,1742.8422 1965,1797.2522 C1972.94,1807.4822 1978.121,1812.7638 1989.281,1819.7338 " fill="none" id="Engine-to-DataSrc" style="stroke:#181818;stroke-width:1.0;"/><polygon fill="#181818" points="1994.37,1822.9122,1988.8554,1814.752,1990.1292,1820.2636,1984.6176,1821.5373,1994.37,1822.9122" style="stroke:#181818;stroke-width:1.0;"/><text fill="#000000" font-family="Segoe UI" font-size="13" lengthAdjust="spacing" textLength="146" x="1772" y="1473.2805">execute read-only checks</text></g><!--link Engine to ExecStore--><g id="link_Engine_ExecStore"><path d="M1686.27,1333.0122 C1773.57,1354.4622 1893.2235,1383.8599 1979.3435,1405.0299 " fill="none" id="Engine-to-ExecStore" style="stroke:#181818;stroke-width:1.0;"/><polygon fill="#181818" points="1985.17,1406.4622,1977.385,1400.4294,1980.3145,1405.2686,1975.4753,1408.1981,1985.17,1406.4622" style="stroke:#181818;stroke-width:1.0;"/><text fill="#000000" font-family="Segoe UI" font-size="13" lengthAdjust="spacing" textLength="178" x="1756" y="1347.2805">write outcomes and anomalies</text></g><!--link Engine to NotifySvc--><g id="link_Engine_NotifySvc"><path d="M1686.01,1294.9422 C1756.87,1283.8622 1853.31,1265.2922 1935,1237.2522 C1954.94,1230.4022 1970.2344,1224.0258 1989.5844,1214.7058 " fill="none" id="Engine-to-NotifySvc" style="stroke:#181818;stroke-width:1.0;"/><polygon fill="#181818" points="1994.99,1212.1022,1985.1458,1212.4039,1990.4853,1214.2719,1988.6173,1219.6114,1994.99,1212.1022" style="stroke:#181818;stroke-width:1.0;"/><text fill="#000000" font-family="Segoe UI" font-size="13" lengthAdjust="spacing" textLength="85" x="1802.5" y="1233.2805">violation alerts</text></g><!--link Audit to ExecStore--><g id="link_Audit_ExecStore"><path d="M1666.65,1455.3522 C1753.81,1450.0822 1886.2709,1442.0735 1979.0909,1436.4735 " fill="none" id="Audit-to-ExecStore" style="stroke:#181818;stroke-width:1.0;"/><polygon fill="#181818" points="1985.08,1436.1122,1975.8554,1432.6614,1980.0891,1436.4133,1976.3372,1440.6469,1985.08,1436.1122" style="stroke:#181818;stroke-width:1.0;"/><text fill="#000000" font-family="Segoe UI" font-size="13" lengthAdjust="spacing" textLength="110" x="1790" y="1436.2805">write audit records</text></g><!--link NotifySvc to NotifyExt--><g id="link_NotifySvc_NotifyExt"><path d="M2171.26,1164.2522 C2241.71,1164.2522 2333.54,1164.2522 2398.94,1164.2522 " fill="none" id="NotifySvc-to-NotifyExt" style="stroke:#181818;stroke-width:1.0;"/><polygon fill="#181818" points="2404.94,1164.2522,2395.94,1160.2522,2399.94,1164.2522,2395.94,1168.2522,2404.94,1164.2522" style="stroke:#181818;stroke-width:1.0;"/><text fill="#000000" font-family="Segoe UI" font-size="13" lengthAdjust="spacing" textLength="140" x="2234" y="1160.2805">send email + create Jira</text></g><!--link LLM to LlmApi--><g id="link_LLM_LlmApi"><path d="M1698.94,1653.3122 C1717.66,1658.3622 1736.86,1663.4922 1755,1668.2522 C1836.44,1689.6322 1923.6999,1711.7141 1989.6799,1728.2441 " fill="none" id="LLM-to-LlmApi" style="stroke:#181818;stroke-width:1.0;"/><polygon fill="#181818" points="1995.5,1729.7022,1987.7419,1723.6349,1990.6499,1728.4871,1985.7977,1731.3951,1995.5,1729.7022" style="stroke:#181818;stroke-width:1.0;"/><text fill="#000000" font-family="Segoe UI" font-size="13" lengthAdjust="spacing" textLength="82" x="1804" y="1664.2805">inference calls</text></g><!--SRC=[dLTjRzks5lwkNq5am92WzTBrPTWri06AhReUx2IrdHO530YCHDkS9L8ZgIH6j_- -vr2o9BlfzSLDFjYYU0uVdfVdF7RIPO8DthAfJaN6UcmY7l3vkiy6MZakbJ1iAFdQy7oftWpPa3lEFfOyasx7tcDLF6gp3GAxbQhWU6RtFDckZIvLEj2PDko7zo7zTtQaOiNBpBt70TTmmEPYhGMx6tUs694uhjQ0zZLWR5PvCmJcvrTOkD8c5QRs_vzNuTimmYevhDTU__BczPjVWtywBddYyERhiVNRT-_2NzwUj2vmAxuMtzfVlRgA1kzezPjx-pzu2JAnSinfPkHwurWgwNPIgo2eCDrPt8jRTaPVbkhSnpXIQmGVBoxPLSWkb-hs1byN8jaWHJp5zv5-44PnbOYBio3O0ppxRfBEFFWsiYEXfF3d3Z-omOQxU-rOM1GrWdiZawsb1SjUi0biHeONcukbwlsNlwMwdh2FFuOmaSe9vHX2ugHQBrMY5G1RJbTdLbXBdxd8jTajLUCVST8POcGBxf8DBjQ5J34MAjs3tZy-1ne1caNpnKcufgJwdqNX8eB9tUqGNvPg_d727X2_b3k1gpX3nzX46x5KZqOwOHbNEkVPBaus8jd6kDnAhe_WJYPJ3vK-gtm2PjLeSs4U41KifuL6f2ZDNswc9-7MGKLHMXzK0heMQ8mgh1mmNQdygmveLXYHIbzqHn0_LPVKLG7EokuImDxkt0PkNp0wXmuLvYH4AvBIKENvo5WixC0aJt1YiPBpVM01PgdIiiXaGb5EXHFF8KGkZOQ91zWyZ63oo7TTY9zHuwjCFvu4g1yHhqkbLSz_QojqFWbnS2uLsjiUmQZorqOfUi8rVSoRp8RNDzDmyYKUHejei1ZVNCT_t5oT3XU2aiBZ9OWNcRtdLgJCb0g14_uCr5ecrHQhLP5PfbMsEuvIcKfNXSX_-v5zmXq8dg-qH7GZDHIPuwTBBSzBT1ISStAvzDrB7fr1to5WHn2kjPEhtVmXyJ3y4sMMB8PrEujEJTaArqaOXP7QbzCBb0ZAfKrNb7EPOVaFQJXpQ7pXggobn0I88wDCpHqrG9Ct_mWKpxKlUBHZF2_NQs5TQrylq8K677RmKbdRveMDa-gD3roy-airPH_NuKF6Ezl_j5eT7ak5rPxPbjaUU7MasA_7cKOeXkFHU15EOh1N65TrE8xcUnWfuhIBS-70ZlRmjA7k78Q7CaSHyeC3xmRiayxmWamFoKFG_1gdJzwwUaAzSOCXDKOJFHsoygVvoMHVZQBUz0qJ-Rr8KoJPqjYmr7XMvZBZlX2iFs6f6c1Wcb9jcQoEDEA-b9bZYgPjHdM3ooGRG1P7-0UpS1JjgOKUs8nY96Y9rij35kprM3jq_eU-HlWinbdHszO0ZSZWMr4p8igU8cc6qzXUywgc_og5sM6Z7p84V1eDntTJt_fBaC0EapnbAvvbfBDem-JcS_tMRN3WHcUOZwNJlMeEi08CbwBMvJ6n3iBHHFEqrXvuOhT6zAgb__lIPL5euqHQzPNzAGUO34HjQNJzYRD1OvXXsiz6kxDEG5iPdHUk7HmnkC91sjYVg3kMIccwHCy81CT2K3GvGccuCn9OnoGKFRblIQWcGY0vhvZZqZC7YherfsgTcuh1GhLZAB45jH0PIPLa9HKbyrq56YwTbIcIUQYVA1jEFBa3nvCi3mlPg87mTlnTAG0xhmXxlTzhZTRtMWgiwonxa9oAsR5p22sg5Yb8dtaPKqV8NWIL7NdOQwG-Ev9O2Mg8dN-UZKdla6weQQdMRGTEMXxjitaqmNJpE1e_dQq7hDdizgpO747CX-kJYsT0NGHxpEIFejMlfCTbBNJ49KfRa2GvsDbAcNwhtRxPr51MlsAP65UFAqOvhzll9JLjlFtjrvTi1I8HvhUlFkClqKT9x7Q5-ESYQ1sHsuP6-smbCEXOxiTTMZK-Bhj2ZREMi3nL7VbesAXVdL_R-W52L18q6mxpwcTNAa0hVVPXFFhmTqKPVuCObkf5pIL8AQkufU6KWxYqPD27ddInfI6Gn7KfdwFnppLEy6nIQ_V3F1tbtIUSPLflIvBYPO6AHelVxzZt9-E1ltqdzl4JmN6QLxW9VlSGbtlVkRHKHCDeFfYDho9SVRwucNs1r_7r-vlPDFGAR3xu44t3GwZTQXvVpwFPuhBI_RwBB3klfGc82Jql2tvKaeq8xQEWxtEehHNfvter29htnuULXQz9twiKuD8UxcqLLBznnrI7msmGr3hqsBMFJIqJmHFoGUpLOjUY3MejBRrTZ_HahTQxkribqcVrF2fTedF_uoUjVm21VhestIiyI9tLFqioP1_WAstwl6ylCcayOS3PeFNJUYLMHyWf3QAMVWdmmvPuF22cy8nHKIsHvaeOwWjFApRu5m00]--></g></svg>