<?xml version="1.0" encoding="us-ascii" standalone="no"?><svg xmlns="http://www.w3.org/2000/svg" xmlns:xlink="http://www.w3.org/1999/xlink" contentStyleType="text/css" height="1499px" preserveAspectRatio="none" style="width:4529px;height:1499px;background:#FAFAFA;" version="1.1" viewBox="0 0 4529 1499" width="4529px" zoomAndPan="magnify"><defs/><g><rect fill="#FAFAFA" height="1499" style="stroke:none;stroke-width:1.0;" width="4529" x="0" y="0"/><text fill="#000000" font-family="Segoe UI" font-size="14" font-weight="bold" lengthAdjust="spacing" textLength="339" x="2088" y="25.1074">3D Data Quality Framework - Component Diagram</text><text fill="#000000" font-family="Segoe UI" font-size="14" font-weight="bold" lengthAdjust="spacing" textLength="380" x="2067.5" y="43.7285">DQ Chatbot App (LangGraph) + DQ Backend App (Write)</text><!--cluster DQ Chatbot App  (Databricks Apps + LangGraph)--><g id="cluster_DQ Chatbot App  (Databricks Apps + LangGraph)"><path d="M680.5,353.2422 L1009.5,353.2422 A3.75,3.75 0 0 1 1012,355.7422 L1019,377.8633 L1918.5,377.8633 A2.5,2.5 0 0 1 1921,380.3633 L1921,609.7422 A2.5,2.5 0 0 1 1918.5,612.2422 L680.5,612.2422 A2.5,2.5 0 0 1 678,609.7422 L678,355.7422 A2.5,2.5 0 0 1 680.5,353.2422 " fill="#E3F2FD" style="stroke:#B0BEC5;stroke-width:1.5;"/><line style="stroke:#B0BEC5;stroke-width:1.5;" x1="678" x2="1019" y1="377.8633" y2="377.8633"/><text fill="#000000" font-family="Segoe UI" font-size="14" font-weight="bold" lengthAdjust="spacing" textLength="328" x="682" y="370.3496">DQ Chatbot App  (Databricks Apps + LangGraph)</text></g><!--cluster DQ Backend App  (Databricks App / REST)--><g id="cluster_DQ Backend App  (Databricks App / REST)"><path d="M1675.5,686.2422 L1957.5,686.2422 A3.75,3.75 0 0 1 1960,688.7422 L1967,710.8633 L4028,710.8633 A2.5,2.5 0 0 1 4030.5,713.3633 L4030.5,1165.7422 A2.5,2.5 0 0 1 4028,1168.2422 L1675.5,1168.2422 A2.5,2.5 0 0 1 1673,1165.7422 L1673,688.7422 A2.5,2.5 0 0 1 1675.5,686.2422 " fill="#E8F5E9" style="stroke:#B0BEC5;stroke-width:1.5;"/><line style="stroke:#B0BEC5;stroke-width:1.5;" x1="1673" x2="1967" y1="710.8633" y2="710.8633"/><text fill="#000000" font-family="Segoe UI" font-size="14" font-weight="bold" lengthAdjust="spacing" textLength="281" x="1677" y="703.3496">DQ Backend App  (Databricks App / REST)</text></g><!--entity ChatIface--><g id="elem_ChatIface"><rect fill="#F1F1F1" height="75.8633" rx="5" ry="5" style="stroke:#90A4AE;stroke-width:0.5;" width="177" x="694" y="492.2422"/><text fill="#263238" font-family="Segoe UI" font-size="14" lengthAdjust="spacing" textLength="86" x="704" y="517.3496">Chat Interface</text><text fill="#263238" font-family="Segoe UI" font-size="14" lengthAdjust="spacing" textLength="157" x="704" y="535.9707">UI rendering, NL answers,</text><text fill="#263238" font-family="Segoe UI" font-size="14" lengthAdjust="spacing" textLength="138" x="704" y="554.5918">SQL diff, status display</text></g><!--entity SessionMgr--><g id="elem_SessionMgr"><rect fill="#F1F1F1" height="57.2422" rx="5" ry="5" style="stroke:#90A4AE;stroke-width:0.5;" width="176" x="1098.5" y="538.7422"/><text fill="#263238" font-family="Segoe UI" font-size="14" lengthAdjust="spacing" textLength="104" x="1108.5" y="563.8496">Session Manager</text><text fill="#263238" font-family="Segoe UI" font-size="14" lengthAdjust="spacing" textLength="156" x="1108.5" y="582.4707">context per user / session</text></g><!--entity IntentRouter--><g id="elem_IntentRouter"><rect fill="#F1F1F1" height="113.1055" rx="5" ry="5" style="stroke:#90A4AE;stroke-width:0.5;" width="295" x="1039" y="390.7422"/><text fill="#263238" font-family="Segoe UI" font-size="14" lengthAdjust="spacing" textLength="82" x="1049" y="415.8496">Intent Router</text><text fill="#263238" font-family="Segoe UI" font-size="14" lengthAdjust="spacing" textLength="275" x="1049" y="434.4707">[LLM classifies READ / WRITE / AMBIGUOUS]</text><text fill="#263238" font-family="Segoe UI" font-size="14" lengthAdjust="spacing" textLength="253" x="1049" y="453.0918">READ  -&gt; Rule Browser (SELECT on Delta)</text><text fill="#263238" font-family="Segoe UI" font-size="14" lengthAdjust="spacing" textLength="213" x="1049" y="471.7129">WRITE -&gt; invoke UC Function Tool</text><text fill="#263238" font-family="Segoe UI" font-size="14" lengthAdjust="spacing" textLength="206" x="1081" y="490.334">-&gt; DQ Backend App (HTTP POST)</text></g><!--entity RuleBrowser--><g id="elem_RuleBrowser"><rect fill="#F1F1F1" height="75.8633" rx="5" ry="5" style="stroke:#90A4AE;stroke-width:0.5;" width="182" x="1723" y="395.2422"/><text fill="#263238" font-family="Segoe UI" font-size="14" lengthAdjust="spacing" textLength="79" x="1733" y="420.3496">Rule Browser</text><text fill="#263238" font-family="Segoe UI" font-size="14" lengthAdjust="spacing" textLength="124" x="1733" y="438.9707">search rules, history,</text><text fill="#263238" font-family="Segoe UI" font-size="14" lengthAdjust="spacing" textLength="162" x="1733" y="457.5918">execution metrics (SELECT)</text></g><!--entity SqlGenerator--><g id="elem_SqlGenerator"><rect fill="#F1F1F1" height="75.8633" rx="5" ry="5" style="stroke:#90A4AE;stroke-width:0.5;" width="250" x="1689" y="852.2422"/><text fill="#263238" font-family="Segoe UI" font-size="14" lengthAdjust="spacing" textLength="91" x="1699" y="877.3496">SQL Generator</text><text fill="#263238" font-family="Segoe UI" font-size="14" lengthAdjust="spacing" textLength="230" x="1699" y="895.9707">pattern-based SQL creation with LLM</text><text fill="#263238" font-family="Segoe UI" font-size="14" lengthAdjust="spacing" textLength="167" x="1699" y="914.5918">(grounded by RAG context)</text></g><!--entity CheckSuggestionResolver--><g id="elem_CheckSuggestionResolver"><rect fill="#F1F1F1" height="94.4844" rx="5" ry="5" style="stroke:#90A4AE;stroke-width:0.5;" width="219" x="1704.5" y="723.2422"/><text fill="#263238" font-family="Segoe UI" font-size="14" lengthAdjust="spacing" textLength="164" x="1714.5" y="748.3496">Check Suggestion Resolver</text><text fill="#263238" font-family="Segoe UI" font-size="14" lengthAdjust="spacing" textLength="150" x="1714.5" y="766.9707">enforce table_fqn format</text><text fill="#263238" font-family="Segoe UI" font-size="14" lengthAdjust="spacing" textLength="199" x="1714.5" y="785.5918">cache lookup by schema_version</text><text fill="#263238" font-family="Segoe UI" font-size="14" lengthAdjust="spacing" textLength="166" x="1714.5" y="804.2129">fallback generation on miss</text></g><!--entity TableMetadataReader--><g id="elem_TableMetadataReader"><rect fill="#F1F1F1" height="75.8633" rx="5" ry="5" style="stroke:#90A4AE;stroke-width:0.5;" width="245" x="2245.5" y="723.2422"/><text fill="#263238" font-family="Segoe UI" font-size="14" lengthAdjust="spacing" textLength="141" x="2255.5" y="748.3496">Table Metadata Reader</text><text fill="#263238" font-family="Segoe UI" font-size="14" lengthAdjust="spacing" textLength="200" x="2255.5" y="766.9707">DESCRIBE HISTORY max(version)</text><text fill="#263238" font-family="Segoe UI" font-size="14" lengthAdjust="spacing" textLength="225" x="2255.5" y="785.5918">INFORMATION_SCHEMA.COLUMNS</text></g><!--entity SecurityGuard--><g id="elem_SecurityGuard"><rect fill="#F1F1F1" height="75.8633" rx="5" ry="5" style="stroke:#90A4AE;stroke-width:0.5;" width="190" x="2273" y="983.2422"/><text fill="#263238" font-family="Segoe UI" font-size="14" lengthAdjust="spacing" textLength="90" x="2283" y="1008.3496">Security Guard</text><text fill="#263238" font-family="Segoe UI" font-size="14" lengthAdjust="spacing" textLength="157" x="2283" y="1026.9707">SELECT-only enforcement</text><text fill="#263238" font-family="Segoe UI" font-size="14" lengthAdjust="spacing" textLength="170" x="2283" y="1045.5918">block injection / DDL / DML</text></g><!--entity SqlValidator--><g id="elem_SqlValidator"><rect fill="#F1F1F1" height="57.2422" rx="5" ry="5" style="stroke:#90A4AE;stroke-width:0.5;" width="166" x="1731" y="1058.7422"/><text fill="#263238" font-family="Segoe UI" font-size="14" lengthAdjust="spacing" textLength="84" x="1741" y="1083.8496">SQL Validator</text><text fill="#263238" font-family="Segoe UI" font-size="14" lengthAdjust="spacing" textLength="146" x="1741" y="1102.4707">syntax + schema + cost</text></g><!--entity DupDetector--><g id="elem_DupDetector"><rect fill="#F1F1F1" height="57.2422" rx="5" ry="5" style="stroke:#90A4AE;stroke-width:0.5;" width="241" x="2247.5" y="1094.7422"/><text fill="#263238" font-family="Segoe UI" font-size="14" lengthAdjust="spacing" textLength="114" x="2257.5" y="1119.8496">Duplicate Detector</text><text fill="#263238" font-family="Segoe UI" font-size="14" lengthAdjust="spacing" textLength="221" x="2257.5" y="1138.4707">semantic / structural similarity check</text></g><!--entity MetadataPrompter--><g id="elem_MetadataPrompter"><rect fill="#F1F1F1" height="57.2422" rx="5" ry="5" style="stroke:#90A4AE;stroke-width:0.5;" width="247" x="2843" y="906.7422"/><text fill="#263238" font-family="Segoe UI" font-size="14" lengthAdjust="spacing" textLength="121" x="2853" y="931.8496">Metadata Prompter</text><text fill="#263238" font-family="Segoe UI" font-size="14" lengthAdjust="spacing" textLength="227" x="2853" y="950.4707">owner, frequency, priority, thresholds</text></g><!--entity TrendScorer--><g id="elem_TrendScorer"><rect fill="#F1F1F1" height="57.2422" rx="5" ry="5" style="stroke:#90A4AE;stroke-width:0.5;" width="244" x="3381.5" y="884.7422"/><text fill="#263238" font-family="Segoe UI" font-size="14" lengthAdjust="spacing" textLength="77" x="3391.5" y="909.8496">Trend Scorer</text><text fill="#263238" font-family="Segoe UI" font-size="14" lengthAdjust="spacing" textLength="224" x="3391.5" y="928.4707">pass/fail prediction from last 30 days</text></g><!--entity RuleSubmitter--><g id="elem_RuleSubmitter"><rect fill="#F1F1F1" height="75.8633" rx="5" ry="5" style="stroke:#90A4AE;stroke-width:0.5;" width="118" x="3896.5" y="875.2422"/><text fill="#263238" font-family="Segoe UI" font-size="14" lengthAdjust="spacing" textLength="90" x="3906.5" y="900.3496">Rule Submitter</text><text fill="#263238" font-family="Segoe UI" font-size="14" lengthAdjust="spacing" textLength="96" x="3906.5" y="918.9707">INSERT to Delta</text><text fill="#263238" font-family="Segoe UI" font-size="14" lengthAdjust="spacing" textLength="98" x="3906.5" y="937.5918">trigger approval</text></g><!--entity RAGRetriever--><g id="elem_RAGRetriever"><rect fill="#F1F1F1" height="113.1055" rx="5" ry="5" style="stroke:#90A4AE;stroke-width:0.5;" width="284" x="2226" y="834.7422"/><text fill="#263238" font-family="Segoe UI" font-size="14" lengthAdjust="spacing" textLength="137" x="2236" y="859.8496">RAG Context Retriever</text><text fill="#263238" font-family="Segoe UI" font-size="14" lengthAdjust="spacing" textLength="264" x="2236" y="878.4707">query formulation (entities -&gt; query string)</text><text fill="#263238" font-family="Segoe UI" font-size="14" lengthAdjust="spacing" textLength="239" x="2236" y="897.0918">embed + top-k search via Vector Index</text><text fill="#263238" font-family="Segoe UI" font-size="14" lengthAdjust="spacing" textLength="187" x="2236" y="915.7129">assemble LLM context window</text><text fill="#263238" font-family="Segoe UI" font-size="14" lengthAdjust="spacing" textLength="262" x="2236" y="934.334">(contract + template + few-shot examples)</text></g><!--entity User--><g id="elem_User"><ellipse cx="198" cy="491.2422" fill="#F1F1F1" rx="8" ry="8" style="stroke:#455A64;stroke-width:0.5;"/><path d="M198,499.2422 L198,526.2422 M185,507.2422 L211,507.2422 M198,526.2422 L185,541.2422 M198,526.2422 L211,541.2422 " fill="none" style="stroke:#455A64;stroke-width:0.5;"/><text fill="#263238" font-family="Segoe UI" font-size="14" lengthAdjust="spacing" textLength="28" x="106.5" y="557.8496">User</text><text fill="#263238" font-family="Segoe UI" font-size="14" lengthAdjust="spacing" textLength="183" x="106.5" y="576.4707">(Data Engineer / BA / PO / TL)</text></g><!--entity LLMEngine--><g id="elem_LLMEngine"><rect fill="#F1F1F1" height="75.8633" rx="5" ry="5" style="stroke:#90A4AE;stroke-width:0.5;" width="235" x="3838" y="575.2422"/><text fill="#263238" font-family="Segoe UI" font-size="14" lengthAdjust="spacing" textLength="72" x="3848" y="600.3496">LLM Engine</text><text fill="#263238" font-family="Segoe UI" font-size="14" lengthAdjust="spacing" textLength="155" x="3848" y="618.9707">(Model Serving Endpoint)</text><text fill="#263238" font-family="Segoe UI" font-size="14" lengthAdjust="spacing" textLength="215" x="3848" y="637.5918">NLP, SQL generation, trend scoring</text></g><!--entity RuleStore--><g id="elem_RuleStore"><path d="M4359,807.7422 C4359,797.7422 4433,797.7422 4433,797.7422 C4433,797.7422 4507,797.7422 4507,807.7422 L4507,872.6055 C4507,882.6055 4433,882.6055 4433,882.6055 C4433,882.6055 4359,882.6055 4359,872.6055 L4359,807.7422 " fill="#F1F1F1" style="stroke:#181818;stroke-width:0.5;"/><path d="M4359,807.7422 C4359,817.7422 4433,817.7422 4433,817.7422 C4433,817.7422 4507,817.7422 4507,807.7422 " fill="none" style="stroke:#181818;stroke-width:0.5;"/><text fill="#000000" font-family="Segoe UI" font-size="14" lengthAdjust="spacing" textLength="62" x="4369" y="836.8496">Rule Store</text><text fill="#000000" font-family="Segoe UI" font-size="14" lengthAdjust="spacing" textLength="72" x="4369" y="855.4707">(Delta Lake)</text><text fill="#000000" font-family="Segoe UI" font-size="14" lengthAdjust="spacing" textLength="128" x="4369" y="874.0918">anomal_check_config</text></g><!--entity SuggestCache--><g id="elem_SuggestCache"><path d="M2273,452.7422 C2273,442.7422 2368,442.7422 2368,442.7422 C2368,442.7422 2463,442.7422 2463,452.7422 L2463,536.2266 C2463,546.2266 2368,546.2266 2368,546.2266 C2368,546.2266 2273,546.2266 2273,536.2266 L2273,452.7422 " fill="#F1F1F1" style="stroke:#181818;stroke-width:0.5;"/><path d="M2273,452.7422 C2273,462.7422 2368,462.7422 2368,462.7422 C2368,462.7422 2463,462.7422 2463,452.7422 " fill="none" style="stroke:#181818;stroke-width:0.5;"/><text fill="#000000" font-family="Segoe UI" font-size="14" lengthAdjust="spacing" textLength="109" x="2283" y="481.8496">Suggestion Cache</text><text fill="#000000" font-family="Segoe UI" font-size="14" lengthAdjust="spacing" textLength="161" x="2283" y="500.4707">(check_suggestions_cache)</text><text fill="#000000" font-family="Segoe UI" font-size="14" lengthAdjust="spacing" textLength="170" x="2283" y="519.0918">table_fqn + schema_version</text><text fill="#000000" font-family="Segoe UI" font-size="14" lengthAdjust="spacing" textLength="104" x="2283" y="537.7129">suggestions_json</text></g><!--entity DocStore--><g id="elem_DocStore"><path d="M3359,1304.7422 C3359,1294.7422 3503.5,1294.7422 3503.5,1294.7422 C3503.5,1294.7422 3648,1294.7422 3648,1304.7422 L3648,1388.2266 C3648,1398.2266 3503.5,1398.2266 3503.5,1398.2266 C3503.5,1398.2266 3359,1398.2266 3359,1388.2266 L3359,1304.7422 " fill="#F1F1F1" style="stroke:#181818;stroke-width:0.5;"/><path d="M3359,1304.7422 C3359,1314.7422 3503.5,1314.7422 3503.5,1314.7422 C3503.5,1314.7422 3648,1314.7422 3648,1304.7422 " fill="none" style="stroke:#181818;stroke-width:0.5;"/><text fill="#000000" font-family="Segoe UI" font-size="14" lengthAdjust="spacing" textLength="131" x="3369" y="1333.8496">Documentation Store</text><text fill="#000000" font-family="Segoe UI" font-size="14" lengthAdjust="spacing" textLength="84" x="3369" y="1352.4707">(UC Volumes)</text><text fill="#000000" font-family="Segoe UI" font-size="14" lengthAdjust="spacing" textLength="219" x="3369" y="1371.0918">data_contracts/ . supported_checks/</text><text fill="#000000" font-family="Segoe UI" font-size="14" lengthAdjust="spacing" textLength="269" x="3369" y="1389.7129">sql_patterns/ . examples/ . domain_glossary/</text></g><!--entity UCMeta--><g id="elem_UCMeta"><path d="M2854.5,1194.7422 C2854.5,1184.7422 2966.5,1184.7422 2966.5,1184.7422 C2966.5,1184.7422 3078.5,1184.7422 3078.5,1194.7422 L3078.5,1259.6055 C3078.5,1269.6055 2966.5,1269.6055 2966.5,1269.6055 C2966.5,1269.6055 2854.5,1269.6055 2854.5,1259.6055 L2854.5,1194.7422 " fill="#F1F1F1" style="stroke:#181818;stroke-width:0.5;"/><path d="M2854.5,1194.7422 C2854.5,1204.7422 2966.5,1204.7422 2966.5,1204.7422 C2966.5,1204.7422 3078.5,1204.7422 3078.5,1194.7422 " fill="none" style="stroke:#181818;stroke-width:0.5;"/><text fill="#000000" font-family="Segoe UI" font-size="14" lengthAdjust="spacing" textLength="118" x="2864.5" y="1223.8496">UC Table Metadata</text><text fill="#000000" font-family="Segoe UI" font-size="14" lengthAdjust="spacing" textLength="173" x="2864.5" y="1242.4707">(INFORMATION_SCHEMA +</text><text fill="#000000" font-family="Segoe UI" font-size="14" lengthAdjust="spacing" textLength="204" x="2864.5" y="1261.0918">DESCRIBE HISTORY max(version))</text></g><!--entity VectorIdx--><g id="elem_VectorIdx"><rect fill="#F1F1F1" height="94.4844" rx="5" ry="5" style="stroke:#90A4AE;stroke-width:0.5;" width="225" x="2854" y="1305.2422"/><text fill="#263238" font-family="Segoe UI" font-size="14" lengthAdjust="spacing" textLength="121" x="2864" y="1330.3496">Vector Search Index</text><text fill="#263238" font-family="Segoe UI" font-size="14" lengthAdjust="spacing" textLength="157" x="2864" y="1348.9707">(Databricks VS / BGE-M3)</text><text fill="#263238" font-family="Segoe UI" font-size="14" lengthAdjust="spacing" textLength="205" x="2864" y="1367.5918">embeds + cosine similarity search</text><text fill="#263238" font-family="Segoe UI" font-size="14" lengthAdjust="spacing" textLength="128" x="2864" y="1386.2129">top-k chunk retrieval</text></g><!--entity ApprovalSvc--><g id="elem_ApprovalSvc"><rect fill="#F1F1F1" height="75.8633" rx="5" ry="5" style="stroke:#90A4AE;stroke-width:0.5;" width="180" x="4343" y="918.2422"/><text fill="#263238" font-family="Segoe UI" font-size="14" lengthAdjust="spacing" textLength="112" x="4353" y="943.3496">Approval Gateway</text><text fill="#263238" font-family="Segoe UI" font-size="14" lengthAdjust="spacing" textLength="97" x="4353" y="961.9707">(Python service)</text><text fill="#263238" font-family="Segoe UI" font-size="14" lengthAdjust="spacing" textLength="160" x="4353" y="980.5918">owner/non-owner routing</text></g><!--entity ValidatorSvc--><g id="elem_ValidatorSvc"><rect fill="#F1F1F1" height="75.8633" rx="5" ry="5" style="stroke:#90A4AE;stroke-width:0.5;" width="173" x="1100" y="1091.2422"/><text fill="#263238" font-family="Segoe UI" font-size="14" lengthAdjust="spacing" textLength="131" x="1110" y="1116.3496">Rule Validator Service</text><text fill="#263238" font-family="Segoe UI" font-size="14" lengthAdjust="spacing" textLength="52" x="1110" y="1134.9707">(Python)</text><text fill="#263238" font-family="Segoe UI" font-size="14" lengthAdjust="spacing" textLength="153" x="1110" y="1153.5918">security + SQL validation</text></g><g id="elem_NoteGenie"><path d="M6,195.2422 L6,447.3164 L390,447.3164 L390,205.2422 L380,195.2422 L6,195.2422 " fill="#FEFFDD" style="stroke:#181818;stroke-width:0.5;"/><path d="M380,195.2422 L380,205.2422 L390,205.2422 L380,195.2422 " fill="#FEFFDD" style="stroke:#181818;stroke-width:1.0;"/><text fill="#000000" font-family="Segoe UI" font-size="13" lengthAdjust="spacing" textLength="100" x="12" y="214.2705">DQ Chatbot App:</text><text fill="#000000" font-family="Segoe UI" font-size="13" lengthAdjust="spacing" textLength="363" x="12" y="231.5615">LangGraph orchestrates tool calls for read + write operations.</text><text fill="#000000" font-family="Segoe UI" font-size="13" lengthAdjust="spacing" textLength="201" x="12" y="248.8525">Executes SELECT via Unity Catalog.</text><text fill="#000000" font-family="Segoe UI" font-size="13" lengthAdjust="spacing" textLength="4" x="12" y="266.1436">&#160;</text><text fill="#000000" font-family="Segoe UI" font-size="13" lengthAdjust="spacing" textLength="226" x="12" y="283.4346">For table-suggestion queries on tables</text><text fill="#000000" font-family="Segoe UI" font-size="13" lengthAdjust="spacing" textLength="338" x="12" y="300.7256">LangGraph routes all write/suggest intents to DQ Backend</text><text fill="#000000" font-family="Segoe UI" font-size="13" lengthAdjust="spacing" textLength="122" x="12" y="318.0166">via UC Function Tool.</text><text fill="#000000" font-family="Segoe UI" font-size="13" lengthAdjust="spacing" textLength="4" x="12" y="335.3076">&#160;</text><text fill="#000000" font-family="Segoe UI" font-size="13" lengthAdjust="spacing" textLength="245" x="12" y="352.5986">For WRITE intent: LLM selects a registered</text><text fill="#000000" font-family="Segoe UI" font-size="13" lengthAdjust="spacing" textLength="250" x="12" y="369.8896">UC Function Tool (dq_backend.create_rule).</text><text fill="#000000" font-family="Segoe UI" font-size="13" lengthAdjust="spacing" textLength="232" x="12" y="387.1807">LangGraph dispatches tool calls directly</text><text fill="#000000" font-family="Segoe UI" font-size="13" lengthAdjust="spacing" textLength="221" x="12" y="404.4717">which HTTP-calls the DQ Backend App</text><text fill="#000000" font-family="Segoe UI" font-size="13" lengthAdjust="spacing" textLength="207" x="12" y="421.7627">(Databricks App / service principal).</text><text fill="#000000" font-family="Segoe UI" font-size="13" lengthAdjust="spacing" textLength="188" x="12" y="439.0537">User sees only the NL response.</text></g><g id="elem_NoteBackend"><path d="M84,64.2422 L84,160.6973 L312,160.6973 L312,74.2422 L302,64.2422 L84,64.2422 " fill="#FEFFDD" style="stroke:#181818;stroke-width:0.5;"/><path d="M302,64.2422 L302,74.2422 L312,74.2422 L302,64.2422 " fill="#FEFFDD" style="stroke:#181818;stroke-width:1.0;"/><text fill="#000000" font-family="Segoe UI" font-size="13" lengthAdjust="spacing" textLength="102" x="90" y="83.2705">DQ Backend App:</text><text fill="#000000" font-family="Segoe UI" font-size="13" lengthAdjust="spacing" textLength="176" x="90" y="100.5615">Runs as Databricks App under</text><text fill="#000000" font-family="Segoe UI" font-size="13" lengthAdjust="spacing" textLength="207" x="90" y="117.8525">service principal with WRITE access.</text><text fill="#000000" font-family="Segoe UI" font-size="13" lengthAdjust="spacing" textLength="184" x="90" y="135.1436">User identity passed in payload</text><text fill="#000000" font-family="Segoe UI" font-size="13" lengthAdjust="spacing" textLength="100" x="90" y="152.4346">for full audit trail.</text></g><!--link User to ChatIface--><g id="link_User_ChatIface"><path d="M289.7,531.0922 C400.02,530.9022 578.96,530.5927 687.88,530.4027 " fill="none" id="User-to-ChatIface" style="stroke:#181818;stroke-width:1.0;"/><polygon fill="#181818" points="693.88,530.3922,684.873,526.4079,688.88,530.4009,684.887,534.4079,693.88,530.3922" style="stroke:#181818;stroke-width:1.0;"/><text fill="#000000" font-family="Segoe UI" font-size="13" lengthAdjust="spacing" textLength="189" x="446.5" y="527.2705">types request / reads responses</text></g><!--link ChatIface to User--><g id="link_ChatIface_User"><path d="M693.8,553.2122 C683.15,555.2822 672.37,557.0422 662,558.2422 C533.22,573.1322 389.2444,559.4269 295.7044,546.6069 " fill="none" id="ChatIface-to-User" style="stroke:#181818;stroke-width:1.0;"/><polygon fill="#181818" points="289.76,545.7922,298.1335,550.9772,294.7137,546.4711,299.2198,543.0513,289.76,545.7922" style="stroke:#181818;stroke-width:1.0;"/><text fill="#000000" font-family="Segoe UI" font-size="13" lengthAdjust="spacing" textLength="240" x="421" y="554.2705">show NL answer, SQL, trend score, status</text></g><!--link ChatIface to SessionMgr--><g id="link_ChatIface_SessionMgr"><path d="M871.22,538.3222 C938.57,544.5122 1025.1253,552.4819 1092.3353,558.6719 " fill="none" id="ChatIface-to-SessionMgr" style="stroke:#181818;stroke-width:1.0;"/><polygon fill="#181818" points="1098.31,559.2222,1089.7148,554.4136,1093.3311,558.7636,1088.9811,562.3799,1098.31,559.2222" style="stroke:#181818;stroke-width:1.0;"/><text fill="#000000" font-family="Segoe UI" font-size="13" lengthAdjust="spacing" textLength="106" x="902" y="537.2705">read/write context</text></g><!--link ChatIface to IntentRouter--><g id="link_ChatIface_IntentRouter"><path d="M871.22,512.1322 C920.2,502.0222 976.6239,490.3653 1032.8139,478.7653 " fill="none" id="ChatIface-to-IntentRouter" style="stroke:#181818;stroke-width:1.0;"/><polygon fill="#181818" points="1038.69,477.5522,1029.0671,475.4544,1033.7933,478.5631,1030.6846,483.2892,1038.69,477.5522" style="stroke:#181818;stroke-width:1.0;"/><text fill="#000000" font-family="Segoe UI" font-size="13" lengthAdjust="spacing" textLength="81" x="914.5" y="480.2705">send NL input</text></g><!--link IntentRouter to LLMEngine--><g id="link_IntentRouter_LLMEngine"><path d="M1334.24,399.3922 C1459.9,362.6822 1646.4,318.2422 1813,318.2422 C1813,318.2422 1813,318.2422 3504.5,318.2422 C3689.7,318.2422 3854.0901,490.5518 3920.5701,570.3718 " fill="none" id="IntentRouter-to-LLMEngine" style="stroke:#181818;stroke-width:1.0;"/><polygon fill="#181818" points="3924.41,574.9822,3921.7238,565.5067,3921.2101,571.1402,3915.5766,570.6265,3924.41,574.9822" style="stroke:#181818;stroke-width:1.0;"/><text fill="#000000" font-family="Segoe UI" font-size="13" lengthAdjust="spacing" textLength="171" x="2591" y="314.2705">classify intent (READ / WRITE)</text></g><!--link IntentRouter to RuleBrowser--><g id="link_IntentRouter_RuleBrowser"><path d="M1334.15,443.9622 C1454.58,441.2622 1615.2815,437.6662 1716.8915,435.3962 " fill="none" id="IntentRouter-to-RuleBrowser" style="stroke:#181818;stroke-width:1.0;"/><polygon fill="#181818" points="1722.89,435.2622,1713.8029,431.4642,1717.8912,435.3739,1713.9816,439.4622,1722.89,435.2622" style="stroke:#181818;stroke-width:1.0;"/><text fill="#000000" font-family="Segoe UI" font-size="13" lengthAdjust="spacing" textLength="169" x="1426" y="433.2705">[READ intent] browse / query</text></g><!--link IntentRouter to SqlGenerator--><g id="link_IntentRouter_SqlGenerator"><path d="M1318.59,504.0122 C1324.28,509.2922 1329.48,515.0222 1334,521.2422 C1385.05,591.4522 1309.9,646.3522 1364,714.2422 C1442.98,813.3622 1579.6484,855.72 1682.9884,874.67 " fill="none" id="IntentRouter-to-SqlGenerator" style="stroke:#181818;stroke-width:1.0;"/><polygon fill="#181818" points="1688.89,875.7522,1680.7591,870.1945,1683.972,874.8503,1679.3161,878.0633,1688.89,875.7522" style="stroke:#181818;stroke-width:1.0;"/><text fill="#000000" font-family="Segoe UI" font-size="13" lengthAdjust="spacing" textLength="291" x="1365" y="710.2705">[WRITE intent] invoke UC tool -&gt; DQ Backend App</text></g><!--link IntentRouter to CheckSuggestionResolver--><g id="link_IntentRouter_CheckSuggestionResolver"><path d="M1299.95,503.8722 C1311.46,509.7222 1322.97,515.5922 1334,521.2422 C1469.96,590.9122 1621.6539,670.0303 1717.7939,720.3403 " fill="none" id="IntentRouter-to-CheckSuggestionResolver" style="stroke:#181818;stroke-width:1.0;"/><polygon fill="#181818" points="1723.11,723.1222,1716.9905,715.4052,1718.6799,720.8039,1713.2812,722.4934,1723.11,723.1222" style="stroke:#181818;stroke-width:1.0;"/><text fill="#000000" font-family="Segoe UI" font-size="13" lengthAdjust="spacing" textLength="162" x="1429.5" y="520.2705">[TABLE_SUGGESTION intent]</text><text fill="#000000" font-family="Segoe UI" font-size="13" lengthAdjust="spacing" textLength="206" x="1407.5" y="537.5615">invoke UC tool -&gt; DQ Backend App</text></g><!--link RuleBrowser to RuleStore--><g id="link_RuleBrowser_RuleStore"><path d="M1905.18,421.6222 C2014.33,408.5922 2203.81,389.2422 2367,389.2422 C2367,389.2422 2367,389.2422 3956.5,389.2422 C4192.31,389.2422 4355.3341,679.4325 4409.8741,792.0125 " fill="none" id="RuleBrowser-to-RuleStore" style="stroke:#181818;stroke-width:1.0;"/><polygon fill="#181818" points="4412.49,797.4122,4412.1659,787.5687,4410.3101,792.9124,4404.9663,791.0566,4412.49,797.4122" style="stroke:#181818;stroke-width:1.0;"/><text fill="#000000" font-family="Segoe UI" font-size="13" lengthAdjust="spacing" textLength="110" x="3169.5" y="385.2705">SELECT (read-only)</text></g><!--link RuleBrowser to SuggestCache--><g id="link_RuleBrowser_SuggestCache"><path d="M1905.14,441.8022 C1982.39,449.3022 2096.59,460.7622 2196,472.2422 C2220.98,475.1322 2242.0188,477.7284 2267.0288,480.9384 " fill="none" id="RuleBrowser-to-SuggestCache" style="stroke:#181818;stroke-width:1.0;"/><polygon fill="#181818" points="2272.98,481.7022,2264.5624,476.589,2268.0207,481.0657,2263.544,484.5239,2272.98,481.7022" style="stroke:#181818;stroke-width:1.0;"/><text fill="#000000" font-family="Segoe UI" font-size="13" lengthAdjust="spacing" textLength="194" x="1985.5" y="444.2705">SELECT cached table suggestions</text></g><!--link CheckSuggestionResolver to TableMetadataReader--><g id="link_CheckSuggestionResolver_TableMetadataReader"><path d="M1923.73,768.4722 C2016.23,766.9622 2142.9708,764.9002 2239.0608,763.3302 " fill="none" id="CheckSuggestionResolver-to-TableMetadataReader" style="stroke:#181818;stroke-width:1.0;"/><polygon fill="#181818" points="2245.06,763.2322,2235.9959,759.3798,2240.0607,763.3139,2236.1265,767.3787,2245.06,763.2322" style="stroke:#181818;stroke-width:1.0;"/><text fill="#000000" font-family="Segoe UI" font-size="13" lengthAdjust="spacing" textLength="186" x="1989.5" y="760.2705">read schema version + columns</text></g><!--link TableMetadataReader to UCMeta--><g id="link_TableMetadataReader_UCMeta"><path d="M2490.65,798.2222 C2497.92,803.7122 2504.5,810.0122 2510,817.2422 C2585.22,916.1622 2461.02,999.3022 2540,1095.2422 C2616.07,1187.6522 2749.6818,1216.0612 2848.1918,1224.4812 " fill="none" id="TableMetadataReader-to-UCMeta" style="stroke:#181818;stroke-width:1.0;"/><polygon fill="#181818" points="2854.17,1224.9922,2845.5433,1220.2403,2849.1882,1224.5664,2844.862,1228.2112,2854.17,1224.9922" style="stroke:#181818;stroke-width:1.0;"/><text fill="#000000" font-family="Segoe UI" font-size="13" lengthAdjust="spacing" textLength="271" x="2541" y="1091.2705">DESCRIBE HISTORY + INFORMATION_SCHEMA</text></g><!--link CheckSuggestionResolver to SuggestCache--><g id="link_CheckSuggestionResolver_SuggestCache"><path d="M1858.28,723.2222 C1884.26,693.1622 1916.53,652.4122 1939,612.2422 C1957.74,578.7422 1938.54,554.6122 1969,531.2422 C1992.57,513.1622 2156.716,502.9807 2266.776,498.0507 " fill="none" id="CheckSuggestionResolver-to-SuggestCache" style="stroke:#181818;stroke-width:1.0;"/><polygon fill="#181818" points="2272.77,497.7822,2263.6,494.1889,2267.775,498.0059,2263.958,502.1809,2272.77,497.7822" style="stroke:#181818;stroke-width:1.0;"/><text fill="#000000" font-family="Segoe UI" font-size="13" lengthAdjust="spacing" textLength="225" x="1970" y="498.2705">SELECT by table_fqn + schema_version</text></g><!--link CheckSuggestionResolver to SuggestCache--><g id="link_CheckSuggestionResolver_SuggestCache"><path d="M1849.24,723.0522 C1884.88,675.3522 1939.52,606.4122 1969,590.2422 C2058.34,541.2622 2097.26,583.3622 2196,558.2422 C2221.34,551.8022 2242.4858,544.9522 2267.1358,535.7922 " fill="none" id="CheckSuggestionResolver-to-SuggestCache-1" style="stroke:#181818;stroke-width:1.0;"/><polygon fill="#181818" points="2272.76,533.7022,2262.9303,533.0877,2268.0731,535.4438,2265.717,540.5866,2272.76,533.7022" style="stroke:#181818;stroke-width:1.0;"/><text fill="#000000" font-family="Segoe UI" font-size="13" lengthAdjust="spacing" textLength="179" x="1993" y="554.2705">UPSERT refreshed suggestions</text></g><!--link CheckSuggestionResolver to RAGRetriever--><g id="link_CheckSuggestionResolver_RAGRetriever"><path d="M1923.52,792.7022 C1999.82,808.6422 2104.26,830.7622 2196,851.2422 C2205.67,853.4022 2209.7902,854.3279 2219.8302,856.6179 " fill="none" id="CheckSuggestionResolver-to-RAGRetriever" style="stroke:#181818;stroke-width:1.0;"/><polygon fill="#181818" points="2225.68,857.9522,2217.7949,852.051,2220.8052,856.8403,2216.0158,859.8506,2225.68,857.9522" style="stroke:#181818;stroke-width:1.0;"/><text fill="#000000" font-family="Segoe UI" font-size="13" lengthAdjust="spacing" textLength="166" x="1999.5" y="799.2705">cache miss -&gt; enrich context</text></g><!--link CheckSuggestionResolver to LLMEngine--><g id="link_CheckSuggestionResolver_LLMEngine"><path d="M1856.34,723.1422 C1884.77,694.4322 1925.2,660.2622 1969,644.2422 C2314.82,517.7422 3460.0928,580.3902 3831.7428,604.7202 " fill="none" id="CheckSuggestionResolver-to-LLMEngine" style="stroke:#181818;stroke-width:1.0;"/><polygon fill="#181818" points="3837.73,605.1122,3829.0105,600.5328,3832.7407,604.7856,3828.4879,608.5157,3837.73,605.1122" style="stroke:#181818;stroke-width:1.0;"/><text fill="#000000" font-family="Segoe UI" font-size="13" lengthAdjust="spacing" textLength="182" x="2875.5" y="564.2705">generate suggested DQ checks</text></g><!--link SqlGenerator to RAGRetriever--><g id="link_SqlGenerator_RAGRetriever"><path d="M1939.4,891.1222 C1949.41,891.1722 1959.37,891.2122 1969,891.2422 C2054.16,891.5222 2143.57,891.5377 2219.63,891.4677 " fill="none" id="SqlGenerator-to-RAGRetriever" style="stroke:#181818;stroke-width:1.0;"/><polygon fill="#181818" points="2225.63,891.4622,2216.6263,887.4705,2220.63,891.4668,2216.6337,895.4705,2225.63,891.4622" style="stroke:#181818;stroke-width:1.0;"/><text fill="#000000" font-family="Segoe UI" font-size="13" lengthAdjust="spacing" textLength="90" x="2037.5" y="870.2705">retrieve context</text><text fill="#000000" font-family="Segoe UI" font-size="13" lengthAdjust="spacing" textLength="206" x="1979.5" y="887.5615">(check_type, table, column, domain)</text></g><!--link RAGRetriever to SqlGenerator--><g id="link_RAGRetriever_SqlGenerator"><path d="M2225.72,931.4122 C2215.72,933.3322 2205.74,934.9822 2196,936.2422 C2095.95,949.1922 2068.83,950.8322 1969,936.2422 C1955.89,934.3322 1948.1675,932.9707 1934.7875,929.6907 " fill="none" id="RAGRetriever-to-SqlGenerator" style="stroke:#181818;stroke-width:1.0;"/><polygon fill="#181818" points="1928.96,928.2622,1936.7488,934.29,1933.8162,929.4526,1938.6536,926.52,1928.96,928.2622" style="stroke:#181818;stroke-width:1.0;"/><text fill="#000000" font-family="Segoe UI" font-size="13" lengthAdjust="spacing" textLength="129" x="2018" y="915.2705">ranked context chunks</text><text fill="#000000" font-family="Segoe UI" font-size="13" lengthAdjust="spacing" textLength="195" x="1985" y="932.5615">(contract + template + examples)</text></g><!--link RAGRetriever to VectorIdx--><g id="link_RAGRetriever_VectorIdx"><path d="M2495.69,948.0322 C2501.03,953.3022 2505.86,959.0322 2510,965.2422 C2552.17,1028.5522 2486.75,1251.9222 2540,1306.2422 C2619.84,1387.6922 2750.9616,1388.7874 2847.9316,1375.9874 " fill="none" id="RAGRetriever-to-VectorIdx" style="stroke:#181818;stroke-width:1.0;"/><polygon fill="#181818" points="2853.88,1375.2022,2844.4339,1372.4144,2848.923,1375.8565,2845.4809,1380.3456,2853.88,1375.2022" style="stroke:#181818;stroke-width:1.0;"/><text fill="#000000" font-family="Segoe UI" font-size="13" lengthAdjust="spacing" textLength="205" x="2574" y="1285.2705">embed_and_search(query, top_k=8,</text><text fill="#000000" font-family="Segoe UI" font-size="13" lengthAdjust="spacing" textLength="172" x="2590.5" y="1302.5615">filter={table_name, doc_type})</text></g><!--link VectorIdx to DocStore--><g id="link_VectorIdx_DocStore"><path d="M3079,1350.9922 C3160.15,1350.0822 3264.7504,1348.9091 3352.5704,1347.9291 " fill="none" id="VectorIdx-to-DocStore" style="stroke:#181818;stroke-width:1.0;"/><polygon fill="#181818" points="3358.57,1347.8622,3349.5259,1343.9629,3353.5703,1347.918,3349.6152,1351.9624,3358.57,1347.8622" style="stroke:#181818;stroke-width:1.0;"/><text fill="#000000" font-family="Segoe UI" font-size="13" lengthAdjust="spacing" textLength="207" x="3121" y="1344.2705">fetch chunks from UC Volume index</text></g><!--link SqlGenerator to LLMEngine--><g id="link_SqlGenerator_LLMEngine"><path d="M1918.69,852.2222 C1926.15,846.9422 1933.06,840.9722 1939,834.2422 C1968.87,800.4122 1934.41,766.2222 1969,737.2422 C2057.23,663.3222 2111.35,715.4222 2226,705.2422 C2831.4,651.5122 3553.0929,625.4382 3831.9729,616.7882 " fill="none" id="SqlGenerator-to-LLMEngine" style="stroke:#181818;stroke-width:1.0;"/><polygon fill="#181818" points="3837.97,616.6022,3828.8503,612.8831,3832.9724,616.7572,3829.0983,620.8793,3837.97,616.6022" style="stroke:#181818;stroke-width:1.0;"/><text fill="#000000" font-family="Segoe UI" font-size="13" lengthAdjust="spacing" textLength="229" x="2852" y="644.2705">generate SQL with RAG context window</text></g><!--link SqlGenerator to SecurityGuard--><g id="link_SqlGenerator_SecurityGuard"><path d="M1872.23,928.2922 C1900.26,945.1122 1935.19,963.4722 1969,974.2422 C2069.6,1006.2922 2184.7848,1016.6217 2266.8048,1019.9117 " fill="none" id="SqlGenerator-to-SecurityGuard" style="stroke:#181818;stroke-width:1.0;"/><polygon fill="#181818" points="2272.8,1020.1522,2263.9676,1015.7947,2267.804,1019.9518,2263.6469,1023.7883,2272.8,1020.1522" style="stroke:#181818;stroke-width:1.0;"/><text fill="#000000" font-family="Segoe UI" font-size="13" lengthAdjust="spacing" textLength="136" x="2014.5" y="970.2705">validate generated SQL</text></g><!--link SecurityGuard to ValidatorSvc--><g id="link_SecurityGuard_ValidatorSvc"><path d="M2272.91,1049.6622 C2256.33,1057.0922 2239.94,1066.2022 2226,1077.2422 C2207.73,1091.7122 2215.95,1108.2122 2196,1120.2422 C1898.95,1299.4222 1463.4219,1208.2551 1279.0619,1157.1451 " fill="none" id="SecurityGuard-to-ValidatorSvc" style="stroke:#181818;stroke-width:1.0;"/><polygon fill="#181818" points="1273.28,1155.5422,1280.8843,1161.8012,1278.0983,1156.878,1283.0215,1154.0919,1273.28,1155.5422" style="stroke:#181818;stroke-width:1.0;"/><text fill="#000000" font-family="Segoe UI" font-size="13" lengthAdjust="spacing" textLength="150" x="1739" y="1208.2705">pass security-cleared SQL</text></g><!--link ValidatorSvc to SqlValidator--><g id="link_ValidatorSvc_SqlValidator"><path d="M1273.16,1123.4922 C1393.78,1115.3922 1606.1835,1101.1342 1724.8735,1093.1642 " fill="none" id="ValidatorSvc-to-SqlValidator" style="stroke:#181818;stroke-width:1.0;"/><polygon fill="#181818" points="1730.86,1092.7622,1721.6122,1089.3742,1725.8712,1093.0972,1722.1482,1097.3562,1730.86,1092.7622" style="stroke:#181818;stroke-width:1.0;"/><text fill="#000000" font-family="Segoe UI" font-size="13" lengthAdjust="spacing" textLength="174" x="1423.5" y="1095.2705">syntax + schema + cost check</text></g><!--link SqlValidator to DupDetector--><g id="link_SqlValidator_DupDetector"><path d="M1897.04,1092.5922 C1989.77,1098.6422 2135.5727,1108.1515 2241.4727,1115.0615 " fill="none" id="SqlValidator-to-DupDetector" style="stroke:#181818;stroke-width:1.0;"/><polygon fill="#181818" points="2247.46,1115.4522,2238.7395,1110.8747,2242.4706,1115.1266,2238.2187,1118.8577,2247.46,1115.4522" style="stroke:#181818;stroke-width:1.0;"/><text fill="#000000" font-family="Segoe UI" font-size="13" lengthAdjust="spacing" textLength="111" x="2027" y="1094.2705">pass validated SQL</text></g><!--link DupDetector to RuleStore--><g id="link_DupDetector_RuleStore"><path d="M2378.33,1151.8922 C2398.19,1207.8722 2450.29,1331.3322 2540,1389.2422 C2700.61,1492.9222 2774.33,1452.2422 2965.5,1452.2422 C2965.5,1452.2422 2965.5,1452.2422 3956.5,1452.2422 C4227.98,1452.2422 4169.37,1186.6122 4313,956.2422 C4327.94,932.2822 4324.07,921.1922 4343,900.2422 C4348.5,894.1622 4350.0872,892.1928 4356.6472,886.8228 " fill="none" id="DupDetector-to-RuleStore" style="stroke:#181818;stroke-width:1.0;"/><polygon fill="#181818" points="4361.29,883.0222,4351.7921,885.6279,4357.421,886.1893,4356.8595,891.8183,4361.29,883.0222" style="stroke:#181818;stroke-width:1.0;"/><text fill="#000000" font-family="Segoe UI" font-size="13" lengthAdjust="spacing" textLength="116" x="3445.5" y="1448.2705">SELECT similar rules</text></g><!--link DupDetector to MetadataPrompter--><g id="link_DupDetector_MetadataPrompter"><path d="M2459.6,1094.6922 C2572.04,1059.2522 2756.9274,1000.9753 2869.3074,965.5653 " fill="none" id="DupDetector-to-MetadataPrompter" style="stroke:#181818;stroke-width:1.0;"/><polygon fill="#181818" points="2875.03,963.7622,2865.2439,962.6518,2870.2611,965.2648,2867.6481,970.282,2875.03,963.7622" style="stroke:#181818;stroke-width:1.0;"/><text fill="#000000" font-family="Segoe UI" font-size="13" lengthAdjust="spacing" textLength="150" x="2601.5" y="982.2705">collect required metadata</text></g><!--link MetadataPrompter to TrendScorer--><g id="link_MetadataPrompter_TrendScorer"><path d="M3090.24,930.1922 C3177.54,926.6022 3288.295,922.0483 3375.255,918.4783 " fill="none" id="MetadataPrompter-to-TrendScorer" style="stroke:#181818;stroke-width:1.0;"/><polygon fill="#181818" points="3381.25,918.2322,3372.0935,914.6047,3376.2542,918.4373,3372.4216,922.598,3381.25,918.2322" style="stroke:#181818;stroke-width:1.0;"/><text fill="#000000" font-family="Segoe UI" font-size="13" lengthAdjust="spacing" textLength="150" x="3149.5" y="917.2705">pass completed proposal</text></g><!--link TrendScorer to LLMEngine--><g id="link_TrendScorer_LLMEngine"><path d="M3555.33,884.7222 C3616.56,849.8122 3721.93,787.9522 3808,728.2422 C3842.8,704.1022 3875.6973,678.3406 3904.0673,655.2406 " fill="none" id="TrendScorer-to-LLMEngine" style="stroke:#181818;stroke-width:1.0;"/><polygon fill="#181818" points="3908.72,651.4522,3899.2153,654.033,3904.8427,654.6092,3904.2665,660.2366,3908.72,651.4522" style="stroke:#181818;stroke-width:1.0;"/><text fill="#000000" font-family="Segoe UI" font-size="13" lengthAdjust="spacing" textLength="97" x="3694.5" y="724.2705">infer trend score</text></g><!--link TrendScorer to RuleSubmitter--><g id="link_TrendScorer_RuleSubmitter"><path d="M3625.68,913.2422 C3713.41,913.2422 3822.11,913.2422 3890.26,913.2422 " fill="none" id="TrendScorer-to-RuleSubmitter" style="stroke:#181818;stroke-width:1.0;"/><polygon fill="#181818" points="3896.26,913.2422,3887.26,909.2422,3891.26,913.2422,3887.26,917.2422,3896.26,913.2422" style="stroke:#181818;stroke-width:1.0;"/><text fill="#000000" font-family="Segoe UI" font-size="13" lengthAdjust="spacing" textLength="128" x="3679" y="909.2705">pass scored proposal</text></g><!--link RuleSubmitter to RuleStore--><g id="link_RuleSubmitter_RuleStore"><path d="M4014.81,904.2922 C4101.48,890.9822 4258.2895,866.9127 4352.8595,852.3927 " fill="none" id="RuleSubmitter-to-RuleStore" style="stroke:#181818;stroke-width:1.0;"/><polygon fill="#181818" points="4358.79,851.4822,4349.2872,848.8943,4353.8479,852.241,4350.5013,856.8017,4358.79,851.4822" style="stroke:#181818;stroke-width:1.0;"/><text fill="#000000" font-family="Segoe UI" font-size="13" lengthAdjust="spacing" textLength="208" x="4104" y="856.2705">INSERT / UPDATE (service principal)</text></g><!--link RuleSubmitter to ApprovalSvc--><g id="link_RuleSubmitter_ApprovalSvc"><path d="M4014.53,921.0022 C4041.42,924.4322 4073.8,928.3422 4103,931.2422 C4184.09,939.3022 4270.6536,945.7182 4336.8936,950.1882 " fill="none" id="RuleSubmitter-to-ApprovalSvc" style="stroke:#181818;stroke-width:1.0;"/><polygon fill="#181818" points="4342.88,950.5922,4334.1697,945.9953,4337.8913,950.2555,4333.6311,953.9772,4342.88,950.5922" style="stroke:#181818;stroke-width:1.0;"/><text fill="#000000" font-family="Segoe UI" font-size="13" lengthAdjust="spacing" textLength="124" x="4146" y="927.2705">trigger approval flow</text></g><!--SRC=[bLZlRnev4_w-VyKezoLH8VHjsbCFwLw904cH84dvqTFfg92pQs0lYqtNkqbGrV_zdh6zoouaLrrFoe4zdXdFFFFCc2pE4aaNFUg9JD3dN2HnjgEhL6paaquVg4bTlTbg9LL6lLYii35NlS_KNOliNcVKsMxfT2ZKwZeLs_KPlI5iNehmGQh8RVwHnfay2mBp4Akjm7cwn_OgrRcAkZhHAVrorU7_AXAHN8eyoQwqocxW2KtaIakQ3IeYgGmpc8NptmEYiTEMAfdI_zvYuLAdaKoz_j_UTjvt-bXbXNxjtQyNxou-1ZygAaMOOUVxuUdt7pvqVdt_qzDRt4givF7voxUN_Uu7NZswj_q7BK4Ybnbbcj9ujSueYlbsiLP1u7oQ6TnB63hX3tDrQfFLLwjOIMoqwBA3FtUt-3CTdfq4mJuum-78oTdZ-EQFGSb8Hp91QDF7MAsm76rrhBApkRePtZLeydb8Aubu2dQaGLdA6JMXJY5z4aJmu5uOIUCyaHFuw0pmDx9VsKkPmCsXU91GAfJUY6GHhcNui0YrMiPLBPDyjP8cwmhiMqL-0QR9BaATEshA3RC8UGUweIIHY-Kt1VWPB6t4ub6c1Z9pLPN_ssXLCThJuTvpVCatGBczRdc5MPU-w0GR1cRu8BkUfSYAQT4vcNoxrMac8tSlquAzRybYAx9CfigAo6UnsIRIVeuGWbWjLeasHgIxLiMNMNSa4IoRuovD-KB4Aom0FmOtLxVZKMSwkBrPJBgV-gCElK4TzYVTyU2oJvy6a-dj-4_QYETJV_Cpu60FWo-ISJI8dgq5zmsf5scufe6AvBC7rNqQunhqPSAWkkutHnUujzpSoyWWjg4sZ2GJR-94f4mKngf01lIs-K3XEbSFgCmiZUMZIAeEW0fIZRN9OsXTABxJjSZaazZ1_jqkMoFqXW4PSbhr4-3NKberxIT2wMGMV9LxWQyG8fqMUYq0orM7xb2Msg7Lo32tlh-n67zqiZ4Z8r0wisYumV-lfOebghPETcsib7H76fS7k50Zqg1yTKAXI193IvXEfOXWuudfZ_JM5v8vXuB-CtpW8vF-iD-TqcCiQAROfovoaEZLUM3f9YMBxEOUm_GjbmYk8NoqUwRc3qS8c_31sMtvauJ21hRPnme_uwYrtAMhN5c-eIdkK1h_OpoOzltHDZC9SfCWz320swrY0v1BrdAeWKwZRujxP-GyH20okKYHcBFpchTHR50f7C5gx1pv9Jk8FgrZuFFJT7hNT7iPsA7UNo1L1Ivtd5O18Tg2gy9uAn9hs9AeaJPuoSxgkXdY8WRjpSZpW3Ko08AWeFAJWqPtQ8fhOj_xJkYN_iNLkwkURG5xZBA6mLA4ZcVu6qeEeUEbkPeDY9bLCgqss26Xp1DAk35N3CyeNYuRP41BkR41IyJkfAP-8WtN-sZbEeJ_IYEXS0Kq2oOi-PmH44YviUt2E9cwde7DyvWHv3Iv1N8hS_KN0o1C18uk6O7ZVgS7NGuaBUgCBWVNizlPvEjSsIrg_jys1xfCzHFRFVLeXtEsCw0MtM48nkfHFyWZ8CqL-N-GEHmi61TeUfFfMVqYRBImMLA2N-3ojwJ7S3GDMWF4EjqXsDBM91lUC7-5fl0Nsd_KcM5VFdMNc1l6kJ8iTu39d3ECxIDaqbEShNqGHHWYCILKumZXPrBO8kOoGepmQPTemPQPOPOvwbpaKOpH8HLnyXg4gr5xeLh6VGuXmFlnwaF_jmFmJhubrsuAq1vV06MvCbU-rJMvYKMMK6szSnpjpG0QaA-RUY1mlwDnvvey9WyIr-KUkc_yOsbqykYJQFUeCXKKkyYSGZ0Gq_qKWEyRaG7wTfn8j7x8jspwS3POWbIOfYg33gDp4njJzypsuw8TZq7itgjwdoQtyvE-F5V7pVoyUpkSZMucXvNjEjLrBjB85xVlNNO9364HshHyviF0CynStISQruhLtswEH9PxlI7_7GrF3lExxvP5ViiLbCiE8z5pELUv8I2hw-ZbsvxCt4nXHwbycyGXI9-APIwxZG2QGsQVBCt3B4y1_ieaOGUekjuYhdSfdY05AvN1BbRzdD2WPIhH7LMuQt1vQTQAiNKDWb_h93hCA9Fk1DDiaKaxthe5HhKnhILA2ffa5BiOBc6Gm7yPNRobIEpCCUrCyljDd6LLuYcNEE-J_dXgUp3p7wOcZFih5lR3q872plNOZLA5FbHErxDvkJDNF1BiBERpn67ur187apHeqsqZw6WmnJ27DBg9pRCXZm5-AFJJ85FEvjuz88foHKMhI3_nAEw7ODOZCTvohj_GKZur4Ukid7aTTLeoQyAJVIDiKxRRmZsRCGIqPQSbKpPZ4-nb-MIbnxMjQCkDLTwn0-bQ9slZZiWi6YiUQdaM1BLT5jy_aTf5VzlvgOTEgrtkxFXijTUqwIyhxOv-fNkxZiCs0yTdQzIAmzLnwskb8zhPwAZ_7UjxZJwXUjgv7FONazdrDRWUj5DOcQkVcWcgLookx9vDxM9-FUMKM1OwEnAllUpA4vQP8qVPL7cY1S5hjs1TBz6mmqD1JvvaBKtXsGQ5BvrXNVx1rQOZidv3nmJzhswzV4NqczVVfV-ghrRuRHShsvGuFLAbF1JlaV-wdYgmVOShWutW8z7krVfVBZUxinoMoYNpAhJKabU3z0jNyK_3id3BLptJGSF5g-5Jr_3FPK2ggeIrxb-pRR9yjX0gMZWkExNLrc1-Mppy_X6JtJ9EK2A_VtVPK68ZMNLeRVuu2_RAM7Nvcq0RT9PneFbDQnpvbxy6e7x0aiUE7PHqAjG3GbJGfrFrAdsMh7aSnXSpoPtQpbYLYSfJzB66-YpHBfwzibHdXxUWBcPZNNrXj-qiIiKJkXacYBa_MXFqmTYF5g3X5oS91y6W9clpK9aflDN2PMUkAl0ABVdfmitwHmUEfeis0u_VjxOjnNolZPS9ZeGj7LLc2EzZg3c5x2Cw-bORaGHLgSDSncg9rVrFQ_98kZvL5F7d_Og9kj1XDFpOqKBjzZheCAV7p-CND5H_i46xFfXKQ9a0PGTzT-Qw84Q0f_r3rlwIMFtvK1RFsU0V]--></g></svg>