<?xml version="1.0" encoding="us-ascii" standalone="no"?><svg xmlns="http://www.w3.org/2000/svg" xmlns:xlink="http://www.w3.org/1999/xlink" contentStyleType="text/css" height="923px" preserveAspectRatio="none" style="width:3368px;height:923px;background:#FFFFFF;" version="1.1" viewBox="0 0 3368 923" width="3368px" zoomAndPan="magnify"><defs/><g><text fill="#000000" font-family="Verdana" font-size="22" font-weight="bold" lengthAdjust="spacing" textLength="433" x="1463.25" y="37.1182">C4 Model -- Level 4: Code Diagram</text><text fill="#000000" font-family="Verdana" font-size="22" font-weight="bold" lengthAdjust="spacing" textLength="653" x="1353.25" y="63.8555">Security Guard Component  (Rule Validator Service)</text><!--cluster dq_framework--><g id="cluster_dq_framework"><path d="M13.5,85.4746 L129.5,85.4746 A3.75,3.75 0 0 1 132,87.9746 L139,108.4893 L2957.5,108.4893 A2.5,2.5 0 0 1 2960,110.9893 L2960,913.9746 A2.5,2.5 0 0 1 2957.5,916.4746 L13.5,916.4746 A2.5,2.5 0 0 1 11,913.9746 L11,87.9746 A2.5,2.5 0 0 1 13.5,85.4746 " fill="#FFFFFF" style="stroke:#000000;stroke-width:1.0;"/><line style="stroke:#000000;stroke-width:1.0;" x1="11" x2="139" y1="108.4893" y2="108.4893"/><text fill="#000000" font-family="Verdana" font-size="14" font-weight="bold" lengthAdjust="spacing" textLength="115" x="15" y="101.5498">dq_framework</text></g><!--cluster validator--><g id="cluster_validator"><path d="M37.5,129.4746 L106.5,129.4746 A3.75,3.75 0 0 1 109,131.9746 L116,152.4893 L2933.5,152.4893 A2.5,2.5 0 0 1 2936,154.9893 L2936,889.9746 A2.5,2.5 0 0 1 2933.5,892.4746 L37.5,892.4746 A2.5,2.5 0 0 1 35,889.9746 L35,131.9746 A2.5,2.5 0 0 1 37.5,129.4746 " fill="#FFFFFF" style="stroke:#000000;stroke-width:1.0;"/><line style="stroke:#000000;stroke-width:1.0;" x1="35" x2="116" y1="152.4893" y2="152.4893"/><text fill="#000000" font-family="Verdana" font-size="14" font-weight="bold" lengthAdjust="spacing" textLength="68" x="39" y="145.5498">validator</text></g><!--cluster security--><g id="cluster_security"><path d="M61.5,173.4746 L123.5,173.4746 A3.75,3.75 0 0 1 126,175.9746 L133,196.4893 L2909.5,196.4893 A2.5,2.5 0 0 1 2912,198.9893 L2912,865.9746 A2.5,2.5 0 0 1 2909.5,868.4746 L61.5,868.4746 A2.5,2.5 0 0 1 59,865.9746 L59,175.9746 A2.5,2.5 0 0 1 61.5,173.4746 " fill="#FFFFFF" style="stroke:#000000;stroke-width:1.0;"/><line style="stroke:#000000;stroke-width:1.0;" x1="59" x2="133" y1="196.4893" y2="196.4893"/><text fill="#000000" font-family="Verdana" font-size="14" font-weight="bold" lengthAdjust="spacing" textLength="61" x="63" y="189.5498">security</text></g><!--class SecurityGuard--><g id="elem_SecurityGuard"><rect codeLine="12" fill="#ECEFF1" height="163.1025" id="SecurityGuard" rx="2.5" ry="2.5" style="stroke:#90A4AE;stroke-width:1.0;" width="423" x="1326.5" y="209.4746"/><ellipse cx="1484.25" cy="223.4746" fill="#FFFFFF" rx="9" ry="9" style="stroke:#000000;stroke-width:1.0;"/><path d="M1487.0156,225.0059 L1489.4063,225.7559 Q1488.8594,227.7402 1487.5781,228.709 Q1486.3125,229.6777 1484.3438,229.6777 Q1481.9219,229.6777 1480.3594,228.0215 Q1478.8125,226.3652 1478.8125,223.4902 Q1478.8125,220.459 1480.375,218.7871 Q1481.9375,217.0996 1484.5,217.0996 Q1486.7344,217.0996 1488.125,218.4121 Q1488.9531,219.1934 1489.375,220.6621 L1486.9375,221.2402 Q1486.7188,220.2871 1486.0313,219.7402 Q1485.3594,219.1934 1484.375,219.1934 Q1483.0156,219.1934 1482.1719,220.1777 Q1481.3438,221.1465 1481.3438,223.3184 Q1481.3438,225.6152 1482.1719,226.5996 Q1483,227.584 1484.3281,227.584 Q1485.3125,227.584 1486.0156,226.959 Q1486.7188,226.334 1487.0156,225.0059 Z " fill="#000000"/><text fill="#000000" font-family="Verdana" font-size="14" lengthAdjust="spacing" textLength="100" x="1501.75" y="229.0425">SecurityGuard</text><line style="stroke:#90A4AE;stroke-width:1.0;" x1="1327.5" x2="1748.5" y1="237.4746" y2="237.4746"/><line style="stroke:#90A4AE;stroke-width:1.0;" x1="1327.5" x2="1748.5" y1="245.4746" y2="245.4746"/><ellipse cx="1337.5" cy="259.4819" fill="#FFFFFF" rx="3" ry="3" style="stroke:#000000;stroke-width:1.0;"/><text fill="#000000" font-family="Verdana" font-size="14" lengthAdjust="spacing" textLength="399" x="1344.5" y="263.5498">validate(sql: str, context: RuleContext) : SecurityReport</text><rect fill="#FFFFFF" height="6" style="stroke:#000000;stroke-width:1.0;" width="6" x="1334.5" y="273.4966"/><text fill="#000000" font-family="Verdana" font-size="14" lengthAdjust="spacing" textLength="356" x="1344.5" y="280.5645">_check_injection_patterns(sql: str) : list[Violation]</text><rect fill="#FFFFFF" height="6" style="stroke:#000000;stroke-width:1.0;" width="6" x="1334.5" y="290.5112"/><text fill="#000000" font-family="Verdana" font-size="14" lengthAdjust="spacing" textLength="359" x="1344.5" y="297.5791">_check_ddl_dml_keywords(sql: str) : list[Violation]</text><rect fill="#FFFFFF" height="6" style="stroke:#000000;stroke-width:1.0;" width="6" x="1334.5" y="307.5259"/><text fill="#000000" font-family="Verdana" font-size="14" lengthAdjust="spacing" textLength="377" x="1344.5" y="314.5938">_check_dangerous_functions(sql: str) : list[Violation]</text><rect fill="#FFFFFF" height="6" style="stroke:#000000;stroke-width:1.0;" width="6" x="1334.5" y="324.5405"/><text fill="#000000" font-family="Verdana" font-size="14" lengthAdjust="spacing" textLength="386" x="1344.5" y="331.6084">_check_query_complexity(sql: str) : ComplexityReport</text><rect fill="#FFFFFF" height="6" style="stroke:#000000;stroke-width:1.0;" width="6" x="1334.5" y="341.5552"/><text fill="#000000" font-family="Verdana" font-size="14" lengthAdjust="spacing" textLength="257" x="1344.5" y="348.623">_enforce_select_only(sql: str) : bool</text><rect fill="#FFFFFF" height="6" style="stroke:#000000;stroke-width:1.0;" width="6" x="1334.5" y="358.5698"/><text fill="#000000" font-family="Verdana" font-size="14" lengthAdjust="spacing" textLength="240" x="1344.5" y="365.6377">_sanitise_input(raw_sql: str) : str</text></g><!--class InjectionPatternMatcher--><g id="elem_InjectionPatternMatcher"><rect codeLine="22" fill="#ECEFF1" height="112.0586" id="InjectionPatternMatcher" rx="2.5" ry="2.5" style="stroke:#90A4AE;stroke-width:1.0;" width="372" x="2524" y="474.9746"/><ellipse cx="2622.75" cy="488.9746" fill="#FFFFFF" rx="9" ry="9" style="stroke:#000000;stroke-width:1.0;"/><path d="M2625.5156,490.5059 L2627.9063,491.2559 Q2627.3594,493.2402 2626.0781,494.209 Q2624.8125,495.1777 2622.8438,495.1777 Q2620.4219,495.1777 2618.8594,493.5215 Q2617.3125,491.8652 2617.3125,488.9902 Q2617.3125,485.959 2618.875,484.2871 Q2620.4375,482.5996 2623,482.5996 Q2625.2344,482.5996 2626.625,483.9121 Q2627.4531,484.6934 2627.875,486.1621 L2625.4375,486.7402 Q2625.2188,485.7871 2624.5313,485.2402 Q2623.8594,484.6934 2622.875,484.6934 Q2621.5156,484.6934 2620.6719,485.6777 Q2619.8438,486.6465 2619.8438,488.8184 Q2619.8438,491.1152 2620.6719,492.0996 Q2621.5,493.084 2622.8281,493.084 Q2623.8125,493.084 2624.5156,492.459 Q2625.2188,491.834 2625.5156,490.5059 Z " fill="#000000"/><text fill="#000000" font-family="Verdana" font-size="14" lengthAdjust="spacing" textLength="167" x="2640.25" y="494.5425">InjectionPatternMatcher</text><line style="stroke:#90A4AE;stroke-width:1.0;" x1="2525" x2="2895" y1="502.9746" y2="502.9746"/><rect fill="none" height="6" style="stroke:#000000;stroke-width:1.0;" width="6" x="2532" y="513.9819"/><text fill="#000000" font-family="Verdana" font-size="14" lengthAdjust="spacing" textLength="173" x="2542" y="521.0498">patterns: list[re.Pattern]</text><line style="stroke:#90A4AE;stroke-width:1.0;" x1="2525" x2="2895" y1="527.9893" y2="527.9893"/><ellipse cx="2535" cy="541.9966" fill="#FFFFFF" rx="3" ry="3" style="stroke:#000000;stroke-width:1.0;"/><text fill="#000000" font-family="Verdana" font-size="14" lengthAdjust="spacing" textLength="195" x="2542" y="546.0645">match(sql: str) : list[Match]</text><ellipse cx="2535" cy="559.0112" fill="#FFFFFF" rx="3" ry="3" style="stroke:#000000;stroke-width:1.0;"/><text fill="#000000" font-family="Verdana" font-size="14" lengthAdjust="spacing" textLength="276" x="2542" y="563.0791">load_patterns(config_path: str) : None</text><rect fill="#FFFFFF" height="6" style="stroke:#000000;stroke-width:1.0;" width="6" x="2532" y="573.0259"/><text fill="#000000" font-family="Verdana" font-size="14" lengthAdjust="spacing" textLength="348" x="2542" y="580.0938">_compile_patterns(raw: list[str]) : list[re.Pattern]</text></g><!--class DDLDMLBlocklist--><g id="elem_DDLDMLBlocklist"><rect codeLine="29" fill="#ECEFF1" height="146.0879" id="DDLDMLBlocklist" rx="2.5" ry="2.5" style="stroke:#90A4AE;stroke-width:1.0;" width="359" x="75.5" y="457.9746"/><ellipse cx="192.75" cy="471.9746" fill="#FFFFFF" rx="9" ry="9" style="stroke:#000000;stroke-width:1.0;"/><path d="M195.5156,473.5059 L197.9063,474.2559 Q197.3594,476.2402 196.0781,477.209 Q194.8125,478.1777 192.8438,478.1777 Q190.4219,478.1777 188.8594,476.5215 Q187.3125,474.8652 187.3125,471.9902 Q187.3125,468.959 188.875,467.2871 Q190.4375,465.5996 193,465.5996 Q195.2344,465.5996 196.625,466.9121 Q197.4531,467.6934 197.875,469.1621 L195.4375,469.7402 Q195.2188,468.7871 194.5313,468.2402 Q193.8594,467.6934 192.875,467.6934 Q191.5156,467.6934 190.6719,468.6777 Q189.8438,469.6465 189.8438,471.8184 Q189.8438,474.1152 190.6719,475.0996 Q191.5,476.084 192.8281,476.084 Q193.8125,476.084 194.5156,475.459 Q195.2188,474.834 195.5156,473.5059 Z " fill="#000000"/><text fill="#000000" font-family="Verdana" font-size="14" lengthAdjust="spacing" textLength="117" x="210.25" y="477.5425">DDLDMLBlocklist</text><line style="stroke:#90A4AE;stroke-width:1.0;" x1="76.5" x2="433.5" y1="485.9746" y2="485.9746"/><rect fill="none" height="6" style="stroke:#000000;stroke-width:1.0;" width="6" x="83.5" y="496.9819"/><text fill="#000000" font-family="Verdana" font-size="14" lengthAdjust="spacing" textLength="273" x="93.5" y="504.0498">BLOCKED_KEYWORDS: frozenset[str]</text><ellipse cx="86.5" cy="534.0112" fill="none" rx="3" ry="3" style="stroke:#000000;stroke-width:1.0;"/><text fill="#000000" font-family="Verdana" font-size="14" lengthAdjust="spacing" text-decoration="underline" textLength="335" x="93.5" y="521.0645">DEFAULT = {DROP, INSERT, UPDATE, DELETE,</text><text fill="#000000" font-family="Verdana" font-size="14" lengthAdjust="spacing" text-decoration="underline" textLength="253" x="103.5" y="538.0791">ALTER, TRUNCATE, CREATE, EXEC,</text><text fill="#000000" font-family="Verdana" font-size="14" lengthAdjust="spacing" text-decoration="underline" textLength="231" x="103.5" y="555.0938">MERGE, REPLACE, OVERWRITE}</text><line style="stroke:#90A4AE;stroke-width:1.0;" x1="76.5" x2="433.5" y1="562.0332" y2="562.0332"/><ellipse cx="86.5" cy="576.0405" fill="#FFFFFF" rx="3" ry="3" style="stroke:#000000;stroke-width:1.0;"/><text fill="#000000" font-family="Verdana" font-size="14" lengthAdjust="spacing" textLength="230" x="93.5" y="580.1084">contains_blocked(sql: str) : bool</text><ellipse cx="86.5" cy="593.0552" fill="#FFFFFF" rx="3" ry="3" style="stroke:#000000;stroke-width:1.0;"/><text fill="#000000" font-family="Verdana" font-size="14" lengthAdjust="spacing" textLength="229" x="93.5" y="597.123">get_violations(sql: str) : list[str]</text></g><!--class DangerousFunctionBlocklist--><g id="elem_DangerousFunctionBlocklist"><rect codeLine="36" fill="#ECEFF1" height="129.0732" id="DangerousFunctionBlocklist" rx="2.5" ry="2.5" style="stroke:#90A4AE;stroke-width:1.0;" width="323" x="929.5" y="466.4746"/><ellipse cx="990.25" cy="480.4746" fill="#FFFFFF" rx="9" ry="9" style="stroke:#000000;stroke-width:1.0;"/><path d="M993.0156,482.0059 L995.4063,482.7559 Q994.8594,484.7402 993.5781,485.709 Q992.3125,486.6777 990.3438,486.6777 Q987.9219,486.6777 986.3594,485.0215 Q984.8125,483.3652 984.8125,480.4902 Q984.8125,477.459 986.375,475.7871 Q987.9375,474.0996 990.5,474.0996 Q992.7344,474.0996 994.125,475.4121 Q994.9531,476.1934 995.375,477.6621 L992.9375,478.2402 Q992.7188,477.2871 992.0313,476.7402 Q991.3594,476.1934 990.375,476.1934 Q989.0156,476.1934 988.1719,477.1777 Q987.3438,478.1465 987.3438,480.3184 Q987.3438,482.6152 988.1719,483.5996 Q989,484.584 990.3281,484.584 Q991.3125,484.584 992.0156,483.959 Q992.7188,483.334 993.0156,482.0059 Z " fill="#000000"/><text fill="#000000" font-family="Verdana" font-size="14" lengthAdjust="spacing" textLength="194" x="1007.75" y="486.0425">DangerousFunctionBlocklist</text><line style="stroke:#90A4AE;stroke-width:1.0;" x1="930.5" x2="1251.5" y1="494.4746" y2="494.4746"/><rect fill="none" height="6" style="stroke:#000000;stroke-width:1.0;" width="6" x="937.5" y="505.4819"/><text fill="#000000" font-family="Verdana" font-size="14" lengthAdjust="spacing" textLength="271" x="947.5" y="512.5498">BLOCKED_FUNCTIONS: frozenset[str]</text><ellipse cx="940.5" cy="534.0039" fill="none" rx="3" ry="3" style="stroke:#000000;stroke-width:1.0;"/><text fill="#000000" font-family="Verdana" font-size="14" lengthAdjust="spacing" text-decoration="underline" textLength="299" x="947.5" y="529.5645">DEFAULT = {xp_cmdshell, OPENROWSET,</text><text fill="#000000" font-family="Verdana" font-size="14" lengthAdjust="spacing" text-decoration="underline" textLength="237" x="957.5" y="546.5791">BULK INSERT, LOAD DATA, eval}</text><line style="stroke:#90A4AE;stroke-width:1.0;" x1="930.5" x2="1251.5" y1="553.5186" y2="553.5186"/><ellipse cx="940.5" cy="567.5259" fill="#FFFFFF" rx="3" ry="3" style="stroke:#000000;stroke-width:1.0;"/><text fill="#000000" font-family="Verdana" font-size="14" lengthAdjust="spacing" textLength="230" x="947.5" y="571.5938">contains_blocked(sql: str) : bool</text><ellipse cx="940.5" cy="584.5405" fill="#FFFFFF" rx="3" ry="3" style="stroke:#000000;stroke-width:1.0;"/><text fill="#000000" font-family="Verdana" font-size="14" lengthAdjust="spacing" textLength="229" x="947.5" y="588.6084">get_violations(sql: str) : list[str]</text></g><!--class ComplexityAnalyser--><g id="elem_ComplexityAnalyser"><rect codeLine="43" fill="#ECEFF1" height="163.1025" id="ComplexityAnalyser" rx="2.5" ry="2.5" style="stroke:#90A4AE;stroke-width:1.0;" width="425" x="469.5" y="449.4746"/><ellipse cx="609.25" cy="463.4746" fill="#FFFFFF" rx="9" ry="9" style="stroke:#000000;stroke-width:1.0;"/><path d="M612.0156,465.0059 L614.4063,465.7559 Q613.8594,467.7402 612.5781,468.709 Q611.3125,469.6777 609.3438,469.6777 Q606.9219,469.6777 605.3594,468.0215 Q603.8125,466.3652 603.8125,463.4902 Q603.8125,460.459 605.375,458.7871 Q606.9375,457.0996 609.5,457.0996 Q611.7344,457.0996 613.125,458.4121 Q613.9531,459.1934 614.375,460.6621 L611.9375,461.2402 Q611.7188,460.2871 611.0313,459.7402 Q610.3594,459.1934 609.375,459.1934 Q608.0156,459.1934 607.1719,460.1777 Q606.3438,461.1465 606.3438,463.3184 Q606.3438,465.6152 607.1719,466.5996 Q608,467.584 609.3281,467.584 Q610.3125,467.584 611.0156,466.959 Q611.7188,466.334 612.0156,465.0059 Z " fill="#000000"/><text fill="#000000" font-family="Verdana" font-size="14" lengthAdjust="spacing" textLength="138" x="626.75" y="469.0425">ComplexityAnalyser</text><line style="stroke:#90A4AE;stroke-width:1.0;" x1="470.5" x2="893.5" y1="477.4746" y2="477.4746"/><rect fill="none" height="6" style="stroke:#000000;stroke-width:1.0;" width="6" x="477.5" y="488.4819"/><text fill="#000000" font-family="Verdana" font-size="14" lengthAdjust="spacing" textLength="132" x="487.5" y="495.5498">max_joins: int = 5</text><rect fill="none" height="6" style="stroke:#000000;stroke-width:1.0;" width="6" x="477.5" y="505.4966"/><text fill="#000000" font-family="Verdana" font-size="14" lengthAdjust="spacing" textLength="175" x="487.5" y="512.5645">max_subqueries: int = 3</text><rect fill="none" height="6" style="stroke:#000000;stroke-width:1.0;" width="6" x="477.5" y="522.5112"/><text fill="#000000" font-family="Verdana" font-size="14" lengthAdjust="spacing" textLength="230" x="487.5" y="529.5791">max_estimated_dbu: float = 1.0</text><line style="stroke:#90A4AE;stroke-width:1.0;" x1="470.5" x2="893.5" y1="536.5186" y2="536.5186"/><ellipse cx="480.5" cy="550.5259" fill="#FFFFFF" rx="3" ry="3" style="stroke:#000000;stroke-width:1.0;"/><text fill="#000000" font-family="Verdana" font-size="14" lengthAdjust="spacing" textLength="257" x="487.5" y="554.5938">analyse(sql: str) : ComplexityReport</text><ellipse cx="480.5" cy="567.5405" fill="#FFFFFF" rx="3" ry="3" style="stroke:#000000;stroke-width:1.0;"/><text fill="#000000" font-family="Verdana" font-size="14" lengthAdjust="spacing" textLength="401" x="487.5" y="571.6084">estimate_cost_dbu(sql: str, spark: SparkSession) : float</text><rect fill="#FFFFFF" height="6" style="stroke:#000000;stroke-width:1.0;" width="6" x="477.5" y="581.5552"/><text fill="#000000" font-family="Verdana" font-size="14" lengthAdjust="spacing" textLength="189" x="487.5" y="588.623">_count_joins(sql: str) : int</text><rect fill="#FFFFFF" height="6" style="stroke:#000000;stroke-width:1.0;" width="6" x="477.5" y="598.5698"/><text fill="#000000" font-family="Verdana" font-size="14" lengthAdjust="spacing" textLength="232" x="487.5" y="605.6377">_count_subqueries(sql: str) : int</text></g><!--class SelectEnforcer--><g id="elem_SelectEnforcer"><rect codeLine="53" fill="#ECEFF1" height="95.0439" id="SelectEnforcer" rx="2.5" ry="2.5" style="stroke:#90A4AE;stroke-width:1.0;" width="295" x="1535.5" y="483.4746"/><ellipse cx="1628.75" cy="497.4746" fill="#FFFFFF" rx="9" ry="9" style="stroke:#000000;stroke-width:1.0;"/><path d="M1631.5156,499.0059 L1633.9063,499.7559 Q1633.3594,501.7402 1632.0781,502.709 Q1630.8125,503.6777 1628.8438,503.6777 Q1626.4219,503.6777 1624.8594,502.0215 Q1623.3125,500.3652 1623.3125,497.4902 Q1623.3125,494.459 1624.875,492.7871 Q1626.4375,491.0996 1629,491.0996 Q1631.2344,491.0996 1632.625,492.4121 Q1633.4531,493.1934 1633.875,494.6621 L1631.4375,495.2402 Q1631.2188,494.2871 1630.5313,493.7402 Q1629.8594,493.1934 1628.875,493.1934 Q1627.5156,493.1934 1626.6719,494.1777 Q1625.8438,495.1465 1625.8438,497.3184 Q1625.8438,499.6152 1626.6719,500.5996 Q1627.5,501.584 1628.8281,501.584 Q1629.8125,501.584 1630.5156,500.959 Q1631.2188,500.334 1631.5156,499.0059 Z " fill="#000000"/><text fill="#000000" font-family="Verdana" font-size="14" lengthAdjust="spacing" textLength="101" x="1646.25" y="503.0425">SelectEnforcer</text><line style="stroke:#90A4AE;stroke-width:1.0;" x1="1536.5" x2="1829.5" y1="511.4746" y2="511.4746"/><line style="stroke:#90A4AE;stroke-width:1.0;" x1="1536.5" x2="1829.5" y1="519.4746" y2="519.4746"/><ellipse cx="1546.5" cy="533.4819" fill="#FFFFFF" rx="3" ry="3" style="stroke:#000000;stroke-width:1.0;"/><text fill="#000000" font-family="Verdana" font-size="14" lengthAdjust="spacing" textLength="207" x="1553.5" y="537.5498">is_select_only(sql: str) : bool</text><ellipse cx="1546.5" cy="550.4966" fill="#FFFFFF" rx="3" ry="3" style="stroke:#000000;stroke-width:1.0;"/><text fill="#000000" font-family="Verdana" font-size="14" lengthAdjust="spacing" textLength="271" x="1553.5" y="554.5645">strip_leading_comments(sql: str) : str</text><rect fill="#FFFFFF" height="6" style="stroke:#000000;stroke-width:1.0;" width="6" x="1543.5" y="564.5112"/><text fill="#000000" font-family="Verdana" font-size="14" lengthAdjust="spacing" textLength="268" x="1553.5" y="571.5791">_parse_statement_type(sql: str) : str</text></g><!--class SecurityReport--><g id="elem_SecurityReport"><rect codeLine="59" fill="#ECEFF1" height="146.0879" id="SecurityReport" rx="2.5" ry="2.5" style="stroke:#90A4AE;stroke-width:1.0;" width="212" x="1288" y="457.9746"/><ellipse cx="1337.75" cy="471.9746" fill="#FFFFFF" rx="9" ry="9" style="stroke:#000000;stroke-width:1.0;"/><path d="M1340.5156,473.5059 L1342.9063,474.2559 Q1342.3594,476.2402 1341.0781,477.209 Q1339.8125,478.1777 1337.8438,478.1777 Q1335.4219,478.1777 1333.8594,476.5215 Q1332.3125,474.8652 1332.3125,471.9902 Q1332.3125,468.959 1333.875,467.2871 Q1335.4375,465.5996 1338,465.5996 Q1340.2344,465.5996 1341.625,466.9121 Q1342.4531,467.6934 1342.875,469.1621 L1340.4375,469.7402 Q1340.2188,468.7871 1339.5313,468.2402 Q1338.8594,467.6934 1337.875,467.6934 Q1336.5156,467.6934 1335.6719,468.6777 Q1334.8438,469.6465 1334.8438,471.8184 Q1334.8438,474.1152 1335.6719,475.0996 Q1336.5,476.084 1337.8281,476.084 Q1338.8125,476.084 1339.5156,475.459 Q1340.2188,474.834 1340.5156,473.5059 Z " fill="#000000"/><text fill="#000000" font-family="Verdana" font-size="14" lengthAdjust="spacing" textLength="105" x="1355.25" y="477.5425">SecurityReport</text><line style="stroke:#90A4AE;stroke-width:1.0;" x1="1289" x2="1499" y1="485.9746" y2="485.9746"/><ellipse cx="1299" cy="499.9819" fill="none" rx="3" ry="3" style="stroke:#000000;stroke-width:1.0;"/><text fill="#000000" font-family="Verdana" font-size="14" lengthAdjust="spacing" textLength="91" x="1306" y="504.0498">passed: bool</text><ellipse cx="1299" cy="516.9966" fill="none" rx="3" ry="3" style="stroke:#000000;stroke-width:1.0;"/><text fill="#000000" font-family="Verdana" font-size="14" lengthAdjust="spacing" textLength="169" x="1306" y="521.0645">violations: list[Violation]</text><ellipse cx="1299" cy="534.0112" fill="none" rx="3" ry="3" style="stroke:#000000;stroke-width:1.0;"/><text fill="#000000" font-family="Verdana" font-size="14" lengthAdjust="spacing" textLength="86" x="1306" y="538.0791">severity: str</text><ellipse cx="1299" cy="551.0259" fill="none" rx="3" ry="3" style="stroke:#000000;stroke-width:1.0;"/><text fill="#000000" font-family="Verdana" font-size="14" lengthAdjust="spacing" textLength="122" x="1306" y="555.0938">sanitised_sql: str</text><ellipse cx="1299" cy="568.0405" fill="none" rx="3" ry="3" style="stroke:#000000;stroke-width:1.0;"/><text fill="#000000" font-family="Verdana" font-size="14" lengthAdjust="spacing" textLength="188" x="1306" y="572.1084">recommendations: list[str]</text><line style="stroke:#90A4AE;stroke-width:1.0;" x1="1289" x2="1499" y1="579.0479" y2="579.0479"/><ellipse cx="1299" cy="593.0552" fill="#FFFFFF" rx="3" ry="3" style="stroke:#000000;stroke-width:1.0;"/><text fill="#000000" font-family="Verdana" font-size="14" lengthAdjust="spacing" textLength="102" x="1306" y="597.123">to_dict() : dict</text></g><!--class Violation--><g id="elem_Violation"><rect codeLine="68" fill="#ECEFF1" height="129.0732" id="Violation" rx="2.5" ry="2.5" style="stroke:#90A4AE;stroke-width:1.0;" width="371" x="1208.5" y="706.4746"/><ellipse cx="1360.25" cy="720.4746" fill="#FFFFFF" rx="9" ry="9" style="stroke:#000000;stroke-width:1.0;"/><path d="M1363.0156,722.0059 L1365.4063,722.7559 Q1364.8594,724.7402 1363.5781,725.709 Q1362.3125,726.6777 1360.3438,726.6777 Q1357.9219,726.6777 1356.3594,725.0215 Q1354.8125,723.3652 1354.8125,720.4902 Q1354.8125,717.459 1356.375,715.7871 Q1357.9375,714.0996 1360.5,714.0996 Q1362.7344,714.0996 1364.125,715.4121 Q1364.9531,716.1934 1365.375,717.6621 L1362.9375,718.2402 Q1362.7188,717.2871 1362.0313,716.7402 Q1361.3594,716.1934 1360.375,716.1934 Q1359.0156,716.1934 1358.1719,717.1777 Q1357.3438,718.1465 1357.3438,720.3184 Q1357.3438,722.6152 1358.1719,723.5996 Q1359,724.584 1360.3281,724.584 Q1361.3125,724.584 1362.0156,723.959 Q1362.7188,723.334 1363.0156,722.0059 Z " fill="#000000"/><text fill="#000000" font-family="Verdana" font-size="14" lengthAdjust="spacing" textLength="60" x="1377.75" y="726.0425">Violation</text><line style="stroke:#90A4AE;stroke-width:1.0;" x1="1209.5" x2="1578.5" y1="734.4746" y2="734.4746"/><ellipse cx="1219.5" cy="748.4819" fill="none" rx="3" ry="3" style="stroke:#000000;stroke-width:1.0;"/><text fill="#000000" font-family="Verdana" font-size="14" lengthAdjust="spacing" textLength="62" x="1226.5" y="752.5498">type: str</text><ellipse cx="1219.5" cy="765.4966" fill="none" rx="3" ry="3" style="stroke:#000000;stroke-width:1.0;"/><text fill="#000000" font-family="Verdana" font-size="14" lengthAdjust="spacing" textLength="68" x="1226.5" y="769.5645">detail: str</text><ellipse cx="1219.5" cy="782.5112" fill="none" rx="3" ry="3" style="stroke:#000000;stroke-width:1.0;"/><text fill="#000000" font-family="Verdana" font-size="14" lengthAdjust="spacing" textLength="347" x="1226.5" y="786.5791">severity: str  ' CRITICAL | HIGH | MEDIUM | LOW</text><ellipse cx="1219.5" cy="799.5259" fill="none" rx="3" ry="3" style="stroke:#000000;stroke-width:1.0;"/><text fill="#000000" font-family="Verdana" font-size="14" lengthAdjust="spacing" textLength="85" x="1226.5" y="803.5938">position: int</text><ellipse cx="1219.5" cy="816.5405" fill="none" rx="3" ry="3" style="stroke:#000000;stroke-width:1.0;"/><text fill="#000000" font-family="Verdana" font-size="14" lengthAdjust="spacing" textLength="131" x="1226.5" y="820.6084">suggested_fix: str</text><line style="stroke:#90A4AE;stroke-width:1.0;" x1="1209.5" x2="1578.5" y1="827.5479" y2="827.5479"/></g><!--class RuleContext--><g id="elem_RuleContext"><rect codeLine="76" fill="#ECEFF1" height="163.1025" id="RuleContext" rx="2.5" ry="2.5" style="stroke:#90A4AE;stroke-width:1.0;" width="623" x="1865.5" y="449.4746"/><ellipse cx="2129.75" cy="463.4746" fill="#FFFFFF" rx="9" ry="9" style="stroke:#000000;stroke-width:1.0;"/><path d="M2132.5156,465.0059 L2134.9063,465.7559 Q2134.3594,467.7402 2133.0781,468.709 Q2131.8125,469.6777 2129.8438,469.6777 Q2127.4219,469.6777 2125.8594,468.0215 Q2124.3125,466.3652 2124.3125,463.4902 Q2124.3125,460.459 2125.875,458.7871 Q2127.4375,457.0996 2130,457.0996 Q2132.2344,457.0996 2133.625,458.4121 Q2134.4531,459.1934 2134.875,460.6621 L2132.4375,461.2402 Q2132.2188,460.2871 2131.5313,459.7402 Q2130.8594,459.1934 2129.875,459.1934 Q2128.5156,459.1934 2127.6719,460.1777 Q2126.8438,461.1465 2126.8438,463.3184 Q2126.8438,465.6152 2127.6719,466.5996 Q2128.5,467.584 2129.8281,467.584 Q2130.8125,467.584 2131.5156,466.959 Q2132.2188,466.334 2132.5156,465.0059 Z " fill="#000000"/><text fill="#000000" font-family="Verdana" font-size="14" lengthAdjust="spacing" textLength="87" x="2147.25" y="469.0425">RuleContext</text><line style="stroke:#90A4AE;stroke-width:1.0;" x1="1866.5" x2="2487.5" y1="477.4746" y2="477.4746"/><ellipse cx="1876.5" cy="491.4819" fill="none" rx="3" ry="3" style="stroke:#000000;stroke-width:1.0;"/><text fill="#000000" font-family="Verdana" font-size="14" lengthAdjust="spacing" textLength="83" x="1883.5" y="495.5498">user_id: str</text><ellipse cx="1876.5" cy="508.4966" fill="none" rx="3" ry="3" style="stroke:#000000;stroke-width:1.0;"/><text fill="#000000" font-family="Verdana" font-size="14" lengthAdjust="spacing" textLength="137" x="1883.5" y="512.5645">user_roles: list[str]</text><ellipse cx="1876.5" cy="525.5112" fill="none" rx="3" ry="3" style="stroke:#000000;stroke-width:1.0;"/><text fill="#000000" font-family="Verdana" font-size="14" lengthAdjust="spacing" textLength="112" x="1883.5" y="529.5791">table_name: str</text><ellipse cx="1876.5" cy="542.5259" fill="none" rx="3" ry="3" style="stroke:#000000;stroke-width:1.0;"/><text fill="#000000" font-family="Verdana" font-size="14" lengthAdjust="spacing" textLength="168" x="1883.5" y="546.5938">column_names: list[str]</text><ellipse cx="1876.5" cy="559.5405" fill="none" rx="3" ry="3" style="stroke:#000000;stroke-width:1.0;"/><text fill="#000000" font-family="Verdana" font-size="14" lengthAdjust="spacing" textLength="212" x="1883.5" y="563.6084">environment: str  ' dev | prod</text><ellipse cx="1876.5" cy="576.5552" fill="none" rx="3" ry="3" style="stroke:#000000;stroke-width:1.0;"/><text fill="#000000" font-family="Verdana" font-size="14" lengthAdjust="spacing" textLength="441" x="1883.5" y="580.623">data_classification: str  ' PII | FINANCIAL | INTERNAL | PUBLIC</text><ellipse cx="1876.5" cy="593.5698" fill="none" rx="3" ry="3" style="stroke:#000000;stroke-width:1.0;"/><text fill="#000000" font-family="Verdana" font-size="14" lengthAdjust="spacing" textLength="599" x="1883.5" y="597.6377">rag_contract: DataContractContext  ' populated by RAGRetriever from data contract</text><line style="stroke:#90A4AE;stroke-width:1.0;" x1="1866.5" x2="2487.5" y1="604.5771" y2="604.5771"/></g><!--class DataContractContext--><g id="elem_DataContractContext"><rect codeLine="86" fill="#ECEFF1" height="163.1025" id="DataContractContext" rx="2.5" ry="2.5" style="stroke:#90A4AE;stroke-width:1.0;" width="410" x="1972" y="689.4746"/><ellipse cx="2097.75" cy="703.4746" fill="#FFFFFF" rx="9" ry="9" style="stroke:#000000;stroke-width:1.0;"/><path d="M2100.5156,705.0059 L2102.9063,705.7559 Q2102.3594,707.7402 2101.0781,708.709 Q2099.8125,709.6777 2097.8438,709.6777 Q2095.4219,709.6777 2093.8594,708.0215 Q2092.3125,706.3652 2092.3125,703.4902 Q2092.3125,700.459 2093.875,698.7871 Q2095.4375,697.0996 2098,697.0996 Q2100.2344,697.0996 2101.625,698.4121 Q2102.4531,699.1934 2102.875,700.6621 L2100.4375,701.2402 Q2100.2188,700.2871 2099.5313,699.7402 Q2098.8594,699.1934 2097.875,699.1934 Q2096.5156,699.1934 2095.6719,700.1777 Q2094.8438,701.1465 2094.8438,703.3184 Q2094.8438,705.6152 2095.6719,706.5996 Q2096.5,707.584 2097.8281,707.584 Q2098.8125,707.584 2099.5156,706.959 Q2100.2188,706.334 2100.5156,705.0059 Z " fill="#000000"/><text fill="#000000" font-family="Verdana" font-size="14" lengthAdjust="spacing" textLength="151" x="2115.25" y="709.0425">DataContractContext</text><line style="stroke:#90A4AE;stroke-width:1.0;" x1="1973" x2="2381" y1="717.4746" y2="717.4746"/><ellipse cx="1983" cy="731.4819" fill="none" rx="3" ry="3" style="stroke:#000000;stroke-width:1.0;"/><text fill="#000000" font-family="Verdana" font-size="14" lengthAdjust="spacing" textLength="112" x="1990" y="735.5498">table_name: str</text><ellipse cx="1983" cy="748.4966" fill="none" rx="3" ry="3" style="stroke:#000000;stroke-width:1.0;"/><text fill="#000000" font-family="Verdana" font-size="14" lengthAdjust="spacing" textLength="90" x="1990" y="752.5645">pii_flag: bool</text><ellipse cx="1983" cy="765.5112" fill="none" rx="3" ry="3" style="stroke:#000000;stroke-width:1.0;"/><text fill="#000000" font-family="Verdana" font-size="14" lengthAdjust="spacing" textLength="74" x="1990" y="769.5791">owner: str</text><ellipse cx="1983" cy="782.5259" fill="none" rx="3" ry="3" style="stroke:#000000;stroke-width:1.0;"/><text fill="#000000" font-family="Verdana" font-size="14" lengthAdjust="spacing" textLength="176" x="1990" y="786.5938">sla_freshness_hours: int</text><ellipse cx="1983" cy="799.5405" fill="none" rx="3" ry="3" style="stroke:#000000;stroke-width:1.0;"/><text fill="#000000" font-family="Verdana" font-size="14" lengthAdjust="spacing" textLength="194" x="1990" y="803.6084">expected_columns: list[str]</text><ellipse cx="1983" cy="816.5552" fill="none" rx="3" ry="3" style="stroke:#000000;stroke-width:1.0;"/><text fill="#000000" font-family="Verdana" font-size="14" lengthAdjust="spacing" textLength="82" x="1990" y="820.623">domain: str</text><line style="stroke:#90A4AE;stroke-width:1.0;" x1="1973" x2="2381" y1="827.5625" y2="827.5625"/><ellipse cx="1983" cy="841.5698" fill="#FFFFFF" rx="3" ry="3" style="stroke:#000000;stroke-width:1.0;"/><text fill="#000000" font-family="Verdana" font-size="14" lengthAdjust="spacing" textLength="386" x="1990" y="845.6377">retrieved_by: str  ' RAGRetriever.embed_and_search()</text></g><!--class ComplexityReport--><g id="elem_ComplexityReport"><rect codeLine="96" fill="#ECEFF1" height="129.0732" id="ComplexityReport" rx="2.5" ry="2.5" style="stroke:#90A4AE;stroke-width:1.0;" width="171" x="596.5" y="706.4746"/><ellipse cx="617.15" cy="720.4746" fill="#FFFFFF" rx="9" ry="9" style="stroke:#000000;stroke-width:1.0;"/><path d="M619.9156,722.0059 L622.3063,722.7559 Q621.7594,724.7402 620.4781,725.709 Q619.2125,726.6777 617.2438,726.6777 Q614.8219,726.6777 613.2594,725.0215 Q611.7125,723.3652 611.7125,720.4902 Q611.7125,717.459 613.275,715.7871 Q614.8375,714.0996 617.4,714.0996 Q619.6344,714.0996 621.025,715.4121 Q621.8531,716.1934 622.275,717.6621 L619.8375,718.2402 Q619.6188,717.2871 618.9313,716.7402 Q618.2594,716.1934 617.275,716.1934 Q615.9156,716.1934 615.0719,717.1777 Q614.2438,718.1465 614.2438,720.3184 Q614.2438,722.6152 615.0719,723.5996 Q615.9,724.584 617.2281,724.584 Q618.2125,724.584 618.9156,723.959 Q619.6188,723.334 619.9156,722.0059 Z " fill="#000000"/><text fill="#000000" font-family="Verdana" font-size="14" lengthAdjust="spacing" textLength="126" x="630.85" y="726.0425">ComplexityReport</text><line style="stroke:#90A4AE;stroke-width:1.0;" x1="597.5" x2="766.5" y1="734.4746" y2="734.4746"/><ellipse cx="607.5" cy="748.4819" fill="none" rx="3" ry="3" style="stroke:#000000;stroke-width:1.0;"/><text fill="#000000" font-family="Verdana" font-size="14" lengthAdjust="spacing" textLength="127" x="614.5" y="752.5498">within_limits: bool</text><ellipse cx="607.5" cy="765.4966" fill="none" rx="3" ry="3" style="stroke:#000000;stroke-width:1.0;"/><text fill="#000000" font-family="Verdana" font-size="14" lengthAdjust="spacing" textLength="104" x="614.5" y="769.5645">join_count: int</text><ellipse cx="607.5" cy="782.5112" fill="none" rx="3" ry="3" style="stroke:#000000;stroke-width:1.0;"/><text fill="#000000" font-family="Verdana" font-size="14" lengthAdjust="spacing" textLength="144" x="614.5" y="786.5791">subquery_count: int</text><ellipse cx="607.5" cy="799.5259" fill="none" rx="3" ry="3" style="stroke:#000000;stroke-width:1.0;"/><text fill="#000000" font-family="Verdana" font-size="14" lengthAdjust="spacing" textLength="147" x="614.5" y="803.5938">estimated_dbu: float</text><ellipse cx="607.5" cy="816.5405" fill="none" rx="3" ry="3" style="stroke:#000000;stroke-width:1.0;"/><text fill="#000000" font-family="Verdana" font-size="14" lengthAdjust="spacing" textLength="126" x="614.5" y="820.6084">warnings: list[str]</text><line style="stroke:#90A4AE;stroke-width:1.0;" x1="597.5" x2="766.5" y1="827.5479" y2="827.5479"/></g><g id="elem_GMN26"><path d="M2976,254.4746 L2976,286.9746 L1749.56,290.9746 L2976,294.9746 L2976,327.6719 A0,0 0 0 0 2976,327.6719 L3280,327.6719 A0,0 0 0 0 3280,327.6719 L3280,264.4746 L3270,254.4746 L2976,254.4746 A0,0 0 0 0 2976,254.4746 " fill="#FFF9C4" style="stroke:#F9A825;stroke-width:1.0;"/><path d="M3270,254.4746 L3270,264.4746 L3280,264.4746 L3270,254.4746 " fill="#FFF9C4" style="stroke:#F9A825;stroke-width:1.0;"/><text fill="#000000" font-family="Verdana" font-size="13" lengthAdjust="spacing" textLength="216" x="2982" y="272.5444">Entry point for all SQL submitted</text><text fill="#000000" font-family="Verdana" font-size="13" lengthAdjust="spacing" textLength="247" x="2982" y="288.3438">via the DQ Agent before persistence.</text><text fill="#000000" font-family="Verdana" font-size="13" lengthAdjust="spacing" textLength="259" x="2982" y="304.1431">Any FAILED check blocks rule creation.</text><text fill="#000000" font-family="Verdana" font-size="13" lengthAdjust="spacing" textLength="283" x="2982" y="319.9424">Returns sanitised SQL + recommendations.</text></g><g id="elem_GMN29"><path d="M2976,502.4746 L2976,559.8726 L3234,559.8726 L3234,512.4746 L3224,502.4746 L2976,502.4746 " fill="#FFF9C4" style="stroke:#F9A825;stroke-width:1.0;"/><path d="M3224,502.4746 L3224,512.4746 L3234,512.4746 L3224,502.4746 " fill="#FFF9C4" style="stroke:#F9A825;stroke-width:1.0;"/><text fill="#000000" font-family="Verdana" font-size="13" lengthAdjust="spacing" textLength="213" x="2982" y="520.5444">DQ rules MUST be SELECT-only.</text><text fill="#000000" font-family="Verdana" font-size="13" lengthAdjust="spacing" textLength="217" x="2982" y="536.3438">Any data-modifying statement is</text><text fill="#000000" font-family="Verdana" font-size="13" lengthAdjust="spacing" textLength="237" x="2982" y="552.1431">an absolute block -- no exceptions.</text></g><g id="elem_GMN32"><path d="M2976.5,742.4746 L2976.5,799.8726 A0,0 0 0 0 2976.5,799.8726 L3361.5,799.8726 A0,0 0 0 0 3361.5,799.8726 L3361.5,752.4746 L3351.5,742.4746 L3119.72,742.4746 L2816.17,587.0246 L3111.72,742.4746 L2976.5,742.4746 A0,0 0 0 0 2976.5,742.4746 " fill="#FFF9C4" style="stroke:#F9A825;stroke-width:1.0;"/><path d="M3351.5,742.4746 L3351.5,752.4746 L3361.5,752.4746 L3351.5,742.4746 " fill="#FFF9C4" style="stroke:#F9A825;stroke-width:1.0;"/><text fill="#000000" font-family="Verdana" font-size="13" lengthAdjust="spacing" textLength="144" x="2982.5" y="760.5444">Patterns loaded from:</text><text fill="#000000" font-family="Verdana" font-size="13" lengthAdjust="spacing" textLength="364" x="2982.5" y="776.3438">/Volumes/.../dq_documentation/security_patterns.json</text><text fill="#000000" font-family="Verdana" font-size="13" lengthAdjust="spacing" textLength="298" x="2982.5" y="792.1431">Allows pattern updates without code deploy.</text></g><!--link SecurityGuard to InjectionPatternMatcher--><g id="link_SecurityGuard_InjectionPatternMatcher"><path codeLine="106" d="M1749.92,313.1946 C1947.93,336.1346 2250.52,379.1646 2506,449.4746 C2531.24,456.4246 2552.0167,463.3254 2577.1267,472.8054 " fill="none" id="SecurityGuard-to-InjectionPatternMatcher" style="stroke:#546E7A;stroke-width:1.0;"/><polygon fill="#546E7A" points="2582.74,474.9246,2575.7329,468.0036,2578.0623,473.1586,2572.9073,475.4879,2582.74,474.9246" style="stroke:#546E7A;stroke-width:1.0;"/><text fill="#000000" font-family="Verdana" font-size="13" lengthAdjust="spacing" textLength="30" x="2377" y="416.5444">uses</text><text fill="#000000" font-family="Verdana" font-size="13" lengthAdjust="spacing" textLength="8" x="1757.6796" y="311.806">1</text><text fill="#000000" font-family="Verdana" font-size="13" lengthAdjust="spacing" textLength="8" x="2556.2816" y="464.1098">1</text></g><!--link SecurityGuard to DDLDMLBlocklist--><g id="link_SecurityGuard_DDLDMLBlocklist"><path codeLine="107" d="M1326.45,307.2946 C1105.3,326.8646 749.67,368.3846 452,449.4746 C442.73,451.9946 439.0158,452.989 429.5758,456.059 " fill="none" id="SecurityGuard-to-DDLDMLBlocklist" style="stroke:#546E7A;stroke-width:1.0;"/><polygon fill="#546E7A" points="423.87,457.9146,433.6658,458.9351,428.6249,456.3683,431.1917,451.3273,423.87,457.9146" style="stroke:#546E7A;stroke-width:1.0;"/><text fill="#000000" font-family="Verdana" font-size="13" lengthAdjust="spacing" textLength="30" x="627" y="416.5444">uses</text><text fill="#000000" font-family="Verdana" font-size="13" lengthAdjust="spacing" textLength="8" x="1310.7037" y="305.6939">1</text><text fill="#000000" font-family="Verdana" font-size="13" lengthAdjust="spacing" textLength="8" x="433.9027" y="447.2121">1</text></g><!--link SecurityGuard to DangerousFunctionBlocklist--><g id="link_SecurityGuard_DangerousFunctionBlocklist"><path codeLine="108" d="M1386.67,372.5546 C1329.17,403.1646 1269.8359,434.7545 1215.6959,463.5845 " fill="none" id="SecurityGuard-to-DangerousFunctionBlocklist" style="stroke:#546E7A;stroke-width:1.0;"/><polygon fill="#546E7A" points="1210.4,466.4046,1220.224,465.705,1214.8133,464.0545,1216.4638,458.6438,1210.4,466.4046" style="stroke:#546E7A;stroke-width:1.0;"/><text fill="#000000" font-family="Verdana" font-size="13" lengthAdjust="spacing" textLength="30" x="1328" y="416.5444">uses</text><text fill="#000000" font-family="Verdana" font-size="13" lengthAdjust="spacing" textLength="8" x="1364.8359" y="393.5891">1</text><text fill="#000000" font-family="Verdana" font-size="13" lengthAdjust="spacing" textLength="8" x="1216.4644" y="455.7351">1</text></g><!--link SecurityGuard to ComplexityAnalyser--><g id="link_SecurityGuard_ComplexityAnalyser"><path codeLine="109" d="M1326.25,340.2246 C1204.36,369.2446 1048.72,408.4446 912,449.4746 C906.33,451.1746 906.3195,451.1534 900.5295,452.9534 " fill="none" id="SecurityGuard-to-ComplexityAnalyser" style="stroke:#546E7A;stroke-width:1.0;"/><polygon fill="#546E7A" points="894.8,454.7346,904.5817,455.8825,899.5746,453.2503,902.2068,448.2431,894.8,454.7346" style="stroke:#546E7A;stroke-width:1.0;"/><text fill="#000000" font-family="Verdana" font-size="13" lengthAdjust="spacing" textLength="30" x="1066" y="416.5444">uses</text><text fill="#000000" font-family="Verdana" font-size="13" lengthAdjust="spacing" textLength="8" x="1310.4965" y="339.8073">1</text><text fill="#000000" font-family="Verdana" font-size="13" lengthAdjust="spacing" textLength="8" x="902.5913" y="449.8075">1</text></g><!--link SecurityGuard to SelectEnforcer--><g id="link_SecurityGuard_SelectEnforcer"><path codeLine="110" d="M1587.09,372.5546 C1609.52,409.3646 1632.1781,446.5507 1651.3581,478.0307 " fill="none" id="SecurityGuard-to-SelectEnforcer" style="stroke:#546E7A;stroke-width:1.0;"/><polygon fill="#546E7A" points="1654.48,483.1546,1653.2131,473.3876,1651.8785,478.8847,1646.3813,477.55,1654.48,483.1546" style="stroke:#546E7A;stroke-width:1.0;"/><text fill="#000000" font-family="Verdana" font-size="13" lengthAdjust="spacing" textLength="30" x="1615" y="416.5444">uses</text><text fill="#000000" font-family="Verdana" font-size="13" lengthAdjust="spacing" textLength="8" x="1583.1058" y="393.5891">1</text><text fill="#000000" font-family="Verdana" font-size="13" lengthAdjust="spacing" textLength="8" x="1641.5004" y="472.8114">1</text></g><!--link SecurityGuard to SecurityReport--><g id="link_SecurityGuard_SecurityReport"><path codeLine="111" d="M1489.25,372.5546 C1472.52,400.1946 1457.0255,425.8108 1440.7355,452.7408 " fill="none" id="SecurityGuard-to-SecurityReport" style="stroke:#546E7A;stroke-width:1.0;"/><polygon fill="#546E7A" points="1437.63,457.8746,1445.7107,452.2442,1440.2179,453.5964,1438.8656,448.1036,1437.63,457.8746" style="stroke:#546E7A;stroke-width:1.0;"/><text fill="#000000" font-family="Verdana" font-size="13" lengthAdjust="spacing" textLength="60" x="1471" y="416.5444">produces</text><text fill="#000000" font-family="Verdana" font-size="13" lengthAdjust="spacing" textLength="8" x="1476.552" y="393.5891">1</text><text fill="#000000" font-family="Verdana" font-size="13" lengthAdjust="spacing" textLength="8" x="1433.9645" y="447.1677">1</text></g><!--link SecurityGuard to RuleContext--><g id="link_SecurityGuard_RuleContext"><path codeLine="112" d="M1749.89,370.8946 C1817.64,396.1346 1887.0874,421.9904 1955.1474,447.3404 " fill="none" id="SecurityGuard-to-RuleContext" style="stroke:#546E7A;stroke-width:1.0;stroke-dasharray:7.0,7.0;"/><polygon fill="#546E7A" points="1960.77,449.4346,1953.7322,442.5448,1956.0845,447.6894,1950.9399,450.0417,1960.77,449.4346" style="stroke:#546E7A;stroke-width:1.0;"/><text fill="#000000" font-family="Verdana" font-size="13" lengthAdjust="spacing" textLength="65" x="1877" y="416.5444">consumes</text></g><!--reverse link SecurityReport to Violation--><g id="link_SecurityReport_Violation"><path codeLine="113" d="M1394,616.0246 C1394,648.5946 1394,674.7346 1394,706.2446 " fill="none" id="SecurityReport-backto-Violation" style="stroke:#546E7A;stroke-width:1.0;"/><polygon fill="#546E7A" points="1394,604.0246,1390,610.0246,1394,616.0246,1398,610.0246,1394,604.0246" style="stroke:#546E7A;stroke-width:1.0;"/><text fill="#000000" font-family="Verdana" font-size="13" lengthAdjust="spacing" textLength="56" x="1395" y="656.5444">contains</text><text fill="#000000" font-family="Verdana" font-size="13" lengthAdjust="spacing" textLength="8" x="1385.6063" y="625.0586">1</text><text fill="#000000" font-family="Verdana" font-size="13" lengthAdjust="spacing" textLength="9" x="1384.4516" y="695.5556">*</text></g><!--link ComplexityAnalyser to ComplexityReport--><g id="link_ComplexityAnalyser_ComplexityReport"><path codeLine="114" d="M682,612.5546 C682,643.1646 682,671.5746 682,700.4046 " fill="none" id="ComplexityAnalyser-to-ComplexityReport" style="stroke:#546E7A;stroke-width:1.0;"/><polygon fill="#546E7A" points="682,706.4046,686,697.4046,682,701.4046,678,697.4046,682,706.4046" style="stroke:#546E7A;stroke-width:1.0;"/><text fill="#000000" font-family="Verdana" font-size="13" lengthAdjust="spacing" textLength="60" x="683" y="656.5444">produces</text></g><!--reverse link RuleContext to DataContractContext--><g id="link_RuleContext_DataContractContext"><path codeLine="115" d="M2177,624.5546 C2177,649.2246 2177,664.3746 2177,689.0746 " fill="none" id="RuleContext-backto-DataContractContext" style="stroke:#546E7A;stroke-width:1.0;"/><polygon fill="#546E7A" points="2177,612.5546,2173,618.5546,2177,624.5546,2181,618.5546,2177,612.5546" style="stroke:#546E7A;stroke-width:1.0;"/><text fill="#000000" font-family="Verdana" font-size="13" lengthAdjust="spacing" textLength="137" x="2178" y="656.5444">carries RAG contract</text><text fill="#000000" font-family="Verdana" font-size="13" lengthAdjust="spacing" textLength="8" x="2168.6438" y="633.5891">1</text><text fill="#000000" font-family="Verdana" font-size="13" lengthAdjust="spacing" textLength="26" x="2149.7609" y="678.6567">0..1</text></g><!--link DDLDMLBlocklist to GMN29--><g id="link_DDLDMLBlocklist_GMN29"><path d="M360.63,457.8946 C393.96,438.7646 431.93,420.7746 469.5,410.9746 C599.86,376.9846 2764.27,376.4646 2894.5,410.9746 C2961.19,428.6446 3028.82,472.9246 3068.82,502.4646 " fill="none" id="DDLDMLBlocklist-GMN29" style="stroke:#546E7A;stroke-width:1.0;stroke-dasharray:7.0,7.0;"/></g><!--SRC=[jLTDSzis4BthLspTGvpOLfBMQHlFE3CqHJcSq992oNOxJOO3aP2460GO0BIjklxlNL0aHSfo4X_A2qbWFzukTX-0dyo2fXGoJfZe66Ou1VSGpcH2EHmSG42lyUFm25mSWHuZSqNIJs9CurmniuJJdAW49zDC2YeCm6wOeuaBmbb2Z5GmfkgQnVHvfwElcCW8gaFCYTOd9BwQAvcBn9KS1N_sNA_VV_r0JAg4gbBaxIldqF4Q8aGfULDElZdypVlTQKmAQUW3B_r-_wrxk2dLTD9_w_pnovjE9qDLCgUmatoDPYX9RwIwwbvNaNLrcOCTkEjqO8KMgiIiydA7um1xK2hHNVsL7u4sQXzYAGozDKTWy-MkVfx3KMqWf9bKfj0_W2XUqFWgOk8BZGsJ8ig8CLG9NHkqgfnfy_S5avnOcSzjtIJXKPBow8ekCOxaAPf4p2ccK4UpN1Jkdw3yDQTg6SLO7vpUObWjJRSURaTBnKogc4QQSemtaeAtzQPIyafM4y4CqnIJa-LcLv6Rg2cABvIyNo-GN-Lmj4hX6J68L9LBTG1LPiku5EsMWf_BjKojmiC457Og6Iv9ibuZNEePczl_HQqpm7QfCuLfO9ok5J28qYfAVwvTjB4qOkhrWjvPSC9bV6K5wrXEWg7xmUj57xo_BeTXRtm4CoN_eKBJbUKIxPqsk7JnFVIyldCUJE0OxdhXSBGF_c3iXPDzE1_rd8ctZmA1X-zF0i099bwu3vFmVE0MSsxe5M_lJyyj9Cwyy1J_GsyKE2v-32-yy3Bq9zvzwTUs0BAEZgOMEKssh_4UpAc9hglwsb9xPIZDX5Gbsoyhzl7Sz17_n1yEdfASsooAqqGlAESOriWRXCFBiJSfeZuv3pxKUGk6JWymTSu-KEI0_p_mTKSvWl2bRXHsIcwZBvBPocP8rCVmfZ6XywdjL4RhsLyRirGRXcLFaoYPvfWdB6yhyhhxgWHALiw-tznxKDd2gjV6scjmeaP6la8AjAynrHgZjfOAV-jcoOLP1T9oXwZR8kkGjiZTDndRaeoteXnLKpRJtwUVFJl2ieXJaZ0njusSuYROThXYe08OneL4PGkAMhd8B3Ew-qssQky6DRWCvsZIGhAka-sCZ5XnAxUsrf1mh6JFf2RDSaBHLJ19osQZBuoC4XQRNGlRVhHnryvho3RMfeE4OWkqNBRm0Jn3Hl4dlki4y2-yzq_Vu-lCw_ddP_WH32-hL4ZDhADr1Q2bV3x7EiEePknsIrORMswDByTUYLZI15GCASdfjl3951bRuAcWgH5BdgUY6DwYGyKrKrBOfQzZJEWrXfCfcLHv8OP41KmsOp5PXLOAZtmVXVl-m1cuVf4NVu0iF2W-H-SdWUzMoqTiDGgZI8o-UcZJBV-gkD5S9hESsxQ6wH92vpIaMCrs4ImJfWKIg8niykj3WtVVp4p6M3JZPDwgMNaZg6gL02TurA9w8R3xeuNCbMwkAxtDi25nMLTvtfBYHAP8hEr2NWMLHDDrPJM3xT9qYhD4O0zGed1lV_uOfsvquGqp2oOYpb9cT2imIqyh6cgNvRGw3ctCR2FOoWbH0hb5Rr8-0dm6nyV7kBy6Jh61lVT7OplIQPz1Trxlu47-NV5-zFI3JOpLhh-bkdd8M3y_eFluVlnzvIrxsWyxtY3t9u7UuDwMhctOF7wWRvzkzrqfrgIPzdDa-qhdQSD0wSLwVe7thfqNEmqIXMtwnH6YioKxDe87HTl0tCHL-tlLxUBdLgQeVU9j2xTJsprhNkZO-nCeDbyOaBFs_GSBrKEn9JADFLJW8W3X7COV0ziBs3LOyIXppGZWBHHw7y6PsqlabA8etacfqbWYLCIqYsAEM4BVyGEl1yNT0ehJamPbBvoneaMgh22sTex7wFNcLdXyiATrE_XPNFysWzWeTJI9qAmR3MVdumdYWp6UXDt9WJqRLDWiNnwaCc6p9JOirDiy7YLGWWWWKusyXOuAuFPsBIHoMaopxNYcqXZaOGJqIDkYsN905rSEZDGozn6Elxom54droswt-n8li8cCSmkc2FrbTNMjhnpTBreA6mVdyaPNbo38CtjhrGNJoTpWgYSKjwoCosK3xNy0]--></g></svg>