<?xml version="1.0" encoding="us-ascii" standalone="no"?><svg xmlns="http://www.w3.org/2000/svg" xmlns:xlink="http://www.w3.org/1999/xlink" contentStyleType="text/css" height="923px" preserveAspectRatio="none" style="width:3368px;height:923px;background:#FFFFFF;" version="1.1" viewBox="0 0 3368 923" width="3368px" zoomAndPan="magnify"><defs/><g><text fill="#000000" font-family="Verdana" font-size="22" font-weight="bold" lengthAdjust="spacing" textLength="433" x="1463.25" y="37.1182">C4 Model -- Level 4: Code Diagram</text><text fill="#000000" font-family="Verdana" font-size="22" font-weight="bold" lengthAdjust="spacing" textLength="653" x="1353.25" y="63.8555">Security Guard Component  (Rule Validator Service)</text><!--cluster dq_framework--><g id="cluster_dq_framework"><path d="M13.5,85.4746 L129.5,85.4746 A3.75,3.75 0 0 1 132,87.9746 L139,108.4893 L2957.5,108.4893 A2.5,2.5 0 0 1 2960,110.9893 L2960,913.9746 A2.5,2.5 0 0 1 2957.5,916.4746 L13.5,916.4746 A2.5,2.5 0 0 1 11,913.9746 L11,87.9746 A2.5,2.5 0 0 1 13.5,85.4746 " fill="#FFFFFF" style="stroke:#000000;stroke-width:1.0;"/><line style="stroke:#000000;stroke-width:1.0;" x1="11" x2="139" y1="108.4893" y2="108.4893"/><text fill="#000000" font-family="Verdana" font-size="14" font-weight="bold" lengthAdjust="spacing" textLength="115" x="15" y="101.5498">dq_framework</text></g><!--cluster validator--><g id="cluster_validator"><path d="M37.5,129.4746 L106.5,129.4746 A3.75,3.75 0 0 1 109,131.9746 L116,152.4893 L2933.5,152.4893 A2.5,2.5 0 0 1 2936,154.9893 L2936,889.9746 A2.5,2.5 0 0 1 2933.5,892.4746 L37.5,892.4746 A2.5,2.5 0 0 1 35,889.9746 L35,131.9746 A2.5,2.5 0 0 1 37.5,129.4746 " fill="#FFFFFF" style="stroke:#000000;stroke-width:1.0;"/><line style="stroke:#000000;stroke-width:1.0;" x1="35" x2="116" y1="152.4893" y2="152.4893"/><text fill="#000000" font-family="Verdana" font-size="14" font-weight="bold" lengthAdjust="spacing" textLength="68" x="39" y="145.5498">validator</text></g><!--cluster security--><g id="cluster_security"><path d="M61.5,173.4746 L123.5,173.4746 A3.75,3.75 0 0 1 126,175.9746 L133,196.4893 L2909.5,196.4893 A2.5,2.5 0 0 1 2912,198.9893 L2912,865.9746 A2.5,2.5 0 0 1 2909.5,868.4746 L61.5,868.4746 A2.5,2.5 0 0 1 59,865.9746 L59,175.9746 A2.5,2.5 0 0 1 61.5,173.4746 " fill="#FFFFFF" style="stroke:#000000;stroke-width:1.0;"/><line style="stroke:#000000;stroke-width:1.0;" x1="59" x2="133" y1="196.4893" y2="196.4893"/><text fill="#000000" font-family="Verdana" font-size="14" font-weight="bold" lengthAdjust="spacing" textLength="61" x="63" y="189.5498">security</text></g><!--class SecurityGuard--><g id="elem_SecurityGuard"><rect codeLine="12" fill="#ECEFF1" height="163.1025" id="SecurityGuard" rx="2.5" ry="2.5" style="stroke:#90A4AE;stroke-width:1.0;" width="423" x="1326.5" y="209.4746"/><ellipse cx="1484.25" cy="223.4746" fill="#FFFFFF" rx="9" ry="9" style="stroke:#000000;stroke-width:1.0;"/><path d="M1487.0156,219.3496 Q1487.1719,219.1309 1487.3594,219.0215 Q1487.5469,218.9121 1487.7656,218.9121 Q1488.1406,218.9121 1488.375,219.1777 Q1488.6094,219.4277 1488.6094,220.0371 L1488.6094,221.4902 Q1488.6094,222.0996 1488.375,222.3652 Q1488.1406,222.6309 1487.7656,222.6309 Q1487.4219,222.6309 1487.2188,222.4277 Q1487.0156,222.2402 1486.9063,221.7246 Q1486.8594,221.3652 1486.6719,221.1777 Q1486.3438,220.8027 1485.7344,220.584 Q1485.125,220.3652 1484.5,220.3652 Q1483.7344,220.3652 1483.0938,220.6934 Q1482.4688,221.0215 1481.9688,221.7715 Q1481.4844,222.5215 1481.4844,223.5527 L1481.4844,224.6465 Q1481.4844,225.8809 1482.375,226.709 Q1483.2656,227.5215 1484.8594,227.5215 Q1485.7969,227.5215 1486.4531,227.2715 Q1486.8438,227.1152 1487.2656,226.6777 Q1487.5313,226.4121 1487.6719,226.334 Q1487.8281,226.2559 1488.0313,226.2559 Q1488.3594,226.2559 1488.6094,226.5215 Q1488.875,226.7715 1488.875,227.1152 Q1488.875,227.459 1488.5313,227.8652 Q1488.0313,228.4434 1487.2344,228.7715 Q1486.1563,229.2246 1484.8594,229.2246 Q1483.3438,229.2246 1482.1406,228.5996 Q1481.1563,228.0996 1480.4688,227.0371 Q1479.7813,225.959 1479.7813,224.6777 L1479.7813,223.5215 Q1479.7813,222.1934 1480.3906,221.0527 Q1481.0156,219.8965 1482.1094,219.2871 Q1483.2031,218.6621 1484.4375,218.6621 Q1485.1719,218.6621 1485.8125,218.834 Q1486.4688,218.9902 1487.0156,219.3496 Z " fill="#000000"/><text fill="#000000" font-family="Verdana" font-size="14" lengthAdjust="spacing" textLength="100" x="1501.75" y="229.0425">SecurityGuard</text><line style="stroke:#90A4AE;stroke-width:1.0;" x1="1327.5" x2="1748.5" y1="237.4746" y2="237.4746"/><line style="stroke:#90A4AE;stroke-width:1.0;" x1="1327.5" x2="1748.5" y1="245.4746" y2="245.4746"/><ellipse cx="1337.5" cy="259.4819" fill="#FFFFFF" rx="3" ry="3" style="stroke:#000000;stroke-width:1.0;"/><text fill="#000000" font-family="Verdana" font-size="14" lengthAdjust="spacing" textLength="399" x="1344.5" y="263.5498">validate(sql: str, context: RuleContext) : SecurityReport</text><rect fill="#FFFFFF" height="6" style="stroke:#000000;stroke-width:1.0;" width="6" x="1334.5" y="273.4966"/><text fill="#000000" font-family="Verdana" font-size="14" lengthAdjust="spacing" textLength="356" x="1344.5" y="280.5645">_check_injection_patterns(sql: str) : list[Violation]</text><rect fill="#FFFFFF" height="6" style="stroke:#000000;stroke-width:1.0;" width="6" x="1334.5" y="290.5112"/><text fill="#000000" font-family="Verdana" font-size="14" lengthAdjust="spacing" textLength="359" x="1344.5" y="297.5791">_check_ddl_dml_keywords(sql: str) : list[Violation]</text><rect fill="#FFFFFF" height="6" style="stroke:#000000;stroke-width:1.0;" width="6" x="1334.5" y="307.5259"/><text fill="#000000" font-family="Verdana" font-size="14" lengthAdjust="spacing" textLength="377" x="1344.5" y="314.5938">_check_dangerous_functions(sql: str) : list[Violation]</text><rect fill="#FFFFFF" height="6" style="stroke:#000000;stroke-width:1.0;" width="6" x="1334.5" y="324.5405"/><text fill="#000000" font-family="Verdana" font-size="14" lengthAdjust="spacing" textLength="386" x="1344.5" y="331.6084">_check_query_complexity(sql: str) : ComplexityReport</text><rect fill="#FFFFFF" height="6" style="stroke:#000000;stroke-width:1.0;" width="6" x="1334.5" y="341.5552"/><text fill="#000000" font-family="Verdana" font-size="14" lengthAdjust="spacing" textLength="257" x="1344.5" y="348.623">_enforce_select_only(sql: str) : bool</text><rect fill="#FFFFFF" height="6" style="stroke:#000000;stroke-width:1.0;" width="6" x="1334.5" y="358.5698"/><text fill="#000000" font-family="Verdana" font-size="14" lengthAdjust="spacing" textLength="240" x="1344.5" y="365.6377">_sanitise_input(raw_sql: str) : str</text></g><!--class InjectionPatternMatcher--><g id="elem_InjectionPatternMatcher"><rect codeLine="22" fill="#ECEFF1" height="112.0586" id="InjectionPatternMatcher" rx="2.5" ry="2.5" style="stroke:#90A4AE;stroke-width:1.0;" width="372" x="2524" y="474.9746"/><ellipse cx="2622.75" cy="488.9746" fill="#FFFFFF" rx="9" ry="9" style="stroke:#000000;stroke-width:1.0;"/><path d="M2625.5156,484.8496 Q2625.6719,484.6309 2625.8594,484.5215 Q2626.0469,484.4121 2626.2656,484.4121 Q2626.6406,484.4121 2626.875,484.6777 Q2627.1094,484.9277 2627.1094,485.5371 L2627.1094,486.9902 Q2627.1094,487.5996 2626.875,487.8652 Q2626.6406,488.1309 2626.2656,488.1309 Q2625.9219,488.1309 2625.7188,487.9277 Q2625.5156,487.7402 2625.4063,487.2246 Q2625.3594,486.8652 2625.1719,486.6777 Q2624.8438,486.3027 2624.2344,486.084 Q2623.625,485.8652 2623,485.8652 Q2622.2344,485.8652 2621.5938,486.1934 Q2620.9688,486.5215 2620.4688,487.2715 Q2619.9844,488.0215 2619.9844,489.0527 L2619.9844,490.1465 Q2619.9844,491.3809 2620.875,492.209 Q2621.7656,493.0215 2623.3594,493.0215 Q2624.2969,493.0215 2624.9531,492.7715 Q2625.3438,492.6152 2625.7656,492.1777 Q2626.0313,491.9121 2626.1719,491.834 Q2626.3281,491.7559 2626.5313,491.7559 Q2626.8594,491.7559 2627.1094,492.0215 Q2627.375,492.2715 2627.375,492.6152 Q2627.375,492.959 2627.0313,493.3652 Q2626.5313,493.9434 2625.7344,494.2715 Q2624.6563,494.7246 2623.3594,494.7246 Q2621.8438,494.7246 2620.6406,494.0996 Q2619.6563,493.5996 2618.9688,492.5371 Q2618.2813,491.459 2618.2813,490.1777 L2618.2813,489.0215 Q2618.2813,487.6934 2618.8906,486.5527 Q2619.5156,485.3965 2620.6094,484.7871 Q2621.7031,484.1621 2622.9375,484.1621 Q2623.6719,484.1621 2624.3125,484.334 Q2624.9688,484.4902 2625.5156,484.8496 Z " fill="#000000"/><text fill="#000000" font-family="Verdana" font-size="14" lengthAdjust="spacing" textLength="167" x="2640.25" y="494.5425">InjectionPatternMatcher</text><line style="stroke:#90A4AE;stroke-width:1.0;" x1="2525" x2="2895" y1="502.9746" y2="502.9746"/><rect fill="none" height="6" style="stroke:#000000;stroke-width:1.0;" width="6" x="2532" y="513.9819"/><text fill="#000000" font-family="Verdana" font-size="14" lengthAdjust="spacing" textLength="173" x="2542" y="521.0498">patterns: list[re.Pattern]</text><line style="stroke:#90A4AE;stroke-width:1.0;" x1="2525" x2="2895" y1="527.9893" y2="527.9893"/><ellipse cx="2535" cy="541.9966" fill="#FFFFFF" rx="3" ry="3" style="stroke:#000000;stroke-width:1.0;"/><text fill="#000000" font-family="Verdana" font-size="14" lengthAdjust="spacing" textLength="195" x="2542" y="546.0645">match(sql: str) : list[Match]</text><ellipse cx="2535" cy="559.0112" fill="#FFFFFF" rx="3" ry="3" style="stroke:#000000;stroke-width:1.0;"/><text fill="#000000" font-family="Verdana" font-size="14" lengthAdjust="spacing" textLength="276" x="2542" y="563.0791">load_patterns(config_path: str) : None</text><rect fill="#FFFFFF" height="6" style="stroke:#000000;stroke-width:1.0;" width="6" x="2532" y="573.0259"/><text fill="#000000" font-family="Verdana" font-size="14" lengthAdjust="spacing" textLength="348" x="2542" y="580.0938">_compile_patterns(raw: list[str]) : list[re.Pattern]</text></g><!--class DDLDMLBlocklist--><g id="elem_DDLDMLBlocklist"><rect codeLine="29" fill="#ECEFF1" height="146.0879" id="DDLDMLBlocklist" rx="2.5" ry="2.5" style="stroke:#90A4AE;stroke-width:1.0;" width="359" x="75.5" y="457.9746"/><ellipse cx="192.75" cy="471.9746" fill="#FFFFFF" rx="9" ry="9" style="stroke:#000000;stroke-width:1.0;"/><path d="M195.5156,467.8496 Q195.6719,467.6309 195.8594,467.5215 Q196.0469,467.4121 196.2656,467.4121 Q196.6406,467.4121 196.875,467.6777 Q197.1094,467.9277 197.1094,468.5371 L197.1094,469.9902 Q197.1094,470.5996 196.875,470.8652 Q196.6406,471.1309 196.2656,471.1309 Q195.9219,471.1309 195.7188,470.9277 Q195.5156,470.7402 195.4063,470.2246 Q195.3594,469.8652 195.1719,469.6777 Q194.8438,469.3027 194.2344,469.084 Q193.625,468.8652 193,468.8652 Q192.2344,468.8652 191.5938,469.1934 Q190.9688,469.5215 190.4688,470.2715 Q189.9844,471.0215 189.9844,472.0527 L189.9844,473.1465 Q189.9844,474.3809 190.875,475.209 Q191.7656,476.0215 193.3594,476.0215 Q194.2969,476.0215 194.9531,475.7715 Q195.3438,475.6152 195.7656,475.1777 Q196.0313,474.9121 196.1719,474.834 Q196.3281,474.7559 196.5313,474.7559 Q196.8594,474.7559 197.1094,475.0215 Q197.375,475.2715 197.375,475.6152 Q197.375,475.959 197.0313,476.3652 Q196.5313,476.9434 195.7344,477.2715 Q194.6563,477.7246 193.3594,477.7246 Q191.8438,477.7246 190.6406,477.0996 Q189.6563,476.5996 188.9688,475.5371 Q188.2813,474.459 188.2813,473.1777 L188.2813,472.0215 Q188.2813,470.6934 188.8906,469.5527 Q189.5156,468.3965 190.6094,467.7871 Q191.7031,467.1621 192.9375,467.1621 Q193.6719,467.1621 194.3125,467.334 Q194.9688,467.4902 195.5156,467.8496 Z " fill="#000000"/><text fill="#000000" font-family="Verdana" font-size="14" lengthAdjust="spacing" textLength="117" x="210.25" y="477.5425">DDLDMLBlocklist</text><line style="stroke:#90A4AE;stroke-width:1.0;" x1="76.5" x2="433.5" y1="485.9746" y2="485.9746"/><rect fill="none" height="6" style="stroke:#000000;stroke-width:1.0;" width="6" x="83.5" y="496.9819"/><text fill="#000000" font-family="Verdana" font-size="14" lengthAdjust="spacing" textLength="273" x="93.5" y="504.0498">BLOCKED_KEYWORDS: frozenset[str]</text><ellipse cx="86.5" cy="534.0112" fill="none" rx="3" ry="3" style="stroke:#000000;stroke-width:1.0;"/><text fill="#000000" font-family="Verdana" font-size="14" lengthAdjust="spacing" text-decoration="underline" textLength="335" x="93.5" y="521.0645">DEFAULT = {DROP, INSERT, UPDATE, DELETE,</text><text fill="#000000" font-family="Verdana" font-size="14" lengthAdjust="spacing" text-decoration="underline" textLength="253" x="103.5" y="538.0791">ALTER, TRUNCATE, CREATE, EXEC,</text><text fill="#000000" font-family="Verdana" font-size="14" lengthAdjust="spacing" text-decoration="underline" textLength="231" x="103.5" y="555.0938">MERGE, REPLACE, OVERWRITE}</text><line style="stroke:#90A4AE;stroke-width:1.0;" x1="76.5" x2="433.5" y1="562.0332" y2="562.0332"/><ellipse cx="86.5" cy="576.0405" fill="#FFFFFF" rx="3" ry="3" style="stroke:#000000;stroke-width:1.0;"/><text fill="#000000" font-family="Verdana" font-size="14" lengthAdjust="spacing" textLength="230" x="93.5" y="580.1084">contains_blocked(sql: str) : bool</text><ellipse cx="86.5" cy="593.0552" fill="#FFFFFF" rx="3" ry="3" style="stroke:#000000;stroke-width:1.0;"/><text fill="#000000" font-family="Verdana" font-size="14" lengthAdjust="spacing" textLength="229" x="93.5" y="597.123">get_violations(sql: str) : list[str]</text></g><!--class DangerousFunctionBlocklist--><g id="elem_DangerousFunctionBlocklist"><rect codeLine="36" fill="#ECEFF1" height="129.0732" id="DangerousFunctionBlocklist" rx="2.5" ry="2.5" style="stroke:#90A4AE;stroke-width:1.0;" width="323" x="929.5" y="466.4746"/><ellipse cx="990.25" cy="480.4746" fill="#FFFFFF" rx="9" ry="9" style="stroke:#000000;stroke-width:1.0;"/><path d="M993.0156,476.3496 Q993.1719,476.1309 993.3594,476.0215 Q993.5469,475.9121 993.7656,475.9121 Q994.1406,475.9121 994.375,476.1777 Q994.6094,476.4277 994.6094,477.0371 L994.6094,478.4902 Q994.6094,479.0996 994.375,479.3652 Q994.1406,479.6309 993.7656,479.6309 Q993.4219,479.6309 993.2188,479.4277 Q993.0156,479.2402 992.9063,478.7246 Q992.8594,478.3652 992.6719,478.1777 Q992.3438,477.8027 991.7344,477.584 Q991.125,477.3652 990.5,477.3652 Q989.7344,477.3652 989.0938,477.6934 Q988.4688,478.0215 987.9688,478.7715 Q987.4844,479.5215 987.4844,480.5527 L987.4844,481.6465 Q987.4844,482.8809 988.375,483.709 Q989.2656,484.5215 990.8594,484.5215 Q991.7969,484.5215 992.4531,484.2715 Q992.8438,484.1152 993.2656,483.6777 Q993.5313,483.4121 993.6719,483.334 Q993.8281,483.2559 994.0313,483.2559 Q994.3594,483.2559 994.6094,483.5215 Q994.875,483.7715 994.875,484.1152 Q994.875,484.459 994.5313,484.8652 Q994.0313,485.4434 993.2344,485.7715 Q992.1563,486.2246 990.8594,486.2246 Q989.3438,486.2246 988.1406,485.5996 Q987.1563,485.0996 986.4688,484.0371 Q985.7813,482.959 985.7813,481.6777 L985.7813,480.5215 Q985.7813,479.1934 986.3906,478.0527 Q987.0156,476.8965 988.1094,476.2871 Q989.2031,475.6621 990.4375,475.6621 Q991.1719,475.6621 991.8125,475.834 Q992.4688,475.9902 993.0156,476.3496 Z " fill="#000000"/><text fill="#000000" font-family="Verdana" font-size="14" lengthAdjust="spacing" textLength="194" x="1007.75" y="486.0425">DangerousFunctionBlocklist</text><line style="stroke:#90A4AE;stroke-width:1.0;" x1="930.5" x2="1251.5" y1="494.4746" y2="494.4746"/><rect fill="none" height="6" style="stroke:#000000;stroke-width:1.0;" width="6" x="937.5" y="505.4819"/><text fill="#000000" font-family="Verdana" font-size="14" lengthAdjust="spacing" textLength="271" x="947.5" y="512.5498">BLOCKED_FUNCTIONS: frozenset[str]</text><ellipse cx="940.5" cy="534.0039" fill="none" rx="3" ry="3" style="stroke:#000000;stroke-width:1.0;"/><text fill="#000000" font-family="Verdana" font-size="14" lengthAdjust="spacing" text-decoration="underline" textLength="299" x="947.5" y="529.5645">DEFAULT = {xp_cmdshell, OPENROWSET,</text><text fill="#000000" font-family="Verdana" font-size="14" lengthAdjust="spacing" text-decoration="underline" textLength="237" x="957.5" y="546.5791">BULK INSERT, LOAD DATA, eval}</text><line style="stroke:#90A4AE;stroke-width:1.0;" x1="930.5" x2="1251.5" y1="553.5186" y2="553.5186"/><ellipse cx="940.5" cy="567.5259" fill="#FFFFFF" rx="3" ry="3" style="stroke:#000000;stroke-width:1.0;"/><text fill="#000000" font-family="Verdana" font-size="14" lengthAdjust="spacing" textLength="230" x="947.5" y="571.5938">contains_blocked(sql: str) : bool</text><ellipse cx="940.5" cy="584.5405" fill="#FFFFFF" rx="3" ry="3" style="stroke:#000000;stroke-width:1.0;"/><text fill="#000000" font-family="Verdana" font-size="14" lengthAdjust="spacing" textLength="229" x="947.5" y="588.6084">get_violations(sql: str) : list[str]</text></g><!--class ComplexityAnalyser--><g id="elem_ComplexityAnalyser"><rect codeLine="43" fill="#ECEFF1" height="163.1025" id="ComplexityAnalyser" rx="2.5" ry="2.5" style="stroke:#90A4AE;stroke-width:1.0;" width="425" x="469.5" y="449.4746"/><ellipse cx="609.25" cy="463.4746" fill="#FFFFFF" rx="9" ry="9" style="stroke:#000000;stroke-width:1.0;"/><path d="M612.0156,459.3496 Q612.1719,459.1309 612.3594,459.0215 Q612.5469,458.9121 612.7656,458.9121 Q613.1406,458.9121 613.375,459.1777 Q613.6094,459.4277 613.6094,460.0371 L613.6094,461.4902 Q613.6094,462.0996 613.375,462.3652 Q613.1406,462.6309 612.7656,462.6309 Q612.4219,462.6309 612.2188,462.4277 Q612.0156,462.2402 611.9063,461.7246 Q611.8594,461.3652 611.6719,461.1777 Q611.3438,460.8027 610.7344,460.584 Q610.125,460.3652 609.5,460.3652 Q608.7344,460.3652 608.0938,460.6934 Q607.4688,461.0215 606.9688,461.7715 Q606.4844,462.5215 606.4844,463.5527 L606.4844,464.6465 Q606.4844,465.8809 607.375,466.709 Q608.2656,467.5215 609.8594,467.5215 Q610.7969,467.5215 611.4531,467.2715 Q611.8438,467.1152 612.2656,466.6777 Q612.5313,466.4121 612.6719,466.334 Q612.8281,466.2559 613.0313,466.2559 Q613.3594,466.2559 613.6094,466.5215 Q613.875,466.7715 613.875,467.1152 Q613.875,467.459 613.5313,467.8652 Q613.0313,468.4434 612.2344,468.7715 Q611.1563,469.2246 609.8594,469.2246 Q608.3438,469.2246 607.1406,468.5996 Q606.1563,468.0996 605.4688,467.0371 Q604.7813,465.959 604.7813,464.6777 L604.7813,463.5215 Q604.7813,462.1934 605.3906,461.0527 Q606.0156,459.8965 607.1094,459.2871 Q608.2031,458.6621 609.4375,458.6621 Q610.1719,458.6621 610.8125,458.834 Q611.4688,458.9902 612.0156,459.3496 Z " fill="#000000"/><text fill="#000000" font-family="Verdana" font-size="14" lengthAdjust="spacing" textLength="138" x="626.75" y="469.0425">ComplexityAnalyser</text><line style="stroke:#90A4AE;stroke-width:1.0;" x1="470.5" x2="893.5" y1="477.4746" y2="477.4746"/><rect fill="none" height="6" style="stroke:#000000;stroke-width:1.0;" width="6" x="477.5" y="488.4819"/><text fill="#000000" font-family="Verdana" font-size="14" lengthAdjust="spacing" textLength="132" x="487.5" y="495.5498">max_joins: int = 5</text><rect fill="none" height="6" style="stroke:#000000;stroke-width:1.0;" width="6" x="477.5" y="505.4966"/><text fill="#000000" font-family="Verdana" font-size="14" lengthAdjust="spacing" textLength="175" x="487.5" y="512.5645">max_subqueries: int = 3</text><rect fill="none" height="6" style="stroke:#000000;stroke-width:1.0;" width="6" x="477.5" y="522.5112"/><text fill="#000000" font-family="Verdana" font-size="14" lengthAdjust="spacing" textLength="230" x="487.5" y="529.5791">max_estimated_dbu: float = 1.0</text><line style="stroke:#90A4AE;stroke-width:1.0;" x1="470.5" x2="893.5" y1="536.5186" y2="536.5186"/><ellipse cx="480.5" cy="550.5259" fill="#FFFFFF" rx="3" ry="3" style="stroke:#000000;stroke-width:1.0;"/><text fill="#000000" font-family="Verdana" font-size="14" lengthAdjust="spacing" textLength="257" x="487.5" y="554.5938">analyse(sql: str) : ComplexityReport</text><ellipse cx="480.5" cy="567.5405" fill="#FFFFFF" rx="3" ry="3" style="stroke:#000000;stroke-width:1.0;"/><text fill="#000000" font-family="Verdana" font-size="14" lengthAdjust="spacing" textLength="401" x="487.5" y="571.6084">estimate_cost_dbu(sql: str, spark: SparkSession) : float</text><rect fill="#FFFFFF" height="6" style="stroke:#000000;stroke-width:1.0;" width="6" x="477.5" y="581.5552"/><text fill="#000000" font-family="Verdana" font-size="14" lengthAdjust="spacing" textLength="189" x="487.5" y="588.623">_count_joins(sql: str) : int</text><rect fill="#FFFFFF" height="6" style="stroke:#000000;stroke-width:1.0;" width="6" x="477.5" y="598.5698"/><text fill="#000000" font-family="Verdana" font-size="14" lengthAdjust="spacing" textLength="232" x="487.5" y="605.6377">_count_subqueries(sql: str) : int</text></g><!--class SelectEnforcer--><g id="elem_SelectEnforcer"><rect codeLine="53" fill="#ECEFF1" height="95.0439" id="SelectEnforcer" rx="2.5" ry="2.5" style="stroke:#90A4AE;stroke-width:1.0;" width="295" x="1535.5" y="483.4746"/><ellipse cx="1628.75" cy="497.4746" fill="#FFFFFF" rx="9" ry="9" style="stroke:#000000;stroke-width:1.0;"/><path d="M1631.5156,493.3496 Q1631.6719,493.1309 1631.8594,493.0215 Q1632.0469,492.9121 1632.2656,492.9121 Q1632.6406,492.9121 1632.875,493.1777 Q1633.1094,493.4277 1633.1094,494.0371 L1633.1094,495.4902 Q1633.1094,496.0996 1632.875,496.3652 Q1632.6406,496.6309 1632.2656,496.6309 Q1631.9219,496.6309 1631.7188,496.4277 Q1631.5156,496.2402 1631.4063,495.7246 Q1631.3594,495.3652 1631.1719,495.1777 Q1630.8438,494.8027 1630.2344,494.584 Q1629.625,494.3652 1629,494.3652 Q1628.2344,494.3652 1627.5938,494.6934 Q1626.9688,495.0215 1626.4688,495.7715 Q1625.9844,496.5215 1625.9844,497.5527 L1625.9844,498.6465 Q1625.9844,499.8809 1626.875,500.709 Q1627.7656,501.5215 1629.3594,501.5215 Q1630.2969,501.5215 1630.9531,501.2715 Q1631.3438,501.1152 1631.7656,500.6777 Q1632.0313,500.4121 1632.1719,500.334 Q1632.3281,500.2559 1632.5313,500.2559 Q1632.8594,500.2559 1633.1094,500.5215 Q1633.375,500.7715 1633.375,501.1152 Q1633.375,501.459 1633.0313,501.8652 Q1632.5313,502.4434 1631.7344,502.7715 Q1630.6563,503.2246 1629.3594,503.2246 Q1627.8438,503.2246 1626.6406,502.5996 Q1625.6563,502.0996 1624.9688,501.0371 Q1624.2813,499.959 1624.2813,498.6777 L1624.2813,497.5215 Q1624.2813,496.1934 1624.8906,495.0527 Q1625.5156,493.8965 1626.6094,493.2871 Q1627.7031,492.6621 1628.9375,492.6621 Q1629.6719,492.6621 1630.3125,492.834 Q1630.9688,492.9902 1631.5156,493.3496 Z " fill="#000000"/><text fill="#000000" font-family="Verdana" font-size="14" lengthAdjust="spacing" textLength="101" x="1646.25" y="503.0425">SelectEnforcer</text><line style="stroke:#90A4AE;stroke-width:1.0;" x1="1536.5" x2="1829.5" y1="511.4746" y2="511.4746"/><line style="stroke:#90A4AE;stroke-width:1.0;" x1="1536.5" x2="1829.5" y1="519.4746" y2="519.4746"/><ellipse cx="1546.5" cy="533.4819" fill="#FFFFFF" rx="3" ry="3" style="stroke:#000000;stroke-width:1.0;"/><text fill="#000000" font-family="Verdana" font-size="14" lengthAdjust="spacing" textLength="207" x="1553.5" y="537.5498">is_select_only(sql: str) : bool</text><ellipse cx="1546.5" cy="550.4966" fill="#FFFFFF" rx="3" ry="3" style="stroke:#000000;stroke-width:1.0;"/><text fill="#000000" font-family="Verdana" font-size="14" lengthAdjust="spacing" textLength="271" x="1553.5" y="554.5645">strip_leading_comments(sql: str) : str</text><rect fill="#FFFFFF" height="6" style="stroke:#000000;stroke-width:1.0;" width="6" x="1543.5" y="564.5112"/><text fill="#000000" font-family="Verdana" font-size="14" lengthAdjust="spacing" textLength="268" x="1553.5" y="571.5791">_parse_statement_type(sql: str) : str</text></g><!--class SecurityReport--><g id="elem_SecurityReport"><rect codeLine="59" fill="#ECEFF1" height="146.0879" id="SecurityReport" rx="2.5" ry="2.5" style="stroke:#90A4AE;stroke-width:1.0;" width="212" x="1288" y="457.9746"/><ellipse cx="1337.75" cy="471.9746" fill="#FFFFFF" rx="9" ry="9" style="stroke:#000000;stroke-width:1.0;"/><path d="M1340.5156,467.8496 Q1340.6719,467.6309 1340.8594,467.5215 Q1341.0469,467.4121 1341.2656,467.4121 Q1341.6406,467.4121 1341.875,467.6777 Q1342.1094,467.9277 1342.1094,468.5371 L1342.1094,469.9902 Q1342.1094,470.5996 1341.875,470.8652 Q1341.6406,471.1309 1341.2656,471.1309 Q1340.9219,471.1309 1340.7188,470.9277 Q1340.5156,470.7402 1340.4063,470.2246 Q1340.3594,469.8652 1340.1719,469.6777 Q1339.8438,469.3027 1339.2344,469.084 Q1338.625,468.8652 1338,468.8652 Q1337.2344,468.8652 1336.5938,469.1934 Q1335.9688,469.5215 1335.4688,470.2715 Q1334.9844,471.0215 1334.9844,472.0527 L1334.9844,473.1465 Q1334.9844,474.3809 1335.875,475.209 Q1336.7656,476.0215 1338.3594,476.0215 Q1339.2969,476.0215 1339.9531,475.7715 Q1340.3438,475.6152 1340.7656,475.1777 Q1341.0313,474.9121 1341.1719,474.834 Q1341.3281,474.7559 1341.5313,474.7559 Q1341.8594,474.7559 1342.1094,475.0215 Q1342.375,475.2715 1342.375,475.6152 Q1342.375,475.959 1342.0313,476.3652 Q1341.5313,476.9434 1340.7344,477.2715 Q1339.6563,477.7246 1338.3594,477.7246 Q1336.8438,477.7246 1335.6406,477.0996 Q1334.6563,476.5996 1333.9688,475.5371 Q1333.2813,474.459 1333.2813,473.1777 L1333.2813,472.0215 Q1333.2813,470.6934 1333.8906,469.5527 Q1334.5156,468.3965 1335.6094,467.7871 Q1336.7031,467.1621 1337.9375,467.1621 Q1338.6719,467.1621 1339.3125,467.334 Q1339.9688,467.4902 1340.5156,467.8496 Z " fill="#000000"/><text fill="#000000" font-family="Verdana" font-size="14" lengthAdjust="spacing" textLength="105" x="1355.25" y="477.5425">SecurityReport</text><line style="stroke:#90A4AE;stroke-width:1.0;" x1="1289" x2="1499" y1="485.9746" y2="485.9746"/><ellipse cx="1299" cy="499.9819" fill="none" rx="3" ry="3" style="stroke:#000000;stroke-width:1.0;"/><text fill="#000000" font-family="Verdana" font-size="14" lengthAdjust="spacing" textLength="91" x="1306" y="504.0498">passed: bool</text><ellipse cx="1299" cy="516.9966" fill="none" rx="3" ry="3" style="stroke:#000000;stroke-width:1.0;"/><text fill="#000000" font-family="Verdana" font-size="14" lengthAdjust="spacing" textLength="169" x="1306" y="521.0645">violations: list[Violation]</text><ellipse cx="1299" cy="534.0112" fill="none" rx="3" ry="3" style="stroke:#000000;stroke-width:1.0;"/><text fill="#000000" font-family="Verdana" font-size="14" lengthAdjust="spacing" textLength="86" x="1306" y="538.0791">severity: str</text><ellipse cx="1299" cy="551.0259" fill="none" rx="3" ry="3" style="stroke:#000000;stroke-width:1.0;"/><text fill="#000000" font-family="Verdana" font-size="14" lengthAdjust="spacing" textLength="122" x="1306" y="555.0938">sanitised_sql: str</text><ellipse cx="1299" cy="568.0405" fill="none" rx="3" ry="3" style="stroke:#000000;stroke-width:1.0;"/><text fill="#000000" font-family="Verdana" font-size="14" lengthAdjust="spacing" textLength="188" x="1306" y="572.1084">recommendations: list[str]</text><line style="stroke:#90A4AE;stroke-width:1.0;" x1="1289" x2="1499" y1="579.0479" y2="579.0479"/><ellipse cx="1299" cy="593.0552" fill="#FFFFFF" rx="3" ry="3" style="stroke:#000000;stroke-width:1.0;"/><text fill="#000000" font-family="Verdana" font-size="14" lengthAdjust="spacing" textLength="102" x="1306" y="597.123">to_dict() : dict</text></g><!--class Violation--><g id="elem_Violation"><rect codeLine="68" fill="#ECEFF1" height="129.0732" id="Violation" rx="2.5" ry="2.5" style="stroke:#90A4AE;stroke-width:1.0;" width="371" x="1208.5" y="706.4746"/><ellipse cx="1360.25" cy="720.4746" fill="#FFFFFF" rx="9" ry="9" style="stroke:#000000;stroke-width:1.0;"/><path d="M1363.0156,716.3496 Q1363.1719,716.1309 1363.3594,716.0215 Q1363.5469,715.9121 1363.7656,715.9121 Q1364.1406,715.9121 1364.375,716.1777 Q1364.6094,716.4277 1364.6094,717.0371 L1364.6094,718.4902 Q1364.6094,719.0996 1364.375,719.3652 Q1364.1406,719.6309 1363.7656,719.6309 Q1363.4219,719.6309 1363.2188,719.4277 Q1363.0156,719.2402 1362.9063,718.7246 Q1362.8594,718.3652 1362.6719,718.1777 Q1362.3438,717.8027 1361.7344,717.584 Q1361.125,717.3652 1360.5,717.3652 Q1359.7344,717.3652 1359.0938,717.6934 Q1358.4688,718.0215 1357.9688,718.7715 Q1357.4844,719.5215 1357.4844,720.5527 L1357.4844,721.6465 Q1357.4844,722.8809 1358.375,723.709 Q1359.2656,724.5215 1360.8594,724.5215 Q1361.7969,724.5215 1362.4531,724.2715 Q1362.8438,724.1152 1363.2656,723.6777 Q1363.5313,723.4121 1363.6719,723.334 Q1363.8281,723.2559 1364.0313,723.2559 Q1364.3594,723.2559 1364.6094,723.5215 Q1364.875,723.7715 1364.875,724.1152 Q1364.875,724.459 1364.5313,724.8652 Q1364.0313,725.4434 1363.2344,725.7715 Q1362.1563,726.2246 1360.8594,726.2246 Q1359.3438,726.2246 1358.1406,725.5996 Q1357.1563,725.0996 1356.4688,724.0371 Q1355.7813,722.959 1355.7813,721.6777 L1355.7813,720.5215 Q1355.7813,719.1934 1356.3906,718.0527 Q1357.0156,716.8965 1358.1094,716.2871 Q1359.2031,715.6621 1360.4375,715.6621 Q1361.1719,715.6621 1361.8125,715.834 Q1362.4688,715.9902 1363.0156,716.3496 Z " fill="#000000"/><text fill="#000000" font-family="Verdana" font-size="14" lengthAdjust="spacing" textLength="60" x="1377.75" y="726.0425">Violation</text><line style="stroke:#90A4AE;stroke-width:1.0;" x1="1209.5" x2="1578.5" y1="734.4746" y2="734.4746"/><ellipse cx="1219.5" cy="748.4819" fill="none" rx="3" ry="3" style="stroke:#000000;stroke-width:1.0;"/><text fill="#000000" font-family="Verdana" font-size="14" lengthAdjust="spacing" textLength="62" x="1226.5" y="752.5498">type: str</text><ellipse cx="1219.5" cy="765.4966" fill="none" rx="3" ry="3" style="stroke:#000000;stroke-width:1.0;"/><text fill="#000000" font-family="Verdana" font-size="14" lengthAdjust="spacing" textLength="68" x="1226.5" y="769.5645">detail: str</text><ellipse cx="1219.5" cy="782.5112" fill="none" rx="3" ry="3" style="stroke:#000000;stroke-width:1.0;"/><text fill="#000000" font-family="Verdana" font-size="14" lengthAdjust="spacing" textLength="347" x="1226.5" y="786.5791">severity: str  ' CRITICAL | HIGH | MEDIUM | LOW</text><ellipse cx="1219.5" cy="799.5259" fill="none" rx="3" ry="3" style="stroke:#000000;stroke-width:1.0;"/><text fill="#000000" font-family="Verdana" font-size="14" lengthAdjust="spacing" textLength="85" x="1226.5" y="803.5938">position: int</text><ellipse cx="1219.5" cy="816.5405" fill="none" rx="3" ry="3" style="stroke:#000000;stroke-width:1.0;"/><text fill="#000000" font-family="Verdana" font-size="14" lengthAdjust="spacing" textLength="131" x="1226.5" y="820.6084">suggested_fix: str</text><line style="stroke:#90A4AE;stroke-width:1.0;" x1="1209.5" x2="1578.5" y1="827.5479" y2="827.5479"/></g><!--class RuleContext--><g id="elem_RuleContext"><rect codeLine="76" fill="#ECEFF1" height="163.1025" id="RuleContext" rx="2.5" ry="2.5" style="stroke:#90A4AE;stroke-width:1.0;" width="623" x="1865.5" y="449.4746"/><ellipse cx="2129.75" cy="463.4746" fill="#FFFFFF" rx="9" ry="9" style="stroke:#000000;stroke-width:1.0;"/><path d="M2132.5156,459.3496 Q2132.6719,459.1309 2132.8594,459.0215 Q2133.0469,458.9121 2133.2656,458.9121 Q2133.6406,458.9121 2133.875,459.1777 Q2134.1094,459.4277 2134.1094,460.0371 L2134.1094,461.4902 Q2134.1094,462.0996 2133.875,462.3652 Q2133.6406,462.6309 2133.2656,462.6309 Q2132.9219,462.6309 2132.7188,462.4277 Q2132.5156,462.2402 2132.4063,461.7246 Q2132.3594,461.3652 2132.1719,461.1777 Q2131.8438,460.8027 2131.2344,460.584 Q2130.625,460.3652 2130,460.3652 Q2129.2344,460.3652 2128.5938,460.6934 Q2127.9688,461.0215 2127.4688,461.7715 Q2126.9844,462.5215 2126.9844,463.5527 L2126.9844,464.6465 Q2126.9844,465.8809 2127.875,466.709 Q2128.7656,467.5215 2130.3594,467.5215 Q2131.2969,467.5215 2131.9531,467.2715 Q2132.3438,467.1152 2132.7656,466.6777 Q2133.0313,466.4121 2133.1719,466.334 Q2133.3281,466.2559 2133.5313,466.2559 Q2133.8594,466.2559 2134.1094,466.5215 Q2134.375,466.7715 2134.375,467.1152 Q2134.375,467.459 2134.0313,467.8652 Q2133.5313,468.4434 2132.7344,468.7715 Q2131.6563,469.2246 2130.3594,469.2246 Q2128.8438,469.2246 2127.6406,468.5996 Q2126.6563,468.0996 2125.9688,467.0371 Q2125.2813,465.959 2125.2813,464.6777 L2125.2813,463.5215 Q2125.2813,462.1934 2125.8906,461.0527 Q2126.5156,459.8965 2127.6094,459.2871 Q2128.7031,458.6621 2129.9375,458.6621 Q2130.6719,458.6621 2131.3125,458.834 Q2131.9688,458.9902 2132.5156,459.3496 Z " fill="#000000"/><text fill="#000000" font-family="Verdana" font-size="14" lengthAdjust="spacing" textLength="87" x="2147.25" y="469.0425">RuleContext</text><line style="stroke:#90A4AE;stroke-width:1.0;" x1="1866.5" x2="2487.5" y1="477.4746" y2="477.4746"/><ellipse cx="1876.5" cy="491.4819" fill="none" rx="3" ry="3" style="stroke:#000000;stroke-width:1.0;"/><text fill="#000000" font-family="Verdana" font-size="14" lengthAdjust="spacing" textLength="83" x="1883.5" y="495.5498">user_id: str</text><ellipse cx="1876.5" cy="508.4966" fill="none" rx="3" ry="3" style="stroke:#000000;stroke-width:1.0;"/><text fill="#000000" font-family="Verdana" font-size="14" lengthAdjust="spacing" textLength="137" x="1883.5" y="512.5645">user_roles: list[str]</text><ellipse cx="1876.5" cy="525.5112" fill="none" rx="3" ry="3" style="stroke:#000000;stroke-width:1.0;"/><text fill="#000000" font-family="Verdana" font-size="14" lengthAdjust="spacing" textLength="112" x="1883.5" y="529.5791">table_name: str</text><ellipse cx="1876.5" cy="542.5259" fill="none" rx="3" ry="3" style="stroke:#000000;stroke-width:1.0;"/><text fill="#000000" font-family="Verdana" font-size="14" lengthAdjust="spacing" textLength="168" x="1883.5" y="546.5938">column_names: list[str]</text><ellipse cx="1876.5" cy="559.5405" fill="none" rx="3" ry="3" style="stroke:#000000;stroke-width:1.0;"/><text fill="#000000" font-family="Verdana" font-size="14" lengthAdjust="spacing" textLength="212" x="1883.5" y="563.6084">environment: str  ' dev | prod</text><ellipse cx="1876.5" cy="576.5552" fill="none" rx="3" ry="3" style="stroke:#000000;stroke-width:1.0;"/><text fill="#000000" font-family="Verdana" font-size="14" lengthAdjust="spacing" textLength="441" x="1883.5" y="580.623">data_classification: str  ' PII | FINANCIAL | INTERNAL | PUBLIC</text><ellipse cx="1876.5" cy="593.5698" fill="none" rx="3" ry="3" style="stroke:#000000;stroke-width:1.0;"/><text fill="#000000" font-family="Verdana" font-size="14" lengthAdjust="spacing" textLength="599" x="1883.5" y="597.6377">rag_contract: DataContractContext  ' populated by RAGRetriever from data contract</text><line style="stroke:#90A4AE;stroke-width:1.0;" x1="1866.5" x2="2487.5" y1="604.5771" y2="604.5771"/></g><!--class DataContractContext--><g id="elem_DataContractContext"><rect codeLine="86" fill="#ECEFF1" height="163.1025" id="DataContractContext" rx="2.5" ry="2.5" style="stroke:#90A4AE;stroke-width:1.0;" width="410" x="1972" y="689.4746"/><ellipse cx="2097.75" cy="703.4746" fill="#FFFFFF" rx="9" ry="9" style="stroke:#000000;stroke-width:1.0;"/><path d="M2100.5156,699.3496 Q2100.6719,699.1309 2100.8594,699.0215 Q2101.0469,698.9121 2101.2656,698.9121 Q2101.6406,698.9121 2101.875,699.1777 Q2102.1094,699.4277 2102.1094,700.0371 L2102.1094,701.4902 Q2102.1094,702.0996 2101.875,702.3652 Q2101.6406,702.6309 2101.2656,702.6309 Q2100.9219,702.6309 2100.7188,702.4277 Q2100.5156,702.2402 2100.4063,701.7246 Q2100.3594,701.3652 2100.1719,701.1777 Q2099.8438,700.8027 2099.2344,700.584 Q2098.625,700.3652 2098,700.3652 Q2097.2344,700.3652 2096.5938,700.6934 Q2095.9688,701.0215 2095.4688,701.7715 Q2094.9844,702.5215 2094.9844,703.5527 L2094.9844,704.6465 Q2094.9844,705.8809 2095.875,706.709 Q2096.7656,707.5215 2098.3594,707.5215 Q2099.2969,707.5215 2099.9531,707.2715 Q2100.3438,707.1152 2100.7656,706.6777 Q2101.0313,706.4121 2101.1719,706.334 Q2101.3281,706.2559 2101.5313,706.2559 Q2101.8594,706.2559 2102.1094,706.5215 Q2102.375,706.7715 2102.375,707.1152 Q2102.375,707.459 2102.0313,707.8652 Q2101.5313,708.4434 2100.7344,708.7715 Q2099.6563,709.2246 2098.3594,709.2246 Q2096.8438,709.2246 2095.6406,708.5996 Q2094.6563,708.0996 2093.9688,707.0371 Q2093.2813,705.959 2093.2813,704.6777 L2093.2813,703.5215 Q2093.2813,702.1934 2093.8906,701.0527 Q2094.5156,699.8965 2095.6094,699.2871 Q2096.7031,698.6621 2097.9375,698.6621 Q2098.6719,698.6621 2099.3125,698.834 Q2099.9688,698.9902 2100.5156,699.3496 Z " fill="#000000"/><text fill="#000000" font-family="Verdana" font-size="14" lengthAdjust="spacing" textLength="151" x="2115.25" y="709.0425">DataContractContext</text><line style="stroke:#90A4AE;stroke-width:1.0;" x1="1973" x2="2381" y1="717.4746" y2="717.4746"/><ellipse cx="1983" cy="731.4819" fill="none" rx="3" ry="3" style="stroke:#000000;stroke-width:1.0;"/><text fill="#000000" font-family="Verdana" font-size="14" lengthAdjust="spacing" textLength="112" x="1990" y="735.5498">table_name: str</text><ellipse cx="1983" cy="748.4966" fill="none" rx="3" ry="3" style="stroke:#000000;stroke-width:1.0;"/><text fill="#000000" font-family="Verdana" font-size="14" lengthAdjust="spacing" textLength="90" x="1990" y="752.5645">pii_flag: bool</text><ellipse cx="1983" cy="765.5112" fill="none" rx="3" ry="3" style="stroke:#000000;stroke-width:1.0;"/><text fill="#000000" font-family="Verdana" font-size="14" lengthAdjust="spacing" textLength="74" x="1990" y="769.5791">owner: str</text><ellipse cx="1983" cy="782.5259" fill="none" rx="3" ry="3" style="stroke:#000000;stroke-width:1.0;"/><text fill="#000000" font-family="Verdana" font-size="14" lengthAdjust="spacing" textLength="176" x="1990" y="786.5938">sla_freshness_hours: int</text><ellipse cx="1983" cy="799.5405" fill="none" rx="3" ry="3" style="stroke:#000000;stroke-width:1.0;"/><text fill="#000000" font-family="Verdana" font-size="14" lengthAdjust="spacing" textLength="194" x="1990" y="803.6084">expected_columns: list[str]</text><ellipse cx="1983" cy="816.5552" fill="none" rx="3" ry="3" style="stroke:#000000;stroke-width:1.0;"/><text fill="#000000" font-family="Verdana" font-size="14" lengthAdjust="spacing" textLength="82" x="1990" y="820.623">domain: str</text><line style="stroke:#90A4AE;stroke-width:1.0;" x1="1973" x2="2381" y1="827.5625" y2="827.5625"/><ellipse cx="1983" cy="841.5698" fill="#FFFFFF" rx="3" ry="3" style="stroke:#000000;stroke-width:1.0;"/><text fill="#000000" font-family="Verdana" font-size="14" lengthAdjust="spacing" textLength="386" x="1990" y="845.6377">retrieved_by: str  ' RAGRetriever.embed_and_search()</text></g><!--class ComplexityReport--><g id="elem_ComplexityReport"><rect codeLine="96" fill="#ECEFF1" height="129.0732" id="ComplexityReport" rx="2.5" ry="2.5" style="stroke:#90A4AE;stroke-width:1.0;" width="171" x="596.5" y="706.4746"/><ellipse cx="617.15" cy="720.4746" fill="#FFFFFF" rx="9" ry="9" style="stroke:#000000;stroke-width:1.0;"/><path d="M619.9156,716.3496 Q620.0719,716.1309 620.2594,716.0215 Q620.4469,715.9121 620.6656,715.9121 Q621.0406,715.9121 621.275,716.1777 Q621.5094,716.4277 621.5094,717.0371 L621.5094,718.4902 Q621.5094,719.0996 621.275,719.3652 Q621.0406,719.6309 620.6656,719.6309 Q620.3219,719.6309 620.1188,719.4277 Q619.9156,719.2402 619.8063,718.7246 Q619.7594,718.3652 619.5719,718.1777 Q619.2438,717.8027 618.6344,717.584 Q618.025,717.3652 617.4,717.3652 Q616.6344,717.3652 615.9938,717.6934 Q615.3688,718.0215 614.8688,718.7715 Q614.3844,719.5215 614.3844,720.5527 L614.3844,721.6465 Q614.3844,722.8809 615.275,723.709 Q616.1656,724.5215 617.7594,724.5215 Q618.6969,724.5215 619.3531,724.2715 Q619.7438,724.1152 620.1656,723.6777 Q620.4313,723.4121 620.5719,723.334 Q620.7281,723.2559 620.9313,723.2559 Q621.2594,723.2559 621.5094,723.5215 Q621.775,723.7715 621.775,724.1152 Q621.775,724.459 621.4313,724.8652 Q620.9313,725.4434 620.1344,725.7715 Q619.0563,726.2246 617.7594,726.2246 Q616.2438,726.2246 615.0406,725.5996 Q614.0563,725.0996 613.3688,724.0371 Q612.6813,722.959 612.6813,721.6777 L612.6813,720.5215 Q612.6813,719.1934 613.2906,718.0527 Q613.9156,716.8965 615.0094,716.2871 Q616.1031,715.6621 617.3375,715.6621 Q618.0719,715.6621 618.7125,715.834 Q619.3688,715.9902 619.9156,716.3496 Z " fill="#000000"/><text fill="#000000" font-family="Verdana" font-size="14" lengthAdjust="spacing" textLength="126" x="630.85" y="726.0425">ComplexityReport</text><line style="stroke:#90A4AE;stroke-width:1.0;" x1="597.5" x2="766.5" y1="734.4746" y2="734.4746"/><ellipse cx="607.5" cy="748.4819" fill="none" rx="3" ry="3" style="stroke:#000000;stroke-width:1.0;"/><text fill="#000000" font-family="Verdana" font-size="14" lengthAdjust="spacing" textLength="127" x="614.5" y="752.5498">within_limits: bool</text><ellipse cx="607.5" cy="765.4966" fill="none" rx="3" ry="3" style="stroke:#000000;stroke-width:1.0;"/><text fill="#000000" font-family="Verdana" font-size="14" lengthAdjust="spacing" textLength="104" x="614.5" y="769.5645">join_count: int</text><ellipse cx="607.5" cy="782.5112" fill="none" rx="3" ry="3" style="stroke:#000000;stroke-width:1.0;"/><text fill="#000000" font-family="Verdana" font-size="14" lengthAdjust="spacing" textLength="144" x="614.5" y="786.5791">subquery_count: int</text><ellipse cx="607.5" cy="799.5259" fill="none" rx="3" ry="3" style="stroke:#000000;stroke-width:1.0;"/><text fill="#000000" font-family="Verdana" font-size="14" lengthAdjust="spacing" textLength="147" x="614.5" y="803.5938">estimated_dbu: float</text><ellipse cx="607.5" cy="816.5405" fill="none" rx="3" ry="3" style="stroke:#000000;stroke-width:1.0;"/><text fill="#000000" font-family="Verdana" font-size="14" lengthAdjust="spacing" textLength="126" x="614.5" y="820.6084">warnings: list[str]</text><line style="stroke:#90A4AE;stroke-width:1.0;" x1="597.5" x2="766.5" y1="827.5479" y2="827.5479"/></g><g id="elem_GMN26"><path d="M2976,254.4746 L2976,286.9746 L1749.56,290.9746 L2976,294.9746 L2976,327.6719 A0,0 0 0 0 2976,327.6719 L3280,327.6719 A0,0 0 0 0 3280,327.6719 L3280,264.4746 L3270,254.4746 L2976,254.4746 A0,0 0 0 0 2976,254.4746 " fill="#FFF9C4" style="stroke:#F9A825;stroke-width:1.0;"/><path d="M3270,254.4746 L3270,264.4746 L3280,264.4746 L3270,254.4746 " fill="#FFF9C4" style="stroke:#F9A825;stroke-width:1.0;"/><text fill="#000000" font-family="Verdana" font-size="13" lengthAdjust="spacing" textLength="216" x="2982" y="272.5444">Entry point for all SQL submitted</text><text fill="#000000" font-family="Verdana" font-size="13" lengthAdjust="spacing" textLength="247" x="2982" y="288.3438">via the DQ Agent before persistence.</text><text fill="#000000" font-family="Verdana" font-size="13" lengthAdjust="spacing" textLength="259" x="2982" y="304.1431">Any FAILED check blocks rule creation.</text><text fill="#000000" font-family="Verdana" font-size="13" lengthAdjust="spacing" textLength="283" x="2982" y="319.9424">Returns sanitised SQL + recommendations.</text></g><g id="elem_GMN29"><path d="M2976,502.4746 L2976,559.8726 L3234,559.8726 L3234,512.4746 L3224,502.4746 L2976,502.4746 " fill="#FFF9C4" style="stroke:#F9A825;stroke-width:1.0;"/><path d="M3224,502.4746 L3224,512.4746 L3234,512.4746 L3224,502.4746 " fill="#FFF9C4" style="stroke:#F9A825;stroke-width:1.0;"/><text fill="#000000" font-family="Verdana" font-size="13" lengthAdjust="spacing" textLength="213" x="2982" y="520.5444">DQ rules MUST be SELECT-only.</text><text fill="#000000" font-family="Verdana" font-size="13" lengthAdjust="spacing" textLength="217" x="2982" y="536.3438">Any data-modifying statement is</text><text fill="#000000" font-family="Verdana" font-size="13" lengthAdjust="spacing" textLength="237" x="2982" y="552.1431">an absolute block -- no exceptions.</text></g><g id="elem_GMN32"><path d="M2976.5,742.4746 L2976.5,799.8726 A0,0 0 0 0 2976.5,799.8726 L3361.5,799.8726 A0,0 0 0 0 3361.5,799.8726 L3361.5,752.4746 L3351.5,742.4746 L3119.72,742.4746 L2816.17,587.0246 L3111.72,742.4746 L2976.5,742.4746 A0,0 0 0 0 2976.5,742.4746 " fill="#FFF9C4" style="stroke:#F9A825;stroke-width:1.0;"/><path d="M3351.5,742.4746 L3351.5,752.4746 L3361.5,752.4746 L3351.5,742.4746 " fill="#FFF9C4" style="stroke:#F9A825;stroke-width:1.0;"/><text fill="#000000" font-family="Verdana" font-size="13" lengthAdjust="spacing" textLength="144" x="2982.5" y="760.5444">Patterns loaded from:</text><text fill="#000000" font-family="Verdana" font-size="13" lengthAdjust="spacing" textLength="364" x="2982.5" y="776.3438">/Volumes/.../dq_documentation/security_patterns.json</text><text fill="#000000" font-family="Verdana" font-size="13" lengthAdjust="spacing" textLength="298" x="2982.5" y="792.1431">Allows pattern updates without code deploy.</text></g><!--link SecurityGuard to InjectionPatternMatcher--><g id="link_SecurityGuard_InjectionPatternMatcher"><path codeLine="106" d="M1749.92,313.1946 C1947.93,336.1346 2250.52,379.1646 2506,449.4746 C2531.24,456.4246 2552.0167,463.3254 2577.1267,472.8054 " fill="none" id="SecurityGuard-to-InjectionPatternMatcher" style="stroke:#546E7A;stroke-width:1.0;"/><polygon fill="#546E7A" points="2582.74,474.9246,2575.7329,468.0036,2578.0623,473.1586,2572.9073,475.4879,2582.74,474.9246" style="stroke:#546E7A;stroke-width:1.0;"/><text fill="#000000" font-family="Verdana" font-size="13" lengthAdjust="spacing" textLength="30" x="2377" y="416.5444">uses</text><text fill="#000000" font-family="Verdana" font-size="13" lengthAdjust="spacing" textLength="8" x="1757.6796" y="311.806">1</text><text fill="#000000" font-family="Verdana" font-size="13" lengthAdjust="spacing" textLength="8" x="2556.2816" y="464.1098">1</text></g><!--link SecurityGuard to DDLDMLBlocklist--><g id="link_SecurityGuard_DDLDMLBlocklist"><path codeLine="107" d="M1326.45,307.2946 C1105.3,326.8646 749.67,368.3846 452,449.4746 C442.73,451.9946 439.0158,452.989 429.5758,456.059 " fill="none" id="SecurityGuard-to-DDLDMLBlocklist" style="stroke:#546E7A;stroke-width:1.0;"/><polygon fill="#546E7A" points="423.87,457.9146,433.6658,458.9351,428.6249,456.3683,431.1917,451.3273,423.87,457.9146" style="stroke:#546E7A;stroke-width:1.0;"/><text fill="#000000" font-family="Verdana" font-size="13" lengthAdjust="spacing" textLength="30" x="627" y="416.5444">uses</text><text fill="#000000" font-family="Verdana" font-size="13" lengthAdjust="spacing" textLength="8" x="1310.7037" y="305.6939">1</text><text fill="#000000" font-family="Verdana" font-size="13" lengthAdjust="spacing" textLength="8" x="433.9027" y="447.2121">1</text></g><!--link SecurityGuard to DangerousFunctionBlocklist--><g id="link_SecurityGuard_DangerousFunctionBlocklist"><path codeLine="108" d="M1386.67,372.5546 C1329.17,403.1646 1269.8359,434.7545 1215.6959,463.5845 " fill="none" id="SecurityGuard-to-DangerousFunctionBlocklist" style="stroke:#546E7A;stroke-width:1.0;"/><polygon fill="#546E7A" points="1210.4,466.4046,1220.224,465.705,1214.8133,464.0545,1216.4638,458.6438,1210.4,466.4046" style="stroke:#546E7A;stroke-width:1.0;"/><text fill="#000000" font-family="Verdana" font-size="13" lengthAdjust="spacing" textLength="30" x="1328" y="416.5444">uses</text><text fill="#000000" font-family="Verdana" font-size="13" lengthAdjust="spacing" textLength="8" x="1364.8359" y="393.5891">1</text><text fill="#000000" font-family="Verdana" font-size="13" lengthAdjust="spacing" textLength="8" x="1216.4644" y="455.7351">1</text></g><!--link SecurityGuard to ComplexityAnalyser--><g id="link_SecurityGuard_ComplexityAnalyser"><path codeLine="109" d="M1326.25,340.2246 C1204.36,369.2446 1048.72,408.4446 912,449.4746 C906.33,451.1746 906.3195,451.1534 900.5295,452.9534 " fill="none" id="SecurityGuard-to-ComplexityAnalyser" style="stroke:#546E7A;stroke-width:1.0;"/><polygon fill="#546E7A" points="894.8,454.7346,904.5817,455.8825,899.5746,453.2503,902.2068,448.2431,894.8,454.7346" style="stroke:#546E7A;stroke-width:1.0;"/><text fill="#000000" font-family="Verdana" font-size="13" lengthAdjust="spacing" textLength="30" x="1066" y="416.5444">uses</text><text fill="#000000" font-family="Verdana" font-size="13" lengthAdjust="spacing" textLength="8" x="1310.4965" y="339.8073">1</text><text fill="#000000" font-family="Verdana" font-size="13" lengthAdjust="spacing" textLength="8" x="902.5913" y="449.8075">1</text></g><!--link SecurityGuard to SelectEnforcer--><g id="link_SecurityGuard_SelectEnforcer"><path codeLine="110" d="M1587.09,372.5546 C1609.52,409.3646 1632.1781,446.5507 1651.3581,478.0307 " fill="none" id="SecurityGuard-to-SelectEnforcer" style="stroke:#546E7A;stroke-width:1.0;"/><polygon fill="#546E7A" points="1654.48,483.1546,1653.2131,473.3876,1651.8785,478.8847,1646.3813,477.55,1654.48,483.1546" style="stroke:#546E7A;stroke-width:1.0;"/><text fill="#000000" font-family="Verdana" font-size="13" lengthAdjust="spacing" textLength="30" x="1615" y="416.5444">uses</text><text fill="#000000" font-family="Verdana" font-size="13" lengthAdjust="spacing" textLength="8" x="1583.1058" y="393.5891">1</text><text fill="#000000" font-family="Verdana" font-size="13" lengthAdjust="spacing" textLength="8" x="1641.5004" y="472.8114">1</text></g><!--link SecurityGuard to SecurityReport--><g id="link_SecurityGuard_SecurityReport"><path codeLine="111" d="M1489.25,372.5546 C1472.52,400.1946 1457.0255,425.8108 1440.7355,452.7408 " fill="none" id="SecurityGuard-to-SecurityReport" style="stroke:#546E7A;stroke-width:1.0;"/><polygon fill="#546E7A" points="1437.63,457.8746,1445.7107,452.2442,1440.2179,453.5964,1438.8656,448.1036,1437.63,457.8746" style="stroke:#546E7A;stroke-width:1.0;"/><text fill="#000000" font-family="Verdana" font-size="13" lengthAdjust="spacing" textLength="60" x="1471" y="416.5444">produces</text><text fill="#000000" font-family="Verdana" font-size="13" lengthAdjust="spacing" textLength="8" x="1476.552" y="393.5891">1</text><text fill="#000000" font-family="Verdana" font-size="13" lengthAdjust="spacing" textLength="8" x="1433.9645" y="447.1677">1</text></g><!--link SecurityGuard to RuleContext--><g id="link_SecurityGuard_RuleContext"><path codeLine="112" d="M1749.89,370.8946 C1817.64,396.1346 1887.0874,421.9904 1955.1474,447.3404 " fill="none" id="SecurityGuard-to-RuleContext" style="stroke:#546E7A;stroke-width:1.0;stroke-dasharray:7.0,7.0;"/><polygon fill="#546E7A" points="1960.77,449.4346,1953.7322,442.5448,1956.0845,447.6894,1950.9399,450.0417,1960.77,449.4346" style="stroke:#546E7A;stroke-width:1.0;"/><text fill="#000000" font-family="Verdana" font-size="13" lengthAdjust="spacing" textLength="65" x="1877" y="416.5444">consumes</text></g><!--reverse link SecurityReport to Violation--><g id="link_SecurityReport_Violation"><path codeLine="113" d="M1394,616.0246 C1394,648.5946 1394,674.7346 1394,706.2446 " fill="none" id="SecurityReport-backto-Violation" style="stroke:#546E7A;stroke-width:1.0;"/><polygon fill="#546E7A" points="1394,604.0246,1390,610.0246,1394,616.0246,1398,610.0246,1394,604.0246" style="stroke:#546E7A;stroke-width:1.0;"/><text fill="#000000" font-family="Verdana" font-size="13" lengthAdjust="spacing" textLength="56" x="1395" y="656.5444">contains</text><text fill="#000000" font-family="Verdana" font-size="13" lengthAdjust="spacing" textLength="8" x="1385.6063" y="625.0586">1</text><text fill="#000000" font-family="Verdana" font-size="13" lengthAdjust="spacing" textLength="9" x="1384.4516" y="695.5556">*</text></g><!--link ComplexityAnalyser to ComplexityReport--><g id="link_ComplexityAnalyser_ComplexityReport"><path codeLine="114" d="M682,612.5546 C682,643.1646 682,671.5746 682,700.4046 " fill="none" id="ComplexityAnalyser-to-ComplexityReport" style="stroke:#546E7A;stroke-width:1.0;"/><polygon fill="#546E7A" points="682,706.4046,686,697.4046,682,701.4046,678,697.4046,682,706.4046" style="stroke:#546E7A;stroke-width:1.0;"/><text fill="#000000" font-family="Verdana" font-size="13" lengthAdjust="spacing" textLength="60" x="683" y="656.5444">produces</text></g><!--reverse link RuleContext to DataContractContext--><g id="link_RuleContext_DataContractContext"><path codeLine="115" d="M2177,624.5546 C2177,649.2246 2177,664.3746 2177,689.0746 " fill="none" id="RuleContext-backto-DataContractContext" style="stroke:#546E7A;stroke-width:1.0;"/><polygon fill="#546E7A" points="2177,612.5546,2173,618.5546,2177,624.5546,2181,618.5546,2177,612.5546" style="stroke:#546E7A;stroke-width:1.0;"/><text fill="#000000" font-family="Verdana" font-size="13" lengthAdjust="spacing" textLength="137" x="2178" y="656.5444">carries RAG contract</text><text fill="#000000" font-family="Verdana" font-size="13" lengthAdjust="spacing" textLength="8" x="2168.6438" y="633.5891">1</text><text fill="#000000" font-family="Verdana" font-size="13" lengthAdjust="spacing" textLength="26" x="2149.7609" y="678.6567">0..1</text></g><!--link DDLDMLBlocklist to GMN29--><g id="link_DDLDMLBlocklist_GMN29"><path d="M360.63,457.8946 C393.96,438.7646 431.93,420.7746 469.5,410.9746 C599.86,376.9846 2764.27,376.4646 2894.5,410.9746 C2961.19,428.6446 3028.82,472.9246 3068.82,502.4646 " fill="none" id="DDLDMLBlocklist-GMN29" style="stroke:#546E7A;stroke-width:1.0;stroke-dasharray:7.0,7.0;"/></g><!--SRC=[jLTDSzis4BthLspTGvpOLfBMQHlFE3CqHJcSq992oNOxJOO3aP2460GO0BIjklxlNL0aHSfo4X_A2qbWFzukTX-0dyo2fXGoJfZe66Ou1VSGpcH2EHmSG42lyUFm25mSWHuZSqNIJs9CurmniuJJdAW49zDC2YeCm6wOeuaBmbb2Z5GmfkgQnVHvfwElcCW8gaFCYTOd9BwQAvcBn9KS1N_sNA_VV_r0JAg4gbBaxIldqF4Q8aGfULDElZdypVlTQKmAQUW3B_r-_wrxk2dLTD9_w_pnovjE9qDLCgUmatoDPYX9RwIwwbvNaNLrcOCTkEjqO8KMgiIiydA7um1xK2hHNVsL7u4sQXzYAGozDKTWy-MkVfx3KMqWf9bKfj0_W2XUqFWgOk8BZGsJ8ig8CLG9NHkqgfnfy_S5avnOcSzjtIJXKPBow8ekCOxaAPf4p2ccK4UpN1Jkdw3yDQTg6SLO7vpUObWjJRSURaTBnKogc4QQSemtaeAtzQPIyafM4y4CqnIJa-LcLv6Rg2cABvIyNo-GN-Lmj4hX6J68L9LBTG1LPiku5EsMWf_BjKojmiC457Og6Iv9ibuZNEePczl_HQqpm7QfCuLfO9ok5J28qYfAVwvTjB4qOkhrWjvPSC9bV6K5wrXEWg7xmUj57xo_BeTXRtm4CoN_eKBJbUKIxPqsk7JnFVIyldCUJE0OxdhXSBGF_c3iXPDzE1_rd8ctZmA1X-zF0i099bwu3vFmVE0MSsxe5M_lJyyj9Cwyy1J_GsyKE2v-32-yy3Bq9zvzwTUs0BAEZgOMEKssh_4UpAc9hglwsb9xPIZDX5Gbsoyhzl7Sz17_n1yEdfASsooAqqGlAESOriWRXCFBiJSfeZuv3pxKUGk6JWymTSu-KEI0_p_mTKSvWl2bRXHsIcwZBvBPocP8rCVmfZ6XywdjL4RhsLyRirGRXcLFaoYPvfWdB6yhyhhxgWHALiw-tznxKDd2gjV6scjmeaP6la8AjAynrHgZjfOAV-jcoOLP1T9oXwZR8kkGjiZTDndRaeoteXnLKpRJtwUVFJl2ieXJaZ0njusSuYROThXYe08OneL4PGkAMhd8B3Ew-qssQky6DRWCvsZIGhAka-sCZ5XnAxUsrf1mh6JFf2RDSaBHLJ19osQZBuoC4XQRNGlRVhHnryvho3RMfeE4OWkqNBRm0Jn3Hl4dlki4y2-yzq_Vu-lCw_ddP_WH32-hL4ZDhADr1Q2bV3x7EiEePknsIrORMswDByTUYLZI15GCASdfjl3951bRuAcWgH5BdgUY6DwYGyKrKrBOfQzZJEWrXfCfcLHv8OP41KmsOp5PXLOAZtmVXVl-m1cuVf4NVu0iF2W-H-SdWUzMoqTiDGgZI8o-UcZJBV-gkD5S9hESsxQ6wH92vpIaMCrs4ImJfWKIg8niykj3WtVVp4p6M3JZPDwgMNaZg6gL02TurA9w8R3xeuNCbMwkAxtDi25nMLTvtfBYHAP8hEr2NWMLHDDrPJM3xT9qYhD4O0zGed1lV_uOfsvquGqp2oOYpb9cT2imIqyh6cgNvRGw3ctCR2FOoWbH0hb5Rr8-0dm6nyV7kBy6Jh61lVT7OplIQPz1Trxlu47-NV5-zFI3JOpLhh-bkdd8M3y_eFluVlnzvIrxsWyxtY3t9u7UuDwMhctOF7wWRvzkzrqfrgIPzdDa-qhdQSD0wSLwVe7thfqNEmqIXMtwnH6YioKxDe87HTl0tCHL-tlLxUBdLgQeVU9j2xTJsprhNkZO-nCeDbyOaBFs_GSBrKEn9JADFLJW8W3X7COV0ziBs3LOyIXppGZWBHHw7y6PsqlabA8etacfqbWYLCIqYsAEM4BVyGEl1yNT0ehJamPbBvoneaMgh22sTex7wFNcLdXyiATrE_XPNFysWzWeTJI9qAmR3MVdumdYWp6UXDt9WJqRLDWiNnwaCc6p9JOirDiy7YLGWWWWKusyXOuAuFPsBIHoMaopxNYcqXZaOGJqIDkYsN905rSEZDGozn6Elxom54droswt-n8li8cCSmkc2FrbTNMjhnpTBreA6mVdyaPNbo38CtjhrGNJoTpWgYSKjwoCosK3xNy0]--></g></svg>