<?xml version="1.0" encoding="us-ascii" standalone="no"?><svg xmlns="http://www.w3.org/2000/svg" xmlns:xlink="http://www.w3.org/1999/xlink" contentStyleType="text/css" height="1277px" preserveAspectRatio="none" style="width:1413px;height:1277px;background:#FFFFFF;" version="1.1" viewBox="0 0 1413 1277" width="1413px" zoomAndPan="magnify"><defs/><g><text fill="#000000" font-family="Verdana" font-size="22" font-weight="bold" lengthAdjust="spacing" textLength="758" x="323" y="37.1182">3D Data Quality Framework - Rule Lifecycle (State Diagram)</text><ellipse cx="1038.5" cy="281.7373" fill="#FFFFFF" rx="10" ry="10" style="stroke:#000000;stroke-width:1.0;"/><g id="DRAFT"><rect fill="#ECEFF1" height="50" rx="12.5" ry="12.5" style="stroke:#90A4AE;stroke-width:1.0;" width="68" x="878.5" y="399.7373"/><line style="stroke:#90A4AE;stroke-width:1.0;" x1="878.5" x2="946.5" y1="426.752" y2="426.752"/><text fill="#000000" font-family="Verdana" font-size="14" lengthAdjust="spacing" textLength="48" x="888.5" y="418.8125">DRAFT</text></g><g id="PENDING_APPROVAL"><rect fill="#ECEFF1" height="50" rx="12.5" ry="12.5" style="stroke:#90A4AE;stroke-width:1.0;" width="168" x="619.5" y="86.2373"/><line style="stroke:#90A4AE;stroke-width:1.0;" x1="619.5" x2="787.5" y1="113.252" y2="113.252"/><text fill="#000000" font-family="Verdana" font-size="14" lengthAdjust="spacing" textLength="148" x="629.5" y="105.3125">PENDING_APPROVAL</text></g><g id="ACTIVE"><rect fill="#ECEFF1" height="50" rx="12.5" ry="12.5" style="stroke:#90A4AE;stroke-width:1.0;" width="73" x="344" y="578.2373"/><line style="stroke:#90A4AE;stroke-width:1.0;" x1="344" x2="417" y1="605.252" y2="605.252"/><text fill="#000000" font-family="Verdana" font-size="14" lengthAdjust="spacing" textLength="53" x="354" y="597.3125">ACTIVE</text></g><ellipse cx="668.5" cy="1076.7373" fill="none" rx="11" ry="11" style="stroke:#000000;stroke-width:1.0;"/><ellipse cx="668.5" cy="1076.7373" fill="#FFFFFF" rx="6" ry="6" style="stroke:#000000;stroke-width:1.0;"/><g id="REJECTED"><rect fill="#ECEFF1" height="50" rx="12.5" ry="12.5" style="stroke:#90A4AE;stroke-width:1.0;" width="93" x="1313" y="256.7373"/><line style="stroke:#90A4AE;stroke-width:1.0;" x1="1313" x2="1406" y1="283.752" y2="283.752"/><text fill="#000000" font-family="Verdana" font-size="14" lengthAdjust="spacing" textLength="73" x="1323" y="275.8125">REJECTED</text></g><g id="elem_GMN15"><path d="M822.5,58.7373 L822.5,107.2373 L787.63,111.2373 L822.5,115.2373 L822.5,163.5332 A0,0 0 0 0 822.5,163.5332 L1138.5,163.5332 A0,0 0 0 0 1138.5,163.5332 L1138.5,68.7373 L1128.5,58.7373 L822.5,58.7373 A0,0 0 0 0 822.5,58.7373 " fill="#FFF9C4" style="stroke:#F9A825;stroke-width:1.0;"/><path d="M1128.5,58.7373 L1128.5,68.7373 L1138.5,68.7373 L1128.5,58.7373 " fill="#FFF9C4" style="stroke:#F9A825;stroke-width:1.0;"/><text fill="#000000" font-family="Verdana" font-size="13" lengthAdjust="spacing" textLength="247" x="828.5" y="76.8071">SLA Enforcement (Maintenance Job):</text><text fill="#000000" font-family="Verdana" font-size="13" lengthAdjust="spacing" textLength="253" x="828.5" y="92.6064">- 24 hr  -&gt; Send reminder to approver</text><text fill="#000000" font-family="Verdana" font-size="13" lengthAdjust="spacing" textLength="226" x="828.5" y="108.4058">- 48 hr  -&gt; Escalate to Tech Lead</text><text fill="#000000" font-family="Verdana" font-size="13" lengthAdjust="spacing" textLength="271" x="828.5" y="124.2051">- 72 hr  -&gt; Escalate to Data Governance</text><text fill="#000000" font-family="Verdana" font-size="13" lengthAdjust="spacing" textLength="295" x="828.5" y="140.0044">- 96 hr  -&gt; Auto-return to DRAFT; submitter</text><text fill="#000000" font-family="Verdana" font-size="13" lengthAdjust="spacing" textLength="211" x="888.5" y="155.8037">notified with SLA breach reason</text></g><g id="DISABLED"><rect fill="#ECEFF1" height="50" rx="12.5" ry="12.5" style="stroke:#90A4AE;stroke-width:1.0;" width="94" x="285.5" y="756.7373"/><line style="stroke:#90A4AE;stroke-width:1.0;" x1="285.5" x2="379.5" y1="783.752" y2="783.752"/><text fill="#000000" font-family="Verdana" font-size="14" lengthAdjust="spacing" textLength="74" x="295.5" y="775.8125">DISABLED</text></g><g id="DEPRECATED"><rect fill="#ECEFF1" height="50" rx="12.5" ry="12.5" style="stroke:#90A4AE;stroke-width:1.0;" width="116" x="29.5" y="756.7373"/><line style="stroke:#90A4AE;stroke-width:1.0;" x1="29.5" x2="145.5" y1="783.752" y2="783.752"/><text fill="#000000" font-family="Verdana" font-size="14" lengthAdjust="spacing" textLength="96" x="39.5" y="775.8125">DEPRECATED</text></g><g id="DISABLED_EMERGENCY"><rect fill="#ECEFF1" height="50" rx="12.5" ry="12.5" style="stroke:#90A4AE;stroke-width:1.0;" width="191" x="460" y="756.7373"/><line style="stroke:#90A4AE;stroke-width:1.0;" x1="460" x2="651" y1="783.752" y2="783.752"/><text fill="#000000" font-family="Verdana" font-size="14" lengthAdjust="spacing" textLength="171" x="470" y="775.8125">DISABLED_EMERGENCY</text></g><g id="elem_GMN27"><path d="M452.5,542.7373 L452.5,599.2373 L417.34,603.2373 L452.5,607.2373 L452.5,663.3325 A0,0 0 0 0 452.5,663.3325 L718.5,663.3325 A0,0 0 0 0 718.5,663.3325 L718.5,552.7373 L708.5,542.7373 L452.5,542.7373 A0,0 0 0 0 452.5,542.7373 " fill="#FFF9C4" style="stroke:#F9A825;stroke-width:1.0;"/><path d="M708.5,542.7373 L708.5,552.7373 L718.5,552.7373 L708.5,542.7373 " fill="#FFF9C4" style="stroke:#F9A825;stroke-width:1.0;"/><text fill="#000000" font-family="Verdana" font-size="13" lengthAdjust="spacing" textLength="111" x="458.5" y="560.8071">Execution Cycle:</text><text fill="#000000" font-family="Verdana" font-size="13" lengthAdjust="spacing" textLength="200" x="458.5" y="576.6064">(1) Trigger (schedule / event)</text><text fill="#000000" font-family="Verdana" font-size="13" lengthAdjust="spacing" textLength="245" x="458.5" y="592.4058">(2) Read from anomaly_check_config</text><text fill="#000000" font-family="Verdana" font-size="13" lengthAdjust="spacing" textLength="189" x="458.5" y="608.2051">(3) Execute SQL (read-only)</text><text fill="#000000" font-family="Verdana" font-size="13" lengthAdjust="spacing" textLength="208" x="458.5" y="624.0044">(4) Evaluate violation threshold</text><text fill="#000000" font-family="Verdana" font-size="13" lengthAdjust="spacing" textLength="210" x="458.5" y="639.8037">(5) Log to check_execution_log</text><text fill="#000000" font-family="Verdana" font-size="13" lengthAdjust="spacing" textLength="137" x="458.5" y="655.603">(6) Alert on violation</text></g><g id="ARCHIVED"><rect fill="#ECEFF1" height="50" rx="12.5" ry="12.5" style="stroke:#90A4AE;stroke-width:1.0;" width="95" x="333" y="911.2373"/><line style="stroke:#90A4AE;stroke-width:1.0;" x1="333" x2="428" y1="938.252" y2="938.252"/><text fill="#000000" font-family="Verdana" font-size="14" lengthAdjust="spacing" textLength="75" x="343" y="930.3125">ARCHIVED</text></g><g id="elem_GMN37"><path d="M510.5,907.7373 L510.5,965.1353 L832.5,965.1353 L832.5,917.7373 L822.5,907.7373 L510.5,907.7373 " fill="#FFF9C4" style="stroke:#F9A825;stroke-width:1.0;"/><path d="M822.5,907.7373 L822.5,917.7373 L832.5,917.7373 L822.5,907.7373 " fill="#FFF9C4" style="stroke:#F9A825;stroke-width:1.0;"/><text fill="#000000" font-family="Verdana" font-size="13" lengthAdjust="spacing" textLength="300" x="516.5" y="925.8071">Instant disable capability for DataOps/Admin.</text><text fill="#000000" font-family="Verdana" font-size="13" lengthAdjust="spacing" textLength="301" x="516.5" y="941.6064">Preserves full audit trail -- cannot be deleted</text><text fill="#000000" font-family="Verdana" font-size="13" lengthAdjust="spacing" textLength="288" x="516.5" y="957.4058">while in this state. Requires incident ticket.</text></g><g id="elem_GMN40"><path d="M11,899.7373 L11,972.9346 A0,0 0 0 0 11,972.9346 L298,972.9346 A0,0 0 0 0 298,972.9346 L298,940.2373 L332.71,936.2373 L298,932.2373 L298,909.7373 L288,899.7373 L11,899.7373 A0,0 0 0 0 11,899.7373 " fill="#FFF9C4" style="stroke:#F9A825;stroke-width:1.0;"/><path d="M288,899.7373 L288,909.7373 L298,909.7373 L288,899.7373 " fill="#FFF9C4" style="stroke:#F9A825;stroke-width:1.0;"/><text fill="#000000" font-family="Verdana" font-size="13" lengthAdjust="spacing" textLength="192" x="17" y="917.8071">Archived rules are read-only.</text><text fill="#000000" font-family="Verdana" font-size="13" lengthAdjust="spacing" textLength="266" x="17" y="933.6064">Accessible for audit/compliance queries.</text><text fill="#000000" font-family="Verdana" font-size="13" lengthAdjust="spacing" textLength="225" x="17" y="949.4058">Retention: 7 years (configurable).</text><text fill="#000000" font-family="Verdana" font-size="13" lengthAdjust="spacing" textLength="234" x="17" y="965.2051">Stored in cold Delta table partition.</text></g><!--link *start* to DRAFT--><g id="link_*start*_DRAFT"><path d="M1030.91,288.5073 C1023.66,293.8073 1012.28,301.5973 1001.5,306.7373 C962.69,325.2673 934.76,301.9273 909.5,336.7373 C896.45,354.7173 897.8879,374.9258 902.7379,393.8158 " fill="none" id="*start*-to-DRAFT" style="stroke:#546E7A;stroke-width:1.0;"/><polygon fill="#546E7A" points="904.23,399.6273,905.8662,389.9153,902.9866,394.7844,898.1175,391.9048,904.23,399.6273" style="stroke:#546E7A;stroke-width:1.0;"/><text fill="#000000" font-family="Verdana" font-size="13" lengthAdjust="spacing" textLength="181" x="910.5" y="350.8071">User creates rule via Agent</text><text fill="#000000" font-family="Verdana" font-size="13" lengthAdjust="spacing" textLength="168" x="917" y="366.6064">(validated, trend-scored)</text></g><!--link DRAFT to PENDING_APPROVAL--><g id="link_DRAFT_PENDING_APPROVAL"><path d="M946.77,418.6273 C994.87,410.6773 1078.54,393.7273 1096.5,369.7373 C1127.64,328.1373 1103.54,293.1773 1066.5,256.7373 C978.71,170.3773 918.69,212.2473 805.5,163.7373 C786.36,155.5273 771.091,148.1505 753.451,139.0405 " fill="none" id="DRAFT-to-PENDING_APPROVAL" style="stroke:#546E7A;stroke-width:1.0;"/><polygon fill="#546E7A" points="748.12,136.2873,754.2811,143.9711,752.5625,138.5816,757.952,136.863,748.12,136.2873" style="stroke:#546E7A;stroke-width:1.0;"/><text fill="#000000" font-family="Verdana" font-size="13" lengthAdjust="spacing" textLength="128" x="1120" y="279.3071">Submitter != owner</text><text fill="#000000" font-family="Verdana" font-size="13" lengthAdjust="spacing" textLength="157" x="1105.5" y="295.1064">-&gt; submitted for review</text></g><!--link PENDING_APPROVAL to DRAFT--><g id="link_PENDING_APPROVAL_DRAFT"><path d="M678.95,136.4973 C643.17,174.8773 584.85,250.9473 622.5,306.7373 C680.81,393.1373 808.8059,415.1899 872.1459,421.0999 " fill="none" id="PENDING_APPROVAL-to-DRAFT" style="stroke:#546E7A;stroke-width:1.0;"/><polygon fill="#546E7A" points="878.12,421.6573,869.5305,416.8385,873.1416,421.1928,868.7873,424.8039,878.12,421.6573" style="stroke:#546E7A;stroke-width:1.0;"/><text fill="#000000" font-family="Verdana" font-size="13" lengthAdjust="spacing" textLength="145" x="623.5" y="279.3071">Sent back for revision</text><text fill="#000000" font-family="Verdana" font-size="13" lengthAdjust="spacing" textLength="105" x="643.5" y="295.1064">(with feedback)</text></g><!--link PENDING_APPROVAL to DRAFT--><g id="link_PENDING_APPROVAL_DRAFT"><path d="M718.89,136.3573 C742.53,173.2873 789.37,245.9473 830.5,306.7373 C852.46,339.1973 875.07,371.2696 891.83,394.8096 " fill="none" id="PENDING_APPROVAL-to-DRAFT-1" style="stroke:#546E7A;stroke-width:1.0;"/><polygon fill="#546E7A" points="895.31,399.6973,893.3485,390.0457,892.41,395.6242,886.8316,394.6857,895.31,399.6973" style="stroke:#546E7A;stroke-width:1.0;"/><text fill="#000000" font-family="Verdana" font-size="13" lengthAdjust="spacing" textLength="130" x="856" y="279.3071">SLA breach (96 h+)</text><text fill="#000000" font-family="Verdana" font-size="13" lengthAdjust="spacing" textLength="179" x="831.5" y="295.1064">auto-returned to submitter</text></g><!--link DRAFT to ACTIVE--><g id="link_DRAFT_ACTIVE"><path d="M878.2,427.4473 C796.13,432.8873 584.25,455.0573 435.5,542.7373 C420.47,551.5973 410.8333,561.1302 401.0333,573.4602 " fill="none" id="DRAFT-to-ACTIVE" style="stroke:#546E7A;stroke-width:1.0;"/><polygon fill="#546E7A" points="397.3,578.1573,406.0313,573.6005,400.4111,574.2431,399.7685,568.6228,397.3,578.1573" style="stroke:#546E7A;stroke-width:1.0;"/><text fill="#000000" font-family="Verdana" font-size="13" lengthAdjust="spacing" textLength="123" x="570.5" y="493.8071">Submitter = owner</text><text fill="#000000" font-family="Verdana" font-size="13" lengthAdjust="spacing" textLength="119" x="572.5" y="509.6064">-&gt; auto-approved</text></g><!--link DRAFT to *end*--><g id="link_DRAFT_*end*"><path d="M919.01,449.7973 C927.56,483.5773 941.5,547.1173 941.5,602.2373 C941.5,602.2373 941.5,602.2373 941.5,937.2373 C941.5,1056.8173 736.6044,1072.9279 685.5344,1075.1379 " fill="none" id="DRAFT-to-*end*" style="stroke:#546E7A;stroke-width:1.0;"/><polygon fill="#546E7A" points="679.54,1075.3973,688.7045,1079.0045,684.5353,1075.1811,688.3587,1071.0119,679.54,1075.3973" style="stroke:#546E7A;stroke-width:1.0;"/><text fill="#000000" font-family="Verdana" font-size="13" lengthAdjust="spacing" textLength="131" x="942.5" y="779.3071">User cancels before</text><text fill="#000000" font-family="Verdana" font-size="13" lengthAdjust="spacing" textLength="70" x="973" y="795.1064">submission</text></g><!--link PENDING_APPROVAL to ACTIVE--><g id="link_PENDING_APPROVAL_ACTIVE"><path d="M619.27,117.2473 C493.32,130.0473 262.19,175.4873 182.5,336.7373 C132.76,437.3873 268.9451,535.8271 338.8151,578.3671 " fill="none" id="PENDING_APPROVAL-to-ACTIVE" style="stroke:#546E7A;stroke-width:1.0;"/><polygon fill="#546E7A" points="343.94,581.4873,338.3329,573.3904,339.6693,578.8871,334.1726,580.2235,343.94,581.4873" style="stroke:#546E7A;stroke-width:1.0;"/><text fill="#000000" font-family="Verdana" font-size="13" lengthAdjust="spacing" textLength="168" x="183.5" y="358.8071">PO / Tech Lead approves</text></g><!--link ACTIVE to PENDING_APPROVAL--><g id="link_ACTIVE_PENDING_APPROVAL"><path d="M384.13,577.8773 C392.24,529.0573 415.14,417.0573 464.5,336.7373 C518.3,249.1973 610.1508,176.9611 662.5408,139.9211 " fill="none" id="ACTIVE-to-PENDING_APPROVAL" style="stroke:#546E7A;stroke-width:1.0;"/><polygon fill="#546E7A" points="667.44,136.4573,657.782,138.3868,663.3573,139.3438,662.4004,144.9191,667.44,136.4573" style="stroke:#546E7A;stroke-width:1.0;"/><text fill="#000000" font-family="Verdana" font-size="13" lengthAdjust="spacing" textLength="107" x="499.5" y="350.8071">Rule updated by</text><text fill="#000000" font-family="Verdana" font-size="13" lengthAdjust="spacing" textLength="175" x="465.5" y="366.6064">non-owner (version bump)</text></g><!--link PENDING_APPROVAL to REJECTED--><g id="link_PENDING_APPROVAL_REJECTED"><path d="M742.76,136.4673 C761.15,146.6373 783.75,157.5373 805.5,163.7373 C950.95,205.2373 997.45,158.3173 1144.5,193.7373 C1204.59,208.2173 1264.5076,234.0178 1307.1876,254.4378 " fill="none" id="PENDING_APPROVAL-to-REJECTED" style="stroke:#546E7A;stroke-width:1.0;"/><polygon fill="#546E7A" points="1312.6,257.0273,1306.2077,249.5347,1308.0897,254.8694,1302.755,256.7513,1312.6,257.0273" style="stroke:#546E7A;stroke-width:1.0;"/><text fill="#000000" font-family="Verdana" font-size="13" lengthAdjust="spacing" textLength="154" x="1241.5" y="207.8071">PO / Tech Lead rejects</text><text fill="#000000" font-family="Verdana" font-size="13" lengthAdjust="spacing" textLength="114" x="1261.5" y="223.6064">(reason required)</text></g><!--link REJECTED to DRAFT--><g id="link_REJECTED_DRAFT"><path d="M1312.88,304.0673 C1269.84,323.1573 1203.81,350.9573 1144.5,369.7373 C1075.5,391.5773 998.324,407.6745 952.654,416.3745 " fill="none" id="REJECTED-to-DRAFT" style="stroke:#546E7A;stroke-width:1.0;"/><polygon fill="#546E7A" points="946.76,417.4973,956.3495,419.7425,951.6717,416.5616,954.8525,411.8838,946.76,417.4973" style="stroke:#546E7A;stroke-width:1.0;"/><text fill="#000000" font-family="Verdana" font-size="13" lengthAdjust="spacing" textLength="109" x="1259.5" y="350.8071">User revises and</text><text fill="#000000" font-family="Verdana" font-size="13" lengthAdjust="spacing" textLength="159" x="1234.5" y="366.6064">resubmits (new version)</text></g><!--link ACTIVE to DISABLED--><g id="link_ACTIVE_DISABLED"><path d="M373.93,628.4073 C364.76,662.1173 349.8154,717.0878 340.6454,750.7878 " fill="none" id="ACTIVE-to-DISABLED" style="stroke:#546E7A;stroke-width:1.0;"/><polygon fill="#546E7A" points="339.07,756.5773,345.2927,748.9433,340.3828,751.7527,337.5734,746.8428,339.07,756.5773" style="stroke:#546E7A;stroke-width:1.0;"/><text fill="#000000" font-family="Verdana" font-size="13" lengthAdjust="spacing" textLength="97" x="365" y="707.8071">Owner / Admin</text><text fill="#000000" font-family="Verdana" font-size="13" lengthAdjust="spacing" textLength="114" x="356.5" y="723.6064">manually disables</text></g><!--link DISABLED to ACTIVE--><g id="link_DISABLED_ACTIVE"><path d="M285.35,775.1073 C255.02,768.7773 217.8,755.3173 198.5,726.7373 C190.29,714.5773 190.75,706.1873 198.5,693.7373 C230.23,642.7773 294.5699,621.2856 337.9199,611.7556 " fill="none" id="DISABLED-to-ACTIVE" style="stroke:#546E7A;stroke-width:1.0;"/><polygon fill="#546E7A" points="343.78,610.4673,334.1311,608.493,338.8966,611.5409,335.8487,616.3064,343.78,610.4673" style="stroke:#546E7A;stroke-width:1.0;"/><text fill="#000000" font-family="Verdana" font-size="13" lengthAdjust="spacing" textLength="140" x="199.5" y="707.8071">Re-enabled by owner</text><text fill="#000000" font-family="Verdana" font-size="13" lengthAdjust="spacing" textLength="106" x="216.5" y="723.6064">+ reason logged</text></g><!--link ACTIVE to DEPRECATED--><g id="link_ACTIVE_DEPRECATED"><path d="M343.81,609.8773 C271.87,621.7573 116.62,651.7673 85.5,693.7373 C72.27,711.5773 73.4623,731.7896 78.1023,750.7296 " fill="none" id="ACTIVE-to-DEPRECATED" style="stroke:#546E7A;stroke-width:1.0;"/><polygon fill="#546E7A" points="79.53,756.5573,81.2736,746.864,78.3403,751.7009,73.5034,748.7676,79.53,756.5573" style="stroke:#546E7A;stroke-width:1.0;"/><text fill="#000000" font-family="Verdana" font-size="13" lengthAdjust="spacing" textLength="98" x="86.5" y="707.8071">Superseded by</text><text fill="#000000" font-family="Verdana" font-size="13" lengthAdjust="spacing" textLength="92" x="89.5" y="723.6064">newer version</text></g><!--link ACTIVE to DISABLED_EMERGENCY--><g id="link_ACTIVE_DISABLED_EMERGENCY"><path d="M400.51,628.3073 C410.48,639.6373 423.04,652.9873 435.5,663.7373 C453.43,679.1973 461.79,678.0273 479.5,693.7373 C501.26,713.0373 519.0222,733.6859 533.5722,752.0359 " fill="none" id="ACTIVE-to-DISABLED_EMERGENCY" style="stroke:#546E7A;stroke-width:1.0;"/><polygon fill="#546E7A" points="537.3,756.7373,534.8425,747.2,534.1935,752.8195,528.574,752.1704,537.3,756.7373" style="stroke:#546E7A;stroke-width:1.0;"/><text fill="#000000" font-family="Verdana" font-size="13" lengthAdjust="spacing" textLength="133" x="511.5" y="707.8071">DataOps emergency</text><text fill="#000000" font-family="Verdana" font-size="13" lengthAdjust="spacing" textLength="66" x="545" y="723.6064">kill-switch</text></g><!--link DISABLED_EMERGENCY to ACTIVE--><g id="link_DISABLED_EMERGENCY_ACTIVE"><path d="M613.32,756.6873 C644.9,740.1573 673.83,717.0573 653.5,693.7373 C621.37,656.8773 478.86,686.3473 435.5,663.7373 C419.78,655.5373 409.8781,645.7532 400.1481,633.1032 " fill="none" id="DISABLED_EMERGENCY-to-ACTIVE" style="stroke:#546E7A;stroke-width:1.0;"/><polygon fill="#546E7A" points="396.49,628.3473,398.8065,637.9199,399.5384,632.3105,405.1477,633.0424,396.49,628.3473" style="stroke:#546E7A;stroke-width:1.0;"/><text fill="#000000" font-family="Verdana" font-size="13" lengthAdjust="spacing" textLength="114" x="713" y="707.8071">Incident resolved</text><text fill="#000000" font-family="Verdana" font-size="13" lengthAdjust="spacing" textLength="219" x="660.5" y="723.6064">owner re-enables + post-mortem</text></g><!--link DISABLED to ARCHIVED--><g id="link_DISABLED_ARCHIVED"><path d="M327.1,807.0573 C324.22,824.8873 322.53,849.4373 329.5,869.7373 C334.79,885.1373 341.376,895.2121 351.516,906.6821 " fill="none" id="DISABLED-to-ARCHIVED" style="stroke:#546E7A;stroke-width:1.0;"/><polygon fill="#546E7A" points="355.49,911.1773,352.5258,901.7851,352.1783,907.4313,346.5322,907.0838,355.49,911.1773" style="stroke:#546E7A;stroke-width:1.0;"/><text fill="#000000" font-family="Verdana" font-size="13" lengthAdjust="spacing" textLength="143" x="330.5" y="850.8071">Inactive for 90+ days</text><text fill="#000000" font-family="Verdana" font-size="13" lengthAdjust="spacing" textLength="125" x="339.5" y="866.6064">(auto-cleanup job)</text></g><!--link DISABLED_EMERGENCY to ARCHIVED--><g id="link_DISABLED_EMERGENCY_ARCHIVED"><path d="M535.21,807.0373 C516.69,828.9573 490.43,859.3273 478.5,869.7373 C461.08,884.9473 445.0086,896.2765 426.8386,907.7865 " fill="none" id="DISABLED_EMERGENCY-to-ARCHIVED" style="stroke:#546E7A;stroke-width:1.0;"/><polygon fill="#546E7A" points="421.77,910.9973,431.5134,909.5602,425.9939,908.3217,427.2324,902.8021,421.77,910.9973" style="stroke:#546E7A;stroke-width:1.0;"/><text fill="#000000" font-family="Verdana" font-size="13" lengthAdjust="spacing" textLength="129" x="508.5" y="850.8071">Permanently retired</text><text fill="#000000" font-family="Verdana" font-size="13" lengthAdjust="spacing" textLength="121" x="512.5" y="866.6064">after investigation</text></g><!--link DEPRECATED to ARCHIVED--><g id="link_DEPRECATED_ARCHIVED"><path d="M95.79,807.0673 C103.94,827.1573 118.41,854.7273 140.5,869.7373 C205.78,914.0773 240.97,873.8073 315.5,899.7373 C324.12,902.7373 327.6392,904.0343 335.9092,908.3443 " fill="none" id="DEPRECATED-to-ARCHIVED" style="stroke:#546E7A;stroke-width:1.0;"/><polygon fill="#546E7A" points="341.23,911.1173,335.0975,903.4107,336.796,908.8065,331.4002,910.505,341.23,911.1173" style="stroke:#546E7A;stroke-width:1.0;"/><text fill="#000000" font-family="Verdana" font-size="13" lengthAdjust="spacing" textLength="118" x="170" y="850.8071">Manually archived</text><text fill="#000000" font-family="Verdana" font-size="13" lengthAdjust="spacing" textLength="175" x="141.5" y="866.6064">or auto-cleanup (30 days)</text></g><!--link ARCHIVED to *end*--><g id="link_ARCHIVED_*end*"><path d="M428.06,960.1073 C497.72,993.6073 617.6928,1051.3068 653.3728,1068.4668 " fill="none" id="ARCHIVED-to-*end*" style="stroke:#546E7A;stroke-width:1.0;"/><polygon fill="#546E7A" points="658.78,1071.0673,652.403,1063.5618,654.274,1068.9002,648.9356,1070.7713,658.78,1071.0673" style="stroke:#546E7A;stroke-width:1.0;"/><text fill="#000000" font-family="Verdana" font-size="13" lengthAdjust="spacing" textLength="87" x="625.5" y="1016.8071">Deleted after</text><text fill="#000000" font-family="Verdana" font-size="13" lengthAdjust="spacing" textLength="171" x="583.5" y="1032.6064">retention period (7 years)</text></g><!--link DISABLED_EMERGENCY to GMN37--><g id="link_DISABLED_EMERGENCY_GMN37"><path d="M615.04,807.0173 C628.05,814.7873 640.57,824.6073 649.5,836.7373 C664.67,857.3373 669.69,886.4773 671.21,907.7173 " fill="none" id="DISABLED_EMERGENCY-GMN37" style="stroke:#546E7A;stroke-width:1.0;stroke-dasharray:7.0,7.0;"/></g><rect fill="none" height="167.1318" id="_legend" rx="7.5" ry="7.5" style="stroke:#000000;stroke-width:1.0;" width="370" x="1024" y="1097.7373"/><text fill="#000000" font-family="Verdana" font-size="14" font-weight="bold" lengthAdjust="spacing" textLength="49" x="1034" y="1118.8125">Status</text><text fill="#000000" font-family="Verdana" font-size="14" font-weight="bold" lengthAdjust="spacing" textLength="85" x="1210" y="1118.8125">Execution?</text><text fill="#000000" font-family="Verdana" font-size="14" font-weight="bold" lengthAdjust="spacing" textLength="71" x="1305" y="1118.8125">Editable?</text><text fill="#000000" font-family="Verdana" font-size="14" lengthAdjust="spacing" textLength="48" x="1034" y="1135.8271">DRAFT</text><text fill="#000000" font-family="Verdana" font-size="14" lengthAdjust="spacing" textLength="19" x="1210" y="1135.8271">No</text><text fill="#000000" font-family="Verdana" font-size="14" lengthAdjust="spacing" textLength="25" x="1305" y="1135.8271">Yes</text><text fill="#000000" font-family="Verdana" font-size="14" lengthAdjust="spacing" textLength="148" x="1034" y="1152.8418">PENDING_APPROVAL</text><text fill="#000000" font-family="Verdana" font-size="14" lengthAdjust="spacing" textLength="19" x="1210" y="1152.8418">No</text><text fill="#000000" font-family="Verdana" font-size="14" lengthAdjust="spacing" textLength="19" x="1305" y="1152.8418">No</text><text fill="#000000" font-family="Verdana" font-size="14" lengthAdjust="spacing" textLength="53" x="1034" y="1169.8564">ACTIVE</text><text fill="#000000" font-family="Verdana" font-size="14" lengthAdjust="spacing" textLength="25" x="1210" y="1169.8564">Yes</text><text fill="#000000" font-family="Verdana" font-size="14" lengthAdjust="spacing" textLength="79" x="1305" y="1169.8564">Owner only</text><text fill="#000000" font-family="Verdana" font-size="14" lengthAdjust="spacing" textLength="74" x="1034" y="1186.8711">DISABLED</text><text fill="#000000" font-family="Verdana" font-size="14" lengthAdjust="spacing" textLength="19" x="1210" y="1186.8711">No</text><text fill="#000000" font-family="Verdana" font-size="14" lengthAdjust="spacing" textLength="79" x="1305" y="1186.8711">Owner only</text><text fill="#000000" font-family="Verdana" font-size="14" lengthAdjust="spacing" textLength="171" x="1034" y="1203.8857">DISABLED_EMERGENCY</text><text fill="#000000" font-family="Verdana" font-size="14" lengthAdjust="spacing" textLength="19" x="1210" y="1203.8857">No</text><text fill="#000000" font-family="Verdana" font-size="14" lengthAdjust="spacing" textLength="19" x="1305" y="1203.8857">No</text><text fill="#000000" font-family="Verdana" font-size="14" lengthAdjust="spacing" textLength="96" x="1034" y="1220.9004">DEPRECATED</text><text fill="#000000" font-family="Verdana" font-size="14" lengthAdjust="spacing" textLength="19" x="1210" y="1220.9004">No</text><text fill="#000000" font-family="Verdana" font-size="14" lengthAdjust="spacing" textLength="19" x="1305" y="1220.9004">No</text><text fill="#000000" font-family="Verdana" font-size="14" lengthAdjust="spacing" textLength="73" x="1034" y="1237.915">REJECTED</text><text fill="#000000" font-family="Verdana" font-size="14" lengthAdjust="spacing" textLength="19" x="1210" y="1237.915">No</text><text fill="#000000" font-family="Verdana" font-size="14" lengthAdjust="spacing" textLength="83" x="1305" y="1237.915">Yes (revise)</text><text fill="#000000" font-family="Verdana" font-size="14" lengthAdjust="spacing" textLength="75" x="1034" y="1254.9297">ARCHIVED</text><text fill="#000000" font-family="Verdana" font-size="14" lengthAdjust="spacing" textLength="19" x="1210" y="1254.9297">No</text><text fill="#000000" font-family="Verdana" font-size="14" lengthAdjust="spacing" textLength="19" x="1305" y="1254.9297">No</text><line style="stroke:#000000;stroke-width:1.0;" x1="1029" x2="1389" y1="1104.7373" y2="1104.7373"/><line style="stroke:#000000;stroke-width:1.0;" x1="1029" x2="1389" y1="1121.752" y2="1121.752"/><line style="stroke:#000000;stroke-width:1.0;" x1="1029" x2="1389" y1="1138.7666" y2="1138.7666"/><line style="stroke:#000000;stroke-width:1.0;" x1="1029" x2="1389" y1="1155.7813" y2="1155.7813"/><line style="stroke:#000000;stroke-width:1.0;" x1="1029" x2="1389" y1="1172.7959" y2="1172.7959"/><line style="stroke:#000000;stroke-width:1.0;" x1="1029" x2="1389" y1="1189.8105" y2="1189.8105"/><line style="stroke:#000000;stroke-width:1.0;" x1="1029" x2="1389" y1="1206.8252" y2="1206.8252"/><line style="stroke:#000000;stroke-width:1.0;" x1="1029" x2="1389" y1="1223.8398" y2="1223.8398"/><line style="stroke:#000000;stroke-width:1.0;" x1="1029" x2="1389" y1="1240.8545" y2="1240.8545"/><line style="stroke:#000000;stroke-width:1.0;" x1="1029" x2="1389" y1="1257.8691" y2="1257.8691"/><line style="stroke:#000000;stroke-width:1.0;" x1="1029" x2="1029" y1="1104.7373" y2="1257.8691"/><line style="stroke:#000000;stroke-width:1.0;" x1="1205" x2="1205" y1="1104.7373" y2="1257.8691"/><line style="stroke:#000000;stroke-width:1.0;" x1="1300" x2="1300" y1="1104.7373" y2="1257.8691"/><line style="stroke:#000000;stroke-width:1.0;" x1="1389" x2="1389" y1="1104.7373" y2="1257.8691"/><!--SRC=[XLPXSzf64FskNx6PVe6ws8wDdPXEqb50kCuGsy5kPZAbupca0ouMT-HqWZ9j_tlVdYIG3KduXAJTjxjlt-xT2pUJSqcBL2WTEELIIQSzwWadw6CkKkNMrBTYBbV6FbABXZaC1ceYutMCVuqx9voadX9J63M387jKUY7mdpB_vP-0w9s87wVMv3hfcjHO-YdgHlt-I_vYR29j-VRYE6o74Tw6rffL-VAiVHwz2l4IWQmhNxQxOV_i62-Z3MI_tJuzFG_-goMWpRVYz_lzYsxxUVp-HVZwv0mGmPy__qMjrblg3SF-FNNeZqnQYgr4GHbPPc2f18LJgTr8DvPWAS6dv1ToLkgabSN6oWHa5FwCT1jTzwwkBn_2szlXpQTm0D2xV3nNpW7vnHioAotjICCoArydD45ILYwLNDMHmkxzrQVeYN_TNUJEjCHYOSrI9dK_hgcgHEXOfXcD9KB8aVOXiqmP7GGxYTPYujUXsniwediPpsWWHK9bg6o_up1w7tNlezuUHok_oDXbu0-yPaRZnTTSUTxsGXML53dSWNWQewiRZZXvGAsKcz54oeG_eW5U0bPDPuxCPAS9hAf121419SOG0BJn0MFWf6Q6wBqPDpimQj59csOMVzvoQCvzhZI4GyvK15XlrtvTsKLPB58U09XiYlOshqxssVY1ksGW7zjRNfnNbY5trKgNM-sDcOjVDrBXsFKVgbOJ1GLvEhZ4CJX63WNJ0PV0p0JVOxfJTsnmAWVDaHRRH82FLBOv19jcxuoExn16H-XafAqiV39gQBaYLCpDGxDAbUqT5zzsltloXPyr6gz7MXlTyjAdHWb3uto-QDQXUbTtuRi1It3xwz2DzpgYC44dHtekD7PTkgP4PMASGivrXEXs67N3-pe6Zzy28MLIfI9N02ops1V_8VeG3I-Zw-vdzkPstomoWkeiraWCX4ULfgqCBOjdpuLRmF6- -rl6kUCwkxn-MPoDbqswX-MKMSZYcKoOfIEII-YvoGOdJHhon4sicQC5PYxIzGCCuyU7sEY9chBHQRC4btJtSK0yb4dBw7Jj8ThuYZMNirYNoa2qd8ERePSpaxAk6sTD6fWfIwA0bbMg3wdn4SwR5ARIeY2znQXfSTEefnjdo_XGjZ2Ow0upNgsyWrBKX2XJRBodACFkxu1vqhShBMAdbjAlZelZ0qh4chUGLpOuXH8Mz0MJlyserhfwRemLguJN1dWmAHRkI1Toj5Mg6HtGmcIkDJVMoVat8Qj4iIQbXHe12ZLYq7WZOkmclEULng9rQbem5zHqkQ_O3dseL2riF5D5UfQU5DeuFVO4yFXL_jlJeYTJoRFcm_FaOZFwpaFwoYJKU4LhAMnMRTgnSGuQWs9twuG4hZJk162h73ASGminLlwAmSqeP-B8p-GXx6z1gxIecIPvcYBnH3aSiKAbo95FCGJ58KP9aIOyLZC5NCNIL5bn0pc4Rlp1ak5zsIwduaVf3clYy-cdSbACMyc4lueKpFbJ7mlCIjfC1gSOnh74oSdLJ3otIF4eDlD5glmHyZK7Kp9Zqs75NeTAsgXHp5zkcOxceR_byDM1AuWnLzm070lEiuLB3QvdyA_ddSgfFv1uKy3ztpTyJt9vLXiSlDkiZT_y4t9aH3omI-ratRZGjQa_VPORmC9bTpy_Twaz5Iwx4_q45q_5JcPcgyHsLlVpADzqsUhkXudjhlSVkcolDTzZh54SUyso_frTzDqmw6hHs-1_]--></g></svg>