<?xml version="1.0" encoding="us-ascii" standalone="no"?><svg xmlns="http://www.w3.org/2000/svg" xmlns:xlink="http://www.w3.org/1999/xlink" contentStyleType="text/css" height="1553px" preserveAspectRatio="none" style="width:2066px;height:1553px;background:#F8F9FA;" version="1.1" viewBox="0 0 2066 1553" width="2066px" zoomAndPan="magnify"><defs/><g><rect fill="#F8F9FA" height="1553" style="stroke:none;stroke-width:1.0;" width="2066" x="0" y="0"/><text fill="#000000" font-family="Verdana" font-size="22" font-weight="bold" lengthAdjust="spacing" textLength="829" x="614" y="37.1182">3D Data Quality Framework -- Notification &amp; Alerting Architecture</text><!--cluster Events--><g id="cluster_Events"><rect fill="#FFF3E0" height="91" rx="4" ry="4" style="stroke:#90A4AE;stroke-width:1.0;" width="2048" x="12" y="59.7373"/><text fill="#000000" font-family="Verdana" font-size="10" font-weight="bold" lengthAdjust="spacing" textLength="151" x="960.5" y="71.791">Notification Trigger Events</text></g><!--cluster Dispatcher--><g id="cluster_Dispatcher"><rect fill="#E3F2FD" height="827" rx="4" ry="4" style="stroke:#90A4AE;stroke-width:1.0;" width="280" x="907" y="283.7373"/><text fill="#000000" font-family="Verdana" font-size="10" font-weight="bold" lengthAdjust="spacing" textLength="131" x="981.5" y="295.791">Notification Dispatcher</text></g><!--cluster Channels--><g id="cluster_Channels"><path d="M753.9015,1173.3623 C767.055,1155.3225 783.1459,1154.3948 796.2293,1173.4423 C808.4796,1154.3018 825.9158,1156.4536 836.8817,1174.8338 C849.3756,1153.7866 866.3443,1155.9474 877.3942,1176.2487 C884.0661,1158.6407 900.3296,1151.0525 914.3981,1168.4239 C930.9739,1144.9778 949.0696,1146.8966 960.349,1173.3056 C971.9264,1156.8046 983.2836,1156.5852 997.1408,1170.5527 C1011.2465,1149.208 1027.0498,1154.4861 1039.3049,1172.5336 C1049.329,1147.0426 1071.0872,1146.352 1084.8777,1168.9654 C1099.849,1151.4608 1115.6936,1152.2543 1125.2371,1174.4792 C1134.7827,1152.4418 1152.3573,1152.1188 1167.0011,1169.0096 C1183.6101,1147.8493 1199.073,1151.573 1212.7121,1172.2541 C1225.2889,1154.779 1238.2357,1157.691 1247.3037,1175.677 C1258.7757,1149.264 1281.3544,1147.7374 1295.3717,1173.3241 C1311.437,1152.7633 1325.2155,1157.9183 1337,1177.7373 C1340.739,1178.4595 1341.126,1181.7338 1339.0327,1184.2706 C1362.8979,1190.8972 1367.1346,1209.8415 1349.0476,1226.433 C1368.669,1253.6165 1360.2207,1269.7048 1330,1278.7373 C1333.1108,1276.5452 1335.4941,1277.8555 1335.7164,1281.5448 C1326.4187,1301.4965 1307.2727,1306.7001 1293.92,1285.6816 C1282.718,1304.802 1262.9938,1301.3529 1252.8924,1284.4288 C1240.7168,1303.234 1220.2483,1305.9808 1208.2649,1284.2175 C1194.1074,1300.8496 1182.079,1298.2359 1169.9451,1281.8677 C1157.4599,1300.1452 1139.3772,1304.5577 1125.9987,1282.8496 C1114.2738,1303.35 1098.8547,1308.4461 1082.3935,1287.8785 C1072.3858,1306.0902 1054.5026,1303.4816 1045.0715,1287.2536 C1029.8048,1311.829 1008.6891,1305.2394 997.9676,1282.7087 C988.3249,1298.1096 971.7463,1298.9624 961.8692,1282.9783 C947.9111,1301.2228 927.5143,1306.2035 915.8182,1280.6026 C907.5054,1300.706 891.7076,1303.0036 878.46,1285.5055 C862.3867,1305.7116 844.7079,1303.3399 831.9892,1281.7735 C823.009,1298.9757 804.3286,1300.3088 793.2845,1284.1693 C771.5285,1302.8093 749.773,1304.4575 740,1271.7373 C743.438,1272.4149 745.3036,1275.2426 742.8072,1278.4149 C722.5345,1262.234 718.3279,1242.6398 744.2545,1227.7794 C714.57,1210.594 722.4096,1185.3103 747,1170.7373 C750.4357,1168.2808 752.9423,1169.3076 753.9015,1173.3623 " fill="#FFF9C4" style="stroke:#F9A825;stroke-width:1.0;"/><text fill="#000000" font-family="Verdana" font-size="14" font-weight="bold" lengthAdjust="spacing" textLength="164" x="956.5" y="1189.8125">Notification Channels</text></g><!--cluster Recipients--><g id="cluster_Recipients"><rect fill="#FCE4EC" height="212" rx="4" ry="4" style="stroke:#90A4AE;stroke-width:1.0;" width="749" x="732" y="1335.7373"/><text fill="#000000" font-family="Verdana" font-size="10" font-weight="bold" lengthAdjust="spacing" textLength="128" x="1042.5" y="1347.791">Notification Recipients</text></g><!--entity E1--><g id="elem_E1"><rect fill="#FFECB3" height="44.3066" rx="4" ry="4" style="stroke:#90A4AE;stroke-width:1.0;" width="197" x="28.5" y="90.7373"/><text fill="#000000" font-family="Verdana" font-size="10" lengthAdjust="spacing" textLength="156" x="38.5" y="110.791">Rule submitted for approval</text><text fill="#000000" font-family="Verdana" font-size="10" lengthAdjust="spacing" textLength="177" x="38.5" y="122.9443">(status -&gt; PENDING_APPROVAL)</text></g><!--entity E2--><g id="elem_E2"><rect fill="#FFECB3" height="44.3066" rx="4" ry="4" style="stroke:#90A4AE;stroke-width:1.0;" width="211" x="260.5" y="90.7373"/><text fill="#000000" font-family="Verdana" font-size="10" lengthAdjust="spacing" textLength="191" x="270.5" y="110.791">Rule approved / rejected / revised</text><text fill="#000000" font-family="Verdana" font-size="10" lengthAdjust="spacing" textLength="143" x="270.5" y="122.9443">(approval decision made)</text></g><!--entity E3--><g id="elem_E3"><rect fill="#FFCDD2" height="44.3066" rx="4" ry="4" style="stroke:#90A4AE;stroke-width:1.0;" width="173" x="506.5" y="90.7373"/><text fill="#000000" font-family="Verdana" font-size="10" lengthAdjust="spacing" textLength="120" x="516.5" y="110.791">DQ violation detected</text><text fill="#000000" font-family="Verdana" font-size="10" lengthAdjust="spacing" textLength="153" x="516.5" y="122.9443">(violation_rate &gt; threshold)</text></g><!--entity E4--><g id="elem_E4"><rect fill="#FFCDD2" height="44.3066" rx="4" ry="4" style="stroke:#90A4AE;stroke-width:1.0;" width="194" x="715" y="90.7373"/><text fill="#000000" font-family="Verdana" font-size="10" lengthAdjust="spacing" textLength="174" x="725" y="110.791">Rule execution failed / timeout</text><text fill="#000000" font-family="Verdana" font-size="10" lengthAdjust="spacing" textLength="80" x="725" y="122.9443">(system error)</text></g><!--entity E5--><g id="elem_E5"><rect fill="#FFECB3" height="44.3066" rx="4" ry="4" style="stroke:#90A4AE;stroke-width:1.0;" width="215" x="944.5" y="90.7373"/><text fill="#000000" font-family="Verdana" font-size="10" lengthAdjust="spacing" textLength="127" x="954.5" y="110.791">Approval SLA breached</text><text fill="#000000" font-family="Verdana" font-size="10" lengthAdjust="spacing" textLength="195" x="954.5" y="122.9443">(+24h reminder / +48h escalation)</text></g><!--entity E6--><g id="elem_E6"><rect fill="#FFCDD2" height="44.3066" rx="4" ry="4" style="stroke:#90A4AE;stroke-width:1.0;" width="189" x="1194.5" y="90.7373"/><text fill="#000000" font-family="Verdana" font-size="10" lengthAdjust="spacing" textLength="129" x="1204.5" y="110.791">Emergency rule disable</text><text fill="#000000" font-family="Verdana" font-size="10" lengthAdjust="spacing" textLength="169" x="1204.5" y="122.9443">(DataOps kill-switch activated)</text></g><!--entity E7--><g id="elem_E7"><rect fill="#FFECB3" height="44.3066" rx="4" ry="4" style="stroke:#90A4AE;stroke-width:1.0;" width="231" x="1418.5" y="90.7373"/><text fill="#000000" font-family="Verdana" font-size="10" lengthAdjust="spacing" textLength="140" x="1428.5" y="110.791">Schema change detected</text><text fill="#000000" font-family="Verdana" font-size="10" lengthAdjust="spacing" textLength="211" x="1428.5" y="122.9443">(column added / dropped / renamed)</text></g><!--entity E8--><g id="elem_E8"><rect fill="#DCEDC8" height="44.3066" rx="4" ry="4" style="stroke:#90A4AE;stroke-width:1.0;" width="162" x="1685" y="90.7373"/><text fill="#000000" font-family="Verdana" font-size="10" lengthAdjust="spacing" textLength="142" x="1695" y="110.791">Rule promoted to ACTIVE</text><text fill="#000000" font-family="Verdana" font-size="10" lengthAdjust="spacing" textLength="139" x="1695" y="122.9443">(new rule now executing)</text></g><!--entity E9--><g id="elem_E9"><rect fill="#DCEDC8" height="44.3066" rx="4" ry="4" style="stroke:#90A4AE;stroke-width:1.0;" width="162" x="1882" y="90.7373"/><text fill="#000000" font-family="Verdana" font-size="10" lengthAdjust="spacing" textLength="142" x="1892" y="110.791">Execution batch complete</text><text fill="#000000" font-family="Verdana" font-size="10" lengthAdjust="spacing" textLength="92" x="1892" y="122.9443">(daily summary)</text></g><!--entity PriorityRouter--><g id="elem_PriorityRouter"><rect fill="#BBDEFB" height="84.7666" rx="4" ry="4" style="stroke:#90A4AE;stroke-width:1.0;" width="229" x="937.5" y="314.7373"/><text fill="#000000" font-family="Verdana" font-size="10" lengthAdjust="spacing" textLength="100" x="947.5" y="334.791">(1) Priority Router</text><text fill="#000000" font-family="Verdana" font-size="10" lengthAdjust="spacing" textLength="183" x="947.5" y="359.0977">P1 = Critical (violations, failures)</text><text fill="#000000" font-family="Verdana" font-size="10" lengthAdjust="spacing" textLength="203" x="947.5" y="371.251">P2 = Action required (approval, SLA)</text><text fill="#000000" font-family="Verdana" font-size="10" lengthAdjust="spacing" textLength="198" x="947.5" y="383.4043">P3 = Informational (status change)</text><line style="stroke:#90A4AE;stroke-width:1.0;" x1="938.5" x2="1042" y1="342.9673" y2="342.9673"/><text fill="#000000" font-family="Verdana" font-size="10" lengthAdjust="spacing" text-decoration="line-through" textLength="5" x="1042" y="346.4443">-</text><text fill="#000000" font-family="Verdana" font-size="10" lengthAdjust="spacing" text-decoration="line-through" textLength="5" x="1047" y="346.4443">-</text><text fill="#000000" font-family="Verdana" font-size="10" lengthAdjust="spacing" textLength="10" x="1052" y="346.4443">--</text><line style="stroke:#90A4AE;stroke-width:1.0;" x1="1062" x2="1165.5" y1="342.9673" y2="342.9673"/></g><!--entity Dedup--><g id="elem_Dedup"><rect fill="#BBDEFB" height="84.7666" rx="4" ry="4" style="stroke:#90A4AE;stroke-width:1.0;" width="247" x="923.5" y="557.7373"/><text fill="#000000" font-family="Verdana" font-size="10" lengthAdjust="spacing" textLength="137" x="933.5" y="577.791">(2) Deduplication Engine</text><text fill="#000000" font-family="Verdana" font-size="10" lengthAdjust="spacing" textLength="160" x="933.5" y="602.0977">Sliding window: 1hr cooldown</text><text fill="#000000" font-family="Verdana" font-size="10" lengthAdjust="spacing" textLength="221" x="933.5" y="614.251">Same rule + same violation = suppress</text><text fill="#000000" font-family="Verdana" font-size="10" lengthAdjust="spacing" textLength="120" x="933.5" y="626.4043">Prevents alert fatigue</text><line style="stroke:#90A4AE;stroke-width:1.0;" x1="924.5" x2="1037" y1="585.9673" y2="585.9673"/><text fill="#000000" font-family="Verdana" font-size="10" lengthAdjust="spacing" text-decoration="line-through" textLength="5" x="1037" y="589.4443">-</text><text fill="#000000" font-family="Verdana" font-size="10" lengthAdjust="spacing" text-decoration="line-through" textLength="5" x="1042" y="589.4443">-</text><text fill="#000000" font-family="Verdana" font-size="10" lengthAdjust="spacing" textLength="10" x="1047" y="589.4443">--</text><line style="stroke:#90A4AE;stroke-width:1.0;" x1="1057" x2="1169.5" y1="585.9673" y2="585.9673"/></g><!--entity ChanSelect--><g id="elem_ChanSelect"><rect fill="#BBDEFB" height="84.7666" rx="4" ry="4" style="stroke:#90A4AE;stroke-width:1.0;" width="188" x="953" y="705.7373"/><text fill="#000000" font-family="Verdana" font-size="10" lengthAdjust="spacing" textLength="115" x="963" y="725.791">(3) Channel Selector</text><text fill="#000000" font-family="Verdana" font-size="10" lengthAdjust="spacing" textLength="162" x="963" y="750.0977">P1 -&gt; Email + Jira (P1 ticket)</text><text fill="#000000" font-family="Verdana" font-size="10" lengthAdjust="spacing" textLength="162" x="963" y="762.251">P2 -&gt; Email + Jira (P2 ticket)</text><text fill="#000000" font-family="Verdana" font-size="10" lengthAdjust="spacing" textLength="157" x="963" y="774.4043">P3 -&gt; Email only (or in-app)</text><line style="stroke:#90A4AE;stroke-width:1.0;" x1="954" x2="1037" y1="733.9673" y2="733.9673"/><text fill="#000000" font-family="Verdana" font-size="10" lengthAdjust="spacing" text-decoration="line-through" textLength="5" x="1037" y="737.4443">-</text><text fill="#000000" font-family="Verdana" font-size="10" lengthAdjust="spacing" text-decoration="line-through" textLength="5" x="1042" y="737.4443">-</text><text fill="#000000" font-family="Verdana" font-size="10" lengthAdjust="spacing" textLength="10" x="1047" y="737.4443">--</text><line style="stroke:#90A4AE;stroke-width:1.0;" x1="1057" x2="1140" y1="733.9673" y2="733.9673"/></g><!--entity RateLimit--><g id="elem_RateLimit"><rect fill="#BBDEFB" height="84.7666" rx="4" ry="4" style="stroke:#90A4AE;stroke-width:1.0;" width="167" x="963.5" y="851.7373"/><text fill="#000000" font-family="Verdana" font-size="10" lengthAdjust="spacing" textLength="89" x="973.5" y="871.791">(4) Rate Limiter</text><text fill="#000000" font-family="Verdana" font-size="10" lengthAdjust="spacing" textLength="118" x="973.5" y="896.0977">Max 10 alerts/rule/hr</text><text fill="#000000" font-family="Verdana" font-size="10" lengthAdjust="spacing" textLength="141" x="973.5" y="908.251">Cooldown after P1 trigger</text><text fill="#000000" font-family="Verdana" font-size="10" lengthAdjust="spacing" textLength="105" x="973.5" y="920.4043">Batch digest for P3</text><line style="stroke:#90A4AE;stroke-width:1.0;" x1="964.5" x2="1037" y1="879.9673" y2="879.9673"/><text fill="#000000" font-family="Verdana" font-size="10" lengthAdjust="spacing" text-decoration="line-through" textLength="5" x="1037" y="883.4443">-</text><text fill="#000000" font-family="Verdana" font-size="10" lengthAdjust="spacing" text-decoration="line-through" textLength="5" x="1042" y="883.4443">-</text><text fill="#000000" font-family="Verdana" font-size="10" lengthAdjust="spacing" textLength="10" x="1047" y="883.4443">--</text><line style="stroke:#90A4AE;stroke-width:1.0;" x1="1057" x2="1129.5" y1="879.9673" y2="879.9673"/></g><!--entity TemplEngine--><g id="elem_TemplEngine"><rect fill="#BBDEFB" height="96.9199" rx="4" ry="4" style="stroke:#90A4AE;stroke-width:1.0;" width="175" x="959.5" y="997.7373"/><text fill="#000000" font-family="Verdana" font-size="10" lengthAdjust="spacing" textLength="115" x="969.5" y="1017.791">(5) Template Engine</text><text fill="#000000" font-family="Verdana" font-size="10" lengthAdjust="spacing" textLength="149" x="969.5" y="1042.0977">Rule details + SQL snippet</text><text fill="#000000" font-family="Verdana" font-size="10" lengthAdjust="spacing" textLength="121" x="969.5" y="1054.251">Violation sample rows</text><text fill="#000000" font-family="Verdana" font-size="10" lengthAdjust="spacing" textLength="98" x="969.5" y="1066.4043">Direct action links</text><text fill="#000000" font-family="Verdana" font-size="10" lengthAdjust="spacing" textLength="115" x="969.5" y="1078.5576">Trend score included</text><line style="stroke:#90A4AE;stroke-width:1.0;" x1="960.5" x2="1037" y1="1025.9673" y2="1025.9673"/><text fill="#000000" font-family="Verdana" font-size="10" lengthAdjust="spacing" text-decoration="line-through" textLength="5" x="1037" y="1029.4443">-</text><text fill="#000000" font-family="Verdana" font-size="10" lengthAdjust="spacing" text-decoration="line-through" textLength="5" x="1042" y="1029.4443">-</text><text fill="#000000" font-family="Verdana" font-size="10" lengthAdjust="spacing" textLength="10" x="1047" y="1029.4443">--</text><line style="stroke:#90A4AE;stroke-width:1.0;" x1="1057" x2="1133.5" y1="1025.9673" y2="1025.9673"/></g><!--entity Email--><g id="elem_Email"><rect fill="#E8F5E9" height="44.3066" rx="4" ry="4" style="stroke:#90A4AE;stroke-width:1.0;" width="156" x="775" y="1212.7373"/><text fill="#000000" font-family="Verdana" font-size="10" lengthAdjust="spacing" textLength="30" x="785" y="1232.791">Email</text><text fill="#000000" font-family="Verdana" font-size="10" lengthAdjust="spacing" textLength="136" x="785" y="1244.9443">(All P1 / P2 / P3 events)</text></g><!--entity Jira--><g id="elem_Jira"><rect fill="#E8F5E9" height="56.46" rx="4" ry="4" style="stroke:#90A4AE;stroke-width:1.0;" width="161" x="966.5" y="1206.7373"/><text fill="#000000" font-family="Verdana" font-size="10" lengthAdjust="spacing" textLength="19" x="976.5" y="1226.791">Jira</text><text fill="#000000" font-family="Verdana" font-size="10" lengthAdjust="spacing" textLength="141" x="976.5" y="1238.9443">(auto-ticket for violations</text><text fill="#000000" font-family="Verdana" font-size="10" lengthAdjust="spacing" textLength="130" x="976.5" y="1251.0977">and approval requests)</text></g><!--entity DBNotif--><g id="elem_DBNotif"><rect fill="#E8F5E9" height="44.3066" rx="4" ry="4" style="stroke:#90A4AE;stroke-width:1.0;" width="158" x="1163" y="1212.7373"/><text fill="#000000" font-family="Verdana" font-size="10" lengthAdjust="spacing" textLength="100" x="1173" y="1232.791">Databricks In-App</text><text fill="#000000" font-family="Verdana" font-size="10" lengthAdjust="spacing" textLength="138" x="1173" y="1244.9443">(workspace notifications)</text></g><!--entity OwnerRecip--><g id="elem_OwnerRecip"><rect fill="#FFFFFF" height="44.3066" rx="4" ry="4" style="stroke:#90A4AE;stroke-width:1.0;" width="173" x="775.5" y="1374.7373"/><text fill="#000000" font-family="Verdana" font-size="10" lengthAdjust="spacing" textLength="92" x="785.5" y="1394.791">Rule Owner / PO</text><text fill="#000000" font-family="Verdana" font-size="10" lengthAdjust="spacing" textLength="153" x="785.5" y="1406.9443">(all events for owned rules)</text></g><!--entity TLRecip--><g id="elem_TLRecip"><rect fill="#FFFFFF" height="44.3066" rx="4" ry="4" style="stroke:#90A4AE;stroke-width:1.0;" width="223" x="983.5" y="1374.7373"/><text fill="#000000" font-family="Verdana" font-size="10" lengthAdjust="spacing" textLength="57" x="993.5" y="1394.791">Tech Lead</text><text fill="#000000" font-family="Verdana" font-size="10" lengthAdjust="spacing" textLength="203" x="993.5" y="1406.9443">(P1 violations, technical escalations)</text></g><!--entity DGRecip--><g id="elem_DGRecip"><rect fill="#FFFFFF" height="44.3066" rx="4" ry="4" style="stroke:#90A4AE;stroke-width:1.0;" width="215" x="1241.5" y="1374.7373"/><text fill="#000000" font-family="Verdana" font-size="10" lengthAdjust="spacing" textLength="95" x="1251.5" y="1394.791">Data Governance</text><text fill="#000000" font-family="Verdana" font-size="10" lengthAdjust="spacing" textLength="195" x="1251.5" y="1406.9443">(SLA breaches, compliance events)</text></g><!--entity DORecip--><g id="elem_DORecip"><rect fill="#FFFFFF" height="44.3066" rx="4" ry="4" style="stroke:#90A4AE;stroke-width:1.0;" width="230" x="775" y="1479.7373"/><text fill="#000000" font-family="Verdana" font-size="10" lengthAdjust="spacing" textLength="48" x="785" y="1499.791">DataOps</text><text fill="#000000" font-family="Verdana" font-size="10" lengthAdjust="spacing" textLength="210" x="785" y="1511.9443">(execution failures, schema changes)</text></g><!--entity SubRecip--><g id="elem_SubRecip"><rect fill="#FFFFFF" height="44.3066" rx="4" ry="4" style="stroke:#90A4AE;stroke-width:1.0;" width="221" x="1040.5" y="1479.7373"/><text fill="#000000" font-family="Verdana" font-size="10" lengthAdjust="spacing" textLength="83" x="1050.5" y="1499.791">Rule Submitter</text><text fill="#000000" font-family="Verdana" font-size="10" lengthAdjust="spacing" textLength="201" x="1050.5" y="1511.9443">(approval decisions, SLA reminders)</text></g><g id="elem_GMN45"><path d="M1206,555.7373 L1206,596.2373 L1170.75,600.2373 L1206,604.2373 L1206,644.7339 A0,0 0 0 0 1206,644.7339 L1528,644.7339 A0,0 0 0 0 1528,644.7339 L1528,565.7373 L1518,555.7373 L1206,555.7373 A0,0 0 0 0 1206,555.7373 " fill="#FFFFFF" style="stroke:#000000;stroke-width:1.0;"/><path d="M1518,555.7373 L1518,565.7373 L1528,565.7373 L1518,555.7373 " fill="#FFFFFF" style="stroke:#000000;stroke-width:1.0;"/><text fill="#000000" font-family="Verdana" font-size="13" lengthAdjust="spacing" textLength="213" x="1212" y="573.8071">Deduplication window examples:</text><text fill="#000000" font-family="Verdana" font-size="13" lengthAdjust="spacing" textLength="301" x="1212" y="589.6064">- Null violation on same column: 1hr suppress</text><text fill="#000000" font-family="Verdana" font-size="13" lengthAdjust="spacing" textLength="221" x="1212" y="605.4058">- Same rule failure: 2hr cooldown</text><text fill="#000000" font-family="Verdana" font-size="13" lengthAdjust="spacing" textLength="235" x="1212" y="621.2051">- Daily summary batches P3 events</text><text fill="#000000" font-family="Verdana" font-size="13" lengthAdjust="spacing" textLength="195" x="1222" y="637.0044">to single digest at 08:00 UTC</text></g><g id="elem_GMN48"><path d="M1203,219.7373 L1203,353.2373 L1166.71,357.2373 L1203,361.2373 L1203,494.5264 A0,0 0 0 0 1203,494.5264 L1463,494.5264 A0,0 0 0 0 1463,494.5264 L1463,229.7373 L1453,219.7373 L1203,219.7373 A0,0 0 0 0 1203,219.7373 " fill="#FFFFFF" style="stroke:#000000;stroke-width:1.0;"/><path d="M1453,219.7373 L1453,229.7373 L1463,229.7373 L1453,219.7373 " fill="#FFFFFF" style="stroke:#000000;stroke-width:1.0;"/><text fill="#000000" font-family="Verdana" font-size="13" lengthAdjust="spacing" textLength="152" x="1209" y="237.8071">Severity Classification:</text><text fill="#000000" font-family="Verdana" font-size="13" lengthAdjust="spacing" textLength="9" x="1209" y="253.6064">+</text><text fill="#000000" font-family="Verdana" font-size="13" lengthAdjust="spacing" text-decoration="line-through" textLength="7" x="1218" y="253.6064">-</text><text fill="#000000" font-family="Verdana" font-size="13" lengthAdjust="spacing" text-decoration="line-through" textLength="7" x="1225" y="253.6064">-</text><text fill="#000000" font-family="Verdana" font-size="13" lengthAdjust="spacing" text-decoration="line-through" textLength="7" x="1232" y="253.6064">-</text><text fill="#000000" font-family="Verdana" font-size="13" lengthAdjust="spacing" text-decoration="line-through" textLength="7" x="1239" y="253.6064">-</text><text fill="#000000" font-family="Verdana" font-size="13" lengthAdjust="spacing" text-decoration="line-through" textLength="7" x="1246" y="253.6064">-</text><text fill="#000000" font-family="Verdana" font-size="13" lengthAdjust="spacing" text-decoration="line-through" textLength="7" x="1253" y="253.6064">-</text><text fill="#000000" font-family="Verdana" font-size="13" lengthAdjust="spacing" text-decoration="line-through" textLength="7" x="1260" y="253.6064">-</text><text fill="#000000" font-family="Verdana" font-size="13" lengthAdjust="spacing" textLength="16" x="1267" y="253.6064">-+</text><text fill="#000000" font-family="Verdana" font-size="13" lengthAdjust="spacing" textLength="194" x="1214" y="271.4058">P1 = Threshold breached &gt;2x</text><text fill="#000000" font-family="Verdana" font-size="13" lengthAdjust="spacing" textLength="109" x="1239" y="287.2051">Execution failure</text><text fill="#000000" font-family="Verdana" font-size="13" lengthAdjust="spacing" textLength="122" x="1239" y="303.0044">Emergency disable</text><text fill="#000000" font-family="Verdana" font-size="13" lengthAdjust="spacing" textLength="129" x="1239" y="318.8037">PII column violation</text><line style="stroke:#000000;stroke-width:1.0;" x1="1209" x2="1448" y1="258.3359" y2="258.3359"/><line style="stroke:#000000;stroke-width:1.0;" x1="1209" x2="1448" y1="274.1353" y2="274.1353"/><line style="stroke:#000000;stroke-width:1.0;" x1="1209" x2="1448" y1="289.9346" y2="289.9346"/><line style="stroke:#000000;stroke-width:1.0;" x1="1209" x2="1448" y1="305.7339" y2="305.7339"/><line style="stroke:#000000;stroke-width:1.0;" x1="1209" x2="1448" y1="321.5332" y2="321.5332"/><line style="stroke:#000000;stroke-width:1.0;" x1="1209" x2="1209" y1="258.3359" y2="321.5332"/><line style="stroke:#000000;stroke-width:1.0;" x1="1448" x2="1448" y1="258.3359" y2="321.5332"/><text fill="#000000" font-family="Verdana" font-size="13" lengthAdjust="spacing" textLength="9" x="1209" y="336.603">+</text><text fill="#000000" font-family="Verdana" font-size="13" lengthAdjust="spacing" text-decoration="line-through" textLength="7" x="1218" y="336.603">-</text><text fill="#000000" font-family="Verdana" font-size="13" lengthAdjust="spacing" text-decoration="line-through" textLength="7" x="1225" y="336.603">-</text><text fill="#000000" font-family="Verdana" font-size="13" lengthAdjust="spacing" text-decoration="line-through" textLength="7" x="1232" y="336.603">-</text><text fill="#000000" font-family="Verdana" font-size="13" lengthAdjust="spacing" text-decoration="line-through" textLength="7" x="1239" y="336.603">-</text><text fill="#000000" font-family="Verdana" font-size="13" lengthAdjust="spacing" text-decoration="line-through" textLength="7" x="1246" y="336.603">-</text><text fill="#000000" font-family="Verdana" font-size="13" lengthAdjust="spacing" text-decoration="line-through" textLength="7" x="1253" y="336.603">-</text><text fill="#000000" font-family="Verdana" font-size="13" lengthAdjust="spacing" text-decoration="line-through" textLength="7" x="1260" y="336.603">-</text><text fill="#000000" font-family="Verdana" font-size="13" lengthAdjust="spacing" textLength="16" x="1267" y="336.603">-+</text><text fill="#000000" font-family="Verdana" font-size="13" lengthAdjust="spacing" textLength="208" x="1214" y="354.4023">P2 = Threshold breached (first)</text><text fill="#000000" font-family="Verdana" font-size="13" lengthAdjust="spacing" textLength="137" x="1239" y="370.2017">Approval SLA breach</text><text fill="#000000" font-family="Verdana" font-size="13" lengthAdjust="spacing" textLength="105" x="1239" y="386.001">Schema change</text><text fill="#000000" font-family="Verdana" font-size="13" lengthAdjust="spacing" textLength="113" x="1239" y="401.8003">Approval pending</text><line style="stroke:#000000;stroke-width:1.0;" x1="1209" x2="1442" y1="341.3325" y2="341.3325"/><line style="stroke:#000000;stroke-width:1.0;" x1="1209" x2="1442" y1="357.1318" y2="357.1318"/><line style="stroke:#000000;stroke-width:1.0;" x1="1209" x2="1442" y1="372.9312" y2="372.9312"/><line style="stroke:#000000;stroke-width:1.0;" x1="1209" x2="1442" y1="388.7305" y2="388.7305"/><line style="stroke:#000000;stroke-width:1.0;" x1="1209" x2="1442" y1="404.5298" y2="404.5298"/><line style="stroke:#000000;stroke-width:1.0;" x1="1209" x2="1209" y1="341.3325" y2="404.5298"/><line style="stroke:#000000;stroke-width:1.0;" x1="1442" x2="1442" y1="341.3325" y2="404.5298"/><text fill="#000000" font-family="Verdana" font-size="13" lengthAdjust="spacing" textLength="9" x="1209" y="419.5996">+</text><text fill="#000000" font-family="Verdana" font-size="13" lengthAdjust="spacing" text-decoration="line-through" textLength="7" x="1218" y="419.5996">-</text><text fill="#000000" font-family="Verdana" font-size="13" lengthAdjust="spacing" text-decoration="line-through" textLength="7" x="1225" y="419.5996">-</text><text fill="#000000" font-family="Verdana" font-size="13" lengthAdjust="spacing" text-decoration="line-through" textLength="7" x="1232" y="419.5996">-</text><text fill="#000000" font-family="Verdana" font-size="13" lengthAdjust="spacing" text-decoration="line-through" textLength="7" x="1239" y="419.5996">-</text><text fill="#000000" font-family="Verdana" font-size="13" lengthAdjust="spacing" text-decoration="line-through" textLength="7" x="1246" y="419.5996">-</text><text fill="#000000" font-family="Verdana" font-size="13" lengthAdjust="spacing" text-decoration="line-through" textLength="7" x="1253" y="419.5996">-</text><text fill="#000000" font-family="Verdana" font-size="13" lengthAdjust="spacing" text-decoration="line-through" textLength="7" x="1260" y="419.5996">-</text><text fill="#000000" font-family="Verdana" font-size="13" lengthAdjust="spacing" textLength="16" x="1267" y="419.5996">-+</text><text fill="#000000" font-family="Verdana" font-size="13" lengthAdjust="spacing" textLength="130" x="1214" y="437.3989">P3 = Rule activated</text><text fill="#000000" font-family="Verdana" font-size="13" lengthAdjust="spacing" textLength="115" x="1239" y="453.1982">Approval decision</text><text fill="#000000" font-family="Verdana" font-size="13" lengthAdjust="spacing" textLength="163" x="1239" y="468.9976">Daily execution summary</text><line style="stroke:#000000;stroke-width:1.0;" x1="1209" x2="1437" y1="424.3291" y2="424.3291"/><line style="stroke:#000000;stroke-width:1.0;" x1="1209" x2="1437" y1="440.1284" y2="440.1284"/><line style="stroke:#000000;stroke-width:1.0;" x1="1209" x2="1437" y1="455.9277" y2="455.9277"/><line style="stroke:#000000;stroke-width:1.0;" x1="1209" x2="1437" y1="471.7271" y2="471.7271"/><line style="stroke:#000000;stroke-width:1.0;" x1="1209" x2="1209" y1="424.3291" y2="471.7271"/><line style="stroke:#000000;stroke-width:1.0;" x1="1437" x2="1437" y1="424.3291" y2="471.7271"/><text fill="#000000" font-family="Verdana" font-size="13" lengthAdjust="spacing" textLength="9" x="1209" y="486.7969">+</text><text fill="#000000" font-family="Verdana" font-size="13" lengthAdjust="spacing" text-decoration="line-through" textLength="7" x="1218" y="486.7969">-</text><text fill="#000000" font-family="Verdana" font-size="13" lengthAdjust="spacing" text-decoration="line-through" textLength="7" x="1225" y="486.7969">-</text><text fill="#000000" font-family="Verdana" font-size="13" lengthAdjust="spacing" text-decoration="line-through" textLength="7" x="1232" y="486.7969">-</text><text fill="#000000" font-family="Verdana" font-size="13" lengthAdjust="spacing" text-decoration="line-through" textLength="7" x="1239" y="486.7969">-</text><text fill="#000000" font-family="Verdana" font-size="13" lengthAdjust="spacing" text-decoration="line-through" textLength="7" x="1246" y="486.7969">-</text><text fill="#000000" font-family="Verdana" font-size="13" lengthAdjust="spacing" text-decoration="line-through" textLength="7" x="1253" y="486.7969">-</text><text fill="#000000" font-family="Verdana" font-size="13" lengthAdjust="spacing" text-decoration="line-through" textLength="7" x="1260" y="486.7969">-</text><text fill="#000000" font-family="Verdana" font-size="13" lengthAdjust="spacing" textLength="16" x="1267" y="486.7969">-+</text></g><!--link E1 to PriorityRouter--><g id="link_E1_PriorityRouter"><path d="M177.02,134.7873 C197.29,142.8873 221.05,151.8373 243,158.7373 C486.76,235.4173 773.6958,299.1351 931.6258,331.9951 " fill="none" id="E1-to-PriorityRouter" style="stroke:#546E7A;stroke-width:1.0;"/><polygon fill="#546E7A" points="937.5,333.2173,929.5035,327.4678,932.6048,332.1988,927.8739,335.3001,937.5,333.2173" style="stroke:#546E7A;stroke-width:1.0;"/><text fill="#000000" font-family="Verdana" font-size="9" lengthAdjust="spacing" textLength="105" x="330" y="182.2856">P2 -- action required</text></g><!--link E2 to PriorityRouter--><g id="link_E2_PriorityRouter"><path d="M423.2,134.8473 C443.91,142.4373 467.49,151.0273 489,158.7373 C643.92,214.2473 817.7224,274.958 931.6024,314.528 " fill="none" id="E2-to-PriorityRouter" style="stroke:#546E7A;stroke-width:1.0;"/><polygon fill="#546E7A" points="937.27,316.4973,930.0815,309.7649,932.547,314.8562,927.4557,317.3217,937.27,316.4973" style="stroke:#546E7A;stroke-width:1.0;"/><text fill="#000000" font-family="Verdana" font-size="9" lengthAdjust="spacing" textLength="95" x="566" y="182.2856">P3 -- informational</text></g><!--link E3 to PriorityRouter--><g id="link_E3_PriorityRouter"><path d="M632.93,134.8373 C708.61,174.8173 868.8951,259.4941 967.7551,311.7341 " fill="none" id="E3-to-PriorityRouter" style="stroke:#546E7A;stroke-width:1.0;"/><polygon fill="#546E7A" points="973.06,314.5373,966.9715,306.7959,968.6393,312.2013,963.2338,313.8691,973.06,314.5373" style="stroke:#546E7A;stroke-width:1.0;"/><text fill="#000000" font-family="Verdana" font-size="9" lengthAdjust="spacing" textLength="62" x="753" y="176.7856">P1 / P2 / P3</text><text fill="#000000" font-family="Verdana" font-size="9" lengthAdjust="spacing" textLength="110" x="729" y="187.7236">(by violation severity)</text></g><!--link E4 to PriorityRouter--><g id="link_E4_PriorityRouter"><path d="M832.88,134.8373 C872.45,174.8173 954.8095,258.0327 1006.5095,310.2727 " fill="none" id="E4-to-PriorityRouter" style="stroke:#546E7A;stroke-width:1.0;"/><polygon fill="#546E7A" points="1010.73,314.5373,1007.2423,305.3267,1007.2129,310.9835,1001.5561,310.9541,1010.73,314.5373" style="stroke:#546E7A;stroke-width:1.0;"/><text fill="#000000" font-family="Verdana" font-size="9" lengthAdjust="spacing" textLength="101" x="883" y="182.2856">P1 -- system failure</text></g><!--link E5 to PriorityRouter--><g id="link_E5_PriorityRouter"><path d="M1052,134.8373 C1052,174.8173 1052,256.2973 1052,308.5373 " fill="none" id="E5-to-PriorityRouter" style="stroke:#546E7A;stroke-width:1.0;"/><polygon fill="#546E7A" points="1052,314.5373,1056,305.5373,1052,309.5373,1048,305.5373,1052,314.5373" style="stroke:#546E7A;stroke-width:1.0;"/><text fill="#000000" font-family="Verdana" font-size="9" lengthAdjust="spacing" textLength="88" x="1053" y="182.2856">P2 -- SLA breach</text></g><!--link E6 to PriorityRouter--><g id="link_E6_PriorityRouter"><path d="M1268.38,134.8373 C1229.3,174.8173 1148.0035,258.0061 1096.9535,310.2461 " fill="none" id="E6-to-PriorityRouter" style="stroke:#546E7A;stroke-width:1.0;"/><polygon fill="#546E7A" points="1092.76,314.5373,1101.911,310.8961,1096.2546,310.9613,1096.1894,305.3048,1092.76,314.5373" style="stroke:#546E7A;stroke-width:1.0;"/><text fill="#000000" font-family="Verdana" font-size="9" lengthAdjust="spacing" textLength="85" x="1232" y="182.2856">P1 -- emergency</text></g><!--link E7 to PriorityRouter--><g id="link_E7_PriorityRouter"><path d="M1482.52,134.8273 C1440.83,151.3473 1380.3,174.0773 1326,189.7373 C1264.86,207.3673 1241.76,189.0673 1186,219.7373 C1143.81,242.9473 1110.1438,278.9527 1085.6538,309.8927 " fill="none" id="E7-to-PriorityRouter" style="stroke:#546E7A;stroke-width:1.0;"/><polygon fill="#546E7A" points="1081.93,314.5973,1090.6521,310.023,1085.0332,310.6768,1084.3794,305.0579,1081.93,314.5973" style="stroke:#546E7A;stroke-width:1.0;"/><text fill="#000000" font-family="Verdana" font-size="9" lengthAdjust="spacing" textLength="92" x="1396" y="182.2856">P2 -- schema drift</text></g><!--link E8 to PriorityRouter--><g id="link_E8_PriorityRouter"><path d="M1725.47,134.8973 C1707.88,143.3473 1686.82,152.5273 1667,158.7373 C1593.71,181.6873 1573.07,179.1473 1497,189.7373 C1428.23,199.3073 1248.66,189.8273 1186,219.7373 C1141.95,240.7673 1107.9175,277.8705 1083.8475,309.7205 " fill="none" id="E8-to-PriorityRouter" style="stroke:#546E7A;stroke-width:1.0;"/><polygon fill="#546E7A" points="1080.23,314.5073,1088.8475,309.7388,1083.2446,310.5183,1082.4651,304.9154,1080.23,314.5073" style="stroke:#546E7A;stroke-width:1.0;"/><text fill="#000000" font-family="Verdana" font-size="9" lengthAdjust="spacing" textLength="95" x="1640" y="182.2856">P3 -- informational</text></g><!--link E9 to PriorityRouter--><g id="link_E9_PriorityRouter"><path d="M1921.24,134.9273 C1904.1,143.0873 1883.88,152.0473 1865,158.7373 C1812.68,177.2873 1798.87,181.3173 1744,189.7373 C1621.26,208.5673 1299.17,168.6273 1186,219.7373 C1141.21,239.9673 1106.9948,277.6085 1083.0848,309.8385 " fill="none" id="E9-to-PriorityRouter" style="stroke:#546E7A;stroke-width:1.0;"/><polygon fill="#546E7A" points="1079.51,314.6573,1088.0848,309.8124,1082.489,310.6417,1081.6597,305.0459,1079.51,314.6573" style="stroke:#546E7A;stroke-width:1.0;"/><text fill="#000000" font-family="Verdana" font-size="9" lengthAdjust="spacing" textLength="88" x="1841" y="182.2856">P3 -- daily digest</text></g><!--link PriorityRouter to Dedup--><g id="link_PriorityRouter_Dedup"><path d="M1051.13,399.9373 C1050.22,444.1273 1048.905,507.4986 1047.985,551.6386 " fill="none" id="PriorityRouter-to-Dedup" style="stroke:#546E7A;stroke-width:1.0;"/><polygon fill="#546E7A" points="1047.86,557.6373,1052.0467,548.7226,1047.9642,552.6384,1044.0484,548.5559,1047.86,557.6373" style="stroke:#546E7A;stroke-width:1.0;"/></g><!--link Dedup to ChanSelect--><g id="link_Dedup_ChanSelect"><path d="M1047,643.0773 C1047,662.7073 1047,680.0473 1047,699.6473 " fill="none" id="Dedup-to-ChanSelect" style="stroke:#546E7A;stroke-width:1.0;"/><polygon fill="#546E7A" points="1047,705.6473,1051,696.6473,1047,700.6473,1043,696.6473,1047,705.6473" style="stroke:#546E7A;stroke-width:1.0;"/></g><!--link ChanSelect to RateLimit--><g id="link_ChanSelect_RateLimit"><path d="M1047,790.8873 C1047,809.9973 1047,826.5873 1047,845.6773 " fill="none" id="ChanSelect-to-RateLimit" style="stroke:#546E7A;stroke-width:1.0;"/><polygon fill="#546E7A" points="1047,851.6773,1051,842.6773,1047,846.6773,1043,842.6773,1047,851.6773" style="stroke:#546E7A;stroke-width:1.0;"/></g><!--link RateLimit to TemplEngine--><g id="link_RateLimit_TemplEngine"><path d="M1047,937.0173 C1047,955.8273 1047,972.1373 1047,991.5973 " fill="none" id="RateLimit-to-TemplEngine" style="stroke:#546E7A;stroke-width:1.0;"/><polygon fill="#546E7A" points="1047,997.5973,1051,988.5973,1047,992.5973,1043,988.5973,1047,997.5973" style="stroke:#546E7A;stroke-width:1.0;"/></g><!--link TemplEngine to Email--><g id="link_TemplEngine_Email"><path d="M997.54,1094.7773 C958.03,1132.7673 908.8559,1180.0496 879.2759,1208.4796 " fill="none" id="TemplEngine-to-Email" style="stroke:#546E7A;stroke-width:1.0;"/><polygon fill="#546E7A" points="874.95,1212.6373,884.2107,1209.2847,878.5549,1209.1725,878.667,1203.5168,874.95,1212.6373" style="stroke:#546E7A;stroke-width:1.0;"/><text fill="#000000" font-family="Verdana" font-size="9" lengthAdjust="spacing" textLength="51" x="962" y="1136.7856">All events</text></g><!--link TemplEngine to Jira--><g id="link_TemplEngine_Jira"><path d="M1047,1094.7773 C1047,1130.1773 1047,1171.2473 1047,1200.5173 " fill="none" id="TemplEngine-to-Jira" style="stroke:#546E7A;stroke-width:1.0;"/><polygon fill="#546E7A" points="1047,1206.5173,1051,1197.5173,1047,1201.5173,1043,1197.5173,1047,1206.5173" style="stroke:#546E7A;stroke-width:1.0;"/><text fill="#000000" font-family="Verdana" font-size="9" lengthAdjust="spacing" textLength="65" x="1048" y="1136.7856">P1 + P2 only</text></g><!--link TemplEngine to DBNotif--><g id="link_TemplEngine_DBNotif"><path d="M1096.71,1094.7773 C1136.43,1132.7673 1185.8736,1180.0605 1215.6036,1208.4905 " fill="none" id="TemplEngine-to-DBNotif" style="stroke:#546E7A;stroke-width:1.0;"/><polygon fill="#546E7A" points="1219.94,1212.6373,1216.1999,1203.5262,1216.3263,1209.1817,1210.6709,1209.3081,1219.94,1212.6373" style="stroke:#546E7A;stroke-width:1.0;"/><text fill="#000000" font-family="Verdana" font-size="9" lengthAdjust="spacing" textLength="119" x="1139" y="1136.7856">P1 + P2 (in-workspace)</text></g><!--link Channels to Recipients--><g id="link_Channels_Recipients"><path d="M740,1287.2665 C740,1296.3886 740,1306.0789 740,1315.7686 C740,1320.6134 740,1325.4581 740,1330.2316 C740,1331.425 740,1332.6139 740,1333.7973 C740,1334.3889 740,1328.9792 740,1329.568 " fill="none" id="Channels-to-Recipients" style="stroke:#546E7A;stroke-width:1.0;"/><polygon fill="#546E7A" points="740,1335.568,744,1326.568,740,1330.568,736,1326.568,740,1335.568" style="stroke:#546E7A;stroke-width:1.0;"/></g><!--SRC=[bLThJzj85FtkNt6tIBj4D08IQ1EaLZAsGxDY8KrIf9MGgi4UabaSEpipWRBR_UzxPkpuLGTHVuYIpFMvxtFl_AANVCLf7JEHE5hec5FV9vzfHfytB1RwcKQIhVXJAX-eswMhL8jx4J8jqeH-9JVcKejaGQuCbqBpK6yaTnpr898rmtjqnyA7XKmtIUIbSIffRpGO3KTkHKBY9POieFXVXsYQYSg4InhWztag8oxpTuT7xeaRuDzHckYP-8VJyP7pNmKhZDDDP77EVz0x6WszaoRYQEWEUgSr32Pb-cGnSfdJatV1UxUgTOWNdD_eG_7GV3g-k0Yc5Dm4L_DPvSGftNjJYzrSYiK2JWQFFD7g3J6LVxMczeCZQqBbxUa6dsfpjn9QyuZkOHfRhsNwoEBRP5zffZUAkXzf4bpvuwkBh-vaChs-SIyxRwXyZ9PZeo7mplij-1aYu0znz1SEyw-FGl48QhOQAUAXKCQF5OjugSBWzzhn_S_qAD8uypxYse83ilZpgsIQqqVIIydLCesZckKbVj_WUxxVQx6VV-FXncguPoAsncknukb6cnWzAyrNn95WsOAznJzfntUthiykNRgJd8LBQ_z1xsG9kPL8K5RGTt0oM19N8SkygYio-AVjyGbMN2vu4ZwJD9v4Gh6xc4E1QSRhjQ874STTzIHqk2GMQl68S3LZPF3VjTi_WxqhHk4Iltar0M4QRrO9iIYoyOfakbxdQK_G-JKL1l_z2_M34ArIKpGw9TURZsy2A4ZuK-PJWiRACvGiMZDWy0Uqvtk1xmqQyIbIUyTC2C9qjOxX1HH4oFKpUcErOl9vHsPB_661t-nYVpoRk7Fl4nhv5Hti2xKsbd1fkxVyINj1VzGR-SqEtZ_kq4IAL1fM1T5fBc-JRkEvJIR7z84y245HJ6L_gBUsg46mgWEf7gJSq5eY-TyR8H7reZ_VcYerKdr8ZHEGnSfY6C2SAh92w5ZRjrPbHj7U-RaVZCwTXlcz3laysgpZRGI2P24ItkR3B1QH6GjFw8hqwOoEbn89Gq-dJmbEKLPPHHoGCjzBOlY0DC87hXIC1-zOHcHcoi1vBHORdWNRsB7Bpdw7F3YNSFGgZt6Gxeepw39O8QQmutSX6UtZFuJzWUiimZ-Uzohd_V8yJL20-w1aaNIHWoogneZCW5sMddHeQaZlKe3LswlX3_ODKouBWJeqGJjSGj3BWqditcJCs9qDbDlatBP791PSQJic9drhZj5a5UsovhH3SuwcCXRjJgtjSz07t5Q8o-pp9Qb4W390iJT57f5MT2TXb2AHlZ1gB6dXA1R90_wSWruYKc4gEQ8MnXlGZxNJsf3fBonjTghtoRsw2YvhapOR_lKUpUj05VamFvfzQLC86d7Zs0Joa91bVFGfAxyicLcUzuB1w3GOrjytfM5cuqQdtQmwRDZBnhrD65mjPgTfL-Gc1xQ5rOfhYFzE0b2XXRkOFr1YzZ3mJ6Z8jFGpX_BFhVC5MZDgqy0RJyQltL2c6F5hKMmdvK_mlnUS15xhXdBzbDWnEBas8K54ynus4K6zWgHC3US6Ms4BN4UQSrJm9MTcF24ZLGh4s5ecbXdB6PkZpIzReEmgUu6THY89ePaMbVaDF3j6X3cgfTk_s865IGoC-fvXAFajIhaoOBSmroqmDawpV9EJRLkLilnTR1Kv65x9q9fvdKp7rzFn_4-QNd-PO_UhPXVhNjTiXNM6FpCrZdMUrGU84_HsIFUDjAWE4YVexv2jj12SktkkqBj2Z8rmny6QjUjjQCfNjJou3dQc5vme4-fW-Na1bMzNB0TBp0k0UIOZAUwrWttazI4PlYIRhIaPCJjEGyYyPwUQayssuZ47vIHnAaDbUreGkrDIV75OOLF7gL9hVfxn6i58jsZMDZbBKrOEiJmmWJ8phqrooqAbv3wcOa5S7SSfYBWqisGNnm6pONA8nL9JUfy7XHghHxPOO9kqSqQTGG2NqmrSA8ij6qESiWKtMqAssuMLB_UGlD3Eg5TPLAoCNzqjizMJgt8uECO1BBjAsDxEfoxJT3GuEpgYBtFFCMFEkDHqh5u009hbpK5Up9GgYDZuTj1znNC0mUzaryVvzWvLt5JeO-_RjgI-Mq7x14qYgwtBLS7YUfBVJ7O9JiRZFEALLDG4VyQPNhip-_T2Ajrfg6wvehNRMByBDPysn3MoQ1RQ7mH_nXcpZ6VNxEtrxJMgYwls3i6iGik9jAtLdxQnADJ_0G00]--></g></svg>