<?xml version="1.0" encoding="us-ascii" standalone="no"?><svg xmlns="http://www.w3.org/2000/svg" xmlns:xlink="http://www.w3.org/1999/xlink" contentStyleType="text/css" height="1998px" preserveAspectRatio="none" style="width:2820px;height:1998px;background:#FFFFFF;" version="1.1" viewBox="0 0 2820 1998" width="2820px" zoomAndPan="magnify"><defs/><g><text fill="#000000" font-family="Verdana" font-size="22" font-weight="bold" lengthAdjust="spacing" textLength="749" x="1034.375" y="37.1182">3D Data Quality Framework - Rule Promotion (Dev -&gt; Prod)</text><rect fill="#FFFFFF" height="21.876" style="stroke:#FFFFFF;stroke-width:1.0;" width="2797.75" x="10" y="55.0166"/><rect fill="#E3F2FD" height="1935.9973" style="stroke:#E3F2FD;stroke-width:1.0;" width="180" x="10" y="55.0166"/><line style="stroke:#000000;stroke-width:1.0;" x1="10" x2="10" y1="55.0166" y2="1991.0139"/><rect fill="#FCE4EC" height="1935.9973" style="stroke:#FCE4EC;stroke-width:1.0;" width="267" x="190" y="55.0166"/><line style="stroke:#000000;stroke-width:1.0;" x1="190" x2="190" y1="55.0166" y2="1991.0139"/><rect fill="#E8F5E9" height="1935.9973" style="stroke:#E8F5E9;stroke-width:1.0;" width="179" x="457" y="55.0166"/><ellipse cx="547" cy="91.8926" fill="#4CAF50" rx="10" ry="10" style="stroke:#000000;stroke-width:1.0;"/><line style="stroke:#000000;stroke-width:1.0;" x1="457" x2="457" y1="55.0166" y2="1991.0139"/><path d="M1004.5,117.7776 L1004.5,142.4766 L984.5,146.4766 L1004.5,150.4766 L1004.5,175.1755 A0,0 0 0 0 1004.5,175.1755 L1266.5,175.1755 A0,0 0 0 0 1266.5,175.1755 L1266.5,127.7776 L1256.5,117.7776 L1004.5,117.7776 A0,0 0 0 0 1004.5,117.7776 " fill="#FFFFFF" style="stroke:#000000;stroke-width:1.0;"/><path d="M1256.5,117.7776 L1256.5,127.7776 L1266.5,127.7776 L1256.5,117.7776 " fill="#FFFFFF" style="stroke:#000000;stroke-width:1.0;"/><text fill="#000000" font-family="Verdana" font-size="13" lengthAdjust="spacing" textLength="128" x="1010.5" y="135.8474">DEPLOY_ENV = dev</text><text fill="#000000" font-family="Verdana" font-size="13" lengthAdjust="spacing" textLength="158" x="1010.5" y="151.6467">Catalog: lakehouse_dev</text><text fill="#000000" font-family="Verdana" font-size="13" lengthAdjust="spacing" textLength="241" x="1010.5" y="167.446">Schema:  ds_tda_governance_lhdev</text><rect fill="#ECEFF1" height="49.168" rx="12.5" ry="12.5" style="stroke:#90A4AE;stroke-width:1.0;" width="337" x="647.5" y="121.8926"/><text fill="#000000" font-family="Verdana" font-size="12" lengthAdjust="spacing" textLength="255" x="657.5" y="143.957">Data Engineer creates DQ rule via Agent</text><text fill="#000000" font-family="Verdana" font-size="12" lengthAdjust="spacing" textLength="317" x="657.5" y="158.541">(status: DRAFT -&gt; PENDING_APPROVAL -&gt; ACTIVE)</text><rect fill="#ECEFF1" height="49.168" rx="12.5" ry="12.5" style="stroke:#90A4AE;stroke-width:1.0;" width="348" x="642" y="195.1755"/><text fill="#000000" font-family="Verdana" font-size="12" lengthAdjust="spacing" textLength="328" x="652" y="217.24">Rule executes in DEV via ANOMALY_DETECTION_JOB</text><text fill="#000000" font-family="Verdana" font-size="12" lengthAdjust="spacing" textLength="233" x="652" y="231.824">for minimum 3 days of observed runs</text><rect fill="#ECEFF1" height="92.9199" rx="12.5" ry="12.5" style="stroke:#90A4AE;stroke-width:1.0;" width="227" x="702.5" y="264.3435"/><text fill="#000000" font-family="Verdana" font-size="12" lengthAdjust="spacing" textLength="191" x="712.5" y="286.408">Review DEV execution results:</text><text fill="#000000" font-family="Verdana" font-size="12" lengthAdjust="spacing" textLength="125" x="712.5" y="300.9919">- False positive rate</text><text fill="#000000" font-family="Verdana" font-size="12" lengthAdjust="spacing" textLength="196" x="712.5" y="315.5759">- Execution duration (avg, p95)</text><text fill="#000000" font-family="Verdana" font-size="12" lengthAdjust="spacing" textLength="207" x="712.5" y="330.1599">- Violation trend (stable / noisy?)</text><text fill="#000000" font-family="Verdana" font-size="12" lengthAdjust="spacing" textLength="128" x="712.5" y="344.7439">- Cost (DBU per run)</text><path d="M937.5,429.7324 L937.5,446.5317 L917.5,450.5317 L937.5,454.5317 L937.5,471.3311 A0,0 0 0 0 937.5,471.3311 L1131.5,471.3311 A0,0 0 0 0 1131.5,471.3311 L1131.5,439.7324 L1121.5,429.7324 L937.5,429.7324 A0,0 0 0 0 937.5,429.7324 " fill="#FFFFFF" style="stroke:#000000;stroke-width:1.0;"/><path d="M1121.5,429.7324 L1121.5,439.7324 L1131.5,439.7324 L1121.5,429.7324 " fill="#FFFFFF" style="stroke:#000000;stroke-width:1.0;"/><text fill="#000000" font-family="Verdana" font-size="13" lengthAdjust="spacing" textLength="144" x="943.5" y="447.8022">Loop until DEV results</text><text fill="#000000" font-family="Verdana" font-size="13" lengthAdjust="spacing" textLength="173" x="943.5" y="463.6016">are stable and acceptable</text><rect fill="#ECEFF1" height="49.168" rx="12.5" ry="12.5" style="stroke:#90A4AE;stroke-width:1.0;" width="203" x="714.5" y="425.9478"/><text fill="#000000" font-family="Verdana" font-size="12" lengthAdjust="spacing" textLength="155" x="724.5" y="448.0122">Revise rule - adjust SQL,</text><text fill="#000000" font-family="Verdana" font-size="12" lengthAdjust="spacing" textLength="183" x="724.5" y="462.5962">threshold or exception config</text><polygon fill="#FFF9C4" points="732.5,377.2634,899.5,377.2634,911.5,389.2634,899.5,401.2634,732.5,401.2634,720.5,389.2634,732.5,377.2634" style="stroke:#F9A825;stroke-width:1.0;"/><text fill="#000000" font-family="Verdana" font-size="11" lengthAdjust="spacing" textLength="15" x="820" y="412.3225">No</text><text fill="#000000" font-family="Verdana" font-size="11" lengthAdjust="spacing" textLength="167" x="732.5" y="393.6382">Rule passes DEV quality bar?</text><text fill="#000000" font-family="Verdana" font-size="11" lengthAdjust="spacing" textLength="20" x="911.5" y="386.9539">Yes</text><polygon fill="#FFF9C4" points="816,495.1157,828,507.1157,816,519.1157,804,507.1157,816,495.1157" style="stroke:#F9A825;stroke-width:1.0;"/><rect fill="#ECEFF1" height="63.752" rx="12.5" ry="12.5" style="stroke:#90A4AE;stroke-width:1.0;" width="287" x="672.5" y="539.1157"/><text fill="#000000" font-family="Verdana" font-size="12" lengthAdjust="spacing" textLength="252" x="682.5" y="561.1802">Submit promotion request to Production</text><text fill="#000000" font-family="Verdana" font-size="12" lengthAdjust="spacing" textLength="207" x="682.5" y="575.7642">(logged in check_execution_log /</text><text fill="#000000" font-family="Verdana" font-size="12" lengthAdjust="spacing" textLength="267" x="682.5" y="590.3481">anomaly_check_config with DEV summary)</text><rect fill="#ECEFF1" height="49.168" rx="12.5" ry="12.5" style="stroke:#90A4AE;stroke-width:1.0;" width="207" x="712.5" y="813.6399"/><text fill="#000000" font-family="Verdana" font-size="12" lengthAdjust="spacing" textLength="162" x="722.5" y="835.7043">Receive revision feedback</text><text fill="#000000" font-family="Verdana" font-size="12" lengthAdjust="spacing" textLength="187" x="722.5" y="850.2883">Adjust rule and re-test in DEV</text><ellipse cx="816" cy="908.8079" fill="none" rx="11" ry="11" style="stroke:#000000;stroke-width:1.0;"/><ellipse cx="816" cy="908.8079" fill="#FFFFFF" rx="6" ry="6" style="stroke:#000000;stroke-width:1.0;"/><path d="M917,1341.3997 L917,1493.5935 L1192,1493.5935 L1192,1351.3997 L1182,1341.3997 L917,1341.3997 " fill="#FFFFFF" style="stroke:#000000;stroke-width:1.0;"/><path d="M1182,1341.3997 L1182,1351.3997 L1192,1351.3997 L1182,1341.3997 " fill="#FFFFFF" style="stroke:#000000;stroke-width:1.0;"/><text fill="#000000" font-family="Verdana" font-size="13" lengthAdjust="spacing" textLength="191" x="923" y="1359.4695">Promotion Metadata Tracked</text><text fill="#000000" font-family="Verdana" font-size="13" lengthAdjust="spacing" textLength="254" x="923" y="1375.2688">in anomaly_check_config (version_id):</text><text fill="#000000" font-family="Verdana" font-size="13" lengthAdjust="spacing" text-decoration="line-through" textLength="7" x="923" y="1391.0681">-</text><text fill="#000000" font-family="Verdana" font-size="13" lengthAdjust="spacing" text-decoration="line-through" textLength="7" x="930" y="1391.0681">-</text><text fill="#000000" font-family="Verdana" font-size="13" lengthAdjust="spacing" text-decoration="line-through" textLength="7" x="937" y="1391.0681">-</text><text fill="#000000" font-family="Verdana" font-size="13" lengthAdjust="spacing" text-decoration="line-through" textLength="7" x="944" y="1391.0681">-</text><text fill="#000000" font-family="Verdana" font-size="13" lengthAdjust="spacing" text-decoration="line-through" textLength="7" x="951" y="1391.0681">-</text><text fill="#000000" font-family="Verdana" font-size="13" lengthAdjust="spacing" textLength="184" x="923" y="1406.8674">- promoted_from_env (dev)</text><text fill="#000000" font-family="Verdana" font-size="13" lengthAdjust="spacing" textLength="220" x="923" y="1422.6667">- promoted_by (user + approver)</text><text fill="#000000" font-family="Verdana" font-size="13" lengthAdjust="spacing" textLength="115" x="923" y="1438.4661">- promotion_date</text><text fill="#000000" font-family="Verdana" font-size="13" lengthAdjust="spacing" textLength="225" x="923" y="1454.2654">- dev_execution_summary (JSON)</text><text fill="#000000" font-family="Verdana" font-size="13" lengthAdjust="spacing" textLength="145" x="923" y="1470.0647">- compliance_sign_off</text><text fill="#000000" font-family="Verdana" font-size="13" lengthAdjust="spacing" textLength="146" x="923" y="1485.864">- effective_prod_date</text><rect fill="#ECEFF1" height="63.752" rx="12.5" ry="12.5" style="stroke:#90A4AE;stroke-width:1.0;" width="207" x="857.75" y="1774.2654"/><text fill="#000000" font-family="Verdana" font-size="12" lengthAdjust="spacing" textLength="187" x="867.75" y="1796.3298">Investigate root cause in DEV</text><text fill="#000000" font-family="Verdana" font-size="12" lengthAdjust="spacing" textLength="176" x="867.75" y="1810.9138">Apply fix to DEV rule version</text><text fill="#000000" font-family="Verdana" font-size="12" lengthAdjust="spacing" textLength="114" x="867.75" y="1825.4978">(version_id bump)</text><path d="M1094.75,1848.0173 L1094.75,1888.5156 L1074.75,1892.5156 L1094.75,1896.5156 L1094.75,1937.0139 A0,0 0 0 0 1094.75,1937.0139 L1473.75,1937.0139 A0,0 0 0 0 1473.75,1937.0139 L1473.75,1858.0173 L1463.75,1848.0173 L1094.75,1848.0173 A0,0 0 0 0 1094.75,1848.0173 " fill="#FFFFFF" style="stroke:#000000;stroke-width:1.0;"/><path d="M1463.75,1848.0173 L1463.75,1858.0173 L1473.75,1858.0173 L1463.75,1848.0173 " fill="#FFFFFF" style="stroke:#000000;stroke-width:1.0;"/><text fill="#000000" font-family="Verdana" font-size="13" lengthAdjust="spacing" textLength="164" x="1100.75" y="1866.0872">Rollback completes here.</text><text fill="#000000" font-family="Verdana" font-size="13" lengthAdjust="spacing" textLength="218" x="1100.75" y="1881.8865">To re-promote: restart flow from</text><text fill="#000000" font-family="Verdana" font-size="13" lengthAdjust="spacing" textLength="279" x="1100.75" y="1897.6858">"Submit promotion request to Production".</text><text fill="#000000" font-family="Verdana" font-size="13" lengthAdjust="spacing" textLength="358" x="1100.75" y="1913.4851">Previous PROD version remains DISABLED_EMERGENCY</text><text fill="#000000" font-family="Verdana" font-size="13" lengthAdjust="spacing" textLength="208" x="1100.75" y="1929.2844">until incident is formally closed.</text><rect fill="#ECEFF1" height="49.168" rx="12.5" ry="12.5" style="stroke:#90A4AE;stroke-width:1.0;" width="227" x="847.75" y="1867.9316"/><text fill="#000000" font-family="Verdana" font-size="12" lengthAdjust="spacing" textLength="207" x="857.75" y="1889.9961">Re-enter DEV observation period</text><text fill="#000000" font-family="Verdana" font-size="12" lengthAdjust="spacing" textLength="192" x="857.75" y="1904.5801">(minimum 3 days from scratch)</text><ellipse cx="961.25" cy="1968.0139" fill="none" rx="11" ry="11" style="stroke:#000000;stroke-width:1.0;"/><ellipse cx="961.25" cy="1968.0139" fill="#FFFFFF" rx="6" ry="6" style="stroke:#000000;stroke-width:1.0;"/><line style="stroke:#000000;stroke-width:1.0;" x1="636" x2="636" y1="55.0166" y2="1991.0139"/><rect fill="#ECEFF1" height="122.0879" rx="12.5" ry="12.5" style="stroke:#90A4AE;stroke-width:1.0;" width="261" x="1613.5" y="622.8677"/><text fill="#000000" font-family="Verdana" font-size="12" lengthAdjust="spacing" textLength="241" x="1623.5" y="644.9321">Tech Lead + Data Governance review:</text><text fill="#000000" font-family="Verdana" font-size="12" lengthAdjust="spacing" textLength="211" x="1623.5" y="659.5161">- DEV execution results (3+ days)</text><text fill="#000000" font-family="Verdana" font-size="12" lengthAdjust="spacing" textLength="123" x="1623.5" y="674.1001">- SQL + trend score</text><text fill="#000000" font-family="Verdana" font-size="12" lengthAdjust="spacing" textLength="168" x="1623.5" y="688.6841">- Performance benchmarks</text><text fill="#000000" font-family="Verdana" font-size="12" lengthAdjust="spacing" textLength="150" x="1623.5" y="703.2681">- False positive analysis</text><text fill="#000000" font-family="Verdana" font-size="12" lengthAdjust="spacing" textLength="239" x="1623.5" y="717.8521">- Compliance / PII impact (GDPR, SOX)</text><text fill="#000000" font-family="Verdana" font-size="12" lengthAdjust="spacing" textLength="180" x="1623.5" y="732.436">- Rule classification + priority</text><polygon fill="#FFF9C4" points="1671.5,764.9556,1816.5,764.9556,1828.5,776.9556,1816.5,788.9556,1671.5,788.9556,1659.5,776.9556,1671.5,764.9556" style="stroke:#F9A825;stroke-width:1.0;"/><text fill="#000000" font-family="Verdana" font-size="11" lengthAdjust="spacing" textLength="15" x="1748" y="800.0146">No</text><text fill="#000000" font-family="Verdana" font-size="11" lengthAdjust="spacing" textLength="145" x="1671.5" y="781.3303">Approved for Production?</text><text fill="#000000" font-family="Verdana" font-size="11" lengthAdjust="spacing" textLength="20" x="1828.5" y="774.646">Yes</text><path d="M1845,1341.3997 L1845,1493.5935 L2120,1493.5935 L2120,1351.3997 L2110,1341.3997 L1845,1341.3997 " fill="#FFFFFF" style="stroke:#000000;stroke-width:1.0;"/><path d="M2110,1341.3997 L2110,1351.3997 L2120,1351.3997 L2110,1341.3997 " fill="#FFFFFF" style="stroke:#000000;stroke-width:1.0;"/><text fill="#000000" font-family="Verdana" font-size="13" lengthAdjust="spacing" textLength="191" x="1851" y="1359.4695">Promotion Metadata Tracked</text><text fill="#000000" font-family="Verdana" font-size="13" lengthAdjust="spacing" textLength="254" x="1851" y="1375.2688">in anomaly_check_config (version_id):</text><text fill="#000000" font-family="Verdana" font-size="13" lengthAdjust="spacing" text-decoration="line-through" textLength="7" x="1851" y="1391.0681">-</text><text fill="#000000" font-family="Verdana" font-size="13" lengthAdjust="spacing" text-decoration="line-through" textLength="7" x="1858" y="1391.0681">-</text><text fill="#000000" font-family="Verdana" font-size="13" lengthAdjust="spacing" text-decoration="line-through" textLength="7" x="1865" y="1391.0681">-</text><text fill="#000000" font-family="Verdana" font-size="13" lengthAdjust="spacing" text-decoration="line-through" textLength="7" x="1872" y="1391.0681">-</text><text fill="#000000" font-family="Verdana" font-size="13" lengthAdjust="spacing" text-decoration="line-through" textLength="7" x="1879" y="1391.0681">-</text><text fill="#000000" font-family="Verdana" font-size="13" lengthAdjust="spacing" textLength="184" x="1851" y="1406.8674">- promoted_from_env (dev)</text><text fill="#000000" font-family="Verdana" font-size="13" lengthAdjust="spacing" textLength="220" x="1851" y="1422.6667">- promoted_by (user + approver)</text><text fill="#000000" font-family="Verdana" font-size="13" lengthAdjust="spacing" textLength="115" x="1851" y="1438.4661">- promotion_date</text><text fill="#000000" font-family="Verdana" font-size="13" lengthAdjust="spacing" textLength="225" x="1851" y="1454.2654">- dev_execution_summary (JSON)</text><text fill="#000000" font-family="Verdana" font-size="13" lengthAdjust="spacing" textLength="145" x="1851" y="1470.0647">- compliance_sign_off</text><text fill="#000000" font-family="Verdana" font-size="13" lengthAdjust="spacing" textLength="146" x="1851" y="1485.864">- effective_prod_date</text><rect fill="#ECEFF1" height="63.752" rx="12.5" ry="12.5" style="stroke:#90A4AE;stroke-width:1.0;" width="228" x="1484.75" y="1537.5935"/><text fill="#000000" font-family="Verdana" font-size="12" lengthAdjust="spacing" textLength="196" x="1494.75" y="1559.658">Promotion audit record created</text><text fill="#000000" font-family="Verdana" font-size="12" lengthAdjust="spacing" textLength="149" x="1494.75" y="1574.2419">(both envs + approvers</text><text fill="#000000" font-family="Verdana" font-size="12" lengthAdjust="spacing" textLength="208" x="1494.75" y="1588.8259">+ execution results documented)</text><ellipse cx="1598.75" cy="1638.6995" fill="none" rx="11" ry="11" style="stroke:#000000;stroke-width:1.0;"/><ellipse cx="1598.75" cy="1638.6995" fill="#FFFFFF" rx="6" ry="6" style="stroke:#000000;stroke-width:1.0;"/><rect fill="#ECEFF1" height="49.168" rx="12.5" ry="12.5" style="stroke:#90A4AE;stroke-width:1.0;" width="253" x="1762.75" y="1621.3455"/><text fill="#000000" font-family="Verdana" font-size="12" lengthAdjust="spacing" textLength="177" x="1772.75" y="1643.4099">Raise rollback incident ticket</text><text fill="#000000" font-family="Verdana" font-size="12" lengthAdjust="spacing" textLength="233" x="1772.75" y="1657.9939">Notify owner + Tech Lead + DataOps</text><line style="stroke:#000000;stroke-width:1.0;" x1="1478.75" x2="1478.75" y1="55.0166" y2="1991.0139"/><path d="M2380,964.9849 L2380,989.6838 L2360,993.6838 L2380,997.6838 L2380,1022.3828 A0,0 0 0 0 2380,1022.3828 L2618,1022.3828 A0,0 0 0 0 2618,1022.3828 L2618,974.9849 L2608,964.9849 L2380,964.9849 A0,0 0 0 0 2380,964.9849 " fill="#FFFFFF" style="stroke:#000000;stroke-width:1.0;"/><path d="M2608,964.9849 L2608,974.9849 L2618,974.9849 L2608,964.9849 " fill="#FFFFFF" style="stroke:#000000;stroke-width:1.0;"/><text fill="#000000" font-family="Verdana" font-size="13" lengthAdjust="spacing" textLength="133" x="2386" y="983.0547">DEPLOY_ENV = prod</text><text fill="#000000" font-family="Verdana" font-size="13" lengthAdjust="spacing" textLength="126" x="2386" y="998.854">Catalog: lakehouse</text><text fill="#000000" font-family="Verdana" font-size="13" lengthAdjust="spacing" textLength="217" x="2386" y="1014.6533">Schema:  ds_tda_governance_lh</text><rect fill="#ECEFF1" height="63.752" rx="12.5" ry="12.5" style="stroke:#90A4AE;stroke-width:1.0;" width="209" x="2151" y="961.8079"/><text fill="#000000" font-family="Verdana" font-size="12" lengthAdjust="spacing" textLength="189" x="2161" y="983.8723">Rule promoted to PROD config</text><text fill="#000000" font-family="Verdana" font-size="12" lengthAdjust="spacing" textLength="152" x="2161" y="998.4563">(version_id incremented</text><text fill="#000000" font-family="Verdana" font-size="12" lengthAdjust="spacing" textLength="184" x="2161" y="1013.0403">status: PENDING_APPROVAL)</text><rect fill="#ECEFF1" height="49.168" rx="12.5" ry="12.5" style="stroke:#90A4AE;stroke-width:1.0;" width="202" x="2154.5" y="1045.5598"/><text fill="#000000" font-family="Verdana" font-size="12" lengthAdjust="spacing" textLength="175" x="2164.5" y="1067.6243">Product Owner final sign-off</text><text fill="#000000" font-family="Verdana" font-size="12" lengthAdjust="spacing" textLength="182" x="2164.5" y="1082.2083">in PRODUCTION environment</text><rect fill="#ECEFF1" height="49.168" rx="12.5" ry="12.5" style="stroke:#90A4AE;stroke-width:1.0;" width="249" x="2131" y="1114.7278"/><text fill="#000000" font-family="Verdana" font-size="12" lengthAdjust="spacing" textLength="229" x="2141" y="1136.7922">Rule set to is_active = true (ACTIVE)</text><text fill="#000000" font-family="Verdana" font-size="12" lengthAdjust="spacing" textLength="156" x="2141" y="1151.3762">in anomaly_check_config</text><rect fill="#ECEFF1" height="49.168" rx="12.5" ry="12.5" style="stroke:#90A4AE;stroke-width:1.0;" width="233" x="2139" y="1183.8958"/><text fill="#000000" font-family="Verdana" font-size="12" lengthAdjust="spacing" textLength="213" x="2149" y="1205.9602">Added to production run schedule</text><text fill="#000000" font-family="Verdana" font-size="12" lengthAdjust="spacing" textLength="196" x="2149" y="1220.5442">(priority P1/P2/P3 as classified)</text><rect fill="#ECEFF1" height="78.3359" rx="12.5" ry="12.5" style="stroke:#90A4AE;stroke-width:1.0;" width="248" x="2131.5" y="1253.0637"/><text fill="#000000" font-family="Verdana" font-size="12" lengthAdjust="spacing" textLength="221" x="2141.5" y="1275.1282">Monitoring and alerting configured:</text><text fill="#000000" font-family="Verdana" font-size="12" lengthAdjust="spacing" textLength="228" x="2141.5" y="1289.7122">- Jira auto-ticket for P1/P2 violations</text><text fill="#000000" font-family="Verdana" font-size="12" lengthAdjust="spacing" textLength="141" x="2141.5" y="1304.2961">- Email for P1 / P2 / P3</text><text fill="#000000" font-family="Verdana" font-size="12" lengthAdjust="spacing" textLength="141" x="2141.5" y="1318.8801">- SLA tracking enabled</text><path d="M2356.5,1341.3997 L2356.5,1493.5935 L2631.5,1493.5935 L2631.5,1351.3997 L2621.5,1341.3997 L2356.5,1341.3997 " fill="#FFFFFF" style="stroke:#000000;stroke-width:1.0;"/><path d="M2621.5,1341.3997 L2621.5,1351.3997 L2631.5,1351.3997 L2621.5,1341.3997 " fill="#FFFFFF" style="stroke:#000000;stroke-width:1.0;"/><text fill="#000000" font-family="Verdana" font-size="13" lengthAdjust="spacing" textLength="191" x="2362.5" y="1359.4695">Promotion Metadata Tracked</text><text fill="#000000" font-family="Verdana" font-size="13" lengthAdjust="spacing" textLength="254" x="2362.5" y="1375.2688">in anomaly_check_config (version_id):</text><text fill="#000000" font-family="Verdana" font-size="13" lengthAdjust="spacing" text-decoration="line-through" textLength="7" x="2362.5" y="1391.0681">-</text><text fill="#000000" font-family="Verdana" font-size="13" lengthAdjust="spacing" text-decoration="line-through" textLength="7" x="2369.5" y="1391.0681">-</text><text fill="#000000" font-family="Verdana" font-size="13" lengthAdjust="spacing" text-decoration="line-through" textLength="7" x="2376.5" y="1391.0681">-</text><text fill="#000000" font-family="Verdana" font-size="13" lengthAdjust="spacing" text-decoration="line-through" textLength="7" x="2383.5" y="1391.0681">-</text><text fill="#000000" font-family="Verdana" font-size="13" lengthAdjust="spacing" text-decoration="line-through" textLength="7" x="2390.5" y="1391.0681">-</text><text fill="#000000" font-family="Verdana" font-size="13" lengthAdjust="spacing" textLength="184" x="2362.5" y="1406.8674">- promoted_from_env (dev)</text><text fill="#000000" font-family="Verdana" font-size="13" lengthAdjust="spacing" textLength="220" x="2362.5" y="1422.6667">- promoted_by (user + approver)</text><text fill="#000000" font-family="Verdana" font-size="13" lengthAdjust="spacing" textLength="115" x="2362.5" y="1438.4661">- promotion_date</text><text fill="#000000" font-family="Verdana" font-size="13" lengthAdjust="spacing" textLength="225" x="2362.5" y="1454.2654">- dev_execution_summary (JSON)</text><text fill="#000000" font-family="Verdana" font-size="13" lengthAdjust="spacing" textLength="145" x="2362.5" y="1470.0647">- compliance_sign_off</text><text fill="#000000" font-family="Verdana" font-size="13" lengthAdjust="spacing" textLength="146" x="2362.5" y="1485.864">- effective_prod_date</text><polygon fill="#FFF9C4" points="2166.5,1493.5935,2344.5,1493.5935,2356.5,1505.5935,2344.5,1517.5935,2166.5,1517.5935,2154.5,1505.5935,2166.5,1493.5935" style="stroke:#F9A825;stroke-width:1.0;"/><text fill="#000000" font-family="Verdana" font-size="11" lengthAdjust="spacing" textLength="178" x="2166.5" y="1509.9683">PROD health OK within 7 days?</text><text fill="#000000" font-family="Verdana" font-size="11" lengthAdjust="spacing" textLength="20" x="2134.5" y="1503.2839">Yes</text><text fill="#000000" font-family="Verdana" font-size="11" lengthAdjust="spacing" textLength="183" x="2356.5" y="1503.2839">No -- PROD regression detected</text><path d="M2539.75,1537.5935 L2539.75,1562.2925 L2519.75,1566.2925 L2539.75,1570.2925 L2539.75,1594.9915 A0,0 0 0 0 2539.75,1594.9915 L2800.75,1594.9915 A0,0 0 0 0 2800.75,1594.9915 L2800.75,1547.5935 L2790.75,1537.5935 L2539.75,1537.5935 A0,0 0 0 0 2539.75,1537.5935 " fill="#FFFFFF" style="stroke:#000000;stroke-width:1.0;"/><path d="M2790.75,1537.5935 L2790.75,1547.5935 L2800.75,1547.5935 L2790.75,1537.5935 " fill="#FFFFFF" style="stroke:#000000;stroke-width:1.0;"/><text fill="#000000" font-family="Verdana" font-size="13" lengthAdjust="spacing" textLength="140" x="2545.75" y="1555.6633">SET is_active = false</text><text fill="#000000" font-family="Verdana" font-size="13" lengthAdjust="spacing" textLength="212" x="2545.75" y="1571.4626">status = DISABLED_EMERGENCY</text><text fill="#000000" font-family="Verdana" font-size="13" lengthAdjust="spacing" textLength="240" x="2545.75" y="1587.262">rollback_reason + incident_id logged</text><rect fill="#ECEFF1" height="49.168" rx="12.5" ry="12.5" style="stroke:#90A4AE;stroke-width:1.0;" width="238" x="2281.75" y="1541.7085"/><text fill="#000000" font-family="Verdana" font-size="12" lengthAdjust="spacing" textLength="200" x="2291.75" y="1563.7729">Emergency disable rule in PROD</text><text fill="#000000" font-family="Verdana" font-size="12" lengthAdjust="spacing" textLength="218" x="2291.75" y="1578.3569">(status -&gt; DISABLED_EMERGENCY)</text><rect fill="#ECEFF1" height="63.752" rx="12.5" ry="12.5" style="stroke:#90A4AE;stroke-width:1.0;" width="313" x="2244.25" y="1690.5134"/><text fill="#000000" font-family="Verdana" font-size="12" lengthAdjust="spacing" textLength="143" x="2254.25" y="1712.5779">Notify rule owner + PO</text><text fill="#000000" font-family="Verdana" font-size="12" lengthAdjust="spacing" textLength="164" x="2254.25" y="1727.1619">with PROD failure analysis</text><text fill="#000000" font-family="Verdana" font-size="12" lengthAdjust="spacing" textLength="293" x="2254.25" y="1741.7458">(execution logs, violation sample, blast radius)</text><line style="stroke:#000000;stroke-width:1.0;" x1="2125" x2="2125" y1="55.0166" y2="1991.0139"/><line style="stroke:#000000;stroke-width:1.0;" x1="2805.75" x2="2805.75" y1="55.0166" y2="1991.0139"/><line style="stroke:#546E7A;stroke-width:1.0;" x1="816" x2="816" y1="171.0605" y2="195.1755"/><polygon fill="#546E7A" points="812,185.1755,816,195.1755,820,185.1755,816,189.1755" style="stroke:#546E7A;stroke-width:1.0;"/><line style="stroke:#546E7A;stroke-width:1.0;" x1="816" x2="816" y1="244.3435" y2="264.3435"/><polygon fill="#546E7A" points="812,254.3435,816,264.3435,820,254.3435,816,258.3435" style="stroke:#546E7A;stroke-width:1.0;"/><line style="stroke:#546E7A;stroke-width:1.0;" x1="816" x2="816" y1="401.2634" y2="425.9478"/><polygon fill="#546E7A" points="812,415.9478,816,425.9478,820,415.9478,816,419.9478" style="stroke:#546E7A;stroke-width:1.0;"/><line style="stroke:#546E7A;stroke-width:1.0;" x1="911.5" x2="1141.5" y1="389.2634" y2="389.2634"/><polygon fill="#546E7A" points="1137.5,440.5317,1141.5,450.5317,1145.5,440.5317,1141.5,444.5317" style="stroke:#546E7A;stroke-width:1.0;"/><line style="stroke:#546E7A;stroke-width:1.0;" x1="1141.5" x2="1141.5" y1="389.2634" y2="507.1157"/><line style="stroke:#546E7A;stroke-width:1.0;" x1="1141.5" x2="828" y1="507.1157" y2="507.1157"/><polygon fill="#546E7A" points="838,503.1157,828,507.1157,838,511.1157,834,507.1157" style="stroke:#546E7A;stroke-width:1.0;"/><line style="stroke:#546E7A;stroke-width:1.0;" x1="816" x2="816" y1="475.1157" y2="495.1157"/><polygon fill="#546E7A" points="812,485.1157,816,495.1157,820,485.1157,816,489.1157" style="stroke:#546E7A;stroke-width:1.0;"/><line style="stroke:#546E7A;stroke-width:1.0;" x1="816" x2="816" y1="357.2634" y2="377.2634"/><polygon fill="#546E7A" points="812,367.2634,816,377.2634,820,367.2634,816,371.2634" style="stroke:#546E7A;stroke-width:1.0;"/><line style="stroke:#546E7A;stroke-width:1.0;" x1="816" x2="816" y1="519.1157" y2="539.1157"/><polygon fill="#546E7A" points="812,529.1157,816,539.1157,820,529.1157,816,533.1157" style="stroke:#546E7A;stroke-width:1.0;"/><line style="stroke:#546E7A;stroke-width:1.0;" x1="816" x2="816" y1="862.8079" y2="897.8079"/><polygon fill="#546E7A" points="812,887.8079,816,897.8079,820,887.8079,816,891.8079" style="stroke:#546E7A;stroke-width:1.0;"/><line style="stroke:#546E7A;stroke-width:1.0;" x1="961.25" x2="961.25" y1="1838.0173" y2="1867.9316"/><polygon fill="#546E7A" points="957.25,1857.9316,961.25,1867.9316,965.25,1857.9316,961.25,1861.9316" style="stroke:#546E7A;stroke-width:1.0;"/><line style="stroke:#546E7A;stroke-width:1.0;" x1="961.25" x2="961.25" y1="1917.0996" y2="1957.0139"/><polygon fill="#546E7A" points="957.25,1947.0139,961.25,1957.0139,965.25,1947.0139,961.25,1951.0139" style="stroke:#546E7A;stroke-width:1.0;"/><line style="stroke:#546E7A;stroke-width:1.0;" x1="1828.5" x2="2255.5" y1="776.9556" y2="776.9556"/><polygon fill="#546E7A" points="2251.5,871.2239,2255.5,881.2239,2259.5,871.2239,2255.5,875.2239" style="stroke:#546E7A;stroke-width:1.0;"/><line style="stroke:#546E7A;stroke-width:1.0;" x1="2255.5" x2="2255.5" y1="776.9556" y2="961.8079"/><polygon fill="#546E7A" points="2251.5,951.8079,2255.5,961.8079,2259.5,951.8079,2255.5,955.8079" style="stroke:#546E7A;stroke-width:1.0;"/><line style="stroke:#546E7A;stroke-width:1.0;" x1="1744" x2="1744" y1="744.9556" y2="764.9556"/><polygon fill="#546E7A" points="1740,754.9556,1744,764.9556,1748,754.9556,1744,758.9556" style="stroke:#546E7A;stroke-width:1.0;"/><line style="stroke:#546E7A;stroke-width:1.0;" x1="1598.75" x2="1598.75" y1="1601.3455" y2="1627.6995"/><polygon fill="#546E7A" points="1594.75,1617.6995,1598.75,1627.6995,1602.75,1617.6995,1598.75,1621.6995" style="stroke:#546E7A;stroke-width:1.0;"/><line style="stroke:#546E7A;stroke-width:1.0;" x1="2255.5" x2="2255.5" y1="1025.5598" y2="1045.5598"/><polygon fill="#546E7A" points="2251.5,1035.5598,2255.5,1045.5598,2259.5,1035.5598,2255.5,1039.5598" style="stroke:#546E7A;stroke-width:1.0;"/><line style="stroke:#546E7A;stroke-width:1.0;" x1="2255.5" x2="2255.5" y1="1094.7278" y2="1114.7278"/><polygon fill="#546E7A" points="2251.5,1104.7278,2255.5,1114.7278,2259.5,1104.7278,2255.5,1108.7278" style="stroke:#546E7A;stroke-width:1.0;"/><line style="stroke:#546E7A;stroke-width:1.0;" x1="2255.5" x2="2255.5" y1="1163.8958" y2="1183.8958"/><polygon fill="#546E7A" points="2251.5,1173.8958,2255.5,1183.8958,2259.5,1173.8958,2255.5,1177.8958" style="stroke:#546E7A;stroke-width:1.0;"/><line style="stroke:#546E7A;stroke-width:1.0;" x1="2255.5" x2="2255.5" y1="1233.0637" y2="1253.0637"/><polygon fill="#546E7A" points="2251.5,1243.0637,2255.5,1253.0637,2259.5,1243.0637,2255.5,1247.0637" style="stroke:#546E7A;stroke-width:1.0;"/><line style="stroke:#546E7A;stroke-width:1.0;" x1="2356.5" x2="2400.75" y1="1505.5935" y2="1505.5935"/><line style="stroke:#546E7A;stroke-width:1.0;" x1="2400.75" x2="2400.75" y1="1505.5935" y2="1541.7085"/><polygon fill="#546E7A" points="2396.75,1531.7085,2400.75,1541.7085,2404.75,1531.7085,2400.75,1535.7085" style="stroke:#546E7A;stroke-width:1.0;"/><line style="stroke:#546E7A;stroke-width:1.0;" x1="2255.5" x2="2255.5" y1="1331.3997" y2="1493.5935"/><polygon fill="#546E7A" points="2251.5,1483.5935,2255.5,1493.5935,2259.5,1483.5935,2255.5,1487.5935" style="stroke:#546E7A;stroke-width:1.0;"/><line style="stroke:#546E7A;stroke-width:1.0;" x1="547" x2="547" y1="101.8926" y2="106.8926"/><line style="stroke:#546E7A;stroke-width:1.0;" x1="547" x2="816" y1="106.8926" y2="106.8926"/><line style="stroke:#546E7A;stroke-width:1.0;" x1="816" x2="816" y1="106.8926" y2="121.8926"/><polygon fill="#546E7A" points="812,111.8926,816,121.8926,820,111.8926,816,115.8926" style="stroke:#546E7A;stroke-width:1.0;"/><line style="stroke:#546E7A;stroke-width:1.0;" x1="816" x2="816" y1="602.8677" y2="607.8677"/><line style="stroke:#546E7A;stroke-width:1.0;" x1="816" x2="1744" y1="607.8677" y2="607.8677"/><line style="stroke:#546E7A;stroke-width:1.0;" x1="1744" x2="1744" y1="607.8677" y2="622.8677"/><polygon fill="#546E7A" points="1740,612.8677,1744,622.8677,1748,612.8677,1744,616.8677" style="stroke:#546E7A;stroke-width:1.0;"/><line style="stroke:#546E7A;stroke-width:1.0;" x1="1744" x2="1744" y1="788.9556" y2="801.2977"/><line style="stroke:#546E7A;stroke-width:1.0;" x1="1744" x2="816" y1="801.2977" y2="801.2977"/><line style="stroke:#546E7A;stroke-width:1.0;" x1="816" x2="816" y1="801.2977" y2="813.6399"/><polygon fill="#546E7A" points="812,803.6399,816,813.6399,820,803.6399,816,807.6399" style="stroke:#546E7A;stroke-width:1.0;"/><line style="stroke:#546E7A;stroke-width:1.0;" x1="2400.75" x2="2400.75" y1="1590.8765" y2="1606.3455"/><line style="stroke:#546E7A;stroke-width:1.0;" x1="2400.75" x2="1889.25" y1="1606.3455" y2="1606.3455"/><line style="stroke:#546E7A;stroke-width:1.0;" x1="1889.25" x2="1889.25" y1="1606.3455" y2="1621.3455"/><polygon fill="#546E7A" points="1885.25,1611.3455,1889.25,1621.3455,1893.25,1611.3455,1889.25,1615.3455" style="stroke:#546E7A;stroke-width:1.0;"/><line style="stroke:#546E7A;stroke-width:1.0;" x1="1889.25" x2="1889.25" y1="1670.5134" y2="1675.5134"/><line style="stroke:#546E7A;stroke-width:1.0;" x1="1889.25" x2="2400.75" y1="1675.5134" y2="1675.5134"/><line style="stroke:#546E7A;stroke-width:1.0;" x1="2400.75" x2="2400.75" y1="1675.5134" y2="1690.5134"/><polygon fill="#546E7A" points="2396.75,1680.5134,2400.75,1690.5134,2404.75,1680.5134,2400.75,1684.5134" style="stroke:#546E7A;stroke-width:1.0;"/><line style="stroke:#546E7A;stroke-width:1.0;" x1="2400.75" x2="2400.75" y1="1754.2654" y2="1759.2654"/><line style="stroke:#546E7A;stroke-width:1.0;" x1="2400.75" x2="961.25" y1="1759.2654" y2="1759.2654"/><line style="stroke:#546E7A;stroke-width:1.0;" x1="961.25" x2="961.25" y1="1759.2654" y2="1774.2654"/><polygon fill="#546E7A" points="957.25,1764.2654,961.25,1774.2654,965.25,1764.2654,961.25,1768.2654" style="stroke:#546E7A;stroke-width:1.0;"/><line style="stroke:#546E7A;stroke-width:1.0;" x1="2154.5" x2="1598.75" y1="1505.5935" y2="1505.5935"/><line style="stroke:#546E7A;stroke-width:1.0;" x1="1598.75" x2="1598.75" y1="1505.5935" y2="1537.5935"/><polygon fill="#546E7A" points="1594.75,1527.5935,1598.75,1537.5935,1602.75,1527.5935,1598.75,1531.5935" style="stroke:#546E7A;stroke-width:1.0;"/><text fill="#000000" font-family="Verdana" font-size="18" lengthAdjust="spacing" textLength="158" x="21" y="73.1133">DEV Environment</text><text fill="#000000" font-family="Verdana" font-size="18" lengthAdjust="spacing" textLength="245" x="201" y="73.1133">PRODUCTION Environment</text><text fill="#000000" font-family="Verdana" font-size="18" lengthAdjust="spacing" textLength="157" x="468" y="73.1133">Governance Gate</text><text fill="#000000" font-family="Verdana" font-size="18" lengthAdjust="spacing" textLength="158" x="978.375" y="73.1133">DEV Environment</text><text fill="#000000" font-family="Verdana" font-size="18" lengthAdjust="spacing" textLength="157" x="1723.375" y="73.1133">Governance Gate</text><text fill="#000000" font-family="Verdana" font-size="18" lengthAdjust="spacing" textLength="245" x="2342.875" y="73.1133">PRODUCTION Environment</text><!--SRC=[ZLPXKzj64FtkNx5DFjGUS4W29C5Csr5icP8Ism72D3EUqPobatr5kbFk91Ecxd_lsvCmXfYcV636UwkztRTltzvFvKBcaefCADqgLPb9sX_GG9I2FbKYK-Kj3Qt8vOsnrzIbymeE4sjoKogZgJsGI-h-ofQaqsgvQwKB0NSISQcM_F7VBQBt8hwUMrFff6yoO-bvs0-7mrTyOcmYRMCzUXaS126iWRNcfZ4U7hm9tmOmNfJ2betne1yC3r_26Av33WyEzlVVm3HG8ZSw-UxEuN1ur3_OSDYyUdWKl7jzsFgdrLez3_U7huU35Gt2AyHVAcjqBdL9AvmD- -51s5_Hv7my-Do_F1sFldC9tmqFmwCLdPYbj5heMDA9A2NEMevBm1MF8gzQFOztgETAIsafjX9VE1fy8ijuBvMWO0xFgMuZHbcv7WtEW-6bXpuS3Kv79r4mGL9NmHdR0gHs5NQEMzhWPglcYv8B3oTduozHEBgYNoYHIvZwk3SpynvbubekJELaL1zSnA25w14bBYeJ4StNrKJPWbsaJeYZjrezpmdvJSOL9wsqHyxdF1f_3Cw-H8FmClHWHH_6xwSw1UAvqYglSjgdHDmwCYcPcPDsAHEKhDqnXvLB9Mzyi3eu4yvALsMbwqrrbuOYSs2kSGfSGvd0ZCtXsZcfOFCq5SlvBXL7Xnrsk58cg-sbvJ8OqnbAs4D1ojt-vftwnfMWz_lFLA0Zo0bejbHARLzj8PpZ1Y6thysKp8JzhKEO9bmtCXrWw2j0Xhw7NHB9NnLYNdmwsvtgSe5A5YPB2638Rx4iV4AnqQcQ7-FZ-yxrwCoOWYfTgipVs60mrS9AQd8Ng4F478P_jYGZq_uYNOSRfLB0UL7DSbLIiPvTAxzM4WcLnezl5RCL30CVvcW3-WWEnDVH6lm89xI7QxN9HNORrSTrodIZoeNFpbLvBkmjmxLwD0CW-gMC5tGcHK8xjSXik5ZVSD_QhKsdzlwEfujl4714ZBg3BZRMztuYBTYL-t0pgUC5KhbsMyWYD2fmojMjpejC-M_sQ79wIYele5_KFXbCpdVfOlodlz0tFixGUPMgk2RG3l1KngB_3Jk20W0pYvdazx0-OiRt2k3P4alFOsOD1q-bJ6QGiQaEQkfu8d6dhUoMtBfwrfWkhZJ5bgwljWlLgXdQcWp8bZa0puP_806QmZb4Yea0FUAlP3BLT_BpM7N-KsjmJR9LR7uaD9igqu19unkDWKmL6aXEpNNNfEbK0ucDKkLzgSTt0kMafxfoaTzD4dcLjW9UZLZw6DkepH629AbHAjOjPKq0yHOoGNGWTaS4chpQcxpUc-oJS6kwo8JdeVVHQ5N2Iy_hWSsaBVb7VL5bPUBP_q5PGQ8gJRTKyJNozcJYi93LHhiySyDSG1FgK-RkQ_wtxwVZB41v80-7bvf58K46FrEtswrR_RiK6KQspvLI-sqNWzLei8_VOSyV_NdA-sYBEjhu3oy4GFAjdzGrxpqfcVdVIGAOV_-U45K2ZR8IyvmqQn2aQyyCOgEf3WCdwWcp061dYqOa9gvgiZBYpM0qap4oT5UzbNDyuSSiaQMCsT_dzzJ08CqmbnPREBwbH3clkduW6-gjTpCluC7fHV3-B1n4uSVm_2GSzRzq7eewVe3xuUK3FgQiKVwaYVJBba3-t9eiOsc8097pEeGfLGaovOcj5HoEz-Fp1FBdmY-e9jew2DMyc-eHsfA25txcTkYnUeyBT_mZr9eG7ggxE9FnLFk5uNkHWiJW_eOcj-_xYbhSxZtjoGc8jTob6IOBJ169gbpTwQsYUggN44ervnUODQQaM41t6k64i1P5TWin-SQpxNUhVs_LulTG1cTLNjGNGQcxp33hlzYO6NugACE4VVIyIK5mQ0LU8_6YZl682UTt7OXv5qb-HosabI_yuQLXmM-qkiTCvtSafPcvyP6zqxF_jz-VrI4dl6IWm7K3cYhn1VH4kwT8Lxz0rXnHZlokpO1Wd1adanUFADVCNhsA7bHyF_4VPIaIVWXSibfvrZwXmxJHZKuFVa_B4ixMkorYY2A81xNnRkqyF9lTKXjyi1kwikd1bo4vwKtuUkCjr3npgFtXOZogludNxuY85rE4nUJjCasb7_68jqSTS0tJlm00]--></g></svg>