<?xml version="1.0" encoding="us-ascii" standalone="no"?><svg xmlns="http://www.w3.org/2000/svg" xmlns:xlink="http://www.w3.org/1999/xlink" contentStyleType="text/css" height="638px" preserveAspectRatio="none" style="width:2032px;height:638px;background:#F8F9FA;" version="1.1" viewBox="0 0 2032 638" width="2032px" zoomAndPan="magnify"><defs/><g><rect fill="#F8F9FA" height="638" style="stroke:none;stroke-width:1.0;" width="2032" x="0" y="0"/><text fill="#000000" font-family="Verdana" font-size="22" font-weight="bold" lengthAdjust="spacing" textLength="754" x="634.75" y="37.1182">3D Data Quality Framework -- Rule Health &amp; KPI Monitoring</text><!--cluster DataSrc--><g id="cluster_DataSrc"><rect fill="#FFF3E0" height="110" rx="4" ry="4" style="stroke:#90A4AE;stroke-width:1.0;" width="856" x="174" y="59.7373"/><text fill="#000000" font-family="Verdana" font-size="10" font-weight="bold" lengthAdjust="spacing" textLength="135" x="534.5" y="71.791">Execution Data Sources</text></g><!--cluster MetricsEngine--><g id="cluster_MetricsEngine"><rect fill="#E3F2FD" height="144" rx="4" ry="4" style="stroke:#90A4AE;stroke-width:1.0;" width="1083" x="243" y="193.7373"/><text fill="#000000" font-family="Verdana" font-size="10" font-weight="bold" lengthAdjust="spacing" textLength="307" x="631" y="205.791">Health Metrics Engine  (Databricks Workflows -- daily)</text></g><!--cluster Dashboards--><g id="cluster_Dashboards"><rect fill="#FCE4EC" height="144" rx="4" ry="4" style="stroke:#90A4AE;stroke-width:1.0;" width="1084" x="12" y="488.7373"/><text fill="#000000" font-family="Verdana" font-size="10" font-weight="bold" lengthAdjust="spacing" textLength="279" x="414.5" y="500.791">Monitoring Dashboards  (Databricks SQL / Genie)</text></g><!--cluster AutoActions--><g id="cluster_AutoActions"><rect fill="#E8EAF6" height="103" rx="4" ry="4" style="stroke:#90A4AE;stroke-width:1.0;" width="856" x="562" y="361.7373"/><text fill="#000000" font-family="Verdana" font-size="10" font-weight="bold" lengthAdjust="spacing" textLength="186" x="897" y="373.791">Automated Remediation Actions</text></g><!--entity ExecLog--><g id="elem_ExecLog"><path d="M848,100.7373 C848,90.7373 931,90.7373 931,90.7373 C931,90.7373 1014,90.7373 1014,100.7373 L1014,143.7666 C1014,153.7666 931,153.7666 931,153.7666 C931,153.7666 848,153.7666 848,143.7666 L848,100.7373 " fill="#E3F2FD" style="stroke:#1565C0;stroke-width:1.0;"/><path d="M848,100.7373 C848,110.7373 931,110.7373 931,110.7373 C931,110.7373 1014,110.7373 1014,100.7373 " fill="none" style="stroke:#1565C0;stroke-width:1.0;"/><text fill="#000000" font-family="Verdana" font-size="14" lengthAdjust="spacing" textLength="146" x="858" y="128.8125">check_execution_log</text><text fill="#000000" font-family="Verdana" font-size="14" lengthAdjust="spacing" textLength="117" x="858" y="145.8271">(results per run)</text></g><!--entity RuleDB--><g id="elem_RuleDB"><path d="M635.5,100.7373 C635.5,90.7373 724,90.7373 724,90.7373 C724,90.7373 812.5,90.7373 812.5,100.7373 L812.5,143.7666 C812.5,153.7666 724,153.7666 724,153.7666 C724,153.7666 635.5,153.7666 635.5,143.7666 L635.5,100.7373 " fill="#E3F2FD" style="stroke:#1565C0;stroke-width:1.0;"/><path d="M635.5,100.7373 C635.5,110.7373 724,110.7373 724,110.7373 C724,110.7373 812.5,110.7373 812.5,100.7373 " fill="none" style="stroke:#1565C0;stroke-width:1.0;"/><text fill="#000000" font-family="Verdana" font-size="14" lengthAdjust="spacing" textLength="157" x="645.5" y="128.8125">anomaly_check_config</text><text fill="#000000" font-family="Verdana" font-size="14" lengthAdjust="spacing" textLength="109" x="645.5" y="145.8271">(rule metadata)</text></g><!--entity AnomLog--><g id="elem_AnomLog"><path d="M379.5,100.7373 C379.5,90.7373 490,90.7373 490,90.7373 C490,90.7373 600.5,90.7373 600.5,100.7373 L600.5,143.7666 C600.5,153.7666 490,153.7666 490,153.7666 C490,153.7666 379.5,153.7666 379.5,143.7666 L379.5,100.7373 " fill="#E3F2FD" style="stroke:#1565C0;stroke-width:1.0;"/><path d="M379.5,100.7373 C379.5,110.7373 490,110.7373 490,110.7373 C490,110.7373 600.5,110.7373 600.5,100.7373 " fill="none" style="stroke:#1565C0;stroke-width:1.0;"/><text fill="#000000" font-family="Verdana" font-size="14" lengthAdjust="spacing" textLength="201" x="389.5" y="128.8125">DIGITAL_DATA_ANOMALIES</text><text fill="#000000" font-family="Verdana" font-size="14" lengthAdjust="spacing" textLength="122" x="389.5" y="145.8271">(anomaly events)</text></g><!--entity DailyMetrics--><g id="elem_DailyMetrics"><path d="M190,100.7373 C190,90.7373 267,90.7373 267,90.7373 C267,90.7373 344,90.7373 344,100.7373 L344,143.7666 C344,153.7666 267,153.7666 267,153.7666 C267,153.7666 190,153.7666 190,143.7666 L190,100.7373 " fill="#E3F2FD" style="stroke:#1565C0;stroke-width:1.0;"/><path d="M190,100.7373 C190,110.7373 267,110.7373 267,110.7373 C267,110.7373 344,110.7373 344,100.7373 " fill="none" style="stroke:#1565C0;stroke-width:1.0;"/><text fill="#000000" font-family="Verdana" font-size="14" lengthAdjust="spacing" textLength="134" x="200" y="128.8125">table_daily_metrics</text><text fill="#000000" font-family="Verdana" font-size="14" lengthAdjust="spacing" textLength="121" x="200" y="145.8271">(baseline signals)</text></g><!--entity PerfTracker--><g id="elem_PerfTracker"><rect fill="#BBDEFB" height="96.9199" rx="4" ry="4" style="stroke:#90A4AE;stroke-width:1.0;" width="223" x="1086.5" y="224.7373"/><text fill="#000000" font-family="Verdana" font-size="10" lengthAdjust="spacing" textLength="144" x="1096.5" y="244.791">Rule Performance Tracker</text><text fill="#000000" font-family="Verdana" font-size="10" lengthAdjust="spacing" textLength="197" x="1096.5" y="269.0977">- Avg / p95 execution time per rule</text><text fill="#000000" font-family="Verdana" font-size="10" lengthAdjust="spacing" textLength="148" x="1096.5" y="281.251">- DBU cost per rule (trend)</text><text fill="#000000" font-family="Verdana" font-size="10" lengthAdjust="spacing" textLength="113" x="1096.5" y="293.4043">- Timeout frequency</text><text fill="#000000" font-family="Verdana" font-size="10" lengthAdjust="spacing" textLength="161" x="1096.5" y="305.5576">- Cluster resource contention</text><line style="stroke:#90A4AE;stroke-width:1.0;" x1="1087.5" x2="1178" y1="252.9673" y2="252.9673"/><text fill="#000000" font-family="Verdana" font-size="10" lengthAdjust="spacing" text-decoration="line-through" textLength="5" x="1178" y="256.4443">-</text><text fill="#000000" font-family="Verdana" font-size="10" lengthAdjust="spacing" text-decoration="line-through" textLength="5" x="1183" y="256.4443">-</text><text fill="#000000" font-family="Verdana" font-size="10" lengthAdjust="spacing" text-decoration="line-through" textLength="5" x="1188" y="256.4443">-</text><text fill="#000000" font-family="Verdana" font-size="10" lengthAdjust="spacing" text-decoration="line-through" textLength="5" x="1193" y="256.4443">-</text><text fill="#000000" font-family="Verdana" font-size="10" lengthAdjust="spacing" textLength="20" x="1198" y="256.4443">----</text><line style="stroke:#90A4AE;stroke-width:1.0;" x1="1218" x2="1308.5" y1="252.9673" y2="252.9673"/></g><!--entity TrendAnalyser--><g id="elem_TrendAnalyser"><rect fill="#BBDEFB" height="96.9199" rx="4" ry="4" style="stroke:#90A4AE;stroke-width:1.0;" width="228" x="259" y="224.7373"/><text fill="#000000" font-family="Verdana" font-size="10" lengthAdjust="spacing" textLength="135" x="269" y="244.791">Violation Trend Analyser</text><text fill="#000000" font-family="Verdana" font-size="10" lengthAdjust="spacing" textLength="202" x="269" y="269.0977">- Violation rate over time (7d / 30d)</text><text fill="#000000" font-family="Verdana" font-size="10" lengthAdjust="spacing" textLength="164" x="269" y="281.251">- Anomaly spikes vs baseline</text><text fill="#000000" font-family="Verdana" font-size="10" lengthAdjust="spacing" textLength="148" x="269" y="293.4043">- False positive estimation</text><text fill="#000000" font-family="Verdana" font-size="10" lengthAdjust="spacing" textLength="146" x="269" y="305.5576">- Breach frequency by rule</text><line style="stroke:#90A4AE;stroke-width:1.0;" x1="260" x2="353" y1="252.9673" y2="252.9673"/><text fill="#000000" font-family="Verdana" font-size="10" lengthAdjust="spacing" text-decoration="line-through" textLength="5" x="353" y="256.4443">-</text><text fill="#000000" font-family="Verdana" font-size="10" lengthAdjust="spacing" text-decoration="line-through" textLength="5" x="358" y="256.4443">-</text><text fill="#000000" font-family="Verdana" font-size="10" lengthAdjust="spacing" text-decoration="line-through" textLength="5" x="363" y="256.4443">-</text><text fill="#000000" font-family="Verdana" font-size="10" lengthAdjust="spacing" text-decoration="line-through" textLength="5" x="368" y="256.4443">-</text><text fill="#000000" font-family="Verdana" font-size="10" lengthAdjust="spacing" textLength="20" x="373" y="256.4443">----</text><line style="stroke:#90A4AE;stroke-width:1.0;" x1="393" x2="486" y1="252.9673" y2="252.9673"/></g><!--entity QualityScorer--><g id="elem_QualityScorer"><rect fill="#BBDEFB" height="96.9199" rx="4" ry="4" style="stroke:#90A4AE;stroke-width:1.0;" width="240" x="811" y="224.7373"/><text fill="#000000" font-family="Verdana" font-size="10" lengthAdjust="spacing" textLength="106" x="821" y="244.791">Rule Quality Scorer</text><text fill="#000000" font-family="Verdana" font-size="10" lengthAdjust="spacing" textLength="131" x="821" y="269.0977">- Last 30-day pass rate</text><text fill="#000000" font-family="Verdana" font-size="10" lengthAdjust="spacing" textLength="214" x="821" y="281.251">- Noise score (frequent tiny violations)</text><text fill="#000000" font-family="Verdana" font-size="10" lengthAdjust="spacing" textLength="172" x="821" y="293.4043">- Staleness (not run in N days)</text><text fill="#000000" font-family="Verdana" font-size="10" lengthAdjust="spacing" textLength="192" x="821" y="305.5576">- Duplicate / redundancy detection</text><line style="stroke:#90A4AE;stroke-width:1.0;" x1="812" x2="911" y1="252.9673" y2="252.9673"/><text fill="#000000" font-family="Verdana" font-size="10" lengthAdjust="spacing" text-decoration="line-through" textLength="5" x="911" y="256.4443">-</text><text fill="#000000" font-family="Verdana" font-size="10" lengthAdjust="spacing" text-decoration="line-through" textLength="5" x="916" y="256.4443">-</text><text fill="#000000" font-family="Verdana" font-size="10" lengthAdjust="spacing" text-decoration="line-through" textLength="5" x="921" y="256.4443">-</text><text fill="#000000" font-family="Verdana" font-size="10" lengthAdjust="spacing" text-decoration="line-through" textLength="5" x="926" y="256.4443">-</text><text fill="#000000" font-family="Verdana" font-size="10" lengthAdjust="spacing" textLength="20" x="931" y="256.4443">----</text><line style="stroke:#90A4AE;stroke-width:1.0;" x1="951" x2="1050" y1="252.9673" y2="252.9673"/></g><!--entity CoverageAnalyser--><g id="elem_CoverageAnalyser"><rect fill="#BBDEFB" height="96.9199" rx="4" ry="4" style="stroke:#90A4AE;stroke-width:1.0;" width="254" x="522" y="224.7373"/><text fill="#000000" font-family="Verdana" font-size="10" lengthAdjust="spacing" textLength="104" x="532" y="244.791">Coverage Analyser</text><text fill="#000000" font-family="Verdana" font-size="10" lengthAdjust="spacing" textLength="182" x="532" y="269.0977">- Tables with no DQ rules (gaps)</text><text fill="#000000" font-family="Verdana" font-size="10" lengthAdjust="spacing" textLength="228" x="532" y="281.251">- PII columns without null / format check</text><text fill="#000000" font-family="Verdana" font-size="10" lengthAdjust="spacing" textLength="209" x="532" y="293.4043">- Critical tables with low rule coverage</text><text fill="#000000" font-family="Verdana" font-size="10" lengthAdjust="spacing" textLength="132" x="532" y="305.5576">- Rules by data domain</text><line style="stroke:#90A4AE;stroke-width:1.0;" x1="523" x2="629" y1="252.9673" y2="252.9673"/><text fill="#000000" font-family="Verdana" font-size="10" lengthAdjust="spacing" text-decoration="line-through" textLength="5" x="629" y="256.4443">-</text><text fill="#000000" font-family="Verdana" font-size="10" lengthAdjust="spacing" text-decoration="line-through" textLength="5" x="634" y="256.4443">-</text><text fill="#000000" font-family="Verdana" font-size="10" lengthAdjust="spacing" text-decoration="line-through" textLength="5" x="639" y="256.4443">-</text><text fill="#000000" font-family="Verdana" font-size="10" lengthAdjust="spacing" text-decoration="line-through" textLength="5" x="644" y="256.4443">-</text><text fill="#000000" font-family="Verdana" font-size="10" lengthAdjust="spacing" textLength="20" x="649" y="256.4443">----</text><line style="stroke:#90A4AE;stroke-width:1.0;" x1="669" x2="775" y1="252.9673" y2="252.9673"/></g><!--entity ExecDash--><g id="elem_ExecDash"><rect fill="#F8BBD0" height="96.9199" rx="4" ry="4" style="stroke:#90A4AE;stroke-width:1.0;" width="238" x="311" y="519.7373"/><text fill="#000000" font-family="Verdana" font-size="10" lengthAdjust="spacing" textLength="154" x="321" y="539.791">Executive Mission Scorecard</text><text fill="#000000" font-family="Verdana" font-size="10" lengthAdjust="spacing" textLength="202" x="321" y="564.0977">- Data Availability (95% -&gt; 97-98%)</text><text fill="#000000" font-family="Verdana" font-size="10" lengthAdjust="spacing" textLength="122" x="321" y="576.251">- MTTD (48h -&gt; 4-8h)</text><text fill="#000000" font-family="Verdana" font-size="10" lengthAdjust="spacing" textLength="202" x="321" y="588.4043">- SLA Compliance (60% -&gt; 80-88%)</text><text fill="#000000" font-family="Verdana" font-size="10" lengthAdjust="spacing" textLength="212" x="321" y="600.5576">- Manual Ops Effort (50% -&gt; 30-35%)</text><line style="stroke:#90A4AE;stroke-width:1.0;" x1="312" x2="410" y1="547.9673" y2="547.9673"/><text fill="#000000" font-family="Verdana" font-size="10" lengthAdjust="spacing" text-decoration="line-through" textLength="5" x="410" y="551.4443">-</text><text fill="#000000" font-family="Verdana" font-size="10" lengthAdjust="spacing" text-decoration="line-through" textLength="5" x="415" y="551.4443">-</text><text fill="#000000" font-family="Verdana" font-size="10" lengthAdjust="spacing" text-decoration="line-through" textLength="5" x="420" y="551.4443">-</text><text fill="#000000" font-family="Verdana" font-size="10" lengthAdjust="spacing" text-decoration="line-through" textLength="5" x="425" y="551.4443">-</text><text fill="#000000" font-family="Verdana" font-size="10" lengthAdjust="spacing" textLength="20" x="430" y="551.4443">----</text><line style="stroke:#90A4AE;stroke-width:1.0;" x1="450" x2="548" y1="547.9673" y2="547.9673"/></g><!--entity HealthDash--><g id="elem_HealthDash"><rect fill="#F8BBD0" height="96.9199" rx="4" ry="4" style="stroke:#90A4AE;stroke-width:1.0;" width="247" x="28.5" y="519.7373"/><text fill="#000000" font-family="Verdana" font-size="10" lengthAdjust="spacing" textLength="129" x="38.5" y="539.791">Rule Health Dashboard</text><text fill="#000000" font-family="Verdana" font-size="10" lengthAdjust="spacing" textLength="187" x="38.5" y="564.0977">- Active / Inactive / Pending rules</text><text fill="#000000" font-family="Verdana" font-size="10" lengthAdjust="spacing" textLength="167" x="38.5" y="576.251">- Stale rules (&gt;7 days no run)</text><text fill="#000000" font-family="Verdana" font-size="10" lengthAdjust="spacing" textLength="221" x="38.5" y="588.4043">- Noisy rules (suggest threshold review)</text><text fill="#000000" font-family="Verdana" font-size="10" lengthAdjust="spacing" textLength="215" x="38.5" y="600.5576">- Coverage gaps -- unprotected tables</text><line style="stroke:#90A4AE;stroke-width:1.0;" x1="29.5" x2="132" y1="547.9673" y2="547.9673"/><text fill="#000000" font-family="Verdana" font-size="10" lengthAdjust="spacing" text-decoration="line-through" textLength="5" x="132" y="551.4443">-</text><text fill="#000000" font-family="Verdana" font-size="10" lengthAdjust="spacing" text-decoration="line-through" textLength="5" x="137" y="551.4443">-</text><text fill="#000000" font-family="Verdana" font-size="10" lengthAdjust="spacing" text-decoration="line-through" textLength="5" x="142" y="551.4443">-</text><text fill="#000000" font-family="Verdana" font-size="10" lengthAdjust="spacing" text-decoration="line-through" textLength="5" x="147" y="551.4443">-</text><text fill="#000000" font-family="Verdana" font-size="10" lengthAdjust="spacing" textLength="20" x="152" y="551.4443">----</text><line style="stroke:#90A4AE;stroke-width:1.0;" x1="172" x2="274.5" y1="547.9673" y2="547.9673"/></g><!--entity GovDash--><g id="elem_GovDash"><rect fill="#F8BBD0" height="96.9199" rx="4" ry="4" style="stroke:#90A4AE;stroke-width:1.0;" width="241" x="838.5" y="519.7373"/><text fill="#000000" font-family="Verdana" font-size="10" lengthAdjust="spacing" textLength="129" x="848.5" y="539.791">Governance Dashboard</text><text fill="#000000" font-family="Verdana" font-size="10" lengthAdjust="spacing" textLength="215" x="848.5" y="564.0977">- Rules pending approval + SLA status</text><text fill="#000000" font-family="Verdana" font-size="10" lengthAdjust="spacing" textLength="185" x="848.5" y="576.251">- Approval turnaround time (avg)</text><text fill="#000000" font-family="Verdana" font-size="10" lengthAdjust="spacing" textLength="143" x="848.5" y="588.4043">- Audit trail completeness</text><text fill="#000000" font-family="Verdana" font-size="10" lengthAdjust="spacing" textLength="187" x="848.5" y="600.5576">- Environment promotion pipeline</text><line style="stroke:#90A4AE;stroke-width:1.0;" x1="839.5" x2="939" y1="547.9673" y2="547.9673"/><text fill="#000000" font-family="Verdana" font-size="10" lengthAdjust="spacing" text-decoration="line-through" textLength="5" x="939" y="551.4443">-</text><text fill="#000000" font-family="Verdana" font-size="10" lengthAdjust="spacing" text-decoration="line-through" textLength="5" x="944" y="551.4443">-</text><text fill="#000000" font-family="Verdana" font-size="10" lengthAdjust="spacing" text-decoration="line-through" textLength="5" x="949" y="551.4443">-</text><text fill="#000000" font-family="Verdana" font-size="10" lengthAdjust="spacing" text-decoration="line-through" textLength="5" x="954" y="551.4443">-</text><text fill="#000000" font-family="Verdana" font-size="10" lengthAdjust="spacing" textLength="20" x="959" y="551.4443">----</text><line style="stroke:#90A4AE;stroke-width:1.0;" x1="979" x2="1078.5" y1="547.9673" y2="547.9673"/></g><!--entity TrendDash--><g id="elem_TrendDash"><rect fill="#F8BBD0" height="96.9199" rx="4" ry="4" style="stroke:#90A4AE;stroke-width:1.0;" width="219" x="584.5" y="519.7373"/><text fill="#000000" font-family="Verdana" font-size="10" lengthAdjust="spacing" textLength="150" x="594.5" y="539.791">Trend &amp; Insight Dashboard</text><text fill="#000000" font-family="Verdana" font-size="10" lengthAdjust="spacing" textLength="192" x="594.5" y="564.0977">- Violation trends (7d / 30d / 90d)</text><text fill="#000000" font-family="Verdana" font-size="10" lengthAdjust="spacing" textLength="161" x="594.5" y="576.251">- DRRI score trend over time</text><text fill="#000000" font-family="Verdana" font-size="10" lengthAdjust="spacing" textLength="160" x="594.5" y="588.4043">- Top 10 most-violated rules</text><text fill="#000000" font-family="Verdana" font-size="10" lengthAdjust="spacing" textLength="193" x="594.5" y="600.5576">- AI suggestions: new rules to add</text><line style="stroke:#90A4AE;stroke-width:1.0;" x1="585.5" x2="674" y1="547.9673" y2="547.9673"/><text fill="#000000" font-family="Verdana" font-size="10" lengthAdjust="spacing" text-decoration="line-through" textLength="5" x="674" y="551.4443">-</text><text fill="#000000" font-family="Verdana" font-size="10" lengthAdjust="spacing" text-decoration="line-through" textLength="5" x="679" y="551.4443">-</text><text fill="#000000" font-family="Verdana" font-size="10" lengthAdjust="spacing" text-decoration="line-through" textLength="5" x="684" y="551.4443">-</text><text fill="#000000" font-family="Verdana" font-size="10" lengthAdjust="spacing" text-decoration="line-through" textLength="5" x="689" y="551.4443">-</text><text fill="#000000" font-family="Verdana" font-size="10" lengthAdjust="spacing" textLength="20" x="694" y="551.4443">----</text><line style="stroke:#90A4AE;stroke-width:1.0;" x1="714" x2="802.5" y1="547.9673" y2="547.9673"/></g><!--entity AutoDisable--><g id="elem_AutoDisable"><rect fill="#FFFFFF" height="56.46" rx="4" ry="4" style="stroke:#90A4AE;stroke-width:1.0;" width="197" x="806.5" y="392.7373"/><text fill="#000000" font-family="Verdana" font-size="10" lengthAdjust="spacing" textLength="134" x="816.5" y="412.791">Auto-disable noisy rules</text><text fill="#000000" font-family="Verdana" font-size="10" lengthAdjust="spacing" textLength="177" x="816.5" y="424.9443">(&gt;50% false positive 7d rolling)</text><text fill="#000000" font-family="Verdana" font-size="10" lengthAdjust="spacing" textLength="124" x="816.5" y="437.0977">Notify owner for review</text></g><!--entity StaleWarn--><g id="elem_StaleWarn"><rect fill="#FFFFFF" height="56.46" rx="4" ry="4" style="stroke:#90A4AE;stroke-width:1.0;" width="152" x="1039" y="392.7373"/><text fill="#000000" font-family="Verdana" font-size="10" lengthAdjust="spacing" textLength="99" x="1049" y="412.791">Stale rule warning</text><text fill="#000000" font-family="Verdana" font-size="10" lengthAdjust="spacing" textLength="132" x="1049" y="424.9443">(not executed &gt;7 days)</text><text fill="#000000" font-family="Verdana" font-size="10" lengthAdjust="spacing" textLength="123" x="1049" y="437.0977">Create DataOps ticket</text></g><!--entity CoverageAlert--><g id="elem_CoverageAlert"><rect fill="#FFFFFF" height="56.46" rx="4" ry="4" style="stroke:#90A4AE;stroke-width:1.0;" width="193" x="578.5" y="392.7373"/><text fill="#000000" font-family="Verdana" font-size="10" lengthAdjust="spacing" textLength="107" x="588.5" y="412.791">Coverage gap alert</text><text fill="#000000" font-family="Verdana" font-size="10" lengthAdjust="spacing" textLength="160" x="588.5" y="424.9443">(critical table with zero rules)</text><text fill="#000000" font-family="Verdana" font-size="10" lengthAdjust="spacing" textLength="173" x="588.5" y="437.0977">Suggest rules to Data Engineer</text></g><!--entity PerfBreaker--><g id="elem_PerfBreaker"><rect fill="#FFFFFF" height="56.46" rx="4" ry="4" style="stroke:#90A4AE;stroke-width:1.0;" width="175" x="1226.5" y="392.7373"/><text fill="#000000" font-family="Verdana" font-size="10" lengthAdjust="spacing" textLength="152" x="1236.5" y="412.791">Performance circuit breaker</text><text fill="#000000" font-family="Verdana" font-size="10" lengthAdjust="spacing" textLength="155" x="1236.5" y="424.9443">(rule consistently &gt;timeout)</text><text fill="#000000" font-family="Verdana" font-size="10" lengthAdjust="spacing" textLength="129" x="1236.5" y="437.0977">Auto-disable + P1 alert</text></g><!--entity HealthStore--><g id="elem_HealthStore"><path d="M317,399.2373 C317,389.2373 430,389.2373 430,389.2373 C430,389.2373 543,389.2373 543,399.2373 L543,442.2666 C543,452.2666 430,452.2666 430,452.2666 C430,452.2666 317,452.2666 317,442.2666 L317,399.2373 " fill="#E8F5E9" style="stroke:#1565C0;stroke-width:1.0;"/><path d="M317,399.2373 C317,409.2373 430,409.2373 430,409.2373 C430,409.2373 543,409.2373 543,399.2373 " fill="none" style="stroke:#1565C0;stroke-width:1.0;"/><text fill="#000000" font-family="Verdana" font-size="14" lengthAdjust="spacing" textLength="130" x="327" y="427.3125">dq_health_metrics</text><text fill="#000000" font-family="Verdana" font-size="14" lengthAdjust="spacing" textLength="206" x="327" y="444.3271">(Delta -- partitioned by date)</text></g><g id="elem_GMN43"><path d="M1344.5,228.7373 L1344.5,317.7339 L1677.5,317.7339 L1677.5,238.7373 L1667.5,228.7373 L1344.5,228.7373 " fill="#FFFFFF" style="stroke:#000000;stroke-width:1.0;"/><path d="M1667.5,228.7373 L1667.5,238.7373 L1677.5,238.7373 L1667.5,228.7373 " fill="#FFFFFF" style="stroke:#000000;stroke-width:1.0;"/><text fill="#000000" font-family="Verdana" font-size="13" lengthAdjust="spacing" textLength="215" x="1350.5" y="246.8071">DRRI (Data Reliability Risk Index)</text><text fill="#000000" font-family="Verdana" font-size="13" lengthAdjust="spacing" textLength="110" x="1350.5" y="262.6064">Calculated daily:</text><text fill="#000000" font-family="Verdana" font-size="13" lengthAdjust="spacing" textLength="312" x="1350.5" y="278.4058">DRRI = 1 - (violated_rules / total_active_rules)</text><text fill="#000000" font-family="Verdana" font-size="13" lengthAdjust="spacing" textLength="133" x="1350.5" y="294.2051">Target: DRRI &gt; 0.95</text><text fill="#000000" font-family="Verdana" font-size="13" lengthAdjust="spacing" textLength="208" x="1350.5" y="310.0044">Feeds into DRE 3D Business KPI</text></g><g id="elem_GMN46"><path d="M1114.5,523.7373 L1114.5,612.7339 L1381.5,612.7339 L1381.5,533.7373 L1371.5,523.7373 L1114.5,523.7373 " fill="#FFFFFF" style="stroke:#000000;stroke-width:1.0;"/><path d="M1371.5,523.7373 L1371.5,533.7373 L1381.5,533.7373 L1371.5,523.7373 " fill="#FFFFFF" style="stroke:#000000;stroke-width:1.0;"/><text fill="#000000" font-family="Verdana" font-size="13" lengthAdjust="spacing" textLength="192" x="1120.5" y="541.8071">12-month executive targets:</text><text fill="#000000" font-family="Verdana" font-size="13" lengthAdjust="spacing" textLength="142" x="1120.5" y="557.6064">- MTTD: 48h -&gt; 4-8h</text><text fill="#000000" font-family="Verdana" font-size="13" lengthAdjust="spacing" textLength="233" x="1120.5" y="573.4058">- SLA compliance: 60% -&gt; 80-88%</text><text fill="#000000" font-family="Verdana" font-size="13" lengthAdjust="spacing" textLength="235" x="1120.5" y="589.2051">- Data availability: 95% -&gt; 97-98%</text><text fill="#000000" font-family="Verdana" font-size="13" lengthAdjust="spacing" textLength="246" x="1120.5" y="605.0044">- Manual ops effort: 50% -&gt; 30-35%</text></g><g id="elem_GMN49"><path d="M1712.5,226.2373 L1712.5,320.0952 L2025.5,320.0952 L2025.5,236.2373 L2015.5,226.2373 L1712.5,226.2373 " fill="#FFFFFF" style="stroke:#000000;stroke-width:1.0;"/><path d="M2015.5,226.2373 L2015.5,236.2373 L2025.5,236.2373 L2015.5,226.2373 " fill="#FFFFFF" style="stroke:#000000;stroke-width:1.0;"/><text fill="#000000" font-family="Verdana" font-size="13" lengthAdjust="spacing" textLength="111" x="1718.5" y="244.3071">Coverage Score:</text><text fill="#000000" font-family="Verdana" font-size="17" font-weight="bold" lengthAdjust="spacing" textLength="288" x="1718.5" y="264.1279">rules_covering_critical_tables</text><text fill="#000000" font-family="Verdana" font-size="13" lengthAdjust="spacing" textLength="185" x="1728.5" y="280.7671">/ total_critical_tables * 100</text><text fill="#000000" font-family="Verdana" font-size="13" lengthAdjust="spacing" textLength="258" x="1718.5" y="296.5664">Target: &gt;90% coverage on Gold tables</text><text fill="#000000" font-family="Verdana" font-size="13" lengthAdjust="spacing" textLength="292" x="1718.5" y="312.3657">Gap report sent weekly to Data Governance</text></g><!--link ExecLog to PerfTracker--><g id="link_ExecLog_PerfTracker"><path d="M1004.45,153.7873 C1025.64,163.3273 1048.55,174.3473 1069,185.7373 C1089.97,197.4073 1106.9756,208.0624 1126.7256,221.3824 " fill="none" id="ExecLog-to-PerfTracker" style="stroke:#546E7A;stroke-width:1.0;"/><polygon fill="#546E7A" points="1131.7,224.7373,1126.475,216.3887,1127.5547,221.9416,1122.0018,223.0212,1131.7,224.7373" style="stroke:#546E7A;stroke-width:1.0;"/></g><!--link ExecLog to TrendAnalyser--><g id="link_ExecLog_TrendAnalyser"><path d="M885.14,153.8773 C868.49,163.3773 849.06,172.6673 830,177.7373 C760.18,196.2873 573.97,164.2273 505,185.7373 C478.58,193.9773 457.372,205.7317 435.432,221.1217 " fill="none" id="ExecLog-to-TrendAnalyser" style="stroke:#546E7A;stroke-width:1.0;"/><polygon fill="#546E7A" points="430.52,224.5673,440.1851,222.6736,434.6134,221.696,435.591,216.1243,430.52,224.5673" style="stroke:#546E7A;stroke-width:1.0;"/></g><!--link ExecLog to QualityScorer--><g id="link_ExecLog_QualityScorer"><path d="M931,153.7473 C931,174.0973 931,195.2673 931,218.4573 " fill="none" id="ExecLog-to-QualityScorer" style="stroke:#546E7A;stroke-width:1.0;"/><polygon fill="#546E7A" points="931,224.4573,935,215.4573,931,219.4573,927,215.4573,931,224.4573" style="stroke:#546E7A;stroke-width:1.0;"/></g><!--link AnomLog to TrendAnalyser--><g id="link_AnomLog_TrendAnalyser"><path d="M466.04,153.7473 C450.06,174.0973 432.4356,196.5483 414.2256,219.7383 " fill="none" id="AnomLog-to-TrendAnalyser" style="stroke:#546E7A;stroke-width:1.0;"/><polygon fill="#546E7A" points="410.52,224.4573,419.2244,219.8492,413.608,220.5248,412.9324,214.9085,410.52,224.4573" style="stroke:#546E7A;stroke-width:1.0;"/></g><!--link DailyMetrics to TrendAnalyser--><g id="link_DailyMetrics_TrendAnalyser"><path d="M288.71,153.7473 C303.18,174.0973 319.0316,196.3785 335.5316,219.5685 " fill="none" id="DailyMetrics-to-TrendAnalyser" style="stroke:#546E7A;stroke-width:1.0;"/><polygon fill="#546E7A" points="339.01,224.4573,337.0515,214.8051,336.1113,220.3833,330.5331,219.4431,339.01,224.4573" style="stroke:#546E7A;stroke-width:1.0;"/></g><!--link RuleDB to QualityScorer--><g id="link_RuleDB_QualityScorer"><path d="M766.39,153.7473 C794.66,174.0973 827.5302,197.7623 859.7502,220.9523 " fill="none" id="RuleDB-to-QualityScorer" style="stroke:#546E7A;stroke-width:1.0;"/><polygon fill="#546E7A" points="864.62,224.4573,859.6519,215.9533,860.5618,221.5365,854.9786,222.4464,864.62,224.4573" style="stroke:#546E7A;stroke-width:1.0;"/></g><!--link RuleDB to CoverageAnalyser--><g id="link_RuleDB_CoverageAnalyser"><path d="M708.64,153.7473 C698.4,174.0973 687.4171,195.9077 675.7471,219.0977 " fill="none" id="RuleDB-to-CoverageAnalyser" style="stroke:#546E7A;stroke-width:1.0;"/><polygon fill="#546E7A" points="673.05,224.4573,680.6688,218.216,675.2976,219.991,673.5226,214.6198,673.05,224.4573" style="stroke:#546E7A;stroke-width:1.0;"/></g><!--link PerfTracker to HealthStore--><g id="link_PerfTracker_HealthStore"><path d="M1126.64,321.8473 C1108.56,331.5973 1088.67,340.4873 1069,345.7373 C1014.57,360.2773 616.73,340.3573 562,353.7373 C532.63,360.9173 507.5153,372.5485 483.3453,386.1885 " fill="none" id="PerfTracker-to-HealthStore" style="stroke:#546E7A;stroke-width:1.0;"/><polygon fill="#546E7A" points="478.12,389.1373,487.9239,388.1976,482.4745,386.6799,483.9921,381.2305,478.12,389.1373" style="stroke:#546E7A;stroke-width:1.0;"/></g><!--link TrendAnalyser to HealthStore--><g id="link_TrendAnalyser_HealthStore"><path d="M391.66,321.8773 C400.3,343.9273 408.1198,363.8913 415.7498,383.3513 " fill="none" id="TrendAnalyser-to-HealthStore" style="stroke:#546E7A;stroke-width:1.0;"/><polygon fill="#546E7A" points="417.94,388.9373,418.3787,379.0982,416.1148,384.2823,410.9307,382.0185,417.94,388.9373" style="stroke:#546E7A;stroke-width:1.0;"/></g><!--link QualityScorer to HealthStore--><g id="link_QualityScorer_HealthStore"><path d="M854.48,321.7673 C835.39,331.4573 814.49,340.3373 794,345.7373 C744.12,358.8873 611.99,341.0173 562,353.7373 C532.82,361.1573 507.854,372.7338 483.714,386.2638 " fill="none" id="QualityScorer-to-HealthStore" style="stroke:#546E7A;stroke-width:1.0;"/><polygon fill="#546E7A" points="478.48,389.1973,488.2866,388.2863,482.8416,386.7527,484.3753,381.3077,478.48,389.1973" style="stroke:#546E7A;stroke-width:1.0;"/></g><!--link CoverageAnalyser to HealthStore--><g id="link_CoverageAnalyser_HealthStore"><path d="M577.29,321.8773 C543.98,344.0073 510.3578,366.3474 481.0178,385.8374 " fill="none" id="CoverageAnalyser-to-HealthStore" style="stroke:#546E7A;stroke-width:1.0;"/><polygon fill="#546E7A" points="476.02,389.1573,485.73,387.5093,480.1848,386.3907,481.3034,380.8455,476.02,389.1573" style="stroke:#546E7A;stroke-width:1.0;"/></g><!--link HealthStore to ExecDash--><g id="link_HealthStore_ExecDash"><path d="M419.39,452.2373 C417.15,471.7373 416.3239,491.4473 417.6039,513.5973 " fill="none" id="HealthStore-to-ExecDash" style="stroke:#546E7A;stroke-width:1.0;"/><polygon fill="#546E7A" points="417.95,519.5873,421.4241,510.3715,417.6615,514.5956,413.4374,510.8331,417.95,519.5873" style="stroke:#546E7A;stroke-width:1.0;"/></g><!--link HealthStore to ExecDash--><g id="link_HealthStore_ExecDash"><path d="M441.23,452.2373 C443.61,471.7373 444.4877,491.4486 443.1277,513.5986 " fill="none" id="HealthStore-to-ExecDash-1" style="stroke:#546E7A;stroke-width:1.0;"/><polygon fill="#546E7A" points="442.76,519.5873,447.304,510.8494,443.0664,514.5967,439.3191,510.3591,442.76,519.5873" style="stroke:#546E7A;stroke-width:1.0;"/></g><!--link HealthStore to HealthDash--><g id="link_HealthStore_HealthDash"><path d="M353.72,452.2873 C333.7,460.9273 312.31,470.7173 293,480.7373 C270.44,492.4373 251.729,503.2411 230.229,516.4811 " fill="none" id="HealthStore-to-HealthDash" style="stroke:#546E7A;stroke-width:1.0;"/><polygon fill="#546E7A" points="225.12,519.6273,234.8809,518.314,229.3775,517.0055,230.686,511.5021,225.12,519.6273" style="stroke:#546E7A;stroke-width:1.0;"/></g><!--link HealthStore to GovDash--><g id="link_HealthStore_GovDash"><path d="M496.17,452.3273 C516.82,460.4873 539.97,468.2773 562,472.7373 C618.44,484.1673 765.91,463.9773 821,480.7373 C848.32,489.0473 870.5844,500.9291 893.5544,516.3091 " fill="none" id="HealthStore-to-GovDash" style="stroke:#546E7A;stroke-width:1.0;"/><polygon fill="#546E7A" points="898.54,519.6473,893.2871,511.3162,894.3853,516.8655,888.8361,517.9637,898.54,519.6473" style="stroke:#546E7A;stroke-width:1.0;"/></g><!--link HealthStore to TrendDash--><g id="link_HealthStore_TrendDash"><path d="M508.04,452.2873 C527.64,460.7873 548.39,470.5173 567,480.7373 C587.93,492.2273 604.7914,502.8645 624.3214,516.2545 " fill="none" id="HealthStore-to-TrendDash" style="stroke:#546E7A;stroke-width:1.0;"/><polygon fill="#546E7A" points="629.27,519.6473,624.109,511.259,625.1462,516.82,619.5852,517.8571,629.27,519.6473" style="stroke:#546E7A;stroke-width:1.0;"/></g><!--link QualityScorer to AutoDisable--><g id="link_QualityScorer_AutoDisable"><path d="M922.49,321.8773 C918.31,345.2473 914.485,366.6608 910.945,386.4808 " fill="none" id="QualityScorer-to-AutoDisable" style="stroke:#546E7A;stroke-width:1.0;"/><polygon fill="#546E7A" points="909.89,392.3873,915.4101,384.2308,910.7691,387.4652,907.5347,382.8242,909.89,392.3873" style="stroke:#546E7A;stroke-width:1.0;"/></g><!--link QualityScorer to StaleWarn--><g id="link_QualityScorer_StaleWarn"><path d="M991.25,321.8773 C1020.91,345.3373 1050.8836,369.0357 1075.9736,388.8757 " fill="none" id="QualityScorer-to-StaleWarn" style="stroke:#546E7A;stroke-width:1.0;"/><polygon fill="#546E7A" points="1080.68,392.5973,1076.1015,383.8774,1076.758,389.496,1071.1394,390.1525,1080.68,392.5973" style="stroke:#546E7A;stroke-width:1.0;"/></g><!--link CoverageAnalyser to CoverageAlert--><g id="link_CoverageAnalyser_CoverageAlert"><path d="M657.51,321.8773 C661.69,345.2473 665.515,366.6608 669.055,386.4808 " fill="none" id="CoverageAnalyser-to-CoverageAlert" style="stroke:#546E7A;stroke-width:1.0;"/><polygon fill="#546E7A" points="670.11,392.3873,672.4653,382.8242,669.2309,387.4652,664.5899,384.2308,670.11,392.3873" style="stroke:#546E7A;stroke-width:1.0;"/></g><!--link PerfTracker to PerfBreaker--><g id="link_PerfTracker_PerfBreaker"><path d="M1235.98,321.8773 C1254.62,345.2473 1272.6499,367.8756 1288.4499,387.6956 " fill="none" id="PerfTracker-to-PerfBreaker" style="stroke:#546E7A;stroke-width:1.0;"/><polygon fill="#546E7A" points="1292.19,392.3873,1289.7077,382.8564,1289.0733,388.4776,1283.4521,387.8432,1292.19,392.3873" style="stroke:#546E7A;stroke-width:1.0;"/></g><!--link TrendAnalyser to GMN43--><g id="link_TrendAnalyser_GMN43"><path d="M426.76,224.6273 C453.44,204.8573 487.42,185.6973 522.5,181.7373 C565.89,176.8373 1265.11,176.8373 1308.5,181.7373 C1355.27,187.0173 1403.45,208.0473 1441.08,228.6073 " fill="none" id="TrendAnalyser-GMN43" style="stroke:#546E7A;stroke-width:1.0;stroke-dasharray:7.0,7.0;"/></g><!--link ExecDash to GMN46--><g id="link_ExecDash_GMN46"><path d="M485.84,519.7073 C513.48,499.9573 548.57,480.7873 584.5,476.7373 C611.77,473.6573 1051.23,473.6573 1078.5,476.7373 C1119.37,481.3473 1160.1,502.6473 1191.38,523.5473 " fill="none" id="ExecDash-GMN46" style="stroke:#546E7A;stroke-width:1.0;stroke-dasharray:7.0,7.0;"/></g><!--link CoverageAnalyser to GMN49--><g id="link_CoverageAnalyser_GMN49"><path d="M708.54,224.5973 C737.63,204.9673 774.34,185.9273 811.5,181.7373 C835.4,179.0373 1653.6,179.0373 1677.5,181.7373 C1720.52,186.5873 1764.39,206.2673 1799.27,226.1373 " fill="none" id="CoverageAnalyser-GMN49" style="stroke:#546E7A;stroke-width:1.0;stroke-dasharray:7.0,7.0;"/></g><!--SRC=[bLXRSngv4dxdL_GcbLroKcpmsYJ6LN7L08D3hMy1SlAoLPGy8q358CrA6bXsw_ptqotD33COl0aFDfRwVlcwvP_iagyvf0aJic65JJYS3s30B8Cl6Kk4tS5GipNVAhs2LWl66L9yvYonI_WPVdySmPsImYejvABHC2iXKuRqyCIYrKAhJCPzbIWDhuUNm-umg51e7bac5oZkdmR0s9DgoJLSujyzfMEkSzvkExW8GZmTAcaducyEP-t6_ogoOhJtYHalgdUeEZmV_ZOS70ezwtpezEjYcDPgwsJaD9sB3-77eAguYmoDN-1J-O51C0rWyl1rt0ydbVF6thzNuLyyognGqWTseZ8TSVCAc7474nrXV8R3yx3jb9VUl8gMF5hDUC4-IzJY3zdKt6I9DP1Yh7Gctpf1fEDMBMhiJAerItOpBoPISYuSF-LmpIqZIizDQHtqQio3qSre6jpEoBzPSFzm5zoEmWcovrA1RxYqnlC7U7Qe7NydV1OpWHQWDYqYWznqbmZ9mOY5P4dEFo2gEq_qBCAVm-1s-Xdkmkbur9z0U7ypkWzFX3elpLmKX791kg19SNx2evM1RrZAyqHj3TMpCy_RaFFaB7dLO4BGgOe2rm2FNC-LNZCPSPXgh3Uk_v2j5pvu2y5c0UyXxNQWJ2XOGStdyfXm8XhqlaAaZ2qFeMarb_5RkfmYjSeip3N_C-Cosj5XFycC9M9kN5qXkxIO6HJlt29RSnlXTQyt28Uz0vV-ArJ2d3bJKeN9nFIQxt5fpwcPvQ0sgCEvrFmOew_dRMzta5UCISMA6zWOAAg0ReTO1HW4POGL6mxSe0Gdb2vxchDekVSOddOkBCurPsvXxGddNBuAA9j4Id-FNxSCCt3URiLi1oapnhb75_TAeAs6n40pDygYot87co8MnlayiIpXaYDlKofBVGf2mZqMtCuJ3B8q4H65xJtQ6oDSCV8lvXQDBvAN6-xjFk5XdyBE5lm7yZQbrZIm5TWgKi7WYuifchfWgRVkSJJ2GagojVHaL7OoIn8qrbM-1GSghW0r9YvY2TYALEmlNxvHRXrHZfqIp2211CHO5CAxMRZmB9Sde60oVHZN462FEl6ViwN3W0hc37Y2-h3R4UPnnc5mUPoRmNtlUzYOMChhw_1os0cxps1-yhdt48m7fq1-FmSHpSpoIJ4TcphoJBxSOlnkk1IyWBsIyFMm7rw4_UDuKnqWESU_9zb7cygNKpFE4UdS5vntQOhVhC9Qh7SnHiwkMKgnSSb4Qfyb8jiR4MVQqpjegi5Mtfxm3iLZ1vIZYUoc9G3psZxcOOxRF-1U43cuU0yZoOglZsWE9S1LSzc5HN5VVtJTHnLFOxFevrrnRxB50j47x1AnTAcI6AtS2Bvrb6MNKOjGBMKorOfwbKBfAhzIII-uUqE2f1iTFvxCt3-MekuDjjmxcDm6O2opcVCtA2viXZhS4fG3CjiiF1PdiK0NDLO3PcoT9eWt15Ckmt8Zj99hmZIKirOkoQb87LOxzz3w5tppy-DdJ0bEzwNz4GVtHUYAokn72FxiveDaC1wFSlHrLFk9ur1DfRWOmXhhiENH65DJbaA0d3x1XD5N8FasJxnLmE9uFr5US33l0IosEs4CMUkWEVek5zto5smmykn9k7dKx7RUGEiQkXzRtSitpiMxwNG0pOlB9PrVj2wNVffWblkKBU4Af_cXxVWkswtBWez9d1NmWCKPpX6YBJGxdWZds7ddpTlZhNW8iC7NAMvwqt00GNywUhW_XNP1PX4OAC1ZV3_4mgSkS9FBDm9Hv7yJf8R1y8FRRW-4j69X7DJ8VIiYP5-JyVFwPe05eLM2fKYLV8_5ET-1sjAB0VtDUxLKFV1YwmhtS01RfYLAGbKqdlr6Xjxa684A-hXvMEwIHa754RVYrebtKhuX_uavZ0W1IA4j2ezgmz7Fnh-vLjvHL3F9GQSiHLSbVWdbkZuTIMPTPtKHZOIECkpj9pJSBQJDV01ZCnhQ2743kxP-XKJ5jU2_WySpRtEvC_Qyc6SLChnz-5QhYlpb0UMdXKLNsJgF4zHsj-CajUMdaJynNf9IVKMS8F4F7NX9qL6ImmsbqQZkrILPPOzerBVJ8mJrvUu8mRErw92WKTrRIYEA9Zz-knzGn-zpX3z-MUBZlsW-xbkrBuyIx3lhgElrHZYQW6hbDh2piTlT95BpWq80FqpSUeOOXi2QO_9Oc1KEi9Z_zPR-4S2IAFEJn3qLhmh6Jt06BMWMSsRc-_UzNtjcVYFnXoHcolI2solFUWtjNxiT-gy2vpZeXAIknttsV02zp0ZtQFZzSTIW0KSk73fIHXdWxBVM6fzxo-99YIXfdIf3XlffSWMLQU9EQPf4vJIvWjeqSHGkAgmoggwWDggyS3zo5A8ZToFd2ceZvwG3pve9zkkLAmWo_fE7n9bxG21IpmeedVbjgq4fB-9zS0V_mKMWNOdxTHSDAvuYW9FgXjQxKj0D8hRcAKrDGylFblCLecM1nlkLRU_I_m40]--></g></svg>