<?xml version="1.0" encoding="us-ascii" standalone="no"?><svg xmlns="http://www.w3.org/2000/svg" xmlns:xlink="http://www.w3.org/1999/xlink" contentStyleType="text/css" height="1830px" preserveAspectRatio="none" style="width:2143px;height:1830px;background:#FAFAFA;" version="1.1" viewBox="0 0 2143 1830" width="2143px" zoomAndPan="magnify"><defs/><g><rect fill="#FAFAFA" height="1830" style="stroke:none;stroke-width:1.0;" width="2143" x="0" y="0"/><text fill="#000000" font-family="Verdana" font-size="22" font-weight="bold" lengthAdjust="spacing" textLength="599" x="770.5" y="37.1182">DRE 3D Framework -- D3 Domain Expert Agents</text><text fill="#000000" font-family="Verdana" font-size="22" font-weight="bold" lengthAdjust="spacing" textLength="904" x="618" y="63.8555">12 Agents . 5 Domain Categories . Auto-Fix with Human-in-Loop Review</text><rect fill="#FFFFFF" height="1320.207" style="stroke:#B0BEC5;stroke-width:1.0;" width="10" x="378.5" y="396.0811"/><rect fill="#FFFFFF" height="1108.1372" style="stroke:#B0BEC5;stroke-width:1.0;" width="10" x="717.5" y="562.5522"/><rect fill="#FFFFFF" height="29.7993" style="stroke:#B0BEC5;stroke-width:1.0;" width="10" x="1021.5" y="909.7427"/><rect fill="#FFFFFF" height="29.7993" style="stroke:#B0BEC5;stroke-width:1.0;" width="10" x="1175" y="667.7495"/><rect fill="#FFFFFF" height="89.3979" style="stroke:#B0BEC5;stroke-width:1.0;" width="10" x="1439" y="1044.7393"/><rect fill="#FFFFFF" height="45.5986" style="stroke:#B0BEC5;stroke-width:1.0;" width="10" x="2027.5" y="758.9468"/><rect fill="#FFFFFF" height="29.7993" style="stroke:#B0BEC5;stroke-width:1.0;" width="10" x="2027.5" y="1563.6929"/><rect fill="#FFFFFF" height="294.5591" style="stroke:#000000;stroke-width:1.0;" width="1823" x="303" y="1149.1372"/><rect fill="#FFFFFF" height="185.5625" style="stroke:none;stroke-width:1.0;" width="1823" x="303" y="1258.1338"/><line style="stroke:#B0BEC5;stroke-width:1.0;" x1="89" x2="89" y1="159.5039" y2="1734.2881"/><line style="stroke:#B0BEC5;stroke-width:1.0;" x1="383" x2="383" y1="159.5039" y2="1734.2881"/><line style="stroke:#B0BEC5;stroke-width:1.0;" x1="722.5" x2="722.5" y1="159.5039" y2="1734.2881"/><line style="stroke:#B0BEC5;stroke-width:1.0;" x1="1026" x2="1026" y1="159.5039" y2="1734.2881"/><line style="stroke:#B0BEC5;stroke-width:1.0;" x1="1180" x2="1180" y1="159.5039" y2="1734.2881"/><line style="stroke:#B0BEC5;stroke-width:1.0;" x1="1444" x2="1444" y1="159.5039" y2="1734.2881"/><line style="stroke:#B0BEC5;stroke-width:1.0;" x1="1685" x2="1685" y1="159.5039" y2="1734.2881"/><line style="stroke:#B0BEC5;stroke-width:1.0;" x1="1869" x2="1869" y1="159.5039" y2="1734.2881"/><line style="stroke:#B0BEC5;stroke-width:1.0;" x1="2032" x2="2032" y1="159.5039" y2="1734.2881"/><rect fill="#ECEFF1" height="48.0293" rx="2.5" ry="2.5" style="stroke:#90A4AE;stroke-width:1.0;" width="139" x="20" y="110.4746"/><text fill="#000000" font-family="Verdana" font-size="14" lengthAdjust="spacing" textLength="125" x="27" y="131.5498">D3 Approval Gate</text><text fill="#000000" font-family="Verdana" font-size="14" lengthAdjust="spacing" textLength="120" x="29.5" y="148.5645">(human sign-off)</text><rect fill="#ECEFF1" height="48.0293" rx="2.5" ry="2.5" style="stroke:#90A4AE;stroke-width:1.0;" width="139" x="20" y="1733.2881"/><text fill="#000000" font-family="Verdana" font-size="14" lengthAdjust="spacing" textLength="125" x="27" y="1754.3633">D3 Approval Gate</text><text fill="#000000" font-family="Verdana" font-size="14" lengthAdjust="spacing" textLength="120" x="29.5" y="1771.3779">(human sign-off)</text><rect fill="#ECEFF1" height="65.0439" rx="2.5" ry="2.5" style="stroke:#90A4AE;stroke-width:1.0;" width="121" x="323" y="93.46"/><text fill="#000000" font-family="Verdana" font-size="14" lengthAdjust="spacing" textLength="106" x="330.5" y="114.5352">Domain Router</text><text fill="#000000" font-family="Verdana" font-size="14" lengthAdjust="spacing" textLength="99" x="334" y="131.5498">(selects agent</text><text fill="#000000" font-family="Verdana" font-size="14" lengthAdjust="spacing" textLength="107" x="330" y="148.5645">by domain tag)</text><rect fill="#ECEFF1" height="65.0439" rx="2.5" ry="2.5" style="stroke:#90A4AE;stroke-width:1.0;" width="121" x="323" y="1733.2881"/><text fill="#000000" font-family="Verdana" font-size="14" lengthAdjust="spacing" textLength="106" x="330.5" y="1754.3633">Domain Router</text><text fill="#000000" font-family="Verdana" font-size="14" lengthAdjust="spacing" textLength="99" x="334" y="1771.3779">(selects agent</text><text fill="#000000" font-family="Verdana" font-size="14" lengthAdjust="spacing" textLength="107" x="330" y="1788.3926">by domain tag)</text><rect fill="#ECEFF1" height="48.0293" rx="2.5" ry="2.5" style="stroke:#90A4AE;stroke-width:1.0;" width="166" x="639.5" y="110.4746"/><text fill="#000000" font-family="Verdana" font-size="14" lengthAdjust="spacing" textLength="152" x="646.5" y="131.5498">Domain Expert Agent</text><text fill="#000000" font-family="Verdana" font-size="14" lengthAdjust="spacing" textLength="132" x="656.5" y="148.5645">(selected instance)</text><rect fill="#ECEFF1" height="48.0293" rx="2.5" ry="2.5" style="stroke:#90A4AE;stroke-width:1.0;" width="166" x="639.5" y="1733.2881"/><text fill="#000000" font-family="Verdana" font-size="14" lengthAdjust="spacing" textLength="152" x="646.5" y="1754.3633">Domain Expert Agent</text><text fill="#000000" font-family="Verdana" font-size="14" lengthAdjust="spacing" textLength="132" x="656.5" y="1771.3779">(selected instance)</text><rect fill="#ECEFF1" height="65.0439" rx="2.5" ry="2.5" style="stroke:#90A4AE;stroke-width:1.0;" width="115" x="969" y="93.46"/><text fill="#000000" font-family="Verdana" font-size="14" lengthAdjust="spacing" textLength="89" x="982" y="114.5352">Data Pipeline</text><text fill="#000000" font-family="Verdana" font-size="14" lengthAdjust="spacing" textLength="101" x="976" y="131.5498">(upstream job</text><text fill="#000000" font-family="Verdana" font-size="14" lengthAdjust="spacing" textLength="96" x="978.5" y="148.5645">or transform)</text><rect fill="#ECEFF1" height="65.0439" rx="2.5" ry="2.5" style="stroke:#90A4AE;stroke-width:1.0;" width="115" x="969" y="1733.2881"/><text fill="#000000" font-family="Verdana" font-size="14" lengthAdjust="spacing" textLength="89" x="982" y="1754.3633">Data Pipeline</text><text fill="#000000" font-family="Verdana" font-size="14" lengthAdjust="spacing" textLength="101" x="976" y="1771.3779">(upstream job</text><text fill="#000000" font-family="Verdana" font-size="14" lengthAdjust="spacing" textLength="96" x="978.5" y="1788.3926">or transform)</text><text fill="#000000" font-family="Verdana" font-size="14" lengthAdjust="spacing" textLength="146" x="1104" y="139.5498">Target Domain Table</text><text fill="#000000" font-family="Verdana" font-size="14" lengthAdjust="spacing" textLength="85" x="1134.5" y="156.5645">(Delta Lake)</text><path d="M1162,89.4746 C1162,79.4746 1180,79.4746 1180,79.4746 C1180,79.4746 1198,79.4746 1198,89.4746 L1198,115.4746 C1198,125.4746 1180,125.4746 1180,125.4746 C1180,125.4746 1162,125.4746 1162,115.4746 L1162,89.4746 " fill="#FFFFFF" style="stroke:#000000;stroke-width:1.5;"/><path d="M1162,89.4746 C1162,99.4746 1180,99.4746 1180,99.4746 C1180,99.4746 1198,99.4746 1198,89.4746 " fill="none" style="stroke:#000000;stroke-width:1.5;"/><text fill="#000000" font-family="Verdana" font-size="14" lengthAdjust="spacing" textLength="146" x="1104" y="1747.3633">Target Domain Table</text><text fill="#000000" font-family="Verdana" font-size="14" lengthAdjust="spacing" textLength="85" x="1134.5" y="1764.3779">(Delta Lake)</text><path d="M1162,1777.3174 C1162,1767.3174 1180,1767.3174 1180,1767.3174 C1180,1767.3174 1198,1767.3174 1198,1777.3174 L1198,1803.3174 C1198,1813.3174 1180,1813.3174 1180,1813.3174 C1180,1813.3174 1162,1813.3174 1162,1803.3174 L1162,1777.3174 " fill="#FFFFFF" style="stroke:#000000;stroke-width:1.5;"/><path d="M1162,1777.3174 C1162,1787.3174 1180,1787.3174 1180,1787.3174 C1180,1787.3174 1198,1787.3174 1198,1777.3174 " fill="none" style="stroke:#000000;stroke-width:1.5;"/><rect fill="#ECEFF1" height="48.0293" rx="2.5" ry="2.5" style="stroke:#90A4AE;stroke-width:1.0;" width="236" x="1326" y="110.4746"/><text fill="#000000" font-family="Verdana" font-size="14" lengthAdjust="spacing" textLength="222" x="1333" y="131.5498">D1 ANOMALY_DETECTION_JOB</text><text fill="#000000" font-family="Verdana" font-size="14" lengthAdjust="spacing" textLength="99" x="1394.5" y="148.5645">(re-validation)</text><rect fill="#ECEFF1" height="48.0293" rx="2.5" ry="2.5" style="stroke:#90A4AE;stroke-width:1.0;" width="236" x="1326" y="1733.2881"/><text fill="#000000" font-family="Verdana" font-size="14" lengthAdjust="spacing" textLength="222" x="1333" y="1754.3633">D1 ANOMALY_DETECTION_JOB</text><text fill="#000000" font-family="Verdana" font-size="14" lengthAdjust="spacing" textLength="99" x="1394.5" y="1771.3779">(re-validation)</text><text fill="#000000" font-family="Verdana" font-size="14" lengthAdjust="spacing" textLength="201" x="1582" y="139.5498">DIGITAL_DATA_ANOMALIES</text><text fill="#000000" font-family="Verdana" font-size="14" lengthAdjust="spacing" textLength="48" x="1658.5" y="156.5645">(Delta)</text><path d="M1667.5,89.4746 C1667.5,79.4746 1685.5,79.4746 1685.5,79.4746 C1685.5,79.4746 1703.5,79.4746 1703.5,89.4746 L1703.5,115.4746 C1703.5,125.4746 1685.5,125.4746 1685.5,125.4746 C1685.5,125.4746 1667.5,125.4746 1667.5,115.4746 L1667.5,89.4746 " fill="#FFFFFF" style="stroke:#000000;stroke-width:1.5;"/><path d="M1667.5,89.4746 C1667.5,99.4746 1685.5,99.4746 1685.5,99.4746 C1685.5,99.4746 1703.5,99.4746 1703.5,89.4746 " fill="none" style="stroke:#000000;stroke-width:1.5;"/><text fill="#000000" font-family="Verdana" font-size="14" lengthAdjust="spacing" textLength="201" x="1582" y="1747.3633">DIGITAL_DATA_ANOMALIES</text><text fill="#000000" font-family="Verdana" font-size="14" lengthAdjust="spacing" textLength="48" x="1658.5" y="1764.3779">(Delta)</text><path d="M1667.5,1777.3174 C1667.5,1767.3174 1685.5,1767.3174 1685.5,1767.3174 C1685.5,1767.3174 1703.5,1767.3174 1703.5,1777.3174 L1703.5,1803.3174 C1703.5,1813.3174 1685.5,1813.3174 1685.5,1813.3174 C1685.5,1813.3174 1667.5,1813.3174 1667.5,1803.3174 L1667.5,1777.3174 " fill="#FFFFFF" style="stroke:#000000;stroke-width:1.5;"/><path d="M1667.5,1777.3174 C1667.5,1787.3174 1685.5,1787.3174 1685.5,1787.3174 C1685.5,1787.3174 1703.5,1787.3174 1703.5,1777.3174 " fill="none" style="stroke:#000000;stroke-width:1.5;"/><text fill="#000000" font-family="Verdana" font-size="14" lengthAdjust="spacing" textLength="134" x="1799" y="139.5498">table_daily_metrics</text><text fill="#000000" font-family="Verdana" font-size="14" lengthAdjust="spacing" textLength="48" x="1842" y="156.5645">(Delta)</text><path d="M1851,89.4746 C1851,79.4746 1869,79.4746 1869,79.4746 C1869,79.4746 1887,79.4746 1887,89.4746 L1887,115.4746 C1887,125.4746 1869,125.4746 1869,125.4746 C1869,125.4746 1851,125.4746 1851,115.4746 L1851,89.4746 " fill="#FFFFFF" style="stroke:#000000;stroke-width:1.5;"/><path d="M1851,89.4746 C1851,99.4746 1869,99.4746 1869,99.4746 C1869,99.4746 1887,99.4746 1887,89.4746 " fill="none" style="stroke:#000000;stroke-width:1.5;"/><text fill="#000000" font-family="Verdana" font-size="14" lengthAdjust="spacing" textLength="134" x="1799" y="1747.3633">table_daily_metrics</text><text fill="#000000" font-family="Verdana" font-size="14" lengthAdjust="spacing" textLength="48" x="1842" y="1764.3779">(Delta)</text><path d="M1851,1777.3174 C1851,1767.3174 1869,1767.3174 1869,1767.3174 C1869,1767.3174 1887,1767.3174 1887,1777.3174 L1887,1803.3174 C1887,1813.3174 1869,1813.3174 1869,1813.3174 C1869,1813.3174 1851,1813.3174 1851,1803.3174 L1851,1777.3174 " fill="#FFFFFF" style="stroke:#000000;stroke-width:1.5;"/><path d="M1851,1777.3174 C1851,1787.3174 1869,1787.3174 1869,1787.3174 C1869,1787.3174 1887,1787.3174 1887,1777.3174 " fill="none" style="stroke:#000000;stroke-width:1.5;"/><rect fill="#ECEFF1" height="48.0293" rx="2.5" ry="2.5" style="stroke:#90A4AE;stroke-width:1.0;" width="147" x="1959" y="110.4746"/><text fill="#000000" font-family="Verdana" font-size="14" lengthAdjust="spacing" textLength="133" x="1966" y="131.5498">Notification Service</text><text fill="#000000" font-family="Verdana" font-size="14" lengthAdjust="spacing" textLength="87" x="1989" y="148.5645">(Email / Jira)</text><rect fill="#ECEFF1" height="48.0293" rx="2.5" ry="2.5" style="stroke:#90A4AE;stroke-width:1.0;" width="147" x="1959" y="1733.2881"/><text fill="#000000" font-family="Verdana" font-size="14" lengthAdjust="spacing" textLength="133" x="1966" y="1754.3633">Notification Service</text><text fill="#000000" font-family="Verdana" font-size="14" lengthAdjust="spacing" textLength="87" x="1989" y="1771.3779">(Email / Jira)</text><rect fill="#FFFFFF" height="1320.207" style="stroke:#B0BEC5;stroke-width:1.0;" width="10" x="378.5" y="396.0811"/><rect fill="#FFFFFF" height="1108.1372" style="stroke:#B0BEC5;stroke-width:1.0;" width="10" x="717.5" y="562.5522"/><rect fill="#FFFFFF" height="29.7993" style="stroke:#B0BEC5;stroke-width:1.0;" width="10" x="1021.5" y="909.7427"/><rect fill="#FFFFFF" height="29.7993" style="stroke:#B0BEC5;stroke-width:1.0;" width="10" x="1175" y="667.7495"/><rect fill="#FFFFFF" height="89.3979" style="stroke:#B0BEC5;stroke-width:1.0;" width="10" x="1439" y="1044.7393"/><rect fill="#FFFFFF" height="45.5986" style="stroke:#B0BEC5;stroke-width:1.0;" width="10" x="2027.5" y="758.9468"/><rect fill="#FFFFFF" height="29.7993" style="stroke:#B0BEC5;stroke-width:1.0;" width="10" x="2027.5" y="1563.6929"/><path d="M94,174.5039 L94,293.5039 L471,293.5039 L471,184.5039 L461,174.5039 L94,174.5039 " fill="#FFF8E1" style="stroke:#FFB300;stroke-width:1.0;"/><path d="M461,174.5039 L461,184.5039 L471,184.5039 L461,174.5039 " fill="#FFF8E1" style="stroke:#FFB300;stroke-width:1.0;"/><text fill="#4E342E" font-family="Verdana" font-size="10" lengthAdjust="spacing" textLength="298" x="100" y="189.5576">12 Domain Expert Agents (source: DRE.pptx slide 6):</text><text fill="#4E342E" font-family="Verdana" font-size="10" lengthAdjust="spacing" textLength="356" x="100" y="201.7109">Consumer Engagement : adiClub, CRM, Consumer Service, NPS</text><text fill="#4E342E" font-family="Verdana" font-size="10" lengthAdjust="spacing" textLength="335" x="100" y="213.8643">Marketing &amp; Traffic : Clickstream, Affiliate, Paid Search, SEO</text><text fill="#4E342E" font-family="Verdana" font-size="10" lengthAdjust="spacing" textLength="156" x="100" y="226.0176">Sales               : DTC Sales</text><text fill="#4E342E" font-family="Verdana" font-size="10" lengthAdjust="spacing" textLength="167" x="100" y="238.1709">Payments            : Payments</text><text fill="#4E342E" font-family="Verdana" font-size="10" lengthAdjust="spacing" textLength="197" x="100" y="250.3242">Metadata            : Metadata Agent</text><text fill="#4E342E" font-family="Verdana" font-size="10" lengthAdjust="spacing" textLength="181" x="100" y="262.4775">Trading             : Trading Agent</text><text fill="#4E342E" font-family="Verdana" font-size="10" lengthAdjust="spacing" textLength="297" x="100" y="274.6309">All agents share the same 4-step execution protocol.</text><text fill="#4E342E" font-family="Verdana" font-size="10" lengthAdjust="spacing" textLength="329" x="100" y="286.7842">Each agent owns its domain fix logic + pipeline knowledge.</text><rect fill="#FFFFFF" height="3" style="stroke:#FFFFFF;stroke-width:1.0;" width="2131" x="5" y="319.7834"/><line style="stroke:#000000;stroke-width:0.5;" x1="5" x2="2136" y1="319.7834" y2="319.7834"/><line style="stroke:#000000;stroke-width:0.5;" x1="5" x2="2136" y1="322.7834" y2="322.7834"/><rect fill="#FFFFFF" height="23.7993" style="stroke:#000000;stroke-width:1.0;" width="299" x="921" y="308.8838"/><text fill="#000000" font-family="Verdana" font-size="13" font-weight="bold" lengthAdjust="spacing" textLength="281" x="927" y="325.9536">[1] Prescription Routing (D3 handover)</text><polygon fill="#546E7A" points="366.5,392.0811,376.5,396.0811,366.5,400.0811,370.5,396.0811" style="stroke:#546E7A;stroke-width:1.0;"/><line style="stroke:#546E7A;stroke-width:1.0;" x1="89.5" x2="372.5" y1="396.0811" y2="396.0811"/><text fill="#000000" font-family="Verdana" font-size="13" lengthAdjust="spacing" textLength="186" x="96.5" y="359.7529">Approved prescription token</text><text fill="#000000" font-family="Verdana" font-size="13" lengthAdjust="spacing" textLength="213" x="96.5" y="375.5522">{domain_tag, table, fix_steps[],</text><text fill="#000000" font-family="Verdana" font-size="13" lengthAdjust="spacing" textLength="249" x="101.5" y="391.3516">severity, blast_radius, owner, jira_id}</text><path d="M393,409.0811 L393,504.0811 L793,504.0811 L793,419.0811 L783,409.0811 L393,409.0811 " fill="#FFF8E1" style="stroke:#FFB300;stroke-width:1.0;"/><path d="M783,409.0811 L783,419.0811 L793,419.0811 L783,409.0811 " fill="#FFF8E1" style="stroke:#FFB300;stroke-width:1.0;"/><text fill="#4E342E" font-family="Verdana" font-size="10" lengthAdjust="spacing" textLength="176" x="399" y="424.1348">Domain tag -&gt; Agent mapping:</text><text fill="#4E342E" font-family="Verdana" font-size="10" lengthAdjust="spacing" textLength="379" x="399" y="436.2881">consumer_engagement -&gt; adiClub / CRM / Consumer Service / NPS</text><text fill="#4E342E" font-family="Verdana" font-size="10" lengthAdjust="spacing" textLength="356" x="399" y="448.4414">marketing_traffic   -&gt; Clickstream / Affiliate / Paid Search / SEO</text><text fill="#4E342E" font-family="Verdana" font-size="10" lengthAdjust="spacing" textLength="199" x="399" y="460.5947">sales               -&gt; DTC Sales Agent</text><text fill="#4E342E" font-family="Verdana" font-size="10" lengthAdjust="spacing" textLength="241" x="399" y="472.748">payments            -&gt; Payments Data Agent</text><text fill="#4E342E" font-family="Verdana" font-size="10" lengthAdjust="spacing" textLength="207" x="399" y="484.9014">metadata            -&gt; Metadata Agent</text><text fill="#4E342E" font-family="Verdana" font-size="10" lengthAdjust="spacing" textLength="186" x="399" y="497.0547">trading             -&gt; Trading Agent</text><polygon fill="#546E7A" points="705.5,558.5522,715.5,562.5522,705.5,566.5522,709.5,562.5522" style="stroke:#546E7A;stroke-width:1.0;"/><line style="stroke:#546E7A;stroke-width:1.0;" x1="388.5" x2="711.5" y1="562.5522" y2="562.5522"/><text fill="#000000" font-family="Verdana" font-size="13" lengthAdjust="spacing" textLength="232" x="395.5" y="526.2241">Dispatch to matched domain agent</text><text fill="#000000" font-family="Verdana" font-size="13" lengthAdjust="spacing" textLength="176" x="395.5" y="542.0234">{fix_steps[], target_table,</text><text fill="#000000" font-family="Verdana" font-size="13" lengthAdjust="spacing" textLength="163" x="400.5" y="557.8228">domain_context, owner}</text><rect fill="#FFFFFF" height="3" style="stroke:#FFFFFF;stroke-width:1.0;" width="2131" x="5" y="591.4519"/><line style="stroke:#000000;stroke-width:0.5;" x1="5" x2="2136" y1="591.4519" y2="591.4519"/><line style="stroke:#000000;stroke-width:0.5;" x1="5" x2="2136" y1="594.4519" y2="594.4519"/><rect fill="#FFFFFF" height="23.7993" style="stroke:#000000;stroke-width:1.0;" width="359" x="891" y="580.5522"/><text fill="#000000" font-family="Verdana" font-size="13" font-weight="bold" lengthAdjust="spacing" textLength="341" x="897" y="597.6221">[2] Step 1 -- Auto-Fix with Human Review Gate</text><polygon fill="#546E7A" points="1163,663.7495,1173,667.7495,1163,671.7495,1167,667.7495" style="stroke:#546E7A;stroke-width:1.0;"/><line style="stroke:#546E7A;stroke-width:1.0;" x1="727.5" x2="1169" y1="667.7495" y2="667.7495"/><text fill="#000000" font-family="Verdana" font-size="13" lengthAdjust="spacing" textLength="217" x="734.5" y="631.4214">Apply fix per prescription.steps[]</text><text fill="#000000" font-family="Verdana" font-size="13" lengthAdjust="spacing" textLength="293" x="734.5" y="647.2207">(UPDATE / DELETE / BACKFILL / REPROCESS</text><text fill="#000000" font-family="Verdana" font-size="13" lengthAdjust="spacing" textLength="302" x="734.5" y="663.02">as defined by Playbook Compiler JSON recipe)</text><polygon fill="#546E7A" points="738.5,693.5488,728.5,697.5488,738.5,701.5488,734.5,697.5488" style="stroke:#546E7A;stroke-width:1.0;"/><line style="stroke:#546E7A;stroke-width:1.0;stroke-dasharray:2.0,2.0;" x1="732.5" x2="1179" y1="697.5488" y2="697.5488"/><text fill="#000000" font-family="Verdana" font-size="13" lengthAdjust="spacing" textLength="255" x="744.5" y="692.8193">{rows_affected, fix_ts, table_version}</text><polygon fill="#546E7A" points="2015.5,754.9468,2025.5,758.9468,2015.5,762.9468,2019.5,758.9468" style="stroke:#546E7A;stroke-width:1.0;"/><line style="stroke:#546E7A;stroke-width:1.0;" x1="727.5" x2="2021.5" y1="758.9468" y2="758.9468"/><text fill="#000000" font-family="Verdana" font-size="13" lengthAdjust="spacing" textLength="147" x="734.5" y="722.6187">Human review request</text><text fill="#000000" font-family="Verdana" font-size="13" lengthAdjust="spacing" textLength="187" x="734.5" y="738.418">{fix_applied, rows_affected,</text><text fill="#000000" font-family="Verdana" font-size="13" lengthAdjust="spacing" textLength="223" x="739.5" y="754.2173">sample_preview[], owner, jira_id}</text><polygon fill="#546E7A" points="738.5,800.5454,728.5,804.5454,738.5,808.5454,734.5,804.5454" style="stroke:#546E7A;stroke-width:1.0;"/><line style="stroke:#546E7A;stroke-width:1.0;stroke-dasharray:2.0,2.0;" x1="732.5" x2="2031.5" y1="804.5454" y2="804.5454"/><text fill="#000000" font-family="Verdana" font-size="13" lengthAdjust="spacing" textLength="69" x="744.5" y="784.0166">APPROVED</text><text fill="#000000" font-family="Verdana" font-size="13" lengthAdjust="spacing" textLength="267" x="744.5" y="799.8159">(owner click-to-approve via Jira / Email)</text><rect fill="#FFFFFF" height="3" style="stroke:#FFFFFF;stroke-width:1.0;" width="2131" x="5" y="833.4451"/><line style="stroke:#000000;stroke-width:0.5;" x1="5" x2="2136" y1="833.4451" y2="833.4451"/><line style="stroke:#000000;stroke-width:0.5;" x1="5" x2="2136" y1="836.4451" y2="836.4451"/><rect fill="#FFFFFF" height="23.7993" style="stroke:#000000;stroke-width:1.0;" width="430" x="855.5" y="822.5454"/><text fill="#000000" font-family="Verdana" font-size="13" font-weight="bold" lengthAdjust="spacing" textLength="412" x="861.5" y="839.6152">[3] Step 2 -- Pipeline Enhancement (prevent recurrence)</text><polygon fill="#546E7A" points="1009.5,905.7427,1019.5,909.7427,1009.5,913.7427,1013.5,909.7427" style="stroke:#546E7A;stroke-width:1.0;"/><line style="stroke:#546E7A;stroke-width:1.0;" x1="727.5" x2="1015.5" y1="909.7427" y2="909.7427"/><text fill="#000000" font-family="Verdana" font-size="13" lengthAdjust="spacing" textLength="250" x="734.5" y="873.4146">Patch upstream job or transform logic</text><text fill="#000000" font-family="Verdana" font-size="13" lengthAdjust="spacing" textLength="255" x="734.5" y="889.2139">(e.g. add null guard, fix partition filter,</text><text fill="#000000" font-family="Verdana" font-size="13" lengthAdjust="spacing" textLength="219" x="739.5" y="905.0132">correct join key, fix SLA window)</text><polygon fill="#546E7A" points="738.5,935.542,728.5,939.542,738.5,943.542,734.5,939.542" style="stroke:#546E7A;stroke-width:1.0;"/><line style="stroke:#546E7A;stroke-width:1.0;stroke-dasharray:2.0,2.0;" x1="732.5" x2="1025.5" y1="939.542" y2="939.542"/><text fill="#000000" font-family="Verdana" font-size="13" lengthAdjust="spacing" textLength="270" x="744.5" y="934.8125">{patch_id, job_version, config_updated}</text><rect fill="#FFFFFF" height="3" style="stroke:#FFFFFF;stroke-width:1.0;" width="2131" x="5" y="968.4417"/><line style="stroke:#000000;stroke-width:0.5;" x1="5" x2="2136" y1="968.4417" y2="968.4417"/><line style="stroke:#000000;stroke-width:0.5;" x1="5" x2="2136" y1="971.4417" y2="971.4417"/><rect fill="#FFFFFF" height="23.7993" style="stroke:#000000;stroke-width:1.0;" width="251" x="945" y="957.542"/><text fill="#000000" font-family="Verdana" font-size="13" font-weight="bold" lengthAdjust="spacing" textLength="233" x="951" y="974.6118">[4] Step 3 -- End-to-End Testing</text><polygon fill="#546E7A" points="1427,1040.7393,1437,1044.7393,1427,1048.7393,1431,1044.7393" style="stroke:#546E7A;stroke-width:1.0;"/><line style="stroke:#546E7A;stroke-width:1.0;" x1="727.5" x2="1433" y1="1044.7393" y2="1044.7393"/><text fill="#000000" font-family="Verdana" font-size="13" lengthAdjust="spacing" textLength="227" x="734.5" y="1008.4111">Re-run original failing DQ assertion</text><text fill="#000000" font-family="Verdana" font-size="13" lengthAdjust="spacing" textLength="296" x="734.5" y="1024.2104">(trigger targeted ANOMALY_DETECTION_JOB</text><text fill="#000000" font-family="Verdana" font-size="13" lengthAdjust="spacing" textLength="149" x="734.5" y="1040.0098">for this config_id only)</text><polygon fill="#546E7A" points="1191,1070.5386,1181,1074.5386,1191,1078.5386,1187,1074.5386" style="stroke:#546E7A;stroke-width:1.0;"/><line style="stroke:#546E7A;stroke-width:1.0;" x1="1185" x2="1438" y1="1074.5386" y2="1074.5386"/><text fill="#000000" font-family="Verdana" font-size="13" lengthAdjust="spacing" textLength="222" x="1197" y="1069.8091">Execute DQ check (SELECT-only)</text><polygon fill="#546E7A" points="1427,1100.3379,1437,1104.3379,1427,1108.3379,1431,1104.3379" style="stroke:#546E7A;stroke-width:1.0;"/><line style="stroke:#546E7A;stroke-width:1.0;stroke-dasharray:2.0,2.0;" x1="1180" x2="1433" y1="1104.3379" y2="1104.3379"/><text fill="#000000" font-family="Verdana" font-size="13" lengthAdjust="spacing" textLength="235" x="1187" y="1099.6084">{result: PASS|FAIL, violation_rate}</text><polygon fill="#546E7A" points="738.5,1130.1372,728.5,1134.1372,738.5,1138.1372,734.5,1134.1372" style="stroke:#546E7A;stroke-width:1.0;"/><line style="stroke:#546E7A;stroke-width:1.0;stroke-dasharray:2.0,2.0;" x1="732.5" x2="1443" y1="1134.1372" y2="1134.1372"/><text fill="#000000" font-family="Verdana" font-size="13" lengthAdjust="spacing" textLength="291" x="744.5" y="1129.4077">{validation_result, check_execution_log_id}</text><path d="M303,1149.1372 L367,1149.1372 L367,1156.9365 L357,1166.9365 L303,1166.9365 L303,1149.1372 " fill="#FFFFFF" style="stroke:#000000;stroke-width:1.0;"/><rect fill="none" height="294.5591" style="stroke:#000000;stroke-width:1.0;" width="1823" x="303" y="1149.1372"/><text fill="#000000" font-family="Verdana" font-size="13" font-weight="bold" lengthAdjust="spacing" textLength="19" x="318" y="1163.207">alt</text><text fill="#000000" font-family="Verdana" font-size="11" font-weight="bold" lengthAdjust="spacing" textLength="321" x="382" y="1162.1963">[Validation FAIL -- fix did not fully resolve issue]</text><polygon fill="#546E7A" points="2020.5,1200.5352,2030.5,1204.5352,2020.5,1208.5352,2024.5,1204.5352" style="stroke:#546E7A;stroke-width:1.0;"/><line style="stroke:#546E7A;stroke-width:1.0;" x1="727.5" x2="2026.5" y1="1204.5352" y2="1204.5352"/><text fill="#000000" font-family="Verdana" font-size="13" lengthAdjust="spacing" textLength="196" x="734.5" y="1184.0063">Escalate: auto-fix insufficient</text><text fill="#000000" font-family="Verdana" font-size="13" lengthAdjust="spacing" textLength="191" x="734.5" y="1199.8057">(owner + Tech Lead alerted)</text><polygon fill="#546E7A" points="399.5,1246.1338,389.5,1250.1338,399.5,1254.1338,395.5,1250.1338" style="stroke:#546E7A;stroke-width:1.0;"/><line style="stroke:#546E7A;stroke-width:1.0;" x1="393.5" x2="716.5" y1="1250.1338" y2="1250.1338"/><text fill="#000000" font-family="Verdana" font-size="13" lengthAdjust="spacing" textLength="235" x="405.5" y="1229.605">Return to D2 for deeper root-cause</text><text fill="#000000" font-family="Verdana" font-size="13" lengthAdjust="spacing" textLength="305" x="405.5" y="1245.4043">(re-enter Segment Slicer / Playbook Compiler)</text><line style="stroke:#000000;stroke-width:1.0;stroke-dasharray:2.0,2.0;" x1="303" x2="2126" y1="1259.1338" y2="1259.1338"/><text fill="#000000" font-family="Verdana" font-size="11" font-weight="bold" lengthAdjust="spacing" textLength="221" x="308" y="1270.1929">[Validation PASS -- fix confirmed]</text><polygon fill="#546E7A" points="1673.5,1370.2983,1683.5,1374.2983,1673.5,1378.2983,1677.5,1374.2983" style="stroke:#546E7A;stroke-width:1.0;"/><line style="stroke:#546E7A;stroke-width:1.0;" x1="727.5" x2="1679.5" y1="1374.2983" y2="1374.2983"/><text fill="#000000" font-family="Verdana" font-size="13" lengthAdjust="spacing" textLength="239" x="734.5" y="1290.5723">UPDATE DIGITAL_DATA_ANOMALIES</text><text fill="#000000" font-family="Verdana" font-size="13" lengthAdjust="spacing" textLength="234" x="734.5" y="1306.3716">SET diagnosis_status = 'RESOLVED'</text><text fill="#000000" font-family="Verdana" font-size="13" lengthAdjust="spacing" textLength="208" x="754.5" y="1322.1709">fix_applied      = fix_description</text><text fill="#000000" font-family="Verdana" font-size="13" lengthAdjust="spacing" textLength="165" x="754.5" y="1337.9702">resolved_at      = NOW()</text><text fill="#000000" font-family="Verdana" font-size="13" lengthAdjust="spacing" textLength="279" x="754.5" y="1353.7695">resolved_by_agent = domain_agent_name</text><text fill="#000000" font-family="Verdana" font-size="13" lengthAdjust="spacing" textLength="150" x="734.5" y="1369.5688">WHERE anomaly_id = ?</text><polygon fill="#546E7A" points="1857,1431.6963,1867,1435.6963,1857,1439.6963,1861,1435.6963" style="stroke:#546E7A;stroke-width:1.0;"/><line style="stroke:#546E7A;stroke-width:1.0;" x1="727.5" x2="1863" y1="1435.6963" y2="1435.6963"/><text fill="#000000" font-family="Verdana" font-size="13" lengthAdjust="spacing" textLength="183" x="734.5" y="1399.3682">UPSERT table_daily_metrics</text><text fill="#000000" font-family="Verdana" font-size="13" lengthAdjust="spacing" textLength="212" x="734.5" y="1415.1675">(refresh EWMA baseline post-fix</text><text fill="#000000" font-family="Verdana" font-size="13" lengthAdjust="spacing" textLength="313" x="734.5" y="1430.9668">so next D1 run uses corrected reference point)</text><rect fill="#FFFFFF" height="3" style="stroke:#FFFFFF;stroke-width:1.0;" width="2131" x="5" y="1471.5959"/><line style="stroke:#000000;stroke-width:0.5;" x1="5" x2="2136" y1="1471.5959" y2="1471.5959"/><line style="stroke:#000000;stroke-width:0.5;" x1="5" x2="2136" y1="1474.5959" y2="1474.5959"/><rect fill="#FFFFFF" height="23.7993" style="stroke:#000000;stroke-width:1.0;" width="285" x="928" y="1460.6963"/><text fill="#000000" font-family="Verdana" font-size="13" font-weight="bold" lengthAdjust="spacing" textLength="267" x="934" y="1477.7661">[5] Step 4 -- Production Release Plan</text><polygon fill="#546E7A" points="2015.5,1559.6929,2025.5,1563.6929,2015.5,1567.6929,2019.5,1563.6929" style="stroke:#546E7A;stroke-width:1.0;"/><line style="stroke:#546E7A;stroke-width:1.0;" x1="727.5" x2="2021.5" y1="1563.6929" y2="1563.6929"/><text fill="#000000" font-family="Verdana" font-size="13" lengthAdjust="spacing" textLength="129" x="734.5" y="1511.5654">Release notification</text><text fill="#000000" font-family="Verdana" font-size="13" lengthAdjust="spacing" textLength="234" x="734.5" y="1527.3647">{fix_summary, validation_evidence,</text><text fill="#000000" font-family="Verdana" font-size="13" lengthAdjust="spacing" textLength="252" x="739.5" y="1543.1641">pipeline_patch_id, prod_promotion_ts,</text><text fill="#000000" font-family="Verdana" font-size="13" lengthAdjust="spacing" textLength="193" x="739.5" y="1558.9634">jira_closure, owner_sign_off}</text><polygon fill="#546E7A" points="738.5,1589.4922,728.5,1593.4922,738.5,1597.4922,734.5,1593.4922" style="stroke:#546E7A;stroke-width:1.0;"/><line style="stroke:#546E7A;stroke-width:1.0;stroke-dasharray:2.0,2.0;" x1="732.5" x2="2031.5" y1="1593.4922" y2="1593.4922"/><text fill="#000000" font-family="Verdana" font-size="13" lengthAdjust="spacing" textLength="245" x="744.5" y="1588.7627">{Email delivered, Jira ticket CLOSED}</text><polygon fill="#546E7A" points="399.5,1666.6895,389.5,1670.6895,399.5,1674.6895,395.5,1670.6895" style="stroke:#546E7A;stroke-width:1.0;"/><line style="stroke:#546E7A;stroke-width:1.0;stroke-dasharray:2.0,2.0;" x1="393.5" x2="721.5" y1="1670.6895" y2="1670.6895"/><text fill="#000000" font-family="Verdana" font-size="13" lengthAdjust="spacing" textLength="109" x="405.5" y="1618.562">Execution report</text><text fill="#000000" font-family="Verdana" font-size="13" lengthAdjust="spacing" textLength="218" x="405.5" y="1634.3613">{status: RESOLVED|ESCALATED,</text><text fill="#000000" font-family="Verdana" font-size="13" lengthAdjust="spacing" textLength="190" x="410.5" y="1650.1606">fix_id, domain, duration_sec,</text><text fill="#000000" font-family="Verdana" font-size="13" lengthAdjust="spacing" textLength="221" x="410.5" y="1665.96">rows_repaired, pipeline_patched}</text><polygon fill="#546E7A" points="100.5,1712.2881,90.5,1716.2881,100.5,1720.2881,96.5,1716.2881" style="stroke:#546E7A;stroke-width:1.0;"/><line style="stroke:#546E7A;stroke-width:1.0;stroke-dasharray:2.0,2.0;" x1="94.5" x2="382.5" y1="1716.2881" y2="1716.2881"/><text fill="#000000" font-family="Verdana" font-size="13" lengthAdjust="spacing" textLength="155" x="106.5" y="1695.7593">Domain agent complete</text><text fill="#000000" font-family="Verdana" font-size="13" lengthAdjust="spacing" textLength="265" x="106.5" y="1711.5586">{domain, agent_used, outcome, jira_id}</text><!--SRC=[ZLTjR-F64VwkNp6z0es5I8xVxderu1QqH2M-oY-nr1oA-42ioPMq4SLbTfUsLSV_FS_iaXBbym7L0MTfEMyxyympmx-uXLn9AdEXYevJBfSql8tfU4WZ8rRoKPibzViqFAQXNa66ugTI6aVHN1REtXM7H_LNsgVtZSn0E3dNHaa-ZIgd-oFrH8_ABUYdQYMAlYhwOwrBkfKFIZvsEdQfYbB08TsBT3atkYgoWSwreR-E8lxNah3ozqeMgQJd3b5aZ7wi9T-VV8Z_7l5XwhGvroQJfdvqzE7uwFWZ7etLJ8vL8NUUdX-SnuFtU7eZZ5EfAaNXTWJ-SH2THF4hWTU1neDuD3g4qBb-sj4UZ8OVXuFEI-iEXNOX_g-iZ4QZZt6mqZ8n6fqV7npWTAGBLv-TnCSdHt5zDb7_atHu02UTSXiZlKFTeh8q-a7az2EgSbViBRW2PDMywElPhFkEXFMFNYc6Ijxgoaa3BIjpcQBAWejzLzolAGiIJio3ZI3wffKsPZQsP4Qgi4wWbC60V_nANpX1DwgKEMe6pQgqpaWay3TzVrSW2yw8miwqMGKJZMWdW-Azi9BUJOMPIzSWSohkSpOqb3aiZyMIVMy-iE05NWLnID7LzMKq_cyoZAVnO7fnVPLykZw76IFxoAo2DwMB4CBmiELyUF7ZnJGQ9yDe6YN1o4KyQVotNNldqV2yfUmub2GJAbydA-cCIktRca7v4iexSLzffsOgzR7HH9e7bVBLOoGYfn_eap9REz3tukjEnsFJgFd2aPu5P12XpT_gVzgpkZAfF6NIs2zBzqGMwP3qeNiAhO4kRBMIXk9Y3k2ie4Ad938roAlx7WrkBtjRcJh27btTJA1xASnIEbNCwMyqDMA6cq1taAjq6J3GemY7kKA0FJIcoc11c7JHeqby3GCJaOD_TZ-8Spe8JtmthrV-5ZiIpId789tWUkmAR4u3O8d3opZGNR7cj96AyZnqZoMx44OIc9SiE9PE-jR9akIJJ2jVB3IiqwdEzw4MYtGHz4W_5fOKzElMcu5KSpr7OhwdiaO-BGlzcCjiBlSxiiWyqtGwPsVqw-4NkZ7IfaQLtWdtAyUt1uvOY2BJ3z9qwUoiq-6QK_-VTKVZAe52qB1bsu3JIrdS5SyXcWH4q2EFsHv7bl2TxAzVUdSW6mdRogrxT9yBwnBEJ6LxV25fUlGRa9YexAKZKgSUs7dD9Q-mM9zI0qLuv31zWcaboXBNOTYbDQGIkOKTv6hS0Ve07l__2dau2j1RDT1BN0qyOlqMzY2w0H- -jz27Nm5-zWtumSW6VnjSb6-W488RS0xRK5kzWKW8VmL9zmOa8RUBoIq-waflaea-KROK3lTn6ld05rI_Xbqz0fxRHKOjc6QJK7-Kl0O5Ik7aawjBtQfmYC03y-WBJHZ_XxnelB4jr5k2foAFpn0ZNuUz1NpcQzyEuAOTaExN0OBt_dC35evHds4yZlsNysZmxz75U8olj_7DxVKWde2RGOMPdA6LCiAKkyd5-bxh9T2oAbKEyvycrrTa95XMThVt2NCZ1DHlvV4P-ubDW28_yK9dE5itIeAsi8ZofPF9LvQsbmoy35CX6IOam_0MP9io0FkvOlExthZrnAg4epAeSQM-sNJr0AZzjIyHtI0xlyH3PD5hKygjq4UbH606Ub323nIaqi-NRlj6pMJXOX_NnJxYOZVZ6lDXmNk0xzGzZfM_8CULCRpgTNVBlb5ZicQCjjS2Qcy5WHuHjjoVxuC0WFSAD3olX0cr83ynFPsXdT43dBDKmstgO0reNyfra9oC8u0IFFdOAljcuTZ4j5DytqB8SeyZQwhTOuAQgNbIbUXPcUrKVsFGP-kapjOnPoikCauv_j0KfUS-taaBzfHJz4hVL0MIeEQgmD8tGp5OSlWpPhp5v4O0o0UsYVaSXGnj2wX_OyEPSJONoZOXW-TqaQzR6S2-0yUjPepz69Fi4QoHBcblWeORJFj1STiYFjvdD6kLErGocap-64KNunx0f7E_jM1GEFdYxRUpkbsvag3T2vwIpGHDK7SFxbPc4MX7v8v-sMWJk-FCSdapvScGPW386jYpEWUkbRKLxpzVTsDiKu4eiVe8fYmsWNMsud6XmfeRMkLx50iG7KkH4NZV8DdTji7DaBsLhZ8yLMbuH9ptJ4gcCwErwwUYiZ8idD3pCslkksM2JiJF7xucgcv7vbWZMzVb53VNzVKqAvcrOy7-YK1gelpMxZg9fqYMc1VQAei185nbwOo-kuqdrsEGn7Ve87nQj1J6pva_ohRS7EJgJ6U9S8tSrVNdlUwhf_Vh92n1PyreyJ-J0WlKNV7vfnWlhQB04opBgEGP_QjziSlwOfFuTaflxzL6pk1iGV7douXu0VVTN6hhkBPtXTLKO98nQhd1K0xR40Lk26tfgGeQgd1TdgsXXT_NBNpY2S_eh4h3-eMN85xpKRTYjuyt46j4YjOYtypTQeKj1SpKwWKmVCOXC8Krws2oPI0GTOOve5VQIsC8GSvFWJJNjZAo7Wq9lnecU3NylqR3StYToE0DzCOZo8y1l8LWXQB1-7eI3r_U6WRrTTiT46yMO2DBRNYu1NWX5JMu_eWdWsWCU0uvUiu4NoqW0dyh4r9XPShF_JI4BQ5yPBj9UKMyzKBIR4A8o-yRfyso6T2NQXwd_1xzt3WDE0GUu07Aa92jwThoKA-lVm80]--></g></svg>