<?xml version="1.0" encoding="us-ascii" standalone="no"?><svg xmlns="http://www.w3.org/2000/svg" xmlns:xlink="http://www.w3.org/1999/xlink" contentStyleType="text/css" height="1848px" preserveAspectRatio="none" style="width:1555px;height:1848px;background:#FAFAFA;" version="1.1" viewBox="0 0 1555 1848" width="1555px" zoomAndPan="magnify"><defs/><g><rect fill="#FAFAFA" height="1848" style="stroke:none;stroke-width:1.0;" width="1555" x="0" y="0"/><text fill="#000000" font-family="Segoe UI" font-size="22" font-weight="bold" lengthAdjust="spacing" textLength="643" x="451.945" y="38.7402">DRE 3D Framework -- Implementation Roadmap &amp; Milestones</text><!--cluster TODAY--><g id="cluster_TODAY"><rect fill="#F5F5F5" height="347" rx="4" ry="4" style="stroke:#000000;stroke-width:1.0;" width="171" x="250.89" y="1401.7617"/><text fill="#000000" font-family="Segoe UI" font-size="11" font-weight="bold" lengthAdjust="spacing" textLength="32" x="320.39" y="1415.6318">Today</text><text fill="#000000" font-family="Segoe UI" font-size="11" font-weight="bold" lengthAdjust="spacing" textLength="46" x="313.39" y="1430.2627">Jun 2026</text></g><!--cluster Q3--><g id="cluster_Q3"><rect fill="#FFF9C4" height="420" rx="4" ry="4" style="stroke:#000000;stroke-width:1.0;" width="447" x="264.39" y="450.7617"/><text fill="#000000" font-family="Segoe UI" font-size="11" font-weight="bold" lengthAdjust="spacing" textLength="42" x="466.89" y="464.6318">Q3-2026</text><text fill="#000000" font-family="Segoe UI" font-size="11" font-weight="bold" lengthAdjust="spacing" textLength="61" x="457.39" y="479.2627">Foundation</text></g><!--cluster Q4--><g id="cluster_Q4"><rect fill="#FFE0B2" height="451" rx="4" ry="4" style="stroke:#000000;stroke-width:1.0;" width="476.5" x="251.39" y="910.7617"/><text fill="#000000" font-family="Segoe UI" font-size="11" font-weight="bold" lengthAdjust="spacing" textLength="42" x="468.64" y="924.6318">Q4-2026</text><text fill="#000000" font-family="Segoe UI" font-size="11" font-weight="bold" lengthAdjust="spacing" textLength="136" x="421.64" y="939.2627">Build D2 + D3 Foundation</text></g><!--cluster Q1_27--><g id="cluster_Q1_27"><rect fill="#FFCCBC" height="407" rx="4" ry="4" style="stroke:#000000;stroke-width:1.0;" width="474" x="895.89" y="974.7617"/><text fill="#000000" font-family="Segoe UI" font-size="11" font-weight="bold" lengthAdjust="spacing" textLength="42" x="1111.89" y="988.6318">Q1-2027</text><text fill="#000000" font-family="Segoe UI" font-size="11" font-weight="bold" lengthAdjust="spacing" textLength="94" x="1085.89" y="1003.2627">D2/D3 Production</text></g><!--cluster Q2_27--><g id="cluster_Q2_27"><rect fill="#FCE4EC" height="421" rx="4" ry="4" style="stroke:#000000;stroke-width:1.0;" width="180" x="893.89" y="1421.7617"/><text fill="#000000" font-family="Segoe UI" font-size="11" font-weight="bold" lengthAdjust="spacing" textLength="42" x="962.89" y="1435.6318">Q2-2027</text><text fill="#000000" font-family="Segoe UI" font-size="11" font-weight="bold" lengthAdjust="spacing" textLength="93" x="937.39" y="1450.2627">Domain Scale-Out</text></g><!--cluster OUTCOMES--><g id="cluster_OUTCOMES"><rect fill="#E8F5E9" height="317" rx="4" ry="4" style="stroke:#000000;stroke-width:1.0;" width="341.5" x="1208.39" y="1525.7617"/><text fill="#000000" font-family="Segoe UI" font-size="11" font-weight="bold" lengthAdjust="spacing" textLength="88" x="1335.14" y="1539.6318">Target Outcomes</text><text fill="#000000" font-family="Segoe UI" font-size="11" font-weight="bold" lengthAdjust="spacing" textLength="56" x="1351.14" y="1554.2627">@ Q2-2027</text></g><!--entity T1--><g id="elem_T1"><rect fill="#ECEFF1" height="49.2617" rx="4" ry="4" style="stroke:#000000;stroke-width:1.0;" width="102" x="285.39" y="1557.2617"/><text fill="#000000" font-family="Segoe UI" font-size="11" lengthAdjust="spacing" textLength="78" x="295.39" y="1579.1318">D1 core engine</text><text fill="#000000" font-family="Segoe UI" font-size="11" lengthAdjust="spacing" textLength="82" x="295.39" y="1593.7627">built (GE-based)</text></g><!--entity T2--><g id="elem_T2"><rect fill="#ECEFF1" height="63.8926" rx="4" ry="4" style="stroke:#000000;stroke-width:1.0;" width="120" x="276.39" y="1641.7617"/><text fill="#000000" font-family="Segoe UI" font-size="11" lengthAdjust="spacing" textLength="62" x="286.39" y="1663.6318">Architecture</text><text fill="#000000" font-family="Segoe UI" font-size="11" lengthAdjust="spacing" textLength="97" x="286.39" y="1678.2627">diagrams complete</text><text fill="#000000" font-family="Segoe UI" font-size="11" lengthAdjust="spacing" textLength="100" x="286.39" y="1692.8936">(22 PUML diagrams)</text></g><!--entity T3--><g id="elem_T3"><rect fill="#C8E6C9" height="63.8926" rx="4" ry="4" style="stroke:#000000;stroke-width:1.0;" width="123" x="274.89" y="1457.7617"/><text fill="#000000" font-family="Segoe UI" font-size="11" lengthAdjust="spacing" textLength="103" x="284.89" y="1479.6318">Compliance scanner</text><text fill="#000000" font-family="Segoe UI" font-size="11" lengthAdjust="spacing" textLength="44" x="284.89" y="1494.2627">installed</text><text fill="#000000" font-family="Segoe UI" font-size="11" lengthAdjust="spacing" textLength="95" x="284.89" y="1508.8936">(arch_compliance/)</text></g><!--entity Q3_1--><g id="elem_Q3_1"><rect fill="#FFEB3B" height="63.8926" rx="4" ry="4" style="stroke:#000000;stroke-width:1.0;" width="87" x="292.89" y="763.7617"/><text fill="#000000" font-family="Segoe UI" font-size="11" lengthAdjust="spacing" textLength="52" x="302.89" y="785.6318">1. D1 MVP</text><text fill="#000000" font-family="Segoe UI" font-size="11" lengthAdjust="spacing" textLength="63" x="302.89" y="800.2627">Live on Prod</text><text fill="#000000" font-family="Segoe UI" font-size="11" lengthAdjust="spacing" textLength="67" x="302.89" y="814.8936">[core engine]</text></g><!--entity Q3_2--><g id="elem_Q3_2"><rect fill="#FFEB3B" height="93.1543" rx="4" ry="4" style="stroke:#000000;stroke-width:1.0;" width="96" x="288.39" y="635.2617"/><text fill="#000000" font-family="Segoe UI" font-size="11" lengthAdjust="spacing" textLength="74" x="298.39" y="657.1318">2. Architecture</text><text fill="#000000" font-family="Segoe UI" font-size="11" lengthAdjust="spacing" textLength="64" x="298.39" y="671.7627">Finalized for</text><text fill="#000000" font-family="Segoe UI" font-size="11" lengthAdjust="spacing" textLength="74" x="298.39" y="686.3936">3D Framework</text><text fill="#000000" font-family="Segoe UI" font-size="11" lengthAdjust="spacing" textLength="76" x="298.39" y="701.0244">[22 diagrams +</text><text fill="#000000" font-family="Segoe UI" font-size="11" lengthAdjust="spacing" textLength="63" x="298.39" y="715.6553">spec locked]</text></g><!--entity Q3_3--><g id="elem_Q3_3"><rect fill="#FFEB3B" height="78.5234" rx="4" ry="4" style="stroke:#000000;stroke-width:1.0;" width="81" x="606.39" y="748.2617"/><text fill="#000000" font-family="Segoe UI" font-size="11" lengthAdjust="spacing" textLength="61" x="616.39" y="770.1318">3. Scope for</text><text fill="#000000" font-family="Segoe UI" font-size="11" lengthAdjust="spacing" textLength="43" x="616.39" y="784.7627">D2 &amp; D3</text><text fill="#000000" font-family="Segoe UI" font-size="11" lengthAdjust="spacing" textLength="59" x="616.39" y="799.3936">agreed and</text><text fill="#000000" font-family="Segoe UI" font-size="11" lengthAdjust="spacing" textLength="44" x="616.39" y="814.0244">finalized</text></g><!--entity Q3_4--><g id="elem_Q3_4"><rect fill="#C8E6C9" height="93.1543" rx="4" ry="4" style="stroke:#000000;stroke-width:1.0;" width="92" x="290.39" y="507.2617"/><text fill="#000000" font-family="Segoe UI" font-size="11" lengthAdjust="spacing" textLength="72" x="300.39" y="529.1318">4. Compliance</text><text fill="#000000" font-family="Segoe UI" font-size="11" lengthAdjust="spacing" textLength="43" x="300.39" y="543.7627">Baseline</text><text fill="#000000" font-family="Segoe UI" font-size="11" lengthAdjust="spacing" textLength="59" x="300.39" y="558.3936">Established</text><text fill="#000000" font-family="Segoe UI" font-size="11" lengthAdjust="spacing" textLength="72" x="300.39" y="573.0244">[pre-commit +</text><text fill="#000000" font-family="Segoe UI" font-size="11" lengthAdjust="spacing" textLength="71" x="300.39" y="587.6553">CI scan active]</text></g><!--entity Q4_1--><g id="elem_Q4_1"><rect fill="#FF9800" height="107.7852" rx="4" ry="4" style="stroke:#000000;stroke-width:1.0;" width="119" x="276.89" y="1095.7617"/><text fill="#000000" font-family="Segoe UI" font-size="11" lengthAdjust="spacing" textLength="71" x="286.89" y="1117.6318">1. Kick off dev</text><text fill="#000000" font-family="Segoe UI" font-size="11" lengthAdjust="spacing" textLength="32" x="286.89" y="1132.2627">for D2</text><text fill="#000000" font-family="Segoe UI" font-size="11" lengthAdjust="spacing" textLength="78" x="286.89" y="1146.8936">[Drift Classifier,</text><text fill="#000000" font-family="Segoe UI" font-size="11" lengthAdjust="spacing" textLength="76" x="286.89" y="1161.5244">Lineage Tracer,</text><text fill="#000000" font-family="Segoe UI" font-size="11" lengthAdjust="spacing" textLength="78" x="286.89" y="1176.1553">Segment Slicer,</text><text fill="#000000" font-family="Segoe UI" font-size="11" lengthAdjust="spacing" textLength="99" x="286.89" y="1190.7861">Playbook Compiler]</text></g><!--entity Q4_2--><g id="elem_Q4_2"><rect fill="#FF9800" height="93.1543" rx="4" ry="4" style="stroke:#000000;stroke-width:1.0;" width="122" x="275.39" y="967.2617"/><text fill="#000000" font-family="Segoe UI" font-size="11" lengthAdjust="spacing" textLength="67" x="285.39" y="989.1318">2. Kick off D3</text><text fill="#000000" font-family="Segoe UI" font-size="11" lengthAdjust="spacing" textLength="102" x="285.39" y="1003.7627">(No-domain agents)</text><text fill="#000000" font-family="Segoe UI" font-size="11" lengthAdjust="spacing" textLength="81" x="285.39" y="1018.3936">[Circuit Breaker,</text><text fill="#000000" font-family="Segoe UI" font-size="11" lengthAdjust="spacing" textLength="79" x="285.39" y="1033.0244">State Validator,</text><text fill="#000000" font-family="Segoe UI" font-size="11" lengthAdjust="spacing" textLength="64" x="285.39" y="1047.6553">Notification]</text></g><!--entity Q4_3--><g id="elem_Q4_3"><rect fill="#FF9800" height="93.1543" rx="4" ry="4" style="stroke:#000000;stroke-width:1.0;" width="96" x="598.89" y="1103.2617"/><text fill="#000000" font-family="Segoe UI" font-size="11" lengthAdjust="spacing" textLength="69" x="608.89" y="1125.1318">3. Business &amp;</text><text fill="#000000" font-family="Segoe UI" font-size="11" lengthAdjust="spacing" textLength="74" x="608.89" y="1139.7627">Market rollout</text><text fill="#000000" font-family="Segoe UI" font-size="11" lengthAdjust="spacing" textLength="32" x="608.89" y="1154.3936">for D1</text><text fill="#000000" font-family="Segoe UI" font-size="11" lengthAdjust="spacing" textLength="76" x="608.89" y="1169.0244">[all gold tables</text><text fill="#000000" font-family="Segoe UI" font-size="11" lengthAdjust="spacing" textLength="43" x="608.89" y="1183.6553">covered]</text></g><!--entity Q4_4--><g id="elem_Q4_4"><rect fill="#FF9800" height="78.5234" rx="4" ry="4" style="stroke:#000000;stroke-width:1.0;" width="114" x="589.89" y="989.2617"/><text fill="#000000" font-family="Segoe UI" font-size="11" lengthAdjust="spacing" textLength="94" x="599.89" y="1011.1318">4. POC for domain</text><text fill="#000000" font-family="Segoe UI" font-size="11" lengthAdjust="spacing" textLength="70" x="599.89" y="1025.7627">expert agents</text><text fill="#000000" font-family="Segoe UI" font-size="11" lengthAdjust="spacing" textLength="51" x="599.89" y="1040.3936">[1 domain</text><text fill="#000000" font-family="Segoe UI" font-size="11" lengthAdjust="spacing" textLength="90" x="599.89" y="1055.0244">proof of concept]</text></g><!--entity Q4_5--><g id="elem_Q4_5"><rect fill="#C8E6C9" height="78.5234" rx="4" ry="4" style="stroke:#000000;stroke-width:1.0;" width="115" x="278.89" y="1239.2617"/><text fill="#000000" font-family="Segoe UI" font-size="11" lengthAdjust="spacing" textLength="72" x="288.89" y="1261.1318">5. Compliance</text><text fill="#000000" font-family="Segoe UI" font-size="11" lengthAdjust="spacing" textLength="76" x="288.89" y="1275.7627">rules extended</text><text fill="#000000" font-family="Segoe UI" font-size="11" lengthAdjust="spacing" textLength="95" x="288.89" y="1290.3936">to D2 components</text><text fill="#000000" font-family="Segoe UI" font-size="11" lengthAdjust="spacing" textLength="92" x="288.89" y="1305.0244">[new spec entries]</text></g><!--entity Q1_1--><g id="elem_Q1_1"><rect fill="#E64A19" height="78.5234" rx="4" ry="4" style="stroke:#000000;stroke-width:1.0;" width="106" x="930.89" y="1031.2617"/><text fill="#000000" font-family="Segoe UI" font-size="11" lengthAdjust="spacing" textLength="71" x="940.89" y="1053.1318">1. Kick off dev</text><text fill="#000000" font-family="Segoe UI" font-size="11" lengthAdjust="spacing" textLength="57" x="940.89" y="1067.7627">for domain</text><text fill="#000000" font-family="Segoe UI" font-size="11" lengthAdjust="spacing" textLength="70" x="940.89" y="1082.3936">expert agents</text><text fill="#000000" font-family="Segoe UI" font-size="11" lengthAdjust="spacing" textLength="86" x="940.89" y="1097.0244">[3 pilot domains]</text></g><!--entity Q1_2--><g id="elem_Q1_2"><rect fill="#E64A19" height="78.5234" rx="4" ry="4" style="stroke:#000000;stroke-width:1.0;" width="128" x="919.89" y="1259.2617"/><text fill="#000000" font-family="Segoe UI" font-size="11" lengthAdjust="spacing" textLength="84" x="929.89" y="1281.1318">2. Rollout D2,D3</text><text fill="#000000" font-family="Segoe UI" font-size="11" lengthAdjust="spacing" textLength="108" x="929.89" y="1295.7627">agents (non-domain)</text><text fill="#000000" font-family="Segoe UI" font-size="11" lengthAdjust="spacing" textLength="74" x="929.89" y="1310.3936">in prod to test</text><text fill="#000000" font-family="Segoe UI" font-size="11" lengthAdjust="spacing" textLength="71" x="929.89" y="1325.0244">with real data</text></g><!--entity Q1_3--><g id="elem_Q1_3"><rect fill="#E64A19" height="78.5234" rx="4" ry="4" style="stroke:#000000;stroke-width:1.0;" width="135" x="1210.89" y="1031.2617"/><text fill="#000000" font-family="Segoe UI" font-size="11" lengthAdjust="spacing" textLength="82" x="1220.89" y="1053.1318">3. Business user</text><text fill="#000000" font-family="Segoe UI" font-size="11" lengthAdjust="spacing" textLength="104" x="1220.89" y="1067.7627">training on D1 &amp; D2</text><text fill="#000000" font-family="Segoe UI" font-size="11" lengthAdjust="spacing" textLength="105" x="1220.89" y="1082.3936">+ adapt to feedback</text><text fill="#000000" font-family="Segoe UI" font-size="11" lengthAdjust="spacing" textLength="115" x="1220.89" y="1097.0244">[DRRI dashboards live]</text></g><!--entity Q1_4--><g id="elem_Q1_4"><rect fill="#C8E6C9" height="78.5234" rx="4" ry="4" style="stroke:#000000;stroke-width:1.0;" width="105" x="931.39" y="1145.2617"/><text fill="#000000" font-family="Segoe UI" font-size="11" lengthAdjust="spacing" textLength="72" x="941.39" y="1167.1318">4. Compliance</text><text fill="#000000" font-family="Segoe UI" font-size="11" lengthAdjust="spacing" textLength="85" x="941.39" y="1181.7627">enforcement full</text><text fill="#000000" font-family="Segoe UI" font-size="11" lengthAdjust="spacing" textLength="80" x="941.39" y="1196.3936">[all agent layers</text><text fill="#000000" font-family="Segoe UI" font-size="11" lengthAdjust="spacing" textLength="82" x="941.39" y="1211.0244">covered in spec]</text></g><!--entity Q2_1--><g id="elem_Q2_1"><rect fill="#880E4F" height="93.1543" rx="4" ry="4" style="stroke:#000000;stroke-width:1.0;" width="132" x="917.89" y="1592.2617"/><text fill="#000000" font-family="Segoe UI" font-size="11" lengthAdjust="spacing" textLength="86" x="927.89" y="1614.1318">1. Rollout 3 pilot</text><text fill="#000000" font-family="Segoe UI" font-size="11" lengthAdjust="spacing" textLength="112" x="927.89" y="1628.7627">domain expert agents</text><text fill="#000000" font-family="Segoe UI" font-size="11" lengthAdjust="spacing" textLength="72" x="927.89" y="1643.3936">to production</text><text fill="#000000" font-family="Segoe UI" font-size="11" lengthAdjust="spacing" textLength="87" x="927.89" y="1658.0244">[adiClub, Pricing,</text><text fill="#000000" font-family="Segoe UI" font-size="11" lengthAdjust="spacing" textLength="61" x="927.89" y="1672.6553">Clickstream]</text></g><!--entity Q2_2--><g id="elem_Q2_2"><rect fill="#880E4F" height="78.5234" rx="4" ry="4" style="stroke:#000000;stroke-width:1.0;" width="132" x="917.89" y="1720.2617"/><text fill="#000000" font-family="Segoe UI" font-size="11" lengthAdjust="spacing" textLength="76" x="927.89" y="1742.1318">2. Auto-tuning</text><text fill="#000000" font-family="Segoe UI" font-size="11" lengthAdjust="spacing" textLength="87" x="927.89" y="1756.7627">CRAG thresholds</text><text fill="#000000" font-family="Segoe UI" font-size="11" lengthAdjust="spacing" textLength="59" x="927.89" y="1771.3936">per domain</text><text fill="#000000" font-family="Segoe UI" font-size="11" lengthAdjust="spacing" textLength="112" x="927.89" y="1786.0244">[feedback loop active]</text></g><!--entity Q2_3--><g id="elem_Q2_3"><rect fill="#C8E6C9" height="78.5234" rx="4" ry="4" style="stroke:#000000;stroke-width:1.0;" width="120" x="923.89" y="1478.2617"/><text fill="#000000" font-family="Segoe UI" font-size="11" lengthAdjust="spacing" textLength="72" x="933.89" y="1500.1318">3. Compliance</text><text fill="#000000" font-family="Segoe UI" font-size="11" lengthAdjust="spacing" textLength="76" x="933.89" y="1514.7627">coverage 100%</text><text fill="#000000" font-family="Segoe UI" font-size="11" lengthAdjust="spacing" textLength="91" x="933.89" y="1529.3936">Exception registry</text><text fill="#000000" font-family="Segoe UI" font-size="11" lengthAdjust="spacing" textLength="100" x="933.89" y="1544.0244">reviewed + cleaned</text></g><!--entity O1--><g id="elem_O1"><rect fill="#A5D6A7" height="49.2617" rx="4" ry="4" style="stroke:#000000;stroke-width:1.0;" width="80" x="1238.39" y="1750.2617"/><text fill="#000000" font-family="Segoe UI" font-size="11" lengthAdjust="spacing" textLength="60" x="1248.39" y="1772.1318">DRRI &gt; 95%</text><text fill="#000000" font-family="Segoe UI" font-size="11" lengthAdjust="spacing" textLength="59" x="1248.39" y="1786.7627">per domain</text></g><!--entity O2--><g id="elem_O2"><rect fill="#A5D6A7" height="49.2617" rx="4" ry="4" style="stroke:#000000;stroke-width:1.0;" width="80" x="1238.39" y="1666.2617"/><text fill="#000000" font-family="Segoe UI" font-size="11" lengthAdjust="spacing" textLength="28" x="1248.39" y="1688.1318">MTTD</text><text fill="#000000" font-family="Segoe UI" font-size="11" lengthAdjust="spacing" textLength="60" x="1248.39" y="1702.7627">48h -&gt; 4-8h</text></g><!--entity O3--><g id="elem_O3"><rect fill="#A5D6A7" height="49.2617" rx="4" ry="4" style="stroke:#000000;stroke-width:1.0;" width="92" x="1232.39" y="1582.2617"/><text fill="#000000" font-family="Segoe UI" font-size="11" lengthAdjust="spacing" textLength="27" x="1242.39" y="1604.1318">MTTR</text><text fill="#000000" font-family="Segoe UI" font-size="11" lengthAdjust="spacing" textLength="72" x="1242.39" y="1618.7627">4-8h -&gt; 44min</text></g><!--entity O4--><g id="elem_O4"><rect fill="#A5D6A7" height="49.2617" rx="4" ry="4" style="stroke:#000000;stroke-width:1.0;" width="70" x="1440.39" y="1750.2617"/><text fill="#000000" font-family="Segoe UI" font-size="11" lengthAdjust="spacing" textLength="41" x="1450.39" y="1772.1318">40% toil</text><text fill="#000000" font-family="Segoe UI" font-size="11" lengthAdjust="spacing" textLength="50" x="1450.39" y="1786.7627">reduction</text></g><!--entity O5--><g id="elem_O5"><rect fill="#A5D6A7" height="49.2617" rx="4" ry="4" style="stroke:#000000;stroke-width:1.0;" width="101" x="1424.89" y="1666.2617"/><text fill="#000000" font-family="Segoe UI" font-size="11" lengthAdjust="spacing" textLength="81" x="1434.89" y="1688.1318">100% gold layer</text><text fill="#000000" font-family="Segoe UI" font-size="11" lengthAdjust="spacing" textLength="69" x="1434.89" y="1702.7627">rule coverage</text></g><g id="elem_RoadmapNote"><path d="M143.89,61.2617 L143.89,426.4023 L528.89,426.4023 L528.89,71.2617 L518.89,61.2617 L143.89,61.2617 " fill="#FFFDE7" style="stroke:#F9A825;stroke-width:1.0;"/><path d="M518.89,61.2617 L518.89,71.2617 L528.89,71.2617 L518.89,61.2617 " fill="#FFFDE7" style="stroke:#F9A825;stroke-width:1.0;"/><text fill="#000000" font-family="Segoe UI" font-size="11" font-weight="bold" lengthAdjust="spacing" textLength="254" x="149.89" y="78.1318">How architecture compliance maps to milestones</text><text fill="#000000" font-family="Segoe UI" font-size="11" lengthAdjust="spacing" textLength="298" x="149.89" y="107.3936">Q3-2026: architecture_spec.yaml locked. Pre-commit hooks</text><text fill="#000000" font-family="Segoe UI" font-size="11" lengthAdjust="spacing" textLength="268" x="155.89" y="122.0244">installed on all developer machines. CI scan running</text><text fill="#000000" font-family="Segoe UI" font-size="11" lengthAdjust="spacing" textLength="224" x="155.89" y="136.6553">on every PR. Baseline exceptions registered.</text><text fill="#000000" font-family="Segoe UI" font-size="11" lengthAdjust="spacing" textLength="3" x="149.89" y="151.2861">&#160;</text><text fill="#000000" font-family="Segoe UI" font-size="11" lengthAdjust="spacing" textLength="315" x="149.89" y="165.917">Q4-2026: Compliance rules extended to cover D2 components</text><text fill="#000000" font-family="Segoe UI" font-size="11" lengthAdjust="spacing" textLength="241" x="155.89" y="180.5479">(Drift Classifier, Lineage Tracer, Segment Slicer).</text><text fill="#000000" font-family="Segoe UI" font-size="11" lengthAdjust="spacing" textLength="272" x="155.89" y="195.1787">Agent hierarchy checks enforced (L3 -&gt; L4 transition).</text><text fill="#000000" font-family="Segoe UI" font-size="11" lengthAdjust="spacing" textLength="248" x="155.89" y="209.8096">D3 no-domain agent boundaries added to spec.</text><text fill="#000000" font-family="Segoe UI" font-size="11" lengthAdjust="spacing" textLength="3" x="149.89" y="224.4404">&#160;</text><text fill="#000000" font-family="Segoe UI" font-size="11" lengthAdjust="spacing" textLength="314" x="149.89" y="239.0713">Q1-2027: Full compliance enforcement across all D2/D3 agent</text><text fill="#000000" font-family="Segoe UI" font-size="11" lengthAdjust="spacing" textLength="247" x="155.89" y="253.7021">code. CRAG threshold checks active. DRRI metric</text><text fill="#000000" font-family="Segoe UI" font-size="11" lengthAdjust="spacing" textLength="270" x="155.89" y="268.333">definition locked in spec. Exception registry audited.</text><text fill="#000000" font-family="Segoe UI" font-size="11" lengthAdjust="spacing" textLength="3" x="149.89" y="282.9639">&#160;</text><text fill="#000000" font-family="Segoe UI" font-size="11" lengthAdjust="spacing" textLength="331" x="149.89" y="297.5947">Q2-2027: Domain agent compliance (domain-specific check types</text><text fill="#000000" font-family="Segoe UI" font-size="11" lengthAdjust="spacing" textLength="281" x="155.89" y="312.2256">registered per domain). CRAG auto-tuning results feed</text><text fill="#000000" font-family="Segoe UI" font-size="11" lengthAdjust="spacing" textLength="261" x="155.89" y="326.8564">back into spec thresholds. Clean exception registry</text><text fill="#000000" font-family="Segoe UI" font-size="11" lengthAdjust="spacing" textLength="221" x="155.89" y="341.4873">(no TECHNICAL_DEBT older than 6 months).</text><text fill="#000000" font-family="Segoe UI" font-size="11" lengthAdjust="spacing" textLength="3" x="149.89" y="356.1182">&#160;</text><text fill="#000000" font-family="Segoe UI" font-size="11" font-weight="bold" lengthAdjust="spacing" textLength="165" x="149.89" y="370.749">Decision rule at every milestone</text><text fill="#000000" font-family="Segoe UI" font-size="11" lengthAdjust="spacing" textLength="358" x="149.89" y="385.3799">Deviation found -&gt; Fix code | Update spec+PUML | Register exception</text><text fill="#000000" font-family="Segoe UI" font-size="11" lengthAdjust="spacing" textLength="274" x="149.89" y="400.0107">Expired exception -&gt; Fix code or renew with approval</text><text fill="#000000" font-family="Segoe UI" font-size="11" lengthAdjust="spacing" textLength="267" x="149.89" y="414.6416">New capability -&gt; Update spec first, then implement</text><line style="stroke:#F9A825;stroke-width:1.0;" x1="144.89" x2="310.39" y1="88.208" y2="88.208"/><text fill="#000000" font-family="Segoe UI" font-size="11" lengthAdjust="spacing" text-decoration="line-through" textLength="4" x="310.39" y="92.2627">-</text><text fill="#000000" font-family="Segoe UI" font-size="11" lengthAdjust="spacing" text-decoration="line-through" textLength="4" x="314.39" y="92.2627">-</text><text fill="#000000" font-family="Segoe UI" font-size="11" lengthAdjust="spacing" text-decoration="line-through" textLength="4" x="318.39" y="92.2627">-</text><text fill="#000000" font-family="Segoe UI" font-size="11" lengthAdjust="spacing" text-decoration="line-through" textLength="4" x="322.39" y="92.2627">-</text><text fill="#000000" font-family="Segoe UI" font-size="11" lengthAdjust="spacing" text-decoration="line-through" textLength="4" x="326.39" y="92.2627">-</text><text fill="#000000" font-family="Segoe UI" font-size="11" lengthAdjust="spacing" text-decoration="line-through" textLength="4" x="330.39" y="92.2627">-</text><text fill="#000000" font-family="Segoe UI" font-size="11" lengthAdjust="spacing" text-decoration="line-through" textLength="4" x="334.39" y="92.2627">-</text><text fill="#000000" font-family="Segoe UI" font-size="11" lengthAdjust="spacing" text-decoration="line-through" textLength="4" x="338.39" y="92.2627">-</text><text fill="#000000" font-family="Segoe UI" font-size="11" lengthAdjust="spacing" text-decoration="line-through" textLength="4" x="342.39" y="92.2627">-</text><text fill="#000000" font-family="Segoe UI" font-size="11" lengthAdjust="spacing" text-decoration="line-through" textLength="4" x="346.39" y="92.2627">-</text><text fill="#000000" font-family="Segoe UI" font-size="11" lengthAdjust="spacing" textLength="12" x="350.39" y="92.2627">---</text><line style="stroke:#F9A825;stroke-width:1.0;" x1="362.39" x2="527.89" y1="88.208" y2="88.208"/></g><!--link TODAY to Q3--><g id="link_TODAY_Q3"><path d="M303.3661,1748.8309 C303.1272,1748.8772 302.8874,1748.9234 302.6467,1748.9696 C301.6837,1749.1543 300.7053,1749.338 299.7122,1749.5203 C295.7399,1750.2493 291.5329,1750.9548 287.1365,1751.6042 C278.3438,1752.903 268.7938,1753.9777 258.85,1754.568 C219.075,1756.9292 173,1751.5417 143.89,1721.7617 C82.41,1658.8617 33.17,1002.2917 86.39,932.2617 C120.19,887.7867 179.9,870.0917 232.49,863.668 C239.0638,862.865 245.5263,862.2381 251.813,861.7571 C254.9564,861.5166 258.0558,861.3125 261.1032,861.1411 C261.8651,861.0983 256.6316,861.3655 257.3868,861.3267 " fill="none" id="TODAY-to-Q3" style="stroke:#000000;stroke-width:1.0;"/><polygon fill="#000000" points="263.3789,861.0187,254.1854,857.486,258.3855,861.2754,254.5961,865.4754,263.3789,861.0187" style="stroke:#000000;stroke-width:1.0;"/><text fill="#000000" font-family="Segoe UI" font-size="11" lengthAdjust="spacing" textLength="61" x="44.39" y="945.1318">architecture</text><text fill="#000000" font-family="Segoe UI" font-size="11" lengthAdjust="spacing" textLength="34" x="57.89" y="959.7627">locked</text></g><!--link Q3 to Q4--><g id="link_Q3_Q4"><path d="M263.1724,856.8949 C262.7633,856.8732 262.3534,856.8517 261.9425,856.8303 C261.1206,856.7876 260.2952,856.7454 259.4662,856.7039 C246.2025,856.0395 232.0437,855.538 217.69,855.3617 C160.275,854.6567 99.74,859.1567 80.89,879.2617 C11,953.8117 69.89,1264.2917 143.89,1334.7617 C174.045,1363.4767 220.1525,1368.8317 259.6825,1366.7192 C269.565,1366.1911 279.0364,1365.1963 287.7447,1363.983 C292.0988,1363.3764 296.2622,1362.7152 300.1908,1362.0304 C300.6818,1361.9448 295.2625,1362.9125 295.7461,1362.8262 " fill="none" id="Q3-to-Q4" style="stroke:#000000;stroke-width:1.0;"/><polygon fill="#000000" points="301.6529,1361.7725,292.0903,1359.4152,296.7306,1362.6506,293.4952,1367.2909,301.6529,1361.7725" style="stroke:#000000;stroke-width:1.0;"/><text fill="#000000" font-family="Segoe UI" font-size="11" lengthAdjust="spacing" textLength="55" x="47.39" y="892.1318">D1 in prod</text><text fill="#000000" font-family="Segoe UI" font-size="11" lengthAdjust="spacing" textLength="72" x="38.89" y="906.7627">D2/D3 scoped</text></g><!--link Q4 to Q1_27--><g id="link_Q4_Q1_27"><path d="M492.4508,1361.7954 C492.8919,1361.8157 493.3333,1361.836 493.7749,1361.8563 C497.3083,1362.0185 500.8594,1362.1799 504.4231,1362.34 C532.9331,1363.6211 562.2575,1364.8242 589.89,1365.7617 C675.825,1368.6767 772.3725,1370.6592 848.2675,1371.9217 C857.7544,1372.0795 866.9186,1372.2261 875.699,1372.3618 C880.0892,1372.4297 884.3835,1372.4948 888.5742,1372.5573 C890.6695,1372.5886 886.7396,1372.5313 888.7822,1372.5612 " fill="none" id="Q4-to-Q1_27" style="stroke:#000000;stroke-width:1.0;"/><polygon fill="#000000" points="894.7816,1372.6491,885.8411,1368.5177,889.7821,1372.5759,885.7239,1376.5168,894.7816,1372.6491" style="stroke:#000000;stroke-width:1.0;"/><text fill="#000000" font-family="Segoe UI" font-size="11" lengthAdjust="spacing" textLength="59" x="617.39" y="1347.6318">D2/D3 built</text><text fill="#000000" font-family="Segoe UI" font-size="11" lengthAdjust="spacing" textLength="55" x="619.39" y="1362.2627">D1 at scale</text></g><!--link Q1_27 to Q2_27--><g id="link_Q1_27_Q2_27"><path d="M971.5703,1381.9452 C971.4637,1382.0182 971.3566,1382.0916 971.2489,1382.1654 C970.8179,1382.4607 970.3779,1382.763 969.9291,1383.0722 C962.7475,1388.0195 953.3088,1394.7336 942.855,1402.713 C921.9475,1418.6717 896.98,1439.6917 877.89,1461.7617 C823.22,1524.9817 802.51,1541.8017 779.89,1622.2617 C753.8,1715.0617 798.48,1761.1117 877.89,1815.7617 C882.5875,1818.9942 887.6703,1821.7261 892.9799,1824.0308 C893.1459,1824.1028 887.7958,1821.814 887.9622,1821.8851 " fill="none" id="Q1_27-to-Q2_27" style="stroke:#000000;stroke-width:1.0;"/><polygon fill="#000000" points="893.4784,1824.2456,886.7777,1817.0275,888.8816,1822.2786,883.6305,1824.3824,893.4784,1824.2456" style="stroke:#000000;stroke-width:1.0;"/><text fill="#000000" font-family="Segoe UI" font-size="11" lengthAdjust="spacing" textLength="73" x="774.39" y="1635.1318">D2/D3 in prod</text><text fill="#000000" font-family="Segoe UI" font-size="11" lengthAdjust="spacing" textLength="116" x="752.89" y="1649.7627">domain agents started</text></g><!--link Q2_27 to OUTCOMES--><g id="link_Q2_27_OUTCOMES"><path d="M1075.0964,1834.7617 C1076.1443,1834.7617 1077.1968,1834.7617 1078.2535,1834.7617 C1095.1609,1834.7617 1113.1581,1834.7617 1131.155,1834.7617 C1149.1519,1834.7617 1167.1484,1834.7617 1184.0546,1834.7617 C1188.2812,1834.7617 1192.4396,1834.7617 1196.5128,1834.7617 C1198.5494,1834.7617 1200.5648,1834.7617 1202.5567,1834.7617 C1203.5526,1834.7617 1204.5427,1834.7617 1205.5267,1834.7617 C1206.0187,1834.7617 1206.5091,1834.7617 1206.998,1834.7617 C1207.2424,1834.7617 1201.4865,1834.7617 1201.7302,1834.7617 " fill="none" id="Q2_27-to-OUTCOMES" style="stroke:#000000;stroke-width:1.0;"/><polygon fill="#000000" points="1207.7302,1834.7617,1198.7302,1830.7617,1202.7302,1834.7617,1198.7302,1838.7617,1207.7302,1834.7617" style="stroke:#000000;stroke-width:1.0;"/><text fill="#000000" font-family="Segoe UI" font-size="11" lengthAdjust="spacing" textLength="81" x="1098.89" y="1831.6318">all 3D layers live</text></g><!--link T3 to Q3_4--><g id="link_T3_Q3_4"><path d="M274.46,1467.1517 C230.96,1447.9817 175.15,1416.1317 143.89,1369.7617 C55.11,1238.0817 96.11,1175.9817 82.39,1017.7617 C66.85,838.5717 27.42,754.8317 143.89,617.7617 C180.15,575.0917 239.664,561.3698 284.074,556.6198 " fill="none" id="T3-to-Q3_4" style="stroke:#000000;stroke-width:1.0;stroke-dasharray:7.0,7.0;"/><polygon fill="#000000" points="290.04,555.9817,280.6656,552.9616,285.0684,556.5135,281.5164,560.9162,290.04,555.9817" style="stroke:#000000;stroke-width:1.0;"/><text fill="#000000" font-family="Segoe UI" font-size="11" lengthAdjust="spacing" textLength="69" x="40.39" y="1014.6318">baseline scan</text></g><!--link Q3_4 to Q4_5--><g id="link_Q3_4_Q4_5"><path d="M290.35,559.6617 C248.32,567.0817 186.44,583.2817 143.89,617.7617 C99.47,653.7517 93.86,673.5817 78.89,728.7617 C50.02,835.2017 72.26,1136.9117 143.89,1220.7617 C176.99,1259.5117 228.9799,1272.3232 272.6699,1276.7032 " fill="none" id="Q3_4-to-Q4_5" style="stroke:#000000;stroke-width:1.0;stroke-dasharray:7.0,7.0;"/><polygon fill="#000000" points="278.64,1277.3017,270.0839,1272.4239,273.6649,1276.803,269.2859,1280.384,278.64,1277.3017" style="stroke:#000000;stroke-width:1.0;"/><text fill="#000000" font-family="Segoe UI" font-size="11" lengthAdjust="spacing" textLength="76" x="36.89" y="741.6318">extended rules</text></g><!--link Q4_5 to Q1_4--><g id="link_Q4_5_Q1_4"><path d="M394.11,1273.1217 C472.82,1265.0217 619.54,1248.9417 743.89,1229.7617 C808.78,1219.7517 877.1401,1206.4962 925.4301,1196.6862 " fill="none" id="Q4_5-to-Q1_4" style="stroke:#000000;stroke-width:1.0;stroke-dasharray:7.0,7.0;"/><polygon fill="#000000" points="931.31,1195.4917,921.6938,1193.3635,926.4101,1196.4871,923.2865,1201.2034,931.31,1195.4917" style="stroke:#000000;stroke-width:1.0;"/><text fill="#000000" font-family="Segoe UI" font-size="11" lengthAdjust="spacing" textLength="85" x="604.39" y="1226.6318">full enforcement</text></g><!--link Q1_4 to Q2_3--><g id="link_Q1_4_Q2_3"><path d="M931.15,1204.8917 C912.55,1213.9817 892.62,1226.2117 877.89,1241.7617 C733.55,1394.1317 782.63,1395.5617 799.89,1423.7617 C826.67,1467.5117 875.1942,1489.9939 917.8942,1502.8339 " fill="none" id="Q1_4-to-Q2_3" style="stroke:#000000;stroke-width:1.0;stroke-dasharray:7.0,7.0;"/><polygon fill="#000000" points="923.64,1504.5617,916.1731,1498.1395,918.8518,1503.1219,913.8694,1505.8006,923.64,1504.5617" style="stroke:#000000;stroke-width:1.0;"/><text fill="#000000" font-family="Segoe UI" font-size="11" lengthAdjust="spacing" textLength="76" x="772.89" y="1420.6318">100% coverage</text></g><!--SRC=[jLXhS-B85VtEhxZPgPd5vO4nGlROMvkfW10xJlnQm9jA3LkkHcf0PT5DIOqVoUQ_vzpM0ybcgb8nmPyitVSzVUzf_SaivKhIEXQHQfZ8n9868v-w0necOYKVTN9FhHQThzOnv9GH9jAAHbg4Ax6c3tGPnJ8rMicqqKZl8xKMKAEP2EuNYTweqDEnJkZTiCT_5ObGpiKcDaEjp1Nyq5WkjAJRyzqYu-YVaZgToij41aQe1SBzLuCGZtMLA9dGAVwlwloxegMqoHJwhm8S3WV-PtwZar0cnTEptgbp31EDMCuD6Kr9j5WQ2YFsZqeq6Z_Idz_oWxvtEnhvLnCQJteJdvhhHDAltPPpv9mSlDdwjam_J7GedgVghnj5RFi74YbDhWUzVo3DO_wpXQae33eKQ0GZrI9ISgfccoWsrFp5Ryr4AiE3p4A7tlcUFnnswigz95X61lzl4gY6aLYW_YaCCf0C7ZKTXsvkBo-eU9VRStRRyrWn4YgGb0P2eT5J5QdKY3YM8Qm9-BiBIg5FkRKklVDE_HFlZ7luzbRbVI4-4aD6ZpqE- -nIxc6gjkPj9hzsBKRFFFTbcpfjGgSkVxkPgeleGHAEvqsYKPDlbUxzdXkvwx0Plz_jruquRQftR1Wf4UC4XJJNA7Lr7i0oUbUsz72gqhKCADR1lGnBHyvkHzqsZGEzbfdPWOCHCkXE5Mn9-18ASSyBruMfxcvJRfksg9YgFa0PMw3wWCKiZj8b8-CRpbCBm5X5XaFrpYr-IE3uFcpBukuP9-uM9tqScv2GwI4o_N-XnirHyprdMPwkBUHHtzc1eRz5mJtf-HnZzm4zmFGREAZU88am-BnOf6aqZsJoaL6cf5X8cYGYi0ymktarq3YEiWStiNYUQNrl-uC5aUHrTZFudPqU7Rs2N-cVuT2yqgrGhx2J29wKIGyGYXSbmGPTx2TIt6UEiOua_GQq84lDJwwqGPY1pRbqwkns2YZsDocIILFwC5MN8hcNXX8TntfZyX9qu1SZXXOQPMLKoNIg0lqWanBgReRFr_Q1pvjhZu5EMIvJ9P_MCZ5vJZ3TAT-i4wtdo1yJ4cXUczAukzluSHtyoGQHaNmoKeMCUcmgW83d8LPpval9Hx875VydaKnB3yTxndw7iVZPOd_WV08CUHnjWhrZFlF3GwJk9CkhSuSOK3hFwtl_5To_rwCk0SBQvE-BidKOolw9s-kSlOBoA8CGil-OpJQsH4sbLGxg0zvTX9Q7J2aC2DHKFKPc2JiY9c1Pb3diTbA5xYRbNMWIs8tKWiS_ri47UteFIOHYRNdB7EELMHaVwT7e74xIvKoB94mftWx23cDvbyCNirPonG9B26c-YUFybDXC2OTV9jjZGaYLSLUwsFUiTIfuosR6E12nR5rlp5xnvXHuU-4aoyl9yERvhhyBRmKcSZI14cLMNg0DdLgNGEQgXf4NRsOV0UyeG7inuZnCsVlK02ghtmlNmEBfwP7l3bzlzOtHBRDXQ41rrFk5p3AHwHBp3ExWkyJzjm8YsEHwNL-G3WDnbuTk7HUsvRmREaT7xx68dtYKyOKXaOi8COD_9l8Xae-0nI45iHIgMFFEtPwvMlzsV7xbZyTqVJlnhY_zCJMDI1OOyS8KeDalmSwi0n6Okxmd_bAuiHcMORppJuV7_jahkit7yWkT7R-lzYLJHNzxnuEJtkUwokLaCfWgztH9hI_ajawNcRJpNUaHf5kvkBigh7Ttoxj7xp4vefXxLXsjr-vkUUvvjYZj1CYM4XMGo5IFIzMzz7XuSVttDvl9Ba7KibSxL0PKcty_aQWnuepVDlAtMsatbyRKpOTwiP9I9hhGS5zesDN46bRANgkWqc5SfZnK6hd4LiEfQPHkQXI9m7eJm_uoQUoQHmNbBV2G4OOqg7mseUtWtyi5zlhovkAyT-NvDFawydi3QZATHvJ2BDz-n2PPnOdQRLkGTljBHjcv8hESzLjMtyWVrqMPuR1emOx8agL6_hmksydDybAZofPhv6_gqZopMDeYlm1wes6_CW3j-LSIS5A9a_BpxCjN_LW35Mqlh0J1b1VrgloWylEdsPS6hxN_yGVT_3PPX_8TR-FsirZ5-PqDF7LxHrg2jwSDphIyNZEdOEI0AibOysnQ2PX3Y9Z- -NqgsIZUCLOHuf1Cdkbc19vID4WMoo3Djm6JWtQ3etJpA2kN_3gXvSBO-jPPhVNMV7L5eHSt5AfVK0xQLgzdoSeI2boSPmgM4dkrQ7f8pOikpyaBby2jL1fnwBagpg2gNr1ePgzQpAl1kVA8RPrjWXbL_Oc63AjAqwiyIWI91ftZGcV7t1gs_W8TIfIwjhsBUBCztIQxFbOIr3wmEg74FTe6dNUvu65jUhsMIMn2m2DlXvD7EwWcM8cwcMNUOcjysyf28VEybbbBjlsbxIOxo3CGMqO2mNGJOtGnzR2Qbdz4AYzUXQj0cTd25aLbx1a8bAQ9xtszElTw5tS3lpyXQC6tMKBfX5PQcMLwOFF3GHmWyDGQuHM5kPlXjJnx-T4RWAja7ppdt5w6mp1wiksWF-Xs7VBramCzj5-o_g1HdlWsJ5ZndzOHbs8RUjKERXw9vBkPlG28DIRxWuYXTeLdWLYBMHH7vfbrAWvf7YMf-OZqC6QZukDi0uV5VkDi_0S0]--></g></svg>