<?xml version="1.0" encoding="us-ascii" standalone="no"?><svg xmlns="http://www.w3.org/2000/svg" xmlns:xlink="http://www.w3.org/1999/xlink" contentStyleType="text/css" height="1510px" preserveAspectRatio="none" style="width:2322px;height:1510px;background:#FAFAFA;" version="1.1" viewBox="0 0 2322 1510" width="2322px" zoomAndPan="magnify"><defs/><g><rect fill="#FAFAFA" height="1510" style="stroke:none;stroke-width:1.0;" width="2322" x="0" y="0"/><text fill="#000000" font-family="Segoe UI" font-size="22" font-weight="bold" lengthAdjust="spacing" textLength="743" x="785" y="38.7402">DRE 3D Framework -- Architecture Compliance &amp; Enforcement Strategy</text><!--cluster AAC--><g id="cluster_AAC"><rect fill="#E3F2FD" height="206" rx="4" ry="4" style="stroke:#90A4AE;stroke-width:1.0;" width="615" x="622" y="62.2617"/><text fill="#000000" font-family="Segoe UI" font-size="10" font-weight="bold" lengthAdjust="spacing" textLength="96" x="881.5" y="75.0527">Architecture as Code</text><text fill="#000000" font-family="Segoe UI" font-size="10" font-weight="bold" lengthAdjust="spacing" textLength="114" x="872.5" y="88.3535">(Single Source of Truth)</text></g><!--cluster L1--><g id="cluster_L1"><rect fill="#C8E6C9" height="376.5" rx="4" ry="4" style="stroke:#90A4AE;stroke-width:1.0;" width="414" x="493" y="341.2617"/><text fill="#000000" font-family="Segoe UI" font-size="10" font-weight="bold" lengthAdjust="spacing" textLength="242" x="579" y="354.0527">Layer 1 -- Developer (pre-commit, instant feedback)</text></g><!--cluster L2--><g id="cluster_L2"><rect fill="#FFF9C4" height="393" rx="4" ry="4" style="stroke:#90A4AE;stroke-width:1.0;" width="441" x="12" y="564.2617"/><text fill="#000000" font-family="Segoe UI" font-size="10" font-weight="bold" lengthAdjust="spacing" textLength="157" x="154" y="577.0527">Layer 2 -- CI/CD (per pull request)</text></g><!--cluster L3--><g id="cluster_L3"><rect fill="#FFE0B2" height="167" rx="4" ry="4" style="stroke:#90A4AE;stroke-width:1.0;" width="420" x="493" y="797.2617"/><text fill="#000000" font-family="Segoe UI" font-size="10" font-weight="bold" lengthAdjust="spacing" textLength="163" x="621.5" y="810.0527">Layer 3 -- Continuous (SonarQube)</text></g><!--cluster L4--><g id="cluster_L4"><rect fill="#FCE4EC" height="180" rx="4" ry="4" style="stroke:#90A4AE;stroke-width:1.0;" width="594" x="486" y="1037.2617"/><text fill="#000000" font-family="Segoe UI" font-size="10" font-weight="bold" lengthAdjust="spacing" textLength="183" x="691.5" y="1050.0527">Layer 4 -- Governance (periodic review)</text></g><!--cluster DT--><g id="cluster_DT"><rect fill="#FAFAFA" height="330.86" rx="4" ry="4" style="stroke:#90A4AE;stroke-width:1.0;" width="982" x="1334" y="393.4017"/><text fill="#000000" font-family="Segoe UI" font-size="10" font-weight="bold" lengthAdjust="spacing" textLength="62" x="1794" y="406.1927">Decision Tree</text></g><!--entity PUML--><g id="elem_PUML"><rect fill="#BBDEFB" height="73.2031" rx="4" ry="4" style="stroke:#90A4AE;stroke-width:1.0;" width="121" x="665.5" y="157.7617"/><text fill="#000000" font-family="Segoe UI" font-size="10" lengthAdjust="spacing" textLength="71" x="675.5" y="178.5527">PUML Diagrams</text><text fill="#000000" font-family="Segoe UI" font-size="10" lengthAdjust="spacing" textLength="59" x="675.5" y="191.8535">(22 diagrams)</text><text fill="#000000" font-family="Segoe UI" font-size="10" lengthAdjust="spacing" textLength="79" x="675.5" y="205.1543">Visual architecture</text><text fill="#000000" font-family="Segoe UI" font-size="10" lengthAdjust="spacing" textLength="101" x="675.5" y="218.4551">Source of human truth</text></g><!--entity SPEC--><g id="elem_SPEC"><rect fill="#BBDEFB" height="99.8047" rx="4" ry="4" style="stroke:#90A4AE;stroke-width:1.0;" width="124" x="861" y="144.2617"/><text fill="#000000" font-family="Segoe UI" font-size="10" lengthAdjust="spacing" textLength="98" x="871" y="165.0527">architecture_spec.yaml</text><text fill="#000000" font-family="Segoe UI" font-size="10" lengthAdjust="spacing" textLength="102" x="871" y="178.3535">Machine-readable spec</text><text fill="#000000" font-family="Segoe UI" font-size="10" lengthAdjust="spacing" textLength="101" x="871" y="191.6543">Table names, SQL rules</text><text fill="#000000" font-family="Segoe UI" font-size="10" lengthAdjust="spacing" textLength="104" x="871" y="204.9551">CRAG params, DRRI def</text><text fill="#000000" font-family="Segoe UI" font-size="10" lengthAdjust="spacing" textLength="69" x="871" y="218.2559">Agent hierarchy</text><text fill="#000000" font-family="Segoe UI" font-size="10" lengthAdjust="spacing" textLength="62" x="871" y="231.5566">Approval rules</text></g><!--entity ADR--><g id="elem_ADR"><rect fill="#BBDEFB" height="86.5039" rx="4" ry="4" style="stroke:#90A4AE;stroke-width:1.0;" width="134" x="1079" y="150.7617"/><text fill="#000000" font-family="Segoe UI" font-size="10" lengthAdjust="spacing" textLength="56" x="1089" y="171.5527">ADR Registry</text><text fill="#000000" font-family="Segoe UI" font-size="10" lengthAdjust="spacing" textLength="95" x="1089" y="184.8535">(Architecture Decision</text><text fill="#000000" font-family="Segoe UI" font-size="10" lengthAdjust="spacing" textLength="38" x="1089" y="198.1543">Records)</text><text fill="#000000" font-family="Segoe UI" font-size="10" lengthAdjust="spacing" textLength="114" x="1089" y="211.4551">Why decisions were made</text><text fill="#000000" font-family="Segoe UI" font-size="10" lengthAdjust="spacing" textLength="65" x="1089" y="224.7559">When to revisit</text></g><!--entity PC1--><g id="elem_PC1"><rect fill="#A5D6A7" height="73.2031" rx="4" ry="4" style="stroke:#90A4AE;stroke-width:1.0;" width="162" x="536" y="397.2617"/><text fill="#000000" font-family="Segoe UI" font-size="10" lengthAdjust="spacing" textLength="132" x="546" y="418.0527">architecture-compliance hook</text><text fill="#000000" font-family="Segoe UI" font-size="10" lengthAdjust="spacing" textLength="102" x="546" y="431.3535">Scans changed .py files</text><text fill="#000000" font-family="Segoe UI" font-size="10" lengthAdjust="spacing" textLength="132" x="546" y="444.6543">against architecture_spec.yaml</text><text fill="#000000" font-family="Segoe UI" font-size="10" lengthAdjust="spacing" textLength="142" x="546" y="457.9551">Fails commit on ERROR findings</text></g><!--entity PC2--><g id="elem_PC2"><rect fill="#A5D6A7" height="73.2031" rx="4" ry="4" style="stroke:#90A4AE;stroke-width:1.0;" width="149" x="733.5" y="397.2617"/><text fill="#000000" font-family="Segoe UI" font-size="10" lengthAdjust="spacing" textLength="99" x="743.5" y="418.0527">spec-sync guard hook</text><text fill="#000000" font-family="Segoe UI" font-size="10" lengthAdjust="spacing" textLength="129" x="743.5" y="431.3535">Blocks architecture_spec.yaml</text><text fill="#000000" font-family="Segoe UI" font-size="10" lengthAdjust="spacing" textLength="123" x="743.5" y="444.6543">change without companion</text><text fill="#000000" font-family="Segoe UI" font-size="10" lengthAdjust="spacing" textLength="100" x="743.5" y="457.9551">PUML diagram update</text></g><!--entity PC3--><g id="elem_PC3"><rect fill="#A5D6A7" height="59.9023" rx="4" ry="4" style="stroke:#90A4AE;stroke-width:1.0;" width="142" x="546" y="633.7617"/><text fill="#000000" font-family="Segoe UI" font-size="10" lengthAdjust="spacing" textLength="122" x="556" y="654.5527">flake8 + black + pyupgrade</text><text fill="#000000" font-family="Segoe UI" font-size="10" lengthAdjust="spacing" textLength="88" x="556" y="667.8535">Code style &amp; quality</text><text fill="#000000" font-family="Segoe UI" font-size="10" lengthAdjust="spacing" textLength="69" x="556" y="681.1543">(existing hooks)</text></g><!--entity CI1--><g id="elem_CI1"><rect fill="#FFF176" height="86.5039" rx="4" ry="4" style="stroke:#90A4AE;stroke-width:1.0;" width="187" x="36.5" y="620.2617"/><text fill="#000000" font-family="Segoe UI" font-size="10" lengthAdjust="spacing" textLength="167" x="46.5" y="641.0527">pytest test_architecture_compliance.py</text><text fill="#000000" font-family="Segoe UI" font-size="10" lengthAdjust="spacing" textLength="92" x="46.5" y="654.3535">Spec integrity checks</text><text fill="#000000" font-family="Segoe UI" font-size="10" lengthAdjust="spacing" textLength="122" x="46.5" y="667.6543">Exception registry validation</text><text fill="#000000" font-family="Segoe UI" font-size="10" lengthAdjust="spacing" textLength="70" x="46.5" y="680.9551">Full source scan</text><text fill="#000000" font-family="Segoe UI" font-size="10" lengthAdjust="spacing" textLength="77" x="46.5" y="694.2559">JUnit XML artifact</text></g><!--entity CI2--><g id="elem_CI2"><rect fill="#FFF176" height="73.2031" rx="4" ry="4" style="stroke:#90A4AE;stroke-width:1.0;" width="151" x="258.5" y="627.2617"/><text fill="#000000" font-family="Segoe UI" font-size="10" lengthAdjust="spacing" textLength="101" x="268.5" y="648.0527">make arch-compliance</text><text fill="#000000" font-family="Segoe UI" font-size="10" lengthAdjust="spacing" textLength="131" x="268.5" y="661.3535">Standalone compliance target</text><text fill="#000000" font-family="Segoe UI" font-size="10" lengthAdjust="spacing" textLength="119" x="268.5" y="674.6543">Runs before main test suite</text><text fill="#000000" font-family="Segoe UI" font-size="10" lengthAdjust="spacing" textLength="103" x="268.5" y="687.9551">Blocks merge on failure</text></g><!--entity CI3--><g id="elem_CI3"><rect fill="#FFF176" height="73.2031" rx="4" ry="4" style="stroke:#90A4AE;stroke-width:1.0;" width="124" x="68" y="860.2617"/><text fill="#000000" font-family="Segoe UI" font-size="10" lengthAdjust="spacing" textLength="42" x="78" y="881.0527">make test</text><text fill="#000000" font-family="Segoe UI" font-size="10" lengthAdjust="spacing" textLength="90" x="78" y="894.3535">Application test suite</text><text fill="#000000" font-family="Segoe UI" font-size="10" lengthAdjust="spacing" textLength="39" x="78" y="907.6543">(existing)</text><text fill="#000000" font-family="Segoe UI" font-size="10" lengthAdjust="spacing" textLength="104" x="78" y="920.9551">Coverage + SonarQube</text></g><!--entity SQ1--><g id="elem_SQ1"><rect fill="#FFCC80" height="86.5039" rx="4" ry="4" style="stroke:#90A4AE;stroke-width:1.0;" width="123" x="765.5" y="853.2617"/><text fill="#000000" font-family="Segoe UI" font-size="10" lengthAdjust="spacing" textLength="103" x="775.5" y="874.0527">sonar-project.properties</text><text fill="#000000" font-family="Segoe UI" font-size="10" lengthAdjust="spacing" textLength="77" x="775.5" y="887.3535">Code quality gate</text><text fill="#000000" font-family="Segoe UI" font-size="10" lengthAdjust="spacing" textLength="75" x="775.5" y="900.6543">Security hotspots</text><text fill="#000000" font-family="Segoe UI" font-size="10" lengthAdjust="spacing" textLength="85" x="775.5" y="913.9551">Duplicate detection</text><text fill="#000000" font-family="Segoe UI" font-size="10" lengthAdjust="spacing" textLength="85" x="775.5" y="927.2559">Coverage threshold</text></g><!--entity SQ2--><g id="elem_SQ2"><rect fill="#FFCC80" height="78.5234" rx="4" ry="4" style="stroke:#90A4AE;stroke-width:1.0;" width="194" x="536" y="857.2617"/><text fill="#000000" font-family="Segoe UI" font-size="10" lengthAdjust="spacing" textLength="88" x="546" y="878.0527">Custom quality gate</text><text fill="#000000" font-family="Segoe UI" font-size="10" lengthAdjust="spacing" textLength="100" x="546" y="891.3535">Arch compliance score</text><text fill="#000000" font-family="Segoe UI" font-size="14" font-weight="bold" lengthAdjust="spacing" textLength="174" x="546" y="908.9707">exceptions / total findings</text><text fill="#000000" font-family="Segoe UI" font-size="10" lengthAdjust="spacing" textLength="112" x="546" y="923.2754">Target: &lt; 5% unregistered</text></g><!--entity GOV1--><g id="elem_GOV1"><rect fill="#F8BBD0" height="73.2031" rx="4" ry="4" style="stroke:#90A4AE;stroke-width:1.0;" width="139" x="707.5" y="1106.7617"/><text fill="#000000" font-family="Segoe UI" font-size="10" lengthAdjust="spacing" textLength="119" x="717.5" y="1127.5527">Monthly Tech-Debt Review</text><text fill="#000000" font-family="Segoe UI" font-size="10" lengthAdjust="spacing" textLength="82" x="717.5" y="1140.8535">Expired exceptions</text><text fill="#000000" font-family="Segoe UI" font-size="10" lengthAdjust="spacing" textLength="103" x="717.5" y="1154.1543">TECHNICAL_DEBT items</text><text fill="#000000" font-family="Segoe UI" font-size="10" lengthAdjust="spacing" textLength="98" x="717.5" y="1167.4551">Exception count trend</text></g><!--entity GOV2--><g id="elem_GOV2"><rect fill="#F8BBD0" height="73.2031" rx="4" ry="4" style="stroke:#90A4AE;stroke-width:1.0;" width="143" x="529.5" y="1106.7617"/><text fill="#000000" font-family="Segoe UI" font-size="10" lengthAdjust="spacing" textLength="96" x="539.5" y="1127.5527">Quarterly Arch Review</text><text fill="#000000" font-family="Segoe UI" font-size="10" lengthAdjust="spacing" textLength="86" x="539.5" y="1140.8535">Spec vs reality audit</text><text fill="#000000" font-family="Segoe UI" font-size="10" lengthAdjust="spacing" textLength="123" x="539.5" y="1154.1543">New PUML updates needed</text><text fill="#000000" font-family="Segoe UI" font-size="10" lengthAdjust="spacing" textLength="87" x="539.5" y="1167.4551">ADR backlog review</text></g><!--entity EXC--><g id="elem_EXC"><rect fill="#F8BBD0" height="99.8047" rx="4" ry="4" style="stroke:#90A4AE;stroke-width:1.0;" width="174" x="882" y="1093.2617"/><text fill="#000000" font-family="Segoe UI" font-size="10" lengthAdjust="spacing" textLength="80" x="892" y="1114.0527">Exception Registry</text><text fill="#000000" font-family="Segoe UI" font-size="10" lengthAdjust="spacing" textLength="154" x="892" y="1127.3535">(arch_compliance/exceptions.yaml)</text><text fill="#000000" font-family="Segoe UI" font-size="10" lengthAdjust="spacing" textLength="151" x="892" y="1140.6543">4 types: INTENTIONAL_DEVIATION</text><text fill="#000000" font-family="Segoe UI" font-size="10" lengthAdjust="spacing" textLength="77" x="892" y="1153.9551">TECHNICAL_DEBT</text><text fill="#000000" font-family="Segoe UI" font-size="10" lengthAdjust="spacing" textLength="105" x="892" y="1167.2559">ARCH_UPDATE_NEEDED</text><text fill="#000000" font-family="Segoe UI" font-size="10" lengthAdjust="spacing" textLength="47" x="892" y="1180.5566">WONT_FIX</text></g><!--entity DT1--><g id="elem_DT1"><rect fill="#FFCDD2" height="59.9023" rx="4" ry="4" style="stroke:#90A4AE;stroke-width:1.0;" width="152" x="1358" y="633.7617"/><text fill="#000000" font-family="Segoe UI" font-size="10" lengthAdjust="spacing" textLength="101" x="1368" y="654.5527">Is it a bug in the code?</text><text fill="#000000" font-family="Segoe UI" font-size="10" lengthAdjust="spacing" textLength="73" x="1368" y="667.8535">-&gt; Fix code now</text><text fill="#000000" font-family="Segoe UI" font-size="10" lengthAdjust="spacing" textLength="123" x="1377" y="681.1543">Remove from exception reg</text></g><!--entity DT2--><g id="elem_DT2"><rect fill="#FFE0B2" height="73.2031" rx="4" ry="4" style="stroke:#90A4AE;stroke-width:1.0;" width="160" x="1545" y="627.2617"/><text fill="#000000" font-family="Segoe UI" font-size="10" lengthAdjust="spacing" textLength="113" x="1555" y="648.0527">Is the architecture wrong?</text><text fill="#000000" font-family="Segoe UI" font-size="10" lengthAdjust="spacing" textLength="109" x="1555" y="661.3535">-&gt; Update PUML + spec</text><text fill="#000000" font-family="Segoe UI" font-size="10" lengthAdjust="spacing" textLength="44" x="1564" y="674.6543">Raise ADR</text><text fill="#000000" font-family="Segoe UI" font-size="10" lengthAdjust="spacing" textLength="131" x="1564" y="687.9551">Type: ARCH_UPDATE_NEEDED</text></g><!--entity DT3--><g id="elem_DT3"><rect fill="#FFF9C4" height="73.2031" rx="4" ry="4" style="stroke:#90A4AE;stroke-width:1.0;" width="169" x="1740.5" y="627.2617"/><text fill="#000000" font-family="Segoe UI" font-size="10" lengthAdjust="spacing" textLength="100" x="1750.5" y="648.0527">Is it a justified tradeoff?</text><text fill="#000000" font-family="Segoe UI" font-size="10" lengthAdjust="spacing" textLength="149" x="1750.5" y="661.3535">-&gt; Log INTENTIONAL_DEVIATION</text><text fill="#000000" font-family="Segoe UI" font-size="10" lengthAdjust="spacing" textLength="100" x="1759.5" y="674.6543">Get Tech Lead sign-off</text><text fill="#000000" font-family="Segoe UI" font-size="10" lengthAdjust="spacing" textLength="78" x="1759.5" y="687.9551">No expiry needed</text></g><!--entity DT4--><g id="elem_DT4"><rect fill="#E8F5E9" height="73.2031" rx="4" ry="4" style="stroke:#90A4AE;stroke-width:1.0;" width="143" x="1944.5" y="627.2617"/><text fill="#000000" font-family="Segoe UI" font-size="10" lengthAdjust="spacing" textLength="64" x="1954.5" y="648.0527">Is it tech debt?</text><text fill="#000000" font-family="Segoe UI" font-size="10" lengthAdjust="spacing" textLength="111" x="1954.5" y="661.3535">-&gt; Log TECHNICAL_DEBT</text><text fill="#000000" font-family="Segoe UI" font-size="10" lengthAdjust="spacing" textLength="114" x="1963.5" y="674.6543">Add ticket_ref + expires_at</text><text fill="#000000" font-family="Segoe UI" font-size="10" lengthAdjust="spacing" textLength="108" x="1963.5" y="687.9551">Review in monthly sprint</text></g><!--entity DT5--><g id="elem_DT5"><rect fill="#E3F2FD" height="73.2031" rx="4" ry="4" style="stroke:#90A4AE;stroke-width:1.0;" width="169" x="2122.5" y="627.2617"/><text fill="#000000" font-family="Segoe UI" font-size="10" lengthAdjust="spacing" textLength="121" x="2132.5" y="648.0527">Is it a governance decision?</text><text fill="#000000" font-family="Segoe UI" font-size="10" lengthAdjust="spacing" textLength="81" x="2132.5" y="661.3535">-&gt; Log WONT_FIX</text><text fill="#000000" font-family="Segoe UI" font-size="10" lengthAdjust="spacing" textLength="140" x="2141.5" y="674.6543">Get Architecture Board approval</text><text fill="#000000" font-family="Segoe UI" font-size="10" lengthAdjust="spacing" textLength="69" x="2141.5" y="687.9551">Renew annually</text></g><!--entity DEV--><g id="elem_DEV"><rect fill="#EF9A9A" height="33.3008" rx="4" ry="4" style="stroke:#90A4AE;stroke-width:1.0;" width="93" x="1778.5" y="177.7617"/><text fill="#000000" font-family="Segoe UI" font-size="10" lengthAdjust="spacing" textLength="73" x="1788.5" y="198.5527">Deviation Found</text></g><g id="elem_GMN43"><path d="M1019.5,382.2617 L1019.5,485.3672 L1214.5,485.3672 L1214.5,392.2617 L1204.5,382.2617 L1019.5,382.2617 " fill="#FFFDE7" style="stroke:#F9A825;stroke-width:1.0;"/><path d="M1204.5,382.2617 L1204.5,392.2617 L1214.5,392.2617 L1204.5,382.2617 " fill="#FFFDE7" style="stroke:#F9A825;stroke-width:1.0;"/><text fill="#000000" font-family="Segoe UI" font-size="10" lengthAdjust="spacing" textLength="139" x="1025.5" y="398.0527">Pre-commit catches (fast, local):</text><text fill="#000000" font-family="Segoe UI" font-size="10" lengthAdjust="spacing" textLength="174" x="1025.5" y="411.3535">- Forbidden SQL keywords in new code</text><text fill="#000000" font-family="Segoe UI" font-size="10" lengthAdjust="spacing" textLength="133" x="1025.5" y="424.6543">- Unregistered table references</text><text fill="#000000" font-family="Segoe UI" font-size="10" lengthAdjust="spacing" textLength="139" x="1025.5" y="437.9551">- Wrong CRAG threshold values</text><text fill="#000000" font-family="Segoe UI" font-size="10" lengthAdjust="spacing" textLength="131" x="1025.5" y="451.2559">- check_type not in catalogue</text><text fill="#000000" font-family="Segoe UI" font-size="10" lengthAdjust="spacing" textLength="157" x="1025.5" y="464.5566">- DRRI target changed without ADR</text><text fill="#000000" font-family="Segoe UI" font-size="10" lengthAdjust="spacing" textLength="170" x="1025.5" y="477.8574">- Spec changed without PUML update</text></g><g id="elem_GMN46"><path d="M1112.5,612.2617 L1112.5,715.3672 L1309.5,715.3672 L1309.5,622.2617 L1299.5,612.2617 L1112.5,612.2617 " fill="#FFFDE7" style="stroke:#F9A825;stroke-width:1.0;"/><path d="M1299.5,612.2617 L1299.5,622.2617 L1309.5,622.2617 L1299.5,612.2617 " fill="#FFFDE7" style="stroke:#F9A825;stroke-width:1.0;"/><text fill="#000000" font-family="Segoe UI" font-size="10" lengthAdjust="spacing" textLength="102" x="1118.5" y="628.0527">CI/CD catches (per PR):</text><text fill="#000000" font-family="Segoe UI" font-size="10" lengthAdjust="spacing" textLength="165" x="1118.5" y="641.3535">- All pre-commit checks (belt+braces)</text><text fill="#000000" font-family="Segoe UI" font-size="10" lengthAdjust="spacing" textLength="161" x="1118.5" y="654.6543">- Expired exceptions blocking merge</text><text fill="#000000" font-family="Segoe UI" font-size="10" lengthAdjust="spacing" textLength="176" x="1118.5" y="667.9551">- Missing ticket_ref on TECHNICAL_DEBT</text><text fill="#000000" font-family="Segoe UI" font-size="10" lengthAdjust="spacing" textLength="158" x="1118.5" y="681.2559">- Source diagrams deleted/renamed</text><text fill="#000000" font-family="Segoe UI" font-size="10" lengthAdjust="spacing" textLength="110" x="1118.5" y="694.5566">- Spec integrity violations</text><text fill="#000000" font-family="Segoe UI" font-size="10" lengthAdjust="spacing" textLength="155" x="1118.5" y="707.8574">- Full source tree scan (not just diff)</text></g><g id="elem_GMN49"><path d="M1019.5,851.7617 L1019.5,941.5664 L1224.5,941.5664 L1224.5,861.7617 L1214.5,851.7617 L1019.5,851.7617 " fill="#FFFDE7" style="stroke:#F9A825;stroke-width:1.0;"/><path d="M1214.5,851.7617 L1214.5,861.7617 L1224.5,861.7617 L1214.5,851.7617 " fill="#FFFDE7" style="stroke:#F9A825;stroke-width:1.0;"/><text fill="#000000" font-family="Segoe UI" font-size="10" lengthAdjust="spacing" textLength="147" x="1025.5" y="867.5527">SonarQube catches (continuous):</text><text fill="#000000" font-family="Segoe UI" font-size="10" lengthAdjust="spacing" textLength="158" x="1025.5" y="880.8535">- Security hotspots in any new code</text><text fill="#000000" font-family="Segoe UI" font-size="10" lengthAdjust="spacing" textLength="167" x="1025.5" y="894.1543">- Code duplication across agent layers</text><text fill="#000000" font-family="Segoe UI" font-size="10" lengthAdjust="spacing" textLength="168" x="1025.5" y="907.4551">- Test coverage drops below threshold</text><text fill="#000000" font-family="Segoe UI" font-size="10" lengthAdjust="spacing" textLength="184" x="1025.5" y="920.7559">- Complexity exceeding component limits</text><text fill="#000000" font-family="Segoe UI" font-size="10" lengthAdjust="spacing" textLength="166" x="1025.5" y="934.0566">- Long-term trend in exception count</text></g><g id="elem_GMN52"><path d="M1104,1098.2617 L1104,1188.0664 L1310,1188.0664 L1310,1108.2617 L1300,1098.2617 L1104,1098.2617 " fill="#FFFDE7" style="stroke:#F9A825;stroke-width:1.0;"/><path d="M1300,1098.2617 L1300,1108.2617 L1310,1108.2617 L1300,1098.2617 " fill="#FFFDE7" style="stroke:#F9A825;stroke-width:1.0;"/><text fill="#000000" font-family="Segoe UI" font-size="10" lengthAdjust="spacing" textLength="135" x="1110" y="1114.0527">Governance catches (periodic):</text><text fill="#000000" font-family="Segoe UI" font-size="10" lengthAdjust="spacing" textLength="176" x="1110" y="1127.3535">- Tech debt exceptions not fixed in time</text><text fill="#000000" font-family="Segoe UI" font-size="10" lengthAdjust="spacing" textLength="160" x="1110" y="1140.6543">- Architecture drifting from diagrams</text><text fill="#000000" font-family="Segoe UI" font-size="10" lengthAdjust="spacing" textLength="185" x="1110" y="1153.9551">- New capability not backed by spec entry</text><text fill="#000000" font-family="Segoe UI" font-size="10" lengthAdjust="spacing" textLength="183" x="1110" y="1167.2559">- Agent hierarchy violations in production</text><text fill="#000000" font-family="Segoe UI" font-size="10" lengthAdjust="spacing" textLength="123" x="1110" y="1180.5566">- DRRI metric definition drift</text></g><!--link PUML to SPEC--><g id="link_PUML_SPEC"><path d="M792.71,194.2617 C816.23,194.2617 831.13,194.2617 854.79,194.2617 " fill="none" id="PUML-SPEC" style="stroke:#546E7A;stroke-width:1.0;"/><polygon fill="#546E7A" points="786.71,194.2617,795.71,198.2617,791.71,194.2617,795.71,190.2617,786.71,194.2617" style="stroke:#546E7A;stroke-width:1.0;"/><polygon fill="#546E7A" points="860.79,194.2617,851.79,190.2617,855.79,194.2617,851.79,198.2617,860.79,194.2617" style="stroke:#546E7A;stroke-width:1.0;"/><text fill="#000000" font-family="Segoe UI" font-size="9" lengthAdjust="spacing" textLength="38" x="804.75" y="176.9736">must stay</text><text fill="#000000" font-family="Segoe UI" font-size="9" lengthAdjust="spacing" textLength="26" x="810.75" y="188.9443">in sync</text></g><!--link SPEC to ADR--><g id="link_SPEC_ADR"><path d="M991.12,194.2617 C1020.24,194.2617 1043,194.2617 1072.75,194.2617 " fill="none" id="SPEC-ADR" style="stroke:#546E7A;stroke-width:1.0;"/><polygon fill="#546E7A" points="985.12,194.2617,994.12,198.2617,990.12,194.2617,994.12,190.2617,985.12,194.2617" style="stroke:#546E7A;stroke-width:1.0;"/><polygon fill="#546E7A" points="1078.75,194.2617,1069.75,190.2617,1073.75,194.2617,1069.75,198.2617,1078.75,194.2617" style="stroke:#546E7A;stroke-width:1.0;"/><text fill="#000000" font-family="Segoe UI" font-size="9" lengthAdjust="spacing" textLength="55" x="1004.5" y="176.9736">changes need</text><text fill="#000000" font-family="Segoe UI" font-size="9" lengthAdjust="spacing" textLength="57" x="1003.5" y="188.9443">ADR reference</text></g><!--link DEV to DT--><g id="link_DEV_DT"><path d="M1825,210.8417 C1825,236.8467 1825,291.0117 1825,339.318 C1825,351.3945 1825,363.1049 1825,373.9176 C1825,379.3239 1825,384.5058 1825,389.3969 C1825,390.6196 1825,385.8242 1825,387.0096 " fill="none" id="DEV-to-DT" style="stroke:#546E7A;stroke-width:1.0;"/><polygon fill="#546E7A" points="1825,393.0096,1829,384.0096,1825,388.0096,1821,384.0096,1825,393.0096" style="stroke:#546E7A;stroke-width:1.0;"/></g><!--link DT to DT1--><g id="link_DT_DT1"><path d="M1824.87,434.7817 C1819.32,435.7417 1640.87,466.9617 1528,548.2617 C1495.86,571.4117 1471.6619,603.1254 1454.8619,628.7254 " fill="none" id="DT-to-DT1" style="stroke:#546E7A;stroke-width:1.0;"/><polygon fill="#546E7A" points="1451.57,633.7417,1459.8521,628.4119,1454.3133,629.5615,1453.1637,624.0227,1451.57,633.7417" style="stroke:#546E7A;stroke-width:1.0;"/></g><!--link DT to DT2--><g id="link_DT_DT2"><path d="M1824.96,434.8117 C1823.21,436.7117 1767.02,498.0717 1723,548.2617 C1699.97,574.5217 1678.1943,599.9587 1658.9043,622.6687 " fill="none" id="DT-to-DT2" style="stroke:#546E7A;stroke-width:1.0;"/><polygon fill="#546E7A" points="1655.02,627.2417,1663.8951,622.9718,1658.2569,623.4309,1657.7978,617.7927,1655.02,627.2417" style="stroke:#546E7A;stroke-width:1.0;"/></g><!--link DT to DT3--><g id="link_DT_DT3"><path d="M1825,434.9317 C1825,440.0817 1825,558.3717 1825,621.1517 " fill="none" id="DT-to-DT3" style="stroke:#546E7A;stroke-width:1.0;"/><polygon fill="#546E7A" points="1825,627.1517,1829,618.1517,1825,622.1517,1821,618.1517,1825,627.1517" style="stroke:#546E7A;stroke-width:1.0;"/></g><!--link DT to DT4--><g id="link_DT_DT4"><path d="M1825.04,434.8017 C1826.82,436.6817 1884.17,497.0417 1927,548.2617 C1948.64,574.1417 1968.3823,599.5226 1985.7423,622.3926 " fill="none" id="DT-to-DT4" style="stroke:#546E7A;stroke-width:1.0;"/><polygon fill="#546E7A" points="1989.37,627.1717,1987.1145,617.5846,1986.3469,623.1891,1980.7424,622.4215,1989.37,627.1717" style="stroke:#546E7A;stroke-width:1.0;"/></g><!--link DT to DT5--><g id="link_DT_DT5"><path d="M1825.12,434.7917 C1830.31,435.9017 1996.97,472.0917 2105,548.2617 C2135.57,569.8117 2159.6869,597.4191 2178.4969,622.2491 " fill="none" id="DT-to-DT5" style="stroke:#546E7A;stroke-width:1.0;"/><polygon fill="#546E7A" points="2182.12,627.0317,2179.8738,617.4424,2179.1008,623.0462,2173.497,622.2732,2182.12,627.0317" style="stroke:#546E7A;stroke-width:1.0;"/></g><!--link AAC to L1--><g id="link_AAC_L1"><path d="M621.9292,201.9566 C621.83,202.0414 621.73,202.1269 621.6292,202.2132 C620.0161,203.5935 618.202,205.1654 616.2156,206.9159 C608.27,213.9183 597.5675,223.7811 585.95,235.693 C562.715,259.5167 535.82,291.5367 520,325.2617 C518.7325,327.9642 517.5491,330.7411 516.4441,333.573 C515.8917,334.9889 515.3588,336.4186 514.845,337.8596 C514.588,338.5801 514.3358,339.3034 514.0882,340.0293 C513.9644,340.3922 515.7404,335.0641 515.6189,335.4282 " fill="none" id="AAC-to-L1" style="stroke:#546E7A;stroke-width:1.0;"/><polygon fill="#546E7A" points="513.7203,341.1199,520.3627,333.8481,515.3025,336.3769,512.7737,331.3167,513.7203,341.1199" style="stroke:#546E7A;stroke-width:1.0;"/><text fill="#000000" font-family="Segoe UI" font-size="9" lengthAdjust="spacing" textLength="43" x="551.5" y="302.9736">spec drives</text><text fill="#000000" font-family="Segoe UI" font-size="9" lengthAdjust="spacing" textLength="68" x="539" y="314.9443">pre-commit rules</text></g><!--link L1 to L2--><g id="link_L1_L2"><path d="M492.9961,445.4486 C492.8797,445.6113 492.7624,445.7755 492.6442,445.9413 C492.4078,446.2729 492.1678,446.6107 491.9243,446.9548 C490.9504,448.3308 489.9217,449.8051 488.8502,451.3681 C486.7072,454.494 484.3931,457.9745 482.005,461.733 C472.4525,476.7667 461.715,496.2467 456,515.2617 C451.3425,530.7542 449.0049,541.5945 447.0815,558.1202 " fill="none" id="L1-to-L2" style="stroke:#546E7A;stroke-width:1.0;"/><polygon fill="#546E7A" points="446.3878,564.08,451.4015,555.6028,446.9659,559.1135,443.4551,554.6779,446.3878,564.08" style="stroke:#546E7A;stroke-width:1.0;"/><text fill="#000000" font-family="Segoe UI" font-size="9" lengthAdjust="spacing" textLength="62" x="457" y="525.9736">commit triggers</text><text fill="#000000" font-family="Segoe UI" font-size="9" lengthAdjust="spacing" textLength="41" x="467.5" y="537.9443">CI pipeline</text></g><!--link L2 to L3--><g id="link_L2_L3"><path d="M453.0643,698.0264 C453.1414,698.3444 453.2189,698.6642 453.2968,698.9856 C453.6085,700.2713 453.9269,701.5843 454.2514,702.923 C459.4441,724.3411 466.2281,752.3242 473.0113,780.3042 C479.7944,808.2842 486.5766,836.2611 491.7655,857.6667 C492.0898,859.0046 492.4079,860.3168 492.7193,861.6017 C492.7972,861.9229 491.4612,856.4113 491.5382,856.7291 " fill="none" id="L2-to-L3" style="stroke:#546E7A;stroke-width:1.0;"/><polygon fill="#546E7A" points="492.9517,862.5602,494.7189,852.8712,491.7738,857.7009,486.944,854.7559,492.9517,862.5602" style="stroke:#546E7A;stroke-width:1.0;"/><text fill="#000000" font-family="Segoe UI" font-size="9" lengthAdjust="spacing" textLength="70" x="470" y="758.9736">PR merge triggers</text><text fill="#000000" font-family="Segoe UI" font-size="9" lengthAdjust="spacing" textLength="65" x="472.5" y="770.9443">SonarQube scan</text></g><!--link L3 to L4--><g id="link_L3_L4"><path d="M499.064,965.3885 C498.9665,968.7936 498.867,972.2699 498.7658,975.8031 C498.3613,989.9359 497.9306,1004.9795 497.5,1020.023 C497.3923,1023.7838 497.2847,1027.5447 497.1774,1031.2913 C497.1238,1033.1646 497.242,1029.0368 497.1886,1030.9011 " fill="none" id="L3-to-L4" style="stroke:#546E7A;stroke-width:1.0;"/><polygon fill="#546E7A" points="497.0169,1036.8987,501.2728,1028.0168,497.16,1031.9007,493.2761,1027.7879,497.0169,1036.8987" style="stroke:#546E7A;stroke-width:1.0;"/><text fill="#000000" font-family="Segoe UI" font-size="9" lengthAdjust="spacing" textLength="77" x="499" y="998.9736">ongoing monitoring</text><text fill="#000000" font-family="Segoe UI" font-size="9" lengthAdjust="spacing" textLength="67" x="504" y="1010.9443">+ periodic review</text></g><!--link L4 to EXC--><g id="link_L4_EXC"><path d="M500.2063,1037.1087 C500.4041,1036.7619 500.6048,1036.4169 500.8085,1036.0738 C504.067,1030.5842 508.0825,1025.5705 513,1021.2617 C556.46,983.1817 715.23,1015.9917 773,1017.2617 C813.47,1018.1517 827.58,1003.5817 864,1021.2617 C895.8,1036.7017 918.4044,1061.7319 936.5844,1088.1019 " fill="none" id="L4-to-EXC" style="stroke:#546E7A;stroke-width:1.0;"/><polygon fill="#546E7A" points="939.99,1093.0417,938.1748,1083.3616,937.152,1088.9252,931.5884,1087.9024,939.99,1093.0417" style="stroke:#546E7A;stroke-width:1.0;"/><text fill="#000000" font-family="Segoe UI" font-size="9" lengthAdjust="spacing" textLength="82" x="690" y="998.9736">exceptions managed</text><text fill="#000000" font-family="Segoe UI" font-size="9" lengthAdjust="spacing" textLength="47" x="707.5" y="1010.9443">and audited</text></g><!--reverse link SPEC to EXC--><g id="link_SPEC_EXC"><path d="M938.7229,250.1752 C951.2429,297.8852 966,366.7617 966,432.7617 C966,432.7617 966,432.7617 966,897.7617 C966,965.4717 967.16,1043.7217 968.04,1093.0917 " fill="none" id="SPEC-backto-EXC" style="stroke:#546E7A;stroke-width:1.0;stroke-dasharray:7.0,7.0;"/><polygon fill="#546E7A" points="937.2,244.3717,935.6154,254.0923,938.4691,249.208,943.3534,252.0617,937.2,244.3717" style="stroke:#546E7A;stroke-width:1.0;"/><text fill="#000000" font-family="Segoe UI" font-size="9" lengthAdjust="spacing" textLength="79" x="982" y="661.9736">approved deviations</text><text fill="#000000" font-family="Segoe UI" font-size="9" lengthAdjust="spacing" textLength="109" x="967" y="673.9443">feed back into spec updates</text></g><!--link L1 to GMN43--><g id="link_L1_GMN43"><path d="M506.7725,340.7914 C507.0804,339.9715 507.3986,339.1577 507.7274,338.3506 C508.3849,336.7363 509.0849,335.1487 509.8295,333.5925 C515.7869,321.143 524.6075,310.7067 537.5,304.7617 C581.59,284.4317 929.19,287.3017 974.5,304.7617 C1014.98,320.3617 1051.09,353.3817 1076.84,382.1117 " fill="none" id="L1-GMN43" style="stroke:#546E7A;stroke-width:1.0;stroke-dasharray:7.0,7.0;"/></g><!--link L2 to GMN46--><g id="link_L2_GMN46"><path d="M453.1693,636.2424 C453.2351,636.0509 453.3014,635.8588 453.3681,635.6659 C453.5015,635.2802 453.6366,634.8916 453.7734,634.5003 C454.047,633.7177 454.3274,632.9241 454.6147,632.1201 C455.7639,628.904 457.0232,625.5213 458.3965,622.0106 C461.143,614.9893 464.345,607.4558 468.0325,599.718 C482.7825,568.7667 505.3,534.5467 537.5,516.7617 C589.05,488.2917 1013.23,493.9017 1067.5,516.7617 C1113.35,536.0817 1151.84,577.9917 1177.38,612.1417 " fill="none" id="L2-GMN46" style="stroke:#546E7A;stroke-width:1.0;stroke-dasharray:7.0,7.0;"/></g><!--link L3 to GMN49--><g id="link_L3_GMN49"><path d="M506.3024,796.7716 C506.3846,796.5581 506.4676,796.345 506.5512,796.1323 C507.2205,794.4308 507.935,792.7575 508.6973,791.1175 C514.7963,777.9973 523.9575,767.0067 537.5,760.7617 C581.59,740.4317 929.27,743.0917 974.5,760.7617 C1021.06,778.9517 1061.77,819.4817 1088.55,851.5917 " fill="none" id="L3-GMN49" style="stroke:#546E7A;stroke-width:1.0;stroke-dasharray:7.0,7.0;"/></g><!--link L4 to GMN52--><g id="link_L4_GMN52"><path d="M498.7157,1037.1179 C498.8022,1036.896 498.8895,1036.6746 498.9775,1036.4537 C499.1535,1036.0119 499.3326,1035.572 499.5148,1035.1342 C499.8791,1034.2584 500.2558,1033.3908 500.6452,1032.5319 C506.875,1018.7892 516.3525,1007.2842 530.5,1000.7617 C583.37,976.3817 1000.34,979.3917 1054.5,1000.7617 C1103.88,1020.2417 1146.69,1064.0917 1174.27,1098.0417 " fill="none" id="L4-GMN52" style="stroke:#546E7A;stroke-width:1.0;stroke-dasharray:7.0,7.0;"/></g><rect fill="none" height="270.6953" id="_legend" rx="7.5" ry="7.5" style="stroke:#000000;stroke-width:1.0;" width="450" x="931.5" y="1227.2617"/><text fill="#000000" font-family="Segoe UI" font-size="14" font-weight="bold" lengthAdjust="spacing" textLength="280" x="936.5" y="1247.3691">Architecture Compliance -- Core Principle</text><text fill="#000000" font-family="Segoe UI" font-size="14" lengthAdjust="spacing" text-decoration="line-through" textLength="6" x="936.5" y="1265.9902">-</text><text fill="#000000" font-family="Segoe UI" font-size="14" lengthAdjust="spacing" text-decoration="line-through" textLength="6" x="942.5" y="1265.9902">-</text><text fill="#000000" font-family="Segoe UI" font-size="14" lengthAdjust="spacing" text-decoration="line-through" textLength="6" x="948.5" y="1265.9902">-</text><text fill="#000000" font-family="Segoe UI" font-size="14" lengthAdjust="spacing" text-decoration="line-through" textLength="6" x="954.5" y="1265.9902">-</text><text fill="#000000" font-family="Segoe UI" font-size="14" lengthAdjust="spacing" text-decoration="line-through" textLength="6" x="960.5" y="1265.9902">-</text><text fill="#000000" font-family="Segoe UI" font-size="14" lengthAdjust="spacing" text-decoration="line-through" textLength="6" x="966.5" y="1265.9902">-</text><text fill="#000000" font-family="Segoe UI" font-size="14" lengthAdjust="spacing" text-decoration="line-through" textLength="6" x="972.5" y="1265.9902">-</text><text fill="#000000" font-family="Segoe UI" font-size="14" lengthAdjust="spacing" text-decoration="line-through" textLength="6" x="978.5" y="1265.9902">-</text><text fill="#000000" font-family="Segoe UI" font-size="14" lengthAdjust="spacing" text-decoration="line-through" textLength="6" x="984.5" y="1265.9902">-</text><text fill="#000000" font-family="Segoe UI" font-size="14" lengthAdjust="spacing" textLength="12" x="990.5" y="1265.9902">--</text><text fill="#000000" font-family="Segoe UI" font-size="14" lengthAdjust="spacing" textLength="249" x="936.5" y="1284.6113">Architecture as Code: the spec is the law.</text><text fill="#000000" font-family="Segoe UI" font-size="14" lengthAdjust="spacing" textLength="358" x="936.5" y="1303.2324">Diagrams are the explanation. Code is the implementation.</text><text fill="#000000" font-family="Segoe UI" font-size="14" lengthAdjust="spacing" textLength="164" x="936.5" y="1321.8535">All three must stay in sync.</text><text fill="#000000" font-family="Segoe UI" font-size="14" lengthAdjust="spacing" textLength="4" x="936.5" y="1340.4746">&#160;</text><text fill="#000000" font-family="Segoe UI" font-size="14" font-weight="bold" lengthAdjust="spacing" textLength="109" x="936.5" y="1359.0957">The golden rule:</text><text fill="#000000" font-family="Segoe UI" font-size="14" lengthAdjust="spacing" textLength="340" x="936.5" y="1377.7168">Never change code to deviate from architecture silently.</text><text fill="#000000" font-family="Segoe UI" font-size="14" lengthAdjust="spacing" textLength="440" x="936.5" y="1396.3379">Always choose one of: fix code | update spec+PUML | register exception.</text><text fill="#000000" font-family="Segoe UI" font-size="14" lengthAdjust="spacing" textLength="4" x="936.5" y="1414.959">&#160;</text><text fill="#000000" font-family="Segoe UI" font-size="14" font-weight="bold" lengthAdjust="spacing" textLength="238" x="936.5" y="1433.5801">Compliance is NOT a one-time gate</text><text fill="#000000" font-family="Segoe UI" font-size="14" lengthAdjust="spacing" textLength="341" x="936.5" y="1452.2012">It is continuous enforcement at every commit, every PR,</text><text fill="#000000" font-family="Segoe UI" font-size="14" lengthAdjust="spacing" textLength="339" x="936.5" y="1470.8223">every merge, and every quarterly review. Exceptions are</text><text fill="#000000" font-family="Segoe UI" font-size="14" lengthAdjust="spacing" textLength="348" x="936.5" y="1489.4434">debt, not permissions. They expire and must be renewed.</text><!--SRC=[hLXXRziu4ltkNy7RucuJj7OR9saJezk38icj3uwJsaxR1Gm4j4JRtCYKAb5nVRVxt-yDALcIannmQBhOrfB8cU7Ccvat_9jUYRLWISIbQccf8y6yiS-EFTPF-LfiulIEjTlCIOELr2BGUIgO6w-JI78L2FOFvgj5d0QGeJIRw9HhiTosMjcTL0c713RdmTqoZNCLkd4Kf-n5tw7_QYj2iU1vfFknqYEeP1EnZ0Mx6Jo-P2B_BTZHczh756PnjOJb_sanDhQgKYLITeRdYpWDHLheFd_Zd3X-ww_QRXLhk_7YWQ7zlkU_snVHFtVEkgSD4JnDuusHKQmvFNdhltFml3Fu71jQEawOZjayrZh6cIGPBcFLQltAVlkPFzZlZDrFWwdlJcyGF6V2t2lFPqFdTt_yqy8hz_xIG07FSDnGpDJ1H9hFapW745YyODCqrwl3NsY9uxZiXN_Sx_Ozuw6QjEkRoo7p95_2Xnd4TBlmYNqwdAalCijv1DzMAcUgKh7ArrmnJOgC7YFinSM5v_Slcchg4cwpH0ITBLz7CtN9yLw9TYfuoETOITzcQcf-Am0nUyKcduSipIC1yzonyv6PUEEzDnuF29GpvIm9-2ifKjApnOiaIUDxM6xs6Ticrxxxk6sEDsPZiPIPJh7reE5VJmGo0pncQYm2892SydMrXLhxFcCRWMLhJZ7ukXAAi9MAUtpKrlKGNce5-eo7thTJkLpfzWTh5EknTPvfbcaE_LAnRAk2blbKhIGvj39OmMgHCIL4Y7FYRIeMC05ru3aWVD8sU6N-g7yrTlrBVpHbrx-FdSk1zvmO7l8jAiCH5JLFt8ieJl1uaAIY7SJhjTIlc5Hm1uAwm3cfUbaW3u_O2_VCV-kUx-Eu3Z0IKjR6LHpV0R81HwYixqBMIRPi8GsW-9AJ9lOKFljSHjXeZ6AnOlvuV3N6PXKYtIomhbqOvPnwRvrtJPD8J9jYoPOvJyF2b8ie3kwo9nLQ6zb6wbMSQzASS6K0QA1Jv2RBan15lj3VVLp_8k9tueozPFC83iI_oJPFi9kWIaK3WDj6r3s-8yUb9koB7yW2dCpOcXqMyeztye7W1r7iKXJTmMlNGmJndEGHyavypqMcYwXrJHq_Tq_sevPiDLOn-kksuP4gWWWMuWS70H9eQoaCHI05V3XJ_ez095Iz8TFcBqFIIxZ6UAnFbcIsMcL0m4pzwqOXZj_WI9vgkU21JL9tS6GiF7htjcdV6XuqeQf12jRWSyYZM0bMGvhcwL9e58eSK9iBD6Ig2qXdSyGinzbsqLyBh2KyBO0ldBUmeli_h20ffh15CZ3dQyZTHUwGOdkFGWZvBz4D54y_v_DImV5EmMEHF3QHHBUKAe_pZ1tijXTnDDlzDnVT_JXcjB2Dcli7tdNmBu2WfQdO1BG2O6p9oTQ9278JnbMiimJ_pvINssC955Pj6tBj77gLYcmLHw4jv9zDi5ptx4tJ21T552szgOogUJrA6QeuNl_6H8cTZBr6qTPe5cLQK_-XMFROUtRwTvOhYovKsTA2xiw2n_nuGdxyIDOhevFIGiQX34nd49l2coSGuledAFDxthn425RHbaq5WEU9kKPxedq4-0I49QmP3rjzzzDeu3h3My-_c3B0OTr8ZG1i2Yc65c6j_tZrXHnuXgQqvy3FA5Cu9JGRhvLAJVBTPrXf7SlpK0AA8x6n3T_M8jkIogP49JkAbyM1IxtTn_LMjjRQC6LThGoyheviAYLmViBqDX5PZmr6K_IfmTN8-E3BmA7V-uw1NQ1djpVNdZFrRqU-x_aUMlRLQ7hR7tmp5lhVt9s1Vpr7DzqPWr_kO48_fcFVVyvEYlOfRJde4sisvu1Qq3rmv7EdrLnhIGkeeR0LmPkMey0-1WSPaCGuc-TBHZLiHRKk5F-SAP2HllnXdi3RWG_mah5O0-viaIB_HBqe5rfindfUzu4I4bol_6oJncffrTmOO5cGlIoO8IdZCXD4YCpJ51ZeiOUnBJHtovBr-F7-GCsG2ucKqjGOuyN2gXu2kq_02Ze_2csIamr1MracbwgDdURJA8O3aAJR8XqACuxB3lYO6Pf4XSZpIlS-TY7P2M6a3Ew4lWNbWqEC7f7TSbt4W5ADWhKkwaUMfEYPXGMeDlvP_zG_VzmHowfSbTosigRCajtX6npv8YPsmmlANTYYO0fN2hKusXOMd9Op22KNORGTnXjIuKrR06BjyMZlkRltVBptVBBtVFeSoTiVNdsT_BGS6hrOPHi8RCyWcOMflAS6MP5UEwoqiAIneqkitoxGc0QM8gMsEc29J4I4sQc55OqDnzXmFIuuHhLbrymD5sfXMMFN2NOXys9YVm2Gr370ivmfqCPczsfXgTbPZYPKDdlrVegX46qRdG0qoNOB4RPe5UjqygJJ-S3iuDChG8Fi2yio1aE9yfi6GemljjugUinpnFNh9sVAVCVzP4TpvZfJzvF_yv4sTnZ69pGQ3u-GPzTLR45km5h1gHOymtW36iYZmnxMj56uqxaCGyoEDEdUYUs61arAP4eYghDcsKsDXe1iqe2y6_qoi-8hbKvcPkGTPI92d1VV3Ms-fQP95owa05Q1novpgy4Cr9R6xcQbSX11kJLh31dO_rYZ0ItG37ETqzft25LWEoRiV47ZmlMuS8C3ibvB1ilnsS5SHFhbFEKuvA5Pzv03OS01gpR09SoRLPSoo-XDhM9IuskKLNiWEn-Kbnv0OWGA6hw6N_aQkDqTkXe_xcKSMR3Q-DN63D0icr_iW5nCxGMY5ul3f_ro325LRkvy4-nuUE6V1xIP0iZLjeaImxV3l9eIU9366UPDSqKI4J-rLazfUWXAYXs2ijFK4iMR2Zk5G50mJ1TGJ1uNn90DeSRuGn8bWcKb3e6-Dk2vjcIJp1DD5lgq4wWlrXXp7I6czXG-c9QTiXvzSlH2_X16evPhwuX6YqAnNPYvrZ2KCjPc7T7OW2TyBWsv9M5KUwW4RMtjmJ7JhPNPl6Ug0O5KevI5kRrCt6NJMg001tHB9L5IoH76b9eZ8W6XvEhtymzFNV2QiGolhb6I0ubml7yz_q1A_hy_sF7OvM7Fa31pL6a9MSGt7ImkhmL1q8Hv3yOHeRRJEJeMQSK6IHYXssVxZHGX9mX8ehhROiNLLgTbJpl5nYLWXi97dQzN76ea08EYn5YMYIPW-qF1C1jyCPCHz4PRgtJ3jtJF4ySPZTTqITaZR5WvVnOrofprfIbQVxAog5Q8Aksh1G3775rDGPCWiqqGCzDbOV10q_SgNm6OwZQU0weupvQL5rlswNhy2ZljRrEqNZ5gblR5zzqSPZjkX_aLsX4BxAGSU6N0YWnPKwsZmOZ1fTk25nfvnlTpQXGe4YBi4EuAmFqN]--></g></svg>