<?xml version="1.0" encoding="us-ascii" standalone="no"?><svg xmlns="http://www.w3.org/2000/svg" xmlns:xlink="http://www.w3.org/1999/xlink" contentStyleType="text/css" height="2221.875px" preserveAspectRatio="none" style="width:7021px;height:2221px;background:#FFFFFF;" version="1.1" viewBox="0 0 7021 2221" width="7021.875px" zoomAndPan="magnify"><defs/><g><text fill="#000000" font-family="Segoe UI" font-size="41.25" font-weight="bold" lengthAdjust="spacing" textLength="795" x="3105" y="72.6379">DRE 3D Operating Excellence Framework</text><!--cluster R1--><g id="cluster_R1"><rect fill="#D5E8D4" height="305.625" rx="11.25" ry="11.25" style="stroke:#000000;stroke-width:1.875;" width="836.25" x="2150.625" y="564.472"/><text fill="#000000" font-family="Segoe UI" font-size="26.25" font-weight="bold" lengthAdjust="spacing" textLength="369.375" x="2384.0625" y="596.5484">1) Reliability and SLO Control</text></g><!--cluster R2--><g id="cluster_R2"><rect fill="#DAE8FC" height="236.25" rx="11.25" ry="11.25" style="stroke:#000000;stroke-width:1.875;" width="1524.375" x="1991.25" y="202.597"/><text fill="#000000" font-family="Segoe UI" font-size="26.25" font-weight="bold" lengthAdjust="spacing" textLength="356.25" x="2575.3125" y="234.6734">2) Observability and Tracing</text></g><!--cluster R3--><g id="cluster_R3"><rect fill="#F8CECC" height="236.25" rx="11.25" ry="11.25" style="stroke:#000000;stroke-width:1.875;" width="1828.125" x="4642.5" y="599.1595"/><text fill="#000000" font-family="Segoe UI" font-size="26.25" font-weight="bold" lengthAdjust="spacing" textLength="525" x="5294.0625" y="631.2359">3) Model Performance and Benchmarking</text></g><!--cluster R4--><g id="cluster_R4"><rect fill="#FFF2CC" height="236.25" rx="11.25" ry="11.25" style="stroke:#000000;stroke-width:1.875;" width="1629.375" x="4745.625" y="995.722"/><text fill="#000000" font-family="Segoe UI" font-size="26.25" font-weight="bold" lengthAdjust="spacing" textLength="384.375" x="5368.125" y="1027.7984">4) FinOps and Cost Intelligence</text></g><!--cluster R5--><g id="cluster_R5"><rect fill="#E1D5E7" height="236.25" rx="11.25" ry="11.25" style="stroke:#000000;stroke-width:1.875;" width="1666.875" x="5343.75" y="202.597"/><text fill="#000000" font-family="Segoe UI" font-size="26.25" font-weight="bold" lengthAdjust="spacing" textLength="431.25" x="5961.5625" y="234.6734">5) Adoption and Product Analytics</text></g><!--cluster R6--><g id="cluster_R6"><rect fill="#FCE5CD" height="236.25" rx="11.25" ry="11.25" style="stroke:#000000;stroke-width:1.875;" width="1678.125" x="3590.625" y="202.597"/><text fill="#000000" font-family="Segoe UI" font-size="26.25" font-weight="bold" lengthAdjust="spacing" textLength="406.875" x="4226.25" y="234.6734">6) Governance and Risk Controls</text></g><!--cluster R7--><g id="cluster_R7"><rect fill="#D9EAD3" height="236.25" rx="11.25" ry="11.25" style="stroke:#000000;stroke-width:1.875;" width="1745.625" x="170.625" y="202.597"/><text fill="#000000" font-family="Segoe UI" font-size="26.25" font-weight="bold" lengthAdjust="spacing" textLength="416.25" x="835.3125" y="234.6734">7) Action and Improvement Loop</text></g><!--entity R1A--><g id="elem_R1A"><rect fill="#FFFFFF" height="177.1582" rx="11.25" ry="11.25" style="stroke:#000000;stroke-width:1.875;" width="375" x="2195.625" y="648.847"/><text fill="#000000" font-family="Segoe UI" font-size="26.25" lengthAdjust="spacing" textLength="228.75" x="2214.375" y="695.9234">Service SLO Catalog</text><text fill="#000000" font-family="Segoe UI" font-size="26.25" lengthAdjust="spacing" textLength="260.625" x="2214.375" y="730.8379">- diagnosis_latency_slo</text><text fill="#000000" font-family="Segoe UI" font-size="26.25" lengthAdjust="spacing" textLength="281.25" x="2214.375" y="765.7525">- deflection_success_rate</text><text fill="#000000" font-family="Segoe UI" font-size="26.25" lengthAdjust="spacing" textLength="337.5" x="2214.375" y="800.667">- rule_authoring_success_rate</text></g><!--entity R1B--><g id="elem_R1B"><rect fill="#FFFFFF" height="177.1582" rx="11.25" ry="11.25" style="stroke:#000000;stroke-width:1.875;" width="268.125" x="2637.1875" y="648.847"/><text fill="#000000" font-family="Segoe UI" font-size="26.25" lengthAdjust="spacing" textLength="230.625" x="2655.9375" y="695.9234">Error Budget Engine</text><text fill="#000000" font-family="Segoe UI" font-size="26.25" lengthAdjust="spacing" textLength="125.625" x="2655.9375" y="730.8379">- burn rate</text><text fill="#000000" font-family="Segoe UI" font-size="26.25" lengthAdjust="spacing" textLength="166.875" x="2655.9375" y="765.7525">- release gates</text><text fill="#000000" font-family="Segoe UI" font-size="26.25" lengthAdjust="spacing" textLength="131.25" x="2655.9375" y="800.667">- escalation</text></g><!--entity R2A--><g id="elem_R2A"><rect fill="#FFFFFF" height="107.3291" rx="11.25" ry="11.25" style="stroke:#000000;stroke-width:1.875;" width="405" x="3030" y="286.972"/><text fill="#000000" font-family="Segoe UI" font-size="26.25" lengthAdjust="spacing" textLength="168.75" x="3048.75" y="334.0484">Golden Signals</text><text fill="#000000" font-family="Segoe UI" font-size="26.25" lengthAdjust="spacing" textLength="367.5" x="3048.75" y="368.9629">latency, traffic, errors, saturation</text></g><!--entity R2B--><g id="elem_R2B"><rect fill="#FFFFFF" height="107.3291" rx="11.25" ry="11.25" style="stroke:#000000;stroke-width:1.875;" width="386.25" x="2578.125" y="286.972"/><text fill="#000000" font-family="Segoe UI" font-size="26.25" lengthAdjust="spacing" textLength="270" x="2596.875" y="334.0484">End-to-End Trace Spine</text><text fill="#000000" font-family="Segoe UI" font-size="26.25" lengthAdjust="spacing" textLength="348.75" x="2596.875" y="368.9629">request_id -&gt; tool_id -&gt; sql_id</text></g><!--entity R2C--><g id="elem_R2C"><rect fill="#FFFFFF" height="107.3291" rx="11.25" ry="11.25" style="stroke:#000000;stroke-width:1.875;" width="474.375" x="2037.1875" y="286.972"/><text fill="#000000" font-family="Segoe UI" font-size="26.25" lengthAdjust="spacing" textLength="211.875" x="2055.9375" y="334.0484">Data Observability</text><text fill="#000000" font-family="Segoe UI" font-size="26.25" lengthAdjust="spacing" textLength="436.875" x="2055.9375" y="368.9629">freshness, schema drift, lineage breaks</text></g><!--entity R3A--><g id="elem_R3A"><rect fill="#FFFFFF" height="107.3291" rx="11.25" ry="11.25" style="stroke:#000000;stroke-width:1.875;" width="581.25" x="5844.375" y="683.5345"/><text fill="#000000" font-family="Segoe UI" font-size="26.25" lengthAdjust="spacing" textLength="273.75" x="5863.125" y="730.6109">Offline Benchmark Suite</text><text fill="#000000" font-family="Segoe UI" font-size="26.25" lengthAdjust="spacing" textLength="543.75" x="5863.125" y="765.5254">golden prompts, golden SQL, regression checks</text></g><!--entity R3B--><g id="elem_R3B"><rect fill="#FFFFFF" height="107.3291" rx="11.25" ry="11.25" style="stroke:#000000;stroke-width:1.875;" width="551.25" x="5227.5" y="683.5345"/><text fill="#000000" font-family="Segoe UI" font-size="26.25" lengthAdjust="spacing" textLength="200.625" x="5246.25" y="730.6109">Online Evaluation</text><text fill="#000000" font-family="Segoe UI" font-size="26.25" lengthAdjust="spacing" textLength="513.75" x="5246.25" y="765.5254">acceptance rate, override rate, groundedness</text></g><!--entity R3C--><g id="elem_R3C"><rect fill="#FFFFFF" height="107.3291" rx="11.25" ry="11.25" style="stroke:#000000;stroke-width:1.875;" width="438.75" x="4723.125" y="683.5345"/><text fill="#000000" font-family="Segoe UI" font-size="26.25" lengthAdjust="spacing" textLength="161.25" x="4741.875" y="730.6109">Safety Metrics</text><text fill="#000000" font-family="Segoe UI" font-size="26.25" lengthAdjust="spacing" textLength="401.25" x="4741.875" y="765.5254">blocked_sql_rate, risky_sql_ack_rate</text></g><!--entity R4A--><g id="elem_R4A"><rect fill="#FFFFFF" height="107.3291" rx="11.25" ry="11.25" style="stroke:#000000;stroke-width:1.875;" width="491.25" x="5803.125" y="1080.097"/><text fill="#000000" font-family="Segoe UI" font-size="26.25" lengthAdjust="spacing" textLength="176.25" x="5821.875" y="1127.1734">Unit Economics</text><text fill="#000000" font-family="Segoe UI" font-size="26.25" lengthAdjust="spacing" textLength="453.75" x="5821.875" y="1162.0879">cost per suggestion, cost per saved rule</text></g><!--entity R4B--><g id="elem_R4B"><rect fill="#FFFFFF" height="107.3291" rx="11.25" ry="11.25" style="stroke:#000000;stroke-width:1.875;" width="468.75" x="5268.75" y="1080.097"/><text fill="#000000" font-family="Segoe UI" font-size="26.25" lengthAdjust="spacing" textLength="253.125" x="5287.5" y="1127.1734">Cost Pattern Analytics</text><text fill="#000000" font-family="Segoe UI" font-size="26.25" lengthAdjust="spacing" textLength="431.25" x="5287.5" y="1162.0879">by domain, model, prompt type, hour</text></g><!--entity R4C--><g id="elem_R4C"><rect fill="#FFFFFF" height="107.3291" rx="11.25" ry="11.25" style="stroke:#000000;stroke-width:1.875;" width="410.625" x="4791.5625" y="1080.097"/><text fill="#000000" font-family="Segoe UI" font-size="26.25" lengthAdjust="spacing" textLength="256.875" x="4810.3125" y="1127.1734">Budget and Guardrails</text><text fill="#000000" font-family="Segoe UI" font-size="26.25" lengthAdjust="spacing" textLength="373.125" x="4810.3125" y="1162.0879">soft cap, hard cap, policy fallback</text></g><!--entity R5A--><g id="elem_R5A"><rect fill="#FFFFFF" height="107.3291" rx="11.25" ry="11.25" style="stroke:#000000;stroke-width:1.875;" width="566.25" x="6363.75" y="286.972"/><text fill="#000000" font-family="Segoe UI" font-size="26.25" lengthAdjust="spacing" textLength="155.625" x="6382.5" y="334.0484">Usage Funnel</text><text fill="#000000" font-family="Segoe UI" font-size="26.25" lengthAdjust="spacing" textLength="528.75" x="6382.5" y="368.9629">open -&gt; suggest -&gt; select -&gt; confirm -&gt; save</text></g><!--entity R5B--><g id="elem_R5B"><rect fill="#FFFFFF" height="107.3291" rx="11.25" ry="11.25" style="stroke:#000000;stroke-width:1.875;" width="474.375" x="5822.8125" y="286.972"/><text fill="#000000" font-family="Segoe UI" font-size="26.25" lengthAdjust="spacing" textLength="178.125" x="5841.5625" y="334.0484">Trust Indicators</text><text fill="#000000" font-family="Segoe UI" font-size="26.25" lengthAdjust="spacing" textLength="436.875" x="5841.5625" y="368.9629">acceptance, rejection reason, edit ratio</text></g><!--entity R5C--><g id="elem_R5C"><rect fill="#FFFFFF" height="107.3291" rx="11.25" ry="11.25" style="stroke:#000000;stroke-width:1.875;" width="367.5" x="5388.75" y="286.972"/><text fill="#000000" font-family="Segoe UI" font-size="26.25" lengthAdjust="spacing" textLength="260.625" x="5407.5" y="334.0484">Domain Rollout Health</text><text fill="#000000" font-family="Segoe UI" font-size="26.25" lengthAdjust="spacing" textLength="330" x="5407.5" y="368.9629">active domains, WAU by role</text></g><!--entity R6A--><g id="elem_R6A"><rect fill="#FFFFFF" height="107.3291" rx="11.25" ry="11.25" style="stroke:#000000;stroke-width:1.875;" width="436.875" x="4750.3125" y="286.972"/><text fill="#000000" font-family="Segoe UI" font-size="26.25" lengthAdjust="spacing" textLength="165" x="4769.0625" y="334.0484">Policy as Code</text><text fill="#000000" font-family="Segoe UI" font-size="26.25" lengthAdjust="spacing" textLength="399.375" x="4769.0625" y="368.9629">SQL safety policy, approval routing</text></g><!--entity R6B--><g id="elem_R6B"><rect fill="#FFFFFF" height="107.3291" rx="11.25" ry="11.25" style="stroke:#000000;stroke-width:1.875;" width="532.5" x="4151.25" y="286.972"/><text fill="#000000" font-family="Segoe UI" font-size="26.25" lengthAdjust="spacing" textLength="279.375" x="4170" y="334.0484">Audit and Evidence Pack</text><text fill="#000000" font-family="Segoe UI" font-size="26.25" lengthAdjust="spacing" textLength="495" x="4170" y="368.9629">who approved, why blocked, what changed</text></g><!--entity R6C--><g id="elem_R6C"><rect fill="#FFFFFF" height="107.3291" rx="11.25" ry="11.25" style="stroke:#000000;stroke-width:1.875;" width="448.125" x="3636.5625" y="286.972"/><text fill="#000000" font-family="Segoe UI" font-size="26.25" lengthAdjust="spacing" textLength="210" x="3655.3125" y="334.0484">Exception Lifecycle</text><text fill="#000000" font-family="Segoe UI" font-size="26.25" lengthAdjust="spacing" textLength="410.625" x="3655.3125" y="368.9629">owner, expiry, remediation due date</text></g><!--entity R7A--><g id="elem_R7A"><rect fill="#FFFFFF" height="107.3291" rx="11.25" ry="11.25" style="stroke:#000000;stroke-width:1.875;" width="489.375" x="1380.9375" y="286.972"/><text fill="#000000" font-family="Segoe UI" font-size="26.25" lengthAdjust="spacing" textLength="163.125" x="1399.6875" y="334.0484">Control Tower</text><text fill="#000000" font-family="Segoe UI" font-size="26.25" lengthAdjust="spacing" textLength="451.875" x="1399.6875" y="368.9629">KPI scorecards + alerts + weekly review</text></g><!--entity R7B--><g id="elem_R7B"><rect fill="#FFFFFF" height="107.3291" rx="11.25" ry="11.25" style="stroke:#000000;stroke-width:1.875;" width="592.5" x="721.875" y="286.972"/><text fill="#000000" font-family="Segoe UI" font-size="26.25" lengthAdjust="spacing" textLength="251.25" x="740.625" y="334.0484">Improvement Backlog</text><text fill="#000000" font-family="Segoe UI" font-size="26.25" lengthAdjust="spacing" textLength="555" x="740.625" y="368.9629">prompt tuning, model routing, runbook updates</text></g><!--entity R7C--><g id="elem_R7C"><rect fill="#FFFFFF" height="107.3291" rx="11.25" ry="11.25" style="stroke:#000000;stroke-width:1.875;" width="403.125" x="252.1875" y="286.972"/><text fill="#000000" font-family="Segoe UI" font-size="26.25" lengthAdjust="spacing" textLength="243.75" x="270.9375" y="334.0484">Release Fitness Gates</text><text fill="#000000" font-family="Segoe UI" font-size="26.25" lengthAdjust="spacing" textLength="365.625" x="270.9375" y="368.9629">block release on KPI regressions</text></g><!--entity OUT--><g id="elem_OUT"><rect fill="#E8F4FD" height="107.3291" rx="11.25" ry="11.25" style="stroke:#000000;stroke-width:1.875;" width="326.25" x="22.5" y="683.5345"/><text fill="#000000" font-family="Segoe UI" font-size="26.25" lengthAdjust="spacing" textLength="223.125" x="41.25" y="730.6109">Business Outcomes</text><text fill="#000000" font-family="Segoe UI" font-size="26.25" lengthAdjust="spacing" textLength="288.75" x="41.25" y="765.5254">DRRI, MTTD, MTTR, Trust</text></g><!--link R1 to R2--><g id="link_R1_R2"><path d="M2987.1706,731.5093 C2987.4683,731.436 2987.77,731.3615 2988.0757,731.2858 C2988.687,731.1345 2989.3143,730.9785 2989.9573,730.8179 C3000.2451,728.2477 3014.5522,724.4833 3031.911,719.4302 C3066.6287,709.3239 3113.5535,694.0626 3164.9461,672.8892 C3267.7313,630.5423 3388.3875,564.547 3465,468.847 C3469.4227,463.3228 3473.2966,457.2806 3476.6898,450.9268 C3478.3864,447.75 3479.9629,444.4952 3481.4277,441.1884 C3481.6108,440.7751 3481.7921,440.3609 3481.9717,439.946 C3482.0616,439.7385 3477.7246,449.8735 3477.8135,449.6656 " fill="none" id="R1-to-R2" style="stroke:#000000;stroke-width:1.875;"/><polygon fill="#000000" points="3482.2399,439.323,3468.7053,451.886,3478.5512,447.9418,3482.4954,457.7878,3482.2399,439.323" style="stroke:#000000;stroke-width:1.875;"/></g><!--link R2 to R3--><g id="link_R2_R3"><path d="M3515.6863,369.0076 C3515.7901,369.1773 3515.8944,369.3476 3515.9992,369.5184 C3516.2087,369.8601 3516.4202,370.204 3516.6337,370.5501 C3517.4875,371.9344 3518.3728,373.3535 3519.2888,374.8036 C3522.9526,380.6042 3527.1076,386.9013 3531.7102,393.4532 C3550.1203,419.661 3575.6906,449.947 3605.625,468.847 C3807.9281,596.5532 4068.3844,663.0782 4279.507,697.6954 C4385.0684,715.004 4478.2963,724.3356 4545.755,729.3495 C4579.4843,731.8564 4606.7714,733.2839 4625.9366,734.0894 C4630.7279,734.2907 4635.0116,734.4532 4638.7615,734.584 C4639.6989,734.6167 4629.3592,734.2749 4630.2295,734.3037 " fill="none" id="R2-to-R3" style="stroke:#000000;stroke-width:1.875;"/><polygon fill="#000000" points="4641.4733,734.6762,4624.8559,726.6216,4632.1035,734.3658,4624.3593,741.6133,4641.4733,734.6762" style="stroke:#000000;stroke-width:1.875;"/></g><!--link R3 to R4--><g id="link_R3_R4"><path d="M4658.8799,835.9813 C4659.3536,838.1877 4659.8682,840.3892 4660.4268,842.5808 C4661.5438,846.9638 4662.8361,851.3068 4664.3262,855.5678 C4670.2863,872.6118 4679.4094,888.3454 4693.125,900.097 C4760.3438,957.697 5399.6813,947.122 5488.125,950.722 C5511.3375,951.6595 6306.4313,950.9657 6324.375,965.722 C6331.5422,971.6212 6337.4851,978.581 6342.3964,986.251 C6343.6242,988.1685 6344.7876,990.1303 6345.8895,992.1311 C6346.4404,993.1315 6341.8585,984.123 6342.3791,985.1422 " fill="none" id="R3-to-R4" style="stroke:#000000;stroke-width:1.875;"/><polygon fill="#000000" points="6347.4966,995.1609,6346.4994,976.7212,6343.232,986.812,6333.1412,983.5446,6347.4966,995.1609" style="stroke:#000000;stroke-width:1.875;"/></g><!--link R4 to R5--><g id="link_R4_R5"><path d="M6375.3879,1119.466 C6376.0488,1118.9347 6376.7296,1118.3868 6377.43,1117.8223 C6378.8307,1116.6932 6380.3097,1115.4979 6381.8648,1114.2373 C6394.305,1104.1526 6411.6103,1089.8908 6432.6193,1071.9779 C6474.6375,1036.1522 6531.4711,985.7224 6593.8313,924.8962 C6718.5516,803.2438 6865.3781,640.0063 6960,468.847 C6963.4242,462.6548 6966.5414,456.1063 6969.3757,449.3788 C6970.7929,446.015 6968.2106,453.1481 6969.4894,449.7169 " fill="none" id="R4-to-R5" style="stroke:#000000;stroke-width:1.875;"/><polygon fill="#000000" points="6973.4181,439.1752,6960.4972,452.3686,6970.1442,447.9599,6974.5529,457.6069,6973.4181,439.1752" style="stroke:#000000;stroke-width:1.875;"/></g><!--link R5 to R6--><g id="link_R5_R6"><path d="M6980.6715,202.2573 C6980.4177,201.6245 6980.1602,200.9939 6979.8988,200.3659 C6977.8084,195.3412 6975.4765,190.4719 6972.8771,185.8207 C6962.4797,167.2157 6947.8031,152.0985 6927.1875,144.472 C6847.1813,114.8657 5471.5688,114.8657 5391.5625,144.472 C5343.975,162.0782 5310.4453,207.4017 5288.3812,250.0274 C5282.8652,260.6839 5278.0658,271.1717 5273.9425,281.0157 C5272.9117,283.4767 5271.9231,285.8975 5270.9762,288.2706 C5270.5027,289.4571 5270.0396,290.6318 5269.5869,291.7936 C5269.3605,292.3745 5273.1802,282.4539 5272.959,283.0283 " fill="none" id="R5-to-R6" style="stroke:#000000;stroke-width:1.875;"/><polygon fill="#000000" points="5268.9155,293.5265,5281.9795,280.4748,5272.2851,284.778,5267.9819,275.0835,5268.9155,293.5265" style="stroke:#000000;stroke-width:1.875;"/></g><!--link R6 to R7--><g id="link_R6_R7"><path d="M5238.7965,202.2573 C5238.5427,201.6245 5238.2852,200.9939 5238.0238,200.3659 C5235.9334,195.3412 5233.6015,190.4719 5231.0021,185.8207 C5220.6047,167.2157 5205.9281,152.0985 5185.3125,144.472 C5121.075,120.7157 318.3,120.7157 254.0625,144.472 C233.4469,152.0985 218.7703,167.2157 208.3729,185.8207 C205.7735,190.4719 203.4416,195.3412 201.3512,200.3659 C201.0898,200.9939 205.0201,191.1829 204.7663,191.8158 " fill="none" id="R6-to-R7" style="stroke:#000000;stroke-width:1.875;"/><polygon fill="#000000" points="200.5785,202.2573,213.8212,189.3869,204.0683,193.556,199.8992,183.8032,200.5785,202.2573" style="stroke:#000000;stroke-width:1.875;"/></g><!--link R7 to OUT--><g id="link_R7_OUT"><path d="M185.625,440.0628 C185.625,440.5719 185.625,441.0823 185.625,441.5938 C185.625,442.6167 185.625,443.6444 185.625,444.6766 C185.625,446.7411 185.625,448.8236 185.625,450.923 C185.625,459.3206 185.625,467.9877 185.625,476.8415 C185.625,547.672 185.625,619.2032 185.625,671.572 " fill="none" id="R7-to-OUT" style="stroke:#000000;stroke-width:1.875;"/><polygon fill="#000000" points="185.625,682.822,193.125,665.947,185.625,673.447,178.125,665.947,185.625,682.822" style="stroke:#000000;stroke-width:1.875;"/></g><!--link R2B to R1B--><g id="link_R2B_R1B"><path d="M2771.25,394.447 C2771.25,459.3595 2771.25,559.8407 2771.25,637.5782 " fill="none" id="R2B-to-R1B" style="stroke:#000000;stroke-width:1.875;"/><polygon fill="#000000" points="2771.25,648.8282,2778.75,631.9532,2771.25,639.4532,2763.75,631.9532,2771.25,648.8282" style="stroke:#000000;stroke-width:1.875;"/><text fill="#000000" font-family="Segoe UI" font-size="24.375" lengthAdjust="spacing" textLength="221.25" x="2773.125" y="512.0251">SLO burn attribution</text></g><!--link R3B to R4B--><g id="link_R3B_R4B"><path d="M5503.125,791.0095 C5503.125,866.347 5503.125,993.547 5503.125,1068.6595 " fill="none" id="R3B-to-R4B" style="stroke:#000000;stroke-width:1.875;"/><polygon fill="#000000" points="5503.125,1079.9095,5510.625,1063.0345,5503.125,1070.5345,5495.625,1063.0345,5503.125,1079.9095" style="stroke:#000000;stroke-width:1.875;"/><text fill="#000000" font-family="Segoe UI" font-size="24.375" lengthAdjust="spacing" textLength="219.375" x="5505" y="943.2751">quality vs cost trend</text></g><!--link R5B to R3A--><g id="link_R5B_R3A"><path d="M6069.9563,394.447 C6084.3375,469.7845 6108.6648,597.1842 6123.0085,672.2967 " fill="none" id="R5B-to-R3A" style="stroke:#000000;stroke-width:1.875;"/><polygon fill="#000000" points="6125.1188,683.347,6129.3203,665.3647,6123.3602,674.1384,6114.5866,668.1783,6125.1188,683.347" style="stroke:#000000;stroke-width:1.875;"/><text fill="#000000" font-family="Segoe UI" font-size="24.375" lengthAdjust="spacing" textLength="204.375" x="6093.75" y="512.0251">benchmark refresh</text></g><!--link R6A to R3C--><g id="link_R6A_R3C"><path d="M4965.2625,394.447 C4960.2375,469.7845 4951.7259,597.0096 4946.7009,672.1221 " fill="none" id="R6A-to-R3C" style="stroke:#000000;stroke-width:1.875;"/><polygon fill="#000000" points="4945.95,683.347,4954.5597,667.0102,4946.5758,673.9929,4939.5931,666.009,4945.95,683.347" style="stroke:#000000;stroke-width:1.875;"/><text fill="#000000" font-family="Segoe UI" font-size="24.375" lengthAdjust="spacing" textLength="236.25" x="4959.375" y="512.0251">SQL safety categories</text></g><!--link R7A to R1A--><g id="link_R7A_R1A"><path d="M1725.4313,394.0345 C1850.3813,458.8345 2056.2066,565.5745 2206.4128,643.462 " fill="none" id="R7A-to-R1A" style="stroke:#000000;stroke-width:1.875;"/><polygon fill="#000000" points="2216.4,648.6407,2204.8717,634.2145,2208.0774,644.3251,2197.9668,647.5308,2216.4,648.6407" style="stroke:#000000;stroke-width:1.875;"/><text fill="#000000" font-family="Segoe UI" font-size="24.375" lengthAdjust="spacing" textLength="210" x="1959.375" y="512.0251">target recalibration</text></g><rect fill="none" height="891.6138" id="_legend" rx="14.0625" ry="14.0625" style="stroke:#000000;stroke-width:1.875;" width="952.5" x="6033.75" y="1250.722"/><text fill="#000000" font-family="Segoe UI" font-size="26.25" lengthAdjust="spacing" textLength="73.125" x="6043.125" y="1288.4234">WHAT</text><text fill="#000000" font-family="Segoe UI" font-size="26.25" lengthAdjust="spacing" textLength="933.75" x="6043.125" y="1323.3379">- A measurable operating architecture for DRE 3D, not only component topology.</text><text fill="#000000" font-family="Segoe UI" font-size="26.25" lengthAdjust="spacing" textLength="7.5" x="6043.125" y="1358.2525">&#160;</text><text fill="#000000" font-family="Segoe UI" font-size="26.25" lengthAdjust="spacing" textLength="58.125" x="6043.125" y="1393.167">WHY</text><text fill="#000000" font-family="Segoe UI" font-size="26.25" lengthAdjust="spacing" textLength="877.5" x="6043.125" y="1428.0816">- Architecture quality must be proven by SLOs, model quality, cost efficiency,</text><text fill="#000000" font-family="Segoe UI" font-size="26.25" lengthAdjust="spacing" textLength="753.75" x="6058.125" y="1462.9961">and user adoption - continuously, not as one-time design output.</text><text fill="#000000" font-family="Segoe UI" font-size="26.25" lengthAdjust="spacing" textLength="7.5" x="6043.125" y="1497.9107">&#160;</text><text fill="#000000" font-family="Segoe UI" font-size="26.25" lengthAdjust="spacing" textLength="189.375" x="6043.125" y="1532.8252">HOW TO SOLVE</text><text fill="#000000" font-family="Segoe UI" font-size="26.25" lengthAdjust="spacing" textLength="885" x="6043.125" y="1567.7398">- Add explicit control planes for reliability, observability, model benchmarking,</text><text fill="#000000" font-family="Segoe UI" font-size="26.25" lengthAdjust="spacing" textLength="504.375" x="6058.125" y="1602.6543">FinOps, adoption analytics, and governance.</text><text fill="#000000" font-family="Segoe UI" font-size="26.25" lengthAdjust="spacing" textLength="725.625" x="6043.125" y="1637.5689">- Tie all planes into one control tower with release fitness gates.</text><text fill="#000000" font-family="Segoe UI" font-size="26.25" lengthAdjust="spacing" textLength="7.5" x="6043.125" y="1672.4834">&#160;</text><text fill="#000000" font-family="Segoe UI" font-size="26.25" lengthAdjust="spacing" textLength="90" x="6043.125" y="1707.398">SOLVES</text><text fill="#000000" font-family="Segoe UI" font-size="26.25" lengthAdjust="spacing" textLength="472.5" x="6043.125" y="1742.3125">- Unclear diagnosis latency accountability</text><text fill="#000000" font-family="Segoe UI" font-size="26.25" lengthAdjust="spacing" textLength="418.125" x="6043.125" y="1777.2271">- Unknown model regression impact</text><text fill="#000000" font-family="Segoe UI" font-size="26.25" lengthAdjust="spacing" textLength="376.875" x="6043.125" y="1812.1417">- Rising cost without value signal</text><text fill="#000000" font-family="Segoe UI" font-size="26.25" lengthAdjust="spacing" textLength="500.625" x="6043.125" y="1847.0562">- Low adoption without root-cause visibility</text><text fill="#000000" font-family="Segoe UI" font-size="26.25" lengthAdjust="spacing" textLength="440.625" x="6043.125" y="1881.9708">- Weak auditability for safety decisions</text><text fill="#000000" font-family="Segoe UI" font-size="26.25" lengthAdjust="spacing" textLength="7.5" x="6043.125" y="1916.8853">&#160;</text><text fill="#000000" font-family="Segoe UI" font-size="26.25" lengthAdjust="spacing" textLength="170.625" x="6043.125" y="1951.7999">MEASURED BY</text><text fill="#000000" font-family="Segoe UI" font-size="26.25" lengthAdjust="spacing" textLength="676.875" x="6043.125" y="1986.7144">- Diagnosis latency p95, deflection success rate, DRRI trend</text><text fill="#000000" font-family="Segoe UI" font-size="26.25" lengthAdjust="spacing" textLength="438.75" x="6043.125" y="2021.629">- SQL validity and groundedness rates</text><text fill="#000000" font-family="Segoe UI" font-size="26.25" lengthAdjust="spacing" textLength="481.875" x="6043.125" y="2056.5435">- Cost per saved rule and budget variance</text><text fill="#000000" font-family="Segoe UI" font-size="26.25" lengthAdjust="spacing" textLength="502.5" x="6043.125" y="2091.4581">- Funnel conversion and weekly active users</text><text fill="#000000" font-family="Segoe UI" font-size="26.25" lengthAdjust="spacing" textLength="547.5" x="6043.125" y="2126.3726">- Policy violation rate and exception closure SLA</text><text fill="#000000" font-family="Segoe UI" font-size="26.25" lengthAdjust="spacing" textLength="993.75" x="3005.625" y="2191.2872">Reliability + Observability + Model Benchmarking + FinOps + Adoption + Governance</text><!--SRC=[TLVVRo8t47xVlsBQUueEgkRtjG-L292xgBcI0kcf4b9aTitYOkmzsmj5LV_tVkFr0hcKF4JUNNlypJSptmpVXQLSIwgqK2RpAsKguSIQ2haGjGxtreJV1BvFP6abFJySRV5BKTYjCYKjXFRo-72bwFp3ZqTldCo3CAMMz4z6DBQrAVhM6Ude_2BxDyk22lWs60_fSa2ZIZeHsF3mxrngBKqkwHvcvDQwLPQBAYXhQ2or4dEbLTZHUnhDlNIRm_DdMqXDTpYxN0ktOcllwLwPKUMnw1MsCVAUFjgDT4RWZYmxmFp-hlRAIEzfL8VShgMVcS5u_D2XpzFf8FuVTsZgQX- -9u5TprDwD_nmVtK_U6Nc_EmLJc4AcZoEg0zUdTNnwFYStWskXny6Lv6SeyCJUAJWUpmXWj2sd9ak5KgKndhbNxG8S73tuhMD7-H2upJyUl5rdWFz2uYK_CdLMhw8EYoj0nMlFYSGFNft7_zUOnWwPntTrKKf0mrD2LBOthnsXlR6fPR2IohnxFc5zBa0DW19nk_snlzzHS_5sJU1OuAcJkG0sHoz03az4Dl_bfoFLXVIq4IL1katCucB3WKd5WkLTqWoTDyXBqBjZj1Sd7BL5DrWkyC40RnNqLidlzRIXnTLKFSN2jRgjFHVUPMCtls_qG7Yzjh7cLauwPUSNC2Me_m45KujGeSqxXEbfBcJOkMJuVu9xYxFKf8_IRUmRiqf7FaxJlh6nYLCVEWF-sz872qMVEVX24rgnK4j6tOhPzTL0CxqFFdziOFp9HpmN3v0dxT0Bq_GEZBnYk56w3f6OMO4igyA4J3dK8Uu1fqgsiVIiKB8WZbAna_GEn4BYRJvB8DJER9Whcs-aiKBXwQnvPHVxUApo5T72NzvYjUhirOdcCo-zO4UJ80EgPALg3bz5GzVl6NqsIZKIMwDNKT0EP-7e96lon9P1FyxT7WfDhA8nPdCdk0medWI8K2gg8U4tuN6tHqLTWtfxj2QSw6J8aPXLy7tfQrTCdo2lrJOxEd7MhZ22SN5vEqY48GM9l2oMLLMgtp7Og_de3BPFSNYzTb1PDdwaxD5dOS3-ERyDLJp7Eft-uP7puLmNniZzSpO2id75TUG69UIjOvN87kXt3g-19_9y0acesGZe8NAHO0y72SZf_PVZO1Y9Jo7IXQ8PrIFPFTKdSSmeBLfRUj0dwJGOSd6Wzh852JKqPVUCo5eqFuMvoa2RywEMbEaS8nCRZj7eky6X_l3w_xWM_gUcc1XJnzvCJCeN90JQwM9OuT4XLn1KG9C7VPISNE2jrxDH32CuGQ5ofYUa0KpirtQP4eM7TekTvHga1y4icW92pAfvCq9zhZHDxdog1Oot-KQcEqM0m8Yy7Ubt8vZiqOmee9GKOFJVIdVdEBm5acOxrFmOHrHhgK9z6XjrHo-HOFvQTWRN7vBOMAQfdOhtSpy-lG0jRROW8hW6K9ewG8ljbAkD68gDqfkaz4JB1v3k0DziQEt9LiRH24LSXiKk5sRkRKhgYjsECNzzWIFuzI9xrM8myl7fYF7YEpRDEXWPmuotXfzHIF6aYugQdoHeGV7rMM6HX9NLna4CAwkCvHmNDraoCQukir0Agym5C4EEcDyZI7WvpZAnDa1MkRKlERWPApkZLtUyhKMSHJO-4OdWvEcoBZm6XGzx9dl-vMJiPjcdBZDzpvVSqXtb3bcLwUappWi3HIs4OHZwUE0QZLl1eGiqn8g3qbMvJ9aNpxrfbcNUhG6SPWXvk3OxgTJuV8bccMEwK8IEd2QNpjaR039I0aCZfKr7EnWKNQstFsGmUYVRFFuSElochLfBYacYM6X05- -JOcqAxKFoKEEYYCFSe3pkyQGGQ8LtIxh8d3MjlPwru12b06d6nGc-a9wZ4w4DAlg05YVHbzeEgB9wF6F8UCh2guyI0NAFa-bW5y9IAlegpjCjMZVn_DD2tT-D8OmnAQfTWu8HTiAEX5-kLUx7t3_L47qzFvAPO9bx7ieWQkIjYeiztczI4aVnr1u55sPmDQpWPu8TnYSAGsB1Et7f14IyhXrnRhJ5k5Xqb7h2bgE7L1X3dwC0L_FQi-ZZIGVHr5iURJRWvVj7cTjwEO2GQ8DJEnl_89HZmIhQpi3CxqfUGkPgrYXMVPvs9iyZuS3kkFq6RnnfVhfkdFq2u3IY9ycAlxjaYgf6wi3a5NHJjp7yrOyuB6h_tP8YPldpSYm4Kx5NqtTrAKvD8YWR-KsoMBgW9oSR3KrfesopG-4U5tSB_Sz8DVMSrbC7diP43SbcVq7]--></g></svg>