<?xml version="1.0" encoding="us-ascii" standalone="no"?><svg xmlns="http://www.w3.org/2000/svg" xmlns:xlink="http://www.w3.org/1999/xlink" contentStyleType="text/css" height="1077px" preserveAspectRatio="none" style="width:2421px;height:1077px;background:#FFFFFF;" version="1.1" viewBox="0 0 2421 1077" width="2421px" zoomAndPan="magnify"><defs/><g><text fill="#000000" font-family="Verdana" font-size="22" font-weight="bold" lengthAdjust="spacing" textLength="819" x="796.5" y="37.1182">Databricks-Native DQ Platform -- Frontend &amp; Orchestration Layer</text><!--cluster Databricks Apps (Frontend)--><g id="cluster_Databricks Apps (Frontend)"><path d="M1295.5,299.0073 L1513.5,299.0073 A3.75,3.75 0 0 1 1516,301.5073 L1523,322.022 L2381.5,322.022 A2.5,2.5 0 0 1 2384,324.522 L2384,652.0073 A2.5,2.5 0 0 1 2381.5,654.5073 L1295.5,654.5073 A2.5,2.5 0 0 1 1293,652.0073 L1293,301.5073 A2.5,2.5 0 0 1 1295.5,299.0073 " fill="#FFFFFF" style="stroke:#000000;stroke-width:1.0;"/><line style="stroke:#000000;stroke-width:1.0;" x1="1293" x2="1523" y1="322.022" y2="322.022"/><text fill="#000000" font-family="Verdana" font-size="14" font-weight="bold" lengthAdjust="spacing" textLength="217" x="1297" y="315.0825">Databricks Apps (Frontend)</text></g><!--cluster UI--><g id="cluster_UI"><rect fill="#E3F2FD" height="116" rx="5" ry="5" style="stroke:#1565C0;stroke-width:1.0;" width="656" x="1704" y="343.0073"/><text fill="#000000" font-family="Verdana" font-size="14" font-weight="bold" lengthAdjust="spacing" textLength="86" x="1989" y="359.0825">Chatbot UI</text></g><!--cluster ObsUI--><g id="cluster_ObsUI"><rect fill="#E3F2FD" height="279" rx="5" ry="5" style="stroke:#1565C0;stroke-width:1.0;" width="363" x="1317" y="351.5073"/><text fill="#000000" font-family="Verdana" font-size="14" font-weight="bold" lengthAdjust="spacing" textLength="125" x="1436" y="367.5825">Observability UI</text></g><!--cluster Databricks App Backend (Orchestration)--><g id="cluster_Databricks App Backend (Orchestration)"><path d="M13.5,99.6473 L329.5,99.6473 A3.75,3.75 0 0 1 332,102.1473 L339,122.662 L1180.5,122.662 A2.5,2.5 0 0 1 1183,125.162 L1183,1068.0073 A2.5,2.5 0 0 1 1180.5,1070.5073 L13.5,1070.5073 A2.5,2.5 0 0 1 11,1068.0073 L11,102.1473 A2.5,2.5 0 0 1 13.5,99.6473 " fill="#FFFFFF" style="stroke:#000000;stroke-width:1.0;"/><line style="stroke:#000000;stroke-width:1.0;" x1="11" x2="339" y1="122.662" y2="122.662"/><text fill="#000000" font-family="Verdana" font-size="14" font-weight="bold" lengthAdjust="spacing" textLength="315" x="15" y="115.7225">Databricks App Backend (Orchestration)</text></g><!--cluster LangGraph--><g id="cluster_LangGraph"><rect fill="#E3F2FD" height="306.86" rx="5" ry="5" style="stroke:#1565C0;stroke-width:1.0;" width="556" x="595" y="151.6473"/><text fill="#000000" font-family="Verdana" font-size="14" font-weight="bold" lengthAdjust="spacing" textLength="189" x="778.5" y="167.7225">LangGraph Orchestrator</text></g><!--cluster Agents--><g id="cluster_Agents"><rect fill="#E3F2FD" height="303" rx="5" ry="5" style="stroke:#1565C0;stroke-width:1.0;" width="652" x="43" y="523.5073"/><text fill="#000000" font-family="Verdana" font-size="14" font-weight="bold" lengthAdjust="spacing" textLength="144" x="297" y="539.5825">Interactive Agents</text></g><!--cluster ToolLayer--><g id="cluster_ToolLayer"><rect fill="#E3F2FD" height="327" rx="5" ry="5" style="stroke:#1565C0;stroke-width:1.0;" width="416" x="735" y="711.5073"/><text fill="#000000" font-family="Verdana" font-size="14" font-weight="bold" lengthAdjust="spacing" textLength="203" x="841.5" y="727.5825">Tool / MCP Adapter Layer</text></g><!--cluster AI--><g id="cluster_AI"><rect fill="#E3F2FD" height="116" rx="5" ry="5" style="stroke:#1565C0;stroke-width:1.0;" width="463" x="1207" y="711.0073"/><text fill="#000000" font-family="Verdana" font-size="14" font-weight="bold" lengthAdjust="spacing" textLength="185" x="1346" y="727.0825">Model Serving Endpoint</text></g><!--cluster SessionDB--><g id="cluster_SessionDB"><path d="M1596,901.5073 C1596,891.5073 1797,891.5073 1797,891.5073 C1797,891.5073 1998,891.5073 1998,901.5073 L1998,1028.5073 C1998,1038.5073 1797,1038.5073 1797,1038.5073 C1797,1038.5073 1596,1038.5073 1596,1028.5073 L1596,901.5073 " fill="#E8F5E9" style="stroke:#2E7D32;stroke-width:1.0;"/><path d="M1596,901.5073 C1596,911.5073 1797,911.5073 1797,911.5073 C1797,911.5073 1998,911.5073 1998,901.5073 " fill="none" style="stroke:#2E7D32;stroke-width:1.0;"/><text fill="#000000" font-family="Verdana" font-size="14" font-weight="bold" lengthAdjust="spacing" textLength="104" x="1745" y="927.5825">Session State</text><text fill="#000000" font-family="Verdana" font-size="14" font-weight="bold" lengthAdjust="spacing" textLength="110" x="1742" y="944.5971">(Delta Tables)</text></g><!--entity ChatUI--><g id="elem_ChatUI"><rect fill="#FFFFFF" height="64.0293" rx="2.5" ry="2.5" style="stroke:#000000;stroke-width:1.0;" width="211" x="2132.5" y="379.0073"/><rect fill="#FFFFFF" height="10" style="stroke:#000000;stroke-width:1.0;" width="15" x="2323.5" y="384.0073"/><rect fill="#FFFFFF" height="2" style="stroke:#000000;stroke-width:1.0;" width="4" x="2321.5" y="386.0073"/><rect fill="#FFFFFF" height="2" style="stroke:#000000;stroke-width:1.0;" width="4" x="2321.5" y="390.0073"/><text fill="#000000" font-family="Verdana" font-size="14" lengthAdjust="spacing" textLength="115" x="2147.5" y="413.0825">Streamlit/Gradio</text><text fill="#000000" font-family="Verdana" font-size="14" lengthAdjust="spacing" textLength="171" x="2147.5" y="430.0971">Conversational Interface</text></g><!--entity ApprovalUI--><g id="elem_ApprovalUI"><rect fill="#FFFFFF" height="47.0146" rx="2.5" ry="2.5" style="stroke:#000000;stroke-width:1.0;" width="184" x="1913" y="387.5073"/><rect fill="#FFFFFF" height="10" style="stroke:#000000;stroke-width:1.0;" width="15" x="2077" y="392.5073"/><rect fill="#FFFFFF" height="2" style="stroke:#000000;stroke-width:1.0;" width="4" x="2075" y="394.5073"/><rect fill="#FFFFFF" height="2" style="stroke:#000000;stroke-width:1.0;" width="4" x="2075" y="398.5073"/><text fill="#000000" font-family="Verdana" font-size="14" lengthAdjust="spacing" textLength="144" x="1928" y="421.5825">Approval Dashboard</text></g><!--entity IncidentUI--><g id="elem_IncidentUI"><rect fill="#FFFFFF" height="47.0146" rx="2.5" ry="2.5" style="stroke:#000000;stroke-width:1.0;" width="157" x="1720.5" y="387.5073"/><rect fill="#FFFFFF" height="10" style="stroke:#000000;stroke-width:1.0;" width="15" x="1857.5" y="392.5073"/><rect fill="#FFFFFF" height="2" style="stroke:#000000;stroke-width:1.0;" width="4" x="1855.5" y="394.5073"/><rect fill="#FFFFFF" height="2" style="stroke:#000000;stroke-width:1.0;" width="4" x="1855.5" y="398.5073"/><text fill="#000000" font-family="Verdana" font-size="14" lengthAdjust="spacing" textLength="117" x="1735.5" y="421.5825">Incident Timeline</text></g><!--entity ToolTrace--><g id="elem_ToolTrace"><rect fill="#FFFFFF" height="47.0146" rx="2.5" ry="2.5" style="stroke:#000000;stroke-width:1.0;" width="142" x="1333" y="387.5073"/><rect fill="#FFFFFF" height="10" style="stroke:#000000;stroke-width:1.0;" width="15" x="1455" y="392.5073"/><rect fill="#FFFFFF" height="2" style="stroke:#000000;stroke-width:1.0;" width="4" x="1453" y="394.5073"/><rect fill="#FFFFFF" height="2" style="stroke:#000000;stroke-width:1.0;" width="4" x="1453" y="398.5073"/><text fill="#000000" font-family="Verdana" font-size="14" lengthAdjust="spacing" textLength="102" x="1348" y="421.5825">Tool Call Trace</text></g><!--entity RetrievalQuality--><g id="elem_RetrievalQuality"><rect fill="#FFFFFF" height="47.0146" rx="2.5" ry="2.5" style="stroke:#000000;stroke-width:1.0;" width="153" x="1510.5" y="387.5073"/><rect fill="#FFFFFF" height="10" style="stroke:#000000;stroke-width:1.0;" width="15" x="1643.5" y="392.5073"/><rect fill="#FFFFFF" height="2" style="stroke:#000000;stroke-width:1.0;" width="4" x="1641.5" y="394.5073"/><rect fill="#FFFFFF" height="2" style="stroke:#000000;stroke-width:1.0;" width="4" x="1641.5" y="398.5073"/><text fill="#000000" font-family="Verdana" font-size="14" lengthAdjust="spacing" textLength="113" x="1525.5" y="421.5825">Retrieval Quality</text></g><!--entity AutoFixMetrics--><g id="elem_AutoFixMetrics"><rect fill="#FFFFFF" height="47.0146" rx="2.5" ry="2.5" style="stroke:#000000;stroke-width:1.0;" width="200" x="1333" y="567.5073"/><rect fill="#FFFFFF" height="10" style="stroke:#000000;stroke-width:1.0;" width="15" x="1513" y="572.5073"/><rect fill="#FFFFFF" height="2" style="stroke:#000000;stroke-width:1.0;" width="4" x="1511" y="574.5073"/><rect fill="#FFFFFF" height="2" style="stroke:#000000;stroke-width:1.0;" width="4" x="1511" y="578.5073"/><text fill="#000000" font-family="Verdana" font-size="14" lengthAdjust="spacing" textLength="160" x="1348" y="601.5825">Auto-Fix Success Rate</text></g><!--entity IntentRouter--><g id="elem_IntentRouter"><rect fill="#FFFFFF" height="47.0146" rx="2.5" ry="2.5" style="stroke:#000000;stroke-width:1.0;" width="136" x="814" y="387.5073"/><rect fill="#FFFFFF" height="10" style="stroke:#000000;stroke-width:1.0;" width="15" x="930" y="392.5073"/><rect fill="#FFFFFF" height="2" style="stroke:#000000;stroke-width:1.0;" width="4" x="928" y="394.5073"/><rect fill="#FFFFFF" height="2" style="stroke:#000000;stroke-width:1.0;" width="4" x="928" y="398.5073"/><text fill="#000000" font-family="Verdana" font-size="14" lengthAdjust="spacing" textLength="96" x="829" y="421.5825">Intent Router</text></g><!--entity StateManager--><g id="elem_StateManager"><rect fill="#FFFFFF" height="47.0146" rx="2.5" ry="2.5" style="stroke:#000000;stroke-width:1.0;" width="142" x="985" y="387.5073"/><rect fill="#FFFFFF" height="10" style="stroke:#000000;stroke-width:1.0;" width="15" x="1107" y="392.5073"/><rect fill="#FFFFFF" height="2" style="stroke:#000000;stroke-width:1.0;" width="4" x="1105" y="394.5073"/><rect fill="#FFFFFF" height="2" style="stroke:#000000;stroke-width:1.0;" width="4" x="1105" y="398.5073"/><text fill="#000000" font-family="Verdana" font-size="14" lengthAdjust="spacing" textLength="102" x="1000" y="421.5825">State Manager</text></g><!--entity ToolCoordinator--><g id="elem_ToolCoordinator"><rect fill="#FFFFFF" height="47.0146" rx="2.5" ry="2.5" style="stroke:#000000;stroke-width:1.0;" width="159" x="619.5" y="387.5073"/><rect fill="#FFFFFF" height="10" style="stroke:#000000;stroke-width:1.0;" width="15" x="758.5" y="392.5073"/><rect fill="#FFFFFF" height="2" style="stroke:#000000;stroke-width:1.0;" width="4" x="756.5" y="394.5073"/><rect fill="#FFFFFF" height="2" style="stroke:#000000;stroke-width:1.0;" width="4" x="756.5" y="398.5073"/><text fill="#000000" font-family="Verdana" font-size="14" lengthAdjust="spacing" textLength="119" x="634.5" y="421.5825">Tool Coordinator</text></g><!--entity RetrievalAgent--><g id="elem_RetrievalAgent"><rect fill="#FFFFFF" height="47.0146" rx="2.5" ry="2.5" style="stroke:#000000;stroke-width:1.0;" width="147" x="67.5" y="567.5073"/><rect fill="#FFFFFF" height="10" style="stroke:#000000;stroke-width:1.0;" width="15" x="194.5" y="572.5073"/><rect fill="#FFFFFF" height="2" style="stroke:#000000;stroke-width:1.0;" width="4" x="192.5" y="574.5073"/><rect fill="#FFFFFF" height="2" style="stroke:#000000;stroke-width:1.0;" width="4" x="192.5" y="578.5073"/><text fill="#000000" font-family="Verdana" font-size="14" lengthAdjust="spacing" textLength="107" x="82.5" y="601.5825">Retrieval Agent</text></g><!--entity LogAgent--><g id="elem_LogAgent"><rect fill="#FFFFFF" height="47.0146" rx="2.5" ry="2.5" style="stroke:#000000;stroke-width:1.0;" width="175" x="249.5" y="567.5073"/><rect fill="#FFFFFF" height="10" style="stroke:#000000;stroke-width:1.0;" width="15" x="404.5" y="572.5073"/><rect fill="#FFFFFF" height="2" style="stroke:#000000;stroke-width:1.0;" width="4" x="402.5" y="574.5073"/><rect fill="#FFFFFF" height="2" style="stroke:#000000;stroke-width:1.0;" width="4" x="402.5" y="578.5073"/><text fill="#000000" font-family="Verdana" font-size="14" lengthAdjust="spacing" textLength="135" x="264.5" y="601.5825">Log Analysis Agent</text></g><!--entity SQLAgent--><g id="elem_SQLAgent"><rect fill="#FFFFFF" height="47.0146" rx="2.5" ry="2.5" style="stroke:#000000;stroke-width:1.0;" width="192" x="460" y="567.5073"/><rect fill="#FFFFFF" height="10" style="stroke:#000000;stroke-width:1.0;" width="15" x="632" y="572.5073"/><rect fill="#FFFFFF" height="2" style="stroke:#000000;stroke-width:1.0;" width="4" x="630" y="574.5073"/><rect fill="#FFFFFF" height="2" style="stroke:#000000;stroke-width:1.0;" width="4" x="630" y="578.5073"/><text fill="#000000" font-family="Verdana" font-size="14" lengthAdjust="spacing" textLength="152" x="475" y="601.5825">SQL Generator Agent</text></g><!--entity DiagAgent--><g id="elem_DiagAgent"><rect fill="#FFFFFF" height="47.0146" rx="2.5" ry="2.5" style="stroke:#000000;stroke-width:1.0;" width="155" x="67.5" y="755.5073"/><rect fill="#FFFFFF" height="10" style="stroke:#000000;stroke-width:1.0;" width="15" x="202.5" y="760.5073"/><rect fill="#FFFFFF" height="2" style="stroke:#000000;stroke-width:1.0;" width="4" x="200.5" y="762.5073"/><rect fill="#FFFFFF" height="2" style="stroke:#000000;stroke-width:1.0;" width="4" x="200.5" y="766.5073"/><text fill="#000000" font-family="Verdana" font-size="14" lengthAdjust="spacing" textLength="115" x="82.5" y="789.5825">Diagnosis Agent</text></g><!--entity RecommendAgent--><g id="elem_RecommendAgent"><rect fill="#FFFFFF" height="47.0146" rx="2.5" ry="2.5" style="stroke:#000000;stroke-width:1.0;" width="208" x="258" y="755.5073"/><rect fill="#FFFFFF" height="10" style="stroke:#000000;stroke-width:1.0;" width="15" x="446" y="760.5073"/><rect fill="#FFFFFF" height="2" style="stroke:#000000;stroke-width:1.0;" width="4" x="444" y="762.5073"/><rect fill="#FFFFFF" height="2" style="stroke:#000000;stroke-width:1.0;" width="4" x="444" y="766.5073"/><text fill="#000000" font-family="Verdana" font-size="14" lengthAdjust="spacing" textLength="168" x="273" y="789.5825">Recommendation Agent</text></g><!--entity JiraAPI--><g id="elem_JiraAPI"><rect fill="#FFFFFF" height="47.0146" rx="2.5" ry="2.5" style="stroke:#000000;stroke-width:1.0;" width="91" x="786.5" y="755.5073"/><rect fill="#FFFFFF" height="10" style="stroke:#000000;stroke-width:1.0;" width="15" x="857.5" y="760.5073"/><rect fill="#FFFFFF" height="2" style="stroke:#000000;stroke-width:1.0;" width="4" x="855.5" y="762.5073"/><rect fill="#FFFFFF" height="2" style="stroke:#000000;stroke-width:1.0;" width="4" x="855.5" y="766.5073"/><text fill="#000000" font-family="Verdana" font-size="14" lengthAdjust="spacing" textLength="51" x="801.5" y="789.5825">Jira API</text></g><!--entity GitHubAPI--><g id="elem_GitHubAPI"><rect fill="#FFFFFF" height="47.0146" rx="2.5" ry="2.5" style="stroke:#000000;stroke-width:1.0;" width="116" x="913" y="755.5073"/><rect fill="#FFFFFF" height="10" style="stroke:#000000;stroke-width:1.0;" width="15" x="1009" y="760.5073"/><rect fill="#FFFFFF" height="2" style="stroke:#000000;stroke-width:1.0;" width="4" x="1007" y="762.5073"/><rect fill="#FFFFFF" height="2" style="stroke:#000000;stroke-width:1.0;" width="4" x="1007" y="766.5073"/><text fill="#000000" font-family="Verdana" font-size="14" lengthAdjust="spacing" textLength="76" x="928" y="789.5825">GitHub API</text></g><!--entity ConfluenceAPI--><g id="elem_ConfluenceAPI"><rect fill="#FFFFFF" height="47.0146" rx="2.5" ry="2.5" style="stroke:#000000;stroke-width:1.0;" width="145" x="759.5" y="967.5073"/><rect fill="#FFFFFF" height="10" style="stroke:#000000;stroke-width:1.0;" width="15" x="884.5" y="972.5073"/><rect fill="#FFFFFF" height="2" style="stroke:#000000;stroke-width:1.0;" width="4" x="882.5" y="974.5073"/><rect fill="#FFFFFF" height="2" style="stroke:#000000;stroke-width:1.0;" width="4" x="882.5" y="978.5073"/><text fill="#000000" font-family="Verdana" font-size="14" lengthAdjust="spacing" textLength="105" x="774.5" y="1001.5825">Confluence API</text></g><!--entity JobsAPI--><g id="elem_JobsAPI"><rect fill="#FFFFFF" height="47.0146" rx="2.5" ry="2.5" style="stroke:#000000;stroke-width:1.0;" width="179" x="939.5" y="967.5073"/><rect fill="#FFFFFF" height="10" style="stroke:#000000;stroke-width:1.0;" width="15" x="1098.5" y="972.5073"/><rect fill="#FFFFFF" height="2" style="stroke:#000000;stroke-width:1.0;" width="4" x="1096.5" y="974.5073"/><rect fill="#FFFFFF" height="2" style="stroke:#000000;stroke-width:1.0;" width="4" x="1096.5" y="978.5073"/><text fill="#000000" font-family="Verdana" font-size="14" lengthAdjust="spacing" textLength="139" x="954.5" y="1001.5825">Databricks Jobs API</text></g><!--entity LLM--><g id="elem_LLM"><rect fill="#FFFFFF" height="64.0293" rx="2.5" ry="2.5" style="stroke:#000000;stroke-width:1.0;" width="209" x="1444.5" y="747.0073"/><rect fill="#FFFFFF" height="10" style="stroke:#000000;stroke-width:1.0;" width="15" x="1633.5" y="752.0073"/><rect fill="#FFFFFF" height="2" style="stroke:#000000;stroke-width:1.0;" width="4" x="1631.5" y="754.0073"/><rect fill="#FFFFFF" height="2" style="stroke:#000000;stroke-width:1.0;" width="4" x="1631.5" y="758.0073"/><text fill="#000000" font-family="Verdana" font-size="14" lengthAdjust="spacing" textLength="95" x="1459.5" y="781.0825">LLM Endpoint</text><text fill="#000000" font-family="Verdana" font-size="14" lengthAdjust="spacing" textLength="169" x="1459.5" y="798.0971">(Intent/SQL/Reasoning)</text></g><!--entity Embed--><g id="elem_Embed"><rect fill="#FFFFFF" height="64.0293" rx="2.5" ry="2.5" style="stroke:#000000;stroke-width:1.0;" width="186" x="1223" y="747.0073"/><rect fill="#FFFFFF" height="10" style="stroke:#000000;stroke-width:1.0;" width="15" x="1389" y="752.0073"/><rect fill="#FFFFFF" height="2" style="stroke:#000000;stroke-width:1.0;" width="4" x="1387" y="754.0073"/><rect fill="#FFFFFF" height="2" style="stroke:#000000;stroke-width:1.0;" width="4" x="1387" y="758.0073"/><text fill="#000000" font-family="Verdana" font-size="14" lengthAdjust="spacing" textLength="146" x="1238" y="781.0825">Embedding Endpoint</text><text fill="#000000" font-family="Verdana" font-size="14" lengthAdjust="spacing" textLength="69" x="1238" y="798.0971">(BGE-M3)</text></g><!--entity agent_session_log--><g id="elem_agent_session_log"><rect fill="#FFFFFF" height="47.0146" rx="2.5" ry="2.5" style="stroke:#000000;stroke-width:1.0;" width="172" x="1802" y="967.5073"/><rect fill="#FFFFFF" height="10" style="stroke:#000000;stroke-width:1.0;" width="15" x="1954" y="972.5073"/><rect fill="#FFFFFF" height="2" style="stroke:#000000;stroke-width:1.0;" width="4" x="1952" y="974.5073"/><rect fill="#FFFFFF" height="2" style="stroke:#000000;stroke-width:1.0;" width="4" x="1952" y="978.5073"/><text fill="#000000" font-family="Verdana" font-size="14" lengthAdjust="spacing" textLength="132" x="1817" y="1001.5825">agent_session_log</text></g><!--entity tool_call_log--><g id="elem_tool_call_log"><rect fill="#FFFFFF" height="47.0146" rx="2.5" ry="2.5" style="stroke:#000000;stroke-width:1.0;" width="127" x="1639.5" y="967.5073"/><rect fill="#FFFFFF" height="10" style="stroke:#000000;stroke-width:1.0;" width="15" x="1746.5" y="972.5073"/><rect fill="#FFFFFF" height="2" style="stroke:#000000;stroke-width:1.0;" width="4" x="1744.5" y="974.5073"/><rect fill="#FFFFFF" height="2" style="stroke:#000000;stroke-width:1.0;" width="4" x="1744.5" y="978.5073"/><text fill="#000000" font-family="Verdana" font-size="14" lengthAdjust="spacing" textLength="87" x="1654.5" y="1001.5825">tool_call_log</text></g><!--entity User--><g id="elem_User"><ellipse cx="2135" cy="133.0073" fill="#FFFFFF" rx="8" ry="8" style="stroke:#000000;stroke-width:1.0;"/><path d="M2135,141.0073 L2135,168.0073 M2122,149.0073 L2148,149.0073 M2135,168.0073 L2122,183.0073 M2135,168.0073 L2148,183.0073 " fill="none" style="stroke:#000000;stroke-width:1.0;"/><text fill="#000000" font-family="Verdana" font-size="14" lengthAdjust="spacing" textLength="99" x="2075" y="199.0825">Data Engineer</text><text fill="#000000" font-family="Verdana" font-size="14" lengthAdjust="spacing" textLength="120" x="2075" y="216.0971">Business Analyst</text><text fill="#000000" font-family="Verdana" font-size="14" lengthAdjust="spacing" textLength="104" x="2075" y="233.1118">Product Owner</text></g><g id="elem_GMN44"><path d="M2230,143.5073 L2230,216.7046 L2414,216.7046 L2414,153.5073 L2404,143.5073 L2230,143.5073 " fill="#FFFFFF" style="stroke:#000000;stroke-width:1.0;"/><path d="M2404,143.5073 L2404,153.5073 L2414,153.5073 L2404,143.5073 " fill="#FFFFFF" style="stroke:#000000;stroke-width:1.0;"/><text fill="#000000" font-family="Verdana" font-size="13" font-weight="bold" lengthAdjust="spacing" textLength="152" x="2236" y="161.5771">A2A Communication:</text><text fill="#000000" font-family="Verdana" font-size="13" lengthAdjust="spacing" textLength="162" x="2236" y="177.3764">Agents communicate via</text><text fill="#000000" font-family="Verdana" font-size="13" lengthAdjust="spacing" textLength="163" x="2236" y="193.1758">LangGraph shared state,</text><text fill="#000000" font-family="Verdana" font-size="13" lengthAdjust="spacing" textLength="118" x="2236" y="208.9751">not peer-to-peer.</text></g><g id="elem_GMN47"><path d="M1199,954.5073 L1199,1027.7046 L1387,1027.7046 L1387,964.5073 L1377,954.5073 L1199,954.5073 " fill="#FFFFFF" style="stroke:#000000;stroke-width:1.0;"/><path d="M1377,954.5073 L1377,964.5073 L1387,964.5073 L1377,954.5073 " fill="#FFFFFF" style="stroke:#000000;stroke-width:1.0;"/><text fill="#000000" font-family="Verdana" font-size="13" font-weight="bold" lengthAdjust="spacing" textLength="103" x="1205" y="972.5771">MCP Strategy:</text><text fill="#000000" font-family="Verdana" font-size="13" lengthAdjust="spacing" textLength="160" x="1205" y="988.3764">Phase 1: REST adapters</text><text fill="#000000" font-family="Verdana" font-size="13" lengthAdjust="spacing" textLength="153" x="1205" y="1004.1758">Phase 2: MCP gateway</text><text fill="#000000" font-family="Verdana" font-size="13" lengthAdjust="spacing" textLength="167" x="1205" y="1019.9751">if standardization needed</text></g><!--link User to ChatUI--><g id="link_User_ChatUI"><path d="M2159.8,236.1473 C2179.92,280.8873 2205.0985,336.8555 2221.5585,373.4455 " fill="none" id="User-to-ChatUI" style="stroke:#000000;stroke-width:1.0;"/><polygon fill="#000000" points="2224.02,378.9173,2223.9756,369.0685,2221.9687,374.3574,2216.6799,372.3506,2224.02,378.9173" style="stroke:#000000;stroke-width:1.0;"/><text fill="#000000" font-family="Verdana" font-size="13" lengthAdjust="spacing" textLength="153" x="2181" y="280.0771">Natural language query</text></g><!--link ChatUI to LangGraph--><g id="link_ChatUI_LangGraph"><path d="M2215.55,378.7673 C2193.43,350.6473 2156.92,310.7873 2115,291.0073 C2102.76,285.2323 1861.6075,257.9248 1622.5963,231.9648 C1503.0906,218.9848 1384.1203,206.3417 1294.567,196.8954 C1249.7904,192.1723 1212.368,188.2484 1185.9101,185.4812 C1172.6811,184.0976 1162.1933,183.0032 1154.8979,182.2427 C1153.9859,182.1476 1153.1239,182.0577 1152.3126,181.9732 C1151.907,181.9309 1157.4817,182.5118 1157.1015,182.4722 " fill="none" id="ChatUI-to-LangGraph" style="stroke:#000000;stroke-width:1.0;"/><polygon fill="#000000" points="1151.1339,181.8504,1159.6708,186.7615,1156.1069,182.3685,1160.4999,178.8046,1151.1339,181.8504" style="stroke:#000000;stroke-width:1.0;"/><text fill="#000000" font-family="Verdana" font-size="13" lengthAdjust="spacing" textLength="91" x="2056" y="280.0771">User message</text></g><!--link LangGraph to ChatUI--><g id="link_LangGraph_ChatUI"><path d="M1151.4679,182.5457 C1152.4759,182.7279 1153.5706,182.9255 1154.7501,183.1379 C1157.1092,183.5628 1159.8078,184.0472 1162.8317,184.5876 C1174.9271,186.7489 1192.2266,189.8053 1213.8183,193.5276 C1257.0016,200.9723 1317.3531,211.0811 1387.5763,222.0223 C1528.0225,243.9048 1707.955,269.1173 1869,283.0073 C1896.25,285.3573 2089.82,280.3373 2115,291.0073 C2158.09,309.2573 2191.0924,345.3182 2212.8924,374.0382 " fill="none" id="LangGraph-to-ChatUI" style="stroke:#000000;stroke-width:1.0;"/><polygon fill="#000000" points="2216.52,378.8173,2214.2647,369.2302,2213.497,374.8347,2207.8925,374.067,2216.52,378.8173" style="stroke:#000000;stroke-width:1.0;"/><text fill="#000000" font-family="Verdana" font-size="13" lengthAdjust="spacing" textLength="62" x="1870" y="280.0771">Response</text></g><!--link LangGraph to IntentRouter--><g id="link_LangGraph_IntentRouter"><path d="M1142.92,181.0373 C1139.64,182.4873 1033.98,229.1573 968,291.0073 C936.94,320.1173 912.8675,356.7248 897.7475,382.2548 " fill="none" id="LangGraph-to-IntentRouter" style="stroke:#000000;stroke-width:1.0;"/><polygon fill="#000000" points="894.69,387.4173,902.7179,381.7118,897.2379,383.1152,895.8345,377.6352,894.69,387.4173" style="stroke:#000000;stroke-width:1.0;"/><text fill="#000000" font-family="Verdana" font-size="13" lengthAdjust="spacing" textLength="38" x="994" y="280.0771">Route</text></g><!--link IntentRouter to Agents--><g id="link_IntentRouter_Agents"><path d="M857.3,434.5473 C831.475,458.1223 789.8175,496.1498 754.1687,528.6923 C736.3444,544.9636 720.0222,559.8636 707.9323,570.9001 C704.9099,573.6593 702.1519,576.1769 699.7012,578.4142 C698.4758,579.5328 697.3272,580.5814 696.2608,581.5549 C695.9941,581.7983 695.7327,582.037 695.4764,582.271 C695.3483,582.388 699.6527,578.4585 699.5272,578.573 " fill="none" id="IntentRouter-to-Agents" style="stroke:#000000;stroke-width:1.0;"/><polygon fill="#000000" points="695.0959,582.6183,704.4396,579.5046,698.7886,579.2473,699.0459,573.5963,695.0959,582.6183" style="stroke:#000000;stroke-width:1.0;"/><text fill="#000000" font-family="Verdana" font-size="13" lengthAdjust="spacing" textLength="94" x="802" y="496.5771">Invoke agents</text></g><!--link Agents to LLM--><g id="link_Agents_LLM"><path d="M695.7105,593.4633 C696.0082,593.513 696.3131,593.5638 696.6251,593.6159 C697.2492,593.7199 697.9018,593.8288 698.5826,593.9423 C699.944,594.1694 701.4178,594.4152 702.9998,594.679 C706.1637,595.2067 709.7604,595.8065 713.7568,596.4729 C729.7426,599.1384 752.1242,602.8695 778.7891,607.3117 C832.1188,616.1961 902.5813,627.9248 973.275,639.6623 C1114.6625,663.1373 1256.975,686.6473 1265,687.5073 C1300.84,691.3373 1392.81,684.0973 1427,695.5073 C1459.38,706.3073 1486.5007,724.5094 1509.5007,743.0694 " fill="none" id="Agents-to-LLM" style="stroke:#000000;stroke-width:1.0;"/><polygon fill="#000000" points="1514.17,746.8373,1509.678,738.0725,1510.2789,743.6974,1504.654,744.2983,1514.17,746.8373" style="stroke:#000000;stroke-width:1.0;"/><text fill="#000000" font-family="Verdana" font-size="13" lengthAdjust="spacing" textLength="97" x="1266" y="684.5771">Inference calls</text></g><!--link Agents to ToolLayer--><g id="link_Agents_ToolLayer"><path d="M695.4904,594.5929 C695.6681,594.6465 695.8485,594.701 696.0315,594.7562 C696.7636,594.977 697.5377,595.2101 698.353,595.4553 C704.8756,597.4165 714.034,600.146 725.3711,603.4628 C748.0453,610.0964 779.4344,619.0792 815.8812,628.9636 C888.775,648.7323 981.9,672.1073 1066,687.5073 C1081.18,690.2873 1124.19,684.4873 1135,695.5073 C1138.125,698.6911 1140.6105,702.3136 1142.5655,706.2219 C1143.0542,707.1989 1143.5098,708.1939 1143.934,709.2043 C1144.146,709.7095 1144.3502,710.2186 1144.5468,710.7312 C1144.6451,710.9875 1142.6787,705.6105 1142.7732,705.8685 " fill="none" id="Agents-to-ToolLayer" style="stroke:#000000;stroke-width:1.0;"/><polygon fill="#000000" points="1144.8359,711.5028,1145.4979,701.6762,1143.117,706.8076,1137.9856,704.4266,1144.8359,711.5028" style="stroke:#000000;stroke-width:1.0;"/><text fill="#000000" font-family="Verdana" font-size="13" lengthAdjust="spacing" textLength="87" x="1067" y="684.5771">External calls</text></g><!--link ToolLayer to SessionDB--><g id="link_ToolLayer_SessionDB"><path d="M1151.0027,791.2839 C1151.245,791.6042 1151.4922,791.9296 1151.7443,792.2597 C1152.7526,793.5803 1153.8392,794.977 1154.999,796.4342 C1157.3188,799.3485 1159.9319,802.5045 1162.8,805.7761 C1174.2725,818.8623 1189.825,833.7973 1207,842.5073 C1246.78,862.6873 1363,860.4773 1405,875.5073 C1452.285,892.4273 1501.2325,920.4298 1538.7512,944.5061 C1557.5106,956.5442 1573.4128,967.6007 1584.8214,975.7996 C1587.6736,977.8494 1590.2449,979.7205 1592.5097,981.3837 C1593.6422,982.2153 1589.879,979.4204 1590.855,980.1444 " fill="none" id="ToolLayer-to-SessionDB" style="stroke:#000000;stroke-width:1.0;"/><polygon fill="#000000" points="1595.674,983.7189,1590.8286,975.1445,1591.6582,980.7401,1586.0625,981.5698,1595.674,983.7189" style="stroke:#000000;stroke-width:1.0;"/><text fill="#000000" font-family="Verdana" font-size="13" lengthAdjust="spacing" textLength="34" x="1365" y="864.5771">Audit</text></g><!--link LangGraph to StateManager--><g id="link_LangGraph_StateManager"><path d="M1142.94,181.1773 C1140.82,186.7373 1088.2105,325.2183 1066.7005,381.8483 " fill="none" id="LangGraph-to-StateManager" style="stroke:#000000;stroke-width:1.0;"/><polygon fill="#000000" points="1064.57,387.4573,1071.5051,380.4641,1066.3454,382.7831,1064.0264,377.6235,1064.57,387.4573" style="stroke:#000000;stroke-width:1.0;"/><text fill="#000000" font-family="Verdana" font-size="13" lengthAdjust="spacing" textLength="91" x="1110" y="280.0771">Manage state</text></g><!--link StateManager to SessionDB--><g id="link_StateManager_SessionDB"><path d="M1071.34,434.8373 C1107.25,486.1373 1202.49,610.1173 1317,662.5073 C1352.82,678.8973 1643.47,666.3873 1670,695.5073 C1714,743.8073 1700.13,784.5373 1670,842.5073 C1658.23,865.1573 1636.59,853.9073 1623,875.5073 C1621.31,878.1936 1619.756,880.9827 1618.3277,883.8518 C1617.6136,885.2864 1616.9308,886.7409 1616.2782,888.2127 C1615.9519,888.9485 1615.6331,889.6887 1615.3217,890.4328 C1615.2439,890.6188 1617.4544,885.2584 1617.3775,885.4449 " fill="none" id="StateManager-to-SessionDB" style="stroke:#000000;stroke-width:1.0;"/><polygon fill="#000000" points="1615.0896,890.9915,1622.2192,884.1968,1616.9962,886.3693,1614.8237,881.1463,1615.0896,890.9915" style="stroke:#000000;stroke-width:1.0;"/><text fill="#000000" font-family="Verdana" font-size="13" lengthAdjust="spacing" textLength="44" x="1653" y="684.5771">Persist</text></g><!--link LangGraph to GMN44--><g id="link_LangGraph_GMN44"><path d="M1151.0821,178.7643 C1151.3604,178.7219 1151.6456,178.6784 1151.9377,178.6338 C1156.6119,177.9214 1163.06,176.945 1171.1384,175.7367 C1187.2953,173.3201 1209.9737,169.9761 1238.0261,165.9611 C1294.1309,157.9311 1371.7319,147.2173 1461.6488,135.8723 C1641.4825,113.1823 1870.58,87.9673 2075.5,76.6473 C2128.75,73.7073 2145.26,58.7373 2195.5,76.6473 C2232.63,89.8873 2266.73,119.2173 2290.15,143.2673 " fill="none" id="LangGraph-GMN44" style="stroke:#000000;stroke-width:1.0;stroke-dasharray:7.0,7.0;"/></g><!--link ToolLayer to GMN47--><g id="link_ToolLayer_GMN47"><path d="M1151.2907,791.6137 C1151.3944,791.7588 1151.4989,791.9051 1151.6042,792.0526 C1151.8148,792.3475 1152.0289,792.6472 1152.2463,792.9516 C1153.9854,795.3867 1155.9382,798.1209 1158.077,801.1154 C1166.6322,813.0936 1178.1631,829.2373 1190.8987,847.0673 C1216.37,882.7273 1246.66,925.1323 1267.6,954.4473 " fill="none" id="ToolLayer-GMN47" style="stroke:#000000;stroke-width:1.0;stroke-dasharray:7.0,7.0;"/></g><!--SRC=[TLPRRo8t57wVNt5AfIehbR8XocwBLf48bvGLD0J8MwJ8CsC6ApFsrFQmIrVvxpt77kO2x0CQ-pkVZy_T_69tFEEGfqp8m0gRSXWpoq8jeZVJ_OTPiKVa2POfirkbC-XsOQgLj5p6y1iywcZ7ZTN8KnBcxC1r49Wt8NEcMGQQHvR919N-203kMVIMQ5N8UAHIfU7NoSsqFnsJHEcOwnAzllrqE_g8wCfJjUGQhZy6xmt5CTd8pC_q_ZczdVnrghS_-Jo-wQEQW4KMWGuv2XEP2CcvVf7tXS6LCJ2KB3qO-oANMiL5PE7n6vhG0MRWsP23ELx84kur-531CCyDN1r3yw7ZBAlzxunsp8RAmlFCAvev0a2aibn9BYrqrbPpbgN2zXuqYuLwaICbzrmR5rsMmWnrwosBk5D16fzdfqhG3gtsI1upimiLqx4Z7-7p0pCPYPXM6v7n52FW-4VKyT_nr_RcCSH0x5aeqDh3qIS4BxcrKIg54KjJsEYZxOIvtIbvnQqMdEn_AXWfT_GABS4pfmkhkbFn7TP5554ALypwYqY2WWKfY8ppvVsd2NILH8LzrQhhysJEyOivodUD1b2-GchHZ_D8M_fYMTkod3pYWVDgG1zWmIGQwjaEAO7BGLPOxq9MjX3Om2vcqjKKDWJr-J11NSR7pItFVQZpunZjx3ZezCHS9ML72TCuXF15-lff3WyS-uqiRl0HlyWV2vP8rTPDs4NoYkCcmmpxUTLqeHGSZvq7oaMu1ulH4eOnop5gVjvLaNQxyuXz5Ph1SEbRX3QuFkKy2Fjt4LOilxt0mtcmJGik8rvnQ-W2lr7UNrLeQZDmu-ck7HfUBbJCKrXZSmkPu72CSoNA60rzRpTJErzKb1TvvQkvXvdghJWpIgAA3pxPyqNxv2GBUHmthy3pzm-JxkB6dt04igsQz9qrDZPbpRK1qiSynVczOM7AZJzKCiRtfuOookghyUBNL2MTjjnY-buZ755UXjVIeCUtxgwSiZ00V0iBZNMVOgGA6Xx_5bmVWb9ErBhr1-wXW0mlH6PG2uZMR7fakaNG0ebLDk00wNlrni6vO88ITjTXz4cyvTfL1DdV8jH5EO39TrHCRuXdrI8Yrd4RuC2CXJsnk3buaE9NO0WDMh9JPKjyl8GvLLU5TCKDPi3m890APvqMoSw2sjQ1n2nz2U-6_I6MUPOLKaIkSGTVUk4ToafVeqh6OIyO2khxp8vf7djRVqS9NWGvFlTTV33e-qT0yvwkBut0DzggZAoeOkIjeCPVqw3doU5em797bNcDdapM6s1-B9XAq1-uSP7WcM-C7Ysn9Kjm_E18_i_F8Fpl4MEbLrRy3m00]--></g></svg>