<?xml version="1.0" encoding="us-ascii" standalone="no"?><svg xmlns="http://www.w3.org/2000/svg" xmlns:xlink="http://www.w3.org/1999/xlink" contentStyleType="text/css" height="1223px" preserveAspectRatio="none" style="width:2543px;height:1223px;background:#FFFFFF;" version="1.1" viewBox="0 0 2543 1223" width="2543px" zoomAndPan="magnify"><defs/><g><text fill="#000000" font-family="Verdana" font-size="22" font-weight="bold" lengthAdjust="spacing" textLength="819" x="857.5" y="37.1182">Databricks-Native DQ Platform -- Frontend &amp; Orchestration Layer</text><!--cluster Databricks Apps  (Frontend + Orchestration)\nDeployed via: databricks apps deploy\nRuntime: Serverless container  |  Auto-scale 0 ? N  |  SSO (Databricks OAuth)--><g id="cluster_Databricks Apps  (Frontend + Orchestration)\nDeployed via: databricks apps deploy\nRuntime: Serverless container  |  Auto-scale 0 &#8594; N  |  SSO (Databricks OAuth)"><path d="M1295.5,411.3173 L1905.5,411.3173 A3.75,3.75 0 0 1 1908,413.8173 L1915,468.3612 L2381.5,468.3612 A2.5,2.5 0 0 1 2384,470.8612 L2384,798.3173 A2.5,2.5 0 0 1 2381.5,800.8173 L1295.5,800.8173 A2.5,2.5 0 0 1 1293,798.3173 L1293,413.8173 A2.5,2.5 0 0 1 1295.5,411.3173 " fill="#FFFFFF" style="stroke:#000000;stroke-width:1.0;"/><line style="stroke:#000000;stroke-width:1.0;" x1="1293" x2="1915" y1="468.3612" y2="468.3612"/><text fill="#000000" font-family="Verdana" font-size="14" font-weight="bold" lengthAdjust="spacing" textLength="350" x="1426.5" y="427.3925">Databricks Apps  (Frontend + Orchestration)</text><text fill="#000000" font-family="Verdana" font-size="14" font-weight="bold" lengthAdjust="spacing" textLength="289" x="1457" y="444.4071">Deployed via: databricks apps deploy</text><text fill="#000000" font-family="Verdana" font-size="14" font-weight="bold" lengthAdjust="spacing" textLength="609" x="1297" y="461.4218">Runtime: Serverless container  |  Auto-scale 0 &#8594; N  |  SSO (Databricks OAuth)</text></g><!--cluster UI--><g id="cluster_UI"><rect fill="#E3F2FD" height="116" rx="5" ry="5" style="stroke:#1565C0;stroke-width:1.0;" width="656" x="1704" y="489.3173"/><text fill="#000000" font-family="Verdana" font-size="14" font-weight="bold" lengthAdjust="spacing" textLength="86" x="1989" y="505.3925">Chatbot UI</text></g><!--cluster ObsUI--><g id="cluster_ObsUI"><rect fill="#E3F2FD" height="279" rx="5" ry="5" style="stroke:#1565C0;stroke-width:1.0;" width="363" x="1317" y="497.8173"/><text fill="#000000" font-family="Verdana" font-size="14" font-weight="bold" lengthAdjust="spacing" textLength="125" x="1436" y="513.8925">Observability UI</text></g><!--cluster Databricks App Backend (Orchestration)\nLangGraph runs IN-PROCESS inside this container ? NOT a separate service--><g id="cluster_Databricks App Backend (Orchestration)\nLangGraph runs IN-PROCESS inside this container &#8212; NOT a separate service"><path d="M13.5,101.4573 L607.5,101.4573 A3.75,3.75 0 0 1 610,103.9573 L617,141.4866 L1180.5,141.4866 A2.5,2.5 0 0 1 1183,143.9866 L1183,1214.3173 A2.5,2.5 0 0 1 1180.5,1216.8173 L13.5,1216.8173 A2.5,2.5 0 0 1 11,1214.3173 L11,103.9573 A2.5,2.5 0 0 1 13.5,101.4573 " fill="#FFFFFF" style="stroke:#000000;stroke-width:1.0;"/><line style="stroke:#000000;stroke-width:1.0;" x1="11" x2="617" y1="141.4866" y2="141.4866"/><text fill="#000000" font-family="Verdana" font-size="14" font-weight="bold" lengthAdjust="spacing" textLength="315" x="154" y="117.5325">Databricks App Backend (Orchestration)</text><text fill="#000000" font-family="Verdana" font-size="14" font-weight="bold" lengthAdjust="spacing" textLength="593" x="15" y="134.5471">LangGraph runs IN-PROCESS inside this container &#8212; NOT a separate service</text></g><!--cluster LangGraph--><g id="cluster_LangGraph"><rect fill="#E3F2FD" height="434.36" rx="5" ry="5" style="stroke:#1565C0;stroke-width:1.0;" width="556" x="595" y="170.4573"/><text fill="#000000" font-family="Verdana" font-size="14" font-weight="bold" lengthAdjust="spacing" textLength="189" x="778.5" y="186.5325">LangGraph Orchestrator</text><text fill="#000000" font-family="Verdana" font-size="14" font-weight="bold" lengthAdjust="spacing" textLength="287" x="729.5" y="203.5471">[Runs IN Databricks Apps container]</text><text fill="#000000" font-family="Verdana" font-size="14" font-weight="bold" lengthAdjust="spacing" textLength="451" x="647.5" y="220.5618">[Python StateGraph &#8212; NOT a separate Databricks service]</text></g><!--cluster Agents--><g id="cluster_Agents"><rect fill="#E3F2FD" height="303" rx="5" ry="5" style="stroke:#1565C0;stroke-width:1.0;" width="652" x="43" y="669.8173"/><text fill="#000000" font-family="Verdana" font-size="14" font-weight="bold" lengthAdjust="spacing" textLength="144" x="297" y="685.8925">Interactive Agents</text></g><!--cluster ToolLayer--><g id="cluster_ToolLayer"><rect fill="#E3F2FD" height="327" rx="5" ry="5" style="stroke:#1565C0;stroke-width:1.0;" width="416" x="735" y="857.8173"/><text fill="#000000" font-family="Verdana" font-size="14" font-weight="bold" lengthAdjust="spacing" textLength="203" x="841.5" y="873.8925">Tool / MCP Adapter Layer</text></g><!--cluster AI--><g id="cluster_AI"><rect fill="#E3F2FD" height="116" rx="5" ry="5" style="stroke:#1565C0;stroke-width:1.0;" width="463" x="1207" y="857.3173"/><text fill="#000000" font-family="Verdana" font-size="14" font-weight="bold" lengthAdjust="spacing" textLength="185" x="1346" y="873.3925">Model Serving Endpoint</text></g><!--cluster SessionDB--><g id="cluster_SessionDB"><path d="M1596,1047.8173 C1596,1037.8173 1797,1037.8173 1797,1037.8173 C1797,1037.8173 1998,1037.8173 1998,1047.8173 L1998,1174.8173 C1998,1184.8173 1797,1184.8173 1797,1184.8173 C1797,1184.8173 1596,1184.8173 1596,1174.8173 L1596,1047.8173 " fill="#E8F5E9" style="stroke:#2E7D32;stroke-width:1.0;"/><path d="M1596,1047.8173 C1596,1057.8173 1797,1057.8173 1797,1057.8173 C1797,1057.8173 1998,1057.8173 1998,1047.8173 " fill="none" style="stroke:#2E7D32;stroke-width:1.0;"/><text fill="#000000" font-family="Verdana" font-size="14" font-weight="bold" lengthAdjust="spacing" textLength="104" x="1745" y="1073.8925">Session State</text><text fill="#000000" font-family="Verdana" font-size="14" font-weight="bold" lengthAdjust="spacing" textLength="110" x="1742" y="1090.9071">(Delta Tables)</text></g><!--entity ChatUI--><g id="elem_ChatUI"><rect fill="#FFFFFF" height="64.0293" rx="2.5" ry="2.5" style="stroke:#000000;stroke-width:1.0;" width="211" x="2132.5" y="525.3173"/><rect fill="#FFFFFF" height="10" style="stroke:#000000;stroke-width:1.0;" width="15" x="2323.5" y="530.3173"/><rect fill="#FFFFFF" height="2" style="stroke:#000000;stroke-width:1.0;" width="4" x="2321.5" y="532.3173"/><rect fill="#FFFFFF" height="2" style="stroke:#000000;stroke-width:1.0;" width="4" x="2321.5" y="536.3173"/><text fill="#000000" font-family="Verdana" font-size="14" lengthAdjust="spacing" textLength="115" x="2147.5" y="559.3925">Streamlit/Gradio</text><text fill="#000000" font-family="Verdana" font-size="14" lengthAdjust="spacing" textLength="171" x="2147.5" y="576.4071">Conversational Interface</text></g><!--entity ApprovalUI--><g id="elem_ApprovalUI"><rect fill="#FFFFFF" height="47.0146" rx="2.5" ry="2.5" style="stroke:#000000;stroke-width:1.0;" width="184" x="1913" y="533.8173"/><rect fill="#FFFFFF" height="10" style="stroke:#000000;stroke-width:1.0;" width="15" x="2077" y="538.8173"/><rect fill="#FFFFFF" height="2" style="stroke:#000000;stroke-width:1.0;" width="4" x="2075" y="540.8173"/><rect fill="#FFFFFF" height="2" style="stroke:#000000;stroke-width:1.0;" width="4" x="2075" y="544.8173"/><text fill="#000000" font-family="Verdana" font-size="14" lengthAdjust="spacing" textLength="144" x="1928" y="567.8925">Approval Dashboard</text></g><!--entity IncidentUI--><g id="elem_IncidentUI"><rect fill="#FFFFFF" height="47.0146" rx="2.5" ry="2.5" style="stroke:#000000;stroke-width:1.0;" width="157" x="1720.5" y="533.8173"/><rect fill="#FFFFFF" height="10" style="stroke:#000000;stroke-width:1.0;" width="15" x="1857.5" y="538.8173"/><rect fill="#FFFFFF" height="2" style="stroke:#000000;stroke-width:1.0;" width="4" x="1855.5" y="540.8173"/><rect fill="#FFFFFF" height="2" style="stroke:#000000;stroke-width:1.0;" width="4" x="1855.5" y="544.8173"/><text fill="#000000" font-family="Verdana" font-size="14" lengthAdjust="spacing" textLength="117" x="1735.5" y="567.8925">Incident Timeline</text></g><!--entity ToolTrace--><g id="elem_ToolTrace"><rect fill="#FFFFFF" height="47.0146" rx="2.5" ry="2.5" style="stroke:#000000;stroke-width:1.0;" width="142" x="1333" y="533.8173"/><rect fill="#FFFFFF" height="10" style="stroke:#000000;stroke-width:1.0;" width="15" x="1455" y="538.8173"/><rect fill="#FFFFFF" height="2" style="stroke:#000000;stroke-width:1.0;" width="4" x="1453" y="540.8173"/><rect fill="#FFFFFF" height="2" style="stroke:#000000;stroke-width:1.0;" width="4" x="1453" y="544.8173"/><text fill="#000000" font-family="Verdana" font-size="14" lengthAdjust="spacing" textLength="102" x="1348" y="567.8925">Tool Call Trace</text></g><!--entity RetrievalQuality--><g id="elem_RetrievalQuality"><rect fill="#FFFFFF" height="47.0146" rx="2.5" ry="2.5" style="stroke:#000000;stroke-width:1.0;" width="153" x="1510.5" y="533.8173"/><rect fill="#FFFFFF" height="10" style="stroke:#000000;stroke-width:1.0;" width="15" x="1643.5" y="538.8173"/><rect fill="#FFFFFF" height="2" style="stroke:#000000;stroke-width:1.0;" width="4" x="1641.5" y="540.8173"/><rect fill="#FFFFFF" height="2" style="stroke:#000000;stroke-width:1.0;" width="4" x="1641.5" y="544.8173"/><text fill="#000000" font-family="Verdana" font-size="14" lengthAdjust="spacing" textLength="113" x="1525.5" y="567.8925">Retrieval Quality</text></g><!--entity AutoFixMetrics--><g id="elem_AutoFixMetrics"><rect fill="#FFFFFF" height="47.0146" rx="2.5" ry="2.5" style="stroke:#000000;stroke-width:1.0;" width="200" x="1333" y="713.8173"/><rect fill="#FFFFFF" height="10" style="stroke:#000000;stroke-width:1.0;" width="15" x="1513" y="718.8173"/><rect fill="#FFFFFF" height="2" style="stroke:#000000;stroke-width:1.0;" width="4" x="1511" y="720.8173"/><rect fill="#FFFFFF" height="2" style="stroke:#000000;stroke-width:1.0;" width="4" x="1511" y="724.8173"/><text fill="#000000" font-family="Verdana" font-size="14" lengthAdjust="spacing" textLength="160" x="1348" y="747.8925">Auto-Fix Success Rate</text></g><!--entity IntentRouter--><g id="elem_IntentRouter"><rect fill="#FFFFFF" height="47.0146" rx="2.5" ry="2.5" style="stroke:#000000;stroke-width:1.0;" width="136" x="814" y="533.8173"/><rect fill="#FFFFFF" height="10" style="stroke:#000000;stroke-width:1.0;" width="15" x="930" y="538.8173"/><rect fill="#FFFFFF" height="2" style="stroke:#000000;stroke-width:1.0;" width="4" x="928" y="540.8173"/><rect fill="#FFFFFF" height="2" style="stroke:#000000;stroke-width:1.0;" width="4" x="928" y="544.8173"/><text fill="#000000" font-family="Verdana" font-size="14" lengthAdjust="spacing" textLength="96" x="829" y="567.8925">Intent Router</text></g><!--entity StateManager--><g id="elem_StateManager"><rect fill="#FFFFFF" height="47.0146" rx="2.5" ry="2.5" style="stroke:#000000;stroke-width:1.0;" width="142" x="985" y="533.8173"/><rect fill="#FFFFFF" height="10" style="stroke:#000000;stroke-width:1.0;" width="15" x="1107" y="538.8173"/><rect fill="#FFFFFF" height="2" style="stroke:#000000;stroke-width:1.0;" width="4" x="1105" y="540.8173"/><rect fill="#FFFFFF" height="2" style="stroke:#000000;stroke-width:1.0;" width="4" x="1105" y="544.8173"/><text fill="#000000" font-family="Verdana" font-size="14" lengthAdjust="spacing" textLength="102" x="1000" y="567.8925">State Manager</text></g><!--entity ToolCoordinator--><g id="elem_ToolCoordinator"><rect fill="#FFFFFF" height="47.0146" rx="2.5" ry="2.5" style="stroke:#000000;stroke-width:1.0;" width="159" x="619.5" y="533.8173"/><rect fill="#FFFFFF" height="10" style="stroke:#000000;stroke-width:1.0;" width="15" x="758.5" y="538.8173"/><rect fill="#FFFFFF" height="2" style="stroke:#000000;stroke-width:1.0;" width="4" x="756.5" y="540.8173"/><rect fill="#FFFFFF" height="2" style="stroke:#000000;stroke-width:1.0;" width="4" x="756.5" y="544.8173"/><text fill="#000000" font-family="Verdana" font-size="14" lengthAdjust="spacing" textLength="119" x="634.5" y="567.8925">Tool Coordinator</text></g><!--entity RetrievalAgent--><g id="elem_RetrievalAgent"><rect fill="#FFFFFF" height="47.0146" rx="2.5" ry="2.5" style="stroke:#000000;stroke-width:1.0;" width="147" x="67.5" y="713.8173"/><rect fill="#FFFFFF" height="10" style="stroke:#000000;stroke-width:1.0;" width="15" x="194.5" y="718.8173"/><rect fill="#FFFFFF" height="2" style="stroke:#000000;stroke-width:1.0;" width="4" x="192.5" y="720.8173"/><rect fill="#FFFFFF" height="2" style="stroke:#000000;stroke-width:1.0;" width="4" x="192.5" y="724.8173"/><text fill="#000000" font-family="Verdana" font-size="14" lengthAdjust="spacing" textLength="107" x="82.5" y="747.8925">Retrieval Agent</text></g><!--entity LogAgent--><g id="elem_LogAgent"><rect fill="#FFFFFF" height="47.0146" rx="2.5" ry="2.5" style="stroke:#000000;stroke-width:1.0;" width="175" x="249.5" y="713.8173"/><rect fill="#FFFFFF" height="10" style="stroke:#000000;stroke-width:1.0;" width="15" x="404.5" y="718.8173"/><rect fill="#FFFFFF" height="2" style="stroke:#000000;stroke-width:1.0;" width="4" x="402.5" y="720.8173"/><rect fill="#FFFFFF" height="2" style="stroke:#000000;stroke-width:1.0;" width="4" x="402.5" y="724.8173"/><text fill="#000000" font-family="Verdana" font-size="14" lengthAdjust="spacing" textLength="135" x="264.5" y="747.8925">Log Analysis Agent</text></g><!--entity SQLAgent--><g id="elem_SQLAgent"><rect fill="#FFFFFF" height="47.0146" rx="2.5" ry="2.5" style="stroke:#000000;stroke-width:1.0;" width="192" x="460" y="713.8173"/><rect fill="#FFFFFF" height="10" style="stroke:#000000;stroke-width:1.0;" width="15" x="632" y="718.8173"/><rect fill="#FFFFFF" height="2" style="stroke:#000000;stroke-width:1.0;" width="4" x="630" y="720.8173"/><rect fill="#FFFFFF" height="2" style="stroke:#000000;stroke-width:1.0;" width="4" x="630" y="724.8173"/><text fill="#000000" font-family="Verdana" font-size="14" lengthAdjust="spacing" textLength="152" x="475" y="747.8925">SQL Generator Agent</text></g><!--entity DiagAgent--><g id="elem_DiagAgent"><rect fill="#FFFFFF" height="47.0146" rx="2.5" ry="2.5" style="stroke:#000000;stroke-width:1.0;" width="155" x="67.5" y="901.8173"/><rect fill="#FFFFFF" height="10" style="stroke:#000000;stroke-width:1.0;" width="15" x="202.5" y="906.8173"/><rect fill="#FFFFFF" height="2" style="stroke:#000000;stroke-width:1.0;" width="4" x="200.5" y="908.8173"/><rect fill="#FFFFFF" height="2" style="stroke:#000000;stroke-width:1.0;" width="4" x="200.5" y="912.8173"/><text fill="#000000" font-family="Verdana" font-size="14" lengthAdjust="spacing" textLength="115" x="82.5" y="935.8925">Diagnosis Agent</text></g><!--entity RecommendAgent--><g id="elem_RecommendAgent"><rect fill="#FFFFFF" height="47.0146" rx="2.5" ry="2.5" style="stroke:#000000;stroke-width:1.0;" width="208" x="258" y="901.8173"/><rect fill="#FFFFFF" height="10" style="stroke:#000000;stroke-width:1.0;" width="15" x="446" y="906.8173"/><rect fill="#FFFFFF" height="2" style="stroke:#000000;stroke-width:1.0;" width="4" x="444" y="908.8173"/><rect fill="#FFFFFF" height="2" style="stroke:#000000;stroke-width:1.0;" width="4" x="444" y="912.8173"/><text fill="#000000" font-family="Verdana" font-size="14" lengthAdjust="spacing" textLength="168" x="273" y="935.8925">Recommendation Agent</text></g><!--entity JiraAPI--><g id="elem_JiraAPI"><rect fill="#FFFFFF" height="47.0146" rx="2.5" ry="2.5" style="stroke:#000000;stroke-width:1.0;" width="91" x="786.5" y="901.8173"/><rect fill="#FFFFFF" height="10" style="stroke:#000000;stroke-width:1.0;" width="15" x="857.5" y="906.8173"/><rect fill="#FFFFFF" height="2" style="stroke:#000000;stroke-width:1.0;" width="4" x="855.5" y="908.8173"/><rect fill="#FFFFFF" height="2" style="stroke:#000000;stroke-width:1.0;" width="4" x="855.5" y="912.8173"/><text fill="#000000" font-family="Verdana" font-size="14" lengthAdjust="spacing" textLength="51" x="801.5" y="935.8925">Jira API</text></g><!--entity GitHubAPI--><g id="elem_GitHubAPI"><rect fill="#FFFFFF" height="47.0146" rx="2.5" ry="2.5" style="stroke:#000000;stroke-width:1.0;" width="116" x="913" y="901.8173"/><rect fill="#FFFFFF" height="10" style="stroke:#000000;stroke-width:1.0;" width="15" x="1009" y="906.8173"/><rect fill="#FFFFFF" height="2" style="stroke:#000000;stroke-width:1.0;" width="4" x="1007" y="908.8173"/><rect fill="#FFFFFF" height="2" style="stroke:#000000;stroke-width:1.0;" width="4" x="1007" y="912.8173"/><text fill="#000000" font-family="Verdana" font-size="14" lengthAdjust="spacing" textLength="76" x="928" y="935.8925">GitHub API</text></g><!--entity ConfluenceAPI--><g id="elem_ConfluenceAPI"><rect fill="#FFFFFF" height="47.0146" rx="2.5" ry="2.5" style="stroke:#000000;stroke-width:1.0;" width="145" x="759.5" y="1113.8173"/><rect fill="#FFFFFF" height="10" style="stroke:#000000;stroke-width:1.0;" width="15" x="884.5" y="1118.8173"/><rect fill="#FFFFFF" height="2" style="stroke:#000000;stroke-width:1.0;" width="4" x="882.5" y="1120.8173"/><rect fill="#FFFFFF" height="2" style="stroke:#000000;stroke-width:1.0;" width="4" x="882.5" y="1124.8173"/><text fill="#000000" font-family="Verdana" font-size="14" lengthAdjust="spacing" textLength="105" x="774.5" y="1147.8925">Confluence API</text></g><!--entity JobsAPI--><g id="elem_JobsAPI"><rect fill="#FFFFFF" height="47.0146" rx="2.5" ry="2.5" style="stroke:#000000;stroke-width:1.0;" width="179" x="939.5" y="1113.8173"/><rect fill="#FFFFFF" height="10" style="stroke:#000000;stroke-width:1.0;" width="15" x="1098.5" y="1118.8173"/><rect fill="#FFFFFF" height="2" style="stroke:#000000;stroke-width:1.0;" width="4" x="1096.5" y="1120.8173"/><rect fill="#FFFFFF" height="2" style="stroke:#000000;stroke-width:1.0;" width="4" x="1096.5" y="1124.8173"/><text fill="#000000" font-family="Verdana" font-size="14" lengthAdjust="spacing" textLength="139" x="954.5" y="1147.8925">Databricks Jobs API</text></g><!--entity LLM--><g id="elem_LLM"><rect fill="#FFFFFF" height="64.0293" rx="2.5" ry="2.5" style="stroke:#000000;stroke-width:1.0;" width="209" x="1444.5" y="893.3173"/><rect fill="#FFFFFF" height="10" style="stroke:#000000;stroke-width:1.0;" width="15" x="1633.5" y="898.3173"/><rect fill="#FFFFFF" height="2" style="stroke:#000000;stroke-width:1.0;" width="4" x="1631.5" y="900.3173"/><rect fill="#FFFFFF" height="2" style="stroke:#000000;stroke-width:1.0;" width="4" x="1631.5" y="904.3173"/><text fill="#000000" font-family="Verdana" font-size="14" lengthAdjust="spacing" textLength="95" x="1459.5" y="927.3925">LLM Endpoint</text><text fill="#000000" font-family="Verdana" font-size="14" lengthAdjust="spacing" textLength="169" x="1459.5" y="944.4071">(Intent/SQL/Reasoning)</text></g><!--entity Embed--><g id="elem_Embed"><rect fill="#FFFFFF" height="64.0293" rx="2.5" ry="2.5" style="stroke:#000000;stroke-width:1.0;" width="186" x="1223" y="893.3173"/><rect fill="#FFFFFF" height="10" style="stroke:#000000;stroke-width:1.0;" width="15" x="1389" y="898.3173"/><rect fill="#FFFFFF" height="2" style="stroke:#000000;stroke-width:1.0;" width="4" x="1387" y="900.3173"/><rect fill="#FFFFFF" height="2" style="stroke:#000000;stroke-width:1.0;" width="4" x="1387" y="904.3173"/><text fill="#000000" font-family="Verdana" font-size="14" lengthAdjust="spacing" textLength="146" x="1238" y="927.3925">Embedding Endpoint</text><text fill="#000000" font-family="Verdana" font-size="14" lengthAdjust="spacing" textLength="69" x="1238" y="944.4071">(BGE-M3)</text></g><!--entity agent_session_log--><g id="elem_agent_session_log"><rect fill="#FFFFFF" height="47.0146" rx="2.5" ry="2.5" style="stroke:#000000;stroke-width:1.0;" width="172" x="1802" y="1113.8173"/><rect fill="#FFFFFF" height="10" style="stroke:#000000;stroke-width:1.0;" width="15" x="1954" y="1118.8173"/><rect fill="#FFFFFF" height="2" style="stroke:#000000;stroke-width:1.0;" width="4" x="1952" y="1120.8173"/><rect fill="#FFFFFF" height="2" style="stroke:#000000;stroke-width:1.0;" width="4" x="1952" y="1124.8173"/><text fill="#000000" font-family="Verdana" font-size="14" lengthAdjust="spacing" textLength="132" x="1817" y="1147.8925">agent_session_log</text></g><!--entity tool_call_log--><g id="elem_tool_call_log"><rect fill="#FFFFFF" height="47.0146" rx="2.5" ry="2.5" style="stroke:#000000;stroke-width:1.0;" width="127" x="1639.5" y="1113.8173"/><rect fill="#FFFFFF" height="10" style="stroke:#000000;stroke-width:1.0;" width="15" x="1746.5" y="1118.8173"/><rect fill="#FFFFFF" height="2" style="stroke:#000000;stroke-width:1.0;" width="4" x="1744.5" y="1120.8173"/><rect fill="#FFFFFF" height="2" style="stroke:#000000;stroke-width:1.0;" width="4" x="1744.5" y="1124.8173"/><text fill="#000000" font-family="Verdana" font-size="14" lengthAdjust="spacing" textLength="87" x="1654.5" y="1147.8925">tool_call_log</text></g><!--entity User--><g id="elem_User"><ellipse cx="2135" cy="185.8173" fill="#FFFFFF" rx="8" ry="8" style="stroke:#000000;stroke-width:1.0;"/><path d="M2135,193.8173 L2135,220.8173 M2122,201.8173 L2148,201.8173 M2135,220.8173 L2122,235.8173 M2135,220.8173 L2148,235.8173 " fill="none" style="stroke:#000000;stroke-width:1.0;"/><text fill="#000000" font-family="Verdana" font-size="14" lengthAdjust="spacing" textLength="99" x="2075" y="251.8925">Data Engineer</text><text fill="#000000" font-family="Verdana" font-size="14" lengthAdjust="spacing" textLength="120" x="2075" y="268.9071">Business Analyst</text><text fill="#000000" font-family="Verdana" font-size="14" lengthAdjust="spacing" textLength="104" x="2075" y="285.9218">Product Owner</text></g><g id="elem_GMN44"><path d="M2230,117.3173 L2230,348.5077 L2536,348.5077 L2536,127.3173 L2526,117.3173 L2230,117.3173 " fill="#FFFFFF" style="stroke:#000000;stroke-width:1.0;"/><path d="M2526,117.3173 L2526,127.3173 L2536,127.3173 L2526,117.3173 " fill="#FFFFFF" style="stroke:#000000;stroke-width:1.0;"/><text fill="#000000" font-family="Verdana" font-size="13" font-weight="bold" lengthAdjust="spacing" textLength="93" x="2236" y="135.3871">Deployment:</text><text fill="#000000" font-family="Verdana" font-size="13" lengthAdjust="spacing" textLength="106" x="2339" y="135.3871">Databricks Apps</text><text fill="#000000" font-family="Verdana" font-size="13" font-weight="bold" lengthAdjust="spacing" textLength="37" x="2236" y="151.1864">How:</text><text fill="#000000" font-family="Verdana" font-size="13" lengthAdjust="spacing" textLength="152" x="2283" y="151.1864">databricks apps deploy</text><text fill="#000000" font-family="Verdana" font-size="13" font-weight="bold" lengthAdjust="spacing" textLength="106" x="2236" y="166.9858">Requirements:</text><text fill="#000000" font-family="Verdana" font-size="13" lengthAdjust="spacing" textLength="116" x="2352" y="166.9858">langgraph&gt;=0.2.0</text><text fill="#000000" font-family="Verdana" font-size="13" font-weight="bold" lengthAdjust="spacing" textLength="44" x="2236" y="182.7851">State:</text><text fill="#000000" font-family="Verdana" font-size="13" lengthAdjust="spacing" textLength="188" x="2290" y="182.7851">TypedDict (in-RAM per turn)</text><text fill="#000000" font-family="Verdana" font-size="13" font-weight="bold" lengthAdjust="spacing" textLength="125" x="2236" y="198.5844">Cross-turn state:</text><text fill="#000000" font-family="Verdana" font-size="13" lengthAdjust="spacing" textLength="150" x="2371" y="198.5844">DeltaLakeCheckpointer</text><text fill="#000000" font-family="Verdana" font-size="13" lengthAdjust="spacing" textLength="270" x="2236" y="214.3837">&#9472;&#9472;&#9472;&#9472;&#9472;&#9472;&#9472;&#9472;&#9472;&#9472;&#9472;&#9472;&#9472;&#9472;&#9472;&#9472;&#9472;&#9472;&#9472;&#9472;&#9472;&#9472;&#9472;&#9472;&#9472;&#9472;&#9472;&#9472;&#9472;&#9472;</text><text fill="#000000" font-family="Verdana" font-size="13" font-weight="bold" lengthAdjust="spacing" textLength="152" x="2236" y="230.183">A2A Communication:</text><text fill="#000000" font-family="Verdana" font-size="13" lengthAdjust="spacing" textLength="162" x="2236" y="245.9823">Agents communicate via</text><text fill="#000000" font-family="Verdana" font-size="13" lengthAdjust="spacing" textLength="163" x="2236" y="261.7817">LangGraph shared state,</text><text fill="#000000" font-family="Verdana" font-size="13" lengthAdjust="spacing" textLength="118" x="2236" y="277.581">not peer-to-peer.</text><text fill="#000000" font-family="Verdana" font-size="13" lengthAdjust="spacing" textLength="270" x="2236" y="293.3803">&#9472;&#9472;&#9472;&#9472;&#9472;&#9472;&#9472;&#9472;&#9472;&#9472;&#9472;&#9472;&#9472;&#9472;&#9472;&#9472;&#9472;&#9472;&#9472;&#9472;&#9472;&#9472;&#9472;&#9472;&#9472;&#9472;&#9472;&#9472;&#9472;&#9472;</text><text fill="#000000" font-family="Verdana" font-size="13" font-weight="bold" lengthAdjust="spacing" textLength="100" x="2236" y="309.1796">Async D2/D3:</text><text fill="#000000" font-family="Verdana" font-size="13" lengthAdjust="spacing" textLength="164" x="2346" y="309.1796">Same LangGraph pattern</text><text fill="#000000" font-family="Verdana" font-size="13" lengthAdjust="spacing" textLength="217" x="2236" y="324.9789">but runs in Databricks Workflows</text><text fill="#000000" font-family="Verdana" font-size="13" lengthAdjust="spacing" textLength="205" x="2236" y="340.7782">(Python Wheel task, not Apps)</text></g><g id="elem_GMN47"><path d="M1199,1100.8173 L1199,1174.0146 L1387,1174.0146 L1387,1110.8173 L1377,1100.8173 L1199,1100.8173 " fill="#FFFFFF" style="stroke:#000000;stroke-width:1.0;"/><path d="M1377,1100.8173 L1377,1110.8173 L1387,1110.8173 L1377,1100.8173 " fill="#FFFFFF" style="stroke:#000000;stroke-width:1.0;"/><text fill="#000000" font-family="Verdana" font-size="13" font-weight="bold" lengthAdjust="spacing" textLength="103" x="1205" y="1118.8871">MCP Strategy:</text><text fill="#000000" font-family="Verdana" font-size="13" lengthAdjust="spacing" textLength="160" x="1205" y="1134.6864">Phase 1: REST adapters</text><text fill="#000000" font-family="Verdana" font-size="13" lengthAdjust="spacing" textLength="153" x="1205" y="1150.4858">Phase 2: MCP gateway</text><text fill="#000000" font-family="Verdana" font-size="13" lengthAdjust="spacing" textLength="167" x="1205" y="1166.2851">if standardization needed</text></g><!--link User to ChatUI--><g id="link_User_ChatUI"><path d="M2152.59,288.8873 C2174.31,356.8973 2208.6849,464.5316 2226.1449,519.2116 " fill="none" id="User-to-ChatUI" style="stroke:#000000;stroke-width:1.0;"/><polygon fill="#000000" points="2227.97,524.9273,2229.0428,515.1371,2226.4491,520.1642,2221.4219,517.5705,2227.97,524.9273" style="stroke:#000000;stroke-width:1.0;"/><text fill="#000000" font-family="Verdana" font-size="13" lengthAdjust="spacing" textLength="153" x="2187" y="392.3871">Natural language query</text></g><!--link ChatUI to LangGraph--><g id="link_ChatUI_LangGraph"><path d="M2222.05,525.1473 C2202.1,489.5573 2164.46,432.5073 2115,403.3173 C2109.12,399.8473 1867.9925,357.7898 1627.4038,316.4423 C1507.1094,295.7686 1386.9497,275.2723 1296.398,259.8657 C1251.1221,252.1625 1213.2482,245.7316 1186.4605,241.1872 C1173.0667,238.915 1162.4444,237.1144 1155.0541,235.8622 C1154.1303,235.7056 1153.257,235.5577 1152.4351,235.4184 C1152.0242,235.3488 1157.5418,236.2835 1157.1567,236.2183 " fill="none" id="ChatUI-to-LangGraph" style="stroke:#000000;stroke-width:1.0;"/><polygon fill="#000000" points="1151.241,235.2161,1159.4464,240.6632,1156.1707,236.0513,1160.7827,232.7756,1151.241,235.2161" style="stroke:#000000;stroke-width:1.0;"/><text fill="#000000" font-family="Verdana" font-size="13" lengthAdjust="spacing" textLength="91" x="2074" y="392.3871">User message</text></g><!--link LangGraph to ChatUI--><g id="link_LangGraph_ChatUI"><path d="M1151.1945,236.0664 C1151.45,236.1362 1151.7114,236.2075 1151.9785,236.2803 C1153.0469,236.5716 1154.2072,236.8874 1155.4575,237.2269 C1157.9582,237.9059 1160.8191,238.68 1164.0252,239.5434 C1176.8496,242.9968 1195.1976,247.8785 1218.112,253.819 C1263.9409,265.7001 1328.0356,281.8167 1402.7388,299.2136 C1552.145,334.0073 1743.985,373.9223 1917,395.3173 C1938.85,398.0173 2095.34,393.4073 2115,403.3173 C2166.89,429.4773 2201.4396,483.3404 2220.5896,519.9604 " fill="none" id="LangGraph-to-ChatUI" style="stroke:#000000;stroke-width:1.0;"/><polygon fill="#000000" points="2223.37,525.2773,2222.744,515.4484,2221.053,520.8466,2215.6548,519.1556,2223.37,525.2773" style="stroke:#000000;stroke-width:1.0;"/><text fill="#000000" font-family="Verdana" font-size="13" lengthAdjust="spacing" textLength="62" x="1918" y="392.3871">Response</text></g><!--link LangGraph to IntentRouter--><g id="link_LangGraph_IntentRouter"><path d="M1142.92,233.8773 C1139.61,236.4373 1033.07,318.8973 968,403.3173 C935.07,446.0373 909.107,497.3801 894.647,528.3701 " fill="none" id="LangGraph-to-IntentRouter" style="stroke:#000000;stroke-width:1.0;"/><polygon fill="#000000" points="892.11,533.8073,899.5404,527.3428,894.2242,529.2763,892.2907,523.9601,892.11,533.8073" style="stroke:#000000;stroke-width:1.0;"/><text fill="#000000" font-family="Verdana" font-size="13" lengthAdjust="spacing" textLength="38" x="985" y="392.3871">Route</text></g><!--link IntentRouter to Agents--><g id="link_IntentRouter_Agents"><path d="M857.3,580.8573 C831.475,604.4323 789.8175,642.4598 754.1687,675.0023 C736.3444,691.2736 720.0222,706.1736 707.9323,717.2101 C704.9099,719.9693 702.1519,722.4869 699.7012,724.7242 C698.4758,725.8428 697.3272,726.8914 696.2608,727.8649 C695.9941,728.1083 695.7327,728.347 695.4764,728.581 C695.3483,728.698 699.6527,724.7685 699.5272,724.883 " fill="none" id="IntentRouter-to-Agents" style="stroke:#000000;stroke-width:1.0;"/><polygon fill="#000000" points="695.0959,728.9283,704.4396,725.8146,698.7886,725.5573,699.0459,719.9063,695.0959,728.9283" style="stroke:#000000;stroke-width:1.0;"/><text fill="#000000" font-family="Verdana" font-size="13" lengthAdjust="spacing" textLength="94" x="802" y="642.8871">Invoke agents</text></g><!--link Agents to LLM--><g id="link_Agents_LLM"><path d="M695.7105,739.7733 C696.0082,739.823 696.3131,739.8738 696.6251,739.9259 C697.2492,740.0299 697.9018,740.1388 698.5826,740.2523 C699.944,740.4794 701.4178,740.7252 702.9998,740.989 C706.1637,741.5167 709.7604,742.1165 713.7568,742.7829 C729.7426,745.4484 752.1242,749.1795 778.7891,753.6217 C832.1188,762.5061 902.5813,774.2348 973.275,785.9723 C1114.6625,809.4473 1256.975,832.9573 1265,833.8173 C1300.84,837.6473 1392.81,830.4073 1427,841.8173 C1459.38,852.6173 1486.5007,870.8194 1509.5007,889.3794 " fill="none" id="Agents-to-LLM" style="stroke:#000000;stroke-width:1.0;"/><polygon fill="#000000" points="1514.17,893.1473,1509.678,884.3825,1510.2789,890.0074,1504.654,890.6083,1514.17,893.1473" style="stroke:#000000;stroke-width:1.0;"/><text fill="#000000" font-family="Verdana" font-size="13" lengthAdjust="spacing" textLength="97" x="1266" y="830.8871">Inference calls</text></g><!--link Agents to ToolLayer--><g id="link_Agents_ToolLayer"><path d="M695.4904,740.9029 C695.6681,740.9565 695.8485,741.011 696.0315,741.0662 C696.7636,741.287 697.5377,741.5201 698.353,741.7653 C704.8756,743.7265 714.034,746.456 725.3711,749.7728 C748.0453,756.4064 779.4344,765.3892 815.8812,775.2736 C888.775,795.0423 981.9,818.4173 1066,833.8173 C1081.18,836.5973 1124.19,830.7973 1135,841.8173 C1138.125,845.0011 1140.6105,848.6236 1142.5655,852.5319 C1143.0542,853.5089 1143.5098,854.5039 1143.934,855.5143 C1144.146,856.0195 1144.3502,856.5286 1144.5468,857.0412 C1144.6451,857.2975 1142.6787,851.9205 1142.7732,852.1785 " fill="none" id="Agents-to-ToolLayer" style="stroke:#000000;stroke-width:1.0;"/><polygon fill="#000000" points="1144.8359,857.8128,1145.4979,847.9862,1143.117,853.1176,1137.9856,850.7366,1144.8359,857.8128" style="stroke:#000000;stroke-width:1.0;"/><text fill="#000000" font-family="Verdana" font-size="13" lengthAdjust="spacing" textLength="87" x="1067" y="830.8871">External calls</text></g><!--link ToolLayer to SessionDB--><g id="link_ToolLayer_SessionDB"><path d="M1151.0027,937.5939 C1151.245,937.9142 1151.4922,938.2396 1151.7443,938.5697 C1152.7526,939.8903 1153.8392,941.287 1154.999,942.7442 C1157.3188,945.6585 1159.9319,948.8145 1162.8,952.0861 C1174.2725,965.1723 1189.825,980.1073 1207,988.8173 C1246.78,1008.9973 1363,1006.7873 1405,1021.8173 C1452.285,1038.7373 1501.2325,1066.7398 1538.7512,1090.8161 C1557.5106,1102.8542 1573.4128,1113.9107 1584.8214,1122.1096 C1587.6736,1124.1594 1590.2449,1126.0305 1592.5097,1127.6937 C1593.6422,1128.5253 1589.879,1125.7304 1590.855,1126.4544 " fill="none" id="ToolLayer-to-SessionDB" style="stroke:#000000;stroke-width:1.0;"/><polygon fill="#000000" points="1595.674,1130.0289,1590.8286,1121.4545,1591.6582,1127.0501,1586.0625,1127.8798,1595.674,1130.0289" style="stroke:#000000;stroke-width:1.0;"/><text fill="#000000" font-family="Verdana" font-size="13" lengthAdjust="spacing" textLength="34" x="1365" y="1010.8871">Audit</text></g><!--link LangGraph to StateManager--><g id="link_LangGraph_StateManager"><path d="M1142.98,233.8773 C1141.86,238.0273 1083.2523,455.2843 1063.6623,527.9243 " fill="none" id="LangGraph-to-StateManager" style="stroke:#000000;stroke-width:1.0;"/><polygon fill="#000000" points="1062.1,533.7173,1068.3055,526.0693,1063.4019,528.8898,1060.5814,523.9862,1062.1,533.7173" style="stroke:#000000;stroke-width:1.0;"/><text fill="#000000" font-family="Verdana" font-size="13" lengthAdjust="spacing" textLength="91" x="1104" y="392.3871">Manage state</text></g><!--link StateManager to SessionDB--><g id="link_StateManager_SessionDB"><path d="M1071.34,581.1473 C1107.25,632.4473 1202.49,756.4273 1317,808.8173 C1352.82,825.2073 1643.47,812.6973 1670,841.8173 C1714,890.1173 1700.13,930.8473 1670,988.8173 C1658.23,1011.4673 1636.59,1000.2173 1623,1021.8173 C1621.31,1024.5036 1619.756,1027.2927 1618.3277,1030.1618 C1617.6136,1031.5964 1616.9308,1033.0509 1616.2782,1034.5227 C1615.9519,1035.2585 1615.6331,1035.9987 1615.3217,1036.7428 C1615.2439,1036.9288 1617.4544,1031.5684 1617.3775,1031.7549 " fill="none" id="StateManager-to-SessionDB" style="stroke:#000000;stroke-width:1.0;"/><polygon fill="#000000" points="1615.0896,1037.3015,1622.2192,1030.5068,1616.9962,1032.6793,1614.8237,1027.4563,1615.0896,1037.3015" style="stroke:#000000;stroke-width:1.0;"/><text fill="#000000" font-family="Verdana" font-size="13" lengthAdjust="spacing" textLength="44" x="1653" y="830.8871">Persist</text></g><!--link LangGraph to GMN44--><g id="link_LangGraph_GMN44"><path d="M1151.0045,231.174 C1151.3783,231.0975 1151.7646,231.0186 1152.1634,230.9371 C1153.7587,230.6112 1155.5539,230.2448 1157.5425,229.8397 C1165.4969,228.2191 1176.5457,225.9774 1190.2716,223.2157 C1217.7233,217.6921 1255.8831,210.0882 1301.4119,201.2117 C1392.4694,183.4586 1513.0025,160.6148 1636.2975,139.1423 C1882.8875,96.1973 2140.525,58.7373 2195.5,78.4573 C2220.5,87.4273 2244.56,101.3273 2266.61,117.1973 " fill="none" id="LangGraph-GMN44" style="stroke:#000000;stroke-width:1.0;stroke-dasharray:7.0,7.0;"/></g><!--link ToolLayer to GMN47--><g id="link_ToolLayer_GMN47"><path d="M1151.2907,937.9237 C1151.3944,938.0688 1151.4989,938.2151 1151.6042,938.3626 C1151.8148,938.6575 1152.0289,938.9572 1152.2463,939.2616 C1153.9854,941.6967 1155.9382,944.4309 1158.077,947.4254 C1166.6322,959.4036 1178.1631,975.5473 1190.8987,993.3773 C1216.37,1029.0373 1246.66,1071.4423 1267.6,1100.7573 " fill="none" id="ToolLayer-GMN47" style="stroke:#000000;stroke-width:1.0;stroke-dasharray:7.0,7.0;"/></g><!--SRC=[lLPjRzis4FwkNt7pW271wYPraBqONG37Tj8KTknQAVfXAGfQecN2CgcIL5AtAz1F-m53Vs5_oUv8MP9bz-C6931rz_1uBm_l-8DTyZM7B6L21bRObCE0MJRN8bgPzYspuW4bhs2QChjGUWtjDbnf9IsNCVm44nqjkR4QSKh2Y6su3WAp4Z9Zcgr1yyWocQ3HJm709OjMYLQvZFigLHf-79vTTQu6f54wvhgGFZl_vRn_YjAPXsh9DJmx3JxN3CVa8pFVi_lRrVdmzwRTpl3NmLa7pGGiiYXeKQ0mb8cGdEjxUPaRN1a3FSdIZR7tSgfLd4SM9e_eGWkOWTU60ipmG9PmRy6d2dfPPW2Eojpyl9kRutivu5cgDZo61y6wFWA_bT7Ms6dlvIoNLgnv5qAk7xXEoQ48RM9zC0tm5q0ljwfj8ePPFOLlV_y3jquSXXCugZaqGTpokEKoLDMXrLyoErSMNj_uW6uS0F2CTQOabnPQeTMShLDXJwurYuMwbtqbqHVZ8c4ft628Ui4YxaoGnTStJIEO3wqU43nWPZbNJCSEl1NlRxYHaOXfTOVXfnYjms-b3lyP_tUZcSon80ziBj3RpJOc51uAwqwf5FeiJU5ERtqdcVjgWcVSQi79_rSv8-CENaeBuLxGL9ehyG72F8geSZDc_K6aGSMO34J6nVBvkqHoZ2OI7JKvDCAuiIZP4dGkCJktxUbiqX-68GXfC55WbwBEbszVliBjv0uO64utntAWX0aAlq6CodHrgC9hyUVCdmHDifUdl4NGT6ENs052YqTuAmUEhbael7ZhabCT_McV5PP-iHNOuWfwYHViCvUE6JE9IVLe9oa4XmcXi4S8IR6MZAZ93hBEyH-R2FN6NeAsZA-nM-x7K7798NQPv4JD7IEL55r8cDec51-4Xwz6SCsn4kHn3O_oW_Y1O8bKkxP9TX0yu_YnHZRw7byFeL1ij-qdocNu1CRzAVHYbc7M_8meC-s-zZFsKcW6lQc_plI1woRcMjWN-Rn4-Sy3EEnTYpJdCk8bjX8TmDT8-bBDJUK6VdYukxgrACSgvgdhrq8cE53YJ8aYHptVX-gb7OrBoBqyycm-mKgTp3WpIgA9Or_iqNXtvt0zvt5SFmBtNruFs-CplyC1oBToEhP2R49YUoyHFk0fphmxDiUvuZSLYC5bqr56LNrdlFfTgfBMhjvY-TxX54gz3e-buOZlWujY8a0NyFsGQ-HzYfdAgT6zpxdU18MUeDNLxxhX2ciy4951fI1O_T8ZqYs27I6XYWlOHVY3Md5m8PYW4BlZCFkaNd3j647-xm0gKdPX-04Dqxppg4f5m2flNMpkiR0DZ-kD1o5-1OQamOwkQMoAWrQOfhaofJDki0A61u5KsEkqI9OMrA9A95Rf-Vp2FpRmTjhkyvFv1JIxjqUzK8-5-l1pnADc_7qkD2TZfe1JGHCwxUAFqwUTfwSUwE8g47URZCS3WQ-d8o7RizuOCWmMwI2FFRYlbJ5j4lYiRFqaXexOYlUNF5evchlE_Uthb__epxlJw_ImBwpNkHIHwtJE7zGLv8XA7QS772gg0fabq_YkSs4yGGrM1gFbkesl0Vfz-d_uRpOoWa7dP71MP39a-B2ldCoO9JeZUfvR_tmGiawBDqgl5gbw96uS5VFypP9ZQxFCh9wug8Wwnm4zJOXz1GVnEMdLcaXONX7l4_NzaDuHFDbiqpbTKcDwXaGUXlWuy5F1b8fErqsB1FSyCkAVM51USVhWHFxeHn0-rsDiTAKN_m80]--></g></svg>