<?xml version="1.0" encoding="us-ascii" standalone="no"?><svg xmlns="http://www.w3.org/2000/svg" xmlns:xlink="http://www.w3.org/1999/xlink" contentStyleType="text/css" height="1350px" preserveAspectRatio="none" style="width:3072px;height:1350px;background:#FFFFFF;" version="1.1" viewBox="0 0 3072 1350" width="3072px" zoomAndPan="magnify"><defs/><g><text fill="#000000" font-family="Verdana" font-size="22" font-weight="bold" lengthAdjust="spacing" textLength="766" x="1148.5" y="37.1182">Databricks-Native DQ Platform -- RAG Knowledge Base Layer</text><!--cluster Unity Catalog - - Raw Knowledge--><g id="cluster_Unity Catalog -- Raw Knowledge"><path d="M13.5,73.7373 L268.5,73.7373 A3.75,3.75 0 0 1 271,76.2373 L278,96.752 L672.5,96.752 A2.5,2.5 0 0 1 675,99.252 L675,449.2373 A2.5,2.5 0 0 1 672.5,451.7373 L13.5,451.7373 A2.5,2.5 0 0 1 11,449.2373 L11,76.2373 A2.5,2.5 0 0 1 13.5,73.7373 " fill="#FFFFFF" style="stroke:#000000;stroke-width:1.0;"/><line style="stroke:#000000;stroke-width:1.0;" x1="11" x2="278" y1="96.752" y2="96.752"/><text fill="#000000" font-family="Verdana" font-size="14" font-weight="bold" lengthAdjust="spacing" textLength="254" x="15" y="89.8125">Unity Catalog -- Raw Knowledge</text></g><!--cluster UCVol--><g id="cluster_UCVol"><path d="M45.5,125.7373 L139.5,125.7373 A3.75,3.75 0 0 1 142,128.2373 L149,148.752 L640.5,148.752 A2.5,2.5 0 0 1 643,151.252 L643,417.2373 A2.5,2.5 0 0 1 640.5,419.7373 L45.5,419.7373 A2.5,2.5 0 0 1 43,417.2373 L43,128.2373 A2.5,2.5 0 0 1 45.5,125.7373 " fill="#FFFFFF" style="stroke:#000000;stroke-width:1.0;"/><line style="stroke:#000000;stroke-width:1.0;" x1="43" x2="149" y1="148.752" y2="148.752"/><text fill="#000000" font-family="Verdana" font-size="14" font-weight="bold" lengthAdjust="spacing" textLength="93" x="47" y="141.8125">UC Volumes</text></g><!--cluster Databricks Platform Telemetry--><g id="cluster_Databricks Platform Telemetry"><path d="M1316.5,58.7373 L1551.5,58.7373 A3.75,3.75 0 0 1 1554,61.2373 L1561,81.752 L2314.5,81.752 A2.5,2.5 0 0 1 2317,84.252 L2317,449.2373 A2.5,2.5 0 0 1 2314.5,451.7373 L1316.5,451.7373 A2.5,2.5 0 0 1 1314,449.2373 L1314,61.2373 A2.5,2.5 0 0 1 1316.5,58.7373 " fill="#FFFFFF" style="stroke:#000000;stroke-width:1.0;"/><line style="stroke:#000000;stroke-width:1.0;" x1="1314" x2="1561" y1="81.752" y2="81.752"/><text fill="#000000" font-family="Verdana" font-size="14" font-weight="bold" lengthAdjust="spacing" textLength="234" x="1318" y="74.8125">Databricks Platform Telemetry</text></g><!--cluster JobLogs--><g id="cluster_JobLogs"><path d="M1881,120.7373 C1881,110.7373 2083,110.7373 2083,110.7373 C2083,110.7373 2285,110.7373 2285,120.7373 L2285,409.7373 C2285,419.7373 2083,419.7373 2083,419.7373 C2083,419.7373 1881,419.7373 1881,409.7373 L1881,120.7373 " fill="#E8F5E9" style="stroke:#2E7D32;stroke-width:1.0;"/><path d="M1881,120.7373 C1881,130.7373 2083,130.7373 2083,130.7373 C2083,130.7373 2285,130.7373 2285,120.7373 " fill="none" style="stroke:#2E7D32;stroke-width:1.0;"/><text fill="#000000" font-family="Verdana" font-size="14" font-weight="bold" lengthAdjust="spacing" textLength="152" x="2007" y="146.8125">Job &amp; Pipeline Logs</text></g><!--cluster Metadata--><g id="cluster_Metadata"><path d="M1346,120.7373 C1346,110.7373 1593.5,110.7373 1593.5,110.7373 C1593.5,110.7373 1841,110.7373 1841,120.7373 L1841,409.7373 C1841,419.7373 1593.5,419.7373 1593.5,419.7373 C1593.5,419.7373 1346,419.7373 1346,409.7373 L1346,120.7373 " fill="#E8F5E9" style="stroke:#2E7D32;stroke-width:1.0;"/><path d="M1346,120.7373 C1346,130.7373 1593.5,130.7373 1593.5,130.7373 C1593.5,130.7373 1841,130.7373 1841,120.7373 " fill="none" style="stroke:#2E7D32;stroke-width:1.0;"/><text fill="#000000" font-family="Verdana" font-size="14" font-weight="bold" lengthAdjust="spacing" textLength="159" x="1514" y="146.8125">Delta &amp; UC Metadata</text></g><!--cluster Delta Tables - - Chunked Corpus--><g id="cluster_Delta Tables -- Chunked Corpus"><path d="M1397.5,500.7373 L1646.5,500.7373 A3.75,3.75 0 0 1 1649,503.2373 L1656,523.752 L2328.5,523.752 A2.5,2.5 0 0 1 2331,526.252 L2331,1206.7373 A2.5,2.5 0 0 1 2328.5,1209.2373 L1397.5,1209.2373 A2.5,2.5 0 0 1 1395,1206.7373 L1395,503.2373 A2.5,2.5 0 0 1 1397.5,500.7373 " fill="#FFFFFF" style="stroke:#000000;stroke-width:1.0;"/><line style="stroke:#000000;stroke-width:1.0;" x1="1395" x2="1656" y1="523.752" y2="523.752"/><text fill="#000000" font-family="Verdana" font-size="14" font-weight="bold" lengthAdjust="spacing" textLength="248" x="1399" y="516.8125">Delta Tables -- Chunked Corpus</text></g><!--cluster DocChunks--><g id="cluster_DocChunks"><path d="M1427,562.7373 C1427,552.7373 1650,552.7373 1650,552.7373 C1650,552.7373 1873,552.7373 1873,562.7373 L1873,801.7373 C1873,811.7373 1650,811.7373 1650,811.7373 C1650,811.7373 1427,811.7373 1427,801.7373 L1427,562.7373 " fill="#E8F5E9" style="stroke:#2E7D32;stroke-width:1.0;"/><path d="M1427,562.7373 C1427,572.7373 1650,572.7373 1650,572.7373 C1650,572.7373 1873,572.7373 1873,562.7373 " fill="none" style="stroke:#2E7D32;stroke-width:1.0;"/><text fill="#000000" font-family="Verdana" font-size="14" font-weight="bold" lengthAdjust="spacing" textLength="93" x="1603.5" y="588.8125">doc_chunks</text></g><!--cluster LogChunks--><g id="cluster_LogChunks"><path d="M1913,562.7373 C1913,552.7373 2106,552.7373 2106,552.7373 C2106,552.7373 2299,552.7373 2299,562.7373 L2299,801.7373 C2299,811.7373 2106,811.7373 2106,811.7373 C2106,811.7373 1913,811.7373 1913,801.7373 L1913,562.7373 " fill="#E8F5E9" style="stroke:#2E7D32;stroke-width:1.0;"/><path d="M1913,562.7373 C1913,572.7373 2106,572.7373 2106,572.7373 C2106,572.7373 2299,572.7373 2299,562.7373 " fill="none" style="stroke:#2E7D32;stroke-width:1.0;"/><text fill="#000000" font-family="Verdana" font-size="14" font-weight="bold" lengthAdjust="spacing" textLength="89" x="2061.5" y="588.8125">log_chunks</text></g><!--cluster IncidentKB--><g id="cluster_IncidentKB"><path d="M1552,886.7373 C1552,876.7373 1720.5,876.7373 1720.5,876.7373 C1720.5,876.7373 1889,876.7373 1889,886.7373 L1889,1167.2373 C1889,1177.2373 1720.5,1177.2373 1720.5,1177.2373 C1720.5,1177.2373 1552,1177.2373 1552,1167.2373 L1552,886.7373 " fill="#E8F5E9" style="stroke:#2E7D32;stroke-width:1.0;"/><path d="M1552,886.7373 C1552,896.7373 1720.5,896.7373 1720.5,896.7373 C1720.5,896.7373 1889,896.7373 1889,886.7373 " fill="none" style="stroke:#2E7D32;stroke-width:1.0;"/><text fill="#000000" font-family="Verdana" font-size="14" font-weight="bold" lengthAdjust="spacing" textLength="90" x="1675.5" y="912.8125">incident_kb</text></g><!--cluster AISearch--><g id="cluster_AISearch"><rect fill="#E3F2FD" height="290.5" rx="5" ry="5" style="stroke:#1565C0;stroke-width:1.0;" width="452" x="2363" y="1053.7373"/><text fill="#000000" font-family="Verdana" font-size="14" font-weight="bold" lengthAdjust="spacing" textLength="163" x="2507.5" y="1069.8125">Databricks AI Search</text></g><!--cluster LogIngest--><g id="cluster_LogIngest"><rect fill="#E3F2FD" height="395" rx="5" ry="5" style="stroke:#1565C0;stroke-width:1.0;" width="422" x="707" y="287.7373"/><text fill="#000000" font-family="Verdana" font-size="14" font-weight="bold" lengthAdjust="spacing" textLength="190" x="823" y="303.8125">Log Ingestion Workflow</text><text fill="#000000" font-family="Verdana" font-size="14" font-weight="bold" lengthAdjust="spacing" textLength="130" x="853" y="320.8271">(Databricks Job)</text></g><!--entity data_contracts/--><g id="elem_data_contracts/"><rect fill="#FFFFFF" height="47.0146" rx="2.5" ry="2.5" style="stroke:#000000;stroke-width:1.0;" width="152" x="67" y="169.7373"/><rect fill="#FFFFFF" height="10" style="stroke:#000000;stroke-width:1.0;" width="15" x="199" y="174.7373"/><rect fill="#FFFFFF" height="2" style="stroke:#000000;stroke-width:1.0;" width="4" x="197" y="176.7373"/><rect fill="#FFFFFF" height="2" style="stroke:#000000;stroke-width:1.0;" width="4" x="197" y="180.7373"/><text fill="#000000" font-family="Verdana" font-size="14" lengthAdjust="spacing" textLength="112" x="82" y="203.8125">data_contracts/</text></g><!--entity supported_checks/--><g id="elem_supported_checks/"><rect fill="#FFFFFF" height="47.0146" rx="2.5" ry="2.5" style="stroke:#000000;stroke-width:1.0;" width="175" x="254.5" y="169.7373"/><rect fill="#FFFFFF" height="10" style="stroke:#000000;stroke-width:1.0;" width="15" x="409.5" y="174.7373"/><rect fill="#FFFFFF" height="2" style="stroke:#000000;stroke-width:1.0;" width="4" x="407.5" y="176.7373"/><rect fill="#FFFFFF" height="2" style="stroke:#000000;stroke-width:1.0;" width="4" x="407.5" y="180.7373"/><text fill="#000000" font-family="Verdana" font-size="14" lengthAdjust="spacing" textLength="135" x="269.5" y="203.8125">supported_checks/</text></g><!--entity sql_patterns/--><g id="elem_sql_patterns/"><rect fill="#FFFFFF" height="47.0146" rx="2.5" ry="2.5" style="stroke:#000000;stroke-width:1.0;" width="135" x="464.5" y="169.7373"/><rect fill="#FFFFFF" height="10" style="stroke:#000000;stroke-width:1.0;" width="15" x="579.5" y="174.7373"/><rect fill="#FFFFFF" height="2" style="stroke:#000000;stroke-width:1.0;" width="4" x="577.5" y="176.7373"/><rect fill="#FFFFFF" height="2" style="stroke:#000000;stroke-width:1.0;" width="4" x="577.5" y="180.7373"/><text fill="#000000" font-family="Verdana" font-size="14" lengthAdjust="spacing" textLength="95" x="479.5" y="203.8125">sql_patterns/</text></g><!--entity runbooks/--><g id="elem_runbooks/"><rect fill="#FFFFFF" height="47.0146" rx="2.5" ry="2.5" style="stroke:#000000;stroke-width:1.0;" width="113" x="86.5" y="348.7373"/><rect fill="#FFFFFF" height="10" style="stroke:#000000;stroke-width:1.0;" width="15" x="179.5" y="353.7373"/><rect fill="#FFFFFF" height="2" style="stroke:#000000;stroke-width:1.0;" width="4" x="177.5" y="355.7373"/><rect fill="#FFFFFF" height="2" style="stroke:#000000;stroke-width:1.0;" width="4" x="177.5" y="359.7373"/><text fill="#000000" font-family="Verdana" font-size="14" lengthAdjust="spacing" textLength="73" x="101.5" y="382.8125">runbooks/</text></g><!--entity playbooks/--><g id="elem_playbooks/"><rect fill="#FFFFFF" height="47.0146" rx="2.5" ry="2.5" style="stroke:#000000;stroke-width:1.0;" width="117" x="234.5" y="348.7373"/><rect fill="#FFFFFF" height="10" style="stroke:#000000;stroke-width:1.0;" width="15" x="331.5" y="353.7373"/><rect fill="#FFFFFF" height="2" style="stroke:#000000;stroke-width:1.0;" width="4" x="329.5" y="355.7373"/><rect fill="#FFFFFF" height="2" style="stroke:#000000;stroke-width:1.0;" width="4" x="329.5" y="359.7373"/><text fill="#000000" font-family="Verdana" font-size="14" lengthAdjust="spacing" textLength="77" x="249.5" y="382.8125">playbooks/</text></g><!--entity domain_glossary/--><g id="elem_domain_glossary/"><rect fill="#FFFFFF" height="47.0146" rx="2.5" ry="2.5" style="stroke:#000000;stroke-width:1.0;" width="165" x="386.5" y="348.7373"/><rect fill="#FFFFFF" height="10" style="stroke:#000000;stroke-width:1.0;" width="15" x="531.5" y="353.7373"/><rect fill="#FFFFFF" height="2" style="stroke:#000000;stroke-width:1.0;" width="4" x="529.5" y="355.7373"/><rect fill="#FFFFFF" height="2" style="stroke:#000000;stroke-width:1.0;" width="4" x="529.5" y="359.7373"/><text fill="#000000" font-family="Verdana" font-size="14" lengthAdjust="spacing" textLength="125" x="401.5" y="382.8125">domain_glossary/</text></g><!--entity Job run logs--><g id="elem_Job run logs"><rect fill="#FFFFFF" height="47.0146" rx="2.5" ry="2.5" style="stroke:#000000;stroke-width:1.0;" width="127" x="1924.5" y="169.7373"/><rect fill="#FFFFFF" height="10" style="stroke:#000000;stroke-width:1.0;" width="15" x="2031.5" y="174.7373"/><rect fill="#FFFFFF" height="2" style="stroke:#000000;stroke-width:1.0;" width="4" x="2029.5" y="176.7373"/><rect fill="#FFFFFF" height="2" style="stroke:#000000;stroke-width:1.0;" width="4" x="2029.5" y="180.7373"/><text fill="#000000" font-family="Verdana" font-size="14" lengthAdjust="spacing" textLength="87" x="1939.5" y="203.8125">Job run logs</text></g><!--entity Task stderr/stdout--><g id="elem_Task stderr/stdout"><rect fill="#FFFFFF" height="47.0146" rx="2.5" ry="2.5" style="stroke:#000000;stroke-width:1.0;" width="174" x="2087" y="169.7373"/><rect fill="#FFFFFF" height="10" style="stroke:#000000;stroke-width:1.0;" width="15" x="2241" y="174.7373"/><rect fill="#FFFFFF" height="2" style="stroke:#000000;stroke-width:1.0;" width="4" x="2239" y="176.7373"/><rect fill="#FFFFFF" height="2" style="stroke:#000000;stroke-width:1.0;" width="4" x="2239" y="180.7373"/><text fill="#000000" font-family="Verdana" font-size="14" lengthAdjust="spacing" textLength="134" x="2102" y="203.8125">Task stderr/stdout</text></g><!--entity Workflow events--><g id="elem_Workflow events"><rect fill="#FFFFFF" height="47.0146" rx="2.5" ry="2.5" style="stroke:#000000;stroke-width:1.0;" width="158" x="1924" y="348.7373"/><rect fill="#FFFFFF" height="10" style="stroke:#000000;stroke-width:1.0;" width="15" x="2062" y="353.7373"/><rect fill="#FFFFFF" height="2" style="stroke:#000000;stroke-width:1.0;" width="4" x="2060" y="355.7373"/><rect fill="#FFFFFF" height="2" style="stroke:#000000;stroke-width:1.0;" width="4" x="2060" y="359.7373"/><text fill="#000000" font-family="Verdana" font-size="14" lengthAdjust="spacing" textLength="118" x="1939" y="382.8125">Workflow events</text></g><!--entity DESCRIBE HISTORY--><g id="elem_DESCRIBE HISTORY"><rect fill="#FFFFFF" height="47.0146" rx="2.5" ry="2.5" style="stroke:#000000;stroke-width:1.0;" width="183" x="1389.5" y="169.7373"/><rect fill="#FFFFFF" height="10" style="stroke:#000000;stroke-width:1.0;" width="15" x="1552.5" y="174.7373"/><rect fill="#FFFFFF" height="2" style="stroke:#000000;stroke-width:1.0;" width="4" x="1550.5" y="176.7373"/><rect fill="#FFFFFF" height="2" style="stroke:#000000;stroke-width:1.0;" width="4" x="1550.5" y="180.7373"/><text fill="#000000" font-family="Verdana" font-size="14" lengthAdjust="spacing" textLength="143" x="1404.5" y="203.8125">DESCRIBE HISTORY</text></g><!--entity INFORMATION_SCHEMA--><g id="elem_INFORMATION_SCHEMA"><rect fill="#FFFFFF" height="47.0146" rx="2.5" ry="2.5" style="stroke:#000000;stroke-width:1.0;" width="209" x="1607.5" y="169.7373"/><rect fill="#FFFFFF" height="10" style="stroke:#000000;stroke-width:1.0;" width="15" x="1796.5" y="174.7373"/><rect fill="#FFFFFF" height="2" style="stroke:#000000;stroke-width:1.0;" width="4" x="1794.5" y="176.7373"/><rect fill="#FFFFFF" height="2" style="stroke:#000000;stroke-width:1.0;" width="4" x="1794.5" y="180.7373"/><text fill="#000000" font-family="Verdana" font-size="14" lengthAdjust="spacing" textLength="169" x="1622.5" y="203.8125">INFORMATION_SCHEMA</text></g><!--entity Lineage API--><g id="elem_Lineage API"><rect fill="#FFFFFF" height="47.0146" rx="2.5" ry="2.5" style="stroke:#000000;stroke-width:1.0;" width="121" x="1420.5" y="348.7373"/><rect fill="#FFFFFF" height="10" style="stroke:#000000;stroke-width:1.0;" width="15" x="1521.5" y="353.7373"/><rect fill="#FFFFFF" height="2" style="stroke:#000000;stroke-width:1.0;" width="4" x="1519.5" y="355.7373"/><rect fill="#FFFFFF" height="2" style="stroke:#000000;stroke-width:1.0;" width="4" x="1519.5" y="359.7373"/><text fill="#000000" font-family="Verdana" font-size="14" lengthAdjust="spacing" textLength="81" x="1435.5" y="382.8125">Lineage API</text></g><!--entity doc_id, doc_type--><g id="elem_doc_id, doc_type"><rect fill="#FFFFFF" height="47.0146" rx="2.5" ry="2.5" style="stroke:#000000;stroke-width:1.0;" width="161" x="1451.5" y="611.7373"/><rect fill="#FFFFFF" height="10" style="stroke:#000000;stroke-width:1.0;" width="15" x="1592.5" y="616.7373"/><rect fill="#FFFFFF" height="2" style="stroke:#000000;stroke-width:1.0;" width="4" x="1590.5" y="618.7373"/><rect fill="#FFFFFF" height="2" style="stroke:#000000;stroke-width:1.0;" width="4" x="1590.5" y="622.7373"/><text fill="#000000" font-family="Verdana" font-size="14" lengthAdjust="spacing" textLength="121" x="1466.5" y="645.8125">doc_id, doc_type</text></g><!--entity domain, table_name--><g id="elem_domain, table_name"><rect fill="#FFFFFF" height="47.0146" rx="2.5" ry="2.5" style="stroke:#000000;stroke-width:1.0;" width="182" x="1648" y="611.7373"/><rect fill="#FFFFFF" height="10" style="stroke:#000000;stroke-width:1.0;" width="15" x="1810" y="616.7373"/><rect fill="#FFFFFF" height="2" style="stroke:#000000;stroke-width:1.0;" width="4" x="1808" y="618.7373"/><rect fill="#FFFFFF" height="2" style="stroke:#000000;stroke-width:1.0;" width="4" x="1808" y="622.7373"/><text fill="#000000" font-family="Verdana" font-size="14" lengthAdjust="spacing" textLength="142" x="1663" y="645.8125">domain, table_name</text></g><!--entity chunk_text--><g id="elem_chunk_text"><rect fill="#FFFFFF" height="47.0146" rx="2.5" ry="2.5" style="stroke:#000000;stroke-width:1.0;" width="120" x="1496" y="740.7373"/><rect fill="#FFFFFF" height="10" style="stroke:#000000;stroke-width:1.0;" width="15" x="1596" y="745.7373"/><rect fill="#FFFFFF" height="2" style="stroke:#000000;stroke-width:1.0;" width="4" x="1594" y="747.7373"/><rect fill="#FFFFFF" height="2" style="stroke:#000000;stroke-width:1.0;" width="4" x="1594" y="751.7373"/><text fill="#000000" font-family="Verdana" font-size="14" lengthAdjust="spacing" textLength="80" x="1511" y="774.8125">chunk_text</text></g><!--entity embedding_vector--><g id="elem_embedding_vector"><rect fill="#FFFFFF" height="47.0146" rx="2.5" ry="2.5" style="stroke:#000000;stroke-width:1.0;" width="170" x="1651" y="740.7373"/><rect fill="#FFFFFF" height="10" style="stroke:#000000;stroke-width:1.0;" width="15" x="1801" y="745.7373"/><rect fill="#FFFFFF" height="2" style="stroke:#000000;stroke-width:1.0;" width="4" x="1799" y="747.7373"/><rect fill="#FFFFFF" height="2" style="stroke:#000000;stroke-width:1.0;" width="4" x="1799" y="751.7373"/><text fill="#000000" font-family="Verdana" font-size="14" lengthAdjust="spacing" textLength="130" x="1666" y="774.8125">embedding_vector</text></g><!--entity pipeline_id, run_id--><g id="elem_pipeline_id, run_id"><rect fill="#FFFFFF" height="47.0146" rx="2.5" ry="2.5" style="stroke:#000000;stroke-width:1.0;" width="168" x="1937" y="611.7373"/><rect fill="#FFFFFF" height="10" style="stroke:#000000;stroke-width:1.0;" width="15" x="2085" y="616.7373"/><rect fill="#FFFFFF" height="2" style="stroke:#000000;stroke-width:1.0;" width="4" x="2083" y="618.7373"/><rect fill="#FFFFFF" height="2" style="stroke:#000000;stroke-width:1.0;" width="4" x="2083" y="622.7373"/><text fill="#000000" font-family="Verdana" font-size="14" lengthAdjust="spacing" textLength="128" x="1952" y="645.8125">pipeline_id, run_id</text></g><!--entity error_type--><g id="elem_error_type"><rect fill="#FFFFFF" height="47.0146" rx="2.5" ry="2.5" style="stroke:#000000;stroke-width:1.0;" width="115" x="2140.5" y="611.7373"/><rect fill="#FFFFFF" height="10" style="stroke:#000000;stroke-width:1.0;" width="15" x="2235.5" y="616.7373"/><rect fill="#FFFFFF" height="2" style="stroke:#000000;stroke-width:1.0;" width="4" x="2233.5" y="618.7373"/><rect fill="#FFFFFF" height="2" style="stroke:#000000;stroke-width:1.0;" width="4" x="2233.5" y="622.7373"/><text fill="#000000" font-family="Verdana" font-size="14" lengthAdjust="spacing" textLength="75" x="2155.5" y="645.8125">error_type</text></g><!--entity log_summary--><g id="elem_log_summary"><rect fill="#FFFFFF" height="47.0146" rx="2.5" ry="2.5" style="stroke:#000000;stroke-width:1.0;" width="135" x="1953.5" y="740.7373"/><rect fill="#FFFFFF" height="10" style="stroke:#000000;stroke-width:1.0;" width="15" x="2068.5" y="745.7373"/><rect fill="#FFFFFF" height="2" style="stroke:#000000;stroke-width:1.0;" width="4" x="2066.5" y="747.7373"/><rect fill="#FFFFFF" height="2" style="stroke:#000000;stroke-width:1.0;" width="4" x="2066.5" y="751.7373"/><text fill="#000000" font-family="Verdana" font-size="14" lengthAdjust="spacing" textLength="95" x="1968.5" y="774.8125">log_summary</text></g><!--entity incident_id--><g id="elem_incident_id"><rect fill="#FFFFFF" height="47.0146" rx="2.5" ry="2.5" style="stroke:#000000;stroke-width:1.0;" width="115" x="1576.5" y="935.7373"/><rect fill="#FFFFFF" height="10" style="stroke:#000000;stroke-width:1.0;" width="15" x="1671.5" y="940.7373"/><rect fill="#FFFFFF" height="2" style="stroke:#000000;stroke-width:1.0;" width="4" x="1669.5" y="942.7373"/><rect fill="#FFFFFF" height="2" style="stroke:#000000;stroke-width:1.0;" width="4" x="1669.5" y="946.7373"/><text fill="#000000" font-family="Verdana" font-size="14" lengthAdjust="spacing" textLength="75" x="1591.5" y="969.8125">incident_id</text></g><!--entity root_cause--><g id="elem_root_cause"><rect fill="#FFFFFF" height="47.0146" rx="2.5" ry="2.5" style="stroke:#000000;stroke-width:1.0;" width="119" x="1726.5" y="935.7373"/><rect fill="#FFFFFF" height="10" style="stroke:#000000;stroke-width:1.0;" width="15" x="1825.5" y="940.7373"/><rect fill="#FFFFFF" height="2" style="stroke:#000000;stroke-width:1.0;" width="4" x="1823.5" y="942.7373"/><rect fill="#FFFFFF" height="2" style="stroke:#000000;stroke-width:1.0;" width="4" x="1823.5" y="946.7373"/><text fill="#000000" font-family="Verdana" font-size="14" lengthAdjust="spacing" textLength="79" x="1741.5" y="969.8125">root_cause</text></g><!--entity resolution--><g id="elem_resolution"><rect fill="#FFFFFF" height="47.0146" rx="2.5" ry="2.5" style="stroke:#000000;stroke-width:1.0;" width="110" x="1579" y="1106.2373"/><rect fill="#FFFFFF" height="10" style="stroke:#000000;stroke-width:1.0;" width="15" x="1669" y="1111.2373"/><rect fill="#FFFFFF" height="2" style="stroke:#000000;stroke-width:1.0;" width="4" x="1667" y="1113.2373"/><rect fill="#FFFFFF" height="2" style="stroke:#000000;stroke-width:1.0;" width="4" x="1667" y="1117.2373"/><text fill="#000000" font-family="Verdana" font-size="14" lengthAdjust="spacing" textLength="70" x="1594" y="1140.3125">resolution</text></g><!--entity fingerprint--><g id="elem_fingerprint"><rect fill="#FFFFFF" height="47.0146" rx="2.5" ry="2.5" style="stroke:#000000;stroke-width:1.0;" width="113" x="1724.5" y="1106.2373"/><rect fill="#FFFFFF" height="10" style="stroke:#000000;stroke-width:1.0;" width="15" x="1817.5" y="1111.2373"/><rect fill="#FFFFFF" height="2" style="stroke:#000000;stroke-width:1.0;" width="4" x="1815.5" y="1113.2373"/><rect fill="#FFFFFF" height="2" style="stroke:#000000;stroke-width:1.0;" width="4" x="1815.5" y="1117.2373"/><text fill="#000000" font-family="Verdana" font-size="14" lengthAdjust="spacing" textLength="73" x="1739.5" y="1140.3125">fingerprint</text></g><!--entity VectorIdx--><g id="elem_VectorIdx"><rect fill="#FFFFFF" height="64.0293" rx="2.5" ry="2.5" style="stroke:#000000;stroke-width:1.0;" width="169" x="2406.5" y="1097.7373"/><rect fill="#FFFFFF" height="10" style="stroke:#000000;stroke-width:1.0;" width="15" x="2555.5" y="1102.7373"/><rect fill="#FFFFFF" height="2" style="stroke:#000000;stroke-width:1.0;" width="4" x="2553.5" y="1104.7373"/><rect fill="#FFFFFF" height="2" style="stroke:#000000;stroke-width:1.0;" width="4" x="2553.5" y="1108.7373"/><text fill="#000000" font-family="Verdana" font-size="14" lengthAdjust="spacing" textLength="91" x="2421.5" y="1131.8125">Vector Index</text><text fill="#000000" font-family="Verdana" font-size="14" lengthAdjust="spacing" textLength="129" x="2421.5" y="1148.8271">(Semantic Search)</text></g><!--entity HybridSearch--><g id="elem_HybridSearch"><rect fill="#FFFFFF" height="64.0293" rx="2.5" ry="2.5" style="stroke:#000000;stroke-width:1.0;" width="180" x="2611" y="1097.7373"/><rect fill="#FFFFFF" height="10" style="stroke:#000000;stroke-width:1.0;" width="15" x="2771" y="1102.7373"/><rect fill="#FFFFFF" height="2" style="stroke:#000000;stroke-width:1.0;" width="4" x="2769" y="1104.7373"/><rect fill="#FFFFFF" height="2" style="stroke:#000000;stroke-width:1.0;" width="4" x="2769" y="1108.7373"/><text fill="#000000" font-family="Verdana" font-size="14" lengthAdjust="spacing" textLength="98" x="2626" y="1131.8125">Hybrid Search</text><text fill="#000000" font-family="Verdana" font-size="14" lengthAdjust="spacing" textLength="140" x="2626" y="1148.8271">(Keyword + Vector)</text></g><!--entity Filters--><g id="elem_Filters"><rect fill="#FFFFFF" height="64.0293" rx="2.5" ry="2.5" style="stroke:#000000;stroke-width:1.0;" width="188" x="2406" y="1256.2373"/><rect fill="#FFFFFF" height="10" style="stroke:#000000;stroke-width:1.0;" width="15" x="2574" y="1261.2373"/><rect fill="#FFFFFF" height="2" style="stroke:#000000;stroke-width:1.0;" width="4" x="2572" y="1263.2373"/><rect fill="#FFFFFF" height="2" style="stroke:#000000;stroke-width:1.0;" width="4" x="2572" y="1267.2373"/><text fill="#000000" font-family="Verdana" font-size="14" lengthAdjust="spacing" textLength="111" x="2421" y="1290.3125">Metadata Filters</text><text fill="#000000" font-family="Verdana" font-size="14" lengthAdjust="spacing" textLength="148" x="2421" y="1307.3271">(domain, table, type)</text></g><!--entity Extract job errors--><g id="elem_Extract job errors"><rect fill="#FFFFFF" height="47.0146" rx="2.5" ry="2.5" style="stroke:#000000;stroke-width:1.0;" width="167" x="731.5" y="348.7373"/><rect fill="#FFFFFF" height="10" style="stroke:#000000;stroke-width:1.0;" width="15" x="878.5" y="353.7373"/><rect fill="#FFFFFF" height="2" style="stroke:#000000;stroke-width:1.0;" width="4" x="876.5" y="355.7373"/><rect fill="#FFFFFF" height="2" style="stroke:#000000;stroke-width:1.0;" width="4" x="876.5" y="359.7373"/><text fill="#000000" font-family="Verdana" font-size="14" lengthAdjust="spacing" textLength="127" x="746.5" y="382.8125">Extract job errors</text></g><!--entity Chunk & embed--><g id="elem_Chunk &amp; embed"><rect fill="#FFFFFF" height="47.0146" rx="2.5" ry="2.5" style="stroke:#000000;stroke-width:1.0;" width="152" x="934" y="348.7373"/><rect fill="#FFFFFF" height="10" style="stroke:#000000;stroke-width:1.0;" width="15" x="1066" y="353.7373"/><rect fill="#FFFFFF" height="2" style="stroke:#000000;stroke-width:1.0;" width="4" x="1064" y="355.7373"/><rect fill="#FFFFFF" height="2" style="stroke:#000000;stroke-width:1.0;" width="4" x="1064" y="359.7373"/><text fill="#000000" font-family="Verdana" font-size="14" lengthAdjust="spacing" textLength="112" x="949" y="382.8125">Chunk &amp; embed</text></g><!--entity Write to log_chunks--><g id="elem_Write to log_chunks"><rect fill="#FFFFFF" height="47.0146" rx="2.5" ry="2.5" style="stroke:#000000;stroke-width:1.0;" width="183" x="731.5" y="611.7373"/><rect fill="#FFFFFF" height="10" style="stroke:#000000;stroke-width:1.0;" width="15" x="894.5" y="616.7373"/><rect fill="#FFFFFF" height="2" style="stroke:#000000;stroke-width:1.0;" width="4" x="892.5" y="618.7373"/><rect fill="#FFFFFF" height="2" style="stroke:#000000;stroke-width:1.0;" width="4" x="892.5" y="622.7373"/><text fill="#000000" font-family="Verdana" font-size="14" lengthAdjust="spacing" textLength="143" x="746.5" y="645.8125">Write to log_chunks</text></g><!--entity Daily refresh--><g id="elem_Daily refresh"><rect fill="#FFFFFF" height="47.0146" rx="2.5" ry="2.5" style="stroke:#000000;stroke-width:1.0;" width="128" x="950" y="611.7373"/><rect fill="#FFFFFF" height="10" style="stroke:#000000;stroke-width:1.0;" width="15" x="1058" y="616.7373"/><rect fill="#FFFFFF" height="2" style="stroke:#000000;stroke-width:1.0;" width="4" x="1056" y="618.7373"/><rect fill="#FFFFFF" height="2" style="stroke:#000000;stroke-width:1.0;" width="4" x="1056" y="622.7373"/><text fill="#000000" font-family="Verdana" font-size="14" lengthAdjust="spacing" textLength="88" x="965" y="645.8125">Daily refresh</text></g><g id="elem_GMN51"><path d="M2839,1077.2373 L2839,1182.0332 L3065,1182.0332 L3065,1087.2373 L3055,1077.2373 L2839,1077.2373 " fill="#FFFFFF" style="stroke:#000000;stroke-width:1.0;"/><path d="M3055,1077.2373 L3055,1087.2373 L3065,1087.2373 L3055,1077.2373 " fill="#FFFFFF" style="stroke:#000000;stroke-width:1.0;"/><text fill="#000000" font-family="Verdana" font-size="13" font-weight="bold" lengthAdjust="spacing" textLength="101" x="2845" y="1095.3071">RAG Strategy:</text><text fill="#000000" font-family="Verdana" font-size="13" lengthAdjust="spacing" textLength="179" x="2845" y="1111.1064">1. Raw docs in UC Volumes</text><text fill="#000000" font-family="Verdana" font-size="13" lengthAdjust="spacing" textLength="174" x="2845" y="1126.9058">2. Chunked in Delta tables</text><text fill="#000000" font-family="Verdana" font-size="13" lengthAdjust="spacing" textLength="156" x="2845" y="1142.7051">3. Indexed in AI Search</text><text fill="#000000" font-family="Verdana" font-size="13" lengthAdjust="spacing" textLength="192" x="2845" y="1158.5044">4. Logs treated as KB source</text><text fill="#000000" font-family="Verdana" font-size="13" lengthAdjust="spacing" textLength="205" x="2845" y="1174.3037">5. Incidents stored for learning</text></g><g id="elem_GMN54"><path d="M1153.5,590.7373 L1153.5,679.7339 L1378.5,679.7339 L1378.5,600.7373 L1368.5,590.7373 L1153.5,590.7373 " fill="#FFFFFF" style="stroke:#000000;stroke-width:1.0;"/><path d="M1368.5,590.7373 L1368.5,600.7373 L1378.5,600.7373 L1368.5,590.7373 " fill="#FFFFFF" style="stroke:#000000;stroke-width:1.0;"/><text fill="#000000" font-family="Verdana" font-size="13" font-weight="bold" lengthAdjust="spacing" textLength="115" x="1159.5" y="608.8071">Key Innovation:</text><text fill="#000000" font-family="Verdana" font-size="13" lengthAdjust="spacing" textLength="183" x="1159.5" y="624.6064">Databricks logs are not just</text><text fill="#000000" font-family="Verdana" font-size="13" lengthAdjust="spacing" textLength="204" x="1159.5" y="640.4058">monitoring data &#226;&#8364;&#8221; they are a</text><text fill="#000000" font-family="Verdana" font-size="13" lengthAdjust="spacing" textLength="189" x="1159.5" y="656.2051">first-class knowledge source</text><text fill="#000000" font-family="Verdana" font-size="13" lengthAdjust="spacing" textLength="88" x="1159.5" y="672.0044">for diagnosis.</text></g><!--link UCVol to LogIngest--><g id="link_UCVol_LogIngest"><path d="M643.081,196.8202 C643.2305,196.8673 643.3818,196.915 643.5352,196.9633 C648.4418,198.5082 655.3326,200.6507 663.8658,203.2348 C680.9322,208.4029 704.5681,215.3373 732.0388,222.7898 C786.98,237.6948 857.26,254.6723 921,263.7373 C940.93,266.5673 1086.77,258.5673 1102,271.7373 C1106.19,275.3611 1109.6366,279.5995 1112.4592,284.2465 C1112.812,284.8274 1113.1551,285.4146 1113.4887,286.0079 C1113.6555,286.3045 1113.8199,286.6026 1113.9819,286.9021 C1114.0629,287.0519 1111.3311,281.902 1111.4109,282.0525 " fill="none" id="UCVol-to-LogIngest" style="stroke:#000000;stroke-width:1.0;"/><polygon fill="#000000" points="1114.2232,287.3526,1113.5381,277.5276,1111.8796,282.9358,1106.4714,281.2773,1114.2232,287.3526" style="stroke:#000000;stroke-width:1.0;"/><text fill="#000000" font-family="Verdana" font-size="13" lengthAdjust="spacing" textLength="111" x="922" y="260.8071">Weekly ingestion</text></g><!--link JobLogs to LogIngest--><g id="link_JobLogs_LogIngest"><path d="M1880.9485,198.2606 C1880.7112,198.375 1880.4695,198.4913 1880.2235,198.6092 C1879.2395,199.081 1878.1872,199.5802 1877.0741,200.1013 C1874.8479,201.1435 1872.3784,202.2732 1869.7263,203.4461 C1859.1175,208.1373 1845.585,213.5173 1833,216.7373 C1633.53,267.7773 1572.63,221.2873 1373,271.7373 C1315.54,286.2573 1253.595,310.5873 1205.5,331.5536 C1181.4525,342.0367 1160.8675,351.6789 1146.0369,358.8334 C1142.3292,360.622 1138.9812,362.2552 1136.0287,363.7071 C1134.5524,364.4331 1133.175,365.1138 1131.9009,365.7459 C1131.2639,366.062 1130.6527,366.366 1130.0679,366.6574 C1129.7755,366.8031 1134.8576,364.2651 1134.5784,364.4045 " fill="none" id="JobLogs-to-LogIngest" style="stroke:#000000;stroke-width:1.0;"/><polygon fill="#000000" points="1129.2105,367.085,1139.0495,366.6428,1133.6838,364.8512,1135.4754,359.4856,1129.2105,367.085" style="stroke:#000000;stroke-width:1.0;"/><text fill="#000000" font-family="Verdana" font-size="13" lengthAdjust="spacing" textLength="127" x="1523" y="260.8071">Daily log extraction</text></g><!--link Metadata to LogIngest--><g id="link_Metadata_LogIngest"><path d="M1345.894,194.2799 C1345.7008,194.2818 1345.5045,194.2837 1345.3049,194.2857 C1344.9059,194.2897 1344.4942,194.294 1344.07,194.2986 C1343.2216,194.3079 1342.3235,194.3186 1341.3773,194.3308 C1333.808,194.4289 1323.1667,194.6282 1310.3722,195.0323 C1284.7831,195.8404 1250.5813,197.4673 1215.1175,200.7398 C1144.19,207.2848 1068.215,220.4123 1046,246.7373 C1041.13,252.5073 1041.05,258.0273 1046,263.7373 C1062.47,282.7273 1083.81,254.3773 1102,271.7373 C1106.0075,275.5623 1109.3164,279.9525 1112.038,284.7108 C1112.3782,285.3056 1112.7092,285.9061 1113.0312,286.512 C1113.1923,286.815 1110.6151,281.7794 1110.7716,282.085 " fill="none" id="Metadata-to-LogIngest" style="stroke:#000000;stroke-width:1.0;"/><polygon fill="#000000" points="1113.5076,287.4249,1112.9635,277.591,1111.2276,282.975,1105.8437,281.2391,1113.5076,287.4249" style="stroke:#000000;stroke-width:1.0;"/><text fill="#000000" font-family="Verdana" font-size="13" lengthAdjust="spacing" textLength="102" x="1047" y="260.8071">Schema history</text></g><!--link LogIngest to DocChunks--><g id="link_LogIngest_DocChunks"><path d="M1129.2477,376.9655 C1129.5281,377.0904 1129.8151,377.2181 1130.1088,377.3485 C1130.6961,377.6095 1131.3099,377.8816 1131.9496,378.1644 C1133.229,378.7302 1134.6121,379.3391 1136.0944,379.9882 C1139.0588,381.2865 1142.4198,382.7454 1146.1409,384.3412 C1161.0256,390.7245 1181.6738,399.2979 1205.7625,408.5361 C1253.94,427.0123 1315.88,448.1473 1373,459.7373 C1424.63,470.2073 1807.58,456.6873 1846,492.7373 C1857.3875,503.4223 1864.3206,517.4179 1868.3022,532.4476 C1869.2976,536.205 1870.1085,540.0271 1870.7584,543.8782 C1871.0834,545.8038 1871.3681,547.7366 1871.6155,549.6722 C1871.7392,550.64 1871.2045,545.6438 1871.3099,546.6124 " fill="none" id="LogIngest-to-DocChunks" style="stroke:#000000;stroke-width:1.0;"/><polygon fill="#000000" points="1871.959,552.5772,1874.9619,543.1973,1871.4181,547.6066,1867.0088,544.0628,1871.959,552.5772" style="stroke:#000000;stroke-width:1.0;"/><text fill="#000000" font-family="Verdana" font-size="13" lengthAdjust="spacing" textLength="86" x="1825" y="481.8071">Write chunks</text></g><!--link LogIngest to LogChunks--><g id="link_LogIngest_LogChunks"><path d="M1129.2147,377.1405 C1129.4939,377.271 1129.7799,377.4045 1130.0725,377.5408 C1130.6576,377.8135 1131.2691,378.0977 1131.9065,378.3931 C1133.1812,378.9839 1134.5593,379.6193 1136.0364,380.2962 C1138.9904,381.6498 1142.3401,383.1691 1146.0495,384.8278 C1160.8872,391.4626 1181.4806,400.3292 1205.5338,409.7586 C1253.64,428.6173 1315.585,449.7273 1373,459.7373 C1432.88,470.1773 1859.27,465.1373 1920,467.7373 C1998.35,471.0873 2214.84,439.0473 2272,492.7373 C2283.3825,503.4273 2290.3131,517.4254 2294.2938,532.4561 C2295.2889,536.2137 2296.0997,540.0359 2296.7496,543.8871 C2297.0745,545.8126 2297.3592,547.7455 2297.6066,549.6811 C2297.7303,550.6489 2297.1955,545.6526 2297.3009,546.6213 " fill="none" id="LogIngest-to-LogChunks" style="stroke:#000000;stroke-width:1.0;"/><polygon fill="#000000" points="2297.9501,552.5861,2300.9529,543.2061,2297.4091,547.6154,2292.9998,544.0717,2297.9501,552.5861" style="stroke:#000000;stroke-width:1.0;"/><text fill="#000000" font-family="Verdana" font-size="13" lengthAdjust="spacing" textLength="132" x="2261" y="481.8071">Write error patterns</text></g><!--link DocChunks to AISearch--><g id="link_DocChunks_AISearch"><path d="M1873.0018,649.933 C1873.0569,650.0194 1873.1124,650.1061 1873.1681,650.193 C1873.2796,650.3669 1873.3921,650.5419 1873.5056,650.718 C1873.9598,651.4221 1874.4307,652.1433 1874.918,652.8795 C1876.8672,655.8242 1879.0788,659.0086 1881.53,662.3023 C1891.335,675.4773 1904.975,690.4023 1921,698.7373 C2060.38,771.2373 2153.88,637.1373 2272,740.7373 C2305.185,769.8473 2329.81,865.5648 2346.2,954.6386 C2350.2975,976.907 2353.8803,998.7602 2356.9535,1019.0536 C2358.4901,1029.2003 2359.8993,1038.9571 2361.1817,1048.1808 C2361.5024,1050.4868 2361.815,1052.7594 2362.1198,1054.9965 C2362.2722,1056.115 2362.4226,1057.2247 2362.571,1058.3251 C2362.6453,1058.8754 2361.9209,1053.4766 2361.9941,1054.0223 " fill="none" id="DocChunks-to-AISearch" style="stroke:#000000;stroke-width:1.0;"/><polygon fill="#000000" points="2362.7922,1059.969,2365.5595,1050.5169,2362.1271,1055.0134,2357.6306,1051.581,2362.7922,1059.969" style="stroke:#000000;stroke-width:1.0;"/><text fill="#000000" font-family="Verdana" font-size="13" lengthAdjust="spacing" textLength="108" x="2323" y="849.8071">Auto-sync index</text></g><!--link LogChunks to AISearch--><g id="link_LogChunks_AISearch"><path d="M2299.2778,642.421 C2299.8019,642.8236 2300.3481,643.2451 2300.9156,643.685 C2302.0505,644.565 2303.2707,645.5191 2304.5697,646.5452 C2307.1675,648.5973 2310.0804,650.9376 2313.2566,653.5492 C2325.9613,663.9954 2342.8788,678.7823 2360.7,696.8348 C2396.3425,732.9398 2435.6,782.1073 2452,835.7373 C2460.23,862.6673 2441.96,845.9773 2390,1037.7373 C2388.6913,1042.5661 2387.4208,1047.5598 2386.1985,1052.6078 C2386.1221,1052.9233 2387.4496,1047.4055 2387.3736,1047.7214 " fill="none" id="LogChunks-to-AISearch" style="stroke:#000000;stroke-width:1.0;"/><polygon fill="#000000" points="2385.9699,1053.5549,2391.9644,1045.7404,2387.1397,1048.6936,2384.1865,1043.8688,2385.9699,1053.5549" style="stroke:#000000;stroke-width:1.0;"/><text fill="#000000" font-family="Verdana" font-size="13" lengthAdjust="spacing" textLength="108" x="2454" y="849.8071">Auto-sync index</text></g><!--link IncidentKB to AISearch--><g id="link_IncidentKB_AISearch"><path d="M1889.2757,963.0818 C1889.8115,963.2661 1890.3719,963.4588 1890.9564,963.6598 C1892.1253,964.0617 1893.3905,964.4968 1894.7485,964.9637 C1897.4643,965.8976 1900.5511,966.9591 1903.9802,968.1382 C1917.6966,972.855 1936.8908,979.4554 1959.7366,987.3117 C2005.4281,1003.0242 2065.7262,1023.7598 2126.0225,1044.4948 C2186.3188,1065.2298 2246.6131,1085.9642 2292.2972,1101.6742 C2315.1392,1109.5292 2334.3287,1116.1281 2348.0395,1120.8429 C2351.4672,1122.0216 2354.5525,1123.0826 2357.2668,1124.016 C2358.624,1124.4827 2359.8884,1124.9175 2361.0566,1125.3192 C2361.6406,1125.52 2356.5267,1123.7615 2357.0622,1123.9456 " fill="none" id="IncidentKB-to-AISearch" style="stroke:#000000;stroke-width:1.0;"/><polygon fill="#000000" points="2362.7361,1125.8967,2355.5259,1119.1875,2358.0078,1124.2708,2352.9245,1126.7527,2362.7361,1125.8967" style="stroke:#000000;stroke-width:1.0;"/><text fill="#000000" font-family="Verdana" font-size="13" lengthAdjust="spacing" textLength="108" x="2083" y="1026.8071">Auto-sync index</text></g><!--link AISearch to GMN51--><g id="link_AISearch_GMN51"><path d="M2376.3155,1053.3749 C2376.4354,1052.979 2376.5572,1052.5839 2376.6811,1052.1896 C2377.1768,1050.6123 2377.7052,1049.0474 2378.2683,1047.4991 C2379.3945,1044.4026 2380.6595,1041.3725 2382.0787,1038.4426 C2387.7556,1026.7229 2395.9,1016.6048 2407.5,1010.2373 C2481.91,969.3873 2708.84,983.7773 2789.5,1010.2373 C2830.26,1023.6073 2869.22,1051.5473 2898.77,1077.0473 " fill="none" id="AISearch-GMN51" style="stroke:#000000;stroke-width:1.0;stroke-dasharray:7.0,7.0;"/></g><!--link LogIngest to GMN54--><g id="link_LogIngest_GMN54"><path d="M1129.2799,388.1398 C1130.9273,391.1051 1132.7903,394.4586 1134.8413,398.1503 C1143.045,412.917 1154.255,433.0942 1166.69,455.4761 C1191.56,500.2398 1221.33,553.8223 1241.75,590.5773 " fill="none" id="LogIngest-GMN54" style="stroke:#000000;stroke-width:1.0;stroke-dasharray:7.0,7.0;"/></g><!--SRC=[dLRRRkCs47tNLqnTeEYYQsUJDBq4Ym2EBnitcqljx0O52XYqD9QvbaYLf988nG95_wClVUvVz4_sIpeaRKcM72pG9rtcpF3CcU6GNvWLfWXPmhW833S9mf0Pjb0yNElkDJFyWVxy3BS9CqkfKkXsOTf_0vT2FYOOnGZdJ2EyPGMg8D1hBZAcM0eAGyD4JE5-3u0muJfMCXVHG2PImPUZu_7HU6WjKaMeDdyFJxux6RoYlrCFLG8L7BuAFjO2HvQTNN9_t1_69wCVct6FHjyFZuyeJ92H0oFIdNU2cm8652oHiKkAFLP9TLpqfKme1c47y5ucUOgw0qp3km5zEG10ADDC2XG6EfROF9J2A1OQVT1fsdMUPL8PZERX2adSFOZVadd6Z44bzbXLBXPIxlEZuXNFc2APKc7dSIArPgfmW8yxGbJLhcfyXmarXL65rw6KlFEJNC1NSCipJBYWgilOIqB_xNjR5Ej0n26noARnZkarQ4CQgmDwoDoq8FTIhPU9V0Hye6_jwGFia1fYOXZHeZ9TeM7Mu4XjFzgiXgFPO3ev7y75P7PtC_sbjUpaUdmplUhVJMwkvxF1nUYgtuAy9G6iWFtRoHvH7QKxjaXGs-OQh7AnnWYefRDSDrMDP4WzGGWlvb263hz7JelaqKkmJrDa-4ozNuAnIyy5IziGjzBSu5DRRKmN64LSnFC7shvIxPMRIbbdItL_ZcsswHD7cRg0dkqbbP9gVovs8PsdAVNj_sFAHSWZWi_N2qTrilc-F6zpBR5xE2efpJnakMvpLAXfCXWkHSkq97QeCiM5AHkacehrVTUVm0oP2bUEPN_YFnp7MhptBb5A8iAdNyNNCqoPC3pSkBvmlXupYPvsNIyAMYdQ8Cdt4ej7ce_mpSR1EtkK1-twbpjfp1EQJff2x3GQFQY0Fie6qiYMkeIOnwYjLB3TrHId9WFDYXVRblBOfWIZ9pTSuGDD5TSuRY3K0AuJQHIuzcZOxXKt24P2hO5t4KF6au9EhYLLTTMn6VXHt-sUrJYTmZtYce1ycq-m7NzDe0ze3nZqp2su5BE9dj6va39OSKqbAOBAP87LKA3rNIO-XGQiserRcDC9jiTAKCMnyBBNJg6V6zdLXGWfB-gme8hq6M1jLtq66GX9X1IFLmRaiaHI4LulpkobOaOY6OoBqzS7YpFwVTXpnp9DEqqXe3g7oNRKAwSgcVp0TSreZSSzlq-yiTnVPFcsvqujC0ffgSYs6n7NCbSXalcaLqu93ROE1A4Z4HBo5rJm04K4DerDCWjfZ4njDcKTV3gqnIYIa0_C5dsRKAtRxOa8JA6D1XzovvTAkfL8cXYncsBmxz-V_lpdqnz_0LtI2WTczbh2bJRTC65QmxgyXfKfMBeHPx6GckjUHVW_]--></g></svg>