<?xml version="1.0" encoding="us-ascii" standalone="no"?><svg xmlns="http://www.w3.org/2000/svg" xmlns:xlink="http://www.w3.org/1999/xlink" contentStyleType="text/css" height="1350px" preserveAspectRatio="none" style="width:3062px;height:1350px;background:#FFFFFF;" version="1.1" viewBox="0 0 3062 1350" width="3062px" zoomAndPan="magnify"><defs/><g><text fill="#000000" font-family="Verdana" font-size="22" font-weight="bold" lengthAdjust="spacing" textLength="766" x="1143.5" y="37.1182">Databricks-Native DQ Platform -- RAG Knowledge Base Layer</text><!--cluster Unity Catalog - - Raw Knowledge--><g id="cluster_Unity Catalog -- Raw Knowledge"><path d="M13.5,73.7373 L268.5,73.7373 A3.75,3.75 0 0 1 271,76.2373 L278,96.752 L672.5,96.752 A2.5,2.5 0 0 1 675,99.252 L675,449.2373 A2.5,2.5 0 0 1 672.5,451.7373 L13.5,451.7373 A2.5,2.5 0 0 1 11,449.2373 L11,76.2373 A2.5,2.5 0 0 1 13.5,73.7373 " fill="#FFFFFF" style="stroke:#000000;stroke-width:1.0;"/><line style="stroke:#000000;stroke-width:1.0;" x1="11" x2="278" y1="96.752" y2="96.752"/><text fill="#000000" font-family="Verdana" font-size="14" font-weight="bold" lengthAdjust="spacing" textLength="254" x="15" y="89.8125">Unity Catalog -- Raw Knowledge</text></g><!--cluster UCVol--><g id="cluster_UCVol"><path d="M45.5,125.7373 L139.5,125.7373 A3.75,3.75 0 0 1 142,128.2373 L149,148.752 L640.5,148.752 A2.5,2.5 0 0 1 643,151.252 L643,417.2373 A2.5,2.5 0 0 1 640.5,419.7373 L45.5,419.7373 A2.5,2.5 0 0 1 43,417.2373 L43,128.2373 A2.5,2.5 0 0 1 45.5,125.7373 " fill="#FFFFFF" style="stroke:#000000;stroke-width:1.0;"/><line style="stroke:#000000;stroke-width:1.0;" x1="43" x2="149" y1="148.752" y2="148.752"/><text fill="#000000" font-family="Verdana" font-size="14" font-weight="bold" lengthAdjust="spacing" textLength="93" x="47" y="141.8125">UC Volumes</text></g><!--cluster Databricks Platform Telemetry--><g id="cluster_Databricks Platform Telemetry"><path d="M1316.5,58.7373 L1551.5,58.7373 A3.75,3.75 0 0 1 1554,61.2373 L1561,81.752 L2314.5,81.752 A2.5,2.5 0 0 1 2317,84.252 L2317,449.2373 A2.5,2.5 0 0 1 2314.5,451.7373 L1316.5,451.7373 A2.5,2.5 0 0 1 1314,449.2373 L1314,61.2373 A2.5,2.5 0 0 1 1316.5,58.7373 " fill="#FFFFFF" style="stroke:#000000;stroke-width:1.0;"/><line style="stroke:#000000;stroke-width:1.0;" x1="1314" x2="1561" y1="81.752" y2="81.752"/><text fill="#000000" font-family="Verdana" font-size="14" font-weight="bold" lengthAdjust="spacing" textLength="234" x="1318" y="74.8125">Databricks Platform Telemetry</text></g><!--cluster JobLogs--><g id="cluster_JobLogs"><path d="M1881,120.7373 C1881,110.7373 2083,110.7373 2083,110.7373 C2083,110.7373 2285,110.7373 2285,120.7373 L2285,409.7373 C2285,419.7373 2083,419.7373 2083,419.7373 C2083,419.7373 1881,419.7373 1881,409.7373 L1881,120.7373 " fill="#E8F5E9" style="stroke:#2E7D32;stroke-width:1.0;"/><path d="M1881,120.7373 C1881,130.7373 2083,130.7373 2083,130.7373 C2083,130.7373 2285,130.7373 2285,120.7373 " fill="none" style="stroke:#2E7D32;stroke-width:1.0;"/><text fill="#000000" font-family="Verdana" font-size="14" font-weight="bold" lengthAdjust="spacing" textLength="152" x="2007" y="146.8125">Job &amp; Pipeline Logs</text></g><!--cluster Metadata--><g id="cluster_Metadata"><path d="M1346,120.7373 C1346,110.7373 1593.5,110.7373 1593.5,110.7373 C1593.5,110.7373 1841,110.7373 1841,120.7373 L1841,409.7373 C1841,419.7373 1593.5,419.7373 1593.5,419.7373 C1593.5,419.7373 1346,419.7373 1346,409.7373 L1346,120.7373 " fill="#E8F5E9" style="stroke:#2E7D32;stroke-width:1.0;"/><path d="M1346,120.7373 C1346,130.7373 1593.5,130.7373 1593.5,130.7373 C1593.5,130.7373 1841,130.7373 1841,120.7373 " fill="none" style="stroke:#2E7D32;stroke-width:1.0;"/><text fill="#000000" font-family="Verdana" font-size="14" font-weight="bold" lengthAdjust="spacing" textLength="159" x="1514" y="146.8125">Delta &amp; UC Metadata</text></g><!--cluster Delta Tables - - Chunked Corpus--><g id="cluster_Delta Tables -- Chunked Corpus"><path d="M1387.5,500.7373 L1636.5,500.7373 A3.75,3.75 0 0 1 1639,503.2373 L1646,523.752 L2318.5,523.752 A2.5,2.5 0 0 1 2321,526.252 L2321,1206.7373 A2.5,2.5 0 0 1 2318.5,1209.2373 L1387.5,1209.2373 A2.5,2.5 0 0 1 1385,1206.7373 L1385,503.2373 A2.5,2.5 0 0 1 1387.5,500.7373 " fill="#FFFFFF" style="stroke:#000000;stroke-width:1.0;"/><line style="stroke:#000000;stroke-width:1.0;" x1="1385" x2="1646" y1="523.752" y2="523.752"/><text fill="#000000" font-family="Verdana" font-size="14" font-weight="bold" lengthAdjust="spacing" textLength="248" x="1389" y="516.8125">Delta Tables -- Chunked Corpus</text></g><!--cluster DocChunks--><g id="cluster_DocChunks"><path d="M1417,562.7373 C1417,552.7373 1640,552.7373 1640,552.7373 C1640,552.7373 1863,552.7373 1863,562.7373 L1863,801.7373 C1863,811.7373 1640,811.7373 1640,811.7373 C1640,811.7373 1417,811.7373 1417,801.7373 L1417,562.7373 " fill="#E8F5E9" style="stroke:#2E7D32;stroke-width:1.0;"/><path d="M1417,562.7373 C1417,572.7373 1640,572.7373 1640,572.7373 C1640,572.7373 1863,572.7373 1863,562.7373 " fill="none" style="stroke:#2E7D32;stroke-width:1.0;"/><text fill="#000000" font-family="Verdana" font-size="14" font-weight="bold" lengthAdjust="spacing" textLength="93" x="1593.5" y="588.8125">doc_chunks</text></g><!--cluster LogChunks--><g id="cluster_LogChunks"><path d="M1903,562.7373 C1903,552.7373 2096,552.7373 2096,552.7373 C2096,552.7373 2289,552.7373 2289,562.7373 L2289,801.7373 C2289,811.7373 2096,811.7373 2096,811.7373 C2096,811.7373 1903,811.7373 1903,801.7373 L1903,562.7373 " fill="#E8F5E9" style="stroke:#2E7D32;stroke-width:1.0;"/><path d="M1903,562.7373 C1903,572.7373 2096,572.7373 2096,572.7373 C2096,572.7373 2289,572.7373 2289,562.7373 " fill="none" style="stroke:#2E7D32;stroke-width:1.0;"/><text fill="#000000" font-family="Verdana" font-size="14" font-weight="bold" lengthAdjust="spacing" textLength="89" x="2051.5" y="588.8125">log_chunks</text></g><!--cluster IncidentKB--><g id="cluster_IncidentKB"><path d="M1542,886.7373 C1542,876.7373 1710.5,876.7373 1710.5,876.7373 C1710.5,876.7373 1879,876.7373 1879,886.7373 L1879,1167.2373 C1879,1177.2373 1710.5,1177.2373 1710.5,1177.2373 C1710.5,1177.2373 1542,1177.2373 1542,1167.2373 L1542,886.7373 " fill="#E8F5E9" style="stroke:#2E7D32;stroke-width:1.0;"/><path d="M1542,886.7373 C1542,896.7373 1710.5,896.7373 1710.5,896.7373 C1710.5,896.7373 1879,896.7373 1879,886.7373 " fill="none" style="stroke:#2E7D32;stroke-width:1.0;"/><text fill="#000000" font-family="Verdana" font-size="14" font-weight="bold" lengthAdjust="spacing" textLength="90" x="1665.5" y="912.8125">incident_kb</text></g><!--cluster AISearch--><g id="cluster_AISearch"><rect fill="#E3F2FD" height="290.5" rx="5" ry="5" style="stroke:#1565C0;stroke-width:1.0;" width="452" x="2353" y="1053.7373"/><text fill="#000000" font-family="Verdana" font-size="14" font-weight="bold" lengthAdjust="spacing" textLength="163" x="2497.5" y="1069.8125">Databricks AI Search</text></g><!--cluster LogIngest--><g id="cluster_LogIngest"><rect fill="#E3F2FD" height="395" rx="5" ry="5" style="stroke:#1565C0;stroke-width:1.0;" width="422" x="707" y="287.7373"/><text fill="#000000" font-family="Verdana" font-size="14" font-weight="bold" lengthAdjust="spacing" textLength="190" x="823" y="303.8125">Log Ingestion Workflow</text><text fill="#000000" font-family="Verdana" font-size="14" font-weight="bold" lengthAdjust="spacing" textLength="130" x="853" y="320.8271">(Databricks Job)</text></g><!--entity data_contracts/--><g id="elem_data_contracts/"><rect fill="#FFFFFF" height="47.0146" rx="2.5" ry="2.5" style="stroke:#000000;stroke-width:1.0;" width="152" x="67" y="169.7373"/><rect fill="#FFFFFF" height="10" style="stroke:#000000;stroke-width:1.0;" width="15" x="199" y="174.7373"/><rect fill="#FFFFFF" height="2" style="stroke:#000000;stroke-width:1.0;" width="4" x="197" y="176.7373"/><rect fill="#FFFFFF" height="2" style="stroke:#000000;stroke-width:1.0;" width="4" x="197" y="180.7373"/><text fill="#000000" font-family="Verdana" font-size="14" lengthAdjust="spacing" textLength="112" x="82" y="203.8125">data_contracts/</text></g><!--entity supported_checks/--><g id="elem_supported_checks/"><rect fill="#FFFFFF" height="47.0146" rx="2.5" ry="2.5" style="stroke:#000000;stroke-width:1.0;" width="175" x="254.5" y="169.7373"/><rect fill="#FFFFFF" height="10" style="stroke:#000000;stroke-width:1.0;" width="15" x="409.5" y="174.7373"/><rect fill="#FFFFFF" height="2" style="stroke:#000000;stroke-width:1.0;" width="4" x="407.5" y="176.7373"/><rect fill="#FFFFFF" height="2" style="stroke:#000000;stroke-width:1.0;" width="4" x="407.5" y="180.7373"/><text fill="#000000" font-family="Verdana" font-size="14" lengthAdjust="spacing" textLength="135" x="269.5" y="203.8125">supported_checks/</text></g><!--entity sql_patterns/--><g id="elem_sql_patterns/"><rect fill="#FFFFFF" height="47.0146" rx="2.5" ry="2.5" style="stroke:#000000;stroke-width:1.0;" width="135" x="464.5" y="169.7373"/><rect fill="#FFFFFF" height="10" style="stroke:#000000;stroke-width:1.0;" width="15" x="579.5" y="174.7373"/><rect fill="#FFFFFF" height="2" style="stroke:#000000;stroke-width:1.0;" width="4" x="577.5" y="176.7373"/><rect fill="#FFFFFF" height="2" style="stroke:#000000;stroke-width:1.0;" width="4" x="577.5" y="180.7373"/><text fill="#000000" font-family="Verdana" font-size="14" lengthAdjust="spacing" textLength="95" x="479.5" y="203.8125">sql_patterns/</text></g><!--entity runbooks/--><g id="elem_runbooks/"><rect fill="#FFFFFF" height="47.0146" rx="2.5" ry="2.5" style="stroke:#000000;stroke-width:1.0;" width="113" x="86.5" y="348.7373"/><rect fill="#FFFFFF" height="10" style="stroke:#000000;stroke-width:1.0;" width="15" x="179.5" y="353.7373"/><rect fill="#FFFFFF" height="2" style="stroke:#000000;stroke-width:1.0;" width="4" x="177.5" y="355.7373"/><rect fill="#FFFFFF" height="2" style="stroke:#000000;stroke-width:1.0;" width="4" x="177.5" y="359.7373"/><text fill="#000000" font-family="Verdana" font-size="14" lengthAdjust="spacing" textLength="73" x="101.5" y="382.8125">runbooks/</text></g><!--entity playbooks/--><g id="elem_playbooks/"><rect fill="#FFFFFF" height="47.0146" rx="2.5" ry="2.5" style="stroke:#000000;stroke-width:1.0;" width="117" x="234.5" y="348.7373"/><rect fill="#FFFFFF" height="10" style="stroke:#000000;stroke-width:1.0;" width="15" x="331.5" y="353.7373"/><rect fill="#FFFFFF" height="2" style="stroke:#000000;stroke-width:1.0;" width="4" x="329.5" y="355.7373"/><rect fill="#FFFFFF" height="2" style="stroke:#000000;stroke-width:1.0;" width="4" x="329.5" y="359.7373"/><text fill="#000000" font-family="Verdana" font-size="14" lengthAdjust="spacing" textLength="77" x="249.5" y="382.8125">playbooks/</text></g><!--entity domain_glossary/--><g id="elem_domain_glossary/"><rect fill="#FFFFFF" height="47.0146" rx="2.5" ry="2.5" style="stroke:#000000;stroke-width:1.0;" width="165" x="386.5" y="348.7373"/><rect fill="#FFFFFF" height="10" style="stroke:#000000;stroke-width:1.0;" width="15" x="531.5" y="353.7373"/><rect fill="#FFFFFF" height="2" style="stroke:#000000;stroke-width:1.0;" width="4" x="529.5" y="355.7373"/><rect fill="#FFFFFF" height="2" style="stroke:#000000;stroke-width:1.0;" width="4" x="529.5" y="359.7373"/><text fill="#000000" font-family="Verdana" font-size="14" lengthAdjust="spacing" textLength="125" x="401.5" y="382.8125">domain_glossary/</text></g><!--entity Job run logs--><g id="elem_Job run logs"><rect fill="#FFFFFF" height="47.0146" rx="2.5" ry="2.5" style="stroke:#000000;stroke-width:1.0;" width="127" x="1924.5" y="169.7373"/><rect fill="#FFFFFF" height="10" style="stroke:#000000;stroke-width:1.0;" width="15" x="2031.5" y="174.7373"/><rect fill="#FFFFFF" height="2" style="stroke:#000000;stroke-width:1.0;" width="4" x="2029.5" y="176.7373"/><rect fill="#FFFFFF" height="2" style="stroke:#000000;stroke-width:1.0;" width="4" x="2029.5" y="180.7373"/><text fill="#000000" font-family="Verdana" font-size="14" lengthAdjust="spacing" textLength="87" x="1939.5" y="203.8125">Job run logs</text></g><!--entity Task stderr/stdout--><g id="elem_Task stderr/stdout"><rect fill="#FFFFFF" height="47.0146" rx="2.5" ry="2.5" style="stroke:#000000;stroke-width:1.0;" width="174" x="2087" y="169.7373"/><rect fill="#FFFFFF" height="10" style="stroke:#000000;stroke-width:1.0;" width="15" x="2241" y="174.7373"/><rect fill="#FFFFFF" height="2" style="stroke:#000000;stroke-width:1.0;" width="4" x="2239" y="176.7373"/><rect fill="#FFFFFF" height="2" style="stroke:#000000;stroke-width:1.0;" width="4" x="2239" y="180.7373"/><text fill="#000000" font-family="Verdana" font-size="14" lengthAdjust="spacing" textLength="134" x="2102" y="203.8125">Task stderr/stdout</text></g><!--entity Workflow events--><g id="elem_Workflow events"><rect fill="#FFFFFF" height="47.0146" rx="2.5" ry="2.5" style="stroke:#000000;stroke-width:1.0;" width="158" x="1924" y="348.7373"/><rect fill="#FFFFFF" height="10" style="stroke:#000000;stroke-width:1.0;" width="15" x="2062" y="353.7373"/><rect fill="#FFFFFF" height="2" style="stroke:#000000;stroke-width:1.0;" width="4" x="2060" y="355.7373"/><rect fill="#FFFFFF" height="2" style="stroke:#000000;stroke-width:1.0;" width="4" x="2060" y="359.7373"/><text fill="#000000" font-family="Verdana" font-size="14" lengthAdjust="spacing" textLength="118" x="1939" y="382.8125">Workflow events</text></g><!--entity DESCRIBE HISTORY--><g id="elem_DESCRIBE HISTORY"><rect fill="#FFFFFF" height="47.0146" rx="2.5" ry="2.5" style="stroke:#000000;stroke-width:1.0;" width="183" x="1389.5" y="169.7373"/><rect fill="#FFFFFF" height="10" style="stroke:#000000;stroke-width:1.0;" width="15" x="1552.5" y="174.7373"/><rect fill="#FFFFFF" height="2" style="stroke:#000000;stroke-width:1.0;" width="4" x="1550.5" y="176.7373"/><rect fill="#FFFFFF" height="2" style="stroke:#000000;stroke-width:1.0;" width="4" x="1550.5" y="180.7373"/><text fill="#000000" font-family="Verdana" font-size="14" lengthAdjust="spacing" textLength="143" x="1404.5" y="203.8125">DESCRIBE HISTORY</text></g><!--entity INFORMATION_SCHEMA--><g id="elem_INFORMATION_SCHEMA"><rect fill="#FFFFFF" height="47.0146" rx="2.5" ry="2.5" style="stroke:#000000;stroke-width:1.0;" width="209" x="1607.5" y="169.7373"/><rect fill="#FFFFFF" height="10" style="stroke:#000000;stroke-width:1.0;" width="15" x="1796.5" y="174.7373"/><rect fill="#FFFFFF" height="2" style="stroke:#000000;stroke-width:1.0;" width="4" x="1794.5" y="176.7373"/><rect fill="#FFFFFF" height="2" style="stroke:#000000;stroke-width:1.0;" width="4" x="1794.5" y="180.7373"/><text fill="#000000" font-family="Verdana" font-size="14" lengthAdjust="spacing" textLength="169" x="1622.5" y="203.8125">INFORMATION_SCHEMA</text></g><!--entity Lineage API--><g id="elem_Lineage API"><rect fill="#FFFFFF" height="47.0146" rx="2.5" ry="2.5" style="stroke:#000000;stroke-width:1.0;" width="121" x="1420.5" y="348.7373"/><rect fill="#FFFFFF" height="10" style="stroke:#000000;stroke-width:1.0;" width="15" x="1521.5" y="353.7373"/><rect fill="#FFFFFF" height="2" style="stroke:#000000;stroke-width:1.0;" width="4" x="1519.5" y="355.7373"/><rect fill="#FFFFFF" height="2" style="stroke:#000000;stroke-width:1.0;" width="4" x="1519.5" y="359.7373"/><text fill="#000000" font-family="Verdana" font-size="14" lengthAdjust="spacing" textLength="81" x="1435.5" y="382.8125">Lineage API</text></g><!--entity doc_id, doc_type--><g id="elem_doc_id, doc_type"><rect fill="#FFFFFF" height="47.0146" rx="2.5" ry="2.5" style="stroke:#000000;stroke-width:1.0;" width="161" x="1441.5" y="611.7373"/><rect fill="#FFFFFF" height="10" style="stroke:#000000;stroke-width:1.0;" width="15" x="1582.5" y="616.7373"/><rect fill="#FFFFFF" height="2" style="stroke:#000000;stroke-width:1.0;" width="4" x="1580.5" y="618.7373"/><rect fill="#FFFFFF" height="2" style="stroke:#000000;stroke-width:1.0;" width="4" x="1580.5" y="622.7373"/><text fill="#000000" font-family="Verdana" font-size="14" lengthAdjust="spacing" textLength="121" x="1456.5" y="645.8125">doc_id, doc_type</text></g><!--entity domain, table_name--><g id="elem_domain, table_name"><rect fill="#FFFFFF" height="47.0146" rx="2.5" ry="2.5" style="stroke:#000000;stroke-width:1.0;" width="182" x="1638" y="611.7373"/><rect fill="#FFFFFF" height="10" style="stroke:#000000;stroke-width:1.0;" width="15" x="1800" y="616.7373"/><rect fill="#FFFFFF" height="2" style="stroke:#000000;stroke-width:1.0;" width="4" x="1798" y="618.7373"/><rect fill="#FFFFFF" height="2" style="stroke:#000000;stroke-width:1.0;" width="4" x="1798" y="622.7373"/><text fill="#000000" font-family="Verdana" font-size="14" lengthAdjust="spacing" textLength="142" x="1653" y="645.8125">domain, table_name</text></g><!--entity chunk_text--><g id="elem_chunk_text"><rect fill="#FFFFFF" height="47.0146" rx="2.5" ry="2.5" style="stroke:#000000;stroke-width:1.0;" width="120" x="1486" y="740.7373"/><rect fill="#FFFFFF" height="10" style="stroke:#000000;stroke-width:1.0;" width="15" x="1586" y="745.7373"/><rect fill="#FFFFFF" height="2" style="stroke:#000000;stroke-width:1.0;" width="4" x="1584" y="747.7373"/><rect fill="#FFFFFF" height="2" style="stroke:#000000;stroke-width:1.0;" width="4" x="1584" y="751.7373"/><text fill="#000000" font-family="Verdana" font-size="14" lengthAdjust="spacing" textLength="80" x="1501" y="774.8125">chunk_text</text></g><!--entity embedding_vector--><g id="elem_embedding_vector"><rect fill="#FFFFFF" height="47.0146" rx="2.5" ry="2.5" style="stroke:#000000;stroke-width:1.0;" width="170" x="1641" y="740.7373"/><rect fill="#FFFFFF" height="10" style="stroke:#000000;stroke-width:1.0;" width="15" x="1791" y="745.7373"/><rect fill="#FFFFFF" height="2" style="stroke:#000000;stroke-width:1.0;" width="4" x="1789" y="747.7373"/><rect fill="#FFFFFF" height="2" style="stroke:#000000;stroke-width:1.0;" width="4" x="1789" y="751.7373"/><text fill="#000000" font-family="Verdana" font-size="14" lengthAdjust="spacing" textLength="130" x="1656" y="774.8125">embedding_vector</text></g><!--entity pipeline_id, run_id--><g id="elem_pipeline_id, run_id"><rect fill="#FFFFFF" height="47.0146" rx="2.5" ry="2.5" style="stroke:#000000;stroke-width:1.0;" width="168" x="1927" y="611.7373"/><rect fill="#FFFFFF" height="10" style="stroke:#000000;stroke-width:1.0;" width="15" x="2075" y="616.7373"/><rect fill="#FFFFFF" height="2" style="stroke:#000000;stroke-width:1.0;" width="4" x="2073" y="618.7373"/><rect fill="#FFFFFF" height="2" style="stroke:#000000;stroke-width:1.0;" width="4" x="2073" y="622.7373"/><text fill="#000000" font-family="Verdana" font-size="14" lengthAdjust="spacing" textLength="128" x="1942" y="645.8125">pipeline_id, run_id</text></g><!--entity error_type--><g id="elem_error_type"><rect fill="#FFFFFF" height="47.0146" rx="2.5" ry="2.5" style="stroke:#000000;stroke-width:1.0;" width="115" x="2130.5" y="611.7373"/><rect fill="#FFFFFF" height="10" style="stroke:#000000;stroke-width:1.0;" width="15" x="2225.5" y="616.7373"/><rect fill="#FFFFFF" height="2" style="stroke:#000000;stroke-width:1.0;" width="4" x="2223.5" y="618.7373"/><rect fill="#FFFFFF" height="2" style="stroke:#000000;stroke-width:1.0;" width="4" x="2223.5" y="622.7373"/><text fill="#000000" font-family="Verdana" font-size="14" lengthAdjust="spacing" textLength="75" x="2145.5" y="645.8125">error_type</text></g><!--entity log_summary--><g id="elem_log_summary"><rect fill="#FFFFFF" height="47.0146" rx="2.5" ry="2.5" style="stroke:#000000;stroke-width:1.0;" width="135" x="1943.5" y="740.7373"/><rect fill="#FFFFFF" height="10" style="stroke:#000000;stroke-width:1.0;" width="15" x="2058.5" y="745.7373"/><rect fill="#FFFFFF" height="2" style="stroke:#000000;stroke-width:1.0;" width="4" x="2056.5" y="747.7373"/><rect fill="#FFFFFF" height="2" style="stroke:#000000;stroke-width:1.0;" width="4" x="2056.5" y="751.7373"/><text fill="#000000" font-family="Verdana" font-size="14" lengthAdjust="spacing" textLength="95" x="1958.5" y="774.8125">log_summary</text></g><!--entity incident_id--><g id="elem_incident_id"><rect fill="#FFFFFF" height="47.0146" rx="2.5" ry="2.5" style="stroke:#000000;stroke-width:1.0;" width="115" x="1566.5" y="935.7373"/><rect fill="#FFFFFF" height="10" style="stroke:#000000;stroke-width:1.0;" width="15" x="1661.5" y="940.7373"/><rect fill="#FFFFFF" height="2" style="stroke:#000000;stroke-width:1.0;" width="4" x="1659.5" y="942.7373"/><rect fill="#FFFFFF" height="2" style="stroke:#000000;stroke-width:1.0;" width="4" x="1659.5" y="946.7373"/><text fill="#000000" font-family="Verdana" font-size="14" lengthAdjust="spacing" textLength="75" x="1581.5" y="969.8125">incident_id</text></g><!--entity root_cause--><g id="elem_root_cause"><rect fill="#FFFFFF" height="47.0146" rx="2.5" ry="2.5" style="stroke:#000000;stroke-width:1.0;" width="119" x="1716.5" y="935.7373"/><rect fill="#FFFFFF" height="10" style="stroke:#000000;stroke-width:1.0;" width="15" x="1815.5" y="940.7373"/><rect fill="#FFFFFF" height="2" style="stroke:#000000;stroke-width:1.0;" width="4" x="1813.5" y="942.7373"/><rect fill="#FFFFFF" height="2" style="stroke:#000000;stroke-width:1.0;" width="4" x="1813.5" y="946.7373"/><text fill="#000000" font-family="Verdana" font-size="14" lengthAdjust="spacing" textLength="79" x="1731.5" y="969.8125">root_cause</text></g><!--entity resolution--><g id="elem_resolution"><rect fill="#FFFFFF" height="47.0146" rx="2.5" ry="2.5" style="stroke:#000000;stroke-width:1.0;" width="110" x="1569" y="1106.2373"/><rect fill="#FFFFFF" height="10" style="stroke:#000000;stroke-width:1.0;" width="15" x="1659" y="1111.2373"/><rect fill="#FFFFFF" height="2" style="stroke:#000000;stroke-width:1.0;" width="4" x="1657" y="1113.2373"/><rect fill="#FFFFFF" height="2" style="stroke:#000000;stroke-width:1.0;" width="4" x="1657" y="1117.2373"/><text fill="#000000" font-family="Verdana" font-size="14" lengthAdjust="spacing" textLength="70" x="1584" y="1140.3125">resolution</text></g><!--entity fingerprint--><g id="elem_fingerprint"><rect fill="#FFFFFF" height="47.0146" rx="2.5" ry="2.5" style="stroke:#000000;stroke-width:1.0;" width="113" x="1714.5" y="1106.2373"/><rect fill="#FFFFFF" height="10" style="stroke:#000000;stroke-width:1.0;" width="15" x="1807.5" y="1111.2373"/><rect fill="#FFFFFF" height="2" style="stroke:#000000;stroke-width:1.0;" width="4" x="1805.5" y="1113.2373"/><rect fill="#FFFFFF" height="2" style="stroke:#000000;stroke-width:1.0;" width="4" x="1805.5" y="1117.2373"/><text fill="#000000" font-family="Verdana" font-size="14" lengthAdjust="spacing" textLength="73" x="1729.5" y="1140.3125">fingerprint</text></g><!--entity VectorIdx--><g id="elem_VectorIdx"><rect fill="#FFFFFF" height="64.0293" rx="2.5" ry="2.5" style="stroke:#000000;stroke-width:1.0;" width="169" x="2396.5" y="1097.7373"/><rect fill="#FFFFFF" height="10" style="stroke:#000000;stroke-width:1.0;" width="15" x="2545.5" y="1102.7373"/><rect fill="#FFFFFF" height="2" style="stroke:#000000;stroke-width:1.0;" width="4" x="2543.5" y="1104.7373"/><rect fill="#FFFFFF" height="2" style="stroke:#000000;stroke-width:1.0;" width="4" x="2543.5" y="1108.7373"/><text fill="#000000" font-family="Verdana" font-size="14" lengthAdjust="spacing" textLength="91" x="2411.5" y="1131.8125">Vector Index</text><text fill="#000000" font-family="Verdana" font-size="14" lengthAdjust="spacing" textLength="129" x="2411.5" y="1148.8271">(Semantic Search)</text></g><!--entity HybridSearch--><g id="elem_HybridSearch"><rect fill="#FFFFFF" height="64.0293" rx="2.5" ry="2.5" style="stroke:#000000;stroke-width:1.0;" width="180" x="2601" y="1097.7373"/><rect fill="#FFFFFF" height="10" style="stroke:#000000;stroke-width:1.0;" width="15" x="2761" y="1102.7373"/><rect fill="#FFFFFF" height="2" style="stroke:#000000;stroke-width:1.0;" width="4" x="2759" y="1104.7373"/><rect fill="#FFFFFF" height="2" style="stroke:#000000;stroke-width:1.0;" width="4" x="2759" y="1108.7373"/><text fill="#000000" font-family="Verdana" font-size="14" lengthAdjust="spacing" textLength="98" x="2616" y="1131.8125">Hybrid Search</text><text fill="#000000" font-family="Verdana" font-size="14" lengthAdjust="spacing" textLength="140" x="2616" y="1148.8271">(Keyword + Vector)</text></g><!--entity Filters--><g id="elem_Filters"><rect fill="#FFFFFF" height="64.0293" rx="2.5" ry="2.5" style="stroke:#000000;stroke-width:1.0;" width="188" x="2396" y="1256.2373"/><rect fill="#FFFFFF" height="10" style="stroke:#000000;stroke-width:1.0;" width="15" x="2564" y="1261.2373"/><rect fill="#FFFFFF" height="2" style="stroke:#000000;stroke-width:1.0;" width="4" x="2562" y="1263.2373"/><rect fill="#FFFFFF" height="2" style="stroke:#000000;stroke-width:1.0;" width="4" x="2562" y="1267.2373"/><text fill="#000000" font-family="Verdana" font-size="14" lengthAdjust="spacing" textLength="111" x="2411" y="1290.3125">Metadata Filters</text><text fill="#000000" font-family="Verdana" font-size="14" lengthAdjust="spacing" textLength="148" x="2411" y="1307.3271">(domain, table, type)</text></g><!--entity Extract job errors--><g id="elem_Extract job errors"><rect fill="#FFFFFF" height="47.0146" rx="2.5" ry="2.5" style="stroke:#000000;stroke-width:1.0;" width="167" x="731.5" y="348.7373"/><rect fill="#FFFFFF" height="10" style="stroke:#000000;stroke-width:1.0;" width="15" x="878.5" y="353.7373"/><rect fill="#FFFFFF" height="2" style="stroke:#000000;stroke-width:1.0;" width="4" x="876.5" y="355.7373"/><rect fill="#FFFFFF" height="2" style="stroke:#000000;stroke-width:1.0;" width="4" x="876.5" y="359.7373"/><text fill="#000000" font-family="Verdana" font-size="14" lengthAdjust="spacing" textLength="127" x="746.5" y="382.8125">Extract job errors</text></g><!--entity Chunk & embed--><g id="elem_Chunk &amp; embed"><rect fill="#FFFFFF" height="47.0146" rx="2.5" ry="2.5" style="stroke:#000000;stroke-width:1.0;" width="152" x="934" y="348.7373"/><rect fill="#FFFFFF" height="10" style="stroke:#000000;stroke-width:1.0;" width="15" x="1066" y="353.7373"/><rect fill="#FFFFFF" height="2" style="stroke:#000000;stroke-width:1.0;" width="4" x="1064" y="355.7373"/><rect fill="#FFFFFF" height="2" style="stroke:#000000;stroke-width:1.0;" width="4" x="1064" y="359.7373"/><text fill="#000000" font-family="Verdana" font-size="14" lengthAdjust="spacing" textLength="112" x="949" y="382.8125">Chunk &amp; embed</text></g><!--entity Write to log_chunks--><g id="elem_Write to log_chunks"><rect fill="#FFFFFF" height="47.0146" rx="2.5" ry="2.5" style="stroke:#000000;stroke-width:1.0;" width="183" x="731.5" y="611.7373"/><rect fill="#FFFFFF" height="10" style="stroke:#000000;stroke-width:1.0;" width="15" x="894.5" y="616.7373"/><rect fill="#FFFFFF" height="2" style="stroke:#000000;stroke-width:1.0;" width="4" x="892.5" y="618.7373"/><rect fill="#FFFFFF" height="2" style="stroke:#000000;stroke-width:1.0;" width="4" x="892.5" y="622.7373"/><text fill="#000000" font-family="Verdana" font-size="14" lengthAdjust="spacing" textLength="143" x="746.5" y="645.8125">Write to log_chunks</text></g><!--entity Daily refresh--><g id="elem_Daily refresh"><rect fill="#FFFFFF" height="47.0146" rx="2.5" ry="2.5" style="stroke:#000000;stroke-width:1.0;" width="128" x="950" y="611.7373"/><rect fill="#FFFFFF" height="10" style="stroke:#000000;stroke-width:1.0;" width="15" x="1058" y="616.7373"/><rect fill="#FFFFFF" height="2" style="stroke:#000000;stroke-width:1.0;" width="4" x="1056" y="618.7373"/><rect fill="#FFFFFF" height="2" style="stroke:#000000;stroke-width:1.0;" width="4" x="1056" y="622.7373"/><text fill="#000000" font-family="Verdana" font-size="14" lengthAdjust="spacing" textLength="88" x="965" y="645.8125">Daily refresh</text></g><g id="elem_GMN51"><path d="M2829,1077.2373 L2829,1182.0332 L3055,1182.0332 L3055,1087.2373 L3045,1077.2373 L2829,1077.2373 " fill="#FFFFFF" style="stroke:#000000;stroke-width:1.0;"/><path d="M3045,1077.2373 L3045,1087.2373 L3055,1087.2373 L3045,1077.2373 " fill="#FFFFFF" style="stroke:#000000;stroke-width:1.0;"/><text fill="#000000" font-family="Verdana" font-size="13" font-weight="bold" lengthAdjust="spacing" textLength="101" x="2835" y="1095.3071">RAG Strategy:</text><text fill="#000000" font-family="Verdana" font-size="13" lengthAdjust="spacing" textLength="179" x="2835" y="1111.1064">1. Raw docs in UC Volumes</text><text fill="#000000" font-family="Verdana" font-size="13" lengthAdjust="spacing" textLength="174" x="2835" y="1126.9058">2. Chunked in Delta tables</text><text fill="#000000" font-family="Verdana" font-size="13" lengthAdjust="spacing" textLength="156" x="2835" y="1142.7051">3. Indexed in AI Search</text><text fill="#000000" font-family="Verdana" font-size="13" lengthAdjust="spacing" textLength="192" x="2835" y="1158.5044">4. Logs treated as KB source</text><text fill="#000000" font-family="Verdana" font-size="13" lengthAdjust="spacing" textLength="205" x="2835" y="1174.3037">5. Incidents stored for learning</text></g><g id="elem_GMN54"><path d="M1153,590.7373 L1153,679.7339 L1369,679.7339 L1369,600.7373 L1359,590.7373 L1153,590.7373 " fill="#FFFFFF" style="stroke:#000000;stroke-width:1.0;"/><path d="M1359,590.7373 L1359,600.7373 L1369,600.7373 L1359,590.7373 " fill="#FFFFFF" style="stroke:#000000;stroke-width:1.0;"/><text fill="#000000" font-family="Verdana" font-size="13" font-weight="bold" lengthAdjust="spacing" textLength="115" x="1159" y="608.8071">Key Innovation:</text><text fill="#000000" font-family="Verdana" font-size="13" lengthAdjust="spacing" textLength="183" x="1159" y="624.6064">Databricks logs are not just</text><text fill="#000000" font-family="Verdana" font-size="13" lengthAdjust="spacing" textLength="195" x="1159" y="640.4058">monitoring data &#8212; they are a</text><text fill="#000000" font-family="Verdana" font-size="13" lengthAdjust="spacing" textLength="189" x="1159" y="656.2051">first-class knowledge source</text><text fill="#000000" font-family="Verdana" font-size="13" lengthAdjust="spacing" textLength="88" x="1159" y="672.0044">for diagnosis.</text></g><!--link UCVol to LogIngest--><g id="link_UCVol_LogIngest"><path d="M643.081,196.8202 C643.2305,196.8673 643.3818,196.915 643.5352,196.9633 C648.4418,198.5082 655.3326,200.6507 663.8658,203.2348 C680.9322,208.4029 704.5681,215.3373 732.0388,222.7898 C786.98,237.6948 857.26,254.6723 921,263.7373 C940.93,266.5673 1086.77,258.5673 1102,271.7373 C1106.19,275.3611 1109.6366,279.5995 1112.4592,284.2465 C1112.812,284.8274 1113.1551,285.4146 1113.4887,286.0079 C1113.6555,286.3045 1113.8199,286.6026 1113.9819,286.9021 C1114.0629,287.0519 1111.3311,281.902 1111.4109,282.0525 " fill="none" id="UCVol-to-LogIngest" style="stroke:#000000;stroke-width:1.0;"/><polygon fill="#000000" points="1114.2232,287.3526,1113.5381,277.5276,1111.8796,282.9358,1106.4714,281.2773,1114.2232,287.3526" style="stroke:#000000;stroke-width:1.0;"/><text fill="#000000" font-family="Verdana" font-size="13" lengthAdjust="spacing" textLength="111" x="922" y="260.8071">Weekly ingestion</text></g><!--link JobLogs to LogIngest--><g id="link_JobLogs_LogIngest"><path d="M1880.9485,198.2606 C1880.7112,198.375 1880.4695,198.4913 1880.2235,198.6092 C1879.2395,199.081 1878.1872,199.5802 1877.0741,200.1013 C1874.8479,201.1435 1872.3784,202.2732 1869.7263,203.4461 C1859.1175,208.1373 1845.585,213.5173 1833,216.7373 C1633.53,267.7773 1572.63,221.2873 1373,271.7373 C1315.54,286.2573 1253.595,310.5873 1205.5,331.5536 C1181.4525,342.0367 1160.8675,351.6789 1146.0369,358.8334 C1142.3292,360.622 1138.9812,362.2552 1136.0287,363.7071 C1134.5524,364.4331 1133.175,365.1138 1131.9009,365.7459 C1131.2639,366.062 1130.6527,366.366 1130.0679,366.6574 C1129.7755,366.8031 1134.8576,364.2651 1134.5784,364.4045 " fill="none" id="JobLogs-to-LogIngest" style="stroke:#000000;stroke-width:1.0;"/><polygon fill="#000000" points="1129.2105,367.085,1139.0495,366.6428,1133.6838,364.8512,1135.4754,359.4856,1129.2105,367.085" style="stroke:#000000;stroke-width:1.0;"/><text fill="#000000" font-family="Verdana" font-size="13" lengthAdjust="spacing" textLength="127" x="1523" y="260.8071">Daily log extraction</text></g><!--link Metadata to LogIngest--><g id="link_Metadata_LogIngest"><path d="M1345.894,194.2799 C1345.7008,194.2818 1345.5045,194.2837 1345.3049,194.2857 C1344.9059,194.2897 1344.4942,194.294 1344.07,194.2986 C1343.2216,194.3079 1342.3235,194.3186 1341.3773,194.3308 C1333.808,194.4289 1323.1667,194.6282 1310.3722,195.0323 C1284.7831,195.8404 1250.5813,197.4673 1215.1175,200.7398 C1144.19,207.2848 1068.215,220.4123 1046,246.7373 C1041.13,252.5073 1041.05,258.0273 1046,263.7373 C1062.47,282.7273 1083.81,254.3773 1102,271.7373 C1106.0075,275.5623 1109.3164,279.9525 1112.038,284.7108 C1112.3782,285.3056 1112.7092,285.9061 1113.0312,286.512 C1113.1923,286.815 1110.6151,281.7794 1110.7716,282.085 " fill="none" id="Metadata-to-LogIngest" style="stroke:#000000;stroke-width:1.0;"/><polygon fill="#000000" points="1113.5076,287.4249,1112.9635,277.591,1111.2276,282.975,1105.8437,281.2391,1113.5076,287.4249" style="stroke:#000000;stroke-width:1.0;"/><text fill="#000000" font-family="Verdana" font-size="13" lengthAdjust="spacing" textLength="102" x="1047" y="260.8071">Schema history</text></g><!--link LogIngest to DocChunks--><g id="link_LogIngest_DocChunks"><path d="M1129.2486,376.9619 C1129.529,377.0866 1129.8161,377.2141 1130.1098,377.3444 C1130.6972,377.6051 1131.3111,377.8769 1131.9508,378.1595 C1133.2304,378.7247 1134.6137,379.333 1136.0961,379.9814 C1139.0609,381.2783 1142.4222,382.7357 1146.1438,384.33 C1161.03,390.707 1181.68,399.2729 1205.77,408.5061 C1253.95,426.9723 1315.89,448.1073 1373,459.7373 C1423.54,470.0273 1798.41,457.4173 1836,492.7373 C1847.38,503.4298 1854.3094,517.4292 1858.2895,532.4603 C1859.2846,536.218 1860.0953,540.0403 1860.7451,543.8915 C1861.0701,545.8171 1861.3548,547.7499 1861.6022,549.6855 C1861.7259,550.6533 1861.191,545.6571 1861.2965,546.6257 " fill="none" id="LogIngest-to-DocChunks" style="stroke:#000000;stroke-width:1.0;"/><polygon fill="#000000" points="1861.9457,552.5905,1864.9483,543.2105,1861.4047,547.6199,1856.9953,544.0762,1861.9457,552.5905" style="stroke:#000000;stroke-width:1.0;"/><text fill="#000000" font-family="Verdana" font-size="13" lengthAdjust="spacing" textLength="86" x="1816" y="481.8071">Write chunks</text></g><!--link LogIngest to LogChunks--><g id="link_LogIngest_LogChunks"><path d="M1129.2177,377.1396 C1129.497,377.2701 1129.783,377.4035 1130.0756,377.5398 C1130.6608,377.8124 1131.2724,378.0965 1131.9098,378.3919 C1133.1847,378.9825 1134.5629,379.6178 1136.0401,380.2945 C1138.9944,381.6478 1142.3442,383.1666 1146.0537,384.825 C1160.8919,391.4582 1181.485,400.3229 1205.5375,409.7511 C1253.6425,428.6073 1315.585,449.7173 1373,459.7373 C1431.89,470.0173 1851.27,465.1673 1911,467.7373 C1989.13,471.0973 2205.01,439.1973 2262,492.7373 C2273.38,503.4298 2280.3094,517.4292 2284.2895,532.4603 C2285.2846,536.218 2286.0953,540.0403 2286.7451,543.8915 C2287.0701,545.8171 2287.3548,547.7499 2287.6022,549.6855 C2287.7259,550.6533 2287.191,545.6571 2287.2965,546.6257 " fill="none" id="LogIngest-to-LogChunks" style="stroke:#000000;stroke-width:1.0;"/><polygon fill="#000000" points="2287.9457,552.5905,2290.9483,543.2105,2287.4047,547.6199,2282.9953,544.0762,2287.9457,552.5905" style="stroke:#000000;stroke-width:1.0;"/><text fill="#000000" font-family="Verdana" font-size="13" lengthAdjust="spacing" textLength="132" x="2251" y="481.8071">Write error patterns</text></g><!--link DocChunks to AISearch--><g id="link_DocChunks_AISearch"><path d="M1863.0018,649.933 C1863.0569,650.0194 1863.1124,650.1061 1863.1681,650.193 C1863.2796,650.3669 1863.3921,650.5419 1863.5056,650.718 C1863.9598,651.4221 1864.4307,652.1433 1864.918,652.8795 C1866.8672,655.8242 1869.0788,659.0086 1871.53,662.3023 C1881.335,675.4773 1894.975,690.4023 1911,698.7373 C2050.38,771.2373 2143.88,637.1373 2262,740.7373 C2295.185,769.8473 2319.81,865.5648 2336.2,954.6386 C2340.2975,976.907 2343.8803,998.7602 2346.9535,1019.0536 C2348.4901,1029.2003 2349.8993,1038.9571 2351.1817,1048.1808 C2351.5024,1050.4868 2351.815,1052.7594 2352.1198,1054.9965 C2352.2722,1056.115 2352.4226,1057.2247 2352.571,1058.3251 C2352.6453,1058.8754 2351.9209,1053.4766 2351.9941,1054.0223 " fill="none" id="DocChunks-to-AISearch" style="stroke:#000000;stroke-width:1.0;"/><polygon fill="#000000" points="2352.7922,1059.969,2355.5595,1050.5169,2352.1271,1055.0134,2347.6306,1051.581,2352.7922,1059.969" style="stroke:#000000;stroke-width:1.0;"/><text fill="#000000" font-family="Verdana" font-size="13" lengthAdjust="spacing" textLength="108" x="2313" y="849.8071">Auto-sync index</text></g><!--link LogChunks to AISearch--><g id="link_LogChunks_AISearch"><path d="M2289.2778,642.421 C2289.8019,642.8236 2290.3481,643.2451 2290.9156,643.685 C2292.0505,644.565 2293.2707,645.5191 2294.5697,646.5452 C2297.1675,648.5973 2300.0804,650.9376 2303.2566,653.5492 C2315.9613,663.9954 2332.8788,678.7823 2350.7,696.8348 C2386.3425,732.9398 2425.6,782.1073 2442,835.7373 C2450.23,862.6673 2431.96,845.9773 2380,1037.7373 C2378.6913,1042.5661 2377.4208,1047.5598 2376.1985,1052.6078 C2376.1221,1052.9233 2377.4496,1047.4055 2377.3736,1047.7214 " fill="none" id="LogChunks-to-AISearch" style="stroke:#000000;stroke-width:1.0;"/><polygon fill="#000000" points="2375.9699,1053.5549,2381.9644,1045.7404,2377.1397,1048.6936,2374.1865,1043.8688,2375.9699,1053.5549" style="stroke:#000000;stroke-width:1.0;"/><text fill="#000000" font-family="Verdana" font-size="13" lengthAdjust="spacing" textLength="108" x="2444" y="849.8071">Auto-sync index</text></g><!--link IncidentKB to AISearch--><g id="link_IncidentKB_AISearch"><path d="M1879.2757,963.0818 C1879.8115,963.2661 1880.3719,963.4588 1880.9564,963.6598 C1882.1253,964.0617 1883.3905,964.4968 1884.7485,964.9637 C1887.4643,965.8976 1890.5511,966.9591 1893.9802,968.1382 C1907.6966,972.855 1926.8908,979.4554 1949.7366,987.3117 C1995.4281,1003.0242 2055.7262,1023.7598 2116.0225,1044.4948 C2176.3188,1065.2298 2236.6131,1085.9642 2282.2972,1101.6742 C2305.1392,1109.5292 2324.3287,1116.1281 2338.0395,1120.8429 C2341.4672,1122.0216 2344.5525,1123.0826 2347.2668,1124.016 C2348.624,1124.4827 2349.8884,1124.9175 2351.0566,1125.3192 C2351.6406,1125.52 2346.5267,1123.7615 2347.0622,1123.9456 " fill="none" id="IncidentKB-to-AISearch" style="stroke:#000000;stroke-width:1.0;"/><polygon fill="#000000" points="2352.7361,1125.8967,2345.5259,1119.1875,2348.0078,1124.2708,2342.9245,1126.7527,2352.7361,1125.8967" style="stroke:#000000;stroke-width:1.0;"/><text fill="#000000" font-family="Verdana" font-size="13" lengthAdjust="spacing" textLength="108" x="2073" y="1026.8071">Auto-sync index</text></g><!--link AISearch to GMN51--><g id="link_AISearch_GMN51"><path d="M2366.3155,1053.3749 C2366.4354,1052.979 2366.5572,1052.5839 2366.6811,1052.1896 C2367.1768,1050.6123 2367.7052,1049.0474 2368.2683,1047.4991 C2369.3945,1044.4026 2370.6595,1041.3725 2372.0787,1038.4426 C2377.7556,1026.7229 2385.9,1016.6048 2397.5,1010.2373 C2471.91,969.3873 2698.84,983.7773 2779.5,1010.2373 C2820.26,1023.6073 2859.22,1051.5473 2888.77,1077.0473 " fill="none" id="AISearch-GMN51" style="stroke:#000000;stroke-width:1.0;stroke-dasharray:7.0,7.0;"/></g><!--link LogIngest to GMN54--><g id="link_LogIngest_GMN54"><path d="M1129.298,388.7003 C1129.3991,388.8887 1129.5009,389.0785 1129.6035,389.2699 C1129.8088,389.6526 1130.0173,390.0412 1130.2289,390.4358 C1130.6522,391.2248 1131.088,392.0374 1131.536,392.8726 C1132.4321,394.5431 1133.3768,396.3044 1134.3669,398.1503 C1142.2875,412.917 1153.11,433.0942 1165.115,455.4761 C1189.125,500.2398 1217.865,553.8223 1237.58,590.5773 " fill="none" id="LogIngest-GMN54" style="stroke:#000000;stroke-width:1.0;stroke-dasharray:7.0,7.0;"/></g><!--SRC=[dLRRRkCs47tNLqnTeEXYryucQNe95W4SNnetcqjjxmO52XYqD9QvfaYLf988YmNw4Vt2Vac7b2t9aeC5-gJBd1cUEJCSyXkxnWGX5OpBm78h48RCigNcuSPqRvdbZ_JdTxWNpAwKJg3RXMd_LxYMwabW52DSCeFmdkMeWy1ik4oPPWbe32sJCONx701XmasiLIQZWH9AmxUZq_79UEWiIaUejt-Fptuy6xoblzC2gYLgE7uRVAa5ZXmxj-JXk3-FpqQ_DEEUZ7uQdfvGc20b1qQaEnyajpaCA9XGiK-AFLL9TNpqbH8KWx03-AX4bg3f03FmOK1V7W0GgYHL4gM5ZYEs29MqceNM77MQTfEbgT8MeqMuHXBt0E8liKYPjQZb0QlEv5AfGtvKlFm5KwGIAkmY5ieOfdCF-B8dH5NjgiPp5DGKLkU53gNadT_K4hw3UvwYu9Aghk924lhltjkYE0SY3i8XcyOvCnimbZJMH_HGcMr17fJUh8Hw0doaRrFG1zWZDKHX6T6YCjsWPSxWIUq-sgo6ezbWEhaSmTLaDh-R_j5QTd8xlflUzEUJkzl5R70rkkct8Ez902TW_tvoG5HFQSwM0erhhi4wankCW5ewpKnJrKY5r1E4ACGSgj3Z3yZfa3nw0-vfynHVgFSRi6xfXMH96-9NMbXyRgkDoHAZYCjuyKZRL-c3SbCfwsofxY-nJRTzuYbJ5z2plQJMIX_EnIraiYIXllr_JBaCUKJmnMRfgKwstzUNRQubzW17hPHTX2mpROuQ3Kq6ovLicLR43dMgkRHbWrHJiRxl-XEO8TFXshFiJueFpx4MxwDFb9A8yFbF-VqC4oOj3xUkhxnlWPb4p_kkLpcj56sHv7kD-HFDHtYzTIYS2rG1slSlTzAO2vfEXaBiDHezg815b2saaIrr2J6FqJYfOBUhAKvD1feLhtOjLM2R4eoU_N25JpHLVEFuWL03-4waKU3Res5xqDmYM0Mr1jv731aNEPrSAwhgkkCoA4PzjtjHutGE3uWR0l9TFi5k_3M1HK1tm631t85BCPle6PqB2OCrDrIIFAXC3bWD1LhVPrAaq81Lkt47yph1xbW9gZWENlRQEVGpgxecbo7bHHqML96-0gpjggyW0wc8aERnse9QbKWgmhlbXRjKp4WaYt5-_kveUK6_Ztl-MAPfPoW4LESmsKvwvLGbKp5mVJCwuscls2U5iTnVPFcXvqyji1ffgSYr6n4tAjCXalciLqu90wuE1A4Z4GJvIofuW382byOscQMoLYKkcx8EHJgqnIYIL8_C5NsNKAtRtOa8JAEB1fyoxvSekfKecXYndsBmxz__0DtFSezZxaR2jR7TK31ZO5FUm4hsZcd4MIoLuQPNSVqF]--></g></svg>